<svg width="168" height="48" viewBox="0 0 168 48" fill="none" xmlns="http://www.w3.org/2000/svg">
<path d="M69.6327 14.9342C69.2215 14.4766 68.6738 14.2696 67.9782 14.2696H66.1885V21.4507H67.9782C68.6738 21.4507 69.2215 21.2423 69.6327 20.7847C70.1354 20.2172 70.1494 19.1499 70.1494 17.7897C70.1494 16.4295 70.1354 15.5044 69.6327 14.9342ZM70.6437 21.8689C70.0298 22.4927 69.1427 22.7968 68.1317 22.7968H64.7129V12.9263H68.1317C69.1413 12.9263 70.0298 13.2304 70.6437 13.8542C71.6927 14.9215 71.6265 16.3634 71.6265 17.7911C71.6251 19.2189 71.6927 20.7988 70.6437 21.8689Z" fill="white"/>
<path d="M78.3542 14.7972C78.0121 14.4213 77.4798 14.1875 76.9039 14.1875C76.3308 14.1875 75.8014 14.4227 75.4578 14.7972C74.9819 15.3224 74.8833 15.8772 74.8833 17.8612C74.8833 19.8437 74.9819 20.3985 75.4578 20.9237C75.8014 21.2983 76.3322 21.5334 76.9039 21.5334C77.4812 21.5334 78.0121 21.2983 78.3542 20.9237C78.8301 20.3985 78.9273 19.8437 78.9273 17.8612C78.9259 15.8758 78.8301 15.3224 78.3542 14.7972ZM79.4722 21.8263C78.8034 22.505 77.9431 22.8795 76.9025 22.8795C75.8662 22.8795 75.0227 22.505 74.3468 21.8263C73.3922 20.8547 73.4063 19.7607 73.4063 17.8612C73.4063 15.9617 73.3922 14.8662 74.3468 13.8947C75.0213 13.216 75.8647 12.8442 76.9025 12.8442C77.9416 12.8442 78.802 13.216 79.4722 13.8947C80.4269 14.8662 80.403 15.9617 80.403 17.8612C80.403 19.7607 80.4269 20.8547 79.4722 21.8263Z" fill="white"/>
<path d="M87.8625 22.7949V18.4848H83.9156V22.7949H82.4414V12.9243H83.9156V17.1401H87.8625V12.9243H89.3409V22.7949H87.8625Z" fill="white"/>
<path d="M94.9061 15.1561L93.3924 19.538H96.3832L94.9061 15.1561ZM97.4603 22.7949L96.7915 20.8137H92.9559L92.2857 22.7949H90.7129L94.2781 12.9243H95.4679L99.0332 22.7949H97.4603Z" fill="white"/>
<path d="M105.163 12.9243H103.686V22.7949H105.163V12.9243Z" fill="white"/>
<path d="M113.669 22.7949L109.175 15.8503V22.7949H107.699V12.9243H109.052L113.547 19.8576V12.9243H115.023V22.7949H113.669Z" fill="white"/>
<path d="M120.137 22.8795C118.676 22.8795 117.623 22.5346 116.695 21.5785L117.682 20.5928C118.391 21.3124 119.168 21.5334 120.165 21.5334C121.436 21.5334 122.174 20.9801 122.174 20.024C122.174 19.5959 122.052 19.234 121.791 18.9989C121.548 18.7623 121.3 18.6652 120.725 18.5821L119.579 18.416C118.786 18.3033 118.158 18.0273 117.734 17.6246C117.256 17.167 117.026 16.5446 117.026 15.7392C117.026 14.0214 118.255 12.8442 120.277 12.8442C121.559 12.8442 122.464 13.1737 123.295 13.9637L122.352 14.9085C121.75 14.3241 121.052 14.1467 120.234 14.1467C119.089 14.1467 118.458 14.8113 118.458 15.6843C118.458 16.0448 118.569 16.363 118.827 16.5996C119.071 16.822 119.471 16.9896 119.921 17.0572L121.027 17.2233C121.926 17.3599 122.435 17.5852 122.84 17.9597C123.375 18.4286 123.636 19.1369 123.636 19.9817C123.637 21.7995 122.173 22.8795 120.137 22.8795Z" fill="white"/>
<path d="M128.907 14.269V22.7949H127.429V14.269H124.752V12.9243H131.584V14.269H128.907Z" fill="white"/>
<path d="M134.734 12.9243H133.26V22.7949H134.734V12.9243Z" fill="white"/>
<path d="M140.565 14.269V22.7949H139.088V14.269H136.414V12.9243H143.243V14.269H140.565Z" fill="white"/>
<path d="M148.254 22.8794C146.273 22.8794 144.77 21.5079 144.77 19.469V12.9243H146.244V19.3986C146.244 20.7166 147.038 21.5332 148.254 21.5332C149.467 21.5332 150.275 20.7166 150.275 19.3986V12.9243H151.749V19.469C151.749 21.5065 150.234 22.8794 148.254 22.8794Z" fill="white"/>
<path d="M157.428 14.269V22.7949H155.954V14.269H153.277V12.9243H160.104V14.269H157.428Z" fill="white"/>
<path d="M161.781 22.7949V12.9243H168.001V14.2704H163.257V17.1527H167.299V18.4848H163.257V21.4516H168.001V22.7949H161.781Z" fill="white"/>
<path d="M65.7369 28.3149V30.3495H68.4686V31.262H65.7369V34.0823H64.7344V27.4053H68.9417V28.3149H65.7369Z" fill="white"/>
<path d="M73.0632 28.6156C72.8323 28.3608 72.4704 28.2031 72.0818 28.2031C71.6904 28.2031 71.3341 28.3622 71.1032 28.6156C70.7779 28.9719 70.7132 29.3464 70.7132 30.6869C70.7132 32.0288 70.7779 32.4061 71.1032 32.7596C71.3327 33.013 71.6904 33.1721 72.0818 33.1721C72.469 33.1721 72.8309 33.013 73.0632 32.7596C73.3857 32.4061 73.4505 32.0288 73.4505 30.6869C73.4505 29.3464 73.3857 28.9719 73.0632 28.6156ZM73.8208 33.3693C73.3646 33.8297 72.7844 34.0832 72.0818 34.0832C71.3764 34.0832 70.8061 33.8297 70.3541 33.3693C69.7064 32.7145 69.7148 31.9725 69.7148 30.6883C69.7148 29.4041 69.7064 28.6621 70.3541 28.0073C70.8061 27.5483 71.375 27.2935 72.0818 27.2935C72.783 27.2935 73.3646 27.5469 73.8208 28.0073C74.4671 28.6635 74.4474 29.4041 74.4474 30.6883C74.4474 31.9725 74.4671 32.7131 73.8208 33.3693Z" fill="white"/>
<path d="M78.402 28.3163H76.925V30.4059H78.402C79.0666 30.4059 79.52 30.0229 79.52 29.3653C79.52 28.7091 79.0666 28.3163 78.402 28.3163ZM79.5566 34.0837L78.1669 31.269H76.9236V34.0837H75.9238V27.4053H78.4738C79.7228 27.4053 80.5169 28.222 80.5169 29.3569C80.5169 30.3143 79.9439 30.924 79.2046 31.1282L80.7183 34.0837H79.5566Z" fill="white"/>
<path d="M88.1309 33.3213C87.631 33.8564 87.0115 34.0817 86.3187 34.0817C85.6358 34.0817 85.0416 33.8296 84.5868 33.3678C83.9447 32.713 83.9531 31.971 83.9531 30.6868C83.9531 29.4027 83.9447 28.6606 84.5868 28.0059C85.0416 27.5454 85.6161 27.292 86.3187 27.292C87.7155 27.292 88.5279 28.2199 88.7124 29.3647H87.7056C87.5381 28.6339 87.0607 28.203 86.3187 28.203C85.9315 28.203 85.5823 28.3607 85.3485 28.6156C85.0233 28.9718 84.95 29.3464 84.95 30.6882C84.95 32.0301 85.0233 32.4131 85.3485 32.7708C85.5809 33.0242 85.9315 33.1735 86.3187 33.1735C86.7552 33.1735 87.1325 33.0059 87.3902 32.7046C87.6296 32.4244 87.7197 32.0879 87.7197 31.6556V31.281H86.3173V30.4179H88.7194V31.4402C88.7208 32.3019 88.5631 32.8553 88.1309 33.3213Z" fill="white"/>
<path d="M92.6668 28.3163H91.1897V30.4059H92.6668C93.3314 30.4059 93.7848 30.0229 93.7848 29.3653C93.7862 28.7091 93.3328 28.3163 92.6668 28.3163ZM93.8242 34.0837L92.4331 31.269H91.1883V34.0837H90.1914V27.4053H92.74C93.989 27.4053 94.7831 28.222 94.7831 29.3569C94.7831 30.3143 94.21 30.924 93.4694 31.1282L94.9845 34.0837H93.8242Z" fill="white"/>
<path d="M98.2895 28.9147L97.2658 31.8801H99.2892L98.2895 28.9147ZM100.02 34.0837L99.5694 32.7418H96.9702L96.5182 34.0837H95.4551L97.8657 27.4053H98.6683L101.083 34.0837H100.02Z" fill="white"/>
<path d="M105.342 28.7641C105.064 28.4543 104.697 28.3135 104.225 28.3135H103.016V33.1727H104.225C104.697 33.1727 105.064 33.0305 105.342 32.7221C105.681 32.3391 105.692 31.6154 105.692 30.6959C105.692 29.7793 105.681 29.1499 105.342 28.7641ZM106.026 33.4557C105.611 33.8768 105.011 34.0837 104.324 34.0837H102.012V27.4053H104.324C105.009 27.4053 105.611 27.6123 106.026 28.0319C106.736 28.7556 106.689 29.7314 106.689 30.6959C106.691 31.6633 106.736 32.732 106.026 33.4557Z" fill="white"/>
<path d="M110.421 34.082C109.08 34.082 108.066 33.1554 108.066 31.7755V27.3472H109.063V31.7291C109.063 32.619 109.598 33.1723 110.421 33.1723C111.243 33.1723 111.789 32.619 111.789 31.7291V27.3472H112.789V31.7755C112.788 33.1554 111.763 34.082 110.421 34.082Z" fill="white"/>
<path d="M116.457 28.9147L115.428 31.8801H117.456L116.457 28.9147ZM118.185 34.0837L117.73 32.7418H115.134L114.682 34.0837H113.617L116.031 27.4053H116.836L119.247 34.0837H118.185Z" fill="white"/>
<path d="M121.853 28.3149V34.0823H120.856V28.3149H119.041V27.4053H123.662V28.3149H121.853Z" fill="white"/>
<path d="M124.797 34.0837V27.4053H129.001V28.3163H125.797V30.2665H128.528V31.1662H125.797V33.1727H129.001V34.0837H124.797Z" fill="white"/>
<path d="M134.34 34.0832C133.35 34.0832 132.639 33.8466 132.01 33.2003L132.676 32.5357C133.155 33.0229 133.683 33.1721 134.358 33.1721C135.217 33.1721 135.716 32.7976 135.716 32.1499C135.716 31.8598 135.634 31.6148 135.46 31.4571C135.292 31.298 135.126 31.2318 134.74 31.1769L133.964 31.0629C133.425 30.9896 133 30.801 132.715 30.5306C132.393 30.2208 132.232 29.7984 132.232 29.2549C132.232 28.0904 133.062 27.2935 134.43 27.2935C135.3 27.2935 135.91 27.5187 136.473 28.0524L135.838 28.6917C135.43 28.2988 134.96 28.1749 134.405 28.1749C133.629 28.1749 133.204 28.6255 133.204 29.2155C133.204 29.4605 133.28 29.6731 133.453 29.835C133.619 29.9857 133.888 30.0969 134.194 30.1448L134.943 30.2574C135.548 30.3504 135.893 30.4996 136.168 30.7545C136.528 31.0727 136.707 31.5515 136.707 32.1231C136.706 33.351 135.716 34.0832 134.34 34.0832Z" fill="white"/>
<path d="M140.263 28.3149V34.0823H139.266V28.3149H137.455V27.4053H142.074V28.3149H140.263Z" fill="white"/>
<path d="M145.468 34.082C144.126 34.082 143.109 33.1554 143.109 31.7755V27.3472H144.106V31.7291C144.106 32.619 144.644 33.1723 145.468 33.1723C146.287 33.1723 146.835 32.619 146.835 31.7291V27.3472H147.832V31.7755C147.832 33.1554 146.806 34.082 145.468 34.082Z" fill="white"/>
<path d="M152.771 28.7641C152.495 28.4543 152.125 28.3135 151.652 28.3135H150.442V33.1727H151.652C152.125 33.1727 152.495 33.0305 152.771 32.7221C153.113 32.3391 153.12 31.6154 153.12 30.6959C153.122 29.7793 153.115 29.1499 152.771 28.7641ZM153.454 33.4557C153.04 33.8768 152.437 34.0837 151.757 34.0837H149.445V27.4053H151.757C152.437 27.4053 153.04 27.6123 153.454 28.0319C154.168 28.7556 154.122 29.7314 154.122 30.6959C154.122 31.6633 154.168 32.732 153.454 33.4557Z" fill="white"/>
<path d="M156.597 27.4053H155.598V34.0823H156.597V27.4053Z" fill="white"/>
<path d="M158.316 34.0837V27.4053H162.521V28.3163H159.313V30.2665H162.046V31.1662H159.313V33.1727H162.521V34.0837H158.316Z" fill="white"/>
<path d="M165.632 34.0832C164.644 34.0832 163.933 33.8466 163.305 33.2003L163.971 32.5357C164.451 33.0229 164.977 33.1721 165.652 33.1721C166.511 33.1721 167.012 32.7976 167.012 32.1499C167.012 31.8598 166.926 31.6148 166.752 31.4571C166.584 31.298 166.419 31.2318 166.032 31.1769L165.255 31.0629C164.718 30.9896 164.292 30.801 164.007 30.5306C163.685 30.2208 163.527 29.7984 163.527 29.2549C163.527 28.0904 164.357 27.2935 165.728 27.2935C166.593 27.2935 167.204 27.5187 167.771 28.0524L167.13 28.6917C166.721 28.2988 166.253 28.1749 165.698 28.1749C164.92 28.1749 164.495 28.6255 164.495 29.2155C164.495 29.4605 164.573 29.6731 164.747 29.835C164.913 29.9857 165.182 30.0969 165.486 30.1448L166.235 30.2574C166.843 30.3504 167.184 30.4996 167.464 30.7545C167.823 31.0727 168.001 31.5515 168.001 32.1231C168.001 33.351 167.012 34.0832 165.632 34.0832Z" fill="white"/>
<path d="M45.559 25.0708L43.9268 24.0001V33.3006H43.1396V25.0629L41.568 24.0001V33.3019H40.747L35.8309 26.6215H30.8556L29.9839 28.2446H35.093L38.5699 33.3019H29.9079L29.1953 34.9092H45.559V25.0708Z" fill="white"/>
<path d="M23.7402 33.3006V24.0001L25.9221 25.0708V34.9092L23.7402 33.3006Z" fill="white"/>
<path d="M9.55932 28.4301L7.96483 29.8241V33.1444H2.42789V29.8313L0.832031 28.3638L0.833399 34.9092H9.55932V28.4301Z" fill="white"/>
<path d="M22.0316 30.0742V33.2993H20.9105V29.823L19.1988 30.8923V33.2993H18.0762V30.6424L16.3689 31.7117V33.2993H11.2689V25.0708L9.55859 24.0001V33.2993V34.9092H11.2689H23.7404V33.2993V29.0035L22.0316 30.0742Z" fill="white"/>
<path d="M16.1055 6.54541L19.3602 2.18176L22.6509 6.54541H16.1055Z" fill="white"/>
<path d="M41.7736 9.81824L43.3772 11.0115V21.8183H29.1953L29.9224 20.0636H38.7619L35.2129 14.5439H29.9109L30.7629 12.736H35.927L40.9805 20.0636H41.7736V9.81824Z" fill="white"/>
<path d="M2.47827 20.1316V14.8288H5.09089L7.85943 20.1316H2.47827ZM22.6503 19.0669L18.588 13.0911H10.4496L9.56185 14.8288L10.6195 17.092L11.7376 14.8288H17.7958L21.2821 20.1316H9.77254L6.08959 13.098H0.832031V21.8184H8.65586H9.90177H10.6884H21.608L22.6503 19.0669Z" fill="white"/>
<path d="M43.377 46.4022V37.0909L45.5588 38.1557V48.0001L43.377 46.4022Z" fill="white"/>
<path d="M43.377 20.0592V9.81824L45.5588 10.9881V21.8183L43.377 20.0592Z" fill="white"/>
<path d="M17.1957 48.0001H0.832031V38.1541L2.43221 37.0909V46.4047H17.1957V48.0001Z" fill="white"/>
<path d="M41.7451 37.1105V46.4049H36.454L40.6919 41.4747L38.8633 39.8782H31.4203L29.6985 41.4512L33.9042 46.4036H28.6335V37.0909L26.84 38.1526V46.4023H24.3575V42.0603L22.6504 43.122V48.0001H43.3777V38.1487L41.7451 37.1105ZM38.5137 41.4421L35.2003 45.3549L31.8854 41.4421H38.5137Z" fill="white"/>
<path d="M29.1888 27.2727L27.4874 28.3614C27.4874 28.3614 27.4874 29.894 27.4804 29.9903C27.3342 33.999 26.2065 36.5715 25.0056 38.901C23.8709 41.0897 22.7826 42.3933 22.6504 42.5455C26.9756 38.7266 28.4506 34.281 28.9484 31.9891C29.1635 31.0009 29.1959 30.2904 29.1959 30.2904L29.1888 27.2727Z" fill="white"/>
<path d="M24.8186 13.0911L21.5586 21.8809H27.3399H27.3917V27.2729L29.195 26.2195V13.0925H24.8186V13.0911ZM27.3917 20.2063H24.1154L25.9409 14.8393H27.3917V20.2063Z" fill="white"/>
<path d="M39.6494 0.00139225L34.2983 7.06839H32.3716L36.4974 1.70482L34.7523 0H27.6436L26.0871 1.67977L30.0956 7.06839H28.1829L22.8234 0.00139225H11.3974L12.5989 1.67281H22.0284L26.1277 7.06979H15.0957L9.7082 0.00278451H3.67246L2.48348 1.6742H8.95513L12.9999 7.07118H2.38568L0.832031 8.7259H34.9954L40.4108 1.6756H43.9177V6.58965L39.8212 3.3164L38.839 4.53552L43.7081 8.48931L43.9722 8.72729H45.5594V0.00556768H39.6494V0.00139225ZM28.0907 1.67142H34.4198L31.2538 5.8451L28.0907 1.67142Z" fill="white"/>
<path d="M19.378 46.9091H18.2871V48H19.378V46.9091Z" fill="white"/>
<path d="M22.6506 46.9091H20.4688V48H22.6506V46.9091Z" fill="white"/>
<path d="M1.92294 26.1818H0.832031V27.2727H1.92294V26.1818Z" fill="white"/>
<path d="M1.92294 24.0001H0.832031V25.091H1.92294V24.0001Z" fill="white"/>
<path d="M1.92294 9.81824H0.832031V12.0001H1.92294V9.81824Z" fill="white"/>
<path d="M4.10458 9.81824H3.01367V12.0001H4.10458V9.81824Z" fill="white"/>
</svg>
