<svg width="231" height="87" viewBox="0 0 231 87" fill="none" xmlns="http://www.w3.org/2000/svg">
<g clip-path="url(#clip0)">
<path d="M179.733 20.7274L179.477 22.6841C179.477 22.6841 181.028 23.48 183.059 23.48C183.628 23.48 184.822 23.3584 185.346 23.1705C187.177 22.5072 188.069 21.1917 188.069 19.5667C188.069 18.008 186.92 17.002 185 16.6593L183.617 16.4272C182.523 16.2503 181.608 15.985 181.608 14.7248C181.608 13.6414 182.635 12.8234 184.052 12.8234C184.855 12.8234 185.815 13.0997 186.328 13.7188L186.362 14.4816H187.132L187.299 12.4917C186.206 12.0717 185.157 11.9279 184.097 11.9279C181.619 11.9279 179.577 12.9229 179.577 15.5097C179.577 16.9025 180.581 18.0743 182.623 18.417L184.297 18.6934C185.458 18.8924 185.893 19.6994 185.893 20.3958C185.893 21.8771 184.654 22.6067 183.204 22.6067C182.311 22.6067 180.983 22.1093 180.447 21.3576L180.392 20.7274H179.733ZM141.959 32.8654C142.037 32.9428 145.139 31.3952 146.277 32.6333C147.605 34.0704 145.875 39.5867 142.282 46.6285C138.8 53.4492 135.676 59.076 134.939 61.2427C134.192 63.4315 135.787 62.6356 137.472 61.7844C140.809 60.082 154.915 48.3972 156.711 47.4797C157.716 46.9601 149.603 56.5666 141.635 64.8797C132.495 74.3867 123.679 84.9881 111.025 84.9881C97.7449 84.9881 91.8862 74.2429 91.8862 74.2429C91.8862 74.2429 95.1113 86.9558 111.761 86.9558C130.833 86.9558 145.228 67.0685 155.651 55.0631C164.099 45.3461 171.431 36.7677 176.609 33.7277C181.787 30.6877 187.455 32.567 187.455 32.567C179.387 27.6145 169.355 34.8111 161.275 41.9192C154.58 47.8224 143.03 55.6269 142.282 56.2239C141.3 56.9977 154.591 34.0262 150.752 30.7098C149.346 29.4606 141.322 32.2685 141.959 32.8654ZM224.739 12.8234V12.138H221.57V12.8234C222.251 12.8234 222.608 12.9339 222.418 13.2656C222.251 13.564 219.885 17.4553 219.885 17.4553C219.885 17.4553 217.798 13.8404 217.564 13.4424C217.352 13.0666 217.385 12.7902 218.501 12.8234V12.138H213.334V12.8234C214.562 12.7902 214.662 13.1218 214.952 13.5861C215.242 14.0504 218.144 18.8592 218.144 18.8592V21.3797C218.133 22.5515 218.055 22.662 216.693 22.6288V23.3142H222.016V22.6178C220.632 22.662 220.554 22.5515 220.554 21.3907C220.554 21.3907 220.543 18.5165 220.554 18.3507C220.554 18.3507 223.166 13.962 223.389 13.6083C223.623 13.2435 223.813 12.8234 224.739 12.8234ZM113.223 21.3576C113.223 22.5293 113.156 22.6509 111.772 22.6067V23.3032H115.689V22.6067C114.305 22.6509 114.239 22.5293 114.239 21.3576V14.6916L122.139 23.5132L123.378 23.1484V14.0947C123.378 12.9229 123.445 12.8013 124.829 12.8455V12.149H120.901V12.8455C122.296 12.8013 122.351 12.9229 122.351 14.0947V20.2521L121.961 19.8431L115.254 12.1822L111.761 12.149V12.8455C113.145 12.8013 113.212 12.9229 113.212 14.0947L113.223 21.3576ZM129.605 21.3576C129.583 22.5293 129.516 22.6509 128.154 22.6178V23.3032H133.477V22.6067C132.094 22.6509 132.027 22.5293 132.027 21.3576V14.0836C132.027 12.9118 132.082 12.8123 133.477 12.8234V12.138H128.154V12.8234C129.516 12.7902 129.594 12.9229 129.605 14.0836V21.3576ZM141.122 14.3047C140.965 13.9509 140.72 13.5198 140.787 13.1329C140.843 12.8344 141.512 12.8234 142.104 12.8234V12.138H136.58V12.8234C137.115 12.8234 137.93 13.0997 138.343 13.9952L142.45 23.3142H143.722C143.722 23.3142 146.545 16.8362 147.973 13.5861C148.319 12.8676 148.487 12.8234 149.29 12.8234V12.138H145.34V12.8234C146.378 12.8234 146.757 12.945 146.757 13.2656C146.757 13.4314 146.612 13.752 146.5 14.1057L143.8 20.5837L141.122 14.3047ZM153.654 21.6339C153.654 22.3525 153.397 22.5736 152.426 22.6288V23.3142H161.499L161.666 20.7827H160.997L160.662 22.0982C160.662 22.0982 159.133 22.2972 156.064 22.2972V17.9196H158.039C158.352 17.9196 158.887 17.9527 158.943 18.3175C159.021 18.6492 158.954 19.1245 158.954 19.1245H159.669L159.936 16.0071H159.256C159.222 16.383 159.178 16.5267 159.066 16.803C158.988 17.1015 158.753 17.1015 158.508 17.1015H156.064V13.6414C156.064 13.4424 156.109 13.2324 156.176 13.0555C156.667 13.0555 158.865 13.0334 159.479 13.0887C159.847 13.1218 160.249 13.1882 160.26 13.4424C160.293 13.7962 160.327 14.2715 160.327 14.2715H160.974L161.142 12.746L161.209 12.149H152.158V12.8344C153.464 12.9008 153.598 13.0113 153.631 14.0173V21.6339H153.654ZM166.398 21.3576C166.375 22.5293 166.308 22.6509 164.936 22.6178V23.3032H170.259V22.6067C168.875 22.6509 168.797 22.5293 168.797 21.3576V13.4424C168.797 13.3319 168.864 13.0666 168.864 13.0666C169.288 12.9671 169.4 12.956 169.891 12.956C171.23 12.956 172.245 13.9952 172.245 15.3328C172.245 16.8141 171.777 17.6985 169.779 17.8864L169.734 18.1849L173.317 23.3142H176.519V22.6288C176.084 22.5846 175.582 22.2419 175.325 21.8992L172.256 18.0301C174.053 17.6874 174.745 16.4604 174.667 14.9016C174.578 12.8234 172.446 12.138 170.549 12.138H164.913V12.8234C166.286 12.7902 166.353 12.9229 166.375 14.0836V21.3576H166.398ZM193.247 21.3576C193.225 22.5293 193.158 22.6509 191.797 22.6178V23.3032H197.12V22.6067C195.736 22.6509 195.669 22.5293 195.669 21.3576V14.0836C195.669 12.9118 195.736 12.7902 197.12 12.8344V12.138H191.797V12.8234C193.169 12.7902 193.225 12.9229 193.247 14.0836V21.3576ZM206.828 13.2324H209.239C210.176 13.2545 210.009 13.3429 210.131 14.161C210.165 14.3821 210.165 14.3489 210.165 14.5811H210.834L211.058 12.149H200.311C200.311 12.149 200.4 13.7851 200.367 14.5811H201.048C201.081 14.172 201.103 14.0394 201.137 13.752C201.349 13.3982 201.494 13.2766 201.907 13.2324H204.418V21.3686C204.396 22.5404 204.329 22.662 202.967 22.6288V23.3142H208.29V22.6178C206.906 22.662 206.839 22.5404 206.839 21.3686V13.2324H206.828ZM95.8925 12.8013V12.138H101.104V12.8013C100.512 12.8013 100.133 12.8565 99.9768 12.956C99.8987 13.0002 99.8429 13.0997 99.8094 13.2324C99.7313 13.564 99.709 18.1738 99.709 18.1738C99.709 19.1356 99.7201 19.7325 99.7425 19.9647C99.7983 20.4621 99.921 20.8601 100.133 21.1696C100.345 21.4792 100.658 21.7224 101.093 21.9103C101.528 22.0982 102.075 22.1977 102.733 22.1977C103.492 22.1977 104.106 22.0651 104.563 21.8219C105.021 21.5676 105.344 21.247 105.534 20.838C105.724 20.44 105.824 19.6772 105.824 18.5497C105.824 18.5497 105.824 14.6806 105.813 14.3821C105.791 13.7188 105.757 13.3098 105.702 13.1771C105.657 13.0887 105.601 13.0224 105.512 12.9892C105.333 12.9008 104.932 12.8455 104.318 12.8344V12.1712H108.145V12.8344C107.632 12.8344 107.309 12.8676 107.186 12.956C107.119 13.0002 107.063 13.0776 107.018 13.1992C106.974 13.3208 106.929 13.763 106.896 14.8022C106.873 15.7529 106.84 18.9145 106.84 18.9145C106.84 19.3898 106.806 19.8762 106.728 20.3847C106.661 20.8933 106.516 21.3244 106.293 21.6892C106.081 22.054 105.769 22.3746 105.367 22.662C104.976 22.9494 104.496 23.1705 103.961 23.3142C103.414 23.4579 102.789 23.5353 102.075 23.5353C101.238 23.5353 100.457 23.4248 99.7313 23.2147C99.2068 23.06 98.7716 22.8389 98.4368 22.5736C98.102 22.3083 97.8454 22.0098 97.6668 21.6781C97.4883 21.3465 97.3878 21.0259 97.3432 20.7164C97.3209 20.5285 97.2985 20.0089 97.2985 19.1798C97.2985 19.1798 97.2874 14.2384 97.2651 13.6414C97.2539 13.4093 97.2204 13.2324 97.1646 13.1329C97.1423 13.0776 97.0642 13.0113 96.9526 12.9339L95.8925 12.8013Z" fill="black"/>
<path d="M123.2 41.7533C123.133 41.7423 126.235 32.7106 128.958 32.1137C131.848 31.4836 130.554 34.999 129.951 36.0381C129.538 36.7566 129.817 36.823 130.42 36.2924C131.447 35.3969 133.846 32.6112 132.529 31.2514C132.116 30.8203 131.346 30.555 130.208 30.555C127.206 30.555 123.166 32.589 119.205 41.5212C119.205 41.5212 115.321 41.4549 111.918 42.0408C111.895 39.653 110.534 38.0943 107.967 38.0943C103.682 38.0943 97.7004 42.4056 94.5981 47.7229C91.4958 53.0401 92.4555 57.3514 96.7296 57.3514C101.015 57.3514 106.996 53.0401 110.099 47.7229C110.735 46.6395 111.192 45.6004 111.493 44.6276C112.565 44.4838 115.422 44.1854 117.966 44.3622C118.167 44.3733 115.143 52.3326 113.123 56.257C111.505 59.4076 106.583 65.3329 100.01 62.3924C98.6601 61.7954 98.7606 62.6135 100.847 63.3099C103.693 64.2606 108.96 65.0455 114.417 58.5011C117.676 54.5878 122.106 44.5612 122.106 44.5612C122.106 44.5612 131.781 45.335 133.455 37.641C133.433 37.641 131.826 42.9141 123.2 41.7533ZM98.6713 54.9636C96.2497 54.9636 95.9261 51.7246 97.9459 47.7229C99.9658 43.7211 103.559 40.4821 105.981 40.4821C107.51 40.4821 108.201 41.7755 108.001 43.7432C106.416 44.727 104.921 45.8878 104.921 45.8878C104.753 46.0204 104.787 46.0868 104.988 46.0315L107.655 45.3903C107.431 46.1199 107.13 46.9048 106.717 47.7118C104.686 51.7246 101.093 54.9636 98.6713 54.9636ZM230.899 65.7198C230.899 65.7198 227.964 67.8534 224.092 67.3448C219.439 66.7368 213.044 60.3804 211.527 58.9544C210.913 58.3685 221.76 55.9365 224.047 50.9508C225.409 47.9771 222.251 47.1259 222.251 47.1259C220.99 53.2723 214.83 55.439 209.607 58.0258C209.607 58.0258 207.42 57.2962 205.043 58.7996C204.061 59.4187 214.093 37.4863 215.611 34.601C215.689 34.4462 210.556 36.226 210.388 36.4582C210.009 36.9888 210.589 36.6793 210.433 37.3094C209.931 39.2329 205.277 48.5962 205.277 48.5962C202.153 48.5962 192.756 52.5758 191.54 53.2723C190.312 53.9687 193.37 49.1378 192.187 48.3972C190.993 47.6565 189.699 47.8555 186.931 48.552C184.621 49.1268 181.34 50.8845 179.744 51.6804C179.588 49.2152 178.071 47.6455 175.337 47.6455C170.549 47.6455 163.853 52.4653 160.383 58.4237C156.912 64.3711 157.984 69.202 162.771 69.202C167.558 69.202 174.254 64.3822 177.725 58.4237C178.729 56.6992 179.354 55.0742 179.611 53.626C182.121 52.0231 187.857 49.6685 188.304 50.4202C189.007 51.5809 180.983 66.2725 179.51 69.0583C179.488 69.1025 179.566 69.1467 179.733 69.0915C181.575 68.5277 183.829 67.6875 184.264 66.7811C186.317 62.5361 193.526 50.7739 200.534 52.0452C201.494 52.2221 204.463 50.3317 204.251 50.9287C203.726 52.399 197.388 65.3771 195.256 68.9367C194.765 69.7547 199.329 67.8755 199.887 66.8142C201.929 62.9451 204.63 60.9663 206.137 60.9663C207.844 60.9663 214.941 69.5116 222.608 69.5116C228.355 69.5116 231.256 65.8746 230.899 65.7198ZM164.958 66.5379C162.258 66.5379 161.889 62.9119 164.144 58.4348C166.398 53.9577 170.415 50.3317 173.127 50.3317C175.002 50.3317 175.749 52.0784 175.281 54.6431C173.897 55.8701 172.669 57.0751 172.669 57.0751C172.524 57.2188 172.547 57.263 172.736 57.1635L174.935 56.0359C174.7 56.7877 174.366 57.5946 173.942 58.4348C171.687 62.9009 167.67 66.5379 164.958 66.5379ZM44.2245 74.5856C44.1352 74.3203 44.046 74.1987 43.8451 74.0992C43.5773 73.9666 43.0416 74.0661 42.9858 74.0771C42.9858 74.0771 41.881 74.4309 41.5797 74.5304C41.5574 74.464 41.5351 74.3867 41.5128 74.3093C41.5016 74.265 41.4904 74.2319 41.4681 74.1877C41.8029 74.0771 42.9189 73.7123 42.9189 73.7123C42.9635 73.6902 43.4657 73.4691 43.5996 73.2038C43.6554 73.1043 43.6777 73.0048 43.6777 72.9053C43.6777 72.8169 43.6554 72.7174 43.6219 72.5958C43.3429 71.7556 42.7626 71.015 41.8922 70.3849C41.0218 69.7548 40.129 69.4342 39.2362 69.4342C38.9573 69.4342 38.8122 69.4894 38.656 69.6442C38.4439 69.8542 38.377 70.3959 38.377 70.4401V71.8994H38.1649C38.098 71.8994 38.031 71.8994 37.9529 71.9104V70.4512C37.9529 70.3959 37.886 69.8653 37.6739 69.6553C37.5177 69.5005 37.3726 69.4452 37.0936 69.4452C36.2009 69.4452 35.3081 69.7658 34.4377 70.3959C33.5673 71.026 32.987 71.7667 32.708 72.6068C32.6633 72.7285 32.6522 72.8279 32.6522 72.9164C32.6522 73.0159 32.6745 73.1154 32.7303 73.2149C32.8642 73.4802 33.3664 73.7123 33.411 73.7234C33.411 73.7234 34.5939 74.1103 34.8618 74.1877C34.8506 74.2319 34.8283 74.265 34.8171 74.3093C34.7948 74.3756 34.7725 74.453 34.7502 74.5193C34.3707 74.3977 33.3441 74.0661 33.3441 74.0661C33.2994 74.055 32.7526 73.9445 32.496 74.0882C32.2951 74.1877 32.2058 74.3093 32.1165 74.5746C31.8376 75.4147 31.871 76.3544 32.2058 77.3714C32.5406 78.3884 33.0762 79.1623 33.7904 79.6818C34.0136 79.8476 34.1587 79.8919 34.3819 79.8587C34.672 79.8145 35.0515 79.4165 35.0849 79.3723C35.0849 79.3723 35.8103 78.3884 35.9889 78.1342C36.0223 78.1563 36.0558 78.1894 36.0893 78.2116C36.1339 78.2447 36.1897 78.2779 36.2344 78.311C36.0223 78.5985 35.3416 79.5271 35.3416 79.5381C35.3193 79.5713 35.0849 79.9803 35.0849 80.2677C35.0849 80.2898 35.0849 80.323 35.0961 80.3451C35.1296 80.5662 35.2189 80.6878 35.442 80.8536C36.1674 81.3732 37.0713 81.6274 38.1538 81.6274C39.2362 81.6274 40.1402 81.3621 40.8655 80.8536C41.0887 80.6989 41.178 80.5662 41.2115 80.3451V80.2677C41.2115 79.9803 40.9883 79.5713 40.9548 79.5381C40.9548 79.5381 40.2852 78.6206 40.062 78.3221C40.1178 78.2889 40.1625 78.2558 40.2183 78.2226C40.2518 78.2005 40.2852 78.1673 40.3187 78.1452C40.5307 78.4326 41.2226 79.3833 41.2226 79.3833C41.2561 79.4276 41.6244 79.8255 41.9257 79.8698C42.1489 79.9029 42.2939 79.8587 42.5171 79.6929C43.2313 79.1733 43.767 78.3995 44.1018 77.3825C44.4589 76.3544 44.4923 75.4147 44.2245 74.5856ZM38.7341 71.214C38.7341 71.1698 38.8122 70.7718 38.9573 70.5728C39.359 70.0311 39.8947 70.407 40.3745 70.7276C40.7316 70.9708 41.0776 71.214 41.3342 71.0813L41.4458 71.026L41.4235 71.1587C41.4235 71.1808 41.4123 71.1919 41.4123 71.214C41.4123 71.4793 41.7248 71.7114 42.0484 71.9546C42.3944 72.2199 42.7738 72.5074 42.7738 72.8611C42.7738 72.9827 42.7291 73.1043 42.6287 73.237C42.4836 73.4359 42.1154 73.6349 42.0819 73.646C42.0819 73.646 41.5128 73.8339 41.3231 73.8892C41.1333 73.5133 40.8878 73.2149 40.5865 72.9938C40.4638 72.9053 40.3857 72.8832 40.2629 72.9053C40.1178 72.9274 39.9058 73.1375 39.8723 73.1706C39.8723 73.1706 39.5041 73.6791 39.1693 74.1324L39.0689 74.0661C39.4036 73.6128 39.7719 73.1043 39.7719 73.1043C39.7942 73.0601 39.917 72.839 39.917 72.6953V72.6511C39.8947 72.5295 39.85 72.4631 39.7273 72.3747C39.4371 72.1757 39.1023 72.032 38.7229 71.9657C38.7341 71.7556 38.7341 71.214 38.7341 71.214ZM39.8389 75.2931C39.8054 74.9062 39.638 74.5635 39.3813 74.2982C39.5599 74.055 39.7831 73.7455 39.7831 73.7455C39.7942 73.7234 39.9393 73.6018 40.0397 73.5686C40.2852 73.4912 40.3745 73.6902 40.4973 74.0329C40.5754 74.2429 40.6535 74.464 40.8097 74.5414C40.7874 74.5967 40.7651 74.6409 40.7651 74.7072C40.7651 74.8399 40.8097 74.9836 40.8544 75.1273C40.899 75.2931 40.9436 75.4258 40.9436 75.5253C40.9436 75.6469 40.899 75.7243 40.7651 75.7685C40.6647 75.8016 40.4749 75.7795 40.4415 75.7795C40.4415 75.7795 40.0955 75.669 39.8277 75.5806C39.8277 75.5363 39.8389 75.4921 39.8389 75.4479C39.85 75.3926 39.85 75.3484 39.8389 75.2931ZM38.7564 72.7616C39.1247 72.7727 39.3478 72.7948 39.3478 73.049C39.3478 73.1485 39.2697 73.3254 39.2586 73.3475C39.2586 73.3475 39.0354 73.6681 38.8568 73.9113C38.656 73.8229 38.4439 73.7786 38.2096 73.7676H38.1873C37.9529 73.7676 37.7297 73.8118 37.5289 73.9002C37.3503 73.646 37.116 73.3365 37.116 73.3365C37.1048 73.3144 37.0267 73.1485 37.0267 73.038C37.0267 72.7837 37.2499 72.7616 37.6181 72.7506C37.8413 72.7395 38.0757 72.7395 38.1984 72.6179C38.2989 72.7506 38.5332 72.7616 38.7564 72.7616ZM34.2591 73.6349C34.2257 73.6239 33.8574 73.4249 33.7123 73.2259C33.3218 72.6842 33.8351 72.2863 34.2926 71.9436C34.6386 71.6783 34.9733 71.424 34.9287 71.1476L34.9064 71.015L35.018 71.0703C35.2747 71.2029 35.6206 70.9708 35.9777 70.7165C36.4576 70.3959 36.9932 70.0201 37.3838 70.5617C37.5289 70.7607 37.607 71.1476 37.607 71.1919V71.9436C37.2276 72.0099 36.8816 72.1426 36.6026 72.3526C36.4799 72.441 36.4352 72.5074 36.4129 72.629V72.6732C36.4129 72.8279 36.5245 73.049 36.558 73.0822C36.558 73.0822 36.9374 73.6018 37.261 74.044C37.2276 74.0661 37.1941 74.0882 37.1494 74.1213C36.8147 73.6681 36.4464 73.1596 36.4464 73.1596C36.4129 73.1154 36.2009 72.9164 36.0558 72.8943C35.9331 72.8722 35.8549 72.8943 35.7322 72.9827C35.4309 73.2038 35.1854 73.5023 34.9957 73.8781L34.2591 73.6349ZM36.5022 75.5806C36.2344 75.669 35.8884 75.7795 35.8884 75.7795C35.8661 75.7795 35.6764 75.8016 35.576 75.7685C35.442 75.7243 35.3974 75.6469 35.3974 75.5253C35.3974 75.4258 35.4309 75.2931 35.4867 75.1273C35.5313 74.9836 35.576 74.8399 35.576 74.7072C35.576 74.6409 35.5648 74.5967 35.5313 74.5414C35.6876 74.464 35.7657 74.2429 35.8438 74.0329C35.9665 73.6902 36.0558 73.4912 36.3013 73.5686C36.4018 73.6018 36.5468 73.7234 36.558 73.7455C36.558 73.7455 36.7812 74.055 36.9597 74.2982C36.7365 74.5304 36.5803 74.8178 36.5245 75.1494C36.5022 75.2489 36.5022 75.3373 36.5022 75.4368V75.5806ZM35.2523 78.5653C35.23 78.5985 34.9287 78.8748 34.6944 78.9522C34.0583 79.1623 33.8351 78.5432 33.6454 78.0015C33.5003 77.5925 33.3552 77.1945 33.0762 77.1614L32.9535 77.1393L33.0428 77.0508C33.2548 76.8518 33.132 76.4539 33.0093 76.0338C32.8419 75.4811 32.6522 74.862 33.2994 74.652C33.5338 74.5746 33.9467 74.6299 33.9802 74.6409C33.9802 74.6409 34.4823 74.7957 34.7167 74.8731C34.6609 75.2489 34.6944 75.5916 34.7948 75.9122C34.8394 76.0559 34.8952 76.1222 34.9957 76.1775C35.1296 76.2438 35.4197 76.1996 35.4755 76.1886C35.4755 76.1886 36.0558 76.0006 36.5691 75.8348C36.5803 75.868 36.5915 75.9122 36.6026 75.9454C36.0781 76.1112 35.509 76.2991 35.509 76.2991C35.4532 76.3212 35.1965 76.4539 35.1296 76.5865C35.0738 76.6971 35.0738 76.7744 35.1184 76.9182C35.23 77.2719 35.442 77.5925 35.7433 77.8799C35.5871 78.101 35.2523 78.5764 35.2523 78.5653ZM36.1451 77.1724C35.9331 77.0066 35.788 76.885 35.788 76.7523C35.788 76.7081 35.8103 76.6529 35.8438 76.5976C35.9107 76.5091 36.0781 76.4207 36.1004 76.4096C36.1004 76.4096 36.4352 76.2991 36.6919 76.2107C36.9262 76.6529 37.3503 76.9734 37.8525 77.0729C37.8525 77.3382 37.8302 77.6699 37.8302 77.6699C37.8302 77.692 37.7855 77.8799 37.7297 77.9683C37.5735 78.1784 37.3838 78.0678 37.0825 77.8578C36.8928 77.7362 36.7031 77.6035 36.5357 77.6367C36.5134 77.4488 36.3348 77.3051 36.1451 77.1724ZM40.2518 79.1512C40.2741 79.1844 40.4526 79.5602 40.4526 79.8034C40.4526 80.4667 39.7942 80.4888 39.2139 80.4999C38.7787 80.5109 38.3546 80.522 38.2319 80.7762L38.1761 80.8868L38.1203 80.7762C37.9864 80.522 37.5735 80.5109 37.1383 80.4999C36.558 80.4888 35.9107 80.4667 35.9107 79.8034C35.9107 79.5602 36.0893 79.1844 36.1116 79.1512C36.1116 79.1512 36.4687 78.6648 36.5915 78.4879C36.9486 78.6648 37.2945 78.7532 37.6516 78.7532C37.8078 78.7532 37.886 78.7311 37.9641 78.6427C38.0757 78.5321 38.1203 78.2447 38.1203 78.2005V77.095H38.2542V78.2005C38.2542 78.2558 38.2989 78.5432 38.4105 78.6427C38.4997 78.7311 38.5778 78.7532 38.7229 78.7532C39.08 78.7532 39.426 78.6648 39.7831 78.4879C39.9281 78.7201 40.2518 79.1512 40.2518 79.1512ZM40.196 77.1724C40.0174 77.3051 39.8389 77.4488 39.8165 77.6257C39.638 77.5925 39.4483 77.7252 39.2586 77.8468C38.9573 78.0568 38.7676 78.1673 38.6113 77.9573C38.5444 77.8689 38.5109 77.6809 38.4997 77.6588V77.0619C39.0019 76.9624 39.4148 76.6418 39.6491 76.2107C39.917 76.2991 40.2406 76.4096 40.2406 76.4096C40.2629 76.4207 40.4303 76.5202 40.4973 76.5976C40.5307 76.6529 40.5531 76.6971 40.5531 76.7523C40.5642 76.885 40.4191 77.0066 40.196 77.1724ZM43.3206 77.0619L43.4099 77.1503L43.276 77.1724C42.9858 77.2166 42.8519 77.6035 42.7068 78.0126C42.5171 78.5542 42.2939 79.1623 41.6578 78.9633C41.4235 78.8859 41.111 78.6095 41.0999 78.5764L40.6089 77.9131C40.9102 77.6257 41.1222 77.3051 41.2338 76.9513C41.2561 76.885 41.2673 76.8297 41.2673 76.7745C41.2673 76.7192 41.2561 76.675 41.2226 76.6086C41.1557 76.476 40.8878 76.3433 40.8432 76.3212C40.8432 76.3212 40.2741 76.1333 39.7607 75.9675C39.7719 75.9343 39.7831 75.8901 39.7942 75.8569C40.3075 76.0227 40.8878 76.2107 40.8878 76.2107C40.9436 76.2217 41.2338 76.2659 41.3677 76.1996C41.4793 76.1443 41.5239 76.078 41.5686 75.9343C41.669 75.6137 41.7025 75.26 41.6467 74.8952C41.8699 74.8178 42.372 74.663 42.372 74.663C42.4055 74.652 42.8184 74.5967 43.0528 74.6741C43.6889 74.8841 43.5103 75.5032 43.3429 76.0559C43.2313 76.4649 43.1086 76.8518 43.3206 77.0619Z" fill="black"/>
<path d="M24.9188 76.7412C28.1997 80.8757 32.5407 84.5347 37.8637 87.6079L38.2432 87.829L38.6226 87.6079C43.9456 84.5347 48.2866 80.8757 51.5675 76.7412L52.4937 75.5142C54.9711 72.0983 56.7901 68.2955 57.9395 64.1832L57.973 64.0284C58.0846 63.6304 58.185 63.2214 58.2855 62.8124L58.3748 62.4255C58.6091 61.3642 58.7988 60.3361 58.955 59.3302V59.3854C59.3233 62.8566 60.5174 64.4706 62.7046 64.4706C64.3339 64.4706 65.3159 63.8515 65.7288 62.5692C65.7623 62.4697 65.8069 62.326 65.8739 62.1491C66.1864 61.2537 66.6997 59.7392 66.6997 58.899V58.7001C66.7108 57.9705 66.7108 57.1524 65.8404 56.8871C65.8069 56.8539 65.7623 56.8208 65.7288 56.7987C66.0301 56.6218 66.2645 56.467 66.4095 56.3344C66.789 55.9917 67.1907 55.0962 67.6594 54.0571C67.9272 53.4712 68.1951 52.8632 68.4629 52.3768C68.474 52.3547 68.4964 52.3105 68.5298 52.2663C70.4604 48.8172 71.0407 45.744 70.1591 43.6105C70.1591 43.5994 70.1479 43.5884 70.1479 43.5773C70.1368 43.5552 70.1145 43.5331 70.1033 43.511C69.5788 41.9965 68.9985 40.8579 66.7108 39.2439C65.7288 38.5585 64.7914 37.9947 64.0437 37.5415C63.2738 37.0772 62.6265 36.6903 62.2359 36.3476C63.151 36.4581 64.0326 36.7124 64.903 36.9666C66.0859 37.3093 67.3135 37.6631 68.6303 37.6631C71.1411 37.6631 72.4133 36.8008 73.44 36.1154C74.0761 35.6843 74.5671 35.3527 75.192 35.3527C75.2701 35.3527 75.3371 35.2974 75.3482 35.22C75.3594 35.1426 75.3259 35.0652 75.2478 35.0431C74.9577 34.9326 74.6452 34.6673 74.2993 34.3688C73.652 33.8161 72.7927 33.0975 71.3867 32.7438C71.3867 32.7217 71.3755 32.6996 71.3755 32.6774C71.1746 31.782 70.7059 30.8976 70.0029 30.0575C70.6501 30.2123 71.4648 30.3781 72.1455 30.3781C73.2503 30.3781 73.9868 30.0243 74.701 29.6816C74.8907 29.5932 75.0804 29.5048 75.2813 29.4163C75.404 29.3611 75.4822 29.2394 75.471 29.1178C75.4598 28.9852 75.3817 28.8746 75.259 28.8304C74.6898 28.6425 74.0091 28.0124 73.3619 27.4044C72.6588 26.7522 72.0004 26.1441 71.3532 25.912C70.9403 25.7683 70.5162 25.702 70.0252 25.702C69.802 25.702 69.59 25.713 69.3891 25.7241C69.1994 25.7351 69.0097 25.7462 68.8311 25.7462C68.6079 25.7462 68.4182 25.7241 68.2508 25.6909C68.1504 25.6688 68.1169 25.6467 68.1169 25.6467C68.1058 25.6356 68.0946 25.6025 68.0946 25.5693C67.983 25.2156 67.8045 24.9281 66.8001 24.7844C70.5497 23.6016 73.1498 22.2419 74.7345 20.661C76.5423 18.837 76.7766 16.9135 76.7878 15.4433V15.2332C76.7543 14.8131 76.6539 14.3931 76.4865 13.9951C76.1294 12.1379 75.2032 10.3913 74.5559 9.17528C74.2658 8.6336 74.0203 8.16931 73.9198 7.87083C73.8417 7.63869 73.7524 7.38443 73.6743 7.13017C73.3172 6.06893 72.9601 4.98557 72.5137 4.3444C72.179 3.858 71.409 3.26105 70.7282 2.73043C70.3042 2.39879 69.9024 2.0782 69.6681 1.84606C69.6123 1.79078 69.5342 1.77973 69.4672 1.82395C69.4003 1.85711 69.3668 1.93449 69.3891 2.01187C69.4672 2.27719 69.3891 2.49828 69.2887 2.74148C69.2106 2.95152 69.1213 3.16156 69.1213 3.41581C69.1213 3.70323 69.3333 4.03487 69.5342 4.3444C69.6346 4.49917 69.802 4.75342 69.8132 4.85292C69.735 4.84186 69.5453 4.67604 69.3891 4.55444C69.0208 4.25597 68.5075 3.83589 67.8714 3.75851C67.7375 3.74745 67.6148 3.72534 67.492 3.71429C67.7933 3.20578 67.9384 2.60883 67.9384 2.14453C67.9384 1.64707 68.05 1.33754 68.1727 0.972739L68.2174 0.829029C68.262 0.696373 68.2062 0.541608 68.0835 0.464225C67.9607 0.386843 67.8045 0.397898 67.6929 0.497389C67.6929 0.497389 67.6482 0.541608 67.4474 0.541608C67.28 0.541608 67.0679 0.508444 66.8559 0.486335C66.6104 0.453171 66.3649 0.420007 66.1306 0.420007C65.6284 0.420007 64.6017 0.729537 63.921 1.41492C63.9098 1.42598 63.9098 1.42598 63.9098 1.43703L63.8987 1.44809C63.5081 1.84606 63.4411 2.04504 63.4411 2.5425C63.4411 3.51531 63.8317 4.25597 64.3562 5.2951C64.624 5.80362 64.9253 6.38951 65.2266 7.10806C66.1194 9.18634 67.1907 9.4627 70.7171 10.3913C70.9737 10.4576 71.2416 10.5239 71.5317 10.6013C71.7437 10.6566 71.9558 10.7229 72.1566 10.8003C72.2906 12.3922 71.6991 14.2273 70.6055 15.587C68.7753 17.8642 66.0078 19.0471 63.3184 20.1968L62.9166 20.3626L64.2 19.1908C64.9253 18.5165 65.0704 17.7979 65.182 17.2231C65.2601 16.814 65.3271 16.4935 65.5614 16.2834C66.3203 15.587 66.9898 14.3267 67.2911 13.4424C67.5032 12.8233 67.2242 11.7178 66.9675 10.734C66.8559 10.2918 66.7332 9.8275 66.7332 9.63958C66.7332 9.51797 66.6551 9.40743 66.5435 9.35216C66.4319 9.29688 66.298 9.33005 66.1975 9.40743C66.0524 9.54008 65.7846 9.67274 65.461 9.8275C64.7691 10.1591 63.8317 10.6124 63.1733 11.5852C62.9948 10.8556 62.5707 10.1702 61.9123 9.56219C61.2093 8.92102 60.0487 8.48989 59.0332 8.10298C58.3413 7.84872 57.6829 7.59447 57.4262 7.37337C57.3369 7.28494 57.203 7.26283 57.0803 7.3181C56.9687 7.37337 56.8906 7.48392 56.8906 7.60552C56.8906 7.84872 56.8013 8.34618 56.712 8.87681C56.5781 9.66168 56.4219 10.5571 56.4219 11.2536C56.4219 11.6184 56.5669 12.0274 56.9017 12.6243C56.9129 12.6464 56.924 12.6575 56.9352 12.6796C57.1249 12.8896 57.3369 13.1439 57.5601 13.4424C58.0846 14.3046 58.6314 15.2553 58.6314 16.1286C58.6314 19.0581 56.2991 20.5505 53.9779 20.7384C53.7324 20.7605 53.4869 20.7716 53.2526 20.7716C50.7529 20.7716 49.5588 19.6661 49.2352 19.2903C49.291 18.9586 49.224 18.6049 49.0455 18.3285C48.8669 18.0522 48.5879 17.8532 48.2643 17.7868H48.242L49.079 14.0835L49.6146 11.8173C49.6369 11.74 49.6146 11.6626 49.57 11.5962C49.5253 11.5299 49.4584 11.4857 49.3803 11.4746C48.7665 11.3862 48.1416 11.2757 47.539 11.1762C46.4453 10.9882 45.3182 10.7893 44.18 10.7119C44.1465 10.7119 44.113 10.7119 44.0907 10.7229L42.3833 11.0656L42.2382 13.1107C41.8142 13.0886 41.3901 13.0665 40.9661 13.0555L41.0777 10.4466C41.0777 10.3692 41.0553 10.3029 40.9995 10.2476C40.9437 10.1923 40.8768 10.1591 40.7987 10.1591C39.9059 10.126 39.002 10.1149 38.1204 10.1149C37.2388 10.1149 36.3349 10.126 35.4421 10.1591C35.364 10.1591 35.2971 10.1923 35.2413 10.2476C35.1855 10.3029 35.1632 10.3692 35.1632 10.4466L35.2748 13.0555C34.873 13.0665 34.4601 13.0886 34.0584 13.1107L33.9133 11.0656L32.1501 10.7229C32.1166 10.7119 32.0943 10.7119 32.0608 10.7119C30.9337 10.8003 29.7955 10.9882 28.7019 11.1762C28.0992 11.2757 27.4632 11.3862 26.8605 11.4746C26.7824 11.4857 26.7155 11.5299 26.6708 11.5962C26.6262 11.6626 26.615 11.74 26.6262 11.8173L27.1619 14.0725L27.9988 17.7758H27.9876C27.664 17.8421 27.3962 18.03 27.2176 18.3175C27.0168 18.627 26.961 19.0139 27.0503 19.3787C27.2065 20.0088 27.731 20.4731 28.3113 20.4731C28.3894 20.4731 28.4563 20.4621 28.5233 20.451L28.7911 20.4068C28.6461 20.4952 28.4898 20.6058 28.3113 20.7163C27.664 20.8932 26.8271 21.0369 25.7558 21.0369C22.7539 21.0369 20.5666 18.218 20.5666 17.0241C20.5666 16.4713 20.6559 15.9518 20.7563 15.4101C20.8791 14.7358 21.0019 13.973 21.0019 12.967C21.0019 12.1821 20.8121 11.6184 20.6336 11.1098C20.3881 10.4134 20.1872 9.80539 20.522 8.7552C20.5443 8.68888 20.522 8.61149 20.455 8.56728C20.3881 8.52306 20.31 8.53411 20.2542 8.58938C19.4842 9.29688 19.3503 9.41848 17.9776 9.91594C16.6832 10.3802 15.4221 11.6294 15.2882 13.0112C15.0204 12.6685 14.6745 12.3701 14.3843 12.1932C13.7371 11.8063 13.101 11.751 12.543 11.6957C12.0632 11.6515 11.6391 11.6073 11.2708 11.3862C11.2039 11.342 11.1034 11.3641 11.0588 11.4304C11.003 11.4968 11.0142 11.5852 11.0811 11.6515C11.4605 12.0053 11.4605 13.8624 11.4605 14.5589C11.4605 15.3769 12.5207 16.3166 13.2349 16.9467C13.3353 17.0351 13.4246 17.1236 13.5139 17.1899C13.6478 17.3115 13.7705 17.4994 13.9268 17.7316C14.3732 18.417 15.0316 19.4008 16.9621 20.3515C13.0787 19.9978 7.53243 17.2894 5.94779 12.5027C5.8362 12.149 5.86968 11.8394 6.04823 11.5852C6.34953 11.1651 7.05258 10.9109 7.87837 10.9109C8.82692 10.9109 9.78663 11.2757 9.78663 11.9721C9.78663 12.0384 9.82011 12.0937 9.88707 12.1158C9.94287 12.1379 10.021 12.1269 10.0656 12.0827C10.7017 11.4968 10.8021 10.5903 10.5678 10.0044C10.4897 9.79434 10.3669 9.62852 10.2219 9.50692C10.6124 9.39637 10.9918 9.19739 11.3155 8.98735C11.3936 8.95419 12.119 8.58939 12.1636 8.56728C13.0229 7.99243 14.2281 6.54428 14.2281 5.48303C14.2281 5.32827 14.3843 5.07401 14.5629 4.79764C14.8976 4.25597 15.3552 3.52636 15.3552 2.48722C15.3552 1.61391 14.7414 -0.0111237 13.2684 -0.0111237C12.5765 -0.0111237 12.2305 0.176805 11.9292 0.33157C11.6503 0.486335 11.4047 0.61899 10.8021 0.61899C10.6682 0.61899 10.5455 0.707428 10.5008 0.829029C10.4562 0.95063 10.5008 1.09434 10.6013 1.18278C11.4047 1.81289 11.9181 2.5425 12.1636 3.42687C11.6056 3.858 11.1481 4.07909 10.8133 4.07909C10.0656 4.07909 8.0904 4.07909 6.37185 5.12928C4.64214 6.17947 3.63779 9.13106 3.10214 10.7119L3.09098 10.734C2.82315 11.5078 2.56649 11.9168 2.33214 12.2816C2.08663 12.6575 1.8746 12.9891 1.75185 13.5861C1.36127 15.3769 1.64025 19.0581 5.17779 21.4901C7.95649 23.4026 11.2039 23.8006 13.4469 23.8006C13.7817 23.8006 14.1165 23.7895 14.4513 23.7785C13.4581 24.2538 11.985 24.895 10.7129 25.3261C10.1326 25.5251 9.40721 25.7351 8.71533 25.9231C7.45431 26.2768 6.15982 26.6416 5.51257 27.0396C4.85417 27.4486 4.03953 28.3772 3.40344 29.1178C3.0575 29.5158 2.76736 29.8585 2.55533 30.0464C2.51069 30.0907 2.48837 30.168 2.51069 30.2233C2.53301 30.2896 2.59996 30.3228 2.66692 30.3228C3.73823 30.3228 4.09533 30.3228 5.0104 30.5107C5.25591 30.566 5.35634 30.6213 5.45678 30.6766C5.55721 30.7318 5.66881 30.7982 5.85852 30.7982C6.03707 30.7982 6.29373 30.7429 6.75127 30.6102C6.27142 31.0856 5.7246 31.8594 5.60185 33.0091H4.5417C3.53736 33.0091 2.77852 33.5176 2.09779 33.9708C1.5175 34.3577 0.95953 34.7336 0.334603 34.7336C0.178371 34.7336 0.0444576 34.8552 0.0221387 35.01C-0.000180138 35.1647 0.100255 35.3084 0.256487 35.3527C0.702864 35.4743 1.41707 35.9275 2.16475 36.4029C3.54852 37.2983 5.26707 38.4037 6.84054 38.4037C8.32475 38.4037 8.98315 38.1384 9.46301 37.9394C9.75315 37.8178 9.96519 37.7405 10.2888 37.7405C10.5455 37.7405 10.8691 37.7957 11.215 37.851C11.6726 37.9284 12.1859 38.0058 12.7104 38.0058H12.9113C9.9875 39.8851 7.2646 41.9412 6.23794 44.3732C5.24475 46.75 6.33837 49.4584 6.92982 50.9176C7.04142 51.194 7.14185 51.4372 7.19765 51.603C7.51011 52.609 7.51011 54.433 7.51011 55.1184C7.51011 56.3012 8.49214 57.6278 9.47417 58.7774C9.00547 59.507 8.84924 60.5351 9.00548 62.0054C9.13939 63.3098 9.47417 64.0616 10.3223 64.9238C10.4116 65.0233 10.512 65.1228 10.6013 65.2002C10.7352 65.3218 10.8803 65.4323 11.0142 65.5208C11.0253 65.5318 11.0365 65.5318 11.0476 65.5429C11.6837 65.9187 12.4203 66.1288 13.1679 66.1288C13.4134 66.1288 13.659 66.1067 13.9156 66.0624C14.3732 65.974 14.7861 65.8192 15.1655 65.6203C15.1655 65.6203 15.1766 65.6203 15.1766 65.6092C15.1878 65.5982 15.199 65.5982 15.2101 65.5871H15.2213C15.4891 65.4213 15.7123 65.2223 15.8797 65.0123C17.0068 63.8626 17.5424 62.2154 17.5424 59.706C17.5424 59.6065 17.5424 59.5181 17.5313 59.4186C17.6763 60.3693 17.8549 61.3421 18.0781 62.337L18.1674 62.7239C18.2678 63.133 18.3682 63.5309 18.4798 63.94L18.5133 64.0837C19.6627 68.196 21.4817 71.9988 23.9591 75.4147L24.9188 76.7412ZM67.2688 2.17769C67.2688 2.59777 67.1126 3.19472 66.7666 3.63691C65.4387 3.44898 64.8249 3.05101 64.5236 2.61988C64.412 2.34351 64.4232 2.05609 64.4343 1.82395V1.80184C64.9588 1.32649 65.7288 1.08329 66.1082 1.08329C66.298 1.08329 66.5323 1.11645 66.7555 1.13856C66.9787 1.17172 67.2019 1.19383 67.4139 1.20489C67.3246 1.4702 67.2688 1.76867 67.2688 2.17769ZM11.5945 1.23805C11.8846 1.17172 12.0855 1.06118 12.2752 0.961684C12.543 0.817974 12.7774 0.696373 13.313 0.696373C14.3285 0.696373 14.7749 1.93449 14.7749 2.56461C14.7749 3.42687 14.3843 4.04593 14.0719 4.54339C13.8375 4.90819 13.6478 5.22878 13.6478 5.56041C13.6478 5.91416 13.2795 6.76537 12.61 7.48392C12.9224 6.32318 13.2461 4.83081 12.8555 3.3716C12.6211 2.56461 12.2082 1.84606 11.5945 1.23805ZM11.4605 8.98735C11.4494 8.99841 11.4271 9.00946 11.4048 9.02052C11.4159 9.00946 11.4382 8.99841 11.4605 8.98735ZM51.601 37.0882C51.601 37.0882 51.601 37.0993 51.601 37.0882L48.2197 37.0993C48.0411 36.4471 47.8291 36.0823 46.981 35.3306C46.981 35.3084 46.9921 35.2974 46.9921 35.2753C46.9921 33.8824 47.3939 32.2021 47.8291 30.8534C47.8626 30.8976 47.8961 30.9529 47.9407 30.9971C49.3021 32.788 51.5675 35.7948 51.601 37.0882ZM42.361 19.2682C42.1824 19.2571 41.4459 19.2129 41.4459 19.2129C41.1 19.1687 40.8321 18.8149 40.8545 18.3838C40.8656 17.9637 41.1558 17.621 41.5129 17.61H41.524C41.6356 17.5989 42.4391 17.6542 42.4949 17.6652L42.6065 17.6763C42.8074 17.6874 43.0194 17.6984 43.2537 17.7205L43.6555 17.7537L44.2469 17.7979L45.1062 17.8863C45.4521 17.9195 45.7646 17.9527 46.0771 18.0079C46.211 18.03 46.3561 18.0522 46.4788 18.0632C46.7132 18.0964 46.9364 18.1295 47.1372 18.1627L48.175 18.3396C48.3424 18.3727 48.4875 18.4833 48.5879 18.627C48.6995 18.8039 48.733 19.036 48.6772 19.2571C48.5879 19.633 48.2755 19.9204 47.9742 19.9204C47.9407 19.9204 47.9072 19.9204 47.8626 19.9093L46.8917 19.7435C46.702 19.7104 46.49 19.6772 46.2668 19.6551C46.144 19.633 46.0101 19.6219 45.8874 19.5998C45.5861 19.5556 45.2624 19.5224 44.95 19.4893L44.18 19.4119L43.5327 19.3566C43.3988 19.3455 43.2649 19.3345 43.1421 19.3234C42.919 19.3013 42.6958 19.2903 42.5061 19.2792L42.361 19.2682ZM27.7756 13.973L27.3069 12.0053C27.8314 11.9279 28.3559 11.8394 28.8692 11.751C29.8624 11.5741 30.8891 11.3973 31.9046 11.3088L32.1613 13.5419C32.1836 13.6856 32.3063 13.7961 32.4626 13.7851C33.5116 13.7077 34.5829 13.6524 35.643 13.6192C35.7211 13.6192 35.7881 13.5861 35.8439 13.5308C35.8997 13.4755 35.922 13.4092 35.922 13.3318L35.8104 10.7229C36.6027 10.7008 37.4062 10.6898 38.1874 10.6898C38.9685 10.6898 39.772 10.7008 40.5643 10.7229L40.4527 13.3318C40.4527 13.4092 40.475 13.4755 40.5308 13.5308C40.5866 13.5861 40.6536 13.6192 40.7317 13.6192C41.7919 13.6524 42.852 13.7077 43.9121 13.7851C44.0572 13.7961 44.1911 13.6856 44.2135 13.5419L44.4701 11.3088C45.4856 11.3973 46.5123 11.5741 47.5055 11.751C48.0188 11.8394 48.5433 11.9279 49.0678 12.0053L48.5991 13.973L47.751 17.6984L47.2823 17.621C47.0703 17.5879 46.8471 17.5547 46.6127 17.5215C46.4788 17.4994 46.3449 17.4884 46.211 17.4663C45.8874 17.422 45.5414 17.3778 45.2066 17.3447L44.5929 17.2783L43.7336 17.2009L43.3319 17.1678C43.0975 17.1457 42.8632 17.1236 42.6623 17.1236L41.6245 17.0683H41.5575C41.5575 17.0683 41.4459 17.0572 41.2562 17.0572L40.5085 17.0351C40.0175 17.013 39.4149 17.002 38.7677 17.002L38.2097 16.9909L37.6517 17.002C37.0045 17.013 36.4019 17.013 35.9108 17.0351L35.1632 17.0572C34.9734 17.0572 34.873 17.0683 34.873 17.0683H34.7949L33.7571 17.1236C33.545 17.1346 33.3219 17.1567 33.0875 17.1678L32.6858 17.2009L32.072 17.2452L31.2127 17.3336C30.8779 17.3668 30.532 17.411 30.2195 17.4552C30.0856 17.4773 29.9517 17.4884 29.8178 17.5105C29.5723 17.5436 29.3491 17.5768 29.1482 17.61L28.6684 17.6984L27.7756 13.973ZM40.4974 19.1908H40.4081C39.9394 19.1687 39.3591 19.1687 38.7453 19.1576C38.5556 19.1576 38.3659 19.1576 38.1762 19.1466C37.9865 19.1466 37.7968 19.1466 37.6182 19.1576C37.0045 19.1687 36.4242 19.1687 35.9555 19.1908H35.8662L34.8953 19.2239C34.5606 19.2129 34.2704 18.8702 34.2369 18.4612C34.2258 18.229 34.2927 17.9969 34.4378 17.8421C34.5382 17.7316 34.661 17.6652 34.8061 17.6431H34.8284C35.0404 17.61 35.8997 17.5989 35.8997 17.5989H35.9108C36.3907 17.5768 36.9933 17.5768 37.6294 17.5658L38.1762 17.5547L38.7342 17.5658C39.3703 17.5768 39.9729 17.5768 40.4639 17.5989H40.5643C40.4081 17.82 40.3077 18.0964 40.2965 18.3948C40.2742 18.6823 40.3523 18.9586 40.4974 19.1908ZM28.4787 19.9314C28.1439 19.9978 27.7756 19.6993 27.6752 19.2792C27.6194 19.0581 27.6529 18.826 27.7645 18.6491C27.8649 18.4943 28.01 18.3948 28.1662 18.3617L29.204 18.1738C29.4049 18.1406 29.6169 18.1074 29.8513 18.0743C29.9852 18.0522 30.1191 18.0411 30.2642 18.019C30.5766 17.9748 30.9003 17.9416 31.235 17.8974L32.0832 17.809L32.6858 17.7647C32.8197 17.7537 32.9648 17.7426 33.0875 17.7316C33.3219 17.7095 33.545 17.6984 33.7459 17.6874L33.8575 17.6763C33.7124 17.9195 33.6455 18.2069 33.6678 18.4943C33.6901 18.7928 33.7906 19.0581 33.9579 19.2792H33.8687C33.6678 19.2903 33.4558 19.3013 33.2326 19.3234C33.1098 19.3345 32.9759 19.3455 32.842 19.3566L32.2617 19.4008L31.4359 19.4893C31.1235 19.5224 30.7998 19.5556 30.4985 19.5998C30.3646 19.6219 30.2307 19.633 30.1079 19.6551C29.8848 19.6882 29.6727 19.7104 29.483 19.7435L28.4787 19.9314ZM29.974 20.4842C30.0187 20.4621 30.0633 20.4178 30.0856 20.3736L30.1861 20.2189C30.3088 20.2078 30.4316 20.1857 30.5543 20.1636C30.8445 20.1194 31.1458 20.0862 31.4694 20.053L32.2952 19.9646L32.8755 19.9204L33.2772 19.8872C33.5004 19.8651 33.7124 19.8541 33.9021 19.843L34.9065 19.7877H34.9846C34.9846 19.7877 35.085 19.7767 35.2524 19.7767L35.989 19.7546C36.4465 19.7325 37.0268 19.7325 37.6294 19.7214C37.8191 19.7214 38.0088 19.7214 38.1874 19.7104C38.3771 19.7104 38.5668 19.7104 38.7565 19.7214C39.3703 19.7325 39.9394 19.7325 40.3969 19.7546L41.1223 19.7767C41.2785 19.7767 41.3678 19.7877 41.379 19.7877H41.4124C41.524 19.9314 41.6803 20.1304 41.9035 20.3957C42.1266 21.0369 42.2271 21.8107 42.2271 22.7062C42.2271 25.3151 40.821 26.6969 39.4707 28.0345C38.1539 29.3279 36.9152 30.555 36.9152 32.7548C36.9152 34.0151 37.9195 34.8552 38.8569 34.8552C39.1917 34.8552 39.493 34.7447 39.7274 34.5346C39.7608 34.5015 39.7832 34.4572 39.7832 34.413C39.7832 34.3688 39.7608 34.3246 39.7274 34.2914C39.5153 34.0924 39.2921 33.8382 39.1582 33.1417C39.7385 32.8764 40.4081 32.799 41.0665 32.7327C41.8923 32.6443 42.6623 32.5558 43.1645 32.1026C44.9053 30.5107 45.0727 29.1731 45.2178 28.1008C45.2848 27.5702 45.3517 27.1059 45.5861 26.6969C45.7758 27.0617 45.9208 27.4154 46.0771 27.7913C46.3784 28.5209 46.6908 29.2837 47.405 30.2675C46.9587 31.583 46.5123 33.2965 46.423 34.7778C45.6307 34.3909 44.7379 34.203 43.7224 34.203C43.0194 34.203 42.2606 34.2914 41.3343 34.4904C39.4037 34.8994 37.3392 36.5245 35.5203 37.9616C34.8953 38.459 34.2927 38.9233 33.7236 39.3323L33.7124 39.3434C33.2884 39.6529 32.7416 40.0177 32.2059 40.2499L31.3578 40.5041C31.3132 40.5041 31.2574 40.5152 31.2127 40.5152C31.1458 40.5152 31.09 40.5152 31.0342 40.5041C30.9449 40.1725 30.8556 39.8408 30.7552 39.5092C30.7552 39.4982 30.7552 39.4982 30.744 39.4871C30.5655 38.868 30.3758 38.249 30.1749 37.6631C30.1749 37.652 30.1749 37.652 30.1637 37.641C27.7533 30.5107 24.6845 27.736 23.4011 26.8295C29.9629 24.8508 40.051 23.6458 40.1626 23.6347C40.1849 23.6347 40.2184 23.6237 40.2407 23.6126C40.6313 23.4579 40.7764 22.0539 40.6648 21.4791C40.5532 20.8711 40.1849 20.5284 39.6604 20.5284C38.0981 20.5284 33.8017 22.9936 33.2549 23.3142C32.6188 23.4026 27.6306 24.1212 25.6777 24.5965V24.3201C27.0279 22.0208 29.9406 20.4952 29.974 20.4842ZM46.6797 37.0993H40.9995C40.9326 37.0109 40.8545 36.9224 40.7764 36.834C41.803 36.1707 42.7962 35.828 43.6443 35.828C44.8495 35.828 45.865 36.2481 46.6797 37.0993ZM29.3156 37.0993H25.7781C26.2356 36.2039 26.9721 35.0984 27.9542 33.8492C28.4229 34.7999 28.8804 35.8833 29.3156 37.0993ZM26.191 22.6067C25.7781 23.0489 25.3875 23.5463 25.075 24.088C25.0527 24.1322 25.0304 24.1875 25.0304 24.2428V24.9171C24.7179 25.0055 24.4278 25.094 24.1488 25.1713C24.2046 25.0829 24.2604 25.0166 24.305 24.9834C24.3497 24.9392 24.372 24.8839 24.3497 24.8286C24.3385 24.7734 24.2939 24.7292 24.2269 24.707C24.0484 24.6628 23.8587 24.5965 23.6913 24.5191C23.4346 24.3975 23.2449 24.2759 23.1556 24.1764C23.881 23.5684 24.9969 23.0489 26.191 22.6067ZM17.0626 27.7471C18.8481 26.4758 19.8413 26.122 20.8345 25.8788C20.3881 26.4095 19.819 27.2607 19.819 28.9078C19.819 29.4495 19.9305 29.9359 20.1537 30.4112C18.8592 31.0082 18.2901 31.0966 18.0669 31.0966C17.4197 31.0966 16.7613 30.7318 16.1363 30.367C15.8239 30.1901 15.5114 30.0133 15.1878 29.8696C15.1097 29.8364 15.0316 29.8032 14.9311 29.7811C15.8016 28.8083 16.5046 28.145 17.0626 27.7471ZM10.2665 49.8785C10.4339 48.563 11.8288 45.7551 15.835 41.9744C15.7123 42.107 15.6119 42.2397 15.5337 42.3724C14.4736 43.9532 14.6521 46.2857 14.7191 46.96C14.853 48.0765 15.2101 49.1378 15.7458 49.9448C15.8908 50.1659 16.0471 50.3649 16.2145 50.5307C15.8685 50.4865 15.5337 50.3096 15.1655 50.1327C14.6856 49.8895 14.1834 49.6353 13.592 49.6353C13.0117 49.6353 12.6769 49.7016 12.3087 49.7679C11.9181 49.8342 11.5052 49.9116 10.7352 49.9116C10.5901 49.9006 10.4227 49.8895 10.2665 49.8785ZM16.9733 50.3649C16.1921 49.779 15.5337 48.4414 15.3552 46.8937C15.0762 44.4396 15.8239 43.0799 16.0582 42.7261C16.2479 42.4387 16.5604 42.1181 16.9733 41.698V50.3649ZM13.0452 58.8327C13.4469 59.0206 13.8263 59.2417 14.1723 59.4849C14.2839 59.5623 14.3955 59.6508 14.4959 59.7392C14.4847 59.7834 14.4959 59.8387 14.5071 59.8829C14.7079 60.4799 14.8084 61.2868 14.15 61.8064C13.7147 62.1491 13.3242 62.2154 13.0675 62.2154C12.822 62.2154 12.5876 62.1491 12.4314 62.0275C12.5653 61.8838 12.6992 61.718 12.8108 61.519C13.2795 60.7452 13.4916 59.6729 13.0452 58.8327ZM14.8642 65.156C14.5405 65.3328 14.1834 65.4544 13.804 65.5318C13.592 65.565 13.38 65.5871 13.1791 65.5871C12.5542 65.5871 11.9404 65.4213 11.4048 65.1007C10.8021 64.6475 10.1326 64.1279 10.5566 62.6908C10.7017 62.2044 11.0365 61.9059 11.5721 61.7843C11.6056 61.9612 11.6837 62.1381 11.7953 62.2818C12.0743 62.6355 12.5542 62.8345 13.0675 62.8345C13.5697 62.8345 14.083 62.6466 14.5405 62.2928C15.0204 61.917 15.2771 61.3863 15.2882 60.7562C15.7569 61.3753 15.9355 61.9059 15.9355 62.1049C15.9355 62.1712 15.9355 62.2486 15.9466 62.3481C15.9801 63.0335 16.0359 64.4485 14.8642 65.156ZM13.6478 53.6149L13.4916 53.5707C13.034 53.438 12.8778 53.3828 12.8332 53.1506C13.6813 53.1506 14.7637 53.1175 15.2771 52.6421C15.5226 52.421 15.7123 52.1447 15.9132 51.8572C16.114 51.5698 16.3484 51.2382 16.6608 50.9286C16.7613 50.995 16.8617 51.0502 16.9621 51.1055C16.9733 53.2943 17.0403 55.7043 17.3639 58.28C16.7166 55.4721 14.362 53.836 13.6478 53.6149ZM16.9733 37.0993V40.1062C12.119 44.2848 10.021 47.6896 9.66388 49.6021C7.82258 49.0715 7.15301 47.2032 7.15301 45.5782C7.15301 43.4226 11.2485 40.2167 14.5405 37.6299C14.6745 37.5304 14.6968 37.3425 14.6075 37.2098C14.5182 37.0772 14.3285 37.033 14.1834 37.1104C13.7817 37.3425 13.313 37.453 12.7439 37.453C12.264 37.453 11.7842 37.3757 11.349 37.2983C10.9807 37.243 10.6236 37.1767 10.3223 37.1767C9.87591 37.1767 9.5746 37.2983 9.26214 37.4309C8.8046 37.6189 8.23548 37.84 6.88519 37.84C5.50142 37.84 3.87214 36.7898 2.55533 35.9386C2.13127 35.6622 1.72953 35.4079 1.37243 35.209C1.77417 35.0431 2.13127 34.7999 2.49953 34.5567C3.15794 34.1145 3.77171 33.7055 4.58634 33.7055H5.45678C5.4791 35.0542 5.91432 35.6069 6.27142 36.0602C6.53924 36.3918 6.72895 36.635 6.72895 37.1877C6.72895 37.2762 6.77359 37.3646 6.84054 37.4199C6.9075 37.4752 7.00794 37.5083 7.09721 37.4973C7.17533 37.4862 9.10591 37.1877 10.4004 35.629C10.6905 35.2863 11.0923 34.7557 11.5721 34.1477C11.7061 33.9708 11.8511 33.7829 12.0074 33.595C12.9559 33.8382 13.592 33.7829 13.9268 33.4292C14.1388 33.2081 14.1388 32.9538 14.1388 32.9096C14.1277 32.7659 14.0272 32.6553 13.8933 32.6222C13.8933 32.6222 13.38 32.5006 12.9559 32.0031C12.8332 31.8594 12.7327 31.7157 12.6546 31.5388C12.3645 30.9529 12.2863 30.4555 12.2752 30.168C12.755 30.157 13.7371 30.157 14.4847 30.3118C14.6745 30.356 14.8307 30.4002 14.9646 30.4555C15.2548 30.5771 15.5449 30.7429 15.8574 30.9198C16.5604 31.3177 17.2858 31.7267 18.1004 31.7267C18.5691 31.7267 19.3279 31.4946 20.3546 31.0303C20.5666 31.3398 20.7898 31.5941 21.0019 31.8262C21.2808 32.1358 21.5263 32.4121 21.6045 32.6774C21.6491 32.8212 21.7942 32.9206 21.9504 32.8985C22.0955 32.8764 22.1959 32.7659 22.2182 32.6222C22.3075 32.4563 22.8655 31.9921 23.2672 31.6604C24.2381 30.8534 24.93 30.2454 25.1197 29.7259C25.912 30.566 26.6708 31.5609 27.385 32.6996C27.4855 32.8764 27.5748 33.0533 27.6752 33.2412C26.749 34.3909 25.6888 35.8501 25.1085 37.1104H16.9733V37.0993ZM12.264 32.998C12.3756 32.8543 12.4984 32.6996 12.61 32.5558C12.8555 32.799 13.1121 32.9649 13.3242 33.0644C13.2349 33.0975 13.1233 33.1086 13.0005 33.1086C12.7997 33.1086 12.5542 33.0754 12.264 32.998ZM25.7 66.0735C25.5437 65.8524 25.3763 65.6092 25.3763 65.3218C25.3652 65.0786 25.3652 64.4153 25.5661 64.2053C25.5995 64.161 25.6442 64.15 25.6888 64.15C25.7892 64.15 25.8674 64.1721 25.912 64.2274C25.9901 64.3158 25.9455 64.4706 25.9455 64.4706L25.9232 64.5701H26.0236C26.191 64.5701 26.3361 64.36 26.3472 64.1279C26.3472 63.9952 26.2914 63.5641 25.5103 63.5088V63.4757C25.5103 63.0224 25.354 62.6134 25.1308 62.4586L25.0862 62.4255L25.0416 62.4586C24.8184 62.6023 24.6621 63.0114 24.6621 63.4757V63.5088C23.881 63.5641 23.8252 63.9952 23.8252 64.1279C23.8252 64.36 23.9814 64.5701 24.1488 64.5701H24.2492L24.2269 64.4706C24.2269 64.4706 24.1934 64.3158 24.2604 64.2274C24.305 64.1721 24.372 64.15 24.4836 64.15C24.5282 64.15 24.5729 64.1721 24.6063 64.2053C24.8072 64.4153 24.8072 65.0786 24.7961 65.3218C24.7961 65.6092 24.6287 65.8524 24.4724 66.0735C24.3497 66.2504 24.2492 66.3941 24.2492 66.5378V66.582H22.6981V61.1431C22.6981 60.8889 22.899 60.4909 23.1668 60.2367L23.2895 60.1372C23.4681 60.0156 23.6132 60.0156 23.6913 60.115H31.7149C31.793 60.0598 31.8711 60.0377 31.9381 60.0377C32.0385 60.0377 32.1501 60.104 32.1501 60.2919V65.6866L31.2239 66.582H29.7174V66.5378C29.7174 66.3941 29.6169 66.2393 29.4942 66.0735C29.3379 65.8524 29.1706 65.6092 29.1706 65.3218C29.1594 65.0786 29.1594 64.4153 29.3603 64.2053C29.3937 64.161 29.4384 64.15 29.483 64.15C29.5835 64.15 29.6616 64.1721 29.7062 64.2274C29.7843 64.3158 29.7397 64.4706 29.7397 64.4706L29.7174 64.5701H29.8178C29.9852 64.5701 30.1303 64.36 30.1414 64.1279C30.1414 63.9952 30.0856 63.5641 29.3045 63.5088V63.4757C29.3045 63.0224 29.1482 62.6134 28.925 62.4586L28.8804 62.4255L28.8358 62.4586C28.6126 62.6023 28.4563 63.0114 28.4563 63.4757V63.5088C27.6752 63.5641 27.6194 63.9952 27.6194 64.1279C27.6194 64.36 27.7756 64.5701 27.943 64.5701H28.0434L28.0211 64.4706C28.0211 64.4706 27.9876 64.3158 28.0546 64.2274C28.0992 64.1721 28.1662 64.15 28.2778 64.15C28.3224 64.15 28.3671 64.1721 28.4005 64.2053C28.6014 64.4153 28.6014 65.0786 28.5903 65.3218C28.5903 65.6092 28.4117 65.8524 28.2666 66.0735C28.1439 66.2504 28.0434 66.3941 28.0434 66.5378V66.582H25.9232V66.5378C25.9232 66.3941 25.8227 66.2504 25.7 66.0735ZM38.2432 86.0713C33.1768 83.0866 29.059 79.5712 25.9566 75.6026L38.2432 62.326L50.5297 75.6026C47.4274 79.5712 43.3095 83.0976 38.2432 86.0713ZM40.5197 55.9032C40.3634 55.6821 40.1961 55.4389 40.1961 55.1515C40.1849 54.9083 40.1849 54.245 40.3858 54.035C40.4193 53.9908 40.4639 53.9797 40.5085 53.9797C40.609 53.9797 40.6871 54.0018 40.7317 54.0571C40.8098 54.1455 40.7652 54.3003 40.7652 54.3003L40.7429 54.3998H40.8433C41.0107 54.3998 41.1558 54.1898 41.1669 53.9576C41.1669 53.825 41.1111 53.3938 40.33 53.3386V53.3054C40.33 52.8411 40.1849 52.4431 39.9506 52.2884L39.9059 52.2552L39.8613 52.2884C39.6381 52.4431 39.4819 52.8411 39.4819 53.3054V53.3386C38.7007 53.3938 38.6449 53.825 38.6449 53.9576C38.6449 54.1898 38.8011 54.3998 38.9685 54.3998H39.069L39.0466 54.3003C39.0466 54.3003 39.0132 54.1455 39.0801 54.0571C39.1248 54.0018 39.1917 53.9797 39.3033 53.9797C39.3479 53.9797 39.3926 54.0018 39.4261 54.035C39.6269 54.245 39.6269 54.9083 39.6158 55.1515C39.6158 55.4389 39.4372 55.6821 39.2921 55.9032C39.1694 56.0801 39.069 56.2238 39.069 56.3675V56.4117H36.9487V56.3675C36.9487 56.2238 36.8482 56.0691 36.7255 55.9032C36.5692 55.6821 36.4019 55.4389 36.4019 55.1515C36.3907 54.9083 36.3907 54.245 36.5916 54.035C36.625 53.9908 36.6697 53.9797 36.7143 53.9797C36.8148 53.9797 36.8929 54.0018 36.9375 54.0571C37.0156 54.1455 36.971 54.3003 36.971 54.3003L36.9487 54.3998H37.0491C37.2165 54.3998 37.3616 54.1898 37.3727 53.9576C37.3727 53.825 37.3169 53.3938 36.5358 53.3386V53.3054C36.5358 52.8411 36.3907 52.4431 36.1563 52.2884L36.1117 52.2552L36.0671 52.2884C35.8327 52.4431 35.6877 52.8411 35.6877 53.3054V53.3386C34.9065 53.3938 34.8507 53.825 34.8507 53.9576C34.8507 54.1898 35.0069 54.3998 35.1743 54.3998H35.2748L35.2524 54.3003C35.2524 54.3003 35.219 54.1455 35.2859 54.0571C35.3306 54.0018 35.3975 53.9797 35.5091 53.9797C35.5537 53.9797 35.5984 54.0018 35.6319 54.035C35.8327 54.245 35.8327 54.9083 35.8216 55.1515C35.8216 55.4389 35.6542 55.6821 35.4979 55.9032C35.3752 56.0801 35.2748 56.2238 35.2748 56.3675V56.4117H33.7236V50.9729C33.7236 50.7186 33.9245 50.3206 34.1923 50.0664L34.315 49.9669C34.4936 49.8453 34.6387 49.8453 34.7168 49.9448H42.7404C42.8185 49.8895 42.8966 49.8674 42.9636 49.8674C43.064 49.8674 43.1756 49.9337 43.1756 50.1217V55.5163L42.2494 56.4117H40.7429V56.3675C40.7429 56.2238 40.6424 56.0691 40.5197 55.9032ZM54.2123 65.6976L53.2861 66.5931H51.7795V66.5489C51.7795 66.4051 51.6791 66.2504 51.5564 66.0846C51.4001 65.8635 51.2327 65.6203 51.2327 65.3328C51.2216 65.0896 51.2216 64.4264 51.4224 64.2163C51.4559 64.1721 51.5006 64.161 51.5452 64.161C51.6456 64.161 51.7237 64.1832 51.7684 64.2384C51.8465 64.3269 51.8019 64.4816 51.8019 64.4816L51.7795 64.5811H51.88C52.0474 64.5811 52.1924 64.3711 52.2036 64.1389C52.2036 64.0063 52.1478 63.5751 51.3666 63.5199V63.4867C51.3666 63.0335 51.2104 62.6245 50.9872 62.4697L50.9426 62.4365L50.8979 62.4697C50.6748 62.6245 50.5185 63.0224 50.5185 63.4867V63.5199C49.7374 63.5751 49.6816 64.0063 49.6816 64.1389C49.6816 64.3711 49.8378 64.5811 50.0052 64.5811H50.1056L50.0833 64.4816C50.0833 64.4816 50.0498 64.3269 50.1168 64.2384C50.1614 64.1832 50.2284 64.161 50.34 64.161C50.3846 64.161 50.4293 64.1832 50.4627 64.2163C50.6636 64.4264 50.6636 65.0896 50.6524 65.3328C50.6524 65.6203 50.485 65.8635 50.3288 66.0846C50.2061 66.2614 50.1056 66.4051 50.1056 66.5489V66.5931H47.9853V66.5489C47.9853 66.4051 47.8849 66.2504 47.7621 66.0846C47.6059 65.8635 47.4385 65.6203 47.4385 65.3328C47.4274 65.0896 47.4274 64.4264 47.6282 64.2163C47.6617 64.1721 47.7064 64.161 47.751 64.161C47.8514 64.161 47.9295 64.1832 47.9742 64.2384C48.0523 64.3269 48.0077 64.4816 48.0077 64.4816L47.9853 64.5811H48.0858C48.2532 64.5811 48.3982 64.3711 48.4094 64.1389C48.4094 64.0063 48.3536 63.5751 47.5724 63.5199V63.4867C47.5724 63.0335 47.4162 62.6245 47.193 62.4697L47.1484 62.4365L47.1037 62.4697C46.8806 62.6134 46.7243 63.0224 46.7243 63.4867V63.5199C45.9432 63.5751 45.8874 64.0063 45.8874 64.1389C45.8874 64.3711 46.0436 64.5811 46.211 64.5811H46.3114L46.2891 64.4816C46.2891 64.4816 46.2556 64.3269 46.3226 64.2384C46.3672 64.1832 46.4342 64.161 46.5458 64.161C46.5904 64.161 46.635 64.1832 46.6685 64.2163C46.8694 64.4264 46.8694 65.0896 46.8582 65.3328C46.8582 65.6203 46.6908 65.8635 46.5346 66.0846C46.4119 66.2614 46.3114 66.4051 46.3114 66.5489V66.5931H44.7603V61.1542C44.7603 60.8999 44.9611 60.502 45.229 60.2477L45.3517 60.1482C45.5303 60.0266 45.6753 60.0266 45.7535 60.1261H53.7771C53.8552 60.0708 53.9333 60.0487 54.0003 60.0487C54.1007 60.0487 54.2123 60.1151 54.2123 60.303V65.6976ZM57.1249 61.0547L38.2432 40.6478L19.3614 61.0547C18.5691 57.075 18.5021 53.4159 18.5021 50.2543V38.6027H28.5456C28.1774 38.9786 27.7756 39.5092 27.24 40.3494L27.1507 40.4931L33.3777 43.7321L33.4558 43.6436C33.4892 43.6105 36.0559 40.7031 38.4106 38.6138H51.5006C51.3666 39.3434 51.0877 39.9293 50.6971 40.3162C50.4627 40.1283 50.1949 39.9846 49.9382 39.8408C49.4807 39.5866 49.0455 39.3434 48.8 38.9233C48.7553 38.8459 48.6772 38.7907 48.5991 38.7796C48.5098 38.7575 48.4206 38.7796 48.3536 38.8349C47.8403 39.2107 47.5055 39.5645 47.3046 39.8851C47.3046 39.8851 47.3046 39.8961 47.2935 39.8961V39.9072C47.1484 40.1393 47.0703 40.3494 47.0256 40.5373C46.981 40.7363 46.981 40.9242 47.0368 41.1011L47.0703 41.2006C47.0814 41.2227 47.0926 41.2558 47.1149 41.289C47.2935 41.6428 47.6952 41.9854 48.309 42.3834C48.8893 42.7593 49.849 43.0025 50.764 43.0025C52.2817 43.0025 53.4311 42.3503 54.0003 41.2006C54.2346 43.4226 54.96 50.0222 57.4151 51.6472C57.4374 51.6693 57.4708 51.6693 57.5043 51.6693C57.5378 51.6693 57.5601 51.6583 57.5936 51.6472C57.7275 51.5698 57.8614 51.4814 57.9953 51.404C57.9619 54.2893 57.8168 57.5393 57.1249 61.0547ZM50.273 40.7473C49.6927 41.3001 49.0678 41.5764 48.6884 41.5764C48.3313 41.5764 47.9407 41.3996 47.7175 41.1342L47.6506 41.0016C47.5055 40.5815 47.8068 40.0619 48.4764 39.4982C48.8 39.8961 49.2464 40.1393 49.6481 40.3604C49.8713 40.482 50.0833 40.6036 50.273 40.7473ZM53.5093 27.8355C53.9891 27.8687 54.3574 28.0124 54.7703 28.1671C55.3617 28.3882 56.0201 28.6425 57.1584 28.6425C57.8949 28.6425 58.7319 28.2777 59.7139 27.5149C60.6624 28.1229 61.4994 28.6978 62.1913 29.2173C62.1132 29.2616 62.0351 29.3058 61.9569 29.3611C61.1311 29.8475 60.283 30.356 59.2675 30.356C56.1317 30.367 54.0449 28.7088 53.5093 27.8355ZM63.1622 60.4025C62.4926 60.4025 62.0016 59.9824 61.678 59.5513C61.8677 59.297 62.1578 59.0206 62.5484 58.7222C62.7827 59.3081 63.084 59.9935 63.6308 60.4025H63.1622ZM65.7511 58.3795C65.7511 59.496 65.5949 59.905 64.691 60.115C63.854 60.0929 63.4969 59.3744 63.0952 58.3574C63.0617 58.2689 63.0282 58.1805 62.9948 58.1031C62.9613 58.0147 62.9278 57.9373 62.8832 57.8599C63.4188 57.8378 63.8317 57.672 64.2 57.5172C64.3227 57.4619 64.4455 57.4177 64.5682 57.3735C64.6464 57.3514 64.7133 57.3293 64.7914 57.3072C64.97 57.263 65.1151 57.2519 65.2601 57.263H65.2936C65.5949 57.2851 65.7511 58.0036 65.7511 58.3795ZM67.0456 49.1267C68.5745 48.3529 69.4449 47.4575 69.8913 46.5621C69.735 48.1318 69.0878 49.978 67.9719 51.9567C67.9384 52.012 67.9161 52.0452 67.9049 52.0783C67.6259 52.5868 67.3469 53.2059 67.0791 53.8029C66.6774 54.6872 66.2645 55.6158 65.9743 55.8701C65.7846 56.0469 65.2378 56.3565 64.6464 56.6771L64.5906 56.7102C64.5571 56.7213 64.5348 56.7213 64.5013 56.7323C64.479 56.7434 64.4566 56.7434 64.4343 56.7544C64.4008 56.7655 64.3562 56.7766 64.3227 56.7876C64.3004 56.7987 64.2893 56.7987 64.2669 56.8097C64.2335 56.8208 64.1888 56.8429 64.1553 56.8539C64.1442 56.865 64.1219 56.865 64.1107 56.876C64.0995 56.8871 64.0772 56.8871 64.0661 56.8982C64.0326 56.9092 63.9879 56.9313 63.9545 56.9424C63.5862 57.0971 63.2291 57.2408 62.7827 57.2408C62.6377 57.2408 62.4926 57.2298 62.3364 57.1966C62.2024 57.1635 62.0574 57.2408 61.9904 57.3624C61.9235 57.484 61.9569 57.6388 62.0574 57.7383C62.0797 57.7604 62.0908 57.7825 62.1132 57.8046C62.1132 57.8157 62.1243 57.8157 62.1243 57.8267C62.1355 57.8488 62.1578 57.871 62.169 57.8931C62.169 57.9041 62.1801 57.9041 62.1801 57.9152C62.2024 57.9483 62.2136 57.9815 62.2359 58.0147C62.2359 58.0257 62.2471 58.0257 62.2471 58.0368C62.2582 58.0699 62.2806 58.092 62.2917 58.1252C62.2917 58.1252 62.2917 58.1363 62.3029 58.1363C61.9458 58.3905 61.6556 58.6448 61.4324 58.8769C61.1088 58.2136 60.9637 57.5062 60.9637 57.1524C60.9637 56.6218 60.9637 55.6269 64.3116 53.0622C64.4343 52.9738 64.4678 52.8079 64.4008 52.6753C64.345 52.5647 64.2335 52.4984 64.1107 52.4984C64.0884 52.4984 64.0661 52.4984 64.0326 52.5095C63.7871 52.5647 63.5527 52.5979 63.3295 52.5979C62.7046 52.5979 62.3922 52.3768 62.2917 52.2773C62.2136 52.1999 62.102 52.0673 61.9681 51.9015C61.7003 51.5809 61.3766 51.194 60.9861 50.8734C61.1981 50.7739 61.4213 50.6412 61.678 50.4975C62.1243 50.2433 62.6377 49.9448 63.1064 49.8011C63.5193 49.6684 63.7536 49.6574 64.133 49.6242C64.6575 49.591 65.3606 49.5358 66.9787 49.171C66.9898 49.1488 67.0233 49.1378 67.0456 49.1267ZM64.1888 44.528C64.5794 44.9702 64.9365 45.3571 65.2601 45.6998C66.3761 46.9048 66.9898 47.568 66.934 48.4745C66.8894 48.4966 66.8448 48.5187 66.8001 48.5519C65.2601 48.8946 64.5794 48.9499 64.0884 48.983C63.6866 49.0162 63.4077 49.0273 62.9166 49.182C62.3922 49.3478 61.8453 49.6574 61.3655 49.9337C60.9414 50.1769 60.4616 50.4533 60.2607 50.4533C60.1156 50.4533 59.9817 50.5528 59.9482 50.7076C59.9148 50.8513 59.9929 50.995 60.1268 51.0613C60.6624 51.2935 61.1423 51.8683 61.4882 52.2884C61.6333 52.4652 61.7672 52.62 61.8788 52.7195C62.035 52.8632 62.3587 53.0843 62.8832 53.1727C61.4213 53.9576 59.8813 55.3063 59.2452 57.0861C59.4795 54.6541 59.513 52.3768 59.513 50.3206C60.6066 49.381 61.3543 48.1871 61.3543 46.3078C61.3543 44.5943 60.4839 42.7703 59.792 41.3001C59.6916 41.1011 59.6023 40.9021 59.513 40.7142V40.0067C60.4169 41.0016 61.1088 41.6096 61.7895 42.1955C62.5261 42.8256 63.2179 43.4336 64.1888 44.528ZM64.0326 32.2131C64.3562 32.0363 64.5906 31.8041 64.7579 31.5941C64.9142 31.7931 65.0369 31.981 65.1597 32.191C64.7579 32.191 64.3785 32.2021 64.0326 32.2131ZM74.4109 29.1068C73.6966 29.4495 73.0829 29.7369 72.1343 29.7369C70.8956 29.7369 69.0766 29.14 69.0543 29.1289C68.9093 29.0847 68.753 29.14 68.6861 29.2616C68.6079 29.3942 68.6303 29.549 68.7419 29.6485C69.7462 30.566 70.4158 31.572 70.6836 32.589C70.6278 32.5779 70.5832 32.5779 70.5274 32.5669C68.05 32.2574 66.4765 32.191 65.8739 32.18C65.6842 31.8041 65.4722 31.4725 65.2043 31.1298C65.3494 30.7982 65.4164 30.4776 65.4164 30.2786C65.4164 29.9027 65.6395 29.4053 66.2756 29.0847C66.3649 29.0405 66.4319 28.952 66.443 28.8525C66.4542 28.753 66.4207 28.6425 66.3426 28.5762C66.2533 28.4988 66.1417 28.3882 64.0103 28.3882C63.5192 28.3882 63.0506 28.5762 62.6488 28.7862C61.9904 28.2887 61.2316 27.7692 60.35 27.1833C60.7071 26.8848 61.0307 26.5753 61.3208 26.2989C61.7449 25.9009 62.1801 25.4919 62.3587 25.4256C62.5037 25.3703 62.5819 25.2266 62.5595 25.0718C62.5372 24.9281 62.4033 24.8176 62.2471 24.8176C61.7895 24.8176 61.1869 24.4638 60.562 24.0769C59.6581 23.5353 58.6426 22.9272 57.4485 22.9272C56.3214 22.9272 55.5737 23.0931 54.9153 23.2368C54.3908 23.3473 53.9445 23.4468 53.3865 23.4468C52.6723 23.4468 51.88 23.0046 51.4782 22.5735C51.3443 22.4298 51.2885 22.3192 51.2662 22.2529C51.5787 22.3524 52.2371 22.4961 53.7324 22.4961C57.1249 22.4961 59.6693 19.5224 59.6693 16.8693C59.6693 15.1779 58.4529 13.4534 57.4262 12.2927C57.2588 11.9832 57.0356 11.552 57.0356 11.2536C57.0356 10.6124 57.1807 9.75012 57.3146 8.98735C57.3704 8.67782 57.415 8.40146 57.4485 8.15825C57.8056 8.34618 58.2743 8.512 58.7765 8.69993C59.7362 9.05368 60.8298 9.4627 61.4436 10.0265C62.381 10.8887 62.7604 11.9389 62.5261 13.0002L62.5149 13.0665C62.4814 13.2323 62.5819 13.3982 62.7493 13.4424C62.9166 13.4866 63.084 13.376 63.1287 13.2102L63.1398 13.155C63.5527 11.4304 64.7914 10.8335 65.6953 10.4023C65.8516 10.325 65.9966 10.2586 66.1306 10.1923C66.1752 10.4023 66.231 10.6345 66.3091 10.8998C66.51 11.7068 66.8001 12.8012 66.6439 13.2544C66.3649 14.0835 65.74 15.2332 65.0816 15.8302C64.691 16.1839 64.6017 16.6593 64.5124 17.1125C64.412 17.6542 64.3004 18.218 63.7201 18.7375L61.0307 21.2138C60.9191 21.3243 60.8968 21.4901 60.9861 21.6228C61.0753 21.7555 61.2427 21.7997 61.3878 21.7334C62.0797 21.4128 62.7827 21.1032 63.5304 20.7827C66.2868 19.6109 69.1324 18.3948 71.063 15.996C72.1343 14.6584 72.7704 12.8786 72.7704 11.2536C74.8572 12.2485 76.029 13.9951 76.1182 15.2885V15.4543C76.1182 19.1355 74.1877 22.1203 64.8361 24.7181C64.6798 24.7623 64.5906 24.906 64.6129 25.0608C64.6352 25.2156 64.7691 25.3372 64.9253 25.3372C67.3358 25.3372 67.425 25.6246 67.4585 25.7683C67.5255 25.9894 67.6259 26.2215 68.0835 26.321C68.3066 26.3652 68.5298 26.3874 68.7977 26.3874C68.9985 26.3874 69.1994 26.3763 69.3891 26.3652C69.5788 26.3542 69.7908 26.3431 69.9917 26.3431C70.4158 26.3431 70.7617 26.3984 71.1077 26.52C71.6322 26.7079 72.2682 27.2938 72.8932 27.8797C73.4065 28.3219 73.9198 28.7862 74.4109 29.1068C74.422 29.1068 74.422 29.1068 74.4109 29.1068Z" fill="black"/>
</g>
<defs>
<clipPath id="clip0">
<rect width="231" height="87" fill="white"/>
</clipPath>
</defs>
</svg>
