<svg width="159" height="159" viewBox="0 0 159 159" fill="none" xmlns="http://www.w3.org/2000/svg">
<g clip-path="url(#clip0)">
<path d="M14.2495 62.6052C12.8113 62.3562 10.1368 61.9433 9.37399 62.2148C9.0666 62.3293 8.83326 62.7197 8.68518 63.2918L8.53934 63.8594C8.35312 63.9716 8.05919 63.8729 7.99188 63.7181C8.18933 62.8431 8.36209 61.9905 8.5169 61.0863C8.68518 60.1125 8.77044 59.482 8.86692 58.6407C9.015 58.4746 9.31116 58.5487 9.43232 58.6878L9.38296 59.2532C9.33136 59.841 9.46149 60.3167 9.7397 60.5096C10.4465 60.9673 13.1142 61.4273 14.4133 61.6494L17.0339 62.1049C19.0487 62.4527 21.1286 63.146 22.2953 64.6851C23.213 65.872 23.5181 67.6916 23.2242 69.4058C22.946 71.0055 22.3671 72.5537 21.1981 73.5207C19.9641 74.573 18.1714 74.8602 15.4117 74.3845L9.93939 73.4399C7.52744 73.0226 7.12583 73.0024 6.77806 74.3284L6.63222 74.9005C6.5133 75.0239 6.12739 74.9073 6.08252 74.7592C6.32932 73.6059 6.49087 72.8207 6.65017 71.894C6.81396 70.9427 6.9239 70.1731 7.07198 69.0289C7.16621 68.9032 7.57007 68.9256 7.63738 69.0805L7.58802 69.6436C7.46911 71.01 7.85502 71.1244 10.267 71.5418L15.2748 72.4078C19.0083 73.0562 21.6671 72.3203 22.2796 68.7708C22.8629 65.4076 20.4398 63.6777 16.9127 63.0674L14.2495 62.6052Z" fill="#CF3C3A"/>
<path d="M28.8931 43.8841C29.5101 44.2274 31.9534 45.5938 32.5233 45.8294C32.6243 45.9393 32.658 46.121 32.5323 46.3454C32.0432 46.397 30.9909 46.59 27.9597 47.2429L19.8735 48.9795C18.9289 49.1769 16.4631 49.6346 15.7698 49.8119L15.7474 49.8523C15.9471 50.0744 16.4093 50.3571 17.024 50.7004L21.5024 53.2043C22.4694 53.745 25.1484 55.2146 25.9606 55.2101C26.2568 55.2146 26.6068 54.8736 26.9366 54.38L27.3562 53.7787C27.5895 53.745 27.8251 53.9043 27.8453 54.104C27.2888 55.0082 26.867 55.7127 26.443 56.4756C25.9606 57.3394 25.6712 57.9048 25.3099 58.6452C25.1282 58.735 24.8275 58.5914 24.7737 58.4006L25.0227 57.8128C25.2247 57.3057 25.2852 56.9064 25.117 56.6797C24.5359 55.9775 22.0185 54.5976 21.0335 54.0479L15.0967 50.7295C14.5224 50.4087 14.0804 50.1888 13.3669 50.3548C12.9204 50.4827 12.4986 50.8933 12.1643 51.3533L11.9287 51.6809C11.7357 51.7325 11.4261 51.5619 11.4373 51.3533C11.9803 50.5231 12.5906 49.4372 12.7947 49.067C12.9787 48.7394 13.1515 48.3782 13.2614 48.0865C14.5381 48.2615 18.6036 47.3506 19.7434 47.0993L23.0977 46.3566C25.4692 45.8226 27.1812 45.4592 28.7068 45.0441L28.7315 45.0037C28.6777 44.8646 28.3479 44.6784 27.9148 44.4405L23.5195 41.9837C22.5525 41.4452 19.8713 39.9734 19.0366 40.0183C18.7831 40.0384 18.4757 40.2987 17.9148 41.0638L17.6792 41.3914C17.475 41.4654 17.1587 41.2612 17.1878 41.0638C17.7577 40.1417 18.1683 39.4551 18.6058 38.6743C19.0994 37.7903 19.3777 37.2451 19.7254 36.5249C19.9206 36.4172 20.2078 36.5787 20.2617 36.7694L20.1405 37.0813C19.8758 37.7948 19.8129 38.2974 19.9296 38.4724C20.4726 39.2352 23.0438 40.6173 23.9907 41.1446L28.8931 43.8841Z" fill="#CF3C3A"/>
<path d="M28.8212 31.9387C27.0285 30.2066 26.7076 29.962 25.6576 30.8797L25.2156 31.2701C25.0518 31.306 24.7781 30.9784 24.8252 30.8281C25.6778 30.0137 26.2499 29.455 26.9365 28.7437C27.5894 28.0661 28.1256 27.4738 28.9087 26.5943C29.059 26.5405 29.3956 26.8007 29.3664 26.969L28.9917 27.4245C28.1099 28.5059 28.368 28.8178 30.1606 30.5499L36.1894 36.3677C37.9843 38.0998 38.2536 38.295 39.3373 37.4088L39.7972 37.0341C39.961 36.996 40.2325 37.3258 40.1876 37.4761C39.335 38.2905 38.7629 38.8492 38.11 39.5268C37.4212 40.2381 36.8827 40.8304 36.0996 41.7099C35.9516 41.7615 35.6487 41.5349 35.6442 41.3352L36.0009 40.864C36.8468 39.7512 36.6426 39.4864 34.8477 37.7543L28.8212 31.9387Z" fill="#CF3C3A"/>
<path d="M37.1728 22.7464C36.0105 21.9208 35.4496 21.6897 34.5297 22.1294L34.146 22.3157C33.9284 22.2842 33.7758 21.9926 33.8723 21.7929C34.4759 21.4698 35.1243 21.0884 35.9791 20.5476C36.8564 19.9957 37.5385 19.538 38.3507 18.9703C38.5391 18.9636 38.768 19.2373 38.7052 19.4438L38.4292 19.6726C37.7359 20.2492 37.6529 20.4691 37.7314 20.6396C37.8975 20.8146 38.9138 21.674 40.4844 22.8003C42.856 24.5324 45.2163 26.2443 47.6395 27.8867C47.4286 26.1837 46.9731 23.6058 46.7645 22.2618C46.4885 20.5454 46.0061 17.7049 45.8064 16.6347C45.701 16.1164 45.582 15.8853 45.4945 15.7462C45.407 15.6071 45.1064 15.5734 44.3592 15.9324L43.9778 16.1186C43.7602 16.0872 43.6143 15.7641 43.7018 15.5959C44.2852 15.284 45.0548 14.8285 45.8086 14.3506C46.466 13.9355 47.0696 13.5272 47.7023 13.074C47.8908 13.0672 48.0927 13.3858 48.0568 13.5474L47.4824 13.9647C47.0314 14.3057 46.8811 14.732 46.8856 15.3132C46.9193 16.601 47.1593 18.7033 47.543 21.297L48.0119 24.4247C48.3709 26.7581 48.8892 29.6569 49.2168 30.9246C49.1809 31.0031 49.1136 31.0705 49.0328 31.1221C48.9363 31.1849 48.8219 31.2275 48.7007 31.25C47.9514 30.5522 46.9776 29.8005 46.116 29.179L37.1728 22.7464Z" fill="#CF3C3A"/>
<path d="M56.8329 13.6258C56.1666 11.2722 56.023 10.9446 54.6431 11.1623L54.2684 11.2206C54.1069 11.169 54.0351 10.7472 54.1518 10.6418C55.139 10.4107 55.9153 10.2155 56.8419 9.95295L61.1004 8.75034C62.5498 8.33975 63.8848 7.96281 64.1383 7.81697C64.3829 8.16474 64.9797 9.7555 65.3522 10.727C65.3028 10.8886 64.9506 11.0366 64.8002 10.9312C64.1608 9.96192 63.73 9.22824 62.4713 9.26638C61.9642 9.28882 61.2328 9.47056 60.2388 9.75326L58.6055 10.2155C57.9256 10.4062 57.9391 10.451 58.1836 11.3126L59.4625 15.8426C59.642 16.4775 59.7093 16.4573 60.3914 16.2644L61.704 15.8942C62.653 15.6227 63.3418 15.3804 63.5886 15.2121C63.8354 15.0438 63.9566 14.8643 63.9095 14.2653L63.8287 13.2848C63.9028 13.1165 64.2887 13.0088 64.4255 13.1412C64.5781 13.6842 64.7374 14.5929 64.982 15.4544C65.2131 16.2689 65.5474 17.1035 65.6865 17.6039C65.6394 17.7878 65.2557 17.8955 65.1031 17.7923L64.6477 16.9667C64.4435 16.5852 64.1877 16.2891 63.7031 16.3048C63.362 16.3048 62.8123 16.4372 61.9261 16.6862L60.6135 17.0587C59.9359 17.2494 59.8754 17.292 60.0392 17.8798L60.9411 21.0726C61.2799 22.2729 61.5648 23.0246 62.0383 23.3073C62.3838 23.5025 62.9312 23.6147 64.9236 23.0537C66.6647 22.5601 67.2997 22.2842 67.726 21.8938C68.0693 21.5527 68.4574 20.5879 68.7109 19.244C68.8388 19.0869 69.1754 19.0622 69.3235 19.2417C69.3885 20.0786 69.3145 21.9835 69.1911 22.6768C67.1404 23.2063 65.1211 23.7538 63.104 24.3259L61.0668 24.9003C60.093 25.1763 59.3302 25.4163 58.0086 25.8381C57.8516 25.809 57.7035 25.4612 57.8022 25.2839L58.5292 25.0035C59.7879 24.5256 59.8036 24.1531 59.135 21.7771L56.8329 13.6258Z" fill="#CF3C3A"/>
<path d="M75.3882 9.95524C75.4062 7.7183 75.3366 7.31893 74.3718 7.19553L73.6224 7.09681C73.4564 6.97789 73.4609 6.60095 73.6494 6.50896C74.9687 6.39902 76.5931 6.33844 78.8996 6.35639C80.358 6.36537 81.7445 6.49326 82.8215 7.08783C83.9501 7.68465 84.7645 8.74815 84.7533 10.3972C84.7398 12.6319 82.9651 13.8435 81.7849 14.3057C81.6683 14.4471 81.7849 14.6827 81.9016 14.8711C83.7638 17.918 84.9979 19.8094 86.5909 21.1624C86.9902 21.5169 87.5736 21.7794 88.2086 21.831C88.3275 21.8781 88.3477 22.0666 88.231 22.1608C88.0179 22.2281 87.6432 22.273 87.1967 22.2708C85.1953 22.2573 83.9994 21.6627 82.3414 19.2755C81.7378 18.4004 80.782 16.7693 80.0618 15.7058C79.7118 15.1875 79.3348 14.9497 78.397 14.9429C77.3357 14.9362 77.2886 14.9586 77.2886 15.4545L77.2662 18.4184C77.2505 20.8887 77.2976 21.1714 78.6595 21.3688L79.1531 21.4428C79.2922 21.5618 79.2428 21.9611 79.1037 22.0307C78.0425 21.9768 77.246 21.9477 76.3036 21.9409C75.3142 21.9364 74.4683 21.9522 73.3599 21.9925C73.2208 21.9207 73.1737 21.5685 73.3173 21.4025L73.9051 21.3351C75.2715 21.1803 75.3209 20.8752 75.3389 18.4049L75.3882 9.95524ZM77.2998 13.3297C77.2953 13.7538 77.2953 14.014 77.3649 14.1083C77.4344 14.1801 77.7867 14.2294 78.9871 14.2362C79.8329 14.2429 80.7259 14.1554 81.4147 13.6394C82.0519 13.1502 82.5994 12.3313 82.6106 10.7293C82.6241 8.87155 81.4798 7.09905 78.8682 7.0811C77.4098 7.07212 77.338 7.16412 77.3335 7.826L77.2998 13.3297Z" fill="#CF3C3A"/>
<path d="M96.278 24.8352C94.3888 24.2406 93.3859 23.2803 93.0404 22.8989C92.9237 22.32 93.1368 20.635 93.424 19.5671C93.5833 19.4459 93.9378 19.5065 93.9872 19.6703C93.958 20.9222 94.1846 23.4105 96.7873 24.2317C98.672 24.8262 99.9823 23.8816 100.409 22.5377C100.718 21.5505 100.862 20.3882 99.5605 18.8132L97.8642 16.749C96.9757 15.6541 96.0805 13.9646 96.6639 12.1248C97.3347 9.99332 99.5425 8.78847 102.457 9.71062C103.157 9.9305 103.92 10.3187 104.456 10.6597C104.716 10.8437 105.017 10.985 105.197 11.0434C105.228 11.6469 105.035 12.9662 104.737 13.9063C104.604 14.014 104.223 13.9669 104.155 13.7963C104.203 12.6274 104.057 10.9783 101.903 10.2985C99.704 9.60292 98.7707 10.9132 98.4453 11.9453C98.0348 13.2466 98.8133 14.53 99.4819 15.3086L100.922 16.9958C102.062 18.3173 103.038 20.0584 102.367 22.1877C101.586 24.6602 99.1902 25.7551 96.278 24.8352Z" fill="#CF3C3A"/>
<path d="M114.946 19.7017C116.247 17.5747 116.418 17.2113 115.294 16.3833L114.816 16.0356C114.746 15.8808 115.007 15.5442 115.164 15.5599C116.144 16.2151 116.811 16.6503 117.654 17.1686C118.455 17.66 119.151 18.0571 120.181 18.6337C120.264 18.7684 120.08 19.152 119.914 19.1588L119.389 18.8918C118.141 18.268 117.89 18.5821 116.589 20.7114L112.213 27.8552C110.912 29.9822 110.777 30.2874 111.879 31.1534L112.343 31.5214C112.413 31.674 112.153 32.0128 111.996 31.997C111.015 31.3419 110.347 30.9044 109.543 30.413C108.702 29.897 108.004 29.4998 106.979 28.9232C106.894 28.7886 107.051 28.4453 107.246 28.3982L107.782 28.645C109.05 29.2306 109.265 28.9726 110.566 26.8456L114.946 19.7017Z" fill="#CF3C3A"/>
<path d="M124.969 38.7124C123.153 40.3907 122.927 40.6644 123.768 41.7481L124.226 42.3494C124.253 42.5155 123.91 42.769 123.764 42.7129C122.886 41.6943 122.361 41.093 121.722 40.4019C121.082 39.7109 120.506 39.1208 119.451 38.0483C119.404 37.898 119.667 37.5906 119.882 37.6489L120.506 38.2233C121.504 39.1298 121.843 38.975 123.656 37.2989L131.381 30.1596C131.915 29.6637 131.933 29.648 131.455 29.1297L130.575 28.1806C129.889 27.438 128.973 26.5181 128.179 26.453C127.414 26.3902 126.876 26.5674 126.268 26.7784C126.034 26.7357 125.897 26.4126 125.974 26.2174C127.006 25.7754 128.352 25.0126 129.153 24.4943C129.236 24.5145 129.46 24.7231 129.458 24.8219C129 25.4366 129.543 25.9908 130.279 26.7851L136.748 33.7831C137.612 34.7165 137.791 34.8399 138.478 34.6828C138.592 34.7367 138.749 34.9431 138.713 35.0418C137.827 35.5062 136.317 36.6797 135.846 37.2092C135.642 37.2675 135.372 36.9758 135.397 36.7919C135.783 36.3386 136.308 35.6274 136.259 35.1944C136.187 34.5258 135.716 33.7405 134.838 32.7891L133.703 31.5641C133.223 31.0458 133.223 31.0795 132.653 31.6045L124.969 38.7124Z" fill="#CF3C3A"/>
<path d="M137.408 54.5482C137.808 54.1758 137.83 54.0614 137.527 53.4242L136.002 50.2157C135.753 49.684 135.625 49.5852 135.111 49.6503L132.524 49.9644C131.42 50.1013 130.776 50.2224 130.538 50.3369C130.285 50.4558 130.211 50.6218 130.406 51.1536L130.673 51.885C130.639 52.0824 130.298 52.2462 130.125 52.0937C129.901 51.5215 129.591 50.8619 129.14 49.8522C128.806 49.1522 128.4 48.4051 128.108 47.8419C128.133 47.6736 128.449 47.4694 128.62 47.548L129.015 48.2188C129.3 48.708 129.755 49.0647 130.662 48.9996C131.824 48.9189 133.489 48.8583 136.291 48.6227L143.06 48.0663C143.967 48.0012 144.431 47.9361 144.741 47.7095C145.133 48.1493 145.688 48.3288 146.076 48.432C146.136 48.5599 146.163 48.7281 146.035 48.8403C145.23 49.5628 144.413 50.366 143.63 51.1289L136.466 58.0977C134.929 59.5808 134.743 60.0093 135.073 60.9741L135.281 61.5799C135.243 61.7773 134.884 61.8985 134.75 61.8312C134.377 60.9382 134.05 60.1843 133.592 59.2285C133.11 58.2077 132.681 57.4201 132.369 56.8121C132.369 56.6034 132.701 56.4195 132.878 56.5182L133.237 57.1038C133.491 57.5301 133.758 57.7679 133.971 57.6669C134.204 57.5547 134.539 57.2676 134.967 56.8547L137.408 54.5482ZM137.303 49.4416C136.733 49.5045 136.724 49.5359 137.005 50.1304L138.248 52.7466C138.539 53.3636 138.645 53.3636 139.127 52.9014L142.048 50.108C142.479 49.6952 142.962 49.2307 143.157 48.9839L143.137 48.9413C142.997 48.9278 142.387 48.957 141.638 49.0266L137.303 49.4416Z" fill="#CF3C3A"/>
<path d="M135.974 70.5725C135.687 68.616 136.109 67.2945 136.297 66.8121C136.771 66.4576 138.379 65.9124 139.465 65.7037C139.645 65.7957 139.741 66.1367 139.618 66.2512C138.48 66.7739 136.34 68.0685 136.742 70.7677C137.031 72.7242 138.453 73.487 139.851 73.2828C140.872 73.1303 141.985 72.7533 142.826 70.8911L143.939 68.4679C144.536 67.189 145.665 65.6431 147.574 65.3604C149.784 65.0328 151.83 66.489 152.279 69.5157C152.389 70.2382 152.371 71.0975 152.299 71.7257C152.252 72.0443 152.252 72.3764 152.279 72.5626C151.752 72.8543 150.477 73.2582 149.501 73.4017C149.351 73.33 149.225 72.9665 149.349 72.8296C150.419 72.3629 151.837 71.5103 151.509 69.2756C151.173 66.9938 149.587 66.7291 148.514 66.8861C147.163 67.0858 146.351 68.3468 145.943 69.2891L145.054 71.3219C144.361 72.9238 143.228 74.5685 141.014 74.8938C138.453 75.273 136.423 73.6014 135.974 70.5725Z" fill="#CF3C3A"/>
<path d="M21.2384 96.6665C22.8741 96.063 23.2577 95.8206 22.9795 94.7953L22.7843 94.0638C22.8494 93.8372 23.1927 93.7385 23.3452 93.8844C23.8972 95.0331 24.5164 96.5094 25.2748 98.5624C25.7886 99.9535 26.1678 101.318 26.0309 102.5C25.9165 103.617 25.304 104.674 23.8927 105.199C22.3019 105.787 21.142 105.159 20.0336 104.064C19.8137 104.142 19.8115 104.349 19.8586 104.607C20.0807 105.877 19.6275 108.053 17.2694 108.928C14.7071 109.875 12.2839 108.612 10.8143 104.638C10.5787 104.001 10.2422 102.895 9.90116 101.968C9.54217 100.997 9.21908 100.261 8.896 99.4554C8.91395 99.2983 9.2505 99.1233 9.43223 99.2086L9.64538 99.5788C10.2759 100.674 10.5339 100.631 12.8538 99.7717L21.2384 96.6665ZM13.8523 101.459C13.058 101.755 11.9496 102.213 11.6198 102.812C11.2676 103.42 11.4022 104.124 11.6467 104.784C12.3737 106.747 13.8141 107.923 16.0174 107.106C17.7607 106.462 19.4659 104.827 18.1668 101.318C17.7271 100.126 17.5611 100.086 17.1191 100.252L13.8523 101.459ZM18.9768 99.5631C18.3576 99.7919 18.3217 99.8301 18.7816 100.938C19.7015 103.155 20.8144 104.129 22.8898 103.362C25.0527 102.561 25.2726 100.645 24.6511 98.9663C24.4738 98.4839 24.3078 98.1698 24.144 98.0015C23.9959 97.804 23.8501 97.7614 23.4552 97.905L18.9768 99.5631Z" fill="#CF3C3A"/>
<path d="M28.3291 113.03C30.2833 111.56 30.5368 111.307 29.8368 110.099L29.6484 109.772C29.6394 109.601 30.0073 109.384 30.1487 109.453C30.7186 110.292 31.1785 110.948 31.7596 111.717L34.4184 115.255C35.3204 116.46 36.1528 117.571 36.3816 117.753C36.146 118.103 34.8739 119.233 34.102 119.933C33.9338 119.945 33.669 119.673 33.7116 119.494C34.3825 118.547 34.9165 117.88 34.4251 116.721C34.2232 116.256 33.7902 115.639 33.1664 114.809L32.15 113.454C31.726 112.888 31.6878 112.92 30.9721 113.454L27.2095 116.281C26.6822 116.676 26.7248 116.732 27.1511 117.297L27.9678 118.388C28.5624 119.18 29.0381 119.734 29.2804 119.904C29.5272 120.07 29.7381 120.12 30.2788 119.859L31.1651 119.431C31.3491 119.44 31.5869 119.758 31.5128 119.936C31.0619 120.272 30.2699 120.75 29.5564 121.286C28.8765 121.798 28.2191 122.408 27.8063 122.72C27.6178 122.743 27.38 122.422 27.4181 122.242L28.0262 121.524C28.3066 121.197 28.4906 120.853 28.3022 120.407C28.1787 120.086 27.8601 119.617 27.3082 118.886L26.4915 117.793C26.0675 117.23 26.0069 117.185 25.5155 117.555L22.859 119.548C21.8651 120.295 21.266 120.833 21.1718 121.374C21.1157 121.771 21.2054 122.318 22.4484 123.977C23.5366 125.426 24.019 125.913 24.5395 126.173C24.9815 126.371 26.0226 126.384 27.3688 126.137C27.5617 126.198 27.7008 126.501 27.5932 126.707C26.8348 127.068 25.0309 127.688 24.3398 127.822C23.1058 126.101 21.8651 124.41 20.6086 122.736L19.3409 121.044C18.7329 120.236 18.2326 119.608 17.3598 118.527C17.3328 118.374 17.6043 118.105 17.8018 118.136L18.3245 118.715C19.2243 119.716 19.5788 119.601 21.5532 118.114L28.3291 113.03Z" fill="#CF3C3A"/>
<path d="M39.7789 126.117C41.1004 124.313 41.2799 123.949 40.5709 123.283L40.0212 122.763C39.9561 122.57 40.1783 122.269 40.3869 122.303C41.52 122.989 42.8684 123.889 44.7329 125.251C45.9086 126.11 46.9609 127.028 47.4859 128.143C48.0513 129.283 48.0917 130.622 47.1179 131.95C45.7986 133.757 43.6515 133.7 42.4219 133.389C42.2447 133.431 42.1998 133.692 42.1841 133.909C41.9126 137.472 41.8049 139.727 42.3053 141.755C42.4174 142.274 42.7405 142.83 43.2252 143.247C43.2925 143.353 43.2005 143.519 43.0502 143.528C42.837 143.458 42.5049 143.274 42.146 143.009C40.5305 141.829 39.9113 140.645 39.9651 137.739C39.9875 136.673 40.167 134.795 40.2029 133.51C40.2254 132.884 40.0593 132.471 39.301 131.915C38.4461 131.291 38.3945 131.28 38.1029 131.681L36.3528 134.071C34.8922 136.065 34.762 136.323 35.7515 137.279L36.1105 137.629C36.1554 137.809 35.8771 138.103 35.7246 138.076C34.8967 137.412 34.2662 136.918 33.5078 136.364C32.7113 135.778 32.0113 135.296 31.0914 134.683C31.0196 134.544 31.1901 134.228 31.401 134.178L31.9171 134.468C33.1152 135.143 33.3351 134.923 34.7912 132.929L39.7789 126.117ZM39.3503 129.972C39.1013 130.315 38.9465 130.523 38.9465 130.642C38.9644 130.739 39.218 130.986 40.1895 131.699C40.8738 132.199 41.6479 132.65 42.5049 132.637C43.3082 132.61 44.2326 132.267 45.1772 130.977C46.2766 129.473 46.3865 127.371 44.2797 125.827C43.1062 124.968 42.9918 125 42.6014 125.529L39.3503 129.972Z" fill="#CF3C3A"/>
<path d="M63.623 148.666C63.3291 149.561 63.291 150.142 63.641 150.432C63.6859 150.521 63.641 150.656 63.5288 150.692C63.2618 150.602 62.8288 150.559 62.3688 150.535C61.081 150.461 59.3803 150.2 58.1732 149.806C55.5122 148.933 53.3201 147.396 52.1668 145.085C51.2649 143.303 51.128 141.302 51.772 139.337C52.3935 137.436 53.6522 135.718 55.5234 134.699C57.5337 133.624 60.0937 133.299 63.4682 134.403C64.7426 134.822 65.8488 135.457 66.1988 135.668C66.5937 135.897 67.2376 136.281 67.5203 136.326C67.278 137.062 67.0312 138.271 66.7933 139.678C66.6677 139.835 66.2571 139.725 66.1696 139.545C66.3334 136.925 64.9064 135.614 62.6246 134.867C58.2853 133.445 55.3753 135.908 54.2759 139.263C52.8669 143.557 53.973 147.658 58.4693 149.128C59.8537 149.583 60.7781 149.566 61.146 149.267C61.3098 149.146 61.5544 148.78 61.7877 148.064L62.0839 147.174C62.6964 145.296 62.6762 145.139 61.339 144.528L60.3922 144.091C60.2441 143.947 60.3966 143.55 60.5761 143.535C61.2088 143.79 62.4316 144.217 63.7509 144.647C64.6237 144.935 65.3888 145.161 66.1427 145.356C66.2706 145.5 66.1831 145.843 65.9834 145.926L65.6109 145.852C64.6327 145.655 64.4061 146.274 64.0336 147.416L63.623 148.666Z" fill="#CF3C3A"/>
<path d="M75.5184 140.546C75.5251 138.1 75.4757 137.746 74.0869 137.58L73.7144 137.533C73.5731 137.439 73.618 137.014 73.7616 136.945C74.7712 136.992 75.5722 137.019 76.5347 137.019L80.9615 137.028C82.467 137.032 83.8581 137.032 84.1385 136.965C84.2777 137.367 84.4145 139.061 84.5088 140.095C84.4123 140.236 84.0376 140.286 83.9187 140.142C83.5687 139.034 83.3577 138.213 82.1349 137.903C81.6391 137.782 80.8852 137.759 79.8509 137.757L78.1547 137.753C77.4502 137.753 77.4502 137.8 77.4502 138.695L77.4389 143.402C77.4367 144.06 77.5085 144.062 78.2175 144.062L79.5794 144.064C80.5689 144.069 81.2981 144.019 81.5785 143.927C81.8635 143.833 82.0273 143.692 82.1462 143.104L82.3369 142.139C82.4558 142 82.8552 142 82.9494 142.164C82.9449 142.731 82.8507 143.647 82.8507 144.542C82.8484 145.39 82.9404 146.281 82.9404 146.801C82.8439 146.965 82.4446 146.965 82.3279 146.822L82.1192 145.902C82.0272 145.478 81.8657 145.125 81.3945 145.009C81.0647 144.912 80.4993 144.888 79.5817 144.885L78.2153 144.881C77.5107 144.881 77.4389 144.903 77.4389 145.516L77.43 148.834C77.4277 150.084 77.4973 150.88 77.872 151.284C78.1547 151.565 78.6483 151.825 80.7214 151.832C82.5321 151.832 83.2142 151.742 83.7347 151.482C84.1565 151.248 84.7937 150.427 85.4062 149.202C85.5723 149.085 85.9021 149.157 85.9963 149.368C85.8325 150.192 85.2357 152.002 84.9328 152.637C82.8125 152.586 80.7214 152.559 78.6236 152.554L76.5056 152.55C75.4959 152.55 74.6949 152.57 73.3061 152.615C73.167 152.543 73.1176 152.166 73.259 152.027L74.0375 151.957C75.3793 151.843 75.4982 151.488 75.5027 149.016L75.5184 140.546Z" fill="#CF3C3A"/>
<path d="M107.699 136.703C107.322 135.691 106.259 132.971 106.337 132.04C106.362 131.827 106.737 131.488 107.401 131.116L107.695 130.959C107.778 130.775 107.661 130.465 107.446 130.42C106.712 130.748 106.149 130.981 105.198 131.336C104.361 131.648 103.602 131.903 102.573 132.238C102.42 132.37 102.532 132.733 102.734 132.807L103.125 132.711C104.049 132.491 104.451 132.491 104.657 132.641C105.321 133.146 106.412 136.005 106.8 137.041L108.559 141.762C108.729 142.224 108.862 142.576 108.812 142.722L108.77 142.738C107.338 142.065 105.799 141.232 103.641 140.102L100.607 138.497C99.5728 137.952 95.8887 136.009 95.0294 135.049C94.7601 135.201 94.3899 135.365 94.0399 135.493C93.6428 135.643 92.4761 136.079 91.5247 136.357C91.3856 136.512 91.5068 136.844 91.6863 136.925L92.0767 136.83C92.6309 136.698 93.2165 136.658 93.6428 136.851C94.2957 137.183 94.4864 137.64 94.7175 138.257L97.0935 144.629C97.4884 145.691 98.5115 148.367 98.5003 149.278C98.4779 149.559 98.175 149.826 97.6948 150.079L97.1227 150.366C97.0419 150.548 97.1765 150.851 97.374 150.903C98.1279 150.571 98.7157 150.324 99.6401 149.983C100.457 149.675 101.238 149.413 102.247 149.088C102.362 148.919 102.283 148.648 102.086 148.518L101.377 148.708C100.811 148.868 100.32 148.901 100.096 148.708C99.4763 148.188 98.3837 145.327 98 144.291L96.2073 139.482C95.9605 138.821 95.7922 138.307 95.7832 138.011L95.8303 137.993C96.4743 138.304 98.6462 139.552 99.4965 140.016L106.782 143.929C109.515 145.397 110.441 145.933 110.845 146.209C111.087 146.117 111.177 145.955 111.173 145.81C110.897 145.258 109.916 142.635 109.669 141.975L107.699 136.703Z" fill="#CF3C3A"/>
<path d="M126.181 136.186C124.662 137.452 123.314 137.786 122.805 137.874C122.255 137.656 120.951 136.568 120.204 135.753C120.191 135.547 120.431 135.287 120.595 135.334C121.634 136.029 123.855 137.18 125.95 135.43C127.465 134.165 127.375 132.549 126.469 131.466C125.804 130.672 124.903 129.922 122.874 130.178L120.222 130.49C118.822 130.651 116.915 130.494 115.677 129.016C114.245 127.299 114.418 124.791 116.767 122.83C117.326 122.361 118.066 121.928 118.643 121.661C118.937 121.538 119.222 121.363 119.365 121.244C119.886 121.538 120.895 122.413 121.53 123.173C121.548 123.341 121.304 123.638 121.126 123.604C120.166 122.933 118.697 122.166 116.964 123.617C115.194 125.094 115.795 126.584 116.491 127.416C117.364 128.464 118.867 128.493 119.881 128.354L122.078 128.046C123.805 127.802 125.798 127.914 127.234 129.628C128.894 131.616 128.526 134.225 126.181 136.186Z" fill="#CF3C3A"/>
<path d="M128.765 115.664C126.73 114.216 126.38 114.026 125.476 115.089L125.099 115.54C124.938 115.599 124.621 115.316 124.648 115.161C125.366 114.23 125.848 113.59 126.421 112.783C126.968 112.015 127.412 111.351 128.056 110.366C128.195 110.292 128.57 110.501 128.566 110.669L128.258 111.176C127.551 112.377 127.85 112.648 129.88 114.093L136.708 118.951C138.741 120.398 139.035 120.55 139.972 119.512L140.376 119.074C140.533 119.018 140.85 119.298 140.827 119.455C140.105 120.387 139.622 121.024 139.077 121.791C138.505 122.597 138.059 123.263 137.415 124.25C137.275 124.324 136.941 124.145 136.91 123.947L137.192 123.427C137.863 122.199 137.623 121.971 135.59 120.526L128.765 115.664Z" fill="#CF3C3A"/>
<path d="M148.101 105.747C147.408 107.593 146.394 108.547 145.997 108.877C145.409 108.957 143.74 108.657 142.687 108.313C142.573 108.145 142.654 107.8 142.82 107.759C144.067 107.851 146.567 107.759 147.525 105.199C148.22 103.35 147.347 101.993 146.026 101.497C145.054 101.134 143.903 100.927 142.263 102.146L140.112 103.727C138.972 104.555 137.233 105.363 135.427 104.685C133.336 103.898 132.25 101.634 133.322 98.7688C133.58 98.0868 134.011 97.3419 134.379 96.8303C134.574 96.5768 134.733 96.2828 134.801 96.1056C135.404 96.1078 136.712 96.3726 137.637 96.7159C137.736 96.855 137.67 97.2319 137.498 97.2947C136.331 97.1848 134.675 97.2431 133.883 99.3589C133.073 101.515 134.33 102.516 135.342 102.895C136.62 103.377 137.942 102.664 138.754 102.04L140.515 100.689C141.898 99.6237 143.688 98.7352 145.781 99.5205C148.211 100.431 149.178 102.881 148.101 105.747Z" fill="#CF3C3A"/>
<path d="M79.5022 0C35.5936 0 0 35.5914 0 79.5C0 123.406 35.5914 159 79.5022 159C123.409 159 159.002 123.409 159.002 79.5C159.002 35.5914 123.409 0 79.5022 0ZM79.5022 156.606C36.9196 156.606 2.394 122.083 2.394 79.5C2.394 36.9174 36.9196 2.39848 79.5022 2.39848C122.085 2.39848 156.602 36.9174 156.602 79.5C156.602 122.085 122.085 156.606 79.5022 156.606Z" fill="#CF3C3A"/>
<path d="M98.2314 118.06C96.6496 119.267 95.5928 121.08 94.9175 122.576C96.3759 123.633 99.7975 125.172 105.548 126.157C108.063 124.757 110.026 123.492 112.279 121.737C110.228 121.219 108.24 120.113 106.995 119.401C104.458 117.952 101.312 115.702 98.2314 118.06Z" fill="#CF3C3A"/>
<path d="M61.1072 107.501C59.162 106.967 58.1142 106.987 55.2243 107.925C50.212 109.556 42.4893 118.192 42.4893 118.192C44.807 120.409 47.3356 122.413 50.028 124.187C52.1752 121.387 57.9639 114.921 63.2814 114.921C66.1936 114.921 67.6969 116.146 70.1223 117.627C70.3153 117.324 70.5351 117.021 70.7685 116.711C66.409 114.553 61.1072 107.501 61.1072 107.501Z" fill="#CF3C3A"/>
<path d="M78.0268 115.067C75.6687 115.376 73.9455 117.391 72.8013 119.363C77.2909 122.401 81.2779 125.989 87.1249 127.728C91.6773 129.083 93.4251 129.597 98.0695 129.673C100.122 128.908 102.104 128.006 104.033 127.014C101.17 126.669 97.3964 125.269 94.1588 123.763C88.8996 121.318 82.8305 114.434 78.0268 115.067Z" fill="#CF3C3A"/>
<path d="M64.3204 117.793C57.6455 117.793 55.0069 123.373 52.8306 125.872C60.6924 130.407 69.777 133.045 79.5056 133.045C84.6189 133.045 89.546 132.28 94.2331 130.945C91.2333 130.768 87.5895 129.998 84.3026 128.706C76.9702 125.814 69.1017 117.793 64.3204 117.793Z" fill="#CF3C3A"/>
<path d="M111.94 113.245C107.505 107.589 104.005 106.541 102.295 106.969C100.585 107.396 100.969 108.69 98.9159 111.116C97.0469 113.323 92.766 115.764 91.9336 116.366C92.6246 117.097 93.5782 118.188 93.8205 118.45C95.9408 116.485 98.6489 114.618 101.314 114.618C106.069 114.618 107.406 118.381 113.69 120.631C115.032 119.541 116.338 118.403 117.556 117.169C117.554 117.167 114.561 116.588 111.94 113.245Z" fill="#CF3C3A"/>
<path d="M101.567 67.1082C101.41 66.8681 101.58 66.4597 101.374 66.2376C101.176 65.2751 100.77 64.4045 100.786 63.341C100.653 62.7151 101.311 62.4256 101.701 62.1497C101.948 61.5618 101.93 60.8932 101.647 60.3211C101.448 59.381 100.133 59.2194 100.133 58.1896C100.093 57.4088 99.5788 56.8434 99.7156 55.9885C99.3701 54.8555 99.3813 53.6215 99.2938 52.4144C98.9887 51.1108 99.0156 49.796 98.8585 48.4161C98.6409 46.7917 98.4278 45.1718 98.0508 43.6326C97.8579 42.2438 97.4024 40.9604 96.7024 39.8004C96.5947 38.9389 95.7443 38.2815 96.1818 37.3212C96.9492 36.251 97.5796 35.0865 98.0059 33.8592C98.3829 33.148 98.3245 32.2707 98.5018 31.4809C98.4457 30.8033 98.6746 30.0966 98.4412 29.4885C98.3223 29.3921 98.2079 29.5155 98.1271 29.5626C97.7928 30.6889 96.561 31.1601 95.7376 31.8511C94.5013 32.3694 92.9509 32.1675 91.5576 32.3268C90.6287 32.2684 89.8883 33.1547 88.9729 32.6207C88.5152 32.2841 87.979 32.1518 87.5056 31.8825C86.4241 31.813 85.327 31.8982 84.3465 31.8085C82.7849 31.8893 81.5912 31.012 80.0319 31.0928C78.1023 31.0187 76.4353 31.9947 74.416 31.8242C72.6233 31.3642 70.8665 32.0486 69.4238 32.7912C68.8719 32.6903 68.311 32.3739 67.7276 32.2729C66.1638 31.6582 64.232 32.7441 62.9127 31.5034C62.3159 30.8572 61.8783 30.1235 61.8985 29.2417C61.6562 29.3808 61.5306 29.7017 61.4722 29.9687C61.1267 30.5924 60.8463 31.2992 60.7587 32.053C60.586 33.0044 60.8463 34.0297 61.0594 34.9339C61.2052 36.5426 62.3248 37.8081 62.078 39.5133C61.8021 40.2828 61.4588 41.0412 61.2322 41.8489C60.5748 42.6342 60.7229 43.7246 60.5389 44.6804C59.9421 46.4754 60.3953 48.3264 60.485 50.1999C59.8164 52.3493 59.5045 54.6199 59.2577 56.9241C59.067 58.4252 59.1702 60.0518 58.5757 61.4025C57.7702 62.2035 57.0791 63.0269 57.3304 64.2138C57.4157 64.8286 57.7477 65.3155 58.0439 65.8225C58.2099 67.0364 58.1628 68.2008 58.0843 69.3967C58.1808 70.3749 57.1756 70.6734 57.0141 71.508C56.8076 72.3314 57.4045 72.8766 57.9205 73.4106C58.2369 73.9334 58.091 74.6671 58.2571 75.2594C58.4007 76.7716 58.6946 78.257 58.8404 79.7153C59.2398 81.9007 59.4574 84.1892 59.9196 86.2826C60.411 88.8628 61.019 91.3914 61.7258 93.8662C62.5133 95.6521 62.9329 97.6019 63.6239 99.4282C64.1175 100.94 65.006 102.262 64.9926 103.992C65.0711 104.185 65.0823 104.349 65.1204 104.526C65.2124 105.574 64.3195 106.408 64.4047 107.503C64.4047 107.503 67.685 113.231 71.571 115.722C73.1528 113.936 75.365 112.307 78.2078 112.35C82.9128 112.419 87.2206 117.169 91.7596 120.548C92.0826 120.189 92.4394 119.81 92.8208 119.419C91.3355 117.317 84.8356 109.794 79.3633 108.921C79.3633 108.921 79.7851 107.84 79.278 107.339C78.8607 106.743 78.9145 106.283 78.744 105.587C78.7171 105.26 78.5847 104.797 78.8293 104.524C79.6482 104.701 80.005 105.587 80.3886 106.209C80.447 106.245 80.5165 106.265 80.5771 106.256C80.6399 106.242 80.7005 106.209 80.7364 106.126C80.8463 105.309 81.746 104.8 82.3675 104.414C82.4977 104.344 82.6974 104.387 82.7512 104.553C82.8948 105.444 82.6817 106.599 83.3346 107.31C83.5455 107.588 83.2875 107.862 83.1416 108.082C83.0743 108.652 82.5942 108.621 82.5942 108.621C86.6597 110.534 88.9011 112.895 91.2009 115.628C92.7356 114.566 98.2774 111.001 98.2034 107.283C98.1765 106.054 97.5348 106.206 97.2341 105.549C96.7203 105.116 96.3367 104.544 96.0382 103.972C95.4392 102.776 94.9635 101.443 95.2058 99.9577C95.6232 98.8808 95.6658 97.649 96.1347 96.5855C96.7405 94.5729 97.1937 92.4773 97.813 90.4648C98.5444 87.6826 99.2938 84.9117 99.6707 81.9949C100.075 81.0324 100.041 79.9218 100.245 78.8852C100.645 77.8912 100.443 76.6617 100.692 75.6094C100.82 74.7905 100.692 73.8818 101.051 73.1728C101.174 72.7667 101.024 72.2596 101.266 71.9006C101.178 71.2545 101.879 71.3666 102.029 70.8169C102.572 70.6195 102.603 70.016 102.841 69.5942C102.955 68.5621 102.105 67.8934 101.567 67.1082ZM98.9236 59.2463C99.2848 59.4236 99.8458 59.4056 99.9624 59.8611C100.505 60.0316 100.407 60.6307 100.743 60.956C100.766 61.2432 100.759 61.5865 100.508 61.7099C99.6977 61.8221 98.9371 61.2836 98.4435 60.7047C98.255 60.1864 98.7015 59.6794 98.9236 59.2463ZM94.2321 70.1797C94.1221 71.5416 94.1984 72.9843 94.0346 74.326C93.8866 74.4809 94.0279 74.7523 93.9516 74.9408C93.6869 76.3184 93.8978 77.7566 93.6375 79.1365L93.467 79.1477C92.9577 78.5823 91.9144 78.3557 91.9391 77.4649C92.5134 75.136 92.4529 72.5064 92.6166 70.0631C92.9106 68.0483 92.8477 65.9011 92.7199 63.8526C92.767 63.7943 92.7468 63.6821 92.85 63.6753C93.4827 63.8773 93.7744 64.5302 94.3286 64.8892C94.3981 66.6796 94.0907 68.3579 94.2321 70.1797ZM63.5858 52.54C62.9733 52.5243 62.9688 51.7973 62.7893 51.38C62.6255 51.113 62.6188 50.7877 62.6232 50.4511C62.8386 50.2201 62.9329 50.0338 62.9261 49.7287C62.6995 49.5627 62.3136 49.6816 62.2328 49.3069C62.2351 48.8155 62.0803 48.1895 62.5829 47.9382C63.0989 47.6712 63.8169 47.8373 64.2813 47.4693C64.3441 47.3773 64.2387 47.2449 64.14 47.2494C63.5095 47.2158 63.0451 47.5007 62.5043 47.6241C62.2979 47.5276 62.3248 47.319 62.2373 47.1687C62.2261 45.6946 61.9973 44.2945 62.5357 43.0224C62.4437 42.7554 62.3473 42.4188 62.5806 42.2057C63.1729 42.0867 63.5387 42.9977 64.1063 42.7711V42.6903C63.6531 42.2954 63.3165 41.831 62.722 41.7614C62.4011 41.3127 62.621 40.7293 62.7444 40.2694C62.8768 40.0989 62.9845 39.852 63.2447 39.9956C63.7316 40.22 63.9582 40.6216 64.4586 40.8617C64.5954 40.7562 64.6695 40.5835 64.6156 40.4444C64.14 39.8363 62.9306 39.6681 63.4624 38.6651C63.5678 38.3062 63.7742 37.8103 64.1467 37.7138C64.6246 37.8529 64.8736 38.4026 65.3134 38.6809L65.4278 38.6113C65.0419 38.2321 64.8265 37.7452 64.9432 37.1798C65.2596 36.9016 65.558 37.3302 65.8519 37.4423L66.3298 37.5657C66.7942 37.8215 67.3821 38.0953 67.4 38.7212C67.7904 39.2866 67.9093 39.962 68.4523 40.4534C68.6004 40.8438 68.9123 41.0681 69.1276 41.4361C68.9796 41.5909 68.7597 41.6021 68.5712 41.5169C68.035 41.1803 67.8084 40.561 67.4404 40.0966C67.3035 40.0315 67.2385 40.2088 67.1914 40.2739C67.3619 40.7809 67.4785 41.3149 67.8488 41.7322L67.8577 42.0845C67.0814 42.1608 66.3993 41.4697 65.9214 40.855C65.816 40.7742 65.6634 40.7114 65.5288 40.8034C65.3112 40.9268 65.4862 41.1601 65.5131 41.3261C65.8833 41.9073 66.2131 42.6454 66.9154 42.9461C67.0545 43.0583 67.1308 43.3095 67.0006 43.4688C66.9109 43.8278 66.5654 43.7022 66.3275 43.6394C65.8923 43.249 65.3852 42.8384 64.9993 42.4592L64.7794 42.4637C64.7368 42.8115 65.1204 43.0291 65.2797 43.3118C65.6387 43.9176 66.7269 43.9176 66.4779 44.7702C66.3971 44.925 66.4375 45.1449 66.24 45.2189C65.0958 45.0641 63.5589 44.6535 62.6188 45.5824C62.5896 45.7058 62.6793 45.8539 62.814 45.8494C63.8483 45.7798 64.8176 45.9234 65.6298 46.4574C65.807 46.6392 66.0179 46.868 65.9394 47.1238C65.7756 47.2315 65.5355 47.2046 65.3695 47.31C65.0419 47.6084 64.656 47.7745 64.3082 48.0751C64.3082 48.1379 64.3262 48.2097 64.3957 48.2411C64.9163 48.0392 65.4166 47.7722 65.9529 47.5456C66.1368 47.5075 66.3074 47.5882 66.3814 47.7543C66.3702 48.028 66.0673 48.0527 65.8833 48.1918C65.4907 48.6674 64.7368 48.9726 64.7211 49.603L64.8916 49.5986C65.6343 49.4909 65.9753 48.4117 66.7987 48.6113C66.9176 48.7235 67.0792 48.9412 66.9311 49.096C65.9641 49.6838 64.6919 50.2515 64.5595 51.5438C64.5797 51.6291 64.5304 51.73 64.6022 51.7772C64.8759 51.7884 64.8467 51.4788 65.015 51.3396C65.8093 50.671 66.5497 49.9082 67.5975 49.8386C67.6984 49.87 67.833 49.8857 67.925 49.9979C67.9093 50.5364 67.1353 50.8528 67.1353 51.4294C67.0119 51.8557 66.875 52.2842 66.6641 52.6948C66.6865 52.8025 66.8212 52.8294 66.8885 52.7599C67.3753 51.9791 67.7994 50.8685 68.7552 50.5835C68.7462 50.8573 69.0469 50.6419 69.1703 50.754C69.6818 50.846 70.1979 51.048 70.6152 51.3598C70.5277 52.4278 70.1238 53.7336 70.6803 54.6827C70.8755 54.5055 70.6982 54.1846 70.7947 53.967C70.8396 53.166 71.3287 52.54 71.4207 51.7547C71.4992 51.5191 71.7707 51.4608 71.9771 51.5236C72.4034 51.6941 72.4191 52.2192 72.8342 52.4256C73.1618 52.0958 72.74 51.6291 72.897 51.2028C73.0406 50.9403 73.4018 50.9694 73.6554 51.048C73.7608 51.1287 73.882 51.1534 74.0189 51.14C74.1467 51.0008 74.1086 50.7922 74.1019 50.6104C74.6471 50.1886 74.8243 49.2957 75.5737 49.4774L75.7353 49.6591C75.7151 50.1886 75.6657 50.7137 75.5602 51.2095C75.3538 51.1983 75.2416 50.7608 74.9747 50.9358C74.7772 51.1175 74.867 51.3486 74.9589 51.5505C75.1923 52.0172 75.392 52.5019 75.6478 52.9506C75.6679 53.0897 75.8093 53.2714 75.6612 53.3948C75.0823 53.433 74.8288 52.8294 74.5125 52.4974C74.3038 52.3538 74.1602 52.5714 74.131 52.7487C74.0166 53.5138 74.5439 54.0904 75.116 54.5503C75.3381 54.5391 75.475 54.6737 75.632 54.8241C75.5715 55.0978 75.3224 55.2885 75.5849 55.5353L75.8721 55.9347C75.5558 56.2129 75.1407 55.9078 74.7974 55.8113C74.0211 55.3311 73.3525 54.5346 73.1887 53.6417C73.1371 53.534 72.9823 53.507 72.8993 53.5833C72.6457 54.1667 72.9688 54.7478 73.2358 55.2145C73.6172 55.477 74.0211 55.8876 73.9156 56.3834C73.7833 56.5764 73.4826 56.6661 73.2425 56.5853C72.6009 56.0513 72.5425 55.2504 72.4662 54.4583C72.381 54.4269 72.2935 54.3417 72.2104 54.4314C72.0713 54.7792 72.0826 55.2324 72.0915 55.6071C72.0018 55.9437 72.2194 56.4193 71.9547 56.6975C71.5553 56.9286 70.9899 56.7402 70.5569 56.9062C70.0229 56.7043 70.07 56.0401 70.052 55.4949C69.9645 55.3468 69.8165 55.468 69.7312 55.5376C69.2309 55.8113 69.3296 56.8748 68.5062 56.5472C67.9879 56.2376 67.4045 56.0334 67.0006 55.5218C66.7269 54.8846 67.4247 54.5234 67.4247 53.967C67.5997 53.5025 68.1494 53.1817 68.2369 52.6858C67.9093 52.5086 67.6648 52.9416 67.4023 53.1346C66.9647 53.7606 66.5923 54.4494 66.3073 55.1C66.2468 55.2706 66.074 55.3625 65.8878 55.3356C65.1204 54.6625 63.6508 54.2833 63.8819 52.9843C64.0457 52.7442 64.1916 52.5041 64.2858 52.2259C63.9582 51.9836 63.8528 52.448 63.5858 52.54ZM79.2982 54.9497C79.3835 55.0148 79.4463 55.0148 79.5495 54.9699C79.803 54.409 79.7357 53.7134 79.8165 53.0673C79.922 51.5169 80.0925 49.9822 80.3236 48.4722C80.4357 48.2636 80.3864 47.9113 80.6983 47.8844C81.1582 47.9854 81.7191 48.0392 81.939 48.5261C82.1185 50.588 81.9435 52.6948 81.3714 54.566C81.0931 55.5061 80.4537 56.2174 79.9713 57.0834C79.7088 57.3774 79.6415 57.9069 79.1658 57.9719C77.8241 56.0805 76.9738 53.949 76.9042 51.4743C76.9266 50.5611 76.3478 49.3203 77.1398 48.636C77.7276 48.4161 78.2033 47.8238 78.8652 47.8777L78.9549 48.129C79.1748 50.3524 78.587 52.7644 79.2982 54.9497ZM85.1318 61.4249C84.0122 60.8685 82.9778 59.7803 82.8544 58.5284C82.9195 58.3893 83.09 58.3848 83.1798 58.4341L84.2971 59.4864C85.1071 60.0047 86.1773 60.5342 86.5722 61.4923C86.6373 61.8131 86.7001 62.2663 86.4196 62.466C86.0449 62.9304 85.5087 63.1862 84.8939 63.0471C83.7676 62.9125 82.7422 62.0307 82.2172 61.0121C82.0288 60.2537 82.0018 59.4236 82.3047 58.7191C82.6772 58.7079 82.4685 59.1409 82.6458 59.3181C83.1977 60.2537 83.9628 61.4676 85.1093 61.7548C85.2215 61.6516 85.2013 61.5439 85.1318 61.4249ZM84.6449 50.9133C84.4138 51.1444 84.167 51.3688 83.8798 51.4788C83.7339 51.0951 84.0122 50.6935 84.2074 50.3524C84.2208 50.2515 84.3016 50.1595 84.2612 50.0316C84.1064 49.8611 83.7519 49.9732 83.7788 49.6524C83.7384 49.4864 83.8192 49.3428 83.8798 49.2239L84.2388 49.2149C84.7952 49.6905 85.4234 50.2447 85.9664 50.7428C86.0135 51.2297 85.9933 51.656 85.769 52.1047C85.7331 52.6275 85.3696 53.0291 85.235 53.5093C85.2888 53.6259 85.4257 53.6529 85.5222 53.5833C86.0315 52.9259 86.2626 52.1339 86.8212 51.5259C87.4427 51.3868 88.163 51.573 88.8204 51.4339C89.3027 51.6897 88.9864 52.374 89.2983 52.7374C89.3947 53.0583 89.2713 53.5025 89.5652 53.7C90.0028 53.6372 89.904 53.0964 90.0499 52.8025C90.2182 52.2035 90.1172 51.7323 90.0656 51.1041C89.9601 50.9919 90.0432 50.8528 90.0566 50.7181C90.2002 50.5746 90.4537 50.4983 90.6265 50.6329C91.0102 50.8573 91.3445 51.4249 91.7439 51.7031C91.8628 51.5954 91.8044 51.3935 91.7663 51.2813C91.6878 50.7742 91.1672 50.4489 91.0506 49.9777C91.0618 49.7915 91.2794 49.6793 91.4342 49.7803C91.948 49.9665 91.7618 50.5813 92.1814 50.8752C92.3676 50.8169 92.2711 50.5476 92.2352 50.431C92.049 49.9755 91.8314 49.5425 91.7977 49.0197C91.9144 48.7796 92.1387 48.9771 92.3115 48.9726C92.8993 49.2396 93.5119 49.4752 94.0503 49.8857C94.6943 50.4265 94.8042 51.2701 95.0106 51.9589C94.8783 52.6432 95.401 53.4711 94.7818 53.9468C94.2814 54.1173 93.9359 54.6513 93.4154 54.7702C93.191 54.5728 93.2314 54.2519 93.0721 54.0388C92.6682 53.5721 92.4641 52.5265 91.6272 52.7554C91.2996 53.0852 91.7977 53.4666 91.9121 53.8144C91.9637 54.4606 92.666 55.1673 92.0714 55.744C91.3804 55.4119 91.1605 56.4395 90.4739 56.1501C89.7156 55.9212 89.029 57.2629 88.4412 56.2466C88.495 55.3109 88.3828 54.3821 88.2729 53.415C88.1607 53.1323 88.0799 52.715 87.7591 52.623C87.4248 52.8788 87.694 53.3859 87.5684 53.7292C87.5123 54.5952 87.2789 55.4119 86.8953 56.1546C86.6978 56.3632 86.4488 56.5405 86.1414 56.4328C86.0719 56.4014 86.018 56.3363 85.9664 56.2824C85.9193 55.8292 86.0898 55.3311 86.211 54.8869C86.1414 54.7702 85.9754 54.8061 85.8879 54.86C85.3943 55.4321 84.7795 56.3655 83.8416 56.2129C83.7205 56.0962 83.5141 56.0356 83.4759 55.9033C83.7474 55.4164 84.3801 55.026 84.333 54.4651C83.891 54.4426 83.6173 54.9632 83.1977 55.0417C82.9599 53.3747 84.6471 52.5557 84.8737 51.0076C84.7997 50.9627 84.7481 50.8819 84.6449 50.9133ZM84.6337 43.5563C85.318 42.5826 86.4174 42.3852 87.4562 42.1137C88.6431 42.1832 89.8547 42.2618 90.6512 43.3051C91.4477 44.4224 91.8358 46.0715 91.3176 47.4087C90.6175 48.8402 89.2332 49.8139 87.6245 49.8454C87.003 50.0159 86.4151 49.6793 85.8497 49.4707C84.9725 49.0758 84.6583 48.1873 84.1759 47.4873C83.7766 46.1411 84.0436 44.6939 84.6337 43.5563ZM96.3277 61.4474C96.4084 61.3464 96.561 61.223 96.7113 61.149C97.1017 61.1378 97.4248 61.2612 97.7502 61.4048C97.9992 61.8423 98.1069 62.5154 97.8825 62.982C97.2521 63.2558 96.7136 62.8968 96.2738 62.5019C96.0943 62.1205 96.4758 61.8153 96.3277 61.4474ZM96.8213 60.6935C96.0539 60.5499 95.5401 59.8342 95.0622 59.2351C94.9231 58.5777 94.3824 58.1223 94.3622 57.429C94.2859 57.0229 94.1491 56.5001 94.2927 56.1366H94.3577C94.9142 57.1575 95.7578 58.0437 96.5318 58.9749C96.8078 59.2194 97.2498 59.3069 97.4002 59.6592C97.3261 60.0541 97.2207 60.5118 96.8213 60.6935ZM91.4432 74.5953C90.6669 74.786 90.3034 73.9155 89.664 73.6126C88.946 72.7532 88.219 71.775 88.2168 70.6038C88.2639 70.5028 88.3828 70.4759 88.486 70.4916C89.0268 71.1064 89.462 72.0106 90.3034 72.2708C90.4246 72.2821 90.5592 72.2439 90.5884 72.1048C90.465 71.4317 90.0005 70.7676 90.2047 70.0855C90.6983 70.1551 90.9855 70.7205 91.4477 70.8596C91.764 71.1916 91.6429 71.6516 91.5846 72.0465C91.4432 72.8632 91.708 73.819 91.4432 74.5953ZM91.2121 89.1522C91.3041 87.2496 91.6721 85.4232 91.6496 83.5408C91.8785 83.2469 92.316 83.1661 92.7243 83.1504C92.7984 83.4241 92.7311 83.8661 92.8208 84.187C92.8747 86.0133 92.5045 87.806 92.6638 89.6862C92.6346 90.4491 92.3855 91.1536 92.4125 91.9478C92.2868 92.4123 92.2734 92.9351 92.2016 93.4107C92.233 94.9745 91.8134 96.3454 91.5531 97.7747C91.3198 98.0865 91.3961 98.7484 90.9384 98.7215C90.3797 98.2997 90.7005 97.6311 90.7342 97.0858C90.9092 96.6371 90.7746 96.0695 90.9451 95.605C90.7566 93.3591 91.4454 91.4183 91.2121 89.1522ZM90.6983 102.255C91.0797 103.056 91.2592 103.951 91.4724 104.811C91.4836 105.248 91.6451 105.616 91.3512 105.933C90.2922 105.78 89.3229 106.233 88.5107 106.801C88.2572 106.875 88.0687 106.727 87.9274 106.581C87.7815 106.195 87.8825 105.731 87.8892 105.322C88.1091 104.827 87.8331 104.088 88.3155 103.767C88.5489 103.561 89.02 103.592 89.0425 103.171C88.6252 102.877 87.8758 103.254 87.6357 102.666C87.1578 102.02 86.6597 101.273 86.6417 100.445C87.3463 99.7603 88.4434 99.5427 89.3992 99.8141C89.6595 99.942 89.9691 100.086 90.1105 100.371C90.4178 100.958 90.4605 101.652 90.6983 102.255ZM89.0559 107.472C89.2085 106.756 90.0028 106.799 90.4896 106.491C90.6736 106.471 90.898 106.482 90.9361 106.702C90.7252 108.08 90.5412 109.498 89.6124 110.606C89.5136 110.732 89.397 110.833 89.2265 110.806C89.1031 110.725 89.13 110.539 89.1793 110.436C89.6819 109.572 89.5249 108.322 89.0559 107.472ZM86.9402 109.834C86.0696 109.608 85.0106 108.843 84.8109 107.9C84.7212 107.68 84.5776 107.431 84.692 107.191C85.1161 106.736 85.8093 106.646 86.4219 106.63L86.6126 106.846C86.4869 107.797 86.1728 109.074 86.9402 109.834ZM85.4369 106.067C84.876 106.02 84.5731 106.617 84.0638 106.57C83.7317 106.186 83.9157 105.569 83.7025 105.152C83.4692 103.667 83.7295 102.08 84.968 101.16C85.2036 101.021 85.4593 101.129 85.6815 101.207C86.1369 101.667 86.3433 102.287 86.6642 102.843C86.8661 103.26 87.2139 103.601 87.2498 104.115C87.5033 104.766 87.3238 105.52 87.2027 106.148C86.6462 106.231 86.0584 105.778 85.4369 106.067ZM75.2304 108.232C75.5984 107.916 76.2334 107.636 76.718 107.932C77.1196 108.288 77.0859 108.89 77.0994 109.359C76.635 110.31 75.7577 111.064 74.8198 111.427C74.7346 111.416 74.6336 111.353 74.5932 111.266C74.5708 110.573 74.9657 110.054 74.9096 109.359C74.7099 108.903 75.024 108.573 75.2304 108.232ZM76.9222 107.36C76.4846 107.355 76.1032 107.178 75.7263 107.001C75.2663 106.918 75.1968 107.461 74.8109 107.575C74.6919 107.665 74.6134 107.835 74.4609 107.855C74.2814 107.456 74.3173 106.949 74.2522 106.473C74.0009 105.971 74.149 105.372 74.407 104.925C74.757 104.681 75.0465 104.176 75.6119 104.346C75.7577 104.207 75.8228 104.017 75.7779 103.812C75.567 103.536 75.1968 103.592 74.9096 103.653C74.5237 103.835 74.1826 104.18 73.8663 104.447C73.4422 103.851 73.4669 103.054 73.3951 102.311C73.4422 101.596 73.5858 100.777 74.2006 100.451C74.7548 100.723 75.5154 100.649 75.8071 101.34C76.6395 102.551 77.694 103.691 77.8219 105.217C77.9004 106.112 78.0148 107.106 77.5459 107.851C77.3058 107.701 77.2161 107.483 76.9222 107.36ZM74.3711 98.7619C72.9912 98.008 72.7444 96.5361 72.9374 95.1114C72.9643 94.8713 72.9845 94.5281 73.274 94.454C73.5522 94.6515 73.4759 95.0015 73.6531 95.2393C74.4227 96.5922 75.9551 97.3775 76.9065 98.5846C77.8219 99.1186 78.1764 100.178 78.2437 101.225C78.3873 101.524 78.3132 101.921 78.2033 102.195C78.1046 102.231 78.0507 102.112 77.9789 102.062C77.2946 100.611 75.9125 99.2802 74.3711 98.7619ZM67.8824 59.722C68.3715 59.6053 68.542 59.1229 68.9235 58.8559C69.2869 58.4925 69.5764 57.9899 69.9892 57.5726C70.2091 57.5299 70.4133 57.6107 70.4716 57.8126C70.5412 58.4543 70.2203 58.9345 70.0992 59.4999C69.4597 60.873 68.6385 62.2035 67.0343 62.4548C66.5766 62.5176 66.1997 62.3269 65.9327 61.9948C65.9147 61.407 65.6298 60.9044 65.7128 60.3278C65.7958 59.1364 66.5833 58.2277 67.234 57.2607C67.4135 57.07 67.8488 56.8164 68.0103 57.1687C67.8488 57.9158 67.6827 58.654 67.6895 59.4662C67.7411 59.5515 67.7792 59.6569 67.8824 59.722ZM71.2726 68.0483C72.1656 67.3752 72.8319 66.361 73.4849 65.5421C73.5499 65.468 73.689 65.569 73.7115 65.6498C73.7092 67.2944 72.7489 68.6698 71.7527 69.9666C71.1469 70.7137 70.0543 71.1064 69.0514 70.9134C68.2997 70.8012 68.2593 69.989 67.9722 69.4707C67.9385 68.8448 68.21 68.3265 68.4994 67.8396C69.3632 67.2405 70.5479 66.5787 71.0101 65.5802C71.1088 65.4411 71.3063 65.3177 71.4319 65.468C71.396 66.5697 70.779 67.4402 70.3819 68.4028C70.6892 68.5396 70.9877 68.2076 71.2726 68.0483ZM73.7272 61.9006C74.582 61.6381 75.0375 60.8954 75.5109 60.238C75.5109 59.7624 75.9798 59.529 76.1548 59.1117C76.2558 59.0646 76.258 59.1813 76.3074 59.2127C76.3074 60.891 75.5894 62.4077 74.2499 63.4622C73.9829 63.6596 73.5925 63.6529 73.2852 63.6103C72.8701 63.3545 72.2374 63.1997 72.2531 62.6051C72.2912 61.5887 72.5156 60.6127 73.4333 60.0608C73.7294 59.7467 73.8394 59.3877 74.223 59.2755C74.1243 59.8701 73.9762 60.5207 73.8573 61.1512C73.9336 61.4586 73.5163 61.656 73.7272 61.9006ZM77.9834 77.4201C78.035 77.4896 78.0911 77.5704 78.1921 77.5323C78.385 77.2383 78.219 76.8053 78.486 76.5922C78.6004 76.4688 78.8225 76.5002 78.9549 76.545C79.5338 77.0903 79.2578 77.9989 79.3476 78.672C79.3139 79.4528 79.0851 80.1371 78.8024 80.8102C78.9415 81.0234 79.1703 80.8484 79.3408 80.7945C79.9085 79.9599 79.8748 78.8919 80.0678 77.9025C80.1261 77.7005 80.0723 77.4268 80.2383 77.2899C80.3729 77.2518 80.4739 77.4021 80.4941 77.5031C80.5165 78.1807 80.3819 78.865 80.4357 79.5067L80.5591 79.5695C81.2502 78.7528 80.871 77.4739 81.2816 76.5136C81.4678 75.9796 81.313 75.3379 81.4835 74.8084C81.8425 74.8309 81.8425 75.3581 81.9345 75.6588C81.8941 76.0649 82.1724 76.3319 82.2845 76.6527C82.5426 78.9458 83.1461 81.9702 80.9653 83.4084C80.1934 83.8213 79.2601 83.7293 78.5152 83.3635C77.8264 83.0427 77.7097 82.3494 77.3507 81.8199C76.9379 80.5275 76.3523 79.1208 76.7359 77.6467C76.9984 76.2511 77.1061 74.8039 77.8712 73.5969C78.0103 73.709 77.9139 73.9805 77.9184 74.169C77.8869 75.2729 77.6312 76.3476 77.9834 77.4201ZM84.5035 72.7779C84.2006 72.2439 84.2679 71.5439 84.1311 70.9246C84.2006 70.4647 84.5013 70.9987 84.609 71.1266C85.0914 72.4526 87.0164 72.7891 87.1286 74.243C87.3238 74.6132 87.3261 75.1876 87.0658 75.5376C86.5901 76.0223 85.8654 76.2691 85.1183 76.1367C84.0189 75.6992 83.3076 74.6289 82.5336 73.7741C82.482 73.1436 81.957 72.6186 82.2307 71.9837C82.4304 71.9567 82.5874 72.143 82.7108 72.2551C83.274 72.9888 83.9897 73.5587 84.7324 74.0927C84.867 74.0927 85.0375 74.1039 85.0846 73.9491C85.2552 73.4308 84.6045 73.2154 84.5035 72.7779ZM83.3862 85.8204C83.1506 85.3178 82.4977 84.9992 82.4438 84.4271C82.4192 84.2229 82.307 83.8706 82.5785 83.7584C83.5926 84.169 84.5305 84.9027 85.2843 85.7979C85.5917 86.3656 85.6164 87.2788 85.1744 87.7656C85.1475 88.0551 85.0353 88.349 84.7526 88.5105C84.4676 88.6519 84.0817 88.7012 83.7205 88.6429C82.5179 87.9855 81.8672 86.6819 81.6541 85.3604H81.7909C82.3316 85.7508 82.4147 86.8323 83.2695 86.5698C83.4737 86.4082 83.4602 86.0739 83.3862 85.8204ZM85.3516 83.3097C84.5955 82.4324 84.0234 81.4654 84.0727 80.2247C84.1401 80.1394 84.2186 80.0855 84.324 80.1192C84.4811 80.3166 84.4676 80.6061 84.6314 80.8192C84.8805 81.2567 84.9882 82.0106 85.6702 82.0106C85.8497 81.9029 85.7622 81.6516 85.7174 81.5013C85.7174 80.8551 85.208 80.2785 85.5289 79.6054H85.6321C86.4892 80.4917 87.5482 81.4273 87.2341 82.778C87.16 83.1549 86.7764 83.368 86.46 83.4959C86.1033 83.5475 85.677 83.4847 85.3516 83.3097ZM73.8595 81.8984C74.4496 81.2904 74.8872 80.5096 75.374 79.8522C75.5445 79.7782 75.549 79.9487 75.6365 80.0295C75.8564 81.7167 74.9365 83.2738 73.5679 84.095C73.2179 84.279 72.7646 84.3351 72.354 84.2835C72.0915 84.0209 71.9614 83.7001 71.7168 83.4376C71.5777 82.1722 71.847 80.8888 72.7512 80.0339C73.1146 79.6637 73.1528 79.2217 73.5499 78.9076C74.066 79.1948 73.8035 80.0182 73.8528 80.5433C73.8528 81.1513 73.3233 81.5417 73.2919 82.1363C73.4826 82.3696 73.6756 82.0061 73.8595 81.8984ZM75.0801 84.6559C75.4054 84.086 76.0583 83.7674 76.3949 83.1773C76.6125 83.119 76.7853 83.2469 76.893 83.3815C76.8907 84.4652 76.258 85.3133 75.6881 86.2197C76.018 86.4755 76.2423 85.946 76.6148 86.038C77.3126 85.4928 77.3036 84.6088 77.8107 83.9649C78.0103 83.9065 78.1517 84.1242 78.228 84.2745C78.9482 85.7665 77.9206 87.1037 77.2251 88.2076C76.792 89.0131 75.834 88.7416 75.125 88.8426C74.7301 88.7596 74.306 88.6855 74.1737 88.2301C73.9111 86.8637 74.7795 85.8338 75.0801 84.6559ZM77.0433 71.6808C76.9401 72.3112 76.7202 72.8789 76.6215 73.5093L76.4263 73.7337C76.6148 73.8997 76.4039 74.2251 76.3792 74.4494C76.1122 75.7261 75.0397 76.7313 73.7945 77.005C73.3502 76.9354 72.9217 76.812 72.5582 76.5495C71.9838 76.0357 72.1252 75.1001 72.1701 74.4001C72.621 72.9686 73.4983 71.6852 74.306 70.4243C74.3891 70.3548 74.6089 70.2112 74.6291 70.4131C74.8064 71.6785 74.5528 72.8564 74.1782 73.9558C74.0839 74.2116 74.2118 74.4966 74.4698 74.6245C74.9231 74.4764 75.0263 73.9132 75.3718 73.6305L75.3673 73.4443C75.8968 72.5468 76.4151 71.6314 76.6215 70.6128C76.6843 70.4737 76.8212 70.5006 76.9424 70.4939C77.2363 70.8102 77.0142 71.2769 77.0433 71.6808ZM70.2607 64.7433C69.7671 65.2841 69.186 65.7216 68.4186 65.5623C68.2324 65.5039 67.9923 65.4232 67.934 65.2212C67.7254 63.9693 68.8225 63.2266 68.9953 62.1362C69.2264 61.8916 69.3991 61.5102 69.7222 61.5012C69.8793 62.2596 69.5629 62.9327 69.3946 63.6327C69.6347 63.7606 69.8277 63.35 69.9915 63.1728C70.4896 62.2439 70.7835 61.2163 71.0236 60.1752C71.1155 59.9666 71.3264 60.1169 71.3489 60.2672C71.5845 61.9544 71.0662 63.4308 70.2607 64.7433ZM67.7545 72.9529L68.9414 71.7997C69.076 71.7952 69.2264 71.7885 69.2668 71.9388C69.4418 72.6814 69.0738 73.4039 68.8225 74.0613C68.8494 74.3821 68.4994 74.6985 68.7485 74.9655C69.103 74.9184 69.3296 74.4988 69.5562 74.2543C70.0655 73.6013 70.4851 72.8699 71.1469 72.3785C71.212 72.3785 71.2838 72.3942 71.3175 72.4593C71.2322 73.543 70.7005 74.4629 70.2697 75.4254C69.7357 76.2534 68.8764 77.0454 67.8016 76.8569L67.5414 76.6123C67.4516 75.4232 67.0343 73.9738 67.7545 72.9529ZM71.5396 86.5406C71.737 86.379 71.8335 86.121 72.0489 86.0627C72.0624 86.4845 71.6675 86.839 71.5284 87.2653C71.3713 87.7297 71.046 88.1314 71.0953 88.6698C71.2883 88.9144 71.5216 88.7237 71.7034 88.6182C72.2329 88.2323 72.5448 87.7297 72.9845 87.2563C73.0541 87.3034 73.0271 87.4268 73.0271 87.5121C72.9464 87.5502 72.9666 87.6377 72.9666 87.7163C72.5021 88.6631 71.9995 89.9151 70.8194 90.191C70.4155 90.3032 70.0229 90.2202 69.7424 89.9039C69.4485 89.15 69.6773 88.2256 70.1328 87.6377C70.6646 87.2586 70.9316 86.6932 71.5396 86.5406ZM71.3736 95.1271C71.4857 96.0784 71.6697 97.0881 71.1671 97.898C71.0235 98.1247 70.7386 98.3019 70.4963 98.1381C70.1508 98.0147 70.1081 97.6109 70.079 97.2833C70.0184 96.314 69.9084 95.5265 70.2181 94.6537C70.3886 94.0883 70.5232 93.4668 70.5905 92.8565C70.6937 92.3988 70.7296 91.9052 70.9024 91.4812C71.0325 91.7796 70.9944 92.152 71.1223 92.4549C71.322 93.3322 70.9742 94.3261 71.3736 95.1271ZM69.7514 101.849C69.9713 101.299 70.1732 100.748 70.7049 100.375C70.9428 99.8231 71.5957 100.081 72.0108 99.8456C72.3765 100.157 73.2919 99.5516 73.1797 100.301C72.7153 101.198 72.3742 102.228 72.6278 103.303C72.3877 103.808 71.3489 103.193 71.562 104.048C71.9008 104.654 72.6368 104.254 72.9598 104.838C73.0989 105.583 73.1932 106.363 73.2986 107.122C73.2695 107.241 73.1146 107.214 73.0653 107.16C72.4909 106.738 71.7168 106.368 70.9989 106.763C70.5681 106.998 70.2921 107.485 69.9264 107.833C69.7088 107.956 69.6504 107.658 69.5943 107.517C69.1007 105.681 69.3094 103.59 69.7514 101.849ZM75.3359 96.0358C74.84 95.338 74.6628 94.4944 74.2656 93.7428C74.1602 92.9508 74.0458 92.1273 74.2634 91.369C74.3397 91.167 74.3532 90.8933 74.5686 90.752L74.656 90.835C74.5887 92.5828 75.7779 93.7832 76.7516 95.0643C77.4853 95.8047 78.8988 96.0313 78.7844 97.3461C78.7844 97.9182 79.1793 98.5712 78.8046 99.0872C78.6363 99.0984 78.6812 98.975 78.578 98.8898C77.7074 97.6445 76.4353 97.023 75.3359 96.0358ZM78.7216 93.947C77.9116 93.0046 77.0792 91.8603 77.584 90.5725C77.6424 89.7019 77.9744 88.8628 78.7036 88.3198C78.8495 88.1089 78.7395 87.741 79.0402 87.6624C79.1793 87.8644 78.9482 88.0035 78.919 88.1583C79.0604 89.0356 79.5607 90.3459 78.7507 91.0818C78.7395 91.2299 78.7463 91.4363 78.8988 91.4991C79.7537 91.7324 79.5876 90.6173 80.0857 90.3167C80.1732 91.01 79.6639 91.5821 79.204 92.0735C79.278 92.3068 79.5652 92.3136 79.7559 92.4414C80.2473 92.3943 80.3819 91.8334 80.5928 91.4856C80.8194 90.4648 80.7162 89.3631 80.1329 88.5285C80.1732 88.2413 79.9893 87.7701 80.2518 87.5076C80.8172 87.5615 81.0887 88.183 81.3893 88.5621C81.7909 89.5359 81.9794 90.734 81.6361 91.7751C81.773 92.8116 80.8463 93.0562 80.2518 93.7203C79.8255 93.9469 79.2219 94.2184 78.7216 93.947ZM81.1021 96.0179C81.1739 95.5916 81.506 95.3223 81.7146 94.997C82.0736 93.9828 82.7086 93.0293 83.2044 92.1228C83.5814 91.6001 83.4243 90.8933 83.6958 90.3391C84.0009 90.4177 83.9987 90.8395 84.1423 91.075C84.2612 92.2709 84.2814 93.5117 83.8529 94.5281C83.1125 95.7845 82.1656 96.9333 81.5217 98.2256C81.2592 98.4545 81.3018 98.809 81.1605 99.1029C80.604 98.165 80.687 96.9602 81.1021 96.0179ZM81.8291 100.445C81.9659 99.3834 82.666 98.5352 83.0653 97.6041C83.8798 96.5474 84.407 95.3605 84.8266 94.1421C84.8849 93.8864 84.674 93.6732 84.8737 93.4623C85.3135 94.1242 85.4795 95.0351 85.3875 95.9214C85.4234 98.2301 82.9666 99.4058 82.6368 101.571C82.3765 101.802 82.1791 102.145 82.0175 102.406C81.681 101.872 81.8605 101.084 81.8291 100.445ZM87.0523 95.9326C87.1309 94.6245 87.5347 93.4376 87.5818 92.1184C87.5258 91.9142 87.8017 91.5844 87.8668 91.9703C88.1069 93.22 87.8399 94.5707 88.2325 95.7576C88.1787 96.6304 88.3918 97.7096 87.629 98.2077C87.3081 98.4051 87.0658 98.0843 87.0052 97.833C86.7001 97.1621 87.2116 96.6236 87.0523 95.9326ZM89.0021 88.1897C88.8271 88.5195 88.4726 88.5801 88.1652 88.506C86.911 88.0842 86.4129 86.6416 86.0561 85.4793C86.359 85.3896 86.4398 85.8428 86.7135 85.9348C87.2116 86.0582 87.4091 86.9983 87.961 86.7156C87.8735 86.1367 87.2677 85.8002 87.1668 85.246C87.0972 85.0126 86.8639 84.7591 86.994 84.5213C87.3171 84.5774 87.2161 85.053 87.5886 85.1136C88.3223 85.2797 88.9056 85.9909 89.2108 86.6438C89.4665 87.1576 89.296 87.7589 89.0021 88.1897ZM86.4084 68.6181C85.5222 67.9832 85.309 66.9735 85.042 66.0155C85.0689 65.6879 84.9186 65.3042 85.1116 65.0417C85.2619 65.0036 85.2686 65.2235 85.3763 65.3244C85.8991 65.8382 86.193 66.6549 86.9043 66.9915C87.0411 67.1194 87.0479 67.3078 87.2363 67.4178C87.4113 67.5187 87.6088 67.3909 87.6873 67.2203C87.6783 66.9152 87.3979 66.6325 87.2049 66.3655C87.0299 65.643 86.2536 65.1405 86.4443 64.2856C86.7607 63.9917 86.9805 64.5952 87.2879 64.7187C88.2482 65.0507 89.5181 65.5533 89.6752 66.7335C89.7223 67.3639 89.7851 68.2255 89.1367 68.6518C88.3424 69.123 87.2206 69.0198 86.4084 68.6181ZM89.1075 61.9657C89.3476 62.0936 89.5271 62.3785 89.7694 62.5221C90.2541 62.9349 90.6467 63.5497 90.3954 64.2318C90.2339 64.5257 90.1935 64.9004 89.8771 65.0978C89.2534 65.1135 88.8226 64.3978 88.3896 64.0725C88.0037 63.6596 87.7187 63.1593 87.8713 62.5445C87.9319 62.3583 88.1181 62.4525 88.2235 62.5019C88.6005 62.6253 88.8922 63.3141 89.2893 63.009C89.2803 62.6388 88.946 62.3247 89.1075 61.9657ZM89.7133 61.49C89.0357 60.4736 88.4479 59.4281 88.2886 58.1918C88.32 58.1066 88.4367 58.0841 88.5085 58.1492C89.0357 58.8492 89.7133 59.897 90.7163 59.8858C91.0102 59.5694 90.5771 59.2441 90.4964 58.9075C90.438 58.5328 90.1688 58.1537 90.3281 57.77C90.6512 57.7004 90.6445 58.0841 90.8688 58.2187C91.5262 58.6405 92.2038 59.1925 92.3609 59.971C92.3676 60.7294 92.2734 61.6336 91.6631 62.1093C90.9855 62.116 90.2675 61.9657 89.7133 61.49ZM82.556 70.0474C81.7887 71.0346 80.6265 71.8154 79.3005 71.757C78.6543 71.6224 77.9857 71.4407 77.5257 70.8753C77.6132 70.3144 76.8952 70.1326 77.0119 69.5493C76.6058 68.4274 76.0426 67.3213 76.258 65.9572C76.0987 64.5571 76.3949 63.0718 76.7449 61.757C76.8728 61.5483 77.1398 60.7586 77.4584 61.2903C77.4629 62.5468 77.1106 63.8144 77.602 64.9834C77.7591 65.0687 77.8623 65.2459 78.0664 65.2235C78.4299 64.8914 78.0395 64.3081 78.3491 63.9289C78.5331 63.801 78.6431 64.0209 78.7149 64.1532C78.9258 65.4523 78.7149 67.0341 79.3431 68.1874C79.4687 68.4005 79.7312 68.5823 79.9623 68.4925C80.1777 68.3646 80.0745 68.23 80.0857 68.0326C79.4037 66.269 79.4194 63.9266 80.1306 62.2057C80.2675 62.1676 80.2877 62.2708 80.3572 62.3561C80.4941 63.5362 80.1934 64.7187 80.5951 65.8248C81.1021 65.6902 81.0483 65.1135 81.2053 64.7388C81.5284 63.5048 81.1515 62.2977 81.5374 61.0996C81.6765 61.1108 81.6473 61.2813 81.7505 61.3464C82.6346 64.0231 84.4407 67.2877 82.556 70.0474ZM77.2228 44.5929C77.1667 44.3416 77.3462 43.9939 77.0658 43.8391C76.7988 43.931 76.4779 43.9894 76.2446 44.0859C76.1593 44.0634 76.0875 43.931 76.0673 43.8346C76.0808 43.783 76.0987 43.7291 76.0942 43.6439C76.6282 43.3073 77.1622 42.9483 77.7456 42.7127C77.86 42.5041 78.1562 42.1787 78.3514 42.5108C78.293 43.3589 77.7703 44.0387 77.3821 44.759C77.2318 44.8173 77.3126 44.64 77.2228 44.5929ZM75.6208 42.5826C75.1833 42.6297 74.6426 42.7262 74.2926 42.4009C74.416 42.006 74.9634 42.1271 75.282 41.9835C75.9035 41.8444 76.2917 42.3246 76.8055 42.4435C76.8257 42.4973 76.8593 42.5445 76.8481 42.614C76.4757 42.7643 76.0628 42.5355 75.6208 42.5826ZM77.0837 39.0398C76.7943 39.0286 76.819 38.6876 76.6103 38.5417C76.4532 38.4071 76.3119 38.2321 76.0606 38.3017C75.7442 38.5687 75.6747 38.9972 75.4795 39.3225L75.4885 39.612C75.1003 39.6748 74.95 39.152 74.6875 38.9209C74.5326 38.2321 75.0263 37.7408 75.4189 37.2539C75.8923 37.2202 76.4398 37.4087 76.7225 37.8238C76.8728 38.2119 77.2026 38.526 77.0837 39.0398ZM75.1407 40.5409C75.0061 41.1175 75.7173 41.0793 76.0314 41.3104L76.1346 41.4451C76.0247 41.6851 75.7195 41.7121 75.4974 41.647C74.9006 41.481 74.14 41.5348 73.6038 41.8085C73.3143 41.8512 73.0429 41.8085 72.8342 41.6268C72.8858 41.1511 73.5252 41.4495 73.8394 41.3104C74.0749 41.1825 74.3262 41.1018 74.5394 40.9155C73.9605 40.3546 73.081 40.8729 72.3496 40.8415C71.8784 40.9761 71.2546 41.1287 70.8732 40.7877C70.8508 40.6867 70.9675 40.6014 71.0505 40.5566C71.7684 40.7226 72.1588 40.1348 72.7848 40.119C73.3368 39.8633 73.9874 40.0495 74.5147 40.1662C74.7099 40.3322 74.9679 40.3434 75.1407 40.5409ZM73.5208 39.3338C72.3518 39.3181 71.4162 39.9216 70.2652 39.8251C70.1911 39.7242 70.0072 39.778 69.9713 39.6277C69.9152 39.4617 70.1351 39.5043 70.2181 39.437C70.5277 39.0354 71.0752 39.2238 71.4229 38.9075C71.7438 38.8805 72.1207 38.9501 72.3137 38.6607C73.0563 38.6023 73.7765 38.7684 74.232 39.2799L74.2342 39.4302C73.9852 39.5581 73.7608 39.3607 73.5208 39.3338ZM70.5187 42.5086C71.764 42.1137 73.1124 42.4502 74.0525 43.2669C74.8513 44.4964 75.1586 46.2016 74.6067 47.6286C74.2477 48.6069 73.4288 49.6479 72.3137 49.7489C70.9921 50.3479 69.6347 49.6591 68.5892 48.8088C67.8151 47.9652 67.1375 46.7985 67.6289 45.6497C67.8891 44.1846 69.0536 42.8922 70.5187 42.5086ZM66.2468 64.3395C66.3118 64.3238 66.3477 64.3776 66.3836 64.409C66.2916 67.0745 66.4016 69.5829 66.5856 72.309C66.7606 74.6918 66.8346 77.2361 66.958 79.5718C66.8862 80.016 66.4016 80.3054 66.2961 80.7317C66.0336 81.0256 65.8048 81.4048 65.4727 81.517C65.1272 80.7968 65.2887 79.8769 65.1115 79.0849C64.9746 75.1674 64.4473 71.1176 64.5259 67.0251C64.6807 66.5113 65.0554 66.0783 65.1967 65.5668C65.5355 65.1292 65.9865 64.7613 66.2468 64.3395ZM67.4561 80.2269L67.5683 80.025C68.1988 79.5448 68.7889 78.9188 69.2668 78.3624C69.3677 78.3243 69.453 78.3736 69.5203 78.4544C69.2353 79.6346 68.9661 80.7945 68.2324 81.784C68.201 81.9231 68.2549 82.0398 68.376 82.0667C68.8315 81.4946 69.2533 80.8372 69.8681 80.3795C70.245 79.9464 70.4649 79.3967 70.9832 79.123C71.2502 79.491 70.9742 79.924 70.9697 80.3099C70.8508 82.0779 69.9713 83.7517 68.3132 84.4831C67.75 84.4831 67.409 84.9969 66.8099 84.7838C66.3477 84.6761 65.8452 84.2969 65.6634 83.8796C65.5019 82.4235 66.4846 81.241 67.4561 80.2269ZM66.5676 85.4232L67.3103 85.2774C67.3955 85.3088 67.4628 85.3402 67.5324 85.421C67.7321 87.4022 67.7927 89.4865 68.0754 91.5305C68.1516 93.0024 68.3401 94.3014 68.4904 95.7621C68.6228 96.7246 68.551 97.7926 68.9661 98.643C69.3498 99.4664 68.7372 100.081 68.4523 100.748C67.7074 100.687 68.3917 99.7872 67.9564 99.4237C67.317 96.7987 66.5452 94.2386 66.3926 91.4138C66.2176 90.1148 66.1099 88.7775 66.0516 87.4381C65.816 86.765 65.9955 86.0335 65.8048 85.3223C66.0673 85.0934 66.2939 85.4277 66.5676 85.4232ZM65.9573 104.609C66.0134 103.707 66.0763 102.807 66.6798 102.112C66.6977 101.638 67.225 101.598 67.5032 101.338C67.9587 101.344 68.5106 100.954 68.8786 101.331C68.8876 101.654 69.3318 101.824 69.1905 102.188C68.9549 102.72 68.661 103.117 68.1786 103.474C67.943 103.514 67.5773 103.236 67.4718 103.592C67.575 104.205 68.394 103.808 68.56 104.324C68.5757 104.853 68.8001 105.441 68.5757 105.939C68.0821 105.986 67.391 106.007 66.9087 106.274C66.6731 106.417 66.4397 106.61 66.1503 106.536C65.6432 106.094 65.8205 105.221 65.9573 104.609ZM67.0814 106.826C67.5324 106.644 68.0619 106.628 68.5219 106.781C68.4568 107.326 68.2818 107.842 68.3199 108.432C68.4052 109.107 68.7193 109.812 69.4193 110.079V110.115C68.9145 110.229 68.5151 109.839 68.0664 109.698C67.4785 109.325 67.3888 108.661 67.1173 108.111C67.0926 107.692 66.6372 107.194 67.0814 106.826ZM71.5216 107.286C71.9816 107.333 72.5246 107.333 72.7624 107.806C72.7108 108.347 72.4303 108.78 72.5178 109.352C72.6233 109.944 72.5874 110.593 72.9239 111.073L72.9352 111.293C72.5089 111.255 72.1387 110.862 71.7909 110.528C71.1447 109.888 70.4581 109.197 70.503 108.28C70.6578 107.82 71.138 107.53 71.5216 107.286ZM92.6189 106.803C92.4955 106.725 92.5448 106.514 92.574 106.408C92.9958 105.755 93.7923 106.271 94.3936 106.04L94.4991 106.096C94.6225 106.823 93.8551 107.288 93.7048 107.956C93.5882 108.127 93.5298 108.297 93.5029 108.502C93.1417 108.955 92.832 109.404 92.3496 109.742L92.1275 109.747C92.2532 108.766 93.0743 107.943 92.6189 106.803ZM94.7616 105.248C94.6158 105.372 94.452 105.565 94.2456 105.452C93.6061 105.129 93.0766 105.639 92.4529 105.639C92.233 105.136 92.0625 104.586 92.1118 104.008C92.4932 103.59 92.9397 103.29 93.301 102.886C93.3144 102.767 93.2763 102.632 93.1417 102.619C92.6817 102.513 92.1544 103.496 91.8246 102.796C91.5509 102.246 91.2794 101.69 91.1583 101.05C91.5733 100.734 91.975 101.145 92.3519 101.27L93.0003 101.441C94.1827 101.674 94.185 102.931 94.719 103.711C94.7324 104.218 95.3921 104.842 94.7616 105.248ZM92.2173 82.5626C90.8374 82.8251 89.5473 82.2215 88.6296 81.1939C88.2056 80.5096 87.7748 79.832 87.6626 79.0019C87.7456 78.8785 87.896 78.8111 88.0194 78.8852C88.7306 79.5426 89.5338 80.1461 90.4021 80.4625L90.5345 80.292C90.6916 80.3727 90.7679 80.6397 90.9675 80.532C90.9675 80.4311 91.1672 80.3884 91.0438 80.3077C89.9646 79.4102 89.2893 78.34 88.9639 77.0947C88.9034 76.8591 89.1748 76.8547 89.3319 76.913C90.4717 77.6085 91.598 78.4095 92.6593 79.3227C93.0699 79.9218 93.5971 80.5881 93.2628 81.3959C93.1843 81.9411 92.7894 82.4459 92.2173 82.5626ZM92.9913 60.6038C93.0385 60.4804 93.2112 60.523 93.2763 60.5566C93.7677 60.9313 93.9696 61.4878 94.3532 61.9298C95.2036 62.5715 95.9799 63.5317 97.0053 63.8212C97.3261 64.2542 97.8489 64.169 98.2303 64.4629C98.1563 64.8757 97.9297 65.2863 97.5123 65.4187C96.2738 65.4725 95.5379 64.5795 94.6988 63.7359C93.7587 62.8631 93.3638 61.7413 92.9913 60.6038ZM98.1361 58.6047C97.8646 58.7168 97.5056 58.6091 97.2655 58.4431C96.3344 58.0325 96.7315 57.0004 96.5543 56.2466C96.5027 55.6542 96.3972 54.943 96.7203 54.4628C96.8729 54.4202 96.9783 54.6064 97.0479 54.6872C97.5101 55.9437 98.1922 57.1126 98.1361 58.6047ZM97.2678 49.9104C97.1578 50.1011 97.0187 50.0226 96.8639 49.9912C96.5453 49.5268 95.944 49.2912 95.8273 48.7347C95.7331 48.5149 95.4661 48.6113 95.3292 48.6495C95.2978 48.7347 95.1834 48.7886 95.2552 48.8896C95.9395 49.6816 96.0562 50.7114 96.7405 51.5079C96.7024 52.0329 96.2895 52.4009 96.0652 52.7487C95.9979 52.7801 95.9148 52.7868 95.8453 52.7868C95.4773 52.4772 95.4818 52.006 95.1969 51.6538C95.2058 51.3329 95.0443 51.0659 94.885 50.7989C95.0421 49.8947 94.2972 49.4078 93.9561 48.7258C93.5051 48.3668 92.9151 48.3668 92.5067 47.8642C92.482 47.6825 92.4775 47.4962 92.6279 47.3504C93.2045 46.7626 93.9875 47.5164 94.6404 47.1911C94.9344 47.3728 95.2844 47.1058 95.6097 47.2337C96.0607 47.5075 96.4825 47.8799 97.021 47.9023C97.3844 48.1581 97.5707 48.6136 97.445 49.078C97.3889 49.3495 97.2431 49.6053 97.2678 49.9104ZM96.119 41.6694C96.0719 41.9207 95.8655 42.2348 96.1078 42.4659C96.3883 42.6948 96.7652 42.8025 96.8751 43.1929C96.9694 43.406 96.9245 43.6304 96.6754 43.7067C95.9081 43.7493 95.2552 44.0387 94.7683 44.6961C94.7706 44.8128 94.7593 44.9519 94.8962 45.017C95.4212 45.0506 95.4212 44.3394 95.9081 44.2586C96.2649 44.2968 96.6463 43.9423 96.9424 44.2586C96.837 44.6692 97.4002 44.8577 97.4136 45.2638C97.2296 45.9481 97.5303 46.8029 97.1399 47.4065C96.2918 47.4334 95.5671 46.4238 94.7033 47.1283C94.1423 47.043 93.66 46.7805 93.034 46.8568C92.6032 46.5247 92.4506 45.9526 92.5314 45.4074C92.6884 45.0125 93.1506 45.1336 93.3817 44.842C93.6353 44.815 93.9449 45.0125 94.1603 44.7836C94.0638 44.4134 93.5119 44.5862 93.2224 44.5593C92.9689 44.6715 92.7064 44.8644 92.417 44.8038C92.1185 44.6221 92.1634 44.2541 92.2038 43.9759C92.5965 43.0515 93.6644 42.9169 94.5372 42.7195C94.5888 42.6656 94.6718 42.5961 94.6359 42.5108C93.651 41.9342 92.7221 42.688 91.9592 43.1884C91.8426 43.2422 91.7214 43.1413 91.7147 43.0291C91.8852 42.3762 92.1859 41.6335 92.924 41.4159C92.9711 41.3082 93.1417 41.2543 93.0833 41.122C92.8253 40.9402 92.5942 41.187 92.3429 41.2072C92.0109 41.5236 91.5958 41.813 91.1785 42.0082C91.2121 41.463 91.7416 41.0255 91.966 40.5072C91.9256 40.4444 91.9256 40.3726 91.8381 40.3255C91.1022 40.7046 90.6153 41.3777 89.9153 41.822C89.7133 41.8983 89.4598 41.8691 89.3072 41.7412C89.1793 41.6403 89.2108 41.4585 89.2579 41.3351C89.8031 40.7585 90.29 40.0293 90.557 39.2934C91.0079 38.0279 92.5763 38.2142 93.4109 37.31C93.8237 37.4334 94.36 37.1619 94.5552 37.5994C94.3914 37.8013 94.158 37.844 93.9269 37.936C93.3795 38.3578 92.5516 38.5552 92.3541 39.3405C92.7041 39.603 92.8545 39.0039 93.1417 38.8918C93.3369 38.7526 93.5702 38.544 93.8439 38.6517C94.1939 39.0466 94.6247 38.0683 94.8469 38.811C94.7077 39.17 94.268 39.2979 93.9696 39.511C93.642 39.8094 93.3301 40.2424 93.191 40.6867C93.2987 40.9066 93.5007 40.6979 93.651 40.7091C94.1132 40.3255 94.5529 39.7533 95.1655 39.769C95.9036 40.1123 96.1639 40.9043 96.119 41.6694ZM88.2751 35.0304C88.8002 34.4426 89.5967 34.5009 90.1823 34.0746C91.7147 33.6416 93.4221 34.2182 94.7167 33.2624L96.3591 32.1293C96.9716 32.1091 97.261 31.4944 97.7412 31.2386C97.9095 31.1847 98.0845 31.2812 98.1047 31.436C97.9409 32.2056 97.555 32.8899 97.4944 33.6707C97.3418 34.8689 96.045 35.0394 95.3315 35.7237C94.8177 36.0647 94.1558 36.0647 93.5882 36.2689C92.2621 36.2734 91.0954 36.9532 90.4178 38.0279C90.6332 38.3802 90.2473 38.6113 89.996 38.7549C89.6954 38.9479 89.2197 38.894 89.0447 39.2418C89.1838 39.3854 89.5047 39.3427 89.462 39.6367C88.7665 40.2133 87.602 39.7444 86.8908 40.2739C86.7898 40.3591 86.6238 40.4175 86.6103 40.5678C86.801 40.7181 87.2184 40.5364 87.1937 40.8729C86.6844 41.3643 85.8991 41.205 85.3135 41.5101C85.2686 41.6447 85.4234 41.7076 85.5064 41.7233C85.7779 41.7278 86.0113 41.537 86.2828 41.6313C86.276 41.8871 85.9552 41.8624 85.8049 41.9992C85.2215 42.273 84.4138 42.0755 83.9202 42.513C84.1647 42.7419 84.6045 42.6297 84.7795 42.8967C84.1311 43.3028 83.2987 43.2983 82.6727 43.7403C82.1679 44.0769 82.8679 45.2256 81.9727 44.916C81.4432 44.5211 81.2165 43.9333 81.1133 43.323C81.2749 43.0829 81.0034 42.4839 81.4454 42.5534C81.8739 42.7778 81.8223 43.2535 82.1858 43.4621C82.4753 43.489 82.6144 43.1637 82.7781 42.9865C82.3698 42.2909 83.4064 42.2752 83.6801 41.8108C83.5926 41.2341 84.2567 41.3127 84.5574 41.1063C85.1475 40.9357 85.7712 40.8123 86.3231 40.5768C86.3187 40.4758 86.202 40.496 86.1481 40.4421C86.0517 40.496 85.9283 40.4848 85.8273 40.4848C85.7577 40.4376 85.7398 40.3883 85.7555 40.303C86.3927 39.4527 87.5168 39.6568 88.4075 39.3405C88.3492 39.1049 88.0104 39.1004 88.1876 38.8065C88.7822 38.2927 89.8951 38.5507 90.1531 37.6263C90.1666 37.4401 90.4268 37.1933 90.1733 37.0654C89.7537 37.2853 89.4082 37.7004 89.0088 37.9539C88.6274 38.3712 88.163 38.6001 87.6738 38.7549C87.721 38.4812 87.8825 38.3443 88.0799 38.1312C88.8585 37.3975 89.3027 36.4686 89.6191 35.5442C89.5585 35.358 89.3386 35.4477 89.2242 35.4679C88.5152 36.1679 87.6806 36.6346 86.92 37.2C86.7315 37.2045 86.5655 37.3279 86.377 37.2539C86.2155 36.8635 86.7494 36.7289 86.8975 36.4417C87.4068 36.0468 87.7815 35.4904 88.2751 35.0304ZM80.9069 39.0331C80.6803 38.7818 80.7162 38.36 80.6893 38.001C80.5838 37.9202 80.5502 37.9068 80.3999 37.927C80.1171 38.1715 79.9062 38.5216 79.9691 38.9052C79.886 38.9748 79.8187 38.9793 79.7492 38.8828C79.5944 38.2747 79.7267 37.5904 80.0162 37.0385C80.18 36.8478 80.4268 36.6167 80.6848 36.6974C80.9944 36.8747 81.1582 37.2068 81.4028 37.4738C81.2681 38.0033 81.3377 38.6494 80.9069 39.0331ZM83.1887 38.1581C82.9487 37.9494 82.7557 38.2747 82.5538 38.3667C82.2576 38.6651 82.1634 38.9703 81.9009 39.2866C81.7685 39.3405 81.6945 39.1902 81.6428 39.1049C81.6406 38.4789 81.847 37.9292 82.1006 37.4177C82.3586 37.0654 82.8881 37.0699 83.1124 36.6212C83.3637 36.4619 83.9493 36.2577 83.983 36.7805C83.9965 37.2898 84.2163 37.7273 84.4497 38.1222C84.3779 38.5978 84.0997 38.9995 83.909 39.4302C83.8125 39.5312 83.6622 39.6389 83.5253 39.5895C83.624 39.06 83.3054 38.6494 83.1887 38.1581ZM83.7205 33.038C83.7362 32.4434 84.4003 32.5242 84.766 32.3649C85.5311 32.2909 86.2783 32.439 86.6889 33.1233C86.8168 33.3903 86.9379 33.6191 87.0007 33.9086C86.6373 34.1711 86.7203 34.7096 86.3209 34.9608C85.7039 34.7634 85.8856 33.9557 85.4145 33.5653C84.7705 33.1278 84.1827 33.8211 83.5948 34.0073C83.366 33.7111 83.6599 33.3634 83.7205 33.038ZM84.5282 34.3685C84.6853 34.3685 84.8378 34.3595 84.9253 34.5076C84.9186 35.3086 85.9933 36.1433 85.0644 36.8276C84.4205 36.7849 84.5686 36.0692 84.3195 35.6676C83.8282 35.2772 83.5141 36.0311 83.0048 35.9929C82.7849 36.0311 82.6233 35.8157 82.7378 35.6138C82.8455 34.7275 83.8573 34.6243 84.5282 34.3685ZM79.7088 32.9909C80.0723 32.1675 81.0707 32.0351 81.9054 32.0284C82.3047 32.3874 82.4349 32.8406 82.7557 33.2198C82.8477 33.5025 82.6503 33.8031 82.5381 34.0275C82.3047 34.0499 82.1723 33.6438 81.9143 33.5361C81.4858 33.3454 81.0056 33.1883 80.4986 33.323C80.2293 33.3813 80.0386 33.6932 79.7626 33.6012C79.6392 33.4486 79.6639 33.1771 79.7088 32.9909ZM80.6848 34.0746C81.2188 33.8547 81.3781 34.6153 81.6743 34.9092C81.7842 35.1964 82.28 35.3468 82.0557 35.7484C81.9412 35.9032 81.9031 36.2622 81.6271 36.132C81.2121 35.892 80.9899 35.2503 80.4694 35.5061C80.2361 35.699 80.1127 36.0086 79.8098 36.067C79.5293 35.8381 79.6864 35.4096 79.6258 35.073C79.9758 34.7051 80.2361 34.4269 80.6848 34.0746ZM79.5024 42.9079C79.8793 42.6836 80.4066 43.0807 80.6938 42.6409L80.7947 42.6723C80.8935 43.1794 81.2121 43.7897 80.9137 44.3125C80.9002 44.6109 81.1111 44.8577 81.0528 45.1179C80.7342 45.0641 80.7925 44.7118 80.604 44.5346C80.4963 44.3529 80.429 44.1936 80.2406 44.1128C79.812 44.1778 80.0072 45.1651 79.4598 44.6692C79.3162 44.3214 79.6953 43.7179 79.2107 43.5474C78.9033 43.8884 78.8674 44.3057 78.6431 44.6647C78.477 44.5705 78.2684 44.3775 78.2459 44.1419C78.9841 43.8705 78.127 43.0156 78.937 42.7576C79.1479 42.6364 79.3521 42.78 79.5024 42.9079ZM79.0694 38.452C78.7799 38.4408 78.9078 38.1356 78.7665 37.9876C78.661 37.8529 78.5511 37.5702 78.3334 37.6779C78.1046 37.9404 78.0485 38.3129 78.1427 38.6517L78.044 38.7369C77.6895 38.3084 77.4562 37.7901 77.4898 37.2449C77.5324 36.8702 77.86 36.5404 78.1764 36.3564C78.4838 36.3676 78.6767 36.6346 78.9527 36.7244C79.3027 37.2068 79.2399 37.9158 79.0694 38.452ZM77.3888 35.7147C77.3081 35.9391 77.1488 36.1635 76.9311 36.307C76.7113 36.3295 76.5879 36.1635 76.5004 35.9974C76.359 35.8314 76.4375 35.5913 76.4106 35.3894C76.7225 34.9339 76.8549 34.3416 77.3417 34.0746C77.9004 34.0544 78.1898 34.7432 78.7822 34.64C78.9751 34.7836 78.9303 35.0416 78.9572 35.275C78.4411 35.7372 77.703 34.9721 77.3888 35.7147ZM77.4562 32.0216C77.7905 31.979 78.0642 32.0373 78.293 32.2527C78.6049 32.5467 78.587 33.0044 78.9011 33.305C78.9078 33.5025 78.928 33.7425 78.7306 33.8502C77.9363 33.9781 77.8062 32.9415 77.0254 33.139C76.7494 33.4666 76.2491 33.738 76.1279 34.18C76.0112 34.2877 75.899 34.4269 75.7442 34.3236C75.567 34.1464 75.4077 33.9647 75.3538 33.7313C75.733 32.8563 76.4016 32.0172 77.4562 32.0216ZM75.6814 35.5554C75.7779 35.791 75.8519 36.1276 75.7779 36.3519C75.2775 36.2981 74.6919 36.399 74.4676 36.9667C74.2746 37.283 74.2006 37.6667 73.8842 37.918C73.5948 37.7587 73.4153 37.4042 73.2852 37.1058C73.5589 36.5494 73.7294 35.9884 74.0323 35.4702C74.0974 35.3849 74.1804 35.2929 74.2769 35.2772C74.7615 35.34 75.1766 35.6878 75.6814 35.5554ZM72.6547 32.8338C73.1483 32.8496 73.6374 32.8563 74.0233 33.1816C74.2836 33.4127 74.3644 33.8973 74.7907 33.9512C74.9477 34.014 74.9522 34.2025 74.9522 34.3034C74.7548 34.5278 74.481 34.3349 74.2432 34.3618C73.7339 34.3775 73.0563 33.7313 72.7714 34.5054C72.63 34.7455 72.538 35.1583 72.2172 35.1852C71.9165 34.8913 71.7191 34.5233 71.7954 34.1105C72.105 33.6618 72.206 33.1502 72.6547 32.8338ZM61.2008 32.9954C61.111 32.3874 61.2479 31.7861 61.2815 31.1937C61.378 31.1174 61.4431 30.9694 61.562 30.9626C62.2014 30.7921 62.0534 31.5392 62.3518 31.8018C62.6771 32.421 63.1707 33.0672 63.8864 33.2332C65.1608 33.2916 66.6461 33.0313 67.8129 33.4688C68.8023 33.6595 69.6055 34.4313 70.3774 35.174C70.5793 35.1852 70.6758 34.9967 70.9114 35.0551C71.1447 35.3714 71.7931 35.5038 71.6204 36.0019C72.3518 36.0827 72.5807 36.9106 73.1191 37.3167C72.6053 37.7722 74.1894 38.4542 72.98 38.369C72.0691 37.8709 71.2591 38.6091 70.3594 38.6517C70.1373 38.5933 69.8681 38.6135 69.6751 38.4318L69.7536 38.2456C70.3011 37.8552 70.9046 37.5657 71.6316 37.5119C71.7999 37.4064 71.6854 37.0519 72.013 37.1753C72.1342 37.31 72.2598 37.5545 72.4797 37.5164C72.547 37.485 72.5111 37.3997 72.5111 37.3302C72.0983 37.2225 71.9995 36.7311 71.5553 36.6458C71.2187 36.6571 70.8418 36.5987 70.6623 36.251C70.5097 35.6788 69.8725 35.4073 69.4081 35.2032C69.1837 35.0596 68.9257 34.8778 68.6385 34.99C68.5061 35.1067 68.3581 35.2682 68.4837 35.45C68.9123 36.1163 69.4575 36.7266 69.9668 37.3414V37.4064C69.3386 37.375 68.9437 36.5718 68.2997 36.6414C68.2167 36.7333 68.1539 36.8814 68.2414 37.0003C68.4927 37.402 69.0334 37.8933 68.6722 38.3488C68.2347 38.3959 68.0148 37.9113 67.7859 37.6263C67.7343 37.0183 67.1173 36.8523 66.6529 36.6638C66.1727 36.4865 65.6567 36.7378 65.1429 36.6369C64.6964 36.4776 64.1826 36.8725 63.8505 36.4551C62.3428 35.9929 61.3129 34.5121 61.2008 32.9954ZM60.8238 58.0482C61.0684 57.2427 60.9046 56.2802 61.4274 55.5847C61.8245 55.6924 61.5665 56.1792 61.7123 56.5158C61.9367 57.2383 61.9457 58.0976 62.0713 58.8245C61.8447 59.2037 61.4072 59.4909 60.9697 59.4326C60.7004 59.0691 60.8171 58.4857 60.8238 58.0482ZM64.5909 56.7716C64.7054 56.5853 65.0419 56.5046 65.1003 56.7873C65.0913 57.503 64.8018 58.1223 64.5842 58.7393C63.9694 59.6906 63.7967 60.8483 62.9104 61.674C62.4415 61.9612 62.0556 62.6141 61.4251 62.5333C61.1357 62.0307 60.7296 61.5349 60.7677 60.9403C62.17 59.7646 63.7585 58.3578 64.5909 56.7716ZM61.9681 65.1831C61.7011 65.3065 61.4206 65.5533 61.1469 65.4613C61.0796 64.9385 60.9023 64.1465 61.4543 63.8414C61.737 63.6439 62.1588 63.0718 62.3832 63.6596C62.4796 64.2161 62.4998 64.8308 61.9681 65.1831ZM62.8027 64.8578C63.404 63.8907 64.3845 63.249 64.7256 62.1923C64.8086 62.116 64.9185 61.8759 65.0464 62.0644C64.932 63.9132 64.1646 65.5488 63.0742 67.0072C62.5514 67.7184 61.7078 67.862 60.9876 68.221C60.752 68.2479 60.5434 68.0303 60.4536 67.8306C60.3437 67.6107 60.2337 67.3437 60.3123 67.088C61.2075 66.4665 62.1521 65.7283 62.8027 64.8578ZM58.0619 64.0074C58.1651 63.4083 58.3131 62.7779 58.9145 62.4368C59.2353 62.2551 59.5965 61.9769 59.9578 62.0779L60.3347 62.7824C60.4312 63.7292 59.4193 63.9625 58.8763 64.4718C58.6878 64.492 58.6811 64.7658 58.4904 64.6311C58.2144 64.51 58.1404 64.2363 58.0619 64.0074ZM58.7305 72.7622C58.4769 72.8542 58.3356 72.6388 58.1449 72.558C57.8667 72.2596 57.6647 71.8737 57.7904 71.4317C57.9272 70.8708 58.6205 70.8663 58.8269 70.3144C59.6122 69.9509 60.0273 69.0893 60.6712 68.5441C60.9966 68.6024 61.3421 68.2165 61.5687 68.5553C60.8575 70.099 59.9824 71.4833 58.7305 72.7622ZM62.5649 93.8325C61.6988 90.909 60.8822 87.9496 60.4334 84.8219C59.9106 82.2081 59.8299 79.3945 59.3587 76.7627C59.4956 75.5399 59.2847 74.3103 59.2488 73.0696C59.5247 72.6904 59.9578 72.4705 60.3055 72.1721C60.393 72.1676 60.4603 72.2035 60.5164 72.2843C60.4716 74.3193 60.9697 76.1905 60.8799 78.2098C61.0594 79.6794 61.2568 81.2837 61.4408 82.7578C61.387 84.2857 61.7168 85.7957 61.7662 87.3752C61.9367 89.0715 62.3226 90.6846 62.4639 92.4145C62.5245 92.8857 62.6928 93.3232 62.6389 93.8303H62.5649V93.8325ZM63.3794 91.6001C63.137 90.218 63.1393 88.6698 62.8656 87.355C62.5111 84.6851 62.4752 81.8199 62.2957 79.1297C62.1386 78.3669 62.0421 77.5053 62.0017 76.6617C61.7617 74.9184 61.8402 73.1032 61.4543 71.4025C61.3017 70.3548 61.6472 69.4775 62.0152 68.6226C62.2598 68.4095 62.621 67.954 62.9015 68.2704C63.0585 70.0294 62.9418 71.7817 63.0585 73.5722C63.2358 74.353 63.2425 75.0642 63.2649 75.8921C63.4355 78.7573 63.5185 81.4991 63.873 84.2722C64.3935 88.1089 64.7659 92.0107 65.1227 95.9214C65.282 97.3371 65.5445 98.7058 65.7577 100.11C65.7218 100.175 65.5916 100.265 65.5041 100.18C64.472 97.4673 63.8236 94.5864 63.3794 91.6001ZM94.9994 92.4684C94.5843 94.463 94.3398 96.5092 93.7183 98.4231C93.6577 99.0894 93.5388 99.7199 93.2022 100.272C93.1304 100.276 93.0654 100.258 93.0093 100.214C92.9195 98.7394 93.5769 97.5503 93.6869 96.1727C93.8237 95.0127 93.8372 93.8258 94.0773 92.7152C94.2007 91.1536 94.2545 89.6885 94.4116 88.1471C94.5686 87.6422 94.6382 87.1195 94.692 86.5585C94.5664 85.3559 94.9635 84.3485 94.876 83.1594C95.042 81.968 95.2799 80.7542 95.2238 79.5179C95.3427 77.3438 95.7555 75.2751 95.7555 73.0359C95.9754 72.4055 95.6613 71.5506 95.9305 70.9314C95.843 70.3391 95.8902 69.7131 95.9642 69.132C96.1975 68.58 95.6075 67.4806 96.5184 67.438C96.846 67.6309 97.2274 67.8755 97.4787 68.1537C97.5123 68.8492 97.2992 69.5313 97.353 70.2807C97.353 71.4474 97.0658 72.5782 97.169 73.7606C97.1354 75.4434 97.0658 77.1217 96.8639 78.7573C96.5969 80.7026 96.4556 82.6905 96.1011 84.5819C95.9485 87.3034 95.309 89.8321 94.9994 92.4684ZM99.8413 71.1692C99.5429 72.4144 99.8368 73.7449 99.6034 75.0059C99.6528 76.1771 99.2108 77.1553 99.2602 78.3086C99.1951 80.0878 98.6342 81.6853 98.5669 83.4668C98.2595 85.2079 97.804 86.9175 97.5011 88.6541C97.0344 90.6847 96.4197 92.6568 95.6254 94.564C95.576 94.6043 95.4908 94.6043 95.4549 94.5325C95.7039 92.6456 96.0203 90.7856 96.3209 88.9099C96.8482 86.6079 97.1646 84.2229 97.5841 81.8895C97.8197 80.1147 97.73 78.2166 98.1361 76.5226C98.4479 74.3575 98.5489 72.134 98.9101 70.0025C99.24 69.8095 99.5429 70.173 99.8816 70.1932C99.8256 70.5365 99.9153 70.8057 99.8413 71.1692ZM101.152 70.09C100.142 69.289 98.8989 68.5239 98.2034 67.3796C97.9229 67.0812 97.6739 66.7178 97.813 66.2735C97.9611 66.112 98.1249 65.9213 98.3492 66.0334C98.8944 66.1187 98.9954 66.6751 99.5877 66.6415C99.7942 66.7537 99.7022 67.0633 99.8906 67.2069C100.452 67.613 101.048 68.2592 101.551 68.7034C101.695 69.0018 101.903 69.2486 101.867 69.6278C101.668 69.8163 101.511 70.2336 101.152 70.09Z" fill="#CF3C3A"/>
<path d="M62.7467 33.5181C63.3076 33.8659 63.9538 33.9354 64.5887 34.0678C65.1766 34.2024 65.8856 33.9982 66.3635 34.4515C66.5699 34.7566 67.1084 35.0079 66.9424 35.4791L66.81 35.58C65.5446 34.9383 63.799 35.5464 62.74 34.3976C62.3182 34.2922 62.0736 33.8524 61.9637 33.4732C61.9435 33.3386 61.9906 33.1838 62.0691 33.1142C62.3361 33.1434 62.5134 33.4216 62.7467 33.5181Z" fill="#CF3C3A"/>
<path d="M96.882 33.3004C96.79 33.637 96.5477 33.9421 96.3053 34.2293C95.0938 34.9989 93.5905 35.3893 92.1074 35.2076C92.0266 35.1806 92.0221 35.064 92.067 35.0101C93.0071 34.6893 94.0325 34.5771 94.8873 34.0543C95.5088 33.7223 96.1483 33.3588 96.8416 33.2668L96.882 33.3004Z" fill="#CF3C3A"/>
<path d="M69.676 44.2923C69.5122 44.2182 67.9169 46.7132 69.5122 48.0908C71.6212 49.9127 74.0175 46.8411 73.5037 46.0984C73.2142 45.9862 72.5905 47.8664 70.8202 47.4671C68.6955 46.9847 69.8375 44.3663 69.676 44.2923Z" fill="#CF3C3A"/>
<path d="M85.93 47.5255C85.9861 48.1515 88.4676 49.3923 89.6343 47.6377C91.2138 45.2639 88.9477 43.8751 88.2073 44.3889C88.0929 44.6716 89.5737 45.302 88.8333 46.895C88.0301 48.6384 85.9008 47.1845 85.93 47.5255Z" fill="#CF3C3A"/>
</g>
<defs>
<clipPath id="clip0">
<rect width="159" height="159" fill="white"/>
</clipPath>
</defs>
</svg>
