<svg width="239" height="160" viewBox="0 0 239 160" fill="none" xmlns="http://www.w3.org/2000/svg">
<path d="M91.5285 90.6914C92.0808 90.7827 92.7252 90.8739 93.2775 90.8739C95.1185 90.8739 96.7755 90.3265 97.7881 89.4141C98.4324 88.7754 101.93 85.3996 102.851 80.2902V80.0165C102.943 79.6515 102.943 79.3778 102.943 79.1041C102.943 78.9216 102.851 78.7391 102.759 78.7391C99.6291 77.2793 96.9596 76.6406 94.4742 76.6406C94.2901 76.6406 94.198 76.6406 94.0139 76.6406C93.5536 76.6406 93.0934 76.7319 92.5411 76.8231C92.5411 76.8231 92.5411 76.8231 92.449 76.8231C92.1728 76.8231 91.9887 76.9143 91.8046 76.9143C91.5285 77.0056 91.2523 77.0968 90.9762 77.1881C88.4907 78.0092 86.9258 79.3778 86.0974 81.385C85.1768 83.666 85.6371 86.4032 86.4656 88.0455C86.9258 88.8666 88.5828 90.2352 91.5285 90.6914ZM91.8046 88.8666C89.5954 88.5017 88.3066 87.4981 88.0305 87.0419C87.3861 85.7645 87.0179 83.7573 87.7543 82.0237C88.3066 80.5639 89.5954 79.5603 91.4364 78.9216C92.2649 78.6479 93.0934 78.4654 94.0139 78.4654C94.106 78.4654 94.2901 78.4654 94.3821 78.4654C96.3152 78.4654 98.4324 79.0128 100.826 80.0165C99.9973 84.6696 96.7755 87.7718 96.4073 88.1367C95.7629 88.7754 94.5662 89.1404 93.1854 89.1404C92.8172 88.9579 92.2649 88.9579 91.8046 88.8666Z" fill="#E85197"/>
<path d="M158.724 84.2135C158.632 84.2135 158.632 84.1223 158.54 84.1223C161.485 80.9289 162.866 74.451 162.222 71.9875C162.038 71.1664 161.577 70.7102 161.025 70.5277C160.841 70.4365 160.565 70.4365 160.381 70.4365H160.289C162.682 66.1482 162.406 60.6739 161.393 58.028C160.933 56.9331 160.381 56.2032 159.644 56.0207C159.46 55.9295 159.276 55.9295 159.092 55.9295C158.816 55.9295 158.448 56.0207 158.171 56.1119C159.184 52.0062 159.736 48.3566 160.012 45.8019L160.105 45.2545C160.473 42.3349 160.289 38.8678 159.552 35.9481C159.092 34.0321 157.895 30.6563 155.594 30.2913C155.502 30.2913 155.41 30.2913 155.318 30.2913C152.832 30.2913 149.15 35.7657 147.954 41.1488C147.493 43.2473 147.125 45.6195 146.757 48.4479C146.205 52.6449 145.468 57.3893 144.179 62.4074C142.799 67.4256 139.024 70.9839 136.631 72.8087C134.698 69.0679 130.464 66.2395 125.309 65.3271C125.124 65.3271 124.848 65.2358 124.664 65.2358C123.928 65.2358 123.283 65.4183 122.731 65.8745C121.995 66.4219 121.442 67.1519 121.258 68.0642C121.074 68.9766 121.258 69.889 121.811 70.6189C122.363 71.3489 123.099 71.8963 124.02 72.0788C127.15 72.6262 129.635 74.1773 130.556 76.0933C131.292 77.5531 131.108 79.3779 130.003 81.4764C129.083 83.2099 127.978 84.3048 126.689 84.6697C126.321 84.761 125.861 84.8522 125.401 84.8522C122.363 84.8522 118.865 82.6625 116.748 81.3851L116.287 81.1114C115.735 80.7465 114.999 80.2903 114.17 79.6516V64.7796C114.262 64.7796 114.354 64.8709 114.354 64.8709C114.63 64.9621 114.999 64.9621 115.275 64.9621C115.827 64.9621 116.472 64.7796 117.024 64.5059C121.074 62.225 125.861 58.7579 126.966 52.8273C127.61 49.5427 126.781 46.2581 124.664 43.4297C122.639 40.7838 120.062 39.0503 118.036 38.0466C119.325 35.4007 120.706 33.3935 121.534 32.4811C121.719 32.2986 121.903 32.0249 122.087 31.8424C122.915 31.3862 123.836 30.3826 124.02 28.3753C124.112 27.1892 123.836 26.2768 123.191 25.5469C122.271 24.452 120.89 24.1783 119.877 24.0871C120.614 22.0798 121.258 19.0689 120.982 15.2369C120.522 10.0363 117.944 5.20062 114.354 2.91965C113.618 1.27735 112.697 0.273717 111.869 0.0912389C111.685 0 111.501 0 111.409 0C110.948 0 110.488 0.182478 110.12 0.456195C109.752 0.182478 109.383 0 108.831 0C108.647 0 108.555 0 108.371 0.0912389C107.542 0.273717 106.622 1.27735 106.07 2.64593C102.48 4.83566 99.7179 9.85381 99.2577 15.0544C98.8895 18.8865 99.6259 21.8973 100.362 23.9046C99.3497 23.9958 97.9689 24.3608 97.0484 25.3644C96.404 26.0943 96.1279 27.098 96.2199 28.1928C96.404 30.1089 97.3246 31.1125 98.153 31.6599C98.3371 31.9336 98.5212 32.1161 98.7054 32.3898C99.5338 33.3022 100.915 35.3095 102.203 37.9554C98.7053 39.7802 95.8517 42.9735 93.9186 47.0793C90.4206 54.5609 93.6425 60.7651 97.4166 67.7905C98.061 68.9766 98.7974 70.3452 99.4418 71.7138C99.5338 71.8963 99.6259 72.0788 99.7179 72.17C97.7848 71.6226 96.0358 71.4401 94.2868 71.4401C94.1027 71.4401 93.9186 71.4401 93.6424 71.4401C92.0776 71.5313 90.6047 71.805 89.1319 72.2612C87.567 72.8087 86.1862 73.4473 85.0815 74.3597C81.3994 71.8963 76.9809 67.5168 75.6001 62.3162C74.2193 57.2981 73.5749 52.5536 73.0226 48.3566C72.6544 45.6195 72.2862 43.156 71.8259 41.0575C70.6293 35.6744 66.8551 30.2001 64.4617 30.2001C64.3697 30.2001 64.2776 30.2001 64.1856 30.2001C61.8842 30.565 60.7796 33.8496 60.2273 35.8569C59.4909 38.7766 59.3068 42.2436 59.675 45.1633L59.767 45.7107C60.1352 48.1742 60.5955 51.915 61.6081 56.0207C61.2399 55.9295 60.9637 55.8382 60.6876 55.8382C60.5035 55.8382 60.3193 55.8382 60.1352 55.9295C59.3988 56.1119 58.8465 56.8419 58.3862 57.9367C57.4657 60.5827 57.1896 66.057 59.5829 70.4365H59.4909C59.2147 70.4365 59.0306 70.4365 58.8465 70.5277C58.2942 70.7102 57.8339 71.2576 57.6498 71.9875C57.0054 74.451 58.3862 80.9289 61.3319 84.1223C61.2399 84.1223 61.2399 84.2135 61.1478 84.2135C60.8717 84.4873 60.3193 85.0347 60.4114 86.1296C60.5035 88.0456 62.3445 91.1477 64.1856 93.3374C64.0935 93.3374 64.0935 93.4287 64.0015 93.4287L63.9094 93.5199C63.3571 94.1586 63.173 94.8885 63.3571 95.8921C63.7253 97.9906 65.9346 100.819 68.0518 102.826C67.6836 103.009 67.4074 103.374 67.2233 103.83C66.763 104.742 66.8551 105.746 67.3154 106.932C68.0518 108.757 69.6167 110.399 71.1816 111.676C70.8134 111.768 70.4452 111.95 70.169 112.133C69.8008 112.406 69.6167 112.771 69.5246 113.228C69.1564 115.873 72.6544 119.249 76.9809 120.709C74.7716 121.804 72.2862 123.446 72.1942 124.815C72.1942 125.271 72.2862 125.91 72.9306 126.64C74.1273 127.917 77.3491 129.286 82.5961 129.286C83.1484 129.286 83.7928 129.286 84.3451 129.194C86.4623 129.103 88.3954 128.647 90.5127 128.191C92.9981 127.643 95.5756 127.096 98.7054 127.096C98.9815 127.096 99.2577 127.096 99.5338 127.096C102.572 127.187 105.517 127.917 107.082 128.373C107.727 129.468 109.291 129.559 110.12 129.559C110.856 129.559 112.605 129.468 113.25 128.282C115.091 127.735 117.668 127.187 120.43 127.096C120.706 127.096 120.982 127.096 121.258 127.096C124.388 127.096 126.966 127.643 129.451 128.191C131.476 128.647 133.409 129.103 135.619 129.194C136.263 129.194 136.815 129.286 137.368 129.286C142.615 129.286 145.836 127.917 147.033 126.64C147.769 125.91 147.862 125.271 147.769 124.815C147.677 123.538 145.1 121.804 142.983 120.709C147.309 119.249 150.807 115.873 150.439 113.228C150.347 112.771 150.163 112.406 149.795 112.133C149.518 111.95 149.242 111.768 148.782 111.676C150.255 110.49 151.912 108.757 152.648 106.932C153.109 105.746 153.201 104.651 152.74 103.83C152.556 103.374 152.28 103.1 151.912 102.826C154.029 100.819 156.146 97.9906 156.607 95.8921C156.791 94.8885 156.607 94.1586 156.054 93.5199L155.962 93.4287L155.87 93.3374C157.711 91.1477 159.552 88.1368 159.644 86.1296C159.552 85.0347 159.092 84.4873 158.724 84.2135ZM91.5252 73.6298C91.6173 73.6298 91.7093 73.6298 91.8014 73.5386C91.8934 73.5386 91.9855 73.5386 92.1696 73.4473C92.7219 73.3561 93.3663 73.2649 93.9186 73.2649H94.0107C94.1948 73.2649 94.3789 73.2649 94.4709 73.2649C96.8643 73.2649 99.4418 73.8123 102.111 74.9072C102.203 74.9072 102.203 74.9072 102.295 74.9072C102.387 74.9072 102.48 74.9072 102.572 74.8159C102.664 74.7247 102.756 74.5422 102.664 74.451C102.572 73.9948 102.387 73.5386 102.295 73.0824C102.019 72.3525 101.743 71.6226 101.375 70.8927C100.638 69.5241 99.9941 68.1555 99.2577 66.9694C95.6676 60.3089 92.6299 54.5609 95.7597 47.9004C97.5087 44.2509 99.9941 41.4225 103.124 39.7802C103.584 40.7838 103.952 41.6962 104.229 42.6998C101.099 44.5246 99.3497 47.6267 98.6133 49.269C96.1279 54.4696 98.3371 58.6666 102.019 65.5096C102.664 66.7869 103.4 68.0642 104.136 69.5241C105.241 71.6226 105.885 73.8123 106.07 76.002C106.07 76.1845 106.07 76.367 106.162 76.5495V80.564C106.07 80.6552 105.978 80.7465 105.978 80.8377C105.885 81.1114 105.885 81.3851 105.793 81.7501C104.505 87.2244 101.099 90.7827 100.086 91.6951C98.5212 93.155 96.1279 93.9761 93.4583 93.9761C92.7219 93.9761 91.9855 93.8849 91.2491 93.7936C87.8431 93.2462 85.0815 91.6039 83.8849 89.3229C82.6882 87.1332 81.9517 83.4836 83.3325 80.0165C84.161 78.0093 85.91 75.3634 90.1444 73.9948C90.4206 73.9035 90.9729 73.7211 91.5252 73.6298ZM106.07 119.432C102.295 118.519 99.2577 116.421 98.8895 114.505C98.6133 112.771 99.1656 110.673 99.7179 108.574C100.178 106.841 100.638 105.016 100.638 103.465C100.638 102.279 100.27 100.728 99.81 98.9942C99.5338 97.7169 99.0736 96.0746 98.8895 94.5235C99.7179 94.0673 100.454 93.6112 101.007 92.9725C102.019 92.0601 104.229 89.6879 105.885 86.1296C105.885 98.2643 105.885 113.501 105.885 116.421C106.07 117.516 106.07 118.428 106.07 119.432ZM94.0107 112.954C93.7345 114.322 93.8266 115.965 94.1948 117.425C93.4583 117.151 92.4458 116.695 91.8934 116.147C91.7093 116.056 91.5252 115.965 91.3411 115.965C91.065 115.965 90.8809 116.056 90.6968 116.238C90.5127 116.421 90.5127 116.603 90.5127 116.786C90.5127 116.968 90.6047 117.242 90.7888 117.333C91.3411 117.789 91.9855 118.154 92.6299 118.428C92.1696 118.428 91.7093 118.428 91.157 118.428C90.6968 118.428 90.3286 118.428 89.8683 118.428C89.7762 117.242 89.9603 116.147 90.4206 115.417C91.2491 114.231 92.4458 113.41 94.0107 112.954ZM91.9855 111.676C91.6173 111.494 91.3411 111.312 91.157 111.129C90.0524 110.308 88.8557 105.563 90.5127 102.826C90.6047 102.735 90.6047 102.644 90.6968 102.553C91.3411 103.282 92.0776 103.739 92.7219 103.921C92.906 104.012 93.0901 104.012 93.3663 104.012C93.5504 104.742 93.7345 105.381 93.9186 105.928C92.9981 105.563 92.2617 105.29 91.8934 105.016C91.8014 104.925 91.6173 104.925 91.4332 104.925C91.157 104.925 90.8809 105.016 90.7888 105.29C90.5127 105.655 90.6047 106.202 90.9729 106.385C92.0776 107.115 94.3789 107.844 95.6676 108.209C95.8517 108.392 96.1279 108.483 96.404 108.666C95.8517 109.122 95.3915 109.669 95.0232 110.308C94.9312 110.49 94.8391 110.673 94.7471 110.855C93.6424 111.038 92.7219 111.312 91.9855 111.676ZM96.4961 100.272C96.312 100.089 96.1279 99.9979 95.9438 99.9979C95.7597 99.9979 95.4835 100.089 95.3915 100.272C95.2073 100.454 95.1153 100.637 95.1153 100.819C95.1153 101.002 95.2073 101.275 95.3915 101.366C95.9438 101.914 97.6928 103.009 98.8895 103.374V103.465C98.8895 104.651 98.6133 106.02 98.153 107.479C97.4166 107.115 96.7722 106.75 96.312 106.385C95.2073 105.563 94.0107 100.819 95.6676 98.0819C96.1279 97.352 96.6802 96.8045 97.3246 96.4396C97.5087 97.5344 97.7848 98.6293 98.061 99.5417C98.2451 100.272 98.4292 101.002 98.5212 101.64C97.7848 101.184 96.7722 100.545 96.4961 100.272ZM94.1027 96.987C93.3663 98.2643 92.9981 99.9979 93.0901 101.914C92.2617 101.64 91.3411 100.363 90.6968 98.8118C90.2365 97.7169 89.9603 96.5308 89.9603 95.4359C90.2365 95.5272 90.5127 95.5272 90.7888 95.6184C91.4332 95.7096 91.9855 95.8009 92.6299 95.8009C93.1822 96.1658 93.8266 96.4396 94.3789 96.622C94.1948 96.8045 94.1027 96.8958 94.1027 96.987ZM67.8677 78.3743C70.261 81.0202 73.2067 84.396 80.7551 88.593C80.9392 88.6842 81.1233 88.7755 81.3074 88.8667C81.4915 89.3229 81.6756 89.7791 81.9517 90.2353C82.1359 90.509 82.2279 90.7827 82.412 91.0565C78.1776 89.1404 73.3908 86.312 69.2485 83.3924C64.0015 79.7428 61.7001 74.5422 61.7001 74.5422C61.6081 74.2685 61.3319 74.086 61.0558 74.086C60.9637 74.086 60.8717 74.086 60.7796 74.1773C60.5955 74.2685 60.4114 74.451 60.4114 74.6335C60.3193 74.8159 60.3193 74.9984 60.4114 75.1809C60.5035 75.3634 62.8968 80.7465 68.512 84.6697C73.1147 87.9543 80.1107 92.1513 86.1862 94.2498C86.7385 94.5235 87.3829 94.7973 88.0272 95.071C88.0272 95.2534 88.0272 95.5272 88.0272 95.7096C85.1736 94.7973 82.6882 93.7936 80.571 92.79C78.1776 91.6039 75.9683 90.3265 73.8511 89.1404C72.4703 88.3193 71.0895 87.4981 69.7087 86.7682C69.1564 86.4945 68.512 86.1296 67.9597 85.7646C66.4869 84.8522 64.922 83.8486 63.3571 83.7573C63.173 83.4836 62.8968 83.3012 62.7127 83.0274C60.4114 80.4727 59.0306 74.5422 59.4909 72.6262C59.4909 72.535 59.4909 72.535 59.5829 72.4437C60.3193 72.4437 62.8048 73.6298 65.2902 75.7283C66.1187 76.4582 66.9471 77.3706 67.8677 78.3743ZM62.2525 85.7646C62.5286 85.5821 62.8048 85.4909 63.173 85.4909C64.1856 85.4909 65.5664 86.312 66.9471 87.2244C67.5915 87.5894 68.1438 87.9543 68.7882 88.3193C70.169 89.0492 71.5498 89.8704 72.9306 90.6915C75.0478 91.9688 77.2571 93.2462 79.7425 94.4323C82.1359 95.6184 85.0815 96.7133 88.3034 97.7169C88.4875 98.3556 88.6716 98.9942 88.8557 99.5417C83.9769 98.0819 78.6378 95.8009 74.3114 93.4287C68.512 90.3266 64.2776 86.677 64.1856 86.5858C64.0935 86.4945 63.9094 86.4033 63.7253 86.4033C63.5412 86.4033 63.265 86.4945 63.173 86.677C62.9889 86.8595 62.8968 87.0419 62.9889 87.2244C62.9889 87.4069 63.0809 87.5894 63.265 87.7719C63.265 87.7719 67.6836 91.6039 73.5749 94.8885C80.2027 98.5381 86.6464 100.545 89.2239 101.275C89.1319 101.458 88.9478 101.64 88.8557 101.823C88.6716 102.096 88.5795 102.37 88.3954 102.735C86.9226 102.37 85.6339 101.914 84.3451 101.458C81.4915 100.363 79.0981 99.268 76.3365 97.8994C75.3239 97.352 74.2193 96.8958 73.0226 96.3483C72.1942 95.9834 71.2736 95.4359 70.4452 94.8885C68.9723 93.9761 67.4995 93.155 66.2107 92.9725C64.3697 90.9652 62.3445 87.7719 62.2525 86.1296C62.2525 85.8558 62.2525 85.7646 62.2525 85.7646ZM101.743 120.709C100.27 120.07 98.7054 119.432 96.7722 119.067C95.7597 117.425 95.2073 113.592 96.5881 111.312C96.8643 110.947 97.1405 110.582 97.4166 110.308C97.0484 112.041 96.8643 113.501 97.0484 114.87C97.0484 114.961 97.0484 115.052 97.1405 115.144C97.0484 115.144 97.0484 115.144 96.9564 115.144C96.6802 115.144 96.4961 115.235 96.312 115.417C96.0358 115.782 96.0358 116.238 96.404 116.603C96.8643 117.06 97.8769 117.607 99.3497 118.428H99.4418C100.086 118.976 100.915 119.432 101.835 119.888C103.124 120.527 104.597 121.074 106.162 121.439C106.162 121.713 106.162 121.986 106.162 122.169C104.505 121.804 103.124 121.257 101.743 120.709ZM105.793 68.6117C105.057 67.1519 104.321 65.8745 103.676 64.5059C100.27 58.2104 98.2451 54.3784 100.27 49.9989C100.915 48.6304 102.295 46.1669 104.781 44.5246C105.609 47.5355 106.07 50.5464 106.07 53.466C106.07 56.2944 106.07 61.5863 106.07 67.8818V69.2504C105.978 68.9766 105.885 68.7942 105.793 68.6117ZM83.0564 76.4582C80.4789 75.1809 77.9014 72.8999 75.7842 70.1627C72.6544 66.057 70.3531 60.7651 69.0644 54.5609C66.5789 42.8823 65.8425 34.9445 65.8425 34.5796C65.8425 34.2146 65.4743 33.8496 65.1061 33.8496C65.1061 33.8496 65.1061 33.8496 65.014 33.8496C64.8299 33.8496 64.6458 33.9409 64.4617 34.1234C64.3697 34.3058 64.2776 34.4883 64.2776 34.6708C64.2776 34.762 65.014 42.9735 67.4995 54.7434C68.8803 61.2213 71.1816 66.6957 74.4955 70.9839C76.7047 73.9035 79.2822 76.0933 82.1359 77.6443C81.8597 78.1005 81.5835 78.648 81.3994 79.1042C78.6378 77.4619 75.1398 74.8159 73.2067 71.8963C71.5498 69.4328 70.3531 67.2431 69.4326 65.4183C68.512 63.6848 67.7756 62.3162 67.0392 61.3126L66.671 60.9476C65.8425 59.944 65.014 58.8491 64.1856 58.028C62.7127 53.1011 62.0683 48.3566 61.7001 45.5282L61.6081 44.9808C61.2399 42.1524 61.424 38.959 62.0683 36.3131C62.8048 33.5759 63.7253 32.2986 64.4617 32.2073C65.2902 32.2073 68.6961 36.1306 69.9849 41.605C70.4452 43.6122 70.8134 45.9844 71.1816 48.7216C71.7339 52.9186 72.4703 57.7542 73.8511 62.8636C75.6001 69.4328 81.1233 73.8123 83.7928 75.6371C83.5166 75.9108 83.2405 76.1845 83.0564 76.4582ZM65.5664 62.5899C66.3028 63.4111 66.9471 64.7796 67.7756 66.3307C68.6961 68.1555 69.9849 70.4365 71.6418 72.9911C73.5749 75.8196 76.9809 78.7392 80.8471 80.9289C80.7551 81.3851 80.663 81.8413 80.571 82.3888C75.6922 79.4691 71.4577 75.5458 68.9723 72.8999C64.6458 68.1555 62.3445 60.4914 62.3445 60.4002C62.2525 60.1265 61.9763 59.8527 61.6081 59.8527C61.516 59.8527 61.424 59.8527 61.424 59.8527C61.0558 59.944 60.7796 60.4002 60.9637 60.7651C60.9637 60.8564 63.4491 68.7942 67.9597 73.8123C70.6293 76.7319 75.2319 80.9289 80.571 84.0311C80.571 84.761 80.663 85.4909 80.7551 86.2208C74.2193 82.48 71.5498 79.4691 69.3405 77.0057C68.42 76.002 67.4995 74.9984 66.4869 74.086C65.2902 72.9911 63.7253 71.9875 62.5286 71.2576C62.1604 70.8014 61.8842 70.3452 61.6081 69.889C59.1227 66.1482 59.3068 61.0389 60.2273 58.6666C60.4114 58.1192 60.6876 57.8455 60.6876 57.8455C61.6081 57.8455 64.1856 61.1301 65.1061 62.1337L65.5664 62.5899ZM65.2902 94.7973C65.3822 94.706 65.4743 94.706 65.6584 94.706C66.5789 94.706 68.0518 95.6184 69.4326 96.4396C70.3531 96.987 71.2736 97.5344 72.1942 97.8994C73.3908 98.4468 74.4955 98.9942 75.5081 99.4504C78.1776 100.728 80.7551 101.914 83.6087 103.1C84.8974 103.647 86.2782 104.012 87.8431 104.469C87.7511 104.834 87.7511 105.107 87.7511 105.472C83.2405 104.469 78.822 102.553 74.6796 100.728C70.261 98.6293 67.4074 96.1658 67.4074 96.1658C67.2233 96.0746 67.1313 95.9834 66.9471 95.9834C66.763 95.9834 66.4869 96.0746 66.3948 96.2571C66.3028 96.4396 66.2107 96.622 66.2107 96.8045C66.2107 96.987 66.3028 97.1695 66.4869 97.3519C66.5789 97.4432 69.5246 99.9979 74.1273 102.188C78.3617 104.195 83.0564 106.111 87.8431 107.115C87.8431 107.479 87.9352 107.844 87.9352 108.118C86.4623 107.936 85.1736 107.662 84.069 107.388C81.7676 106.841 79.5584 105.837 77.7173 105.107C76.3365 104.469 75.0478 104.012 74.1273 103.739C73.4829 103.556 72.8385 103.374 72.1942 103.191C71.7339 103.009 71.2736 102.918 70.8134 102.735C68.42 100.91 65.5664 97.4432 65.2902 95.5272C65.1981 95.2534 65.1981 94.9797 65.2902 94.7973ZM68.8803 104.56C68.8803 104.469 68.9723 104.377 69.2485 104.377C69.7087 104.377 70.4452 104.56 71.5498 104.925C72.1942 105.107 72.9306 105.381 73.5749 105.472C74.3114 105.655 75.5081 106.111 76.7968 106.75C78.7299 107.571 81.0312 108.574 83.4246 109.122C84.7133 109.395 86.3703 109.76 88.2113 110.034C88.2113 110.125 88.3034 110.308 88.3034 110.399C83.9769 110.308 81.6756 109.76 77.7173 108.757L77.165 108.666C72.7465 107.571 70.5372 105.107 70.5372 105.107C70.3531 104.925 70.169 104.834 69.9849 104.834C69.8008 104.834 69.6167 104.925 69.5246 105.016C69.2485 105.29 69.1564 105.746 69.4326 106.111C69.5246 106.202 71.918 108.939 76.7968 110.125L77.3491 110.217C81.6756 111.312 84.069 111.859 89.1319 111.95C89.316 112.224 89.5001 112.406 89.6842 112.589C89.7762 112.68 89.8683 112.771 89.9603 112.863C89.8683 112.954 89.7762 113.045 89.6842 113.136C88.2113 113.319 86.9226 113.41 85.91 113.41C85.818 113.41 85.7259 113.41 85.5418 113.41C83.7008 113.41 82.32 113.045 81.0312 112.771C80.0186 112.498 79.0061 112.224 77.8094 112.133C77.165 112.041 76.4286 111.95 75.6922 111.859L75.6001 112.224V111.859C75.1398 111.768 74.7716 111.768 74.4034 111.676C72.4703 110.855 69.5246 108.301 68.6961 106.202C68.7882 105.563 68.6961 105.016 68.8803 104.56ZM72.2862 113.41C73.2988 113.41 74.5875 113.592 75.6922 113.775C76.5206 113.866 77.2571 113.957 77.9014 114.049C79.0061 114.14 79.9266 114.322 80.8471 114.596C82.1359 114.961 83.6087 115.326 85.818 115.326C85.91 115.326 86.0021 115.326 86.0941 115.326C86.7385 115.326 87.567 115.235 88.3954 115.235C88.3034 115.508 88.1193 115.782 88.1193 116.147C86.9226 116.33 84.3451 116.512 81.8597 116.512C81.4915 116.512 81.0312 116.512 80.663 116.512C77.2571 116.33 73.5749 114.14 73.4829 114.14C73.3908 114.049 73.2067 114.049 73.1147 114.049C72.8385 114.049 72.6544 114.14 72.4703 114.414C72.3783 114.596 72.3783 114.779 72.3783 114.961C72.4703 115.144 72.5624 115.326 72.7465 115.417C72.9306 115.508 76.7968 117.881 80.663 118.063C81.0312 118.063 81.4915 118.063 81.8597 118.063C84.161 118.063 86.4623 117.881 87.9352 117.698C87.9352 118.063 87.9352 118.337 87.9352 118.702C86.9226 118.793 85.818 118.884 84.7133 119.067C83.6087 119.158 82.412 119.341 81.0312 119.432C80.7551 119.432 80.4789 119.523 80.1107 119.614C79.9266 119.614 79.6504 119.523 79.4663 119.523C74.5875 118.793 71.1816 115.235 71.2736 113.684C71.4577 113.501 71.7339 113.41 72.2862 113.41ZM74.0352 124.906C74.4034 124.176 78.4537 121.439 81.3074 121.165C82.6882 121.074 83.8849 120.892 84.9895 120.8C87.1988 120.527 89.1319 120.344 91.157 120.344C92.0776 120.344 92.906 120.344 93.8266 120.435C96.9563 120.709 98.9815 121.622 101.007 122.351C102.48 122.99 104.136 123.629 106.254 124.085C105.333 123.811 103.4 123.355 100.823 122.899C98.061 122.443 94.1027 122.078 90.2365 122.078C88.6716 122.078 87.1988 122.169 85.7259 122.26C80.3869 122.625 76.2445 123.72 76.0604 123.72C75.8763 123.811 75.6922 123.902 75.6001 124.085C75.5081 124.267 75.5081 124.45 75.5081 124.724C75.6001 125.089 75.9683 125.362 76.2445 125.362C76.3365 125.362 76.4286 125.362 76.4286 125.362C76.4286 125.362 80.4789 124.267 85.7259 123.902C87.1067 123.811 88.5795 123.811 90.1444 123.811C93.9186 123.811 97.7848 124.085 100.454 124.541C103.768 125.089 106.07 125.727 106.346 125.818C106.346 125.91 106.346 126.001 106.346 126.183C104.505 125.727 102.019 125.18 99.3497 125.089C99.0736 125.089 98.7054 125.089 98.4292 125.089C95.1153 125.089 92.4458 125.727 89.8683 126.275C87.9352 126.731 86.0021 127.096 84.069 127.278C83.5166 127.278 82.9643 127.278 82.5041 127.278C78.0855 127.278 75.1398 126.275 74.1273 125.18C74.1273 125.089 74.0352 124.997 74.0352 124.906ZM112.237 53.466C112.237 54.9258 112.237 57.1156 112.237 59.7615C112.145 60.0352 111.961 60.3089 111.961 60.5827C111.685 61.495 111.869 62.4074 112.237 63.1373V68.6117C112.237 86.1296 112.237 112.589 112.237 116.603C112.237 122.078 111.777 126.64 111.593 127.461C111.501 127.552 111.04 127.735 110.12 127.735C109.291 127.735 108.739 127.552 108.647 127.461C108.463 126.731 107.911 122.078 108.003 116.603C108.003 112.68 108.003 86.312 108.003 68.8854V67.973C108.003 61.6775 108.003 56.3857 108.003 53.5573C108.003 42.7911 102.848 34.6708 101.191 32.3898C101.835 32.2986 102.756 31.9336 103.492 31.4774C103.768 31.4774 104.044 31.3862 104.229 31.3862C104.413 31.3862 104.689 31.295 105.057 31.295C105.701 31.2037 106.714 31.2037 107.542 30.7475C108.371 31.0212 109.291 31.1125 110.212 31.1125C111.132 31.1125 112.053 31.0212 112.789 30.7475C113.618 31.1125 114.63 31.2037 115.183 31.2037C115.459 31.2037 115.735 31.2037 116.011 31.295C116.195 31.295 116.472 31.3862 116.84 31.3862C117.576 31.8424 118.497 32.1161 119.141 32.2986C117.392 34.5796 112.237 42.6998 112.237 53.466ZM112.605 26.733C112.697 25.8206 112.881 25.0907 113.25 24.817C113.434 24.6345 113.802 24.5433 114.262 24.5433C114.723 24.5433 115.183 24.6345 115.643 24.7258C115.827 24.7258 116.103 24.817 116.287 24.817C118.036 24.9995 118.865 25.5469 118.773 27.5542C118.773 28.2841 118.497 28.8315 118.128 29.1965C117.852 29.3789 117.484 29.4702 117.024 29.4702C116.748 29.4702 116.564 29.4702 116.379 29.3789C116.103 29.2877 115.735 29.2877 115.367 29.2877C113.71 29.1965 112.421 29.1052 112.605 26.733ZM120.43 25.9119C120.89 26.0031 121.258 26.2768 121.626 26.5505C121.903 26.9155 122.087 27.3717 121.995 28.0104C121.811 30.2001 120.246 30.3826 119.601 30.3826C119.509 30.3826 119.509 30.3826 119.509 30.3826C120.154 29.7439 120.522 28.8315 120.614 27.6454C120.614 27.0067 120.614 26.4593 120.43 25.9119ZM117.944 23.1747C117.484 23.0835 117.024 22.901 116.472 22.901C116.287 22.901 116.103 22.8097 115.919 22.8097C115.735 22.8097 115.551 22.7185 115.367 22.7185C115.827 21.6236 116.287 20.0726 116.656 18.0653C117.208 15.1457 116.748 11.1312 115.367 6.20425C117.392 8.48522 118.681 11.7698 119.049 15.1457C119.233 18.6127 118.589 21.4412 117.944 23.1747ZM114.723 17.7916C114.17 21.0762 113.434 22.3535 113.158 22.8097C112.513 22.536 111.777 22.4448 111.04 22.3535V2.00726C111.132 1.91602 111.225 1.82478 111.317 1.82478C111.501 1.91602 112.145 2.55469 112.513 3.64956L112.605 3.92327C115.091 11.4049 115.091 15.6019 114.723 17.7916ZM110.672 26.6418C110.58 27.6454 110.764 28.4665 111.04 29.1052C110.764 29.1052 110.396 29.1965 110.12 29.1965C109.752 29.1965 109.383 29.1965 109.015 29.1052C109.291 28.4665 109.476 27.6454 109.383 26.6418C109.291 25.6381 109.107 24.9082 108.831 24.2696C109.291 24.1783 109.66 24.1783 110.12 24.1783C110.488 24.1783 110.856 24.1783 111.225 24.2696C110.948 24.9082 110.764 25.6381 110.672 26.6418ZM104.781 29.2877C104.413 29.2877 104.044 29.3789 103.768 29.3789C103.584 29.3789 103.4 29.4702 103.124 29.4702C102.664 29.4702 102.295 29.3789 102.019 29.1965C101.651 28.9227 101.375 28.3753 101.375 27.5542C101.283 25.5469 102.111 24.9995 103.86 24.817C104.044 24.817 104.229 24.7258 104.505 24.7258C104.965 24.6345 105.425 24.5433 105.885 24.5433C106.346 24.5433 106.714 24.6345 106.898 24.817C107.266 25.0907 107.45 25.7294 107.542 26.733C107.727 29.1052 106.438 29.1965 104.781 29.2877ZM109.107 22.3535C108.371 22.4448 107.727 22.6273 106.99 22.8097C106.714 22.3535 106.07 21.1674 105.425 17.7916C105.057 15.6019 105.057 11.4049 107.542 4.01451L107.634 3.7408C108.003 2.64593 108.647 2.00726 108.739 1.91602C108.739 1.91602 108.831 1.91602 109.015 2.0985V22.3535H109.107ZM103.584 18.0653C103.952 20.0726 104.321 21.6236 104.873 22.7185C104.689 22.8097 104.413 22.8097 104.229 22.8097C104.044 22.8097 103.86 22.901 103.676 22.901C103.124 22.9922 102.664 23.0835 102.203 23.1747C101.559 21.3499 100.915 18.6127 101.191 15.1457C101.467 11.5873 102.848 8.30274 104.965 6.02177C103.584 11.0399 103.124 15.1457 103.584 18.0653ZM98.5212 26.6418C98.7974 26.2768 99.2577 26.0943 99.7179 26.0031C99.6259 26.5505 99.5338 27.098 99.6259 27.7366C99.7179 28.9227 100.086 29.8351 100.731 30.4738H100.638C99.9941 30.4738 98.4292 30.2001 98.2451 28.1016C98.153 27.3717 98.2451 26.9155 98.5212 26.6418ZM114.815 62.8636C114.446 62.7724 114.078 62.4987 113.894 62.1337C113.71 61.7688 113.618 61.3126 113.71 60.9476C113.802 60.5827 114.078 60.2177 114.446 60.0352C117.76 58.1192 121.258 55.6558 121.903 51.8237C122.271 49.9077 121.811 48.0829 120.522 46.3494C119.141 44.5246 117.392 43.3385 116.011 42.6086C116.379 41.605 116.748 40.6926 117.116 39.6889C118.865 40.6013 121.258 42.0612 123.007 44.4334C124.848 46.8968 125.493 49.634 125.032 52.3712C124.112 57.5718 119.693 60.6739 116.011 62.7724C115.735 62.8636 115.459 62.9549 115.183 62.9549C115.091 62.9549 114.907 62.9549 114.815 62.8636ZM132.305 75.1809C131.108 72.7174 128.07 70.8014 124.388 70.1627C124.02 70.0715 123.652 69.889 123.375 69.5241C123.099 69.1591 123.007 68.7942 123.099 68.338C123.191 67.973 123.375 67.6081 123.744 67.3343C124.02 67.1519 124.296 67.0606 124.664 67.0606C124.756 67.0606 124.848 67.0606 124.94 67.0606C129.635 67.8818 133.409 70.4365 135.066 73.8123C136.079 75.8196 136.723 79.1954 134.422 83.7573C132.857 86.7682 130.74 88.6842 128.07 89.4142C127.242 89.6879 126.321 89.7791 125.401 89.7791C120.982 89.7791 116.656 87.1332 114.078 85.5821V81.8413C114.538 82.115 114.907 82.3888 115.275 82.5712L115.735 82.845C118.036 84.2135 121.903 86.5858 125.401 86.5858C126.045 86.5858 126.689 86.4945 127.242 86.312C129.083 85.7646 130.556 84.4873 131.66 82.2063C133.133 79.5604 133.317 77.1881 132.305 75.1809ZM158.263 44.9808L158.171 45.5282C157.803 48.3566 157.159 53.1011 155.686 58.028C154.858 58.8491 154.029 59.944 153.201 60.9476L152.832 61.4038C152.004 62.4074 151.267 63.776 150.439 65.5096C149.518 67.3343 148.322 69.5241 146.665 71.9875C144.548 75.0896 140.773 77.9181 137.828 79.5604C137.92 78.9217 137.92 78.283 137.92 77.6443C140.681 76.0933 143.167 73.9035 145.284 71.0751C148.598 66.7869 150.899 61.3126 152.28 54.8346C154.765 43.0648 155.502 34.8533 155.502 34.762C155.502 34.5796 155.502 34.3971 155.318 34.2146C155.226 34.0321 155.042 33.9409 154.765 33.9409C154.765 33.9409 154.765 33.9409 154.673 33.9409C154.305 33.9409 153.937 34.2146 153.937 34.6708C153.937 35.0358 153.201 42.9735 150.715 54.5609C149.426 60.8564 147.125 66.057 143.995 70.1627C142.154 72.6262 139.945 74.5422 137.644 76.002C137.552 75.5458 137.46 75.0897 137.275 74.6335C139.945 72.7174 144.364 68.7942 145.928 62.9549C147.309 57.8455 147.954 53.0098 148.598 48.8128C148.966 46.0757 149.334 43.7035 149.795 41.6962C150.991 36.2219 154.489 32.2986 155.318 32.2986C155.962 32.3898 156.975 33.7584 157.711 36.4043C158.448 39.0503 158.632 42.1524 158.263 44.9808ZM148.23 73.0824C149.887 70.5277 151.083 68.2467 152.096 66.422C152.924 64.7796 153.661 63.5023 154.305 62.6811L154.673 62.225C155.502 61.1301 158.171 57.9367 159.092 57.9367C159.184 58.028 159.368 58.2104 159.552 58.7579C160.473 61.1301 160.657 66.2395 158.263 70.1627C157.987 70.6189 157.711 70.9839 157.343 71.5313C156.054 72.2612 154.581 73.2649 153.385 74.3597C152.372 75.2721 151.452 76.2757 150.531 77.2794C148.23 79.8341 145.376 83.0274 138.104 87.0419C135.711 88.4105 133.225 89.5054 130.924 90.3266C132.489 89.4142 133.962 88.1368 135.066 86.4033C141.418 83.7573 148.138 78.283 151.912 74.086C156.422 69.0679 158.908 61.1301 158.908 61.0389C159 60.6739 158.816 60.2177 158.448 60.1265C158.356 60.1265 158.263 60.1265 158.263 60.1265C157.895 60.1265 157.619 60.3089 157.527 60.6739C157.527 60.7651 155.134 68.4292 150.899 73.1736C147.585 76.8232 141.97 81.5676 136.447 84.3048C136.815 83.5749 137.091 82.9362 137.275 82.2063C140.773 80.2903 145.744 76.8232 148.23 73.0824ZM114.078 87.7719C116.103 88.958 118.405 90.2353 120.89 90.9652C121.35 93.5199 120.614 96.5308 119.97 99.0855C119.509 100.819 119.141 102.279 119.141 103.556C119.141 105.198 119.601 106.932 120.062 108.666C120.614 110.764 121.166 112.863 120.89 114.596C120.614 116.512 117.668 118.519 113.986 119.523C113.986 118.519 113.986 117.607 113.986 116.603C114.078 114.322 114.078 104.925 114.078 87.7719ZM129.083 117.333C129.267 117.151 129.359 116.968 129.359 116.786C129.359 116.603 129.267 116.33 129.175 116.238C128.991 116.056 128.807 115.965 128.53 115.965C128.346 115.965 128.162 116.056 127.978 116.147C127.426 116.695 126.413 117.06 125.677 117.425C126.045 115.965 126.045 114.414 125.861 112.954C127.518 113.41 128.622 114.231 129.451 115.508C129.911 116.238 130.095 117.242 130.003 118.519C129.543 118.519 129.083 118.519 128.715 118.519C128.254 118.519 127.794 118.519 127.242 118.519C127.886 118.154 128.53 117.789 129.083 117.333ZM125.217 110.855C125.124 110.673 125.032 110.49 124.94 110.308C124.572 109.669 124.112 109.122 123.56 108.666C123.836 108.483 124.02 108.392 124.296 108.209C125.585 107.844 127.886 107.115 128.991 106.385C129.359 106.111 129.451 105.655 129.175 105.29C128.991 105.107 128.807 104.925 128.53 104.925C128.346 104.925 128.254 105.016 128.07 105.016C127.702 105.29 126.966 105.563 126.045 105.928C126.321 105.381 126.505 104.742 126.597 104.012C126.781 104.012 127.058 103.921 127.242 103.921C127.978 103.739 128.623 103.282 129.267 102.553C129.359 102.644 129.359 102.735 129.451 102.826C131.108 105.655 129.911 110.308 128.807 111.129C128.53 111.312 128.254 111.494 127.978 111.676C127.15 111.312 126.229 111.038 125.217 110.855ZM122.823 91.4214C123.744 91.6039 124.572 91.6951 125.401 91.6951C126.321 91.6951 127.15 91.6039 128.07 91.4214C128.622 91.8776 129.083 92.3338 129.451 92.9725C130.279 94.3411 130.187 96.7133 129.267 98.9942C128.623 100.545 127.702 101.823 126.874 102.096C126.966 100.18 126.597 98.4468 125.861 97.1695C125.769 97.0782 125.769 96.987 125.677 96.8958C126.966 96.3483 128.807 95.4359 129.359 94.1586C129.543 93.7936 129.359 93.2462 128.991 93.0637C128.899 93.0637 128.807 92.9725 128.623 92.9725C128.346 92.9725 127.978 93.155 127.886 93.4287C127.61 94.1586 126.045 94.9797 124.572 95.5272C124.112 95.071 123.56 94.706 122.915 94.4323C122.915 93.2462 122.915 92.3338 122.823 91.4214ZM123.56 106.385C123.099 106.75 122.455 107.115 121.719 107.479C121.35 106.02 120.982 104.651 120.982 103.465V103.374C122.087 103.009 123.928 101.914 124.48 101.366C124.664 101.184 124.756 101.002 124.756 100.819C124.756 100.637 124.664 100.363 124.48 100.272C124.296 100.089 124.112 99.9979 123.928 99.9979C123.744 99.9979 123.468 100.089 123.375 100.272C123.099 100.545 122.087 101.184 121.258 101.549C121.442 100.91 121.534 100.18 121.719 99.4504C121.903 98.5381 122.179 97.4432 122.455 96.3483C123.191 96.7133 123.744 97.2607 124.112 97.9906C125.861 100.819 124.664 105.472 123.56 106.385ZM120.43 118.428C121.903 117.607 122.915 116.968 123.468 116.603C123.836 116.33 123.836 115.782 123.56 115.417C123.375 115.235 123.191 115.144 122.915 115.144C122.823 115.144 122.823 115.144 122.731 115.144C122.731 115.052 122.823 114.961 122.823 114.87C123.099 113.319 122.823 111.768 122.455 110.308C122.731 110.582 123.007 110.947 123.283 111.312C124.664 113.592 124.112 117.425 123.099 119.067C121.074 119.523 119.601 120.162 118.128 120.709C116.84 121.257 115.551 121.804 113.986 122.169C113.986 121.895 113.986 121.622 113.986 121.439C115.459 121.074 116.84 120.618 118.036 119.979C118.957 119.432 119.785 118.976 120.43 118.428ZM156.514 83.5749C155.042 83.6661 153.477 84.6697 151.912 85.5821C151.36 85.9471 150.715 86.312 150.163 86.5858C148.69 87.4069 147.309 88.2281 146.02 88.958C143.903 90.1441 141.786 91.4214 139.301 92.6075C137.183 93.6112 134.698 94.6148 131.844 95.5272C131.844 95.2534 131.844 94.9797 131.844 94.6148C138.288 92.79 146.389 88.0456 151.452 84.4873C157.067 80.564 159.46 75.1809 159.552 74.9984C159.644 74.8159 159.644 74.6335 159.552 74.451C159.46 74.2685 159.368 74.086 159.184 73.9948C159.092 73.9948 159 73.9035 158.908 73.9035C158.632 73.9035 158.356 74.086 158.263 74.3597C158.263 74.451 155.87 79.5604 150.715 83.2099C145.468 86.9507 137.552 91.4214 131.752 93.0637C131.66 92.6988 131.476 92.3338 131.292 91.9689C133.87 91.0565 136.539 89.8704 139.209 88.4105C146.757 84.2135 149.703 80.8377 152.096 78.1918C153.016 77.1881 153.845 76.2757 154.765 75.4546C157.251 73.2649 159.644 72.17 160.473 72.17C160.473 72.17 160.473 72.2612 160.565 72.3525C161.117 74.2685 159.644 80.199 157.343 82.7537C156.975 83.1187 156.791 83.3011 156.514 83.5749ZM149.426 94.7973C148.598 95.3447 147.677 95.8009 146.849 96.2571C145.652 96.8045 144.548 97.3519 143.535 97.8081C140.773 99.1767 138.38 100.272 135.526 101.366C134.238 101.823 132.949 102.279 131.476 102.644C131.384 102.279 131.2 102.005 131.016 101.731C130.924 101.549 130.832 101.366 130.648 101.184C133.133 100.454 139.577 98.3556 146.297 94.7973C152.28 91.5127 156.607 87.7719 156.607 87.6806C156.791 87.5894 156.883 87.4069 156.883 87.1332C156.883 86.9507 156.791 86.7682 156.699 86.5858C156.514 86.4033 156.33 86.312 156.146 86.312C155.962 86.312 155.778 86.4033 155.686 86.4945C155.686 86.4945 151.452 90.2353 145.652 93.3374C141.326 95.7096 135.895 97.9906 131.108 99.4504C131.384 98.903 131.568 98.2643 131.66 97.6257C134.882 96.622 137.828 95.5272 140.221 94.3411C142.707 93.155 144.916 91.8776 147.033 90.6003C148.322 89.7791 149.703 89.0492 151.175 88.2281C151.82 87.8631 152.464 87.4981 153.016 87.1332C154.397 86.2208 155.778 85.3996 156.791 85.3996C157.159 85.3996 157.435 85.4909 157.711 85.6734C157.711 85.6734 157.711 85.7646 157.711 85.9471C157.619 87.4981 155.594 90.6915 153.753 92.79C152.372 93.0637 150.991 93.8849 149.426 94.7973ZM120.062 51.4588C119.509 54.3784 116.84 56.3857 114.078 58.028V53.466C114.078 50.5464 114.538 47.5355 115.367 44.4334C116.472 45.072 117.944 45.9844 118.957 47.4442C119.97 48.7216 120.338 50.0902 120.062 51.4588ZM113.618 126.183C113.618 126.092 113.618 126.001 113.618 125.818C114.354 125.636 116.379 125.089 119.233 124.632C121.903 124.176 125.769 123.902 129.543 123.902C131.016 123.902 132.489 123.994 133.962 123.994C139.209 124.359 143.259 125.454 143.259 125.454C143.351 125.454 143.443 125.454 143.443 125.454C143.811 125.454 144.087 125.18 144.179 124.815C144.271 124.632 144.179 124.359 144.087 124.176C143.995 123.994 143.811 123.811 143.627 123.811C143.443 123.72 139.301 122.625 133.962 122.351C132.489 122.26 131.016 122.169 129.451 122.169C125.585 122.169 121.626 122.443 118.865 122.99C116.564 123.355 114.723 123.811 113.71 124.085C115.735 123.72 117.3 122.99 118.681 122.443C120.706 121.622 122.731 120.8 125.861 120.527C126.781 120.435 127.61 120.435 128.53 120.435C130.556 120.435 132.489 120.618 134.698 120.892C135.895 120.983 136.999 121.165 138.38 121.257C141.234 121.53 145.376 124.267 145.652 124.997C145.652 125.089 145.56 125.18 145.468 125.362C144.456 126.366 141.51 127.461 137.091 127.461C136.539 127.461 135.987 127.461 135.526 127.461C133.501 127.37 131.66 126.913 129.727 126.457C127.15 125.91 124.48 125.271 121.166 125.271C120.89 125.271 120.614 125.271 120.246 125.271C117.76 125.271 115.367 125.727 113.618 126.183ZM140.313 119.341C140.037 119.341 139.853 119.432 139.669 119.432C139.301 119.341 139.024 119.341 138.748 119.249C137.368 119.158 136.263 118.976 135.066 118.884C133.962 118.793 132.949 118.611 131.844 118.519C131.844 118.154 131.844 117.789 131.844 117.516C133.317 117.698 135.619 117.881 137.92 117.881C138.38 117.881 138.748 117.881 139.117 117.881C142.983 117.698 146.849 115.326 147.033 115.235C147.217 115.144 147.309 114.961 147.401 114.779C147.493 114.596 147.401 114.414 147.309 114.231C147.125 114.049 146.941 113.866 146.665 113.866C146.481 113.866 146.389 113.866 146.297 113.957C146.297 113.957 142.615 116.238 139.117 116.33C138.748 116.33 138.38 116.33 137.92 116.33C135.434 116.33 132.857 116.056 131.66 115.965C131.568 115.6 131.476 115.326 131.384 115.052C132.213 115.144 133.041 115.144 133.685 115.144C133.777 115.144 133.87 115.144 133.962 115.144C136.171 115.144 137.644 114.779 138.932 114.414C139.853 114.14 140.773 113.957 141.878 113.866C142.615 113.775 143.351 113.684 144.179 113.592C145.284 113.41 146.573 113.228 147.585 113.228C148.138 113.228 148.414 113.319 148.598 113.319C148.598 115.144 145.284 118.611 140.313 119.341ZM145.192 111.676C144.824 111.768 144.364 111.768 143.995 111.859V112.224L143.903 111.859C143.167 111.95 142.43 112.041 141.786 112.133C140.497 112.224 139.485 112.498 138.564 112.771C137.275 113.045 135.987 113.41 134.146 113.41C134.054 113.41 133.962 113.41 133.777 113.41C132.765 113.41 131.476 113.319 130.003 113.136C129.911 113.045 129.819 112.954 129.727 112.863C129.819 112.771 129.911 112.68 130.003 112.589C130.187 112.406 130.372 112.224 130.556 111.95C135.619 111.95 138.012 111.312 142.338 110.217L142.891 110.125C147.769 108.939 150.163 106.202 150.255 106.111C150.531 105.837 150.531 105.29 150.163 105.016C150.071 104.925 149.887 104.834 149.703 104.834C149.518 104.834 149.242 104.925 149.15 105.107C149.15 105.107 146.941 107.571 142.522 108.666L141.97 108.757C138.012 109.76 135.711 110.308 131.384 110.399C131.476 110.308 131.476 110.125 131.476 110.034C133.317 109.76 134.974 109.487 136.263 109.122C138.656 108.574 141.05 107.479 142.891 106.75C144.179 106.202 145.376 105.655 146.113 105.472C146.849 105.29 147.493 105.107 148.138 104.925C149.242 104.56 149.979 104.377 150.439 104.377C150.807 104.377 150.807 104.469 150.899 104.56C151.083 104.925 151.083 105.472 150.807 106.111C149.979 108.301 147.125 110.855 145.192 111.676ZM149.058 102.735C148.598 102.826 148.046 103.009 147.677 103.191C147.033 103.374 146.389 103.556 145.744 103.739C144.824 103.921 143.627 104.469 142.154 105.107C140.313 105.928 138.012 106.841 135.803 107.388C134.698 107.662 133.409 107.936 131.936 108.118C132.028 107.753 132.028 107.388 132.028 107.115C136.815 106.111 141.418 104.104 145.744 102.188C150.347 99.9979 153.293 97.5344 153.385 97.3519C153.569 97.2607 153.661 97.0782 153.661 96.8045C153.661 96.622 153.569 96.4396 153.477 96.2571C153.293 96.0746 153.109 95.9834 152.924 95.9834C152.74 95.9834 152.556 96.0746 152.464 96.1658C152.464 96.1658 149.611 98.6293 145.192 100.728C141.05 102.644 136.723 104.56 132.121 105.472C132.121 105.107 132.028 104.834 132.028 104.469C133.501 104.012 134.882 103.647 136.263 103.1C139.117 102.005 141.694 100.819 144.456 99.4504C145.468 98.903 146.573 98.4468 147.769 97.8994C148.69 97.4432 149.611 96.8958 150.531 96.3483C151.912 95.5272 153.385 94.6148 154.305 94.6148C154.489 94.6148 154.581 94.6148 154.673 94.706C154.765 94.8885 154.765 95.071 154.765 95.4359C154.305 97.4432 151.452 100.91 149.058 102.735Z" fill="#E85197"/>
<path d="M5.21211 157.589H2.98828V149.806H0V147.946H8.13088V149.806H5.21211V157.589Z" fill="#231815"/>
<path d="M15.4966 154.145C15.4966 156.28 13.8982 157.796 11.7439 157.796C9.52009 157.796 7.99121 156.28 7.99121 154.076C7.99121 151.941 9.52009 150.426 11.7439 150.426C13.9677 150.426 15.4966 151.872 15.4966 154.145ZM10.076 154.076C10.076 155.385 10.7015 156.143 11.7439 156.143C12.7863 156.143 13.4118 155.385 13.4118 154.145C13.4118 152.767 12.8558 152.079 11.7439 152.079C10.7015 152.01 10.076 152.767 10.076 154.076Z" fill="#231815"/>
<path d="M23.9737 157.589H21.4024L19.665 154.627L18.9701 155.247V157.589H16.8853V147.946H18.9701V153.043L21.1244 150.632H23.6957L20.9854 153.319L23.9737 157.589Z" fill="#231815"/>
<path d="M31.2037 150.564L28.7714 157.589C28.3544 158.76 28.1459 159.174 27.7985 159.38C27.451 159.656 26.9645 159.725 26.2001 159.725H25.0187V158.14H25.6441C26.4086 158.14 26.6865 157.865 26.6865 157.245C26.6865 156.969 26.6865 156.969 26.4086 156.349L24.1152 150.495H26.3391L27.3815 153.732C27.59 154.352 27.59 154.421 27.729 154.972L27.7985 155.247C27.8679 154.765 28.0069 154.283 28.1459 153.663L29.0494 150.495H31.2037V150.564Z" fill="#231815"/>
<path d="M39.3335 154.145C39.3335 156.28 37.7352 157.796 35.5808 157.796C33.357 157.796 31.8281 156.28 31.8281 154.076C31.8281 151.941 33.357 150.426 35.5808 150.426C37.8047 150.426 39.3335 151.872 39.3335 154.145ZM33.913 154.076C33.913 155.385 34.5384 156.143 35.5808 156.143C36.6232 156.143 37.2487 155.385 37.2487 154.145C37.2487 152.767 36.6927 152.079 35.5808 152.079C34.4689 152.01 33.913 152.767 33.913 154.076Z" fill="#231815"/>
<path d="M53.0959 147.946V154.49C53.0959 155.73 52.7484 156.487 52.0535 157.038C51.289 157.589 50.3161 157.865 49.2042 157.865C48.0923 157.865 47.0499 157.589 46.3549 157.038C45.5905 156.487 45.3125 155.73 45.3125 154.49V147.946H47.5363V154.352C47.5363 154.972 47.6058 155.316 47.9533 155.592C48.3008 155.867 48.7177 156.005 49.2737 156.005C49.8297 156.005 50.2466 155.867 50.5941 155.592C50.8721 155.316 51.0111 155.041 51.0111 154.352V147.946H53.0959Z" fill="#231815"/>
<path d="M57.1246 150.564V151.252C57.889 150.564 58.306 150.357 59.0704 150.357C60.5993 150.357 61.5722 151.39 61.5722 153.043V157.589H59.4874V153.801C59.4874 153.112 59.4179 152.837 59.2789 152.561C59.0704 152.286 58.7924 152.148 58.445 152.148C58.0975 152.148 57.75 152.286 57.5415 152.492C57.3331 152.768 57.2636 153.043 57.2636 153.663V157.589H55.1787V150.564H57.1246Z" fill="#231815"/>
<path d="M65.3944 149.599H63.3096V147.877H65.3944V149.599ZM65.3944 157.589H63.3096V150.564H65.3944V157.589Z" fill="#231815"/>
<path d="M68.8695 157.589L66.3677 150.563H68.522L69.2864 153.25C69.4254 153.732 69.6339 154.421 69.8424 155.247C69.9814 154.49 70.1899 153.663 70.2594 153.25L70.9543 150.563H73.1781L70.7458 157.589H68.8695Z" fill="#231815"/>
<path d="M75.9589 154.696C76.0978 155.661 76.6538 156.143 77.5572 156.143C78.1132 156.143 78.5302 155.936 78.8081 155.523H80.893C80.476 156.901 79.1556 157.727 77.4877 157.727C75.3334 157.727 73.874 156.281 73.874 154.076C73.874 151.872 75.3334 150.357 77.4877 150.357C78.9471 150.357 80.1285 151.115 80.615 152.423C80.893 153.043 80.9625 153.663 80.9625 154.628H75.9589V154.696ZM78.8081 153.25C78.7386 152.423 78.2522 151.941 77.4183 151.941C76.5843 151.941 76.0978 152.423 75.9589 153.25H78.8081Z" fill="#231815"/>
<path d="M84.5058 150.564L84.4363 151.803C84.8532 150.701 85.3397 150.357 86.8686 150.357V152.286C86.5906 152.286 86.5211 152.286 86.3126 152.286C85.6177 152.286 84.9922 152.63 84.7837 153.112C84.5752 153.594 84.5058 154.214 84.5058 155.592V157.589H82.4209V150.564H84.5058Z" fill="#231815"/>
<path d="M91.8716 152.699C91.8022 152.148 91.3852 151.872 90.6902 151.872C90.0648 151.872 89.7173 152.079 89.7173 152.423C89.7173 152.699 89.9258 152.837 90.5513 152.974L91.8716 153.25C92.7056 153.457 93.192 153.594 93.47 153.939C93.8175 154.283 94.026 154.765 94.026 155.316C94.026 156.763 92.8446 157.727 90.8292 157.727C88.8834 157.727 87.6325 156.832 87.563 155.247H89.5088C89.6478 155.936 90.0648 156.212 90.8987 156.212C91.5242 156.212 92.0106 155.936 92.0106 155.523C92.0106 155.179 91.8022 155.041 91.2462 154.903L89.9258 154.628C88.3969 154.283 87.7715 153.732 87.7715 152.63C87.7715 151.252 88.8834 150.357 90.7597 150.357C92.5666 150.357 93.6785 151.183 93.887 152.63H91.8716V152.699Z" fill="#231815"/>
<path d="M97.4315 149.599H95.3467V147.877H97.4315V149.599ZM97.4315 157.589H95.3467V150.564H97.4315V157.589Z" fill="#231815"/>
<path d="M102.854 152.148H101.603V154.903C101.603 156.005 101.672 156.074 102.159 156.074H102.923V157.658H101.603C100.699 157.658 100.213 157.52 99.9348 157.176C99.5873 156.832 99.5178 156.418 99.5178 155.385V152.217H98.5449V150.77H99.5178V148.566H101.603V150.77H102.854V152.148Z" fill="#231815"/>
<path d="M110.358 150.564L107.925 157.589C107.508 158.76 107.3 159.174 106.952 159.38C106.605 159.656 106.118 159.725 105.354 159.725H104.172V158.14H104.798C105.562 158.14 105.84 157.865 105.84 157.245C105.84 156.969 105.84 156.969 105.562 156.349L103.269 150.495H105.493L106.535 153.732C106.744 154.352 106.744 154.421 106.883 154.972L106.952 155.247C107.022 154.765 107.161 154.283 107.3 153.663L108.203 150.495H110.358V150.564Z" fill="#231815"/>
<path d="M122.795 154.145C122.795 156.28 121.197 157.796 119.043 157.796C116.819 157.796 115.29 156.28 115.29 154.076C115.29 151.941 116.819 150.426 119.043 150.426C121.336 150.426 122.795 151.872 122.795 154.145ZM117.444 154.076C117.444 155.385 118.07 156.143 119.112 156.143C120.155 156.143 120.78 155.385 120.78 154.145C120.78 152.767 120.224 152.079 119.112 152.079C118 152.01 117.444 152.767 117.444 154.076Z" fill="#231815"/>
<path d="M127.94 152.148H126.619V157.589H124.534V152.148H123.562V150.701H124.534V150.219C124.534 148.704 125.299 147.946 126.828 147.946H127.94V149.599H127.314C126.828 149.599 126.55 149.806 126.55 150.219V150.701H127.87V152.148H127.94Z" fill="#231815"/>
<path d="M140.588 149.806H135.584V151.941H139.962V153.732H135.584V157.589H133.36V147.946H140.518V149.806H140.588Z" fill="#231815"/>
<path d="M148.995 154.145C148.995 156.28 147.396 157.796 145.242 157.796C143.018 157.796 141.489 156.28 141.489 154.076C141.489 151.941 143.018 150.426 145.242 150.426C147.466 150.426 148.995 151.872 148.995 154.145ZM143.574 154.076C143.574 155.385 144.2 156.143 145.242 156.143C146.284 156.143 146.91 155.385 146.91 154.145C146.91 152.767 146.354 152.079 145.242 152.079C144.2 152.01 143.574 152.767 143.574 154.076Z" fill="#231815"/>
<path d="M152.539 150.564L152.47 151.803C152.887 150.701 153.373 150.357 154.902 150.357V152.286C154.624 152.286 154.555 152.286 154.346 152.286C153.651 152.286 153.026 152.63 152.817 153.112C152.609 153.594 152.539 154.214 152.539 155.592V157.589H150.455V150.564H152.539Z" fill="#231815"/>
<path d="M157.824 154.696C157.963 155.661 158.519 156.143 159.422 156.143C159.978 156.143 160.395 155.936 160.673 155.523H162.758C162.341 156.901 161.02 157.727 159.353 157.727C157.198 157.727 155.739 156.281 155.739 154.076C155.739 151.872 157.198 150.357 159.353 150.357C160.812 150.357 161.993 151.115 162.48 152.423C162.758 153.043 162.827 153.663 162.827 154.628H157.824V154.696ZM160.673 153.25C160.603 152.423 160.117 151.941 159.283 151.941C158.449 151.941 157.963 152.423 157.824 153.25H160.673Z" fill="#231815"/>
<path d="M166.369 149.599H164.284V147.877H166.369V149.599ZM166.369 157.589H164.284V150.564H166.369V157.589Z" fill="#231815"/>
<path d="M174.988 150.632V156.9C174.988 158.071 174.849 158.553 174.363 159.036C173.737 159.655 172.765 160 171.514 160C169.568 160 168.386 159.173 168.178 157.796H170.332C170.471 158.209 170.888 158.416 171.583 158.416C172 158.416 172.348 158.347 172.556 158.14C172.834 157.865 172.973 157.658 172.973 156.9V156.487C172.348 157.038 171.861 157.245 171.097 157.245C169.22 157.245 167.9 155.867 167.9 153.87C167.9 151.872 169.22 150.426 171.027 150.426C171.931 150.426 172.626 150.77 173.112 151.528L173.043 150.701H174.988V150.632ZM169.846 153.801C169.846 154.834 170.471 155.523 171.444 155.523C172.417 155.523 173.043 154.834 173.043 153.732C173.043 152.699 172.417 152.01 171.444 152.01C170.471 152.01 169.846 152.767 169.846 153.801Z" fill="#231815"/>
<path d="M178.811 150.564V151.252C179.575 150.564 179.992 150.357 180.756 150.357C182.285 150.357 183.258 151.39 183.258 153.043V157.589H181.173V153.801C181.173 153.112 181.104 152.837 180.965 152.561C180.756 152.286 180.478 152.148 180.131 152.148C179.784 152.148 179.436 152.286 179.228 152.492C179.019 152.768 178.95 153.043 178.95 153.663V157.589H176.865V150.564H178.811Z" fill="#231815"/>
<path d="M194.862 150.977V150.839C194.862 150.013 194.237 149.53 193.125 149.53C192.082 149.53 191.457 149.875 191.457 150.495C191.457 150.908 191.735 151.183 192.36 151.321L194.306 151.803C195.418 152.079 195.974 152.354 196.46 152.768C196.947 153.25 197.225 153.87 197.225 154.627C197.225 156.625 195.696 157.865 193.125 157.865C190.484 157.865 188.955 156.625 188.955 154.49H191.179C191.248 155.592 191.874 156.074 193.194 156.074C194.306 156.074 195.001 155.661 195.001 154.972C195.001 154.49 194.654 154.145 193.959 154.008L192.221 153.594C191.179 153.319 190.553 153.043 190.067 152.699C189.581 152.286 189.303 151.597 189.303 150.77C189.303 148.91 190.762 147.808 193.194 147.808C194.793 147.808 195.905 148.291 196.53 149.186C196.877 149.668 197.016 150.219 197.086 151.046H194.862V150.977Z" fill="#231815"/>
<path d="M202.296 152.148H200.976V154.903C200.976 156.005 201.045 156.074 201.532 156.074H202.296V157.658H200.976C200.072 157.658 199.586 157.52 199.308 157.176C198.96 156.832 198.891 156.418 198.891 155.385V152.217H197.918V150.77H198.891V148.566H200.976V150.77H202.227V152.148H202.296Z" fill="#231815"/>
<path d="M209.873 157.589H207.928V156.832C207.441 157.52 206.885 157.796 206.051 157.796C205.287 157.796 204.661 157.52 204.175 157.038C203.688 156.556 203.48 155.936 203.48 154.972V150.563H205.565V154.49C205.565 155.178 205.565 155.316 205.773 155.592C205.982 155.867 206.329 156.005 206.677 156.005C207.024 156.005 207.372 155.867 207.58 155.592C207.789 155.316 207.789 155.178 207.789 154.49V150.563H209.873V157.589Z" fill="#231815"/>
<path d="M218.353 157.589H216.337V156.832C215.781 157.52 215.225 157.796 214.391 157.796C212.515 157.796 211.264 156.349 211.264 154.145C211.264 151.941 212.515 150.426 214.391 150.426C215.156 150.426 215.712 150.632 216.198 151.183V148.015H218.283V157.589H218.353ZM213.418 154.076C213.418 155.316 213.974 156.074 214.878 156.074C215.781 156.074 216.337 155.247 216.337 154.076C216.337 152.837 215.781 152.01 214.878 152.01C213.974 152.079 213.418 152.837 213.418 154.076Z" fill="#231815"/>
<path d="M222.312 149.599H220.228V147.877H222.312V149.599ZM222.312 157.589H220.228V150.564H222.312V157.589Z" fill="#231815"/>
<path d="M225.859 154.696C225.998 155.661 226.554 156.143 227.458 156.143C228.014 156.143 228.431 155.936 228.709 155.523H230.793C230.376 156.901 229.056 157.727 227.388 157.727C225.234 157.727 223.774 156.281 223.774 154.076C223.774 151.872 225.234 150.357 227.388 150.357C228.848 150.357 230.029 151.115 230.515 152.423C230.793 153.043 230.863 153.663 230.863 154.628H225.859V154.696ZM228.709 153.25C228.639 152.423 228.153 151.941 227.319 151.941C226.485 151.941 225.998 152.423 225.859 153.25H228.709Z" fill="#231815"/>
<path d="M236.214 152.699C236.144 152.148 235.727 151.872 235.033 151.872C234.407 151.872 234.06 152.079 234.06 152.423C234.06 152.699 234.268 152.837 234.894 152.974L236.214 153.25C237.048 153.457 237.534 153.594 237.812 153.939C238.16 154.283 238.368 154.765 238.368 155.316C238.368 156.763 237.187 157.727 235.172 157.727C233.226 157.727 231.975 156.832 231.905 155.247H233.851C233.99 155.936 234.407 156.212 235.241 156.212C235.866 156.212 236.353 155.936 236.353 155.523C236.353 155.179 236.144 155.041 235.588 154.903L234.268 154.628C232.739 154.283 232.114 153.732 232.114 152.63C232.114 151.252 233.226 150.357 235.102 150.357C236.909 150.357 238.021 151.183 238.229 152.63H236.214V152.699Z" fill="#231815"/>
</svg>
