<svg width="88" height="88" viewBox="0 0 88 88" fill="none" xmlns="http://www.w3.org/2000/svg">
<circle cx="44" cy="44" r="44" fill="white"/>
<path d="M17.4727 21.2716H60.8255V60.7152H17.4727V21.2716Z" fill="white"/>
<path d="M22.385 32.4471H17.4727V60.7153H60.8255V55.803H45.7409C32.8418 55.803 22.385 45.3462 22.385 32.4471Z" fill="#E6E7E8"/>
<path d="M60.8264 19.7979H51.8617V17.4737C51.8617 16.6598 51.2019 16 50.388 16C49.5742 16 48.9142 16.6598 48.9142 17.4737V19.7979H29.259V17.4737C29.259 16.6598 28.5992 16 27.7852 16C26.9713 16 26.3115 16.6598 26.3115 17.4737V19.7979H17.4736C16.6598 19.7979 16 20.4577 16 21.2715V60.7153C16 61.5291 16.6598 62.189 17.4737 62.189H44.6913C45.5052 62.189 46.165 61.5292 46.165 60.7153C46.165 59.9015 45.5053 59.2416 44.6913 59.2416H18.9474V33.9123H59.3529V45.4797C59.3529 46.2936 60.0127 46.9534 60.8266 46.9534C61.6404 46.9534 62.3003 46.2937 62.3003 45.4797V21.2715C62.3002 20.4577 61.6404 19.7979 60.8264 19.7979ZM18.9474 30.9649V22.7452H26.3117V24.8486C26.3117 25.6624 26.9715 26.3223 27.7854 26.3223C28.5993 26.3223 29.2591 25.6625 29.2591 24.8486V22.7452H48.9144V24.8486C48.9144 25.6624 49.5742 26.3223 50.3881 26.3223C51.2019 26.3223 51.8618 25.6625 51.8618 24.8486V22.7452H59.3529V30.9649H18.9474Z" fill="#575756"/>
<path d="M35.9528 51.8719L32.7078 49.3044C32.0695 48.7994 31.9615 47.8726 32.4664 47.2344C32.9715 46.5961 33.8984 46.4882 34.5365 46.9931L36.6889 48.6961L43.2533 41.2938C43.7933 40.685 44.7246 40.6291 45.3336 41.169C45.9426 41.709 45.9985 42.6404 45.4584 43.2494L37.9698 51.694C37.6796 52.0214 36.8799 52.3656 35.9528 51.8719Z" fill="#F9B115"/>
<path d="M60.8258 71.9999C66.9967 71.9999 71.9992 67.0038 71.9992 60.8408C71.9992 54.6779 66.9967 49.6818 60.8258 49.6818C54.6549 49.6818 49.6523 54.6779 49.6523 60.8408C49.6523 67.0038 54.6549 71.9999 60.8258 71.9999Z" fill="#F9B115"/>
<path d="M63.8975 65.0795C63.5466 65.0795 63.1945 64.9549 62.9129 64.7018L59.8362 61.9368C59.5252 61.6574 59.3477 61.2588 59.3477 60.8407V56.3934C59.3477 55.5796 60.0075 54.9197 60.8214 54.9197C61.6352 54.9197 62.2951 55.5795 62.2951 56.3934V60.1837L64.8832 62.5097C65.8976 63.3582 65.1943 65.1272 63.8975 65.0795Z" fill="white"/>
</svg>
