<svg width="710" height="824" viewBox="0 0 710 824" fill="none" xmlns="http://www.w3.org/2000/svg">
<g opacity="0.05">
<path d="M704.766 504.278C699.702 515.093 684.737 538.119 659.845 573.373C658.044 575.901 656.356 578.275 654.619 580.731C652.075 559.756 650.121 543.021 650.201 541.794C652.915 544.596 655.467 546.922 657.882 548.756C658.763 549.337 659.384 549.636 659.764 549.636C660.346 549.636 660.644 549.24 660.644 548.473C660.644 546.058 658.326 539.912 653.682 530.067C650.783 523.686 647.835 517.306 644.839 510.925C643.102 506.774 641.753 504.682 640.776 504.682C640.38 504.682 640.106 505.03 639.912 505.7C636.229 516.91 634.695 523.056 635.268 524.106C637.586 528.75 638.886 531.601 639.169 532.667C641.002 551.793 642.319 566.435 643.086 576.595C643.7 582.104 644.378 588.024 645.081 594.122C624.074 623.673 607.687 646.675 596.089 662.901C576.059 643.97 560.108 629.367 548.244 619.07C540.119 611.236 528.836 599.694 517.529 587.919C524.345 583.889 531.347 579.576 538.705 574.73C560.657 560.273 573.2 550.734 576.301 546.099C580.372 540.065 582.827 531.31 583.667 519.834C584.063 513.76 583.328 505.231 581.43 494.272C584.475 494.861 584.846 495.144 586.575 495.402C594.021 495.402 600.386 492.85 605.716 487.722C608.317 485.21 611.749 479.605 615.997 470.898C615.715 475.445 616.579 479.274 618.598 482.359C621.126 486.026 625.075 489.224 630.495 491.921C634.864 494.11 638.394 495.176 641.22 495.297V495.402C641.366 495.402 641.503 495.378 641.64 495.378C641.689 495.378 641.753 495.402 641.794 495.402V495.362C651.599 495.168 660.111 490.12 667.299 480.178C673.397 471.779 676.232 458.291 675.861 439.731C669.779 381.758 655.37 261.749 650.452 225.8C655.37 231.212 657.931 234.014 658.133 234.2C658.9 234.781 659.53 235.08 660.014 235.08C660.596 235.08 660.895 234.596 660.895 233.618C660.895 228.021 655.912 215.794 645.953 196.951C644.217 192.501 642.868 190.272 641.891 190.272C641.511 190.272 641.22 190.619 641.027 191.289C637.925 200.965 636.383 207.095 636.383 209.696C636.383 211.061 636.665 212.127 637.247 212.894C638.797 215.01 639.662 216.375 639.864 216.957C640.728 233.182 643.046 259.94 644.693 272.886C654.458 348.079 667.154 451.006 667.154 459.89C667.154 461.142 667.057 461.909 666.871 462.208C664.739 466.739 662.139 469.889 659.029 471.633C655.249 473.911 649.434 475.033 641.648 475.082C639.242 475.041 635.866 473.733 631.488 471.116C627.054 468.467 624.276 466.149 623.161 464.154C622.047 462.176 621.247 460.52 620.763 459.155C621.53 456.942 621.926 455.157 621.926 453.792C621.926 450.028 619.511 451.28 614.681 457.572C614.285 458.057 613.082 460.269 611.063 464.235C609.326 467.619 607.864 469.695 606.701 470.478C602.776 473.265 596.808 474.726 589.014 474.993C583.174 474.573 578.385 473.992 574.759 473.216C570.858 467.934 568.12 464.364 566.593 462.523C564.922 460.181 563.759 460.245 563.096 462.717C561.651 468.548 560.455 474.371 559.51 480.219C565.438 488.537 571.48 503.996 577.553 526.562C568.507 536.14 555.884 545.735 539.658 555.33C532.906 559.255 521.09 565.547 504.372 574.132C490.706 559.716 478.979 547.084 475.563 543.28C481.112 543.175 484.851 543.062 486.797 542.957C488.356 542.852 489.131 542.505 489.131 541.875C489.131 541.245 482.961 536.932 470.612 528.92C460.597 522.378 455.154 519.099 454.273 519.099C453.692 519.099 453.449 519.406 453.546 520.028C453.167 528.863 452.868 534.905 452.682 538.127C452.585 538.951 453.264 539.726 454.717 540.453C455.889 541.196 456.753 541.552 457.334 541.552C460.306 546.406 475.482 564.335 490.206 581.361C490.141 581.393 490.093 581.417 490.028 581.449C481.418 585.827 462.099 593.241 432.071 603.684C408.988 611.672 397.35 617.269 397.14 620.443C397.108 620.927 397.673 621.218 398.828 621.291C400.556 621.404 403.141 621.129 406.581 620.475C437.813 615.339 459.822 611.93 472.615 610.25C481.984 606.721 492.136 602.012 503.063 596.149C507.958 601.738 512.303 606.681 515.412 610.178C523.772 619.643 535.733 631.282 551.28 645.117C573.555 664.767 585.371 675.282 586.72 676.631C580.202 686.517 576.374 693.115 575.203 696.435C571.795 706.627 570.091 716.085 570.091 724.824C570.091 736.583 574.08 742.455 582.044 742.455C585.638 742.455 591.001 739.911 598.1 734.814C604.9 729.92 608.987 725.979 610.344 722.958C612.775 717.765 613.986 711.788 613.986 705.028C613.986 700.037 613.308 694.012 611.951 686.929C611.087 682.357 607.767 676.591 602.033 669.621C620.698 644.228 635.543 623.964 646.745 608.619C653.052 662.021 661.404 727.562 664.271 750.337C665.135 758.834 665.086 766.999 664.117 774.825C663.35 781.02 663.487 784.105 664.553 784.105C665.224 784.105 666.29 782.757 667.752 780.043C671.515 772.992 673.397 761.451 673.397 745.395C673.397 740.864 673.211 736.179 672.816 731.333C671.168 712.394 668.947 695.175 663.915 656.028C662.058 641.337 659.078 617.511 656.364 595.398C661.711 588.032 665.83 582.314 668.398 578.679C687.45 551.534 699.266 532.611 703.846 521.893C707.351 513.574 709.095 506.459 709.095 500.539C709.095 499.287 708.91 498.665 708.514 498.665C707.779 498.657 706.519 500.531 704.766 504.278ZM608.502 707.047C608.688 707.774 605.676 710.116 599.465 714.066C592.648 718.33 587.164 720.462 582.981 720.462C578.498 720.462 576.277 718.29 576.277 713.92C576.277 710.48 578.264 705.505 582.254 698.939C585.759 693.543 589.305 688.124 592.899 682.729C602.913 693.22 608.107 701.329 608.502 707.047Z" fill="#C2D1D9"/>
<path d="M631.609 305.077C631.609 293.681 628.225 285.653 621.465 281.009C618.663 278.893 609.585 274.209 594.215 266.948C581.737 261.165 571.593 254.437 563.766 246.805C570.527 247.201 574.492 246.756 575.647 245.505C576.511 244.535 575.251 243.09 571.883 241.159C571.197 240.764 570.422 240.376 569.565 239.996L548.542 229.998C546.895 229.117 545.877 228.883 545.497 229.263C545.199 229.747 545.061 230.531 545.061 231.581V243.905C545.061 247.104 545.829 249.123 547.379 250.003C550.077 251.635 551.878 253 552.742 254.05C559.704 263.531 567.764 271.406 576.947 277.69C582.076 281.171 589.894 285.37 600.434 290.297C610.093 294.941 617.096 298.907 621.457 302.178C625.035 304.794 626.82 307.023 626.82 308.857C626.82 310.109 626.053 311.409 624.502 312.758C620.924 316.239 607.541 325.567 584.354 340.743C558.735 357.364 541.395 365.667 532.3 365.667C528.149 365.667 524.668 364.367 521.874 361.766C518.393 358.867 516.656 354.554 516.656 348.86C516.656 348.399 516.737 347.818 516.753 347.333C521.857 343.182 526.154 339.16 529.571 335.291C532.082 332.489 534.166 328.192 535.814 322.385C537.066 317.741 537.696 313.727 537.696 310.359C537.696 303.583 535.862 295.765 532.195 286.873C529.877 281.356 527.511 275.808 525.096 270.195C529.046 271.261 531.509 271.794 532.478 271.794C533.245 271.794 533.641 271.608 533.641 271.212C533.641 270.542 532.478 269.096 530.16 266.867C524.563 261.351 519.58 255.988 515.235 250.762C514.564 249.995 514.072 249.599 513.773 249.599C513.191 249.599 512.707 250.447 512.327 252.135C511.931 253.832 511.447 256.763 510.865 260.915C510.195 265.349 510.001 267.925 510.284 268.595C510.381 269.08 511.019 270.243 512.182 272.076C513.345 273.91 514.346 276.228 515.227 279.022C516.874 284.732 519.911 292.413 524.353 302.081C528.319 310.577 530.297 315.27 530.297 316.126C530.297 318.411 526.711 322.377 519.782 327.869C520.686 324.033 521.72 319.986 523.029 315.488C523.715 313.468 524.046 311.91 524.046 310.844C524.046 310.173 523.901 309.826 523.61 309.826C522.94 309.826 521.979 311.425 520.727 314.623C518.465 320.188 516.777 325.688 515.364 331.156C505.478 338.368 491.991 346.663 474.505 356.145C461.542 363.091 445.357 370.723 425.933 379.034C398.012 390.93 382.723 397.456 380.123 398.611C372.878 401.979 369.26 403.926 369.26 404.41C369.26 404.507 369.542 404.555 370.124 404.555C371.376 404.555 374.671 404.16 379.985 403.392C385.001 402.512 397.439 399.677 417.234 394.831C435.891 390.3 445.551 388.031 446.221 388.031C449.815 388.031 461.445 382.369 481.168 371.07C493.404 364.036 503.677 357.34 512.101 350.944C511.94 353.286 511.729 355.628 511.729 357.946C511.729 376.7 518.829 386.068 533.051 386.068C540.668 386.068 556.91 377.669 581.745 360.845C601.653 347.705 614.697 338.336 620.892 332.723C624.171 329.727 626.303 327.312 627.272 325.478C628.718 322.878 629.97 318.428 631.036 312.136C631.423 309.858 631.609 307.492 631.609 305.077Z" fill="#C2D1D9"/>
<path d="M389.741 557.146C397.761 540.718 408.341 527.812 421.49 518.435C424.389 516.416 436.665 508.776 458.31 495.53C476.967 484.223 487.014 477.56 488.468 475.525C490.786 470.307 492.668 465.583 494.122 461.318C494.897 459.485 495.285 458.136 495.285 457.256C495.285 456.674 494.994 456.392 494.412 456.392C493.742 456.392 492.337 457.062 490.213 458.411C469.529 471.269 451.413 482.382 435.85 491.759C434.202 491.944 432.562 492.041 430.915 492.041C416.224 492.041 402.267 486.63 389.022 475.816C377.424 466.253 371.625 457.991 371.625 451.029C371.625 447.16 379.064 442.904 393.949 438.268C408.244 433.834 420.375 431.605 430.325 431.605C434.388 431.605 441.35 432.905 451.203 435.506C452.56 435.901 453.675 436.087 454.539 436.087C455.702 436.087 456.275 435.708 456.275 434.924C456.275 432.13 451.542 428.544 442.069 424.199C431.052 419.183 419.406 416.752 407.13 416.954C395.725 417.14 385.63 421.388 376.835 429.699C367.563 438.397 362.919 449.074 362.919 461.746C362.919 470.243 366.448 478.457 373.499 486.396C378.619 492.106 385.622 497.606 394.514 502.92C399.538 505.723 404.569 508.534 409.593 511.32C400.894 519.049 392.632 531.229 384.798 547.85C376.277 566.24 371.892 583.879 371.278 600.848C361.917 605.815 354.511 609.797 351.571 611.453L350.828 619.456C355.827 616.605 363.032 612.712 371.173 608.4C372.707 654.403 403.568 677.462 463.948 677.462C476.701 677.462 488.492 676.048 499.315 673.262C510.137 669.878 520.96 666.486 531.782 663.102C539.996 660.59 546.328 658.854 550.778 657.884C554.93 657.02 557.014 656.003 557.014 654.84C557.014 653.588 554.889 652.958 550.633 652.958C549.284 652.958 547.839 653.055 546.288 653.257C519.999 656.342 498.741 657.787 482.508 657.602C452.059 657.206 429.106 653.733 413.647 647.159C393.545 638.565 382.327 624.092 379.936 603.788C405.256 590.518 435.381 575.27 440.922 572.637L441.511 564.488C430.866 569.592 401.969 584.639 379.5 596.503C379.492 596.083 379.427 595.695 379.427 595.275C379.451 583.879 382.884 571.167 389.741 557.146Z" fill="#C2D1D9"/>
<path d="M510.217 561.191C510.887 561.191 511.953 559.842 513.407 557.128C517.179 550.069 519.061 538.536 519.061 522.48C519.061 517.949 518.867 513.265 518.479 508.419C516.84 489.479 517.704 501.384 512.68 462.237C508.529 429.374 506.542 411.598 506.736 408.884C509.441 411.686 512.002 414.012 514.417 415.846C515.289 416.427 515.911 416.726 516.306 416.726C516.888 416.726 517.179 416.33 517.179 415.563C517.179 413.148 514.861 407.002 510.217 397.157C507.317 390.776 504.369 384.396 501.373 378.015C499.637 373.864 498.28 371.772 497.31 371.772C496.923 371.772 496.64 372.12 496.438 372.79C492.763 384 491.221 390.146 491.794 391.196C494.112 395.84 495.421 398.691 495.711 399.757C497.545 418.883 498.845 433.525 499.62 443.686C505.807 499.155 506.429 499.777 509.91 527.415C510.782 535.911 510.734 544.077 509.773 551.903C509.005 558.106 509.151 561.191 510.217 561.191Z" fill="#C2D1D9"/>
<path d="M693.304 234.881C693.886 234.881 694.185 234.486 694.185 233.718C694.185 231.303 691.867 225.157 687.223 215.312C684.323 208.932 681.375 202.551 678.379 196.171C676.643 192.019 675.294 189.927 674.316 189.927C673.921 189.927 673.646 190.275 673.452 190.945C669.769 202.155 668.235 208.302 668.808 209.351C671.126 213.995 672.427 216.847 672.709 217.913C674.543 237.038 676.925 263.844 677.692 274.004C683.871 329.473 696.535 431.908 700.016 459.554C700.88 468.05 700.832 476.216 699.863 484.042C699.095 490.236 699.233 493.322 700.299 493.322C700.969 493.322 702.035 491.973 703.497 489.259C707.261 482.2 709.142 470.667 709.142 454.611C709.142 450.08 708.957 445.396 708.561 440.55C706.913 421.61 703.594 392.575 698.562 353.428C694.411 320.565 683.54 229.753 683.734 227.039C686.447 229.842 689 232.168 691.414 234.001C692.295 234.583 692.925 234.881 693.304 234.881Z" fill="#C2D1D9"/>
<path d="M486.424 645.378C491.795 640.104 497.578 634.636 498.821 628.547C499.209 626.657 495.946 625.365 491.536 622.166C486.86 618.774 484.494 617.829 482.062 615.81C472.815 622.998 470.061 631.624 469.794 632.706C469.164 634.814 471.078 636.09 473.824 637.641C479.535 641.122 480.06 641.623 486.424 645.378Z" fill="#C2D1D9"/>
<path d="M146.823 116.609C152.743 120.211 153.284 120.728 159.883 124.629C165.447 119.161 171.44 113.499 172.724 107.184C173.12 105.221 169.744 103.888 165.181 100.569C160.335 97.0556 157.88 96.0702 155.36 93.9784C145.773 101.425 142.922 110.366 142.647 111.488C141.985 113.677 143.972 115.002 146.823 116.609Z" fill="#C2D1D9"/>
<path d="M49.6668 220.356C44.8209 216.843 42.3656 215.858 39.8458 213.766C30.2589 221.212 27.4079 230.153 27.1333 231.276C26.4791 233.456 28.4579 234.789 31.3089 236.396C37.229 239.998 37.7701 240.515 44.3686 244.416C48.1242 240.733 51.9605 236.929 54.5288 232.923C55.0215 234.216 56.5803 235.233 58.6317 236.396C64.5518 239.998 65.0929 240.515 71.6914 244.416C77.2561 238.948 83.2489 233.287 84.5331 226.971C84.9288 225.008 81.5529 223.676 76.9896 220.356C72.1437 216.843 69.6885 215.858 67.1686 213.766C61.9512 217.82 58.7771 222.279 56.8791 225.711C55.9745 224.306 53.2043 222.925 49.6668 220.356Z" fill="#C2D1D9"/>
<path d="M691.33 801.206C685.41 797.604 684.869 797.087 678.27 793.186C674.515 796.869 670.678 800.673 668.11 804.679C667.617 803.386 666.059 802.369 664.007 801.206C658.087 797.604 657.546 797.087 650.948 793.186C645.383 798.654 639.39 804.315 638.106 810.631C637.71 812.594 641.078 813.926 645.649 817.246C650.495 820.759 652.95 821.744 655.47 823.836C660.688 819.782 663.862 815.324 665.76 811.891C666.664 813.296 669.435 814.677 672.972 817.246C677.818 820.759 680.273 821.744 682.793 823.836C692.38 816.39 695.231 807.449 695.506 806.326C696.16 804.138 694.173 802.813 691.33 801.206Z" fill="#C2D1D9"/>
<path d="M602.766 422.977C608.476 426.45 609.001 426.951 615.373 430.715C620.744 425.441 626.527 419.973 627.763 413.883C628.15 411.993 624.887 410.701 620.478 407.503C615.801 404.111 613.435 403.166 611.004 401.146C601.756 408.335 599.002 416.96 598.736 418.043C598.106 420.151 600.02 421.427 602.766 422.977Z" fill="#C2D1D9"/>
<path d="M550.08 407.367C540.832 414.555 538.078 423.18 537.812 424.263C537.182 426.371 539.096 427.647 541.842 429.206C547.552 432.678 548.077 433.179 554.449 436.943C559.82 431.669 565.603 426.201 566.839 420.111C567.227 418.221 563.964 416.929 559.554 413.731C554.886 410.339 552.511 409.386 550.08 407.367Z" fill="#C2D1D9"/>
<path d="M12.6948 284.07C12.8887 283.1 12.9775 282.333 12.9775 281.752C12.9775 281.17 12.8402 280.823 12.5575 280.734C11.9033 280.734 11.0553 281.849 10.0134 284.07C4.25488 296.919 1.37157 308.404 1.36349 318.564C1.34734 333.538 6.13671 345.475 15.7316 354.376C25.7949 363.761 39.8239 368.469 57.8103 368.485C60.3786 368.485 63.3265 368.178 66.1614 367.968V368.106C87.8064 367.645 111.802 362.242 133.826 355.668C141.935 404.854 148.453 447.829 148.453 458.894C148.453 462.173 148.308 464.838 148.025 466.857C146.523 476.339 133.843 490.11 109.985 508.185C108.781 509.097 107.65 509.873 106.471 510.745C106.415 510.382 106.35 509.97 106.302 509.647C104.274 497.088 101.222 483.979 97.1671 470.354C92.8139 455.76 89.4298 448.467 87.015 448.467C86.5304 448.467 86.1427 448.701 85.8519 449.186C84.1155 456.334 82.5648 462.181 81.2079 466.728C81.2079 467.31 82.9444 473.294 86.4254 484.698C90.2859 497.08 92.7493 506.933 93.8154 514.283C94.0092 515.575 94.2515 517.206 94.5261 519.023C76.7012 530.581 61.8647 536.453 50.0972 536.453C23.1378 536.453 9.65808 522.189 9.65808 493.687C9.65808 480.741 11.9599 468.804 16.5635 457.876C17.5973 455.364 18.1142 453.442 18.1142 452.077C18.1142 451.011 17.8315 450.478 17.2661 450.478C15.8608 450.478 14.2132 452.562 12.3314 456.721C5.28868 472.18 1.76731 487.452 1.76731 502.531C1.76731 518.571 5.61981 531.679 13.3248 541.815C21.3125 552.258 31.925 557.46 45.1624 557.46C59.7244 557.46 76.0632 551.863 94.195 540.652C95.3015 539.966 96.3191 539.199 97.4094 538.488C104.21 584.758 117.035 673.568 119.386 696.876C121.994 722.681 124.7 740.175 127.511 749.349C129.635 756.408 133.544 763.128 139.254 769.508C143.518 774.266 148.009 777.617 152.653 779.741C172.844 788.981 214.656 792.252 261.25 790.475C292.578 789.28 323.059 789.361 360.736 777.504C370.654 774.387 377.842 769.638 383.06 765.478C382.478 774.274 384.311 781.187 388.56 786.203C392.42 790.75 397.694 793.019 404.365 793.019C412.482 793.019 420.171 789.724 427.416 783.158C432.141 777.747 435.331 773.692 436.978 770.978C439.006 777.076 440.217 780.404 440.597 780.977C443.012 784.757 447.219 786.639 453.212 786.639C462.678 786.639 471.142 778.239 478.589 761.416C478.879 766.246 480.131 770.211 482.352 773.296C486.407 779.055 493.886 782.1 504.676 782.512V782.584C504.797 782.584 504.934 782.552 505.055 782.552C505.185 782.552 505.282 782.584 505.403 782.584V782.52C511.137 782.35 517.687 780.234 525.117 776.067C531.878 772.287 536.853 768.523 540.043 764.759C548.168 755.294 551.544 745.473 550.195 735.329C549.226 728.464 544.881 720.532 537.143 711.543C528.542 701.795 526.345 699.307 525.473 696.707C527.5 697.086 529.915 697.288 532.726 697.288C534.365 697.288 535.189 696.804 535.189 695.826C535.189 694.663 533.985 693.08 531.571 691.045C524.512 685.828 518.576 681.531 513.738 678.139C512.284 676.79 511.274 677.606 510.693 680.602C509.917 686.797 509.384 691.715 509.094 695.39C508.706 696.456 509.627 696.989 511.856 696.989C515.232 707.134 518.794 713.579 527.589 723.723C536.861 734.351 542.175 741.362 543.532 744.746C544.307 746.579 540.439 749.858 531.942 754.591C522.638 759.623 513.73 762.143 505.168 762.24C501.478 762.199 497.787 761.173 494.104 759.09C490.913 756.772 488.741 754.212 487.586 751.409C486.423 748.606 485.599 746.531 485.123 745.166C486.084 742.169 486.326 740.336 485.841 739.666C485.26 738.898 482.837 738.842 481.351 741.265C477.967 747.548 475.931 751.595 475.261 753.428C470.617 762.425 464.729 766.536 457.574 765.753C453.132 765.284 448.641 761.892 444.094 755.609C446.218 748.849 447.284 745.416 447.284 745.327C447.284 744.657 446.993 744.31 446.412 744.31C446.024 744.31 445.54 744.455 444.958 744.746C440.71 748.994 437.52 752.911 435.395 756.489C432.973 760.439 429.403 763.968 424.662 767.069C419.347 770.348 414.17 771.988 409.147 771.988C400.545 771.988 394.165 767.255 390.013 757.781C390.975 754.486 391.734 751.966 392.267 750.165C392.8 748.38 392.921 747.096 393.066 746.321C393.18 745.707 393.301 744.891 392.485 745.319C392.178 745.44 391.128 745.941 388.859 747.338C375.573 754.325 364.573 758.71 355.616 760.794C354.994 760.931 310.218 770.946 256.153 771.568C218.396 772.004 186.558 770.922 156.231 759.881C152.927 758.678 149.947 755.69 146.789 752.104C139.545 743.89 134.998 732.445 133.164 717.754C132.098 705.09 131.088 692.434 130.119 679.77C128.447 660.605 115.759 572.926 109.379 530.032C119.507 522.238 128.69 513.556 136.75 503.815C146.959 491.499 152.588 480.91 153.719 472.059C157.628 495.812 166.488 532.77 186.114 562.475C181.647 576.149 179.297 589.435 179.297 602.292C179.297 640.672 198.01 666.178 236.342 671.532C242.512 672.396 249.135 672.655 255.653 672.461C255.071 673.697 254.457 675.126 253.811 676.822C249.854 687.088 247.406 696.368 246.3 704.775C213.017 721.857 177.908 740.053 172.311 743.203L171.568 751.207C182.431 745.021 215.092 728.229 245.622 712.706C245.597 713.651 245.549 714.588 245.549 715.533C245.549 728.674 247.964 739.738 252.794 748.72C258.98 760.027 268.26 765.729 280.625 765.826C297.344 765.922 316.865 757.515 339.188 740.603C355.906 727.947 367.553 716.833 374.127 707.255C378.569 698.572 380.556 688.751 380.071 677.824C379.49 664.11 374.902 652.803 366.301 643.911C359.735 637.046 353.887 633.613 348.767 633.613C343.259 633.613 338.081 636.609 333.252 642.61C328.034 649.088 325.514 656.768 325.708 665.653C325.902 676.184 331.507 681.458 342.532 681.458C343.687 681.458 346.635 681.361 351.375 681.159C357.368 680.877 362.828 681.991 367.755 684.495C371.906 686.611 374.28 688.792 374.854 691.013C372.059 696.61 361.229 706.326 342.386 720.145C319.675 736.871 301.123 745.23 286.723 745.23C264.012 745.23 252.543 733.196 252.042 709.443C278.978 695.778 302.86 683.809 306.551 682.056L307.14 673.907C300.098 677.283 277.233 688.905 252.252 701.714C252.608 697.692 253.197 693.613 254.247 689.422C255.023 686.522 256.274 682.759 258.019 678.115C258.883 675.797 259.44 673.915 259.828 672.283C267.549 671.799 274.947 670.644 281.077 668.956C302.852 662.963 327.453 648.716 347.814 588.7C365.881 535.467 334.625 520.994 293.96 521.164C288.427 521.188 278.485 521.083 269.472 521.115C263.551 521.14 258.035 521.228 254.441 521.455C240.275 522.335 227.708 524.637 217.176 533.747C210.295 539.699 210.481 548.454 215.908 563.469C215.908 563.469 206.806 559.915 199.359 551.136C206.919 536.412 216.514 524.572 228.338 515.898C229.719 514.904 233.329 512.546 239.104 508.847C249.821 509.324 259.085 508.912 266.766 508.088L266.58 508.241C270.126 508.241 276.716 507.119 283.993 505.221C289.945 503.815 293.095 502.555 293.095 502.555L293.128 502.515C303.191 499.155 312.818 494.616 316.307 489.665C322.219 481.266 324.989 467.778 324.618 449.218C322.292 426.402 318.908 392.303 315.37 357.146C320.87 356.354 326.774 355.143 332.646 353.326C338.413 404.854 342.96 443.936 346.271 470.249C347.143 478.746 347.095 486.911 346.134 494.737C345.358 500.932 345.496 504.017 346.562 504.017C347.232 504.017 348.298 502.669 349.752 499.955C353.524 492.904 355.406 481.363 355.406 465.307C355.406 460.776 355.212 456.091 354.824 451.245C353.185 432.306 349.849 403.271 344.825 364.124C344.317 360.11 343.735 355.062 343.097 349.304C343.832 348.956 344.583 348.641 345.31 348.262C351.157 345.257 359.468 339.483 370.396 331.156C369.814 339.483 371.793 345.911 376.34 350.442C380.402 354.408 385.555 356.387 391.847 356.387C400.456 356.387 406.926 353.342 411.271 347.26C414.655 342.527 417.215 338.368 418.952 334.798C421.48 337.698 423.935 340.646 426.35 343.642C429.928 346.921 433.982 348.561 438.529 348.561C453.018 348.561 460.271 338.263 460.271 317.676C460.271 313.541 459.375 309.099 457.59 304.414C455.789 299.746 454.173 297.388 452.728 297.388C452.332 297.388 452.009 297.622 451.71 298.107C449.198 302.258 448.181 307.669 448.665 314.348C448.665 315.6 449.481 317.313 451.129 319.493C452.776 321.674 453.592 323.289 453.592 324.355C453.592 325.607 452.009 326.819 448.811 327.974C446.097 328.943 443.795 329.419 441.849 329.419C435.67 329.419 430.404 326.536 426.043 320.737C428.272 313.29 429.378 309.091 429.378 308.113C429.378 307.047 429.096 306.53 428.514 306.53C428.119 306.627 427.731 306.765 427.351 306.95C423.571 310.528 420.672 314.542 418.653 318.992C413.137 331.269 405.125 337.399 394.585 337.399C386.856 337.399 380.871 333.151 376.607 324.638C377.277 320.487 377.673 317.926 377.77 316.957C377.866 316.004 377.923 315.221 377.923 314.639C377.923 313.105 377.487 312.321 376.607 312.321C376.025 312.321 374.959 312.854 373.424 313.92C358.919 323.782 349.033 330.469 343.121 332.327C342.532 332.513 341.926 332.666 341.336 332.844C336.894 290.014 331.378 229.069 331.531 226.969C334.237 229.771 336.797 232.097 339.212 233.931C340.085 234.512 340.706 234.811 341.102 234.811C341.684 234.811 341.974 234.415 341.974 233.648C341.974 231.233 339.656 225.087 335.012 215.242C332.113 208.861 329.165 202.481 326.169 196.1C324.424 191.949 323.075 189.857 322.106 189.857C321.719 189.857 321.436 190.204 321.234 190.875C317.559 202.085 316.016 208.231 316.59 209.281C318.908 213.925 320.216 216.776 320.507 217.842C322.066 234.06 328.519 307.314 330.918 335.404C324.836 336.624 318.876 337.407 313.416 337.875C308.578 290.062 303.756 243.736 301.196 224.513C305.977 229.925 308.473 232.727 308.667 232.913C309.41 233.495 310.024 233.793 310.492 233.793C311.057 233.793 311.34 233.309 311.34 232.332C311.34 226.734 306.502 214.507 296.827 195.664C295.139 191.214 293.822 188.985 292.885 188.985C292.506 188.985 292.223 189.332 292.037 190.003C289.025 199.678 287.531 205.808 287.531 208.409C287.531 209.774 287.813 210.84 288.379 211.607C289.881 213.723 290.729 215.088 290.915 215.67C291.69 230.595 298.999 314.962 301.406 338.505C293.338 338.667 288.048 338.263 288.048 338.263C288.048 338.263 253.585 340.46 248.529 294.206C247.463 281.542 246.445 268.886 245.468 256.222C243.683 235.651 238.789 191.666 235.267 166.338H267.985C300.324 166.338 345.27 161.904 402.766 152.996C423.402 149.79 441.509 147.035 456.58 144.734C458.93 167.259 461.523 192.498 463.978 216.437C453.551 219.983 435.323 224.99 409.131 231.467C385.41 237.299 373.303 241.797 372.811 244.939C372.738 245.415 373.271 245.755 374.418 245.94C376.138 246.215 378.731 246.175 382.212 245.844C413.775 243.606 436.009 242.233 448.907 241.741C454.311 240.255 460.061 238.349 466.014 236.184C469.325 268.264 472.192 295.53 473.614 306.813C474.478 315.31 474.429 323.475 473.46 331.301C472.693 337.496 472.83 340.581 473.896 340.581C474.567 340.581 475.633 339.232 477.095 336.519C480.858 329.468 482.74 317.926 482.74 301.87C482.74 297.339 482.554 292.655 482.159 287.809C481.504 280.282 479.437 258.225 476.86 231.936C489.484 226.775 503.109 220.378 517.97 212.455C541.166 200.082 554.524 191.739 558.045 187.41C562.649 181.773 565.904 173.292 567.794 161.937C568.747 155.928 568.787 147.367 567.907 136.27C570.629 137.061 608.176 148.546 632.156 128.379C634.352 126.529 637.866 120.464 643.479 110.99C647.331 116.119 653.478 120.787 661.885 125.051C669.219 128.629 674.743 130.414 678.41 130.414C681.705 130.414 684.588 128.048 687.108 123.315C689.337 118.865 690.428 114.172 690.428 109.254C690.428 99.5779 688.982 91.5256 686.082 85.0482C682.698 77.4159 677.869 73.5877 671.577 73.5877C663.848 73.5877 656.7 79.8308 650.134 92.2929C649.738 91.6225 649.318 91.2752 648.834 91.2752C647.767 91.2752 644.682 95.0066 639.554 102.437C634.142 110.368 628.166 113.696 624.661 115.569C600.439 128.548 566.566 115.731 563.239 114.689C559.83 109.068 557.448 105.264 556.091 103.285C554.629 100.797 553.458 100.757 552.586 103.156C550.607 108.825 548.879 114.519 547.384 120.254C552.537 129.089 557.109 145.032 561.098 168.059C551.197 176.757 537.741 185.149 520.7 193.217C512.453 197.045 497.132 203.401 474.898 212.261C472.507 188.282 469.914 163.019 467.693 143.03C489.12 139.734 502.172 137.626 504.086 136.77C506.622 135.785 508.544 133.152 508.544 133.152C514.675 126.376 517.736 119.624 517.736 112.848C517.736 111.313 517.485 109.997 517.025 108.93C514.133 97.8818 507.034 92.3736 500.113 89.5226C491.81 86.0982 478.573 84.4748 460.626 84.1033C459.391 73.2969 458.809 66.973 458.906 65.4627C461.62 68.2652 464.172 70.5913 466.587 72.4246C467.467 73.0061 468.089 73.305 468.469 73.305C469.05 73.305 469.349 72.9092 469.349 72.142C469.349 69.7271 467.031 63.5809 462.387 53.7356C459.488 47.3552 456.54 40.9747 453.543 34.5943C451.807 30.4429 450.458 28.3511 449.481 28.3511C449.085 28.3511 448.811 28.6984 448.617 29.3688C444.934 40.579 443.399 46.7252 443.973 47.7751C446.291 52.4191 447.591 55.2701 447.874 56.3362C448.899 67.0215 449.747 76.1641 450.442 84.0467C439.127 84.2163 415.681 86.1224 379.805 89.8134C341.813 93.6739 310.032 95.16 301.802 95.2489C283.436 95.3458 269.124 93.997 258.875 91.1864C250.459 88.7715 246.3 86.0093 246.397 82.9241C246.583 75.6633 260.943 62.0867 289.461 42.1781C297.594 36.4842 307.641 30.7337 319.611 24.9348C330.231 19.8062 336.919 17.0682 339.697 16.6725C344.68 16.4867 347.741 18.2716 348.888 22.0353C349.946 25.4194 350.996 27.1154 352.038 27.1154C352.522 27.1154 353.532 25.5647 355.066 22.4714C358.402 15.6064 360.082 10.7766 360.082 7.96601C360.082 2.55474 356.06 -0.0943528 348.032 0.00256539C333.47 0.0994835 310.944 11.0674 280.407 32.9063C267.307 42.2831 257.744 50.5454 251.703 57.6931C244.144 66.6742 238.603 77.6017 235.057 90.4434C234.67 91.7114 234.484 92.9713 234.484 94.2232C234.484 106.596 251.889 112.767 286.723 112.767C301.18 112.767 337.169 111.2 377.366 107.049C417.223 102.93 442.026 100.846 451.855 100.814C452.72 108.607 453.705 117.726 454.763 127.7C439.668 129.574 421.665 131.868 401.313 134.581C343.404 142.214 299.007 146.026 268.099 146.026H231.698C229.848 136.924 227.667 127.652 224.8 118.025C220.439 103.43 217.071 96.1373 214.656 96.1373C214.172 96.1373 213.776 96.3715 213.493 96.8561C211.757 104.004 210.198 109.851 208.849 114.398C208.849 114.98 210.586 120.965 214.067 132.369C215.625 137.368 216.893 141.85 217.992 146.026H203.971C196.912 145.113 192.131 144.088 188.601 142.973C185.225 137.352 182.867 133.548 181.526 131.569C180.073 129.081 178.918 129.041 178.053 131.44C176.099 137.109 174.387 142.803 172.901 148.538C178.005 157.373 182.536 173.316 186.477 196.343C176.672 205.041 163.346 213.432 146.474 221.501C141.572 223.803 134.069 227.041 124.159 231.152C119.822 211.397 116.422 197.546 115.469 197.514C113.215 197.417 111.293 203.547 109.694 215.92C110.776 221.986 111.955 228.632 113.199 235.667C107.731 237.896 101.738 240.319 95.1561 242.952C86.2638 246.514 66.541 252.119 35.9794 259.759C12.4929 265.591 0.499294 270.089 0.00662671 273.231C-0.0660619 273.707 0.458916 274.047 1.5977 274.232C3.30185 274.507 5.87018 274.467 9.31885 274.136C40.575 271.898 62.5916 270.525 75.3686 270.033C87.5884 266.649 101.399 261.27 116.486 254.316C120.944 279.724 125.936 308.638 130.628 336.64C105.034 344.038 81.8621 346.679 71.6857 347.535V347.478C67.4132 347.81 63.2054 348.06 59.2156 348.052C46.5031 348.036 35.4464 345.168 26.0292 339.458C14.7382 332.69 9.10079 323.305 9.10887 311.312C9.10887 307.831 9.59346 303.146 10.5384 297.251L12.6948 284.07ZM353.823 661.744C350.923 661.744 347.975 661.792 344.979 661.881C341.013 661.695 338.502 660.718 337.435 658.981C337.629 654.636 340.198 652.456 345.116 652.456C349.179 652.456 354.202 655.791 360.195 662.454C358.071 662.083 355.947 661.832 353.823 661.744ZM666.658 93.5932C668.791 93.5932 670.794 95.0227 672.675 97.8737C674.557 100.725 675.543 103.891 675.64 107.372C671.391 106.887 667.676 105.538 664.478 103.309C663.896 102.913 661.433 100.741 657.096 96.7915C659.422 94.6593 662.604 93.5932 666.658 93.5932ZM464.859 118.816C464.019 112.193 463.3 106.354 462.638 100.959C486.714 101.645 496.034 105.506 503.965 121.699C502.116 122.031 488.305 123.606 465.795 126.368C465.464 123.63 465.149 121.094 464.859 118.816ZM241.906 602.284C243.296 602.793 244.975 602.502 245.993 601.428C253.052 593.941 255.394 583.426 256.129 578.58C256.355 577.086 255.459 575.696 254.005 575.284C245.727 572.95 219.155 564.656 218.638 554.156C217.725 535.774 286.125 536.921 293.241 537.042C325.773 537.591 354.687 546.128 344.971 586.002C334.108 630.601 304.758 648.369 269.415 652.197C265.91 652.577 249.66 652.31 240.848 650.614C233.079 649.12 226.335 647.085 220.714 644.629C198.544 634.881 187.454 617.573 187.454 592.738C187.454 585.695 188.884 578.079 191.436 570.035C208.615 589.225 219.995 594.329 241.906 602.284ZM127.995 248.864C133.14 246.312 138.341 243.687 143.785 240.755C166.754 228.382 179.976 220.039 183.473 215.71C188.036 210.073 191.25 201.592 193.124 190.237C194.069 184.228 194.101 175.667 193.237 164.57C195.991 165.377 198.43 165.918 201.653 166.201V166.338H222.111C225.939 193.16 231.988 246.078 234.734 273.328C237.351 299.132 240.049 316.626 242.851 325.801C244.967 332.86 249.078 339.418 254.595 345.96C265.207 358.567 290.309 358.567 290.309 358.567C290.309 358.567 295.777 358.858 303.797 358.349C312.019 424.068 316.13 461.107 316.13 469.377C316.13 470.629 316.041 471.396 315.847 471.695C314.668 474.296 313.311 476.379 311.817 478.067C299.847 485.643 283.807 488.963 268.543 490.198C283.775 480.612 292.118 474.845 293.402 472.987C295.656 467.77 297.489 463.045 298.894 458.781C299.645 456.947 300.025 455.599 300.025 454.718C300.025 454.137 299.742 453.854 299.177 453.854C298.523 453.854 297.158 454.524 295.098 455.873C274.988 468.731 257.381 479.844 242.262 489.221C240.663 489.407 239.072 489.504 237.472 489.504C223.193 489.504 209.625 484.093 196.759 473.278C185.484 463.716 179.854 455.453 179.854 448.491C179.854 444.623 187.083 440.374 201.556 435.73C215.456 431.296 227.239 429.067 236.915 429.067C240.864 429.067 247.625 430.368 257.203 432.968C258.52 433.364 259.602 433.55 260.45 433.55C261.581 433.55 262.13 433.17 262.13 432.387C262.13 429.592 257.526 426.006 248.327 421.661C237.626 416.646 226.303 414.215 214.374 414.416C203.293 414.602 193.471 418.85 184.927 427.161C175.913 435.86 171.406 446.537 171.406 459.209C171.406 467.705 174.831 475.919 181.688 483.85C186.663 489.56 193.472 495.06 202.113 500.375C205.053 502.063 208.001 503.751 210.941 505.439L210.707 505.721C211.046 505.778 211.361 505.818 211.692 505.875C213.38 506.844 215.076 507.813 216.764 508.782C208.599 516.245 200.837 527.956 193.463 543.705C183.263 529.846 171.439 508.564 164.768 478.746C164.727 478.568 164.687 478.391 164.646 478.221C164.049 475.523 163.613 472.592 163.104 469.757C161.747 460.097 160.342 444.623 158.161 423.656C155.342 396.882 152.33 374.365 149.139 356.104C148.873 354.594 148.574 352.906 148.251 351.137C173.765 342.681 194.836 333.676 203.494 330.873C220.843 325.26 226.399 331.955 214.454 346.226C199.868 363.647 178.288 382.765 175.97 386.625C173.652 390.478 180.016 386.633 180.016 386.633C180.016 386.633 200.926 370.238 212.71 357.889C225.721 344.256 234.129 329.435 232.99 316.077C231.851 302.726 190.338 314.163 153.194 328.975C150.367 330.106 147.532 331.14 144.697 332.141C140.118 308.073 133.689 275.799 127.995 248.864Z" fill="#C2D1D9"/>
<path d="M626.555 801.041L609.151 802.923C606.873 803.165 604.587 803.294 602.302 803.294L41.097 803.423C41.097 803.423 9.68742 803.924 16.6575 791.026C24.6047 776.327 81.8188 778.112 86.592 745.135C91.3571 712.159 58.3807 692.686 58.3807 692.686L65.9323 691.693L43.1161 675.015L42.3731 696.296L44.2388 697.233C44.2388 697.233 69.9948 724.669 79.3312 738.674C79.3312 738.674 83.2483 745.208 79.3312 747.631C75.4141 750.054 72.0543 753.042 47.9701 759.762C23.894 766.481 1.86936 787.949 2.98392 804.183C4.09848 820.416 25.3801 821.167 38.8194 822.29C52.2587 823.413 578.638 822.29 578.638 822.29C578.638 822.29 609.134 815.853 626.16 804.255C630.901 801.009 626.555 801.041 626.555 801.041Z" fill="#C2D1D9"/>
<path d="M6.87299 666.064C12.7931 669.666 13.3342 670.183 19.9327 674.083C25.4974 668.616 31.4902 662.954 32.7744 656.638C33.1701 654.676 29.8022 653.343 25.2309 650.024C20.385 646.51 17.9297 645.525 15.4099 643.433C5.82303 650.88 2.97203 659.82 2.69743 660.943C2.04323 663.132 4.03005 664.456 6.87299 666.064Z" fill="#C2D1D9"/>
<path d="M593.412 759.641C593.614 759.641 593.751 760.021 593.824 760.772C593.888 761.523 594.09 761.935 594.437 761.999C597.127 762.783 598.896 761.474 599.178 761.159C599.412 760.893 601.65 758.268 600.059 752.695C598.831 751.266 597.232 750.547 595.253 750.547C588.913 750.547 584.035 756.168 580.635 767.419C579.964 771.481 582.71 772.733 584.422 773.25C584.624 773.323 586.361 773.662 589.64 774.268C584.527 778.5 581.967 781.326 581.967 782.756C581.967 783.305 582.218 783.992 582.977 784.081C583.792 784.177 584.818 784.226 586.264 783.37C588.646 781.326 592.879 778.936 598.944 776.206C604.396 773.823 608.07 771.489 609.944 769.204C611.818 766.918 612.763 764.511 612.763 761.991C612.763 761.176 612.521 760.764 612.044 760.764C611.842 760.836 611.6 760.901 611.325 760.966C610.235 761.515 608.289 762.775 605.502 764.753C603.386 766.256 601.036 767.483 598.443 768.436C596.739 768.024 591.538 768.525 586.603 764.543C586.579 762.775 589.115 760.255 593.412 759.641Z" fill="#C2D1D9"/>
<path d="M641.578 158.72C644.639 161.151 647.466 164.043 651.892 164.552C656.52 160.788 657.231 153.963 653.612 149.352C650.987 146.008 647.668 146.081 645.18 149.537C644.502 150.49 644.017 151.879 643.089 152.299C641.045 153.22 640.286 154.949 639.43 156.701C636.999 161.66 633.526 165.715 628.842 168.662C626.176 170.334 623.511 172.071 620.684 173.42C611.089 177.991 601.414 182.393 591.77 186.859C590.616 187.392 589.436 187.901 587.918 188.579C588.645 188.838 588.895 189.031 589.097 188.991C595.389 187.683 601.777 186.713 607.948 184.961C622.348 180.874 634.423 173.581 641.029 159.326C641.126 159.108 641.36 158.963 641.578 158.72ZM652.643 157.565C649.938 157.331 648.145 155.853 646.158 154.012C650.18 152.38 651.27 153.026 652.643 157.565Z" fill="#C2D1D9"/>
<path d="M264.258 622.972C278.658 618.885 290.733 611.592 297.339 597.337C297.444 597.119 297.678 596.966 297.905 596.732C300.966 599.163 303.792 602.054 308.218 602.563C312.846 598.799 313.557 591.974 309.939 587.363C307.314 584.019 303.994 584.092 301.507 587.549C300.828 588.502 300.344 589.891 299.415 590.311C297.371 591.231 296.612 592.96 295.756 594.712C293.325 599.671 289.852 603.726 285.168 606.674C282.503 608.346 279.837 610.082 277.011 611.431C267.416 616.002 257.74 620.404 248.097 624.87C246.942 625.403 245.763 625.912 244.244 626.59C244.971 626.849 245.221 627.043 245.423 627.002C251.707 625.694 258.095 624.725 264.258 622.972ZM308.969 595.577C306.264 595.342 304.471 593.864 302.484 592.023C306.498 590.383 307.596 591.029 308.969 595.577Z" fill="#C2D1D9"/>
<path d="M604.812 579.519C602.413 578.356 599.627 578.945 597.503 581.538C596.113 583.226 594.845 585.172 594.118 587.224C592.124 592.853 590.428 598.587 588.707 604.007C586.72 599.54 584.742 594.622 582.391 589.897C580.187 585.471 576.56 582.83 570.85 582.58C569.114 585.116 567.232 587.854 565.52 590.357C568.435 595.365 571.884 597.82 577.441 595.72C579.524 599.589 581.729 603.086 583.312 606.842C584.855 610.516 585.751 614.45 587.173 619.013C590.209 615.411 591.348 611.93 592.221 608.263C593.448 603.11 594.821 597.99 596.291 592.893C596.953 590.592 598.003 588.395 600.83 587.563C602.849 588.952 604.884 590.341 607.38 592.062C608.05 589.865 608.761 588.298 608.995 586.666C609.335 584.147 607.146 580.641 604.812 579.519Z" fill="#C2D1D9"/>
<path d="M153.767 563.309C154.204 561.08 155.011 558.899 157.62 557.881C159.647 559.028 161.699 560.175 164.202 561.589C164.655 559.448 165.196 557.914 165.277 556.347C165.398 553.94 163.031 550.798 160.729 549.926C158.355 549.022 155.77 549.821 153.977 552.454C152.806 554.166 151.764 556.121 151.248 558.116C149.826 563.616 148.704 569.189 147.524 574.463C145.271 570.4 142.977 565.91 140.36 561.629C137.905 557.623 133.988 554.005 128.811 555.669C125.322 556.791 124.894 560.506 124.409 563.478C124.191 564.827 131.064 570.021 136.153 567.565C138.446 571.054 140.829 574.18 142.646 577.612C144.415 580.964 145.602 584.615 147.322 588.815C149.899 585.148 150.682 581.756 151.207 578.21C151.934 573.227 152.806 568.26 153.767 563.309Z" fill="#C2D1D9"/>
<path d="M54.9765 456.895C57.5529 453.228 58.3363 449.836 58.8613 446.291C59.5962 441.307 60.4604 436.34 61.4296 431.398C61.8657 429.168 62.6734 426.988 65.2821 425.97C67.3093 427.117 69.3607 428.264 71.8645 429.677C72.3167 427.537 72.8579 426.002 72.9386 424.436C73.0598 422.029 70.6934 418.887 68.3916 418.015C66.0171 417.11 63.4326 417.91 61.6396 420.543C60.4685 422.255 59.4266 424.209 58.9097 426.212C57.4883 431.713 56.3656 437.285 55.1864 442.559C52.9331 438.497 50.6394 434.006 48.0226 429.726C45.5673 425.72 41.6502 422.101 36.4732 423.765C32.9841 424.888 32.5561 428.603 32.0715 431.575C31.8534 432.924 38.7265 438.117 43.8147 435.662C46.1085 439.151 48.491 442.277 50.3082 445.709C52.077 449.037 53.2562 452.695 54.9765 456.895Z" fill="#C2D1D9"/>
<path d="M128.503 140.595C126.128 139.69 123.544 140.49 121.751 143.115C120.58 144.827 119.538 146.781 119.021 148.784C117.6 154.284 116.477 159.857 115.298 165.131C113.044 161.069 110.751 156.578 108.134 152.298C105.679 148.292 101.762 144.673 96.5845 146.337C93.0955 147.46 92.6674 151.175 92.1828 154.147C91.9647 155.496 98.8379 160.689 103.926 158.234C106.22 161.723 108.602 164.848 110.42 168.281C112.188 171.633 113.368 175.283 115.096 179.483C117.672 175.816 118.456 172.424 118.981 168.879C119.716 163.895 120.58 158.928 121.549 153.986C121.985 151.748 122.793 149.576 125.402 148.558C127.429 149.705 129.48 150.852 131.976 152.265C132.428 150.125 132.969 148.59 133.05 147.024C133.179 144.609 130.813 141.467 128.503 140.595Z" fill="#C2D1D9"/>
<path d="M51.6454 607.24C50.4743 608.953 49.4325 610.907 48.9156 612.91C47.4941 618.41 46.3715 623.983 45.1923 629.257C42.939 625.195 40.6452 620.704 38.0284 616.423C35.5732 612.418 31.6561 608.799 26.479 610.463C22.99 611.586 22.5619 615.301 22.0773 618.273C21.8593 619.622 28.7324 624.815 33.8206 622.36C36.1143 625.849 38.4969 628.974 40.3141 632.407C42.0829 635.759 43.262 639.409 44.9904 643.609C47.5668 639.942 48.3502 636.55 48.8752 633.005C49.6102 628.021 50.4743 623.054 51.4435 618.111C51.8797 615.874 52.6873 613.702 55.296 612.684C57.3232 613.831 59.3747 614.978 61.8784 616.391C62.3307 614.251 62.8718 612.716 62.9526 611.15C63.0737 608.743 60.7073 605.601 58.4055 604.729C56.0229 603.816 53.4384 604.616 51.6454 607.24Z" fill="#C2D1D9"/>
<path d="M24.4363 91.2763C26.6735 96.0415 29.048 100.338 30.7521 104.966C32.4159 109.489 33.377 114.335 34.8954 119.94C38.1664 115.506 39.3778 111.225 40.3228 106.711C41.6393 100.371 43.1173 94.0627 44.7003 87.7954C45.4191 84.9686 46.5336 82.2549 49.5785 81.2291C51.743 82.9333 53.9398 84.6536 56.6131 86.7616C57.3319 84.0559 58.0992 82.1337 58.3496 80.1227C58.7292 77.0294 56.3708 72.7165 53.8671 71.3274C51.2826 69.8897 48.2943 70.6247 46.0087 73.8068C44.5226 75.8825 43.1576 78.2812 42.3742 80.8011C40.2259 87.7308 38.4087 94.7896 36.5511 101.453C34.4189 95.9527 32.2867 89.9033 29.7668 84.0882C27.4004 78.6366 23.4994 75.3898 17.3613 75.0829C15.4956 78.2005 13.4765 81.5764 11.627 84.6536C14.7606 90.8321 18.4678 93.8608 24.4363 91.2763Z" fill="#C2D1D9"/>
<path d="M590.712 799.488C608.439 786.59 649.565 761.004 656.365 756.788L656.083 749.503C641.9 758.363 599.03 786.235 590.574 792.325L590.712 799.488Z" fill="#C2D1D9"/>
<path d="M445.412 165.522C428.516 173.623 365.64 206.769 355.464 212.495L354.721 220.499C376.059 208.344 436.713 177.524 444.814 173.672L445.412 165.522Z" fill="#C2D1D9"/>
<path d="M93.949 374.214C77.0529 382.315 14.1773 415.461 4.00086 421.187L3.25781 429.191C24.596 417.036 85.2506 386.216 93.3513 382.363L93.949 374.214Z" fill="#C2D1D9"/>
<path d="M206.926 405.976C228.264 393.821 261.24 377.894 269.341 374.042L269.931 365.893C253.035 373.993 217.837 392.246 207.661 397.972L206.926 405.976Z" fill="#C2D1D9"/>
<path d="M234.006 411.579C255.344 399.424 288.32 383.497 296.421 379.645L297.011 371.496C280.115 379.596 244.917 397.849 234.741 403.576L234.006 411.579Z" fill="#C2D1D9"/>
<path d="M92.0115 560.617C75.1154 568.718 12.2397 601.864 2.06334 607.59L1.32031 615.594C22.6585 603.439 83.3131 572.619 91.4138 568.766L92.0115 560.617Z" fill="#C2D1D9"/>
<path d="M552.697 59.0793C551.534 67.6162 533.192 77.1384 533.192 77.1384C533.192 77.1384 540.428 77.0253 546.001 74.7478C551.574 72.4702 561.403 56.9794 563.64 51.8751C565.877 46.7626 560.725 44.0651 560.725 44.0651C560.725 44.0651 535.494 48.0226 530.696 49.8801C523.548 52.6504 525.301 65.2821 525.301 65.2821C532.966 59.3701 552.697 59.0793 552.697 59.0793Z" fill="#C2D1D9"/>
<path d="M446.901 720.852C446.901 720.852 454.137 720.739 459.71 718.453C465.283 716.176 475.112 700.685 477.349 695.581C479.586 690.468 474.434 687.771 474.434 687.771C474.434 687.771 449.203 691.728 444.405 693.586C437.257 696.356 439.01 708.996 439.01 708.996C446.667 703.1 466.398 702.801 466.398 702.801C465.243 711.33 446.901 720.852 446.901 720.852Z" fill="#C2D1D9"/>
<path d="M98.4628 96.0645C110.771 86.8734 119.058 79.1603 123.314 72.9253C127.143 75.2998 129.719 76.8181 131.035 77.4643C131.859 77.8923 132.707 77.222 133.571 75.4451C134.444 73.6683 134.702 71.9884 134.339 70.3973C132.077 67.9178 129.929 66.0198 127.902 64.6872C129.412 61.7231 130.3 58.8721 130.583 56.1261C131.27 49.2692 128.75 45.554 123.007 44.9805C121.037 44.7786 118.493 46.3858 115.383 49.7941C112.274 53.2024 110.618 55.8515 110.432 57.7333C110.093 61.077 110.901 63.7988 112.855 65.8987C115.108 67.5948 117.321 69.2908 119.486 70.9788C116.562 75.962 108.712 83.0048 95.9348 92.107C88.2137 97.4779 80.533 102.849 72.8926 108.228C73.0864 108.85 73.571 109.205 74.3464 109.286C78.1181 109.665 86.1542 105.256 98.4628 96.0645ZM117.491 55.9807C117.943 54.0343 119.244 53.1701 121.384 53.3882C124.122 53.6628 125.277 56.0292 124.825 60.4874C124.72 61.5131 124.493 62.4904 124.138 63.403C119.284 60.1401 117.063 57.6687 117.491 55.9807Z" fill="#C2D1D9"/>
<path d="M156.092 689.693C154.768 694.692 153.888 699.805 155.713 704.909C156.545 707.251 158.136 708.907 160.696 709.02C163.038 709.117 164.888 707.914 165.736 705.701C167.052 702.284 168.167 698.787 169.37 695.322C169.023 695.153 168.676 694.991 168.32 694.822C167.408 696.219 166.519 697.632 165.558 698.989C164.581 700.37 163.151 701.461 161.56 700.701C160.454 700.168 159.452 698.811 159.016 697.608C157.853 694.361 158.637 691.147 159.703 687.981C161.068 683.926 162.659 679.928 163.692 675.769C171.018 646.144 157.377 611.004 149.785 605.487C148.452 607.821 147.394 616.382 146.393 618.135C149.349 621.923 164.242 650.885 160.599 675.398C159.856 680.34 157.377 684.871 156.092 689.693Z" fill="#C2D1D9"/>
<path d="M694.956 686.399C693.979 687.78 692.55 688.871 690.958 688.111C689.852 687.578 688.851 686.222 688.414 685.018C687.251 681.771 688.035 678.557 689.101 675.391C690.466 671.337 692.057 667.339 693.091 663.179C700.416 633.555 686.775 598.414 679.183 592.897C677.85 595.232 676.792 603.793 675.799 605.545C678.747 609.333 693.64 638.296 690.005 662.808C689.27 667.751 686.791 672.282 685.507 677.103C684.182 682.103 683.302 687.215 685.127 692.319C685.959 694.662 687.55 696.317 690.11 696.43C692.453 696.527 694.302 695.324 695.15 693.111C696.467 689.695 697.581 686.197 698.785 682.733C698.437 682.563 698.09 682.401 697.735 682.232C696.806 683.621 695.917 685.034 694.956 686.399Z" fill="#C2D1D9"/>
<path d="M118.575 432.632C119.859 428.368 121.289 424.128 122.653 419.88C122.46 419.815 122.274 419.75 122.08 419.678C120.634 422.093 119.068 424.467 117.767 426.93C113.947 434.199 112.089 441.832 112.703 449.844C112.816 451.273 113.293 452.791 114.068 454.043C116.063 457.25 121.167 457.67 123.582 454.706C126.385 451.273 127.572 447.259 127.758 442.978C126.958 443.592 126.466 444.343 125.924 445.062C125.343 445.821 124.778 446.605 124.083 447.283C121.426 449.852 118.389 449.359 117.412 446.031C116.838 444.093 116.628 441.969 116.838 439.974C117.089 437.495 117.848 435.047 118.575 432.632Z" fill="#C2D1D9"/>
<path d="M194.876 284.965C196.871 288.171 201.976 288.591 204.391 285.627C207.193 282.194 208.38 278.18 208.566 273.9C207.767 274.514 207.274 275.265 206.733 275.984C206.151 276.743 205.586 277.526 204.891 278.205C202.234 280.773 199.197 280.28 198.22 276.953C197.647 275.014 197.437 272.89 197.647 270.895C197.905 268.424 198.656 265.977 199.391 263.554C200.675 259.289 202.105 255.049 203.47 250.801C203.276 250.736 203.09 250.672 202.896 250.599C201.451 253.014 199.884 255.388 198.584 257.852C194.763 265.121 192.906 272.753 193.52 280.765C193.617 282.186 194.093 283.705 194.876 284.965Z" fill="#C2D1D9"/>
<path d="M46.5573 305.588C47.8414 301.323 49.271 297.083 50.6359 292.835C50.4421 292.77 50.2563 292.706 50.0625 292.633C48.6168 295.048 47.0499 297.422 45.7496 299.886C41.9294 307.155 40.0718 314.787 40.6856 322.799C40.7987 324.228 41.2752 325.747 42.0506 326.999C44.0455 330.205 49.1498 330.625 51.5647 327.661C54.3673 324.228 55.5545 320.214 55.7403 315.934C54.9407 316.548 54.448 317.299 53.9069 318.018C53.3254 318.777 52.76 319.56 52.0654 320.239C49.4083 322.807 46.3715 322.314 45.3943 318.987C44.8208 317.048 44.6108 314.924 44.8208 312.929C45.0712 310.458 45.8223 308.011 46.5573 305.588Z" fill="#C2D1D9"/>
<path d="M41.0123 489.03C42.2965 484.765 43.7261 480.525 45.091 476.277C44.8972 476.212 44.7114 476.148 44.5175 476.075C43.0719 478.49 41.505 480.864 40.2047 483.328C36.3845 490.597 34.5269 498.229 35.1407 506.241C35.2538 507.67 35.7303 509.189 36.5056 510.441C38.5005 513.647 43.6049 514.067 46.0198 511.103C48.8223 507.67 50.0096 503.656 50.1953 499.376C49.3958 499.99 48.9031 500.741 48.362 501.459C47.7805 502.219 47.2151 503.002 46.5205 503.68C43.8634 506.249 40.8266 505.756 39.8493 502.429C39.2759 500.49 39.0659 498.366 39.2759 496.371C39.5343 493.9 40.2855 491.453 41.0123 489.03Z" fill="#C2D1D9"/>
<path d="M264.116 217.153C265.4 212.889 266.83 208.649 268.195 204.401C268.001 204.336 267.815 204.271 267.621 204.199C266.175 206.613 264.609 208.988 263.308 211.451C259.488 218.72 257.63 226.352 258.244 234.364C258.357 235.794 258.834 237.312 259.609 238.564C261.604 241.771 266.708 242.191 269.123 239.226C271.926 235.794 273.113 231.78 273.299 227.499C272.499 228.113 272.007 228.864 271.465 229.583C270.884 230.342 270.319 231.126 269.624 231.804C266.967 234.372 263.93 233.88 262.953 230.552C262.379 228.614 262.169 226.49 262.379 224.495C262.638 222.023 263.389 219.576 264.116 217.153Z" fill="#C2D1D9"/>
<path d="M56.0945 166.265C53.4373 168.833 50.4005 168.34 49.4233 165.013C48.8498 163.075 48.6399 160.95 48.8498 158.956C49.1083 156.484 49.8594 154.037 50.5944 151.614C51.8785 147.35 53.3081 143.109 54.673 138.861C54.4792 138.797 54.2934 138.732 54.0996 138.659C52.6539 141.074 51.0871 143.449 49.7867 145.912C45.9665 153.181 44.1089 160.813 44.7228 168.825C44.8358 170.255 45.3123 171.773 46.0877 173.025C48.0826 176.231 53.1869 176.651 55.6018 173.687C58.4044 170.255 59.5916 166.241 59.7774 161.96C58.9778 162.574 58.4851 163.325 57.944 164.044C57.3463 164.803 56.7891 165.586 56.0945 166.265Z" fill="#C2D1D9"/>
<path d="M151.016 173.916C152.3 169.652 153.73 165.412 155.095 161.164C154.901 161.099 154.715 161.034 154.521 160.962C153.076 163.377 151.509 165.751 150.209 168.214C146.388 175.483 144.531 183.116 145.145 191.127C145.258 192.557 145.734 194.075 146.51 195.327C148.504 198.534 153.609 198.954 156.024 195.99C158.826 192.557 160.014 188.543 160.199 184.262C159.4 184.876 158.907 185.627 158.366 186.346C157.784 187.105 157.219 187.889 156.524 188.567C153.867 191.136 150.83 190.643 149.853 187.315C149.28 185.377 149.07 183.253 149.28 181.258C149.53 178.787 150.289 176.339 151.016 173.916Z" fill="#C2D1D9"/>
<path d="M85.4479 647.28C86.7321 643.016 88.1616 638.776 89.5266 634.527C89.3327 634.463 89.1469 634.398 88.9531 634.325C87.5074 636.74 85.9406 639.115 84.6402 641.578C80.82 648.847 78.9625 656.479 79.5763 664.491C79.6893 665.921 80.1659 667.439 80.9412 668.691C82.9361 671.897 88.0405 672.317 90.4553 669.353C93.2579 665.921 94.4452 661.907 94.6309 657.626C93.8313 658.24 93.3387 658.991 92.7975 659.71C92.216 660.469 91.6507 661.253 90.9561 661.931C88.2989 664.499 85.2621 664.007 84.2849 660.679C83.7114 658.741 83.5015 656.617 83.7115 654.622C83.9618 652.142 84.7129 649.695 85.4479 647.28Z" fill="#C2D1D9"/>
<path d="M317.77 694.417C319.054 690.152 320.484 685.912 321.849 681.664C321.655 681.599 321.469 681.535 321.275 681.462C319.83 683.877 318.263 686.251 316.962 688.715C313.142 695.984 311.285 703.616 311.899 711.628C312.012 713.057 312.488 714.576 313.263 715.827C315.258 719.034 320.363 719.454 322.778 716.49C325.58 713.057 326.767 709.043 326.953 704.771C326.154 705.385 325.661 706.136 325.12 706.854C324.538 707.614 323.973 708.397 323.278 709.076C320.621 711.644 317.584 711.151 316.607 707.824C316.034 705.885 315.824 703.761 316.034 701.766C316.284 699.279 317.043 696.831 317.77 694.417Z" fill="#C2D1D9"/>
<path d="M557.741 299.901C559.025 295.636 560.455 291.396 561.82 287.148C561.626 287.083 561.44 287.019 561.246 286.946C559.8 289.361 558.234 291.735 556.933 294.199C553.113 301.468 551.255 309.1 551.869 317.112C551.982 318.541 552.459 320.06 553.242 321.312C555.237 324.518 560.341 324.938 562.756 321.974C565.559 318.541 566.746 314.527 566.932 310.247C566.132 310.861 565.64 311.612 565.099 312.331C564.517 313.09 563.952 313.873 563.257 314.552C560.6 317.12 557.563 316.627 556.586 313.3C556.012 311.361 555.803 309.237 556.012 307.242C556.255 304.763 557.006 302.316 557.741 299.901Z" fill="#C2D1D9"/>
<path d="M375.483 271.631C376.767 267.366 378.197 263.126 379.562 258.878C379.368 258.813 379.182 258.749 378.988 258.676C377.543 261.091 375.976 263.465 374.675 265.929C370.855 273.198 368.998 280.83 369.611 288.842C369.724 290.271 370.201 291.79 370.976 293.042C372.971 296.248 378.076 296.668 380.49 293.704C383.293 290.271 384.48 286.257 384.666 281.977C383.866 282.591 383.374 283.342 382.833 284.061C382.251 284.82 381.686 285.603 380.991 286.282C378.334 288.85 375.297 288.357 374.32 285.03C373.747 283.091 373.537 280.967 373.747 278.972C373.997 276.501 374.756 274.054 375.483 271.631Z" fill="#C2D1D9"/>
<path d="M19.2096 720.103C20.4938 715.839 21.9233 711.598 23.2882 707.35C23.0944 707.286 22.9087 707.221 22.7148 707.148C21.2691 709.563 19.7023 711.938 18.402 714.401C14.5818 721.67 12.7242 729.302 13.338 737.314C13.4511 738.744 13.9276 740.262 14.7029 741.514C16.6978 744.72 21.8022 745.14 24.2171 742.176C27.0196 738.744 28.2068 734.73 28.3926 730.449C27.593 731.063 27.1004 731.814 26.5592 732.533C25.9777 733.292 25.4124 734.075 24.7178 734.754C22.0606 737.322 19.0239 736.829 18.0466 733.502C17.4732 731.564 17.2632 729.439 17.4732 727.444C17.7235 724.973 18.4746 722.526 19.2096 720.103Z" fill="#C2D1D9"/>
<path d="M610.425 234.523C608.721 237.156 606.96 239.773 605.03 242.244C602.494 245.491 599.772 248.592 597.066 251.831C597.478 252 597.616 252.113 597.704 252.081C598.068 251.96 598.472 251.863 598.771 251.637C604.86 246.993 610.377 241.8 614.52 235.282C617.088 231.252 617.96 226.842 617.581 222.133C617.419 220.058 616.66 218.265 614.819 217.191C612.46 215.818 607.049 216.609 605.272 218.725C603.067 221.374 601.63 224.419 601.702 228.045C604.19 227.642 606.346 227.044 608.519 227.004C611.006 226.955 612.307 228.845 611.717 231.244C611.443 232.391 611.055 233.554 610.425 234.523Z" fill="#C2D1D9"/>
<path d="M508.448 172.384C506.744 175.017 504.984 177.634 503.053 180.106C500.517 183.352 497.795 186.454 495.09 189.692C495.502 189.862 495.639 189.975 495.728 189.943C496.091 189.822 496.495 189.725 496.794 189.499C502.884 184.855 508.4 179.661 512.543 173.144C515.112 169.113 515.984 164.704 515.604 159.995C515.443 157.919 514.684 156.126 512.842 155.052C510.484 153.679 505.072 154.471 503.296 156.587C501.091 159.236 499.653 162.281 499.726 165.907C502.213 165.503 504.37 164.906 506.542 164.865C509.03 164.817 510.33 166.707 509.741 169.105C509.474 170.252 509.078 171.423 508.448 172.384Z" fill="#C2D1D9"/>
<path d="M639.361 727.033C637.656 729.666 635.896 732.282 633.965 734.754C631.429 738.001 628.708 741.102 626.002 744.341C626.414 744.51 626.551 744.623 626.64 744.591C627.003 744.47 627.407 744.373 627.714 744.147C633.804 739.503 639.32 734.31 643.463 727.792C646.032 723.762 646.904 719.352 646.524 714.643C646.363 712.568 645.604 710.775 643.762 709.7C641.404 708.327 635.993 709.119 634.216 711.235C632.011 713.884 630.573 716.929 630.646 720.555C633.134 720.151 635.29 719.554 637.463 719.513C639.95 719.465 641.25 721.355 640.661 723.754C640.386 724.9 639.991 726.071 639.361 727.033Z" fill="#C2D1D9"/>
<path d="M617.661 530.449C617.5 528.373 616.74 526.58 614.899 525.506C612.541 524.133 607.129 524.925 605.352 527.041C603.148 529.69 601.71 532.735 601.783 536.361C604.27 535.957 606.427 535.359 608.599 535.319C611.087 535.271 612.387 537.16 611.798 539.559C611.523 540.69 611.127 541.861 610.497 542.83C608.793 545.463 607.032 548.08 605.102 550.551C602.566 553.798 599.844 556.899 597.139 560.138C597.551 560.308 597.688 560.421 597.777 560.389C598.14 560.267 598.544 560.17 598.843 559.944C604.932 555.3 610.449 550.107 614.592 543.589C617.168 539.567 618.041 535.158 617.661 530.449Z" fill="#C2D1D9"/>
<path d="M563.974 775.919C562.27 778.552 560.509 781.169 558.579 783.64C556.043 786.887 553.321 789.988 550.615 793.227C551.027 793.397 551.164 793.51 551.253 793.477C551.617 793.356 552.021 793.259 552.327 793.033C558.417 788.389 563.933 783.196 568.077 776.678C570.645 772.648 571.517 768.238 571.138 763.53C570.976 761.454 570.217 759.661 568.376 758.587C566.017 757.214 560.606 758.005 558.829 760.121C556.624 762.77 555.187 765.815 555.259 769.442C557.747 769.038 559.903 768.44 562.076 768.4C564.563 768.351 565.864 770.241 565.274 772.64C564.991 773.779 564.604 774.95 563.974 775.919Z" fill="#C2D1D9"/>
<path d="M411.054 712.278C409.35 714.91 407.589 717.527 405.659 719.999C403.123 723.245 400.401 726.347 397.695 729.585C398.107 729.755 398.245 729.868 398.333 729.836C398.697 729.715 399.109 729.618 399.408 729.392C405.497 724.748 411.014 719.554 415.157 713.037C417.725 709.006 418.597 704.597 418.218 699.888C418.056 697.812 417.297 696.019 415.456 694.945C413.097 693.572 407.686 694.364 405.909 696.48C403.704 699.129 402.267 702.174 402.339 705.8C404.827 705.396 406.983 704.799 409.156 704.758C411.643 704.71 412.944 706.6 412.354 708.998C412.08 710.137 411.684 711.308 411.054 712.278Z" fill="#C2D1D9"/>
<path d="M95.2825 789.415C101.372 784.771 106.888 779.577 111.032 773.06C113.6 769.029 114.472 764.62 114.093 759.911C113.931 757.835 113.172 756.042 111.331 754.968C108.972 753.595 103.561 754.387 101.784 756.503C99.5792 759.152 98.1416 762.197 98.2143 765.823C100.702 765.419 102.858 764.822 105.031 764.781C107.518 764.733 108.819 766.623 108.229 769.021C107.955 770.152 107.559 771.323 106.929 772.292C105.225 774.925 103.464 777.542 101.534 780.014C98.9977 783.26 96.2759 786.362 93.5703 789.6C93.9822 789.77 94.1195 789.883 94.2083 789.851C94.5799 789.738 94.9837 789.641 95.2825 789.415Z" fill="#C2D1D9"/>
<path d="M374.136 528.541C372.432 531.174 370.671 533.791 368.741 536.263C366.205 539.509 363.483 542.611 360.777 545.849C361.189 546.019 361.327 546.132 361.415 546.1C361.779 545.979 362.183 545.882 362.481 545.656C368.571 541.012 374.087 535.818 378.231 529.301C380.799 525.27 381.671 520.861 381.292 516.152C381.13 514.076 380.371 512.283 378.53 511.209C376.171 509.836 370.76 510.628 368.983 512.744C366.778 515.393 365.341 518.438 365.413 522.064C367.901 521.66 370.057 521.063 372.23 521.022C374.717 520.974 376.018 522.864 375.428 525.262C375.162 526.409 374.766 527.572 374.136 528.541Z" fill="#C2D1D9"/>
<path d="M602.375 382.848C601.826 382.848 601.131 382.436 600.307 381.604C599.468 380.772 599.056 380.086 599.056 379.528C599.136 375.183 598.781 371.153 597.99 367.438C597.594 365.306 596.883 364.231 595.857 364.231C595.227 364.231 594.904 365.378 594.904 367.672C595.147 378.18 595.978 384.625 597.4 386.991C598.668 388.97 600.324 389.955 602.375 389.955C606.244 389.955 608.505 387.387 609.135 382.25C611.34 385.965 613.319 387.823 615.055 387.823C616.711 387.823 618.375 386.935 620.03 385.15C621.686 383.373 622.243 380.788 621.686 377.388C620.03 371.936 618.568 368.068 617.3 365.774C616.905 363.093 616.315 361.744 615.524 361.744C614.966 361.744 614.433 362.552 613.925 364.175C613.408 365.798 613.23 367.002 613.383 367.793C615.362 373.164 616.864 377 617.89 379.294C617.414 380.239 616.549 380.522 615.289 380.126C613.949 379.73 612.721 378.624 611.615 376.807C610.985 375.781 610.112 373.923 609.014 371.234C608.691 368.94 608.497 367.325 608.416 366.372C608.263 364.482 607.746 363.529 606.882 363.529C605.38 363.529 604.75 364.95 604.992 367.793C605.065 368.027 605.42 369.651 606.058 372.655C606.607 375.345 606.89 377.752 606.89 379.884C606.874 381.863 605.371 382.848 602.375 382.848Z" fill="#C2D1D9"/>
</g>
</svg>
