<svg width="710" height="323" viewBox="0 0 710 323" fill="none" xmlns="http://www.w3.org/2000/svg">
<g opacity="0.05">
<path d="M704.766 308.278C699.702 319.093 684.737 342.119 659.845 377.373C658.044 379.901 656.356 382.275 654.619 384.731C652.075 363.756 650.121 347.021 650.201 345.794C652.915 348.596 655.467 350.922 657.882 352.756C658.763 353.337 659.384 353.636 659.764 353.636C660.346 353.636 660.644 353.24 660.644 352.473C660.644 350.058 658.326 343.912 653.682 334.067C650.783 327.686 647.835 321.306 644.839 314.925C643.102 310.774 641.753 308.682 640.776 308.682C640.38 308.682 640.106 309.03 639.912 309.7C636.229 320.91 634.695 327.056 635.268 328.106C637.586 332.75 638.886 335.601 639.169 336.667C641.002 355.793 642.319 370.435 643.086 380.595C643.7 386.104 644.378 392.024 645.081 398.122C624.074 427.673 607.687 450.675 596.089 466.901C576.059 447.97 560.108 433.367 548.244 423.07C540.119 415.236 528.836 403.694 517.529 391.919C524.345 387.889 531.347 383.576 538.705 378.73C560.657 364.273 573.2 354.734 576.301 350.099C580.372 344.065 582.827 335.31 583.667 323.834C584.063 317.76 583.328 309.231 581.43 298.272C584.475 298.861 584.846 299.144 586.575 299.402C594.021 299.402 600.386 296.85 605.716 291.722C608.317 289.21 611.749 283.605 615.997 274.898C615.715 279.445 616.579 283.274 618.598 286.359C621.126 290.026 625.075 293.224 630.495 295.921C634.864 298.11 638.394 299.176 641.22 299.297V299.402C641.366 299.402 641.503 299.378 641.64 299.378C641.689 299.378 641.753 299.402 641.794 299.402V299.362C651.599 299.168 660.111 294.12 667.299 284.178C673.397 275.779 676.232 262.291 675.861 243.731C669.779 185.758 655.37 65.7489 650.452 29.8003C655.37 35.2116 657.931 38.0141 658.133 38.1999C658.9 38.7814 659.53 39.0802 660.014 39.0802C660.596 39.0802 660.895 38.5956 660.895 37.6184C660.895 32.0213 655.912 19.7935 645.953 0.951001C644.217 -3.49916 642.868 -5.72827 641.891 -5.72827C641.511 -5.72827 641.22 -5.38099 641.027 -4.71064C637.925 4.96502 636.383 11.0951 636.383 13.6958C636.383 15.0607 636.665 16.1268 637.247 16.8941C638.797 19.0101 639.662 20.375 639.864 20.9565C640.728 37.1822 643.046 63.9397 644.693 76.8864C654.458 152.079 667.154 255.006 667.154 263.89C667.154 265.142 667.057 265.909 666.871 266.208C664.739 270.739 662.139 273.889 659.029 275.633C655.249 277.911 649.434 279.033 641.648 279.082C639.242 279.041 635.866 277.733 631.488 275.116C627.054 272.467 624.276 270.149 623.161 268.154C622.047 266.176 621.247 264.52 620.763 263.155C621.53 260.942 621.926 259.157 621.926 257.792C621.926 254.028 619.511 255.28 614.681 261.572C614.285 262.057 613.082 264.269 611.063 268.235C609.326 271.619 607.864 273.695 606.701 274.478C602.776 277.265 596.808 278.726 589.014 278.993C583.174 278.573 578.385 277.992 574.759 277.216C570.858 271.934 568.12 268.364 566.593 266.523C564.922 264.181 563.759 264.245 563.096 266.717C561.651 272.548 560.455 278.371 559.51 284.219C565.438 292.537 571.48 307.996 577.553 330.562C568.507 340.14 555.884 349.735 539.658 359.33C532.906 363.255 521.09 369.547 504.372 378.132C490.706 363.716 478.979 351.084 475.563 347.28C481.112 347.175 484.851 347.062 486.797 346.957C488.356 346.852 489.131 346.505 489.131 345.875C489.131 345.245 482.961 340.932 470.612 332.92C460.597 326.378 455.154 323.099 454.273 323.099C453.692 323.099 453.449 323.406 453.546 324.028C453.167 332.863 452.868 338.905 452.682 342.127C452.585 342.951 453.264 343.726 454.717 344.453C455.889 345.196 456.753 345.552 457.334 345.552C460.306 350.406 475.482 368.335 490.206 385.361C490.141 385.393 490.093 385.417 490.028 385.449C481.418 389.827 462.099 397.241 432.071 407.684C408.988 415.672 397.35 421.269 397.14 424.443C397.108 424.927 397.673 425.218 398.828 425.291C400.556 425.404 403.141 425.129 406.581 424.475C437.813 419.339 459.822 415.93 472.615 414.25C481.984 410.721 492.136 406.012 503.063 400.149C507.958 405.738 512.303 410.681 515.412 414.178C523.772 423.643 535.733 435.282 551.28 449.117C573.555 468.767 585.371 479.282 586.72 480.631C580.202 490.517 576.374 497.115 575.203 500.435C571.795 510.627 570.091 520.085 570.091 528.824C570.091 540.583 574.08 546.455 582.044 546.455C585.638 546.455 591.001 543.911 598.1 538.814C604.9 533.92 608.987 529.979 610.344 526.958C612.775 521.765 613.986 515.788 613.986 509.028C613.986 504.037 613.308 498.012 611.951 490.929C611.087 486.357 607.767 480.591 602.033 473.621C620.698 448.228 635.543 427.964 646.745 412.619C653.052 466.021 661.404 531.562 664.271 554.337C665.135 562.834 665.086 570.999 664.117 578.825C663.35 585.02 663.487 588.105 664.553 588.105C665.224 588.105 666.29 586.757 667.752 584.043C671.515 576.992 673.397 565.451 673.397 549.395C673.397 544.864 673.211 540.179 672.816 535.333C671.168 516.394 668.947 499.175 663.915 460.028C662.058 445.337 659.078 421.511 656.364 399.398C661.711 392.032 665.83 386.314 668.398 382.679C687.45 355.534 699.266 336.611 703.846 325.893C707.351 317.574 709.095 310.459 709.095 304.539C709.095 303.287 708.91 302.665 708.514 302.665C707.779 302.657 706.519 304.531 704.766 308.278ZM608.502 511.047C608.688 511.774 605.676 514.116 599.465 518.066C592.648 522.33 587.164 524.462 582.981 524.462C578.498 524.462 576.277 522.29 576.277 517.92C576.277 514.48 578.264 509.505 582.254 502.939C585.759 497.543 589.305 492.124 592.899 486.729C602.913 497.22 608.107 505.329 608.502 511.047Z" fill="#C2D1D9"/>
<path d="M631.609 109.077C631.609 97.681 628.225 89.653 621.465 85.009C618.663 82.8929 609.585 78.2086 594.215 70.9478C581.737 65.165 571.593 58.4372 563.766 50.8049C570.527 51.2007 574.492 50.7565 575.647 49.5046C576.511 48.5354 575.251 47.0898 571.883 45.1595C571.197 44.7637 570.422 44.376 569.565 43.9964L548.542 33.9977C546.895 33.1174 545.877 32.8832 545.497 33.2628C545.199 33.7474 545.061 34.5308 545.061 35.5807V47.9055C545.061 51.1038 545.829 53.1229 547.379 54.0032C550.077 55.6347 551.878 56.9997 552.742 58.0496C559.704 67.5314 567.764 75.406 576.947 81.6896C582.076 85.1705 589.894 89.3703 600.434 94.297C610.093 98.941 617.096 102.907 621.457 106.178C625.035 108.794 626.82 111.023 626.82 112.857C626.82 114.109 626.053 115.409 624.502 116.758C620.924 120.239 607.541 129.567 584.354 144.743C558.735 161.364 541.395 169.667 532.3 169.667C528.149 169.667 524.668 168.367 521.874 165.766C518.393 162.867 516.656 158.554 516.656 152.86C516.656 152.399 516.737 151.818 516.753 151.333C521.857 147.182 526.154 143.16 529.571 139.291C532.082 136.489 534.166 132.192 535.814 126.385C537.066 121.741 537.696 117.727 537.696 114.359C537.696 107.583 535.862 99.7648 532.195 90.8726C529.877 85.3563 527.511 79.8077 525.096 74.1945C529.046 75.2606 531.509 75.7937 532.478 75.7937C533.245 75.7937 533.641 75.6079 533.641 75.2122C533.641 74.5418 532.478 73.0961 530.16 70.867C524.563 65.3508 519.58 59.988 515.235 54.7624C514.564 53.9952 514.072 53.5994 513.773 53.5994C513.191 53.5994 512.707 54.4474 512.327 56.1354C511.931 57.8315 511.447 60.7633 510.865 64.9146C510.195 69.3486 510.001 71.925 510.284 72.5954C510.381 73.08 511.019 74.243 512.182 76.0764C513.345 77.9097 514.346 80.2277 515.227 83.0222C516.874 88.7323 519.911 96.413 524.353 106.081C528.319 114.577 530.297 119.27 530.297 120.126C530.297 122.411 526.711 126.377 519.782 131.869C520.686 128.033 521.72 123.986 523.029 119.488C523.715 117.468 524.046 115.91 524.046 114.844C524.046 114.173 523.901 113.826 523.61 113.826C522.94 113.826 521.979 115.425 520.727 118.623C518.465 124.188 516.777 129.688 515.364 135.156C505.478 142.368 491.991 150.663 474.505 160.145C461.542 167.091 445.357 174.723 425.933 183.034C398.012 194.93 382.723 201.456 380.123 202.611C372.878 205.979 369.26 207.926 369.26 208.41C369.26 208.507 369.542 208.555 370.124 208.555C371.376 208.555 374.671 208.16 379.985 207.392C385.001 206.512 397.439 203.677 417.234 198.831C435.891 194.3 445.551 192.031 446.221 192.031C449.815 192.031 461.445 186.369 481.168 175.07C493.404 168.036 503.677 161.34 512.101 154.944C511.94 157.286 511.729 159.628 511.729 161.946C511.729 180.7 518.829 190.068 533.051 190.068C540.668 190.068 556.91 181.669 581.745 164.845C601.653 151.705 614.697 142.336 620.892 136.723C624.171 133.727 626.303 131.312 627.272 129.478C628.718 126.878 629.97 122.428 631.036 116.136C631.423 113.858 631.609 111.492 631.609 109.077Z" fill="#C2D1D9"/>
<path d="M389.741 361.146C397.761 344.718 408.341 331.812 421.49 322.435C424.389 320.416 436.665 312.776 458.31 299.53C476.967 288.223 487.014 281.56 488.468 279.525C490.786 274.307 492.668 269.583 494.122 265.318C494.897 263.485 495.285 262.136 495.285 261.256C495.285 260.674 494.994 260.392 494.412 260.392C493.742 260.392 492.337 261.062 490.213 262.411C469.529 275.269 451.413 286.382 435.85 295.759C434.202 295.944 432.562 296.041 430.915 296.041C416.224 296.041 402.267 290.63 389.022 279.816C377.424 270.253 371.625 261.991 371.625 255.029C371.625 251.16 379.064 246.904 393.949 242.268C408.244 237.834 420.375 235.605 430.325 235.605C434.388 235.605 441.35 236.905 451.203 239.506C452.56 239.901 453.675 240.087 454.539 240.087C455.702 240.087 456.275 239.708 456.275 238.924C456.275 236.13 451.542 232.544 442.069 228.199C431.052 223.183 419.406 220.752 407.13 220.954C395.725 221.14 385.63 225.388 376.835 233.699C367.563 242.397 362.919 253.074 362.919 265.746C362.919 274.243 366.448 282.457 373.499 290.396C378.619 296.106 385.622 301.606 394.514 306.92C399.538 309.723 404.569 312.534 409.593 315.32C400.894 323.049 392.632 335.229 384.798 351.85C376.277 370.24 371.892 387.879 371.278 404.848C361.917 409.815 354.511 413.797 351.571 415.453L350.828 423.456C355.827 420.605 363.032 416.712 371.173 412.4C372.707 458.403 403.568 481.462 463.948 481.462C476.701 481.462 488.492 480.048 499.315 477.262C510.137 473.878 520.96 470.486 531.782 467.102C539.996 464.59 546.328 462.854 550.778 461.884C554.93 461.02 557.014 460.003 557.014 458.84C557.014 457.588 554.889 456.958 550.633 456.958C549.284 456.958 547.839 457.055 546.288 457.257C519.999 460.342 498.741 461.787 482.508 461.602C452.059 461.206 429.106 457.733 413.647 451.159C393.545 442.565 382.327 428.092 379.936 407.788C405.256 394.518 435.381 379.27 440.922 376.637L441.511 368.488C430.866 373.592 401.969 388.639 379.5 400.503C379.492 400.083 379.427 399.695 379.427 399.275C379.451 387.879 382.884 375.167 389.741 361.146Z" fill="#C2D1D9"/>
<path d="M510.217 365.191C510.887 365.191 511.953 363.842 513.407 361.128C517.179 354.069 519.061 342.536 519.061 326.48C519.061 321.949 518.867 317.265 518.479 312.419C516.84 293.479 517.704 305.384 512.68 266.237C508.529 233.374 506.542 215.598 506.736 212.884C509.441 215.686 512.002 218.012 514.417 219.846C515.289 220.427 515.911 220.726 516.306 220.726C516.888 220.726 517.179 220.33 517.179 219.563C517.179 217.148 514.861 211.002 510.217 201.157C507.317 194.776 504.369 188.396 501.373 182.015C499.637 177.864 498.28 175.772 497.31 175.772C496.923 175.772 496.64 176.12 496.438 176.79C492.763 188 491.221 194.146 491.794 195.196C494.112 199.84 495.421 202.691 495.711 203.757C497.545 222.883 498.845 237.525 499.62 247.686C505.807 303.155 506.429 303.777 509.91 331.415C510.782 339.911 510.734 348.077 509.773 355.903C509.005 362.106 509.151 365.191 510.217 365.191Z" fill="#C2D1D9"/>
<path d="M693.304 38.8814C693.886 38.8814 694.185 38.4856 694.185 37.7183C694.185 35.3035 691.867 29.1572 687.223 19.312C684.323 12.9315 681.375 6.55107 678.379 0.170625C676.643 -3.9807 675.294 -6.07251 674.316 -6.07251C673.921 -6.07251 673.646 -5.72522 673.452 -5.05487C669.769 6.15533 668.235 12.3015 668.808 13.3515C671.126 17.9955 672.427 20.8465 672.709 21.9126C674.543 41.0378 676.925 67.8437 677.692 78.004C683.871 133.473 696.535 235.908 700.016 263.554C700.88 272.05 700.832 280.216 699.863 288.042C699.095 294.236 699.233 297.322 700.299 297.322C700.969 297.322 702.035 295.973 703.497 293.259C707.261 286.2 709.142 274.667 709.142 258.611C709.142 254.08 708.957 249.396 708.561 244.55C706.913 225.61 703.594 196.575 698.562 157.428C694.411 124.565 683.54 33.7528 683.734 31.0391C686.447 33.8416 689 36.1677 691.414 38.001C692.295 38.5825 692.925 38.8814 693.304 38.8814Z" fill="#C2D1D9"/>
<path d="M49.6668 24.3563C44.8209 20.843 42.3656 19.8577 39.8458 17.7659C30.2589 25.2124 27.4079 34.1531 27.1333 35.2757C26.4791 37.4564 28.4579 38.789 31.3089 40.3963C37.229 43.9984 37.7701 44.5153 44.3686 48.4163C48.1242 44.7334 51.9605 40.9293 54.5288 36.9234C55.0215 38.2156 56.5803 39.2333 58.6317 40.3963C64.5518 43.9984 65.0929 44.5153 71.6914 48.4163C77.2561 42.9485 83.2489 37.2868 84.5331 30.971C84.9288 29.0084 81.5529 27.6758 76.9896 24.3563C72.1437 20.843 69.6885 19.8577 67.1686 17.7659C61.9512 21.8203 58.7771 26.2785 56.8791 29.711C55.9745 28.3057 53.2043 26.9246 49.6668 24.3563Z" fill="#C2D1D9"/>
<path d="M602.766 226.977C608.476 230.45 609.001 230.951 615.373 234.715C620.744 229.441 626.527 223.973 627.763 217.883C628.15 215.993 624.887 214.701 620.478 211.503C615.801 208.111 613.435 207.166 611.004 205.146C601.756 212.335 599.002 220.96 598.736 222.043C598.106 224.151 600.02 225.427 602.766 226.977Z" fill="#C2D1D9"/>
<path d="M550.08 211.367C540.832 218.555 538.078 227.18 537.812 228.263C537.182 230.371 539.096 231.647 541.842 233.206C547.552 236.678 548.077 237.179 554.449 240.943C559.82 235.669 565.603 230.201 566.839 224.111C567.227 222.221 563.964 220.929 559.554 217.731C554.886 214.339 552.511 213.386 550.08 211.367Z" fill="#C2D1D9"/>
<path d="M12.6948 88.0696C12.8887 87.1005 12.9775 86.3332 12.9775 85.7517C12.9775 85.1702 12.8402 84.8229 12.5575 84.734C11.9033 84.734 11.0553 85.8486 10.0134 88.0696C4.25488 100.919 1.37157 112.404 1.36349 122.564C1.34734 137.538 6.13671 149.475 15.7316 158.376C25.7949 167.761 39.8239 172.469 57.8103 172.485C60.3786 172.485 63.3265 172.178 66.1614 171.968V172.106C87.8064 171.645 111.802 166.242 133.826 159.668C141.935 208.854 148.453 251.829 148.453 262.894C148.453 266.173 148.308 268.838 148.025 270.857C146.523 280.339 133.843 294.11 109.985 312.185C108.781 313.097 107.65 313.873 106.471 314.745C106.415 314.382 106.35 313.97 106.302 313.647C104.274 301.088 101.222 287.979 97.1671 274.354C92.8139 259.76 89.4298 252.467 87.015 252.467C86.5304 252.467 86.1427 252.701 85.8519 253.186C84.1155 260.334 82.5648 266.181 81.2079 270.728C81.2079 271.31 82.9444 277.294 86.4254 288.698C90.2859 301.08 92.7493 310.933 93.8154 318.283C94.0092 319.575 94.2515 321.206 94.5261 323.023C76.7012 334.581 61.8647 340.453 50.0972 340.453C23.1378 340.453 9.65808 326.189 9.65808 297.687C9.65808 284.741 11.9599 272.804 16.5635 261.876C17.5973 259.364 18.1142 257.442 18.1142 256.077C18.1142 255.011 17.8315 254.478 17.2661 254.478C15.8608 254.478 14.2132 256.562 12.3314 260.721C5.28868 276.18 1.76731 291.452 1.76731 306.531C1.76731 322.571 5.61981 335.679 13.3248 345.815C21.3125 356.258 31.925 361.46 45.1624 361.46C59.7244 361.46 76.0632 355.863 94.195 344.652C95.3015 343.966 96.3191 343.199 97.4094 342.488C104.21 388.758 117.035 477.568 119.386 500.876C121.994 526.681 124.7 544.175 127.511 553.349C129.635 560.408 133.544 567.128 139.254 573.508C143.518 578.266 148.009 581.617 152.653 583.741C172.844 592.981 214.656 596.252 261.25 594.475C292.578 593.28 323.059 593.361 360.736 581.504C370.654 578.387 377.842 573.638 383.06 569.478C382.478 578.274 384.311 585.187 388.56 590.203C392.42 594.75 397.694 597.019 404.365 597.019C412.482 597.019 420.171 593.724 427.416 587.158C432.141 581.747 435.331 577.692 436.978 574.978C439.006 581.076 440.217 584.404 440.597 584.977C443.012 588.757 447.219 590.639 453.212 590.639C462.678 590.639 471.142 582.239 478.589 565.416C478.879 570.246 480.131 574.211 482.352 577.296C486.407 583.055 493.886 586.1 504.676 586.512V586.584C504.797 586.584 504.934 586.552 505.055 586.552C505.185 586.552 505.282 586.584 505.403 586.584V586.52C511.137 586.35 517.687 584.234 525.117 580.067C531.878 576.287 536.853 572.523 540.043 568.759C548.168 559.294 551.544 549.473 550.195 539.329C549.226 532.464 544.881 524.532 537.143 515.543C528.542 505.795 526.345 503.307 525.473 500.707C527.5 501.086 529.915 501.288 532.726 501.288C534.365 501.288 535.189 500.804 535.189 499.826C535.189 498.663 533.985 497.08 531.571 495.045C524.512 489.828 518.576 485.531 513.738 482.139C512.284 480.79 511.274 481.606 510.693 484.602C509.917 490.797 509.384 495.715 509.094 499.39C508.706 500.456 509.627 500.989 511.856 500.989C515.232 511.134 518.794 517.579 527.589 527.723C536.861 538.351 542.175 545.362 543.532 548.746C544.307 550.579 540.439 553.858 531.942 558.591C522.638 563.623 513.73 566.143 505.168 566.24C501.478 566.199 497.787 565.173 494.104 563.09C490.913 560.772 488.741 558.212 487.586 555.409C486.423 552.606 485.599 550.531 485.123 549.166C486.084 546.169 486.326 544.336 485.841 543.666C485.26 542.898 482.837 542.842 481.351 545.265C477.967 551.548 475.931 555.595 475.261 557.428C470.617 566.425 464.729 570.536 457.574 569.753C453.132 569.284 448.641 565.892 444.094 559.609C446.218 552.849 447.284 549.416 447.284 549.327C447.284 548.657 446.993 548.31 446.412 548.31C446.024 548.31 445.54 548.455 444.958 548.746C440.71 552.994 437.52 556.911 435.395 560.489C432.973 564.439 429.403 567.968 424.662 571.069C419.347 574.348 414.17 575.988 409.147 575.988C400.545 575.988 394.165 571.255 390.013 561.781C390.975 558.486 391.734 555.966 392.267 554.165C392.8 552.38 392.921 551.096 393.066 550.321C393.18 549.707 393.301 548.891 392.485 549.319C392.178 549.44 391.128 549.941 388.859 551.338C375.573 558.325 364.573 562.71 355.616 564.794C354.994 564.931 310.218 574.946 256.153 575.568C218.396 576.004 186.558 574.922 156.231 563.881C152.927 562.678 149.947 559.69 146.789 556.104C139.545 547.89 134.998 536.445 133.164 521.754C132.098 509.09 131.088 496.434 130.119 483.77C128.447 464.605 115.759 376.926 109.379 334.032C119.507 326.238 128.69 317.556 136.75 307.815C146.959 295.499 152.588 284.91 153.719 276.059C157.628 299.812 166.488 336.77 186.114 366.475C181.647 380.149 179.297 393.435 179.297 406.292C179.297 444.672 198.01 470.178 236.342 475.532C242.512 476.396 249.135 476.655 255.653 476.461C255.071 477.697 254.457 479.126 253.811 480.822C249.854 491.088 247.406 500.368 246.3 508.775C213.017 525.857 177.908 544.053 172.311 547.203L171.568 555.207C182.431 549.021 215.092 532.229 245.622 516.706C245.597 517.651 245.549 518.588 245.549 519.533C245.549 532.674 247.964 543.738 252.794 552.72C258.98 564.027 268.26 569.729 280.625 569.826C297.344 569.922 316.865 561.515 339.188 544.603C355.906 531.947 367.553 520.833 374.127 511.255C378.569 502.572 380.556 492.751 380.071 481.824C379.49 468.11 374.902 456.803 366.301 447.911C359.735 441.046 353.887 437.613 348.767 437.613C343.259 437.613 338.081 440.609 333.252 446.61C328.034 453.088 325.514 460.768 325.708 469.653C325.902 480.184 331.507 485.458 342.532 485.458C343.687 485.458 346.635 485.361 351.375 485.159C357.368 484.877 362.828 485.991 367.755 488.495C371.906 490.611 374.28 492.792 374.854 495.013C372.059 500.61 361.229 510.326 342.386 524.145C319.675 540.871 301.123 549.23 286.723 549.23C264.012 549.23 252.543 537.196 252.042 513.443C278.978 499.778 302.86 487.809 306.551 486.056L307.14 477.907C300.098 481.283 277.233 492.905 252.252 505.714C252.608 501.692 253.197 497.613 254.247 493.422C255.023 490.522 256.274 486.759 258.019 482.115C258.883 479.797 259.44 477.915 259.828 476.283C267.549 475.799 274.947 474.644 281.077 472.956C302.852 466.963 327.453 452.716 347.814 392.7C365.881 339.467 334.625 324.994 293.96 325.164C288.427 325.188 278.485 325.083 269.472 325.115C263.551 325.14 258.035 325.228 254.441 325.455C240.275 326.335 227.708 328.637 217.176 337.747C210.295 343.699 210.481 352.454 215.908 367.469C215.908 367.469 206.806 363.915 199.359 355.136C206.919 340.412 216.514 328.572 228.338 319.898C229.719 318.904 233.329 316.546 239.104 312.847C249.821 313.324 259.085 312.912 266.766 312.088L266.58 312.241C270.126 312.241 276.716 311.119 283.993 309.221C289.945 307.815 293.095 306.555 293.095 306.555L293.128 306.515C303.191 303.155 312.818 298.616 316.307 293.665C322.219 285.266 324.989 271.778 324.618 253.218C322.292 230.402 318.908 196.303 315.37 161.146C320.87 160.354 326.774 159.143 332.646 157.326C338.413 208.854 342.96 247.936 346.271 274.249C347.143 282.746 347.095 290.911 346.134 298.737C345.358 304.932 345.496 308.017 346.562 308.017C347.232 308.017 348.298 306.669 349.752 303.955C353.524 296.904 355.406 285.363 355.406 269.307C355.406 264.776 355.212 260.091 354.824 255.245C353.185 236.306 349.849 207.271 344.825 168.124C344.317 164.11 343.735 159.062 343.097 153.304C343.832 152.956 344.583 152.641 345.31 152.262C351.157 149.257 359.468 143.483 370.396 135.156C369.814 143.483 371.793 149.911 376.34 154.442C380.402 158.408 385.555 160.387 391.847 160.387C400.456 160.387 406.926 157.342 411.271 151.26C414.655 146.527 417.215 142.368 418.952 138.798C421.48 141.698 423.935 144.646 426.35 147.642C429.928 150.921 433.982 152.561 438.529 152.561C453.018 152.561 460.271 142.263 460.271 121.676C460.271 117.541 459.375 113.099 457.59 108.414C455.789 103.746 454.173 101.388 452.728 101.388C452.332 101.388 452.009 101.622 451.71 102.107C449.198 106.258 448.181 111.669 448.665 118.348C448.665 119.6 449.481 121.313 451.129 123.493C452.776 125.674 453.592 127.289 453.592 128.355C453.592 129.607 452.009 130.819 448.811 131.974C446.097 132.943 443.795 133.419 441.849 133.419C435.67 133.419 430.404 130.536 426.043 124.737C428.272 117.29 429.378 113.091 429.378 112.113C429.378 111.047 429.096 110.53 428.514 110.53C428.119 110.627 427.731 110.765 427.351 110.95C423.571 114.528 420.672 118.542 418.653 122.992C413.137 135.269 405.125 141.399 394.585 141.399C386.856 141.399 380.871 137.151 376.607 128.638C377.277 124.487 377.673 121.926 377.77 120.957C377.866 120.004 377.923 119.221 377.923 118.639C377.923 117.105 377.487 116.321 376.607 116.321C376.025 116.321 374.959 116.854 373.424 117.92C358.919 127.782 349.033 134.469 343.121 136.327C342.532 136.513 341.926 136.666 341.336 136.844C336.894 94.0139 331.378 33.0686 331.531 30.9687C334.237 33.7713 336.797 36.0973 339.212 37.9307C340.085 38.5122 340.706 38.811 341.102 38.811C341.684 38.811 341.974 38.4153 341.974 37.648C341.974 35.2331 339.656 29.0869 335.012 19.2416C332.113 12.8612 329.165 6.48073 326.169 0.100281C324.424 -4.05104 323.075 -6.14285 322.106 -6.14285C321.719 -6.14285 321.436 -5.79556 321.234 -5.12521C317.559 6.08498 316.016 12.2312 316.59 13.2811C318.908 17.9251 320.216 20.7762 320.507 21.8423C322.066 38.0599 328.519 111.314 330.918 139.404C324.836 140.624 318.876 141.407 313.416 141.875C308.578 94.0624 303.756 47.7356 301.196 28.5135C305.977 33.9247 308.473 36.7273 308.667 36.913C309.41 37.4946 310.024 37.7934 310.492 37.7934C311.057 37.7934 311.34 37.3088 311.34 36.3315C311.34 30.7345 306.502 18.5067 296.827 -0.335831C295.139 -4.78598 293.822 -7.01514 292.885 -7.01514C292.506 -7.01514 292.223 -6.66782 292.037 -5.99747C289.025 3.67819 287.531 9.80827 287.531 12.4089C287.531 13.7738 287.813 14.8399 288.379 15.6072C289.881 17.7233 290.729 19.0882 290.915 19.6697C291.69 34.5951 298.999 118.962 301.406 142.505C293.338 142.667 288.048 142.263 288.048 142.263C288.048 142.263 253.585 144.46 248.529 98.2057C247.463 85.5417 246.445 72.8858 245.468 60.2218C243.683 39.651 238.789 -4.33371 235.267 -29.6617H267.985C300.324 -29.6617 345.27 -34.0957 402.766 -43.004C423.402 -46.2104 441.509 -48.9645 456.58 -51.2663C458.93 -28.741 461.523 -3.50183 463.978 20.437C453.551 23.9825 435.323 28.99 409.131 35.4673C385.41 41.2986 373.303 45.7972 372.811 48.939C372.738 49.4155 373.271 49.7547 374.418 49.9404C376.138 50.2151 378.731 50.1747 382.212 49.8435C413.775 47.6063 436.009 46.2333 448.907 45.7407C454.311 44.2546 460.061 42.3485 466.014 40.184C469.325 72.2639 472.192 99.5302 473.614 110.813C474.478 119.31 474.429 127.475 473.46 135.301C472.693 141.496 472.83 144.581 473.896 144.581C474.567 144.581 475.633 143.232 477.095 140.519C480.858 133.468 482.74 121.926 482.74 105.87C482.74 101.339 482.554 96.655 482.159 91.8091C481.504 84.2817 479.437 62.2248 476.86 35.9358C489.484 30.7749 503.109 24.3783 517.97 16.4552C541.166 4.08202 554.524 -4.26103 558.045 -8.59004C562.649 -14.2274 565.904 -22.7078 567.794 -34.0634C568.747 -40.0723 568.787 -48.6334 567.907 -59.7305C570.629 -58.939 608.176 -47.4542 632.156 -67.6213C634.352 -69.4708 637.866 -75.5362 643.479 -85.01C647.331 -79.8814 653.478 -75.2132 661.885 -70.9488C669.219 -67.3709 674.743 -65.586 678.41 -65.586C681.705 -65.586 684.588 -67.9524 687.108 -72.6852C689.337 -77.1354 690.428 -81.8279 690.428 -86.7465C690.428 -96.4221 688.982 -104.474 686.082 -110.952C682.698 -118.584 677.869 -122.412 671.577 -122.412C663.848 -122.412 656.7 -116.169 650.134 -103.707C649.738 -104.377 649.318 -104.725 648.834 -104.725C647.767 -104.725 644.682 -100.993 639.554 -93.563C634.142 -85.6319 628.166 -82.3044 624.661 -80.4306C600.439 -67.4517 566.566 -80.2691 563.239 -81.311C559.83 -86.9322 557.448 -90.7363 556.091 -92.715C554.629 -95.2026 553.458 -95.243 552.586 -92.8442C550.607 -87.1745 548.879 -81.4806 547.384 -75.7462C552.537 -66.9105 557.109 -50.9675 561.098 -27.9414C551.197 -19.243 537.741 -10.8515 520.7 -2.78302C512.453 1.04524 497.132 7.40144 474.898 16.2614C472.507 -7.71779 469.914 -32.9811 467.693 -52.9705C489.12 -56.2657 502.172 -58.3737 504.086 -59.2298C506.622 -60.2151 508.544 -62.848 508.544 -62.848C514.675 -69.6242 517.736 -76.3762 517.736 -83.1524C517.736 -84.6869 517.485 -86.0034 517.025 -87.0695C514.133 -98.1182 507.034 -103.626 500.113 -106.477C491.81 -109.902 478.573 -111.525 460.626 -111.897C459.391 -122.703 458.809 -129.027 458.906 -130.537C461.62 -127.735 464.172 -125.409 466.587 -123.575C467.467 -122.994 468.089 -122.695 468.469 -122.695C469.05 -122.695 469.349 -123.091 469.349 -123.858C469.349 -126.273 467.031 -132.419 462.387 -142.264C459.488 -148.645 456.54 -155.025 453.543 -161.406C451.807 -165.557 450.458 -167.649 449.481 -167.649C449.085 -167.649 448.811 -167.302 448.617 -166.631C444.934 -155.421 443.399 -149.275 443.973 -148.225C446.291 -143.581 447.591 -140.73 447.874 -139.664C448.899 -128.979 449.747 -119.836 450.442 -111.953C439.127 -111.784 415.681 -109.878 379.805 -106.187C341.813 -102.326 310.032 -100.84 301.802 -100.751C283.436 -100.654 269.124 -102.003 258.875 -104.814C250.459 -107.228 246.3 -109.991 246.397 -113.076C246.583 -120.337 260.943 -133.913 289.461 -153.822C297.594 -159.516 307.641 -165.266 319.611 -171.065C330.231 -176.194 336.919 -178.932 339.697 -179.328C344.68 -179.513 347.741 -177.728 348.888 -173.965C349.946 -170.581 350.996 -168.885 352.038 -168.885C352.522 -168.885 353.532 -170.435 355.066 -173.529C358.402 -180.394 360.082 -185.223 360.082 -188.034C360.082 -193.445 356.06 -196.094 348.032 -195.997C333.47 -195.901 310.944 -184.933 280.407 -163.094C267.307 -153.717 257.744 -145.455 251.703 -138.307C244.144 -129.326 238.603 -118.398 235.057 -105.557C234.67 -104.289 234.484 -103.029 234.484 -101.777C234.484 -89.4036 251.889 -83.2332 286.723 -83.2332C301.18 -83.2332 337.169 -84.8 377.366 -88.9513C417.223 -93.0704 442.026 -95.1541 451.855 -95.1864C452.72 -87.3926 453.705 -78.2742 454.763 -68.2997C439.668 -66.4259 421.665 -64.1322 401.313 -61.4185C343.404 -53.7862 299.007 -49.9741 268.099 -49.9741H231.698C229.848 -59.0763 227.667 -68.3482 224.8 -77.9754C220.439 -92.5696 217.071 -99.8627 214.656 -99.8627C214.172 -99.8627 213.776 -99.6285 213.493 -99.1439C211.757 -91.9962 210.198 -86.1488 208.849 -81.6017C208.849 -81.0202 210.586 -75.0355 214.067 -63.6315C215.625 -58.6321 216.893 -54.1496 217.992 -49.9741H203.971C196.912 -50.8867 192.131 -51.9124 188.601 -53.027C185.225 -58.6483 182.867 -62.4523 181.526 -64.431C180.073 -66.9186 178.918 -66.959 178.053 -64.5603C176.099 -58.8906 174.387 -53.1966 172.901 -47.4623C178.005 -38.6266 182.536 -22.6835 186.477 0.342606C176.672 9.041 163.346 17.4325 146.474 25.5009C141.572 27.8027 134.069 31.0414 124.159 35.1523C119.822 15.3972 116.422 1.54601 115.469 1.5137C113.215 1.41678 111.293 7.54684 109.694 19.9201C110.776 25.9855 111.955 32.6325 113.199 39.6671C107.731 41.8963 101.738 44.3192 95.1561 46.9521C86.2638 50.5139 66.541 56.119 35.9794 63.7593C12.4929 69.5906 0.499294 74.0892 0.00662671 77.231C-0.0660619 77.7075 0.458916 78.0467 1.5977 78.2325C3.30185 78.507 5.87018 78.4667 9.31885 78.1356C40.575 75.8983 62.5916 74.5253 75.3686 74.0327C87.5884 70.6486 101.399 65.2697 116.486 58.3158C120.944 83.7245 125.936 112.638 130.628 140.64C105.034 148.038 81.8621 150.679 71.6857 151.535V151.478C67.4132 151.81 63.2054 152.06 59.2156 152.052C46.5031 152.036 35.4464 149.168 26.0292 143.458C14.7382 136.69 9.10079 127.305 9.10887 115.312C9.10887 111.831 9.59346 107.146 10.5384 101.251L12.6948 88.0696ZM353.823 465.744C350.923 465.744 347.975 465.792 344.979 465.881C341.013 465.695 338.502 464.718 337.435 462.981C337.629 458.636 340.198 456.456 345.116 456.456C349.179 456.456 354.202 459.791 360.195 466.454C358.071 466.083 355.947 465.832 353.823 465.744ZM666.658 -102.407C668.791 -102.407 670.794 -100.977 672.675 -98.1263C674.557 -95.2753 675.543 -92.1093 675.64 -88.6283C671.391 -89.1129 667.676 -90.4616 664.478 -92.6908C663.896 -93.0865 661.433 -95.2591 657.096 -99.2085C659.422 -101.341 662.604 -102.407 666.658 -102.407ZM464.859 -77.1839C464.019 -83.8066 463.3 -89.6459 462.638 -95.041C486.714 -94.3545 496.034 -90.4939 503.965 -74.3005C502.116 -73.9694 488.305 -72.3945 465.795 -69.6323C465.464 -72.3703 465.149 -74.9063 464.859 -77.1839ZM241.906 406.284C243.296 406.793 244.975 406.502 245.993 405.428C253.052 397.941 255.394 387.426 256.129 382.58C256.355 381.086 255.459 379.696 254.005 379.284C245.727 376.95 219.155 368.656 218.638 358.156C217.725 339.774 286.125 340.921 293.241 341.042C325.773 341.591 354.687 350.128 344.971 390.002C334.108 434.601 304.758 452.369 269.415 456.197C265.91 456.577 249.66 456.31 240.848 454.614C233.079 453.12 226.335 451.085 220.714 448.629C198.544 438.881 187.454 421.573 187.454 396.738C187.454 389.695 188.884 382.079 191.436 374.035C208.615 393.225 219.995 398.329 241.906 406.284ZM127.995 52.8642C133.14 50.312 138.341 47.6871 143.785 44.7553C166.754 32.3821 179.976 24.0391 183.473 19.7101C188.036 14.0727 191.25 5.59233 193.124 -5.76324C194.069 -11.7722 194.101 -20.3333 193.237 -31.4304C195.991 -30.6228 198.43 -30.0816 201.653 -29.799V-29.6617H222.111C225.939 -2.83955 231.988 50.0777 234.734 77.3279C237.351 103.132 240.049 120.626 242.851 129.801C244.967 136.86 249.078 143.418 254.595 149.96C265.207 162.567 290.309 162.567 290.309 162.567C290.309 162.567 295.777 162.858 303.797 162.349C312.019 228.068 316.13 265.107 316.13 273.377C316.13 274.629 316.041 275.396 315.847 275.695C314.668 278.296 313.311 280.379 311.817 282.067C299.847 289.643 283.807 292.963 268.543 294.198C283.775 284.612 292.118 278.845 293.402 276.987C295.656 271.77 297.489 267.045 298.894 262.781C299.645 260.947 300.025 259.599 300.025 258.718C300.025 258.137 299.742 257.854 299.177 257.854C298.523 257.854 297.158 258.524 295.098 259.873C274.988 272.731 257.381 283.844 242.262 293.221C240.663 293.407 239.072 293.504 237.472 293.504C223.193 293.504 209.625 288.093 196.759 277.278C185.484 267.716 179.854 259.453 179.854 252.491C179.854 248.623 187.083 244.374 201.556 239.73C215.456 235.296 227.239 233.067 236.915 233.067C240.864 233.067 247.625 234.368 257.203 236.968C258.52 237.364 259.602 237.55 260.45 237.55C261.581 237.55 262.13 237.17 262.13 236.387C262.13 233.592 257.526 230.006 248.327 225.661C237.626 220.646 226.303 218.215 214.374 218.416C203.293 218.602 193.471 222.85 184.927 231.161C175.913 239.86 171.406 250.537 171.406 263.209C171.406 271.705 174.831 279.919 181.688 287.85C186.663 293.56 193.472 299.06 202.113 304.375C205.053 306.063 208.001 307.751 210.941 309.439L210.707 309.721C211.046 309.778 211.361 309.818 211.692 309.875C213.38 310.844 215.076 311.813 216.764 312.782C208.599 320.245 200.837 331.956 193.463 347.705C183.263 333.846 171.439 312.564 164.768 282.746C164.727 282.568 164.687 282.391 164.646 282.221C164.049 279.523 163.613 276.592 163.104 273.757C161.747 264.097 160.342 248.623 158.161 227.656C155.342 200.882 152.33 178.365 149.139 160.104C148.873 158.594 148.574 156.906 148.251 155.137C173.765 146.681 194.836 137.676 203.494 134.873C220.843 129.26 226.399 135.955 214.454 150.226C199.868 167.647 178.288 186.765 175.97 190.625C173.652 194.478 180.016 190.633 180.016 190.633C180.016 190.633 200.926 174.238 212.71 161.889C225.721 148.256 234.129 133.435 232.99 120.077C231.851 106.726 190.338 118.163 153.194 132.975C150.367 134.106 147.532 135.14 144.697 136.141C140.118 112.073 133.689 79.7993 127.995 52.8642Z" fill="#C2D1D9"/>
<path d="M54.9765 260.895C57.5529 257.228 58.3363 253.836 58.8613 250.29C59.5962 245.307 60.4604 240.34 61.4296 235.397C61.8657 233.168 62.6734 230.987 65.2821 229.97C67.3093 231.117 69.3607 232.264 71.8645 233.677C72.3167 231.537 72.8579 230.002 72.9386 228.435C73.0598 226.029 70.6934 222.887 68.3916 222.014C66.0171 221.11 63.4326 221.91 61.6396 224.542C60.4685 226.255 59.4266 228.209 58.9097 230.212C57.4883 235.712 56.3656 241.285 55.1864 246.559C52.9331 242.497 50.6394 238.006 48.0226 233.725C45.5673 229.719 41.6502 226.101 36.4732 227.765C32.9841 228.888 32.5561 232.603 32.0715 235.575C31.8534 236.924 38.7265 242.117 43.8147 239.662C46.1085 243.151 48.491 246.276 50.3082 249.709C52.077 253.036 53.2562 256.695 54.9765 260.895Z" fill="#C2D1D9"/>
<path d="M445.412 -30.4775C428.516 -22.3768 365.64 10.7692 355.464 16.4955L354.721 24.4993C376.059 12.3441 436.713 -18.4759 444.814 -22.3283L445.412 -30.4775Z" fill="#C2D1D9"/>
<path d="M93.949 178.214C77.0529 186.315 14.1773 219.461 4.00086 225.187L3.25781 233.191C24.596 221.036 85.2506 190.216 93.3513 186.363L93.949 178.214Z" fill="#C2D1D9"/>
<path d="M206.926 209.976C228.264 197.821 261.24 181.894 269.341 178.042L269.931 169.893C253.035 177.993 217.837 196.246 207.661 201.972L206.926 209.976Z" fill="#C2D1D9"/>
<path d="M234.006 215.579C255.344 203.424 288.32 187.497 296.421 183.645L297.011 175.496C280.115 183.596 244.917 201.849 234.741 207.576L234.006 215.579Z" fill="#C2D1D9"/>
<path d="M118.575 236.632C119.859 232.368 121.289 228.128 122.653 223.88C122.46 223.815 122.274 223.75 122.08 223.678C120.634 226.093 119.068 228.467 117.767 230.93C113.947 238.199 112.089 245.832 112.703 253.844C112.816 255.273 113.293 256.791 114.068 258.043C116.063 261.25 121.167 261.67 123.582 258.706C126.385 255.273 127.572 251.259 127.758 246.978C126.958 247.592 126.466 248.343 125.924 249.062C125.343 249.821 124.778 250.605 124.083 251.283C121.426 253.852 118.389 253.359 117.412 250.031C116.838 248.093 116.628 245.969 116.838 243.974C117.089 241.495 117.848 239.047 118.575 236.632Z" fill="#C2D1D9"/>
<path d="M194.876 88.9647C196.871 92.1711 201.976 92.591 204.391 89.627C207.193 86.1944 208.38 82.1804 208.566 77.8999C207.767 78.5137 207.274 79.2648 206.733 79.9836C206.151 80.7428 205.586 81.5262 204.891 82.2047C202.234 84.773 199.197 84.2803 198.22 80.9528C197.647 79.0144 197.437 76.8903 197.647 74.8954C197.905 72.424 198.656 69.9768 199.391 67.5539C200.675 63.2895 202.105 59.0493 203.47 54.801C203.276 54.7364 203.09 54.6718 202.896 54.5991C201.451 57.014 199.884 59.3885 198.584 61.8518C194.763 69.1207 192.906 76.753 193.52 84.7649C193.617 86.1864 194.093 87.7048 194.876 88.9647Z" fill="#C2D1D9"/>
<path d="M46.5573 109.588C47.8414 105.323 49.271 101.083 50.6359 96.835C50.4421 96.7704 50.2563 96.7057 50.0625 96.6331C48.6168 99.0479 47.0499 101.422 45.7496 103.886C41.9294 111.155 40.0718 118.787 40.6856 126.799C40.7987 128.228 41.2752 129.747 42.0506 130.999C44.0455 134.205 49.1498 134.625 51.5647 131.661C54.3673 128.228 55.5545 124.214 55.7403 119.934C54.9407 120.548 54.448 121.299 53.9069 122.018C53.3254 122.777 52.76 123.56 52.0654 124.239C49.4083 126.807 46.3715 126.314 45.3943 122.987C44.8208 121.048 44.6108 118.924 44.8208 116.929C45.0712 114.458 45.8223 112.011 46.5573 109.588Z" fill="#C2D1D9"/>
<path d="M41.0123 293.03C42.2965 288.766 43.7261 284.525 45.091 280.277C44.8972 280.213 44.7114 280.148 44.5175 280.075C43.0719 282.49 41.505 284.865 40.2047 287.328C36.3845 294.597 34.5269 302.229 35.1407 310.241C35.2538 311.671 35.7303 313.189 36.5056 314.441C38.5005 317.647 43.6049 318.067 46.0198 315.103C48.8223 311.671 50.0096 307.657 50.1953 303.376C49.3958 303.99 48.9031 304.741 48.362 305.46C47.7805 306.219 47.2151 307.002 46.5205 307.681C43.8634 310.249 40.8266 309.756 39.8493 306.429C39.2759 304.491 39.0659 302.366 39.2759 300.371C39.5343 297.9 40.2855 295.453 41.0123 293.03Z" fill="#C2D1D9"/>
<path d="M264.116 21.1535C265.4 16.8891 266.83 12.6489 268.195 8.40062C268.001 8.33601 267.815 8.27142 267.621 8.19873C266.175 10.6136 264.609 12.9881 263.308 15.4514C259.488 22.7203 257.63 30.3526 258.244 38.3645C258.357 39.794 258.834 41.3124 259.609 42.5643C261.604 45.7707 266.708 46.1907 269.123 43.2266C271.926 39.794 273.113 35.78 273.299 31.4995C272.499 32.1133 272.007 32.8644 271.465 33.5832C270.884 34.3424 270.319 35.1258 269.624 35.8043C266.967 38.3726 263.93 37.8799 262.953 34.5524C262.379 32.614 262.169 30.4899 262.379 28.495C262.638 26.0236 263.389 23.5764 264.116 21.1535Z" fill="#C2D1D9"/>
<path d="M151.016 -22.0836C152.3 -26.348 153.73 -30.5882 155.095 -34.8364C154.901 -34.901 154.715 -34.9656 154.521 -35.0383C153.076 -32.6235 151.509 -30.249 150.209 -27.7856C146.388 -20.5168 144.531 -12.8844 145.145 -4.87253C145.258 -3.44299 145.734 -1.92463 146.51 -0.672771C148.504 2.5336 153.609 2.95359 156.024 -0.0104904C158.826 -3.44301 160.014 -7.45704 160.199 -11.7376C159.4 -11.1238 158.907 -10.3727 158.366 -9.65385C157.784 -8.89466 157.219 -8.11123 156.524 -7.4328C153.867 -4.86447 150.83 -5.35713 149.853 -8.68465C149.28 -10.623 149.07 -12.7471 149.28 -14.742C149.53 -17.2135 150.289 -19.6606 151.016 -22.0836Z" fill="#C2D1D9"/>
<path d="M557.741 103.901C559.025 99.6364 560.455 95.3962 561.82 91.148C561.626 91.0834 561.44 91.0187 561.246 90.946C559.8 93.3609 558.234 95.7354 556.933 98.1987C553.113 105.468 551.255 113.1 551.869 121.112C551.982 122.541 552.459 124.06 553.242 125.312C555.237 128.518 560.341 128.938 562.756 125.974C565.559 122.541 566.746 118.527 566.932 114.247C566.132 114.861 565.64 115.612 565.099 116.331C564.517 117.09 563.952 117.873 563.257 118.552C560.6 121.12 557.563 120.627 556.586 117.3C556.012 115.361 555.803 113.237 556.012 111.242C556.255 108.763 557.006 106.316 557.741 103.901Z" fill="#C2D1D9"/>
<path d="M375.483 75.6308C376.767 71.3664 378.197 67.1262 379.562 62.878C379.368 62.8133 379.182 62.7487 378.988 62.676C377.543 65.0909 375.976 67.4654 374.675 69.9287C370.855 77.1976 368.998 84.8299 369.611 92.8418C369.724 94.2713 370.201 95.7897 370.976 97.0416C372.971 100.248 378.076 100.668 380.49 97.7039C383.293 94.2714 384.48 90.2573 384.666 85.9767C383.866 86.5906 383.374 87.3417 382.833 88.0605C382.251 88.8197 381.686 89.6031 380.991 90.2815C378.334 92.8499 375.297 92.3572 374.32 89.0297C373.747 87.0913 373.537 84.9672 373.747 82.9723C373.997 80.5009 374.756 78.0537 375.483 75.6308Z" fill="#C2D1D9"/>
<path d="M610.425 38.5228C608.721 41.1558 606.96 43.7726 605.03 46.244C602.494 49.4908 599.772 52.5921 597.066 55.8308C597.478 56.0004 597.616 56.1135 597.704 56.0812C598.068 55.96 598.472 55.8631 598.771 55.637C604.86 50.993 610.377 45.7998 614.52 39.282C617.088 35.2519 617.96 30.8421 617.581 26.1335C617.419 24.0578 616.66 22.2648 614.819 21.1906C612.46 19.8176 607.049 20.6091 605.272 22.7252C603.067 25.3743 601.63 28.4191 601.702 32.0455C604.19 31.6417 606.346 31.044 608.519 31.0036C611.006 30.9551 612.307 32.8451 611.717 35.2438C611.443 36.3907 611.055 37.5537 610.425 38.5228Z" fill="#C2D1D9"/>
<path d="M374.136 332.541C372.432 335.174 370.671 337.791 368.741 340.263C366.205 343.509 363.483 346.611 360.777 349.849C361.189 350.019 361.327 350.132 361.415 350.1C361.779 349.979 362.183 349.882 362.481 349.656C368.571 345.012 374.087 339.818 378.231 333.301C380.799 329.27 381.671 324.861 381.292 320.152C381.13 318.076 380.371 316.283 378.53 315.209C376.171 313.836 370.76 314.628 368.983 316.744C366.778 319.393 365.341 322.438 365.413 326.064C367.901 325.66 370.057 325.063 372.23 325.022C374.717 324.974 376.018 326.864 375.428 329.262C375.162 330.409 374.766 331.572 374.136 332.541Z" fill="#C2D1D9"/>
<path d="M602.375 186.848C601.826 186.848 601.131 186.436 600.307 185.604C599.468 184.772 599.056 184.086 599.056 183.528C599.136 179.183 598.781 175.153 597.99 171.438C597.594 169.306 596.883 168.231 595.857 168.231C595.227 168.231 594.904 169.378 594.904 171.672C595.147 182.18 595.978 188.625 597.4 190.991C598.668 192.97 600.324 193.955 602.375 193.955C606.244 193.955 608.505 191.387 609.135 186.25C611.34 189.965 613.319 191.823 615.055 191.823C616.711 191.823 618.375 190.935 620.03 189.15C621.686 187.373 622.243 184.788 621.686 181.388C620.03 175.936 618.568 172.068 617.3 169.774C616.905 167.093 616.315 165.744 615.524 165.744C614.966 165.744 614.433 166.552 613.925 168.175C613.408 169.798 613.23 171.002 613.383 171.793C615.362 177.164 616.864 181 617.89 183.294C617.414 184.239 616.549 184.522 615.289 184.126C613.949 183.73 612.721 182.624 611.615 180.807C610.985 179.781 610.112 177.923 609.014 175.234C608.691 172.94 608.497 171.325 608.416 170.372C608.263 168.482 607.746 167.529 606.882 167.529C605.38 167.529 604.75 168.95 604.992 171.793C605.065 172.027 605.42 173.651 606.058 176.655C606.607 179.345 606.89 181.752 606.89 183.884C606.874 185.863 605.371 186.848 602.375 186.848Z" fill="#C2D1D9"/>
</g>
</svg>
