<svg width="40" height="46" viewBox="0 0 40 46" fill="none" xmlns="http://www.w3.org/2000/svg">
<path d="M38.9198 28.042C38.6452 28.6283 37.8337 29.8768 36.4841 31.7883C36.3865 31.9253 36.2949 32.0541 36.2008 32.1872C36.0628 31.05 35.9569 30.1426 35.9612 30.0761C36.1084 30.228 36.2468 30.3541 36.3777 30.4535C36.4254 30.4851 36.4592 30.5013 36.4797 30.5013C36.5113 30.5013 36.5275 30.4798 36.5275 30.4382C36.5275 30.3073 36.4018 29.974 36.15 29.4402C35.9928 29.0943 35.8329 28.7483 35.6705 28.4024C35.5763 28.1773 35.5032 28.0639 35.4502 28.0639C35.4288 28.0639 35.4139 28.0827 35.4034 28.1191C35.2037 28.7269 35.1205 29.0601 35.1516 29.117C35.2772 29.3688 35.3477 29.5234 35.3631 29.5812C35.4625 30.6182 35.5339 31.4121 35.5755 31.963C35.6087 32.2617 35.6455 32.5826 35.6836 32.9133C34.5446 34.5156 33.6561 35.7627 33.0273 36.6425C31.9413 35.616 31.0764 34.8243 30.4331 34.266C29.9926 33.8412 29.3808 33.2154 28.7677 32.5769C29.1373 32.3584 29.517 32.1246 29.9159 31.8618C31.1062 31.078 31.7862 30.5608 31.9544 30.3095C32.1751 29.9823 32.3082 29.5077 32.3538 28.8854C32.3752 28.5561 32.3354 28.0937 32.2325 27.4994C32.3976 27.5314 32.4177 27.5467 32.5114 27.5607C32.9152 27.5607 33.2602 27.4223 33.5493 27.1443C33.6903 27.0081 33.8764 26.7042 34.1067 26.2321C34.0914 26.4787 34.1382 26.6862 34.2477 26.8535C34.3848 27.0523 34.5989 27.2257 34.8928 27.372C35.1297 27.4907 35.321 27.5485 35.4743 27.555V27.5607C35.4822 27.5607 35.4896 27.5594 35.4971 27.5594C35.4997 27.5594 35.5032 27.5607 35.5054 27.5607V27.5585C36.037 27.548 36.4986 27.2743 36.8883 26.7353C37.2189 26.2798 37.3726 25.5485 37.3525 24.5422C37.0227 21.3989 36.2415 14.8921 35.9748 12.943C36.2415 13.2364 36.3803 13.3883 36.3913 13.3984C36.4329 13.4299 36.467 13.4461 36.4933 13.4461C36.5248 13.4461 36.541 13.4198 36.541 13.3668C36.541 13.0634 36.2708 12.4004 35.7309 11.3788C35.6368 11.1375 35.5636 11.0166 35.5106 11.0166C35.4901 11.0166 35.4743 11.0354 35.4638 11.0718C35.2956 11.5964 35.212 11.9288 35.212 12.0698C35.212 12.1438 35.2273 12.2016 35.2588 12.2432C35.3429 12.3579 35.3898 12.4319 35.4007 12.4634C35.4476 13.3432 35.5733 14.794 35.6626 15.496C36.192 19.5729 36.8804 25.1536 36.8804 25.6353C36.8804 25.7031 36.8752 25.7447 36.8651 25.7609C36.7495 26.0066 36.6085 26.1774 36.4399 26.272C36.2349 26.3955 35.9196 26.4563 35.4975 26.459C35.367 26.4568 35.184 26.3858 34.9466 26.2439C34.7062 26.1003 34.5556 25.9746 34.4951 25.8665C34.4347 25.7592 34.3914 25.6694 34.3651 25.5954C34.4067 25.4754 34.4281 25.3786 34.4281 25.3046C34.4281 25.1006 34.2972 25.1684 34.0353 25.5096C34.0139 25.5358 33.9486 25.6558 33.8392 25.8708C33.745 26.0543 33.6657 26.1669 33.6027 26.2093C33.3899 26.3604 33.0662 26.4397 32.6437 26.4541C32.3271 26.4314 32.0674 26.3998 31.8708 26.3578C31.6593 26.0714 31.5108 25.8778 31.428 25.778C31.3374 25.651 31.2743 25.6545 31.2384 25.7885C31.16 26.1047 31.0952 26.4204 31.044 26.7375C31.3654 27.1885 31.693 28.0267 32.0223 29.2502C31.5318 29.7695 30.8474 30.2898 29.9676 30.81C29.6015 31.0228 28.9609 31.3639 28.0544 31.8294C27.3135 31.0478 26.6776 30.3629 26.4924 30.1566C26.7932 30.1509 26.996 30.1448 27.1015 30.1391C27.186 30.1334 27.2281 30.1146 27.2281 30.0804C27.2281 30.0463 26.8935 29.8124 26.2239 29.378C25.6809 29.0233 25.3858 28.8455 25.3381 28.8455C25.3065 28.8455 25.2934 28.8622 25.2986 28.8959C25.2781 29.375 25.2619 29.7025 25.2518 29.8773C25.2465 29.9219 25.2833 29.964 25.3621 30.0034C25.4256 30.0437 25.4725 30.0629 25.504 30.0629C25.6652 30.3261 26.488 31.2983 27.2863 32.2214C27.2828 32.2231 27.2802 32.2244 27.2767 32.2262C26.8099 32.4635 25.7624 32.8655 24.1343 33.4317C22.8827 33.8648 22.2517 34.1683 22.2403 34.3404C22.2386 34.3667 22.2692 34.3824 22.3318 34.3864C22.4255 34.3925 22.5657 34.3776 22.7522 34.3422C24.4456 34.0636 25.6389 33.8788 26.3325 33.7878C26.8405 33.5964 27.391 33.3411 27.9835 33.0232C28.2488 33.3262 28.4844 33.5942 28.653 33.7838C29.1062 34.297 29.7548 34.9281 30.5978 35.6782C31.8055 36.7436 32.4462 37.3138 32.5193 37.3869C32.1659 37.9229 31.9583 38.2807 31.8948 38.4607C31.71 39.0133 31.6176 39.5261 31.6176 39.9999C31.6176 40.6375 31.834 40.9559 32.2657 40.9559C32.4606 40.9559 32.7514 40.8179 33.1363 40.5416C33.505 40.2762 33.7266 40.0625 33.8002 39.8988C33.932 39.6172 33.9977 39.2931 33.9977 38.9266C33.9977 38.656 33.9609 38.3293 33.8873 37.9453C33.8405 37.6974 33.6605 37.3847 33.3496 37.0068C34.3616 35.63 35.1664 34.5313 35.7738 33.6993C36.1158 36.5947 36.5686 40.1484 36.7241 41.3833C36.7709 41.8439 36.7683 42.2867 36.7158 42.711C36.6742 43.0469 36.6816 43.2141 36.7394 43.2141C36.7758 43.2141 36.8336 43.141 36.9128 42.9939C37.1169 42.6116 37.2189 41.9858 37.2189 41.1153C37.2189 40.8696 37.2088 40.6156 37.1874 40.3529C37.0981 39.326 36.9776 38.3924 36.7048 36.2698C36.6041 35.4733 36.4425 34.1814 36.2954 32.9825C36.5853 32.5831 36.8086 32.273 36.9479 32.076C37.9809 30.6042 38.6215 29.5782 38.8698 28.9971C39.0599 28.546 39.1545 28.1602 39.1545 27.8392C39.1545 27.7714 39.1444 27.7376 39.1229 27.7376C39.0831 27.7372 39.0148 27.8388 38.9198 28.042ZM33.7003 39.0361C33.7104 39.0755 33.5471 39.2025 33.2103 39.4166C32.8407 39.6478 32.5434 39.7634 32.3165 39.7634C32.0735 39.7634 31.9531 39.6456 31.9531 39.4087C31.9531 39.2222 32.0608 38.9524 32.2771 38.5964C32.4672 38.3039 32.6594 38.0101 32.8543 37.7175C33.3973 38.2864 33.6789 38.726 33.7003 39.0361Z" fill="#F9B115"/>
<path d="M34.9531 17.2412C34.9531 16.6233 34.7696 16.1881 34.403 15.9363C34.2511 15.8215 33.7589 15.5675 32.9255 15.1739C32.249 14.8603 31.699 14.4955 31.2746 14.0817C31.6412 14.1032 31.8562 14.0791 31.9188 14.0112C31.9656 13.9587 31.8973 13.8803 31.7147 13.7756C31.6775 13.7542 31.6355 13.7331 31.589 13.7126L30.4492 13.1704C30.3598 13.1227 30.3047 13.11 30.2841 13.1306C30.2679 13.1569 30.2604 13.1993 30.2604 13.2563V13.9245C30.2604 14.0979 30.302 14.2074 30.3861 14.2551C30.5324 14.3436 30.63 14.4176 30.6769 14.4745C31.0544 14.9886 31.4914 15.4156 31.9893 15.7563C32.2674 15.945 32.6913 16.1727 33.2627 16.4399C33.7865 16.6916 34.1661 16.9067 34.4026 17.084C34.5966 17.2259 34.6934 17.3468 34.6934 17.4462C34.6934 17.514 34.6518 17.5845 34.5677 17.6577C34.3737 17.8464 33.6481 18.3522 32.3909 19.175C31.0018 20.0762 30.0616 20.5264 29.5685 20.5264C29.3435 20.5264 29.1547 20.4559 29.0032 20.3149C28.8145 20.1577 28.7203 19.9238 28.7203 19.6151C28.7203 19.5902 28.7247 19.5586 28.7256 19.5324C29.0023 19.3073 29.2353 19.0892 29.4205 18.8794C29.5567 18.7275 29.6697 18.4945 29.759 18.1797C29.8269 17.9279 29.8611 17.7102 29.8611 17.5276C29.8611 17.1602 29.7617 16.7363 29.5629 16.2542C29.4372 15.9551 29.3089 15.6542 29.1779 15.3499C29.3921 15.4077 29.5256 15.4366 29.5782 15.4366C29.6198 15.4366 29.6412 15.4265 29.6412 15.4051C29.6412 15.3687 29.5782 15.2903 29.4525 15.1695C29.149 14.8704 28.8788 14.5796 28.6432 14.2963C28.6069 14.2547 28.5802 14.2332 28.564 14.2332C28.5325 14.2332 28.5062 14.2792 28.4856 14.3707C28.4641 14.4627 28.4379 14.6217 28.4063 14.8467C28.37 15.0872 28.3595 15.2269 28.3748 15.2632C28.3801 15.2895 28.4147 15.3525 28.4777 15.4519C28.5408 15.5513 28.5951 15.677 28.6428 15.8285C28.7321 16.1381 28.8968 16.5546 29.1376 17.0788C29.3527 17.5394 29.4599 17.7939 29.4599 17.8403C29.4599 17.9642 29.2655 18.1792 28.8898 18.477C28.9388 18.269 28.9949 18.0496 29.0658 17.8057C29.1031 17.6962 29.121 17.6117 29.121 17.5539C29.121 17.5175 29.1131 17.4987 29.0974 17.4987C29.061 17.4987 29.0089 17.5854 28.941 17.7588C28.8184 18.0605 28.7269 18.3588 28.6503 18.6552C28.1143 19.0463 27.383 19.496 26.4349 20.0101C25.732 20.3867 24.8545 20.8005 23.8013 21.2511C22.2875 21.8962 21.4585 22.25 21.3175 22.3126C20.9247 22.4952 20.7285 22.6008 20.7285 22.627C20.7285 22.6323 20.7438 22.6349 20.7754 22.6349C20.8432 22.6349 21.0219 22.6135 21.3101 22.5719C21.582 22.5241 22.2564 22.3704 23.3297 22.1077C24.3412 21.862 24.865 21.739 24.9013 21.739C25.0962 21.739 25.7268 21.432 26.7962 20.8194C27.4596 20.4379 28.0166 20.0749 28.4733 19.7281C28.4646 19.8551 28.4532 19.9821 28.4532 20.1078C28.4532 21.1246 28.8381 21.6326 29.6093 21.6326C30.0222 21.6326 30.9029 21.1771 32.2494 20.265C33.3289 19.5525 34.0361 19.0445 34.372 18.7402C34.5497 18.5777 34.6653 18.4468 34.7179 18.3474C34.7963 18.2064 34.8642 17.9651 34.922 17.624C34.943 17.5005 34.9531 17.3722 34.9531 17.2412Z" fill="#F9B115"/>
<path d="M21.8384 30.9085C22.2732 30.0178 22.8469 29.318 23.5598 28.8096C23.717 28.7001 24.3826 28.2858 25.5562 27.5677C26.5677 26.9546 27.1125 26.5933 27.1913 26.483C27.317 26.2001 27.419 25.9439 27.4979 25.7127C27.5399 25.6133 27.5609 25.5402 27.5609 25.4924C27.5609 25.4609 27.5452 25.4456 27.5136 25.4456C27.4773 25.4456 27.4011 25.4819 27.2859 25.555C26.1644 26.2522 25.1822 26.8548 24.3384 27.3632C24.249 27.3732 24.1601 27.3785 24.0708 27.3785C23.2743 27.3785 22.5175 27.0851 21.7994 26.4987C21.1705 25.9803 20.8561 25.5323 20.8561 25.1548C20.8561 24.945 21.2594 24.7143 22.0665 24.4629C22.8416 24.2225 23.4993 24.1016 24.0388 24.1016C24.2591 24.1016 24.6366 24.1721 25.1708 24.3131C25.2444 24.3346 25.3048 24.3447 25.3517 24.3447C25.4147 24.3447 25.4458 24.3241 25.4458 24.2816C25.4458 24.1301 25.1892 23.9357 24.6756 23.7001C24.0782 23.4281 23.4468 23.2963 22.7812 23.3073C22.1628 23.3173 21.6155 23.5477 21.1386 23.9983C20.6359 24.4699 20.3841 25.0488 20.3841 25.7359C20.3841 26.1966 20.5754 26.6419 20.9577 27.0724C21.2354 27.382 21.615 27.6802 22.0972 27.9683C22.3695 28.1203 22.6424 28.2727 22.9147 28.4238C22.4431 28.8429 21.9951 29.5032 21.5704 30.4044C21.1084 31.4015 20.8706 32.3579 20.8373 33.278C20.3298 33.5473 19.9282 33.7632 19.7688 33.8529L19.7285 34.2869C19.9996 34.1323 20.3902 33.9213 20.8316 33.6874C20.9148 36.1817 22.5881 37.432 25.8618 37.432C26.5533 37.432 27.1926 37.3553 27.7794 37.2042C28.3662 37.0208 28.953 36.8368 29.5398 36.6534C29.9852 36.5172 30.3285 36.423 30.5698 36.3705C30.7949 36.3236 30.9078 36.2684 30.9078 36.2054C30.9078 36.1375 30.7927 36.1033 30.5619 36.1033C30.4888 36.1033 30.4104 36.1086 30.3263 36.1196C28.9009 36.2868 27.7483 36.3652 26.8682 36.3551C25.2172 36.3337 23.9727 36.1454 23.1346 35.7889C22.0446 35.323 21.4364 34.5383 21.3067 33.4374C22.6796 32.7179 24.313 31.8911 24.6134 31.7484L24.6453 31.3065C24.0682 31.5833 22.5013 32.3991 21.2831 33.0424C21.2826 33.0196 21.2791 32.9986 21.2791 32.9758C21.2805 32.3579 21.4666 31.6687 21.8384 30.9085Z" fill="#F9B115"/>
<path d="M28.3704 31.1277C28.4068 31.1277 28.4646 31.0545 28.5434 30.9074C28.7479 30.5247 28.8499 29.8993 28.8499 29.0288C28.8499 28.7831 28.8394 28.5291 28.8184 28.2664C28.7295 27.2395 28.7764 27.885 28.504 25.7624C28.2789 23.9806 28.1712 23.0167 28.1817 22.8696C28.3284 23.0216 28.4672 23.1477 28.5981 23.2471C28.6454 23.2786 28.6791 23.2948 28.7006 23.2948C28.7321 23.2948 28.7479 23.2734 28.7479 23.2318C28.7479 23.1008 28.6222 22.7676 28.3704 22.2338C28.2132 21.8878 28.0534 21.5419 27.8909 21.1959C27.7968 20.9708 27.7232 20.8574 27.6706 20.8574C27.6496 20.8574 27.6343 20.8763 27.6233 20.9126C27.4241 21.5204 27.3405 21.8537 27.3716 21.9106C27.4972 22.1624 27.5682 22.317 27.5839 22.3748C27.6833 23.4117 27.7538 24.2057 27.7959 24.7565C28.1313 27.7641 28.165 27.7978 28.3538 29.2963C28.4011 29.757 28.3984 30.1997 28.3463 30.6241C28.3047 30.9604 28.3126 31.1277 28.3704 31.1277Z" fill="#F9B115"/>
<path d="M38.2974 13.4352C38.3289 13.4352 38.3451 13.4137 38.3451 13.3721C38.3451 13.2412 38.2195 12.908 37.9677 12.3741C37.8104 12.0282 37.6506 11.6823 37.4881 11.3363C37.394 11.1112 37.3209 10.9978 37.2679 10.9978C37.2464 10.9978 37.2315 11.0166 37.221 11.053C37.0213 11.6608 36.9381 11.994 36.9692 12.051C37.0949 12.3028 37.1654 12.4573 37.1807 12.5152C37.2801 13.5521 37.4093 15.0055 37.4509 15.5564C37.7859 18.564 38.4726 24.1179 38.6613 25.6169C38.7082 26.0776 38.7055 26.5203 38.653 26.9446C38.6114 27.2805 38.6188 27.4478 38.6766 27.4478C38.713 27.4478 38.7708 27.3746 38.85 27.2275C39.0541 26.8448 39.1561 26.2194 39.1561 25.3489C39.1561 25.1032 39.1461 24.8492 39.1246 24.5865C39.0353 23.5596 38.8553 21.9853 38.5825 19.8628C38.3574 18.0809 37.768 13.1571 37.7785 13.01C37.9256 13.1619 38.064 13.2881 38.1949 13.3875C38.2427 13.419 38.2768 13.4352 38.2974 13.4352Z" fill="#F9B115"/>
<path d="M27.0801 35.692C27.3713 35.4061 27.6848 35.1096 27.7522 34.7794C27.7733 34.677 27.5964 34.6069 27.3573 34.4335C27.1037 34.2496 26.9754 34.1983 26.8436 34.0889C26.3422 34.4786 26.1929 34.9463 26.1784 35.005C26.1442 35.1193 26.248 35.1884 26.3969 35.2725C26.7065 35.4613 26.735 35.4884 27.0801 35.692Z" fill="#F9B115"/>
<path d="M8.66693 7.02218C8.98791 7.21749 9.01725 7.24551 9.37502 7.45702C9.67674 7.16056 10.0017 6.85359 10.0713 6.51114C10.0928 6.40473 9.90971 6.33248 9.66229 6.1525C9.39955 5.96201 9.26642 5.90858 9.1298 5.79517C8.61 6.19892 8.45542 6.68368 8.44053 6.74455C8.40462 6.86322 8.51235 6.93504 8.66693 7.02218Z" fill="#F9B115"/>
<path d="M3.40044 12.6476C3.1377 12.4571 3.00457 12.4037 2.86795 12.2903C2.34815 12.694 2.19357 13.1788 2.17868 13.2397C2.14321 13.3579 2.2505 13.4302 2.40508 13.5173C2.72606 13.7126 2.7554 13.7406 3.11317 13.9521C3.3168 13.7525 3.52481 13.5462 3.66406 13.329C3.69077 13.3991 3.77529 13.4542 3.88652 13.5173C4.2075 13.7126 4.23684 13.7406 4.59461 13.9521C4.89633 13.6557 5.22126 13.3487 5.29088 13.0063C5.31234 12.8999 5.1293 12.8276 4.88188 12.6476C4.61914 12.4571 4.48601 12.4037 4.34939 12.2903C4.0665 12.5101 3.8944 12.7518 3.79149 12.9379C3.74245 12.8618 3.59224 12.7869 3.40044 12.6476Z" fill="#F9B115"/>
<path d="M38.1903 44.1411C37.8693 43.9458 37.8399 43.9178 37.4822 43.7063C37.2785 43.906 37.0705 44.1122 36.9313 44.3294C36.9046 44.2594 36.82 44.2042 36.7088 44.1411C36.3878 43.9458 36.3585 43.9178 36.0007 43.7063C35.699 44.0028 35.3741 44.3097 35.3044 44.6522C35.283 44.7586 35.4656 44.8308 35.7135 45.0108C35.9762 45.2013 36.1093 45.2547 36.2459 45.3682C36.5288 45.1483 36.7009 44.9066 36.8038 44.7205C36.8529 44.7967 37.0031 44.8716 37.1949 45.0108C37.4576 45.2013 37.5908 45.2547 37.7274 45.3682C38.2472 44.9644 38.4018 44.4796 38.4167 44.4188C38.4521 44.3001 38.3444 44.2283 38.1903 44.1411Z" fill="#F9B115"/>
<path d="M33.3891 23.6339C33.6987 23.8222 33.7272 23.8493 34.0727 24.0534C34.3639 23.7674 34.6774 23.471 34.7444 23.1408C34.7655 23.0383 34.5885 22.9682 34.3494 22.7948C34.0959 22.6109 33.9676 22.5597 33.8358 22.4502C33.3344 22.8399 33.185 23.3076 33.1706 23.3663C33.1364 23.4806 33.2402 23.5498 33.3891 23.6339Z" fill="#F9B115"/>
<path d="M30.533 22.7871C30.0316 23.1768 29.8823 23.6445 29.8679 23.7032C29.8337 23.8175 29.9375 23.8867 30.0864 23.9712C30.396 24.1595 30.4244 24.1867 30.7699 24.3907C31.0612 24.1048 31.3747 23.8083 31.4417 23.4781C31.4627 23.3757 31.2858 23.3056 31.0467 23.1322C30.7936 22.9483 30.6648 22.8966 30.533 22.7871Z" fill="#F9B115"/>
<path d="M1.39534 16.1024C1.40585 16.0498 1.41067 16.0082 1.41067 15.9767C1.41067 15.9452 1.40323 15.9264 1.3879 15.9215C1.35243 15.9215 1.30645 15.982 1.24996 16.1024C0.93773 16.7991 0.781397 17.4218 0.780959 17.9727C0.780084 18.7846 1.03976 19.4318 1.56 19.9144C2.10563 20.4232 2.86627 20.6785 3.84149 20.6794C3.98075 20.6794 4.14058 20.6628 4.29429 20.6514V20.6588C5.46788 20.6339 6.7689 20.3409 7.96307 19.9844C8.40273 22.6513 8.75613 24.9814 8.75613 25.5813C8.75613 25.7591 8.74824 25.9036 8.73291 26.0131C8.65146 26.5272 7.96395 27.2738 6.67037 28.2539C6.60512 28.3034 6.54382 28.3454 6.47988 28.3927C6.47682 28.373 6.47331 28.3506 6.47069 28.3331C6.36077 27.6522 6.19524 26.9415 5.97542 26.2027C5.73938 25.4114 5.5559 25.016 5.42497 25.016C5.39869 25.016 5.37767 25.0287 5.36191 25.055C5.26776 25.4425 5.18368 25.7596 5.11011 26.0061C5.11011 26.0376 5.20426 26.3621 5.393 26.9804C5.60232 27.6518 5.73588 28.186 5.79368 28.5845C5.80419 28.6546 5.81733 28.743 5.83222 28.8415C4.86576 29.4682 4.06132 29.7865 3.42329 29.7865C1.96156 29.7865 1.23069 29.0132 1.23069 27.4678C1.23069 26.7659 1.35549 26.1186 1.6051 25.5262C1.66115 25.39 1.68918 25.2857 1.68918 25.2117C1.68918 25.1539 1.67385 25.125 1.6432 25.125C1.567 25.125 1.47767 25.238 1.37564 25.4635C0.993782 26.3017 0.802854 27.1298 0.802854 27.9473C0.802854 28.817 1.01174 29.5277 1.4295 30.0773C1.86259 30.6435 2.438 30.9255 3.15573 30.9255C3.94528 30.9255 4.83116 30.6221 5.81427 30.0143C5.87426 29.977 5.92943 29.9354 5.98855 29.8969C6.35727 32.4057 7.05267 37.2209 7.1801 38.4847C7.32154 39.8838 7.46824 40.8323 7.62063 41.3298C7.7358 41.7125 7.94775 42.0768 8.25735 42.4228C8.48856 42.6807 8.73204 42.8624 8.98384 42.9776C10.0786 43.4786 12.3456 43.6559 14.8719 43.5596C16.5706 43.4948 18.2232 43.4992 20.2661 42.8563C20.8038 42.6873 21.1936 42.4298 21.4765 42.2043C21.4449 42.6812 21.5443 43.056 21.7747 43.3279C21.984 43.5745 22.2699 43.6975 22.6317 43.6975C23.0717 43.6975 23.4886 43.5189 23.8814 43.1629C24.1376 42.8695 24.3106 42.6496 24.3999 42.5025C24.5098 42.8331 24.5755 43.0135 24.5961 43.0446C24.727 43.2496 24.9552 43.3516 25.2801 43.3516C25.7933 43.3516 26.2523 42.8962 26.656 41.984C26.6718 42.2459 26.7397 42.4609 26.8601 42.6282C27.0799 42.9404 27.4854 43.1055 28.0705 43.1278V43.1318C28.077 43.1318 28.0845 43.13 28.091 43.13C28.098 43.13 28.1033 43.1318 28.1099 43.1318V43.1283C28.4208 43.1191 28.7759 43.0043 29.1788 42.7784C29.5453 42.5734 29.8151 42.3694 29.9881 42.1653C30.4286 41.6521 30.6116 41.1196 30.5385 40.5696C30.486 40.1973 30.2504 39.7673 29.8308 39.2799C29.3645 38.7514 29.2454 38.6165 29.1981 38.4755C29.308 38.4961 29.4389 38.507 29.5913 38.507C29.6802 38.507 29.7249 38.4808 29.7249 38.4278C29.7249 38.3647 29.6596 38.2789 29.5287 38.1685C29.146 37.8856 28.8241 37.6527 28.5618 37.4688C28.483 37.3956 28.4282 37.4398 28.3967 37.6023C28.3547 37.9382 28.3258 38.2049 28.31 38.4041C28.289 38.4619 28.3389 38.4908 28.4598 38.4908C28.6428 39.0408 28.8359 39.3903 29.3128 39.9403C29.8155 40.5166 30.1037 40.8967 30.1772 41.0802C30.2193 41.1796 30.0095 41.3574 29.5488 41.614C29.0444 41.8868 28.5614 42.0234 28.0972 42.0287C27.897 42.0265 27.6969 41.9709 27.4972 41.8579C27.3243 41.7322 27.2065 41.5934 27.1438 41.4414C27.0808 41.2895 27.0361 41.1769 27.0103 41.1029C27.0624 40.9405 27.0755 40.8411 27.0493 40.8047C27.0177 40.7631 26.8864 40.7601 26.8058 40.8914C26.6223 41.2321 26.5119 41.4515 26.4756 41.5509C26.2238 42.0387 25.9046 42.2616 25.5166 42.2192C25.2757 42.1938 25.0323 42.0098 24.7857 41.6692C24.9009 41.3026 24.9587 41.1165 24.9587 41.1117C24.9587 41.0753 24.9429 41.0565 24.9114 41.0565C24.8904 41.0565 24.8641 41.0644 24.8326 41.0802C24.6022 41.3105 24.4293 41.5229 24.3141 41.7169C24.1827 41.931 23.9892 42.1224 23.7321 42.2905C23.444 42.4683 23.1633 42.5572 22.8909 42.5572C22.4245 42.5572 22.0786 42.3006 21.8535 41.7869C21.9056 41.6083 21.9468 41.4717 21.9757 41.374C22.0046 41.2772 22.0111 41.2076 22.019 41.1656C22.0252 41.1323 22.0317 41.0881 21.9875 41.1113C21.9708 41.1178 21.9139 41.145 21.7909 41.2207C21.0705 41.5995 20.4741 41.8373 19.9884 41.9503C19.9547 41.9577 17.527 42.5007 14.5956 42.5345C12.5484 42.5581 10.8222 42.4994 9.17783 41.9008C8.99873 41.8356 8.83714 41.6735 8.66592 41.4791C8.27311 41.0338 8.02657 40.4132 7.92717 39.6167C7.86936 38.93 7.81462 38.2438 7.76208 37.5572C7.67143 36.5181 6.98348 31.7641 6.63753 29.4384C7.18667 29.0158 7.68457 28.5451 8.1216 28.017C8.67511 27.3492 8.98033 26.7751 9.04164 26.2951C9.25359 27.583 9.73397 29.5869 10.7981 31.1975C10.5559 31.9389 10.4285 32.6592 10.4285 33.3564C10.4285 35.4373 11.4431 36.8202 13.5214 37.1105C13.856 37.1574 14.2151 37.1714 14.5685 37.1609C14.5369 37.2279 14.5037 37.3054 14.4686 37.3974C14.254 37.954 14.1214 38.4571 14.0614 38.913C12.2568 39.8391 10.3532 40.8257 10.0497 40.9965L10.0094 41.4305C10.5984 41.0951 12.3693 40.1847 14.0246 39.343C14.0233 39.3942 14.0206 39.445 14.0206 39.4963C14.0206 40.2087 14.1516 40.8087 14.4134 41.2956C14.7489 41.9087 15.252 42.2178 15.9225 42.2231C16.8289 42.2284 17.8874 41.7725 19.0977 40.8555C20.0042 40.1693 20.6357 39.5668 20.9921 39.0474C21.233 38.5767 21.3407 38.0442 21.3144 37.4517C21.2829 36.7081 21.0342 36.095 20.5678 35.6129C20.2118 35.2407 19.8947 35.0546 19.6171 35.0546C19.3184 35.0546 19.0377 35.217 18.7759 35.5424C18.493 35.8936 18.3564 36.31 18.3669 36.7917C18.3774 37.3628 18.6813 37.6487 19.279 37.6487C19.3417 37.6487 19.5015 37.6435 19.7585 37.6325C20.0835 37.6172 20.3795 37.6776 20.6466 37.8134C20.8717 37.9281 21.0004 38.0463 21.0315 38.1668C20.88 38.4702 20.2928 38.997 19.2712 39.7463C18.0398 40.6532 17.0339 41.1064 16.2531 41.1064C15.0217 41.1064 14.3999 40.454 14.3727 39.1661C15.8331 38.4251 17.128 37.7762 17.3282 37.6811L17.3601 37.2393C16.9783 37.4223 15.7386 38.0525 14.3841 38.747C14.4034 38.5289 14.4353 38.3078 14.4923 38.0805C14.5343 37.9233 14.6022 37.7192 14.6968 37.4674C14.7436 37.3418 14.7738 37.2397 14.7949 37.1513C15.2135 37.125 15.6146 37.0624 15.947 36.9709C17.1276 36.6459 18.4615 35.8735 19.5654 32.6194C20.545 29.7331 18.8503 28.9484 16.6455 28.9576C16.3455 28.9589 15.8064 28.9532 15.3177 28.955C14.9967 28.9563 14.6976 28.9611 14.5028 28.9734C13.7347 29.0211 13.0533 29.1459 12.4823 29.6399C12.1092 29.9626 12.1193 30.4373 12.4135 31.2513C12.4135 31.2513 11.92 31.0587 11.5163 30.5827C11.9261 29.7844 12.4464 29.1424 13.0875 28.6721C13.1623 28.6182 13.3581 28.4903 13.6712 28.2898C14.2523 28.3156 14.7546 28.2933 15.171 28.2486L15.161 28.2569C15.3532 28.2569 15.7105 28.1961 16.1051 28.0932C16.4278 28.017 16.5986 27.9487 16.5986 27.9487L16.6004 27.9465C17.146 27.7643 17.668 27.5182 17.8571 27.2498C18.1777 26.7943 18.3279 26.063 18.3078 25.0567C18.1816 23.8196 17.9982 21.9708 17.8064 20.0646C18.1046 20.0217 18.4247 19.956 18.743 19.8574C19.0557 22.6513 19.3022 24.7703 19.4818 26.197C19.5291 26.6577 19.5265 27.1004 19.4743 27.5248C19.4323 27.8606 19.4397 28.0279 19.4976 28.0279C19.5339 28.0279 19.5917 27.9548 19.6705 27.8076C19.875 27.4254 19.9771 26.7996 19.9771 25.929C19.9771 25.6834 19.9666 25.4294 19.9455 25.1666C19.8566 24.1397 19.6758 22.5655 19.4034 20.4429C19.3758 20.2253 19.3443 19.9516 19.3097 19.6394C19.3495 19.6205 19.3903 19.6035 19.4297 19.5829C19.7467 19.42 20.1973 19.1069 20.7898 18.6554C20.7583 19.1069 20.8656 19.4554 21.1121 19.7011C21.3324 19.9161 21.6118 20.0234 21.9529 20.0234C22.4197 20.0234 22.7705 19.8583 23.0061 19.5286C23.1895 19.272 23.3284 19.0464 23.4225 18.8529C23.5596 19.0101 23.6927 19.1699 23.8236 19.3324C24.0176 19.5102 24.2375 19.5991 24.484 19.5991C25.2696 19.5991 25.6628 19.0408 25.6628 17.9245C25.6628 17.7003 25.6142 17.4595 25.5175 17.2055C25.4198 16.9524 25.3322 16.8245 25.2538 16.8245C25.2324 16.8245 25.2149 16.8372 25.1987 16.8635C25.0625 17.0886 25.0073 17.382 25.0336 17.7441C25.0336 17.812 25.0778 17.9048 25.1671 18.0231C25.2565 18.1413 25.3007 18.2289 25.3007 18.2867C25.3007 18.3546 25.2149 18.4202 25.0415 18.4829C24.8943 18.5354 24.7695 18.5612 24.664 18.5612C24.329 18.5612 24.0435 18.4049 23.807 18.0905C23.9279 17.6867 23.9879 17.459 23.9879 17.406C23.9879 17.3482 23.9725 17.3202 23.941 17.3202C23.9195 17.3255 23.8985 17.3329 23.8779 17.343C23.673 17.537 23.5158 17.7546 23.4063 17.9959C23.1072 18.6615 22.6728 18.9939 22.1013 18.9939C21.6823 18.9939 21.3578 18.7636 21.1266 18.302C21.1629 18.0769 21.1844 17.9381 21.1896 17.8856C21.1949 17.8339 21.1979 17.7914 21.1979 17.7599C21.1979 17.6767 21.1743 17.6342 21.1266 17.6342C21.095 17.6342 21.0372 17.6631 20.954 17.7209C20.1675 18.2556 19.6315 18.6182 19.311 18.7189C19.279 18.729 19.2462 18.7373 19.2142 18.7469C18.9734 16.4247 18.6743 13.1203 18.6826 13.0064C18.8293 13.1583 18.9681 13.2845 19.0991 13.3839C19.1464 13.4154 19.1801 13.4316 19.2015 13.4316C19.2331 13.4316 19.2488 13.4101 19.2488 13.3685C19.2488 13.2376 19.1231 12.9044 18.8713 12.3706C18.7141 12.0246 18.5543 11.6787 18.3918 11.3327C18.2972 11.1076 18.2241 10.9942 18.1716 10.9942C18.1505 10.9942 18.1352 11.013 18.1243 11.0494C17.925 11.6572 17.8414 11.9904 17.8725 12.0474C17.9982 12.2992 18.0691 12.4538 18.0849 12.5116C18.1694 13.3909 18.5193 17.3627 18.6493 18.8857C18.3196 18.9519 17.9964 18.9943 17.7004 19.0197C17.4381 16.4273 17.1766 13.9155 17.0378 12.8733C17.2971 13.1667 17.4324 13.3186 17.4429 13.3287C17.4832 13.3602 17.5165 13.3764 17.5419 13.3764C17.5725 13.3764 17.5878 13.3502 17.5878 13.2972C17.5878 12.9937 17.3255 12.3307 16.8009 11.3091C16.7094 11.0678 16.638 10.9469 16.5872 10.9469C16.5666 10.9469 16.5513 10.9657 16.5412 11.0021C16.3779 11.5267 16.2969 11.8591 16.2969 12.0001C16.2969 12.0741 16.3122 12.1319 16.3429 12.1735C16.4243 12.2882 16.4703 12.3622 16.4804 12.3938C16.5224 13.203 16.9187 17.7774 17.0492 19.0539C16.6117 19.0626 16.3249 19.0408 16.3249 19.0408C16.3249 19.0408 14.4564 19.1599 14.1822 16.652C14.1244 15.9653 14.0693 15.2791 14.0163 14.5925C13.9195 13.4771 13.6541 11.0923 13.4632 9.71903H15.2372C16.9905 9.71903 19.4275 9.47862 22.5449 8.99561C23.6638 8.82176 24.6456 8.67243 25.4627 8.54763C25.5902 9.76895 25.7307 11.1374 25.8638 12.4354C25.2985 12.6276 24.3102 12.8991 22.89 13.2503C21.6039 13.5665 20.9475 13.8104 20.9207 13.9807C20.9168 14.0066 20.9457 14.025 21.0079 14.035C21.1012 14.0499 21.2417 14.0477 21.4305 14.0298C23.1418 13.9085 24.3474 13.834 25.0467 13.8073C25.3397 13.7268 25.6515 13.6234 25.9742 13.506C26.1537 15.2454 26.3092 16.7238 26.3863 17.3355C26.4331 17.7962 26.4305 18.2389 26.3779 18.6633C26.3363 18.9991 26.3438 19.1664 26.4016 19.1664C26.4379 19.1664 26.4957 19.0933 26.575 18.9462C26.7791 18.5639 26.8811 17.9381 26.8811 17.0675C26.8811 16.8219 26.871 16.5679 26.8496 16.3051C26.8141 15.897 26.702 14.7011 26.5623 13.2757C27.2468 12.9959 27.9855 12.6491 28.7913 12.2195C30.0489 11.5486 30.7732 11.0962 30.9641 10.8615C31.2138 10.5559 31.3902 10.0961 31.4927 9.48037C31.5444 9.15456 31.5466 8.69038 31.4988 8.0887C31.6464 8.13162 33.6822 8.75432 34.9824 7.66086C35.1015 7.56058 35.292 7.23172 35.5963 6.71805C35.8052 6.99612 36.1385 7.24923 36.5943 7.48045C36.9919 7.67444 37.2915 7.77122 37.4903 7.77122C37.6689 7.77122 37.8253 7.64291 37.9619 7.3863C38.0828 7.14501 38.1419 6.89059 38.1419 6.6239C38.1419 6.09929 38.0635 5.66269 37.9063 5.31149C37.7228 4.89767 37.4609 4.6901 37.1198 4.6901C36.7007 4.6901 36.3132 5.02861 35.9572 5.7043C35.9357 5.66795 35.9129 5.64912 35.8867 5.64912C35.8289 5.64912 35.6616 5.85143 35.3835 6.25431C35.0901 6.68433 34.7661 6.86475 34.576 6.96634C33.2627 7.67006 31.4261 6.9751 31.2457 6.91861C31.0609 6.61383 30.9317 6.40757 30.8582 6.30029C30.7789 6.16541 30.7154 6.16322 30.6681 6.29328C30.5608 6.60069 30.4671 6.90942 30.3861 7.22033C30.6655 7.6994 30.9134 8.56383 31.1297 9.8123C30.5928 10.2839 29.8633 10.7389 28.9393 11.1764C28.4922 11.3839 27.6615 11.7286 26.4559 12.209C26.3263 10.9088 26.1857 9.53905 26.0653 8.45523C27.2271 8.27656 27.9347 8.16227 28.0385 8.11585C28.176 8.06242 28.2802 7.91967 28.2802 7.91967C28.6126 7.55226 28.7786 7.18617 28.7786 6.81877C28.7786 6.73557 28.765 6.66419 28.74 6.60638C28.5833 6.00733 28.1983 5.70868 27.823 5.55409C27.3729 5.36842 26.6551 5.2804 25.6821 5.26026C25.6151 4.67434 25.5836 4.33146 25.5888 4.24957C25.736 4.40152 25.8744 4.52764 26.0053 4.62705C26.053 4.65857 26.0867 4.67478 26.1073 4.67478C26.1389 4.67478 26.1551 4.65332 26.1551 4.61172C26.1551 4.48078 26.0294 4.14754 25.7776 3.61373C25.6204 3.26778 25.4605 2.92184 25.2981 2.57589C25.2039 2.35081 25.1308 2.23739 25.0778 2.23739C25.0563 2.23739 25.0415 2.25622 25.0309 2.29256C24.8313 2.90038 24.7481 3.23363 24.7791 3.29055C24.9048 3.54235 24.9753 3.69693 24.9907 3.75473C25.0463 4.33408 25.0923 4.8298 25.1299 5.25719C24.5164 5.26639 23.2452 5.36974 21.3 5.56986C19.2401 5.77918 17.5169 5.85975 17.0707 5.86457C16.0749 5.86982 15.2989 5.7967 14.7432 5.6443C14.2869 5.51337 14.0614 5.3636 14.0666 5.19632C14.0767 4.80265 14.8553 4.06652 16.4015 2.98708C16.8425 2.67836 17.3873 2.36657 18.0363 2.05215C18.6121 1.77408 18.9747 1.62563 19.1253 1.60417C19.3955 1.5941 19.5615 1.69088 19.6237 1.89494C19.681 2.07843 19.738 2.17039 19.7945 2.17039C19.8207 2.17039 19.8755 2.08631 19.9587 1.91859C20.1395 1.54637 20.2306 1.2845 20.2306 1.13211C20.2306 0.838713 20.0125 0.69508 19.5772 0.700334C18.7877 0.705589 17.5664 1.30027 15.9107 2.48437C15.2004 2.99278 14.6819 3.44076 14.3543 3.8283C13.9444 4.31526 13.644 4.90774 13.4518 5.60402C13.4308 5.67277 13.4207 5.74108 13.4207 5.80896C13.4207 6.47983 14.3644 6.81439 16.2531 6.81439C17.0369 6.81439 18.9883 6.72944 21.1677 6.50435C23.3288 6.28102 24.6736 6.16804 25.2065 6.16629C25.2534 6.58887 25.3068 7.08327 25.3642 7.62408C24.5457 7.72568 23.5696 7.85004 22.4661 7.99718C19.3263 8.411 16.9192 8.61769 15.2433 8.61769H13.2696C13.1694 8.12417 13.0511 7.62145 12.8957 7.09947C12.6592 6.30817 12.4766 5.91274 12.3456 5.91274C12.3194 5.91274 12.2979 5.92544 12.2826 5.95171C12.1884 6.33926 12.1039 6.65631 12.0308 6.90285C12.0308 6.93438 12.1249 7.25887 12.3137 7.87719C12.3982 8.14826 12.467 8.39129 12.5265 8.61769H11.7663C11.3836 8.56821 11.1243 8.51259 10.933 8.45216C10.7499 8.14738 10.622 7.94113 10.5494 7.83384C10.4705 7.69896 10.4079 7.69677 10.3611 7.82683C10.2551 8.13424 10.1622 8.44297 10.0817 8.75388C10.3584 9.23295 10.6041 10.0974 10.8178 11.3459C10.2862 11.8175 9.56363 12.2725 8.64884 12.7099C8.38303 12.8347 7.97621 13.0103 7.4389 13.2332C7.20374 12.1621 7.01939 11.4111 6.96771 11.4093C6.84554 11.4041 6.74131 11.7365 6.65461 12.4073C6.71329 12.7362 6.77722 13.0966 6.84466 13.478C6.5482 13.5989 6.22327 13.7303 5.86638 13.873C5.38424 14.0661 4.31487 14.37 2.65783 14.7843C1.3844 15.1005 0.734103 15.3444 0.707391 15.5147C0.703449 15.5406 0.731914 15.559 0.793658 15.569C0.886057 15.5839 1.02531 15.5817 1.2123 15.5638C2.907 15.4425 4.10073 15.368 4.7935 15.3413C5.45606 15.1578 6.20488 14.8662 7.02289 14.4891C7.26461 15.8668 7.53524 17.4345 7.78966 18.9527C6.40194 19.3539 5.14558 19.497 4.59382 19.5435V19.5404C4.36216 19.5584 4.13401 19.5719 3.91769 19.5715C3.22842 19.5706 2.62893 19.4152 2.11833 19.1056C1.50613 18.7386 1.20047 18.2297 1.20091 17.5795C1.20091 17.3907 1.22719 17.1367 1.27842 16.8171L1.39534 16.1024ZM19.8912 36.5798C19.734 36.5798 19.5742 36.5824 19.4117 36.5872C19.1967 36.5772 19.0605 36.5242 19.0027 36.43C19.0132 36.1944 19.1525 36.0762 19.4192 36.0762C19.6394 36.0762 19.9118 36.2571 20.2367 36.6183C20.1216 36.5982 20.0064 36.5846 19.8912 36.5798ZM36.8531 5.7748C36.9687 5.7748 37.0773 5.85231 37.1794 6.00689C37.2814 6.16147 37.3348 6.33313 37.3401 6.52187C37.1097 6.49559 36.9083 6.42246 36.7349 6.3016C36.7034 6.28014 36.5698 6.16235 36.3346 5.94821C36.4608 5.8326 36.6333 5.7748 36.8531 5.7748ZM25.9116 7.14238C25.866 6.7833 25.8271 6.46669 25.7912 6.17417C27.0966 6.21139 27.6019 6.42071 28.0319 7.29872C27.9316 7.31667 27.1828 7.40206 25.9624 7.55183C25.9444 7.40338 25.9273 7.26587 25.9116 7.14238ZM13.8231 33.3559C13.8985 33.3835 13.9896 33.3678 14.0447 33.3095C14.4275 32.9036 14.5545 32.3334 14.5943 32.0707C14.6066 31.9897 14.558 31.9143 14.4791 31.892C14.0303 31.7654 12.5896 31.3157 12.5615 30.7464C12.5121 29.7498 16.2207 29.8119 16.6065 29.8185C18.3704 29.8483 19.9381 30.3112 19.4113 32.4731C18.8223 34.8912 17.2309 35.8546 15.3147 36.0622C15.1246 36.0828 14.2435 36.0683 13.7658 35.9764C13.3445 35.8954 12.9789 35.785 12.6741 35.6519C11.472 35.1233 10.8708 34.1849 10.8708 32.8383C10.8708 32.4565 10.9483 32.0435 11.0867 31.6074C12.0181 32.6478 12.6351 32.9246 13.8231 33.3559ZM7.64691 14.1936C7.92585 14.0552 8.20787 13.9129 8.50302 13.7539C9.74842 13.083 10.4653 12.6307 10.6549 12.396C10.9023 12.0903 11.0766 11.6305 11.1782 11.0148C11.2294 10.689 11.2312 10.2248 11.1843 9.62313C11.3336 9.66692 11.4659 9.69626 11.6406 9.71158V9.71903H12.7498C12.9574 11.1733 13.2854 14.0425 13.4343 15.52C13.5762 16.9191 13.7224 17.8676 13.8744 18.3651C13.9891 18.7478 14.212 19.1034 14.5111 19.4581C15.0865 20.1416 16.4475 20.1416 16.4475 20.1416C16.4475 20.1416 16.744 20.1574 17.1788 20.1298C17.6246 23.6931 17.8475 25.7013 17.8475 26.1497C17.8475 26.2176 17.8427 26.2592 17.8322 26.2754C17.7683 26.4164 17.6947 26.5294 17.6137 26.6209C16.9647 27.0317 16.095 27.2117 15.2674 27.2787C16.0933 26.7589 16.5456 26.4462 16.6152 26.3455C16.7374 26.0626 16.8368 25.8064 16.913 25.5752C16.9537 25.4758 16.9743 25.4027 16.9743 25.3549C16.9743 25.3234 16.959 25.3081 16.9283 25.3081C16.8929 25.3081 16.8189 25.3444 16.7072 25.4176C15.6168 26.1147 14.6622 26.7173 13.8424 27.2257C13.7557 27.2357 13.6694 27.241 13.5827 27.241C12.8085 27.241 12.0728 26.9476 11.3752 26.3612C10.7639 25.8428 10.4587 25.3948 10.4587 25.0173C10.4587 24.8075 10.8506 24.5772 11.6354 24.3254C12.389 24.085 13.0279 23.9641 13.5525 23.9641C13.7667 23.9641 14.1332 24.0346 14.6525 24.1756C14.7239 24.1971 14.7826 24.2072 14.8286 24.2072C14.8899 24.2072 14.9197 24.1866 14.9197 24.1441C14.9197 23.9926 14.6701 23.7982 14.1713 23.5626C13.5911 23.2906 12.9771 23.1588 12.3303 23.1698C11.7295 23.1798 11.197 23.4102 10.7337 23.8608C10.245 24.3324 10.0007 24.9113 10.0007 25.5984C10.0007 26.0591 10.1863 26.5044 10.5581 26.9345C10.8279 27.2441 11.197 27.5423 11.6656 27.8304C11.825 27.9219 11.9848 28.0135 12.1442 28.105L12.1315 28.1203C12.1499 28.1234 12.167 28.1256 12.1849 28.1286C12.2765 28.1812 12.3684 28.2337 12.4599 28.2863C12.0172 28.6909 11.5964 29.3259 11.1966 30.1798C10.6435 29.4283 10.0024 28.2745 9.6407 26.6577C9.63851 26.6481 9.63632 26.6384 9.63413 26.6292C9.60172 26.483 9.57808 26.324 9.55049 26.1703C9.47692 25.6466 9.40072 24.8075 9.28249 23.6707C9.12966 22.2191 8.96632 20.9982 8.79335 20.0081C8.7789 19.9262 8.76269 19.8347 8.74518 19.7388C10.1285 19.2803 11.271 18.792 11.7405 18.6401C12.6811 18.3357 12.9824 18.6987 12.3347 19.4725C11.5438 20.4171 10.3738 21.4536 10.2481 21.6629C10.1224 21.8718 10.4675 21.6634 10.4675 21.6634C10.4675 21.6634 11.6012 20.7744 12.2401 20.1049C12.9456 19.3657 13.4014 18.5621 13.3397 17.8378C13.278 17.114 11.0271 17.734 9.01318 18.5372C8.85991 18.5985 8.7062 18.6545 8.5525 18.7088C8.3042 17.4039 7.95563 15.654 7.64691 14.1936Z" fill="#F9B115"/>
<path d="M34.6793 44.1322L33.7356 44.2342C33.6121 44.2473 33.4882 44.2543 33.3643 44.2543L2.93587 44.2614C2.93587 44.2614 1.23285 44.2885 1.61076 43.5892C2.04166 42.7922 5.1438 42.889 5.4026 41.101C5.66097 39.313 3.87299 38.2572 3.87299 38.2572L4.28243 38.2033L3.04535 37.2991L3.00506 38.453L3.10622 38.5038C3.10622 38.5038 4.5027 39.9913 5.00892 40.7507C5.00892 40.7507 5.22131 41.1049 5.00892 41.2363C4.79654 41.3677 4.61437 41.5297 3.30853 41.894C2.00313 42.2584 0.808956 43.4223 0.869387 44.3025C0.929818 45.1827 2.0837 45.2234 2.81238 45.2843C3.54106 45.3452 32.0812 45.2843 32.0812 45.2843C32.0812 45.2843 33.7348 44.9353 34.6579 44.3065C34.9149 44.1304 34.6793 44.1322 34.6793 44.1322Z" fill="#F9B115"/>
<path d="M1.07889 36.8137C1.39987 37.009 1.42921 37.037 1.78698 37.2485C2.0887 36.9521 2.41363 36.6451 2.48326 36.3026C2.50471 36.1962 2.32211 36.124 2.07425 35.944C1.81151 35.7535 1.67838 35.7001 1.54175 35.5867C1.02196 35.9904 0.867378 36.4752 0.852489 36.5361C0.817019 36.6547 0.924744 36.7265 1.07889 36.8137Z" fill="#F9B115"/>
<path d="M32.882 41.8876C32.8929 41.8876 32.9004 41.9082 32.9043 41.9489C32.9078 41.9896 32.9187 42.012 32.9376 42.0155C33.0834 42.058 33.1793 41.987 33.1946 41.9699C33.2073 41.9555 33.3286 41.8132 33.2424 41.511C33.1758 41.4335 33.0891 41.3945 32.9818 41.3945C32.638 41.3945 32.3736 41.6993 32.1892 42.3093C32.1528 42.5296 32.3017 42.5975 32.3946 42.6255C32.4055 42.6294 32.4997 42.6478 32.6775 42.6807C32.4003 42.9101 32.2615 43.0634 32.2615 43.1409C32.2615 43.1707 32.275 43.2079 32.3162 43.2127C32.3604 43.218 32.416 43.2206 32.4944 43.1742C32.6236 43.0634 32.8531 42.9338 33.1819 42.7858C33.4775 42.6566 33.6768 42.53 33.7784 42.4061C33.88 42.2822 33.9312 42.1517 33.9312 42.015C33.9312 41.9708 33.9181 41.9485 33.8922 41.9485C33.8813 41.9524 33.8681 41.9559 33.8532 41.9594C33.7941 41.9892 33.6886 42.0575 33.5375 42.1648C33.4228 42.2463 33.2953 42.3128 33.1548 42.3645C33.0624 42.3422 32.7804 42.3693 32.5128 42.1534C32.5115 42.0575 32.649 41.9209 32.882 41.8876Z" fill="#F9B115"/>
<path d="M35.4934 9.30556C35.6594 9.43737 35.8127 9.59414 36.0526 9.62173C36.3036 9.41767 36.3421 9.04763 36.1459 8.79759C36.0036 8.6163 35.8236 8.62024 35.6887 8.80766C35.652 8.85933 35.6257 8.93465 35.5753 8.95743C35.4645 9.00735 35.4234 9.10106 35.377 9.19609C35.2451 9.46496 35.0568 9.68479 34.8029 9.84463C34.6584 9.93527 34.5138 10.0294 34.3606 10.1026C33.8403 10.3504 33.3157 10.5891 32.7929 10.8312C32.7302 10.8601 32.6663 10.8877 32.584 10.9245C32.6234 10.9385 32.637 10.949 32.6479 10.9468C32.989 10.8759 33.3354 10.8233 33.67 10.7283C34.4508 10.5067 35.1055 10.1113 35.4637 9.33841C35.4689 9.32658 35.4816 9.3187 35.4934 9.30556ZM36.0934 9.24294C35.9467 9.23024 35.8495 9.1501 35.7417 9.05026C35.9598 8.9618 36.0189 8.99684 36.0934 9.24294Z" fill="#F9B115"/>
<path d="M15.0344 34.4773C15.8151 34.2558 16.4698 33.8603 16.828 33.0874C16.8337 33.0756 16.8464 33.0673 16.8587 33.0546C17.0246 33.1864 17.1779 33.3432 17.4179 33.3708C17.6688 33.1667 17.7073 32.7967 17.5112 32.5466C17.3688 32.3653 17.1889 32.3693 17.054 32.5567C17.0172 32.6084 16.9909 32.6837 16.9406 32.7064C16.8298 32.7564 16.7886 32.8501 16.7422 32.9451C16.6104 33.214 16.4221 33.4338 16.1681 33.5936C16.0236 33.6843 15.8791 33.7784 15.7258 33.8516C15.2056 34.0994 14.681 34.3381 14.1581 34.5803C14.0955 34.6092 14.0315 34.6367 13.9492 34.6735C13.9886 34.6875 14.0022 34.6981 14.0132 34.6959C14.3538 34.6249 14.7002 34.5724 15.0344 34.4773ZM17.4586 32.992C17.3119 32.9793 17.2147 32.8991 17.107 32.7993C17.3246 32.7104 17.3842 32.7454 17.4586 32.992Z" fill="#F9B115"/>
<path d="M33.4996 32.1217C33.3695 32.0587 33.2184 32.0906 33.1033 32.2312C33.0279 32.3227 32.9592 32.4283 32.9198 32.5395C32.8116 32.8447 32.7196 33.1556 32.6264 33.4495C32.5186 33.2073 32.4114 32.9406 32.2839 32.6844C32.1644 32.4445 31.9678 32.3013 31.6582 32.2877C31.564 32.4252 31.462 32.5736 31.3691 32.7094C31.5272 32.9809 31.7142 33.114 32.0155 33.0002C32.1285 33.2099 32.248 33.3995 32.3339 33.6032C32.4175 33.8024 32.4661 34.0157 32.5432 34.2631C32.7078 34.0678 32.7696 33.879 32.8169 33.6802C32.8834 33.4009 32.9579 33.1232 33.0376 32.8469C33.0735 32.7221 33.1304 32.603 33.2837 32.5579C33.3931 32.6332 33.5035 32.7085 33.6388 32.8018C33.6752 32.6827 33.7137 32.5977 33.7264 32.5093C33.7448 32.3726 33.6261 32.1826 33.4996 32.1217Z" fill="#F9B115"/>
<path d="M9.04519 31.2428C9.06884 31.122 9.11263 31.0037 9.25407 30.9485C9.36399 31.0107 9.47521 31.0729 9.61097 31.1495C9.63549 31.0335 9.66483 30.9503 9.66921 30.8653C9.67578 30.7348 9.54747 30.5645 9.42267 30.5172C9.29392 30.4682 9.15379 30.5115 9.05658 30.6543C8.99308 30.7471 8.93659 30.8531 8.90856 30.9612C8.83149 31.2595 8.77062 31.5616 8.70669 31.8476C8.58451 31.6273 8.46015 31.3838 8.31826 31.1517C8.18514 30.9345 7.97276 30.7383 7.69206 30.8286C7.50288 30.8894 7.47967 31.0909 7.4534 31.252C7.44158 31.3251 7.81423 31.6067 8.09012 31.4736C8.21448 31.6628 8.34366 31.8322 8.44219 32.0183C8.53809 32.2001 8.60247 32.398 8.69574 32.6257C8.83543 32.4269 8.87791 32.243 8.90638 32.0508C8.94579 31.7806 8.99308 31.5113 9.04519 31.2428Z" fill="#F9B115"/>
<path d="M3.68749 25.4725C3.82718 25.2736 3.86966 25.0897 3.89812 24.8975C3.93797 24.6273 3.98483 24.358 4.03738 24.09C4.06103 23.9691 4.10482 23.8509 4.24626 23.7957C4.35617 23.8579 4.4674 23.9201 4.60316 23.9967C4.62768 23.8807 4.65702 23.7975 4.6614 23.7125C4.66797 23.582 4.53966 23.4117 4.41486 23.3644C4.28611 23.3153 4.14598 23.3587 4.04876 23.5014C3.98527 23.5943 3.92878 23.7002 3.90075 23.8088C3.82368 24.1071 3.76281 24.4092 3.69888 24.6952C3.5767 24.4749 3.45234 24.2314 3.31045 23.9993C3.17733 23.7821 2.96494 23.5859 2.68425 23.6762C2.49507 23.737 2.47186 23.9385 2.44559 24.0996C2.43376 24.1727 2.80642 24.4543 3.0823 24.3212C3.20667 24.5104 3.33585 24.6798 3.43438 24.8659C3.53028 25.0464 3.59422 25.2447 3.68749 25.4725Z" fill="#F9B115"/>
<path d="M7.67462 8.32312C7.54588 8.27407 7.40575 8.31742 7.30853 8.45974C7.24503 8.55258 7.18854 8.65855 7.16052 8.76715C7.08345 9.06537 7.02258 9.36752 6.95864 9.65348C6.83647 9.43321 6.7121 9.18973 6.57022 8.95764C6.4371 8.74044 6.22471 8.54426 5.94401 8.63447C5.75484 8.69534 5.73163 8.89677 5.70535 9.05792C5.69353 9.13105 6.06619 9.41263 6.34207 9.2795C6.46644 9.46868 6.59562 9.63815 6.69415 9.82426C6.79005 10.006 6.85398 10.2039 6.9477 10.4316C7.08739 10.2328 7.12986 10.0489 7.15833 9.85667C7.19818 9.58648 7.24503 9.31716 7.29758 9.04916C7.32123 8.92786 7.36502 8.81007 7.50647 8.75489C7.61638 8.81707 7.72761 8.87926 7.86292 8.95589C7.88744 8.83985 7.91678 8.75664 7.92116 8.67169C7.92817 8.54075 7.79986 8.37041 7.67462 8.32312Z" fill="#F9B115"/>
<path d="M3.50775 33.6246C3.44425 33.7174 3.38776 33.8234 3.35974 33.932C3.28266 34.2302 3.2218 34.5324 3.15786 34.8183C3.03569 34.5981 2.91132 34.3546 2.76944 34.1225C2.63631 33.9053 2.42393 33.7091 2.14323 33.7993C1.95405 33.8602 1.93085 34.0616 1.90457 34.2228C1.89275 34.2959 2.26541 34.5775 2.54129 34.4444C2.66565 34.6335 2.79484 34.803 2.89337 34.9891C2.98927 35.1709 3.0532 35.3688 3.14691 35.5965C3.28661 35.3977 3.32908 35.2138 3.35755 35.0215C3.3974 34.7513 3.44425 34.482 3.4968 34.214C3.52045 34.0927 3.56424 33.9749 3.70568 33.9198C3.8156 33.9819 3.92683 34.0441 4.06258 34.1208C4.0871 34.0047 4.11644 33.9215 4.12082 33.8366C4.12739 33.7061 3.99908 33.5357 3.87428 33.4884C3.74509 33.4389 3.60496 33.4823 3.50775 33.6246Z" fill="#F9B115"/>
<path d="M2.03241 5.64909C2.15371 5.90745 2.28246 6.14042 2.37485 6.39134C2.46506 6.63657 2.51717 6.89931 2.5995 7.20322C2.77685 6.96281 2.84254 6.73072 2.89377 6.48593C2.96515 6.14217 3.04529 5.80017 3.13112 5.46035C3.17009 5.30708 3.23053 5.15995 3.39562 5.10433C3.51298 5.19673 3.63209 5.29 3.77703 5.4043C3.81601 5.2576 3.85761 5.15338 3.87118 5.04434C3.89176 4.87662 3.7639 4.64278 3.62814 4.56746C3.48801 4.48951 3.32599 4.52936 3.20206 4.7019C3.12149 4.81444 3.04748 4.9445 3.005 5.08112C2.88852 5.45685 2.78999 5.83958 2.68927 6.20085C2.57366 5.90264 2.45806 5.57464 2.32143 5.25935C2.19312 4.96376 1.98161 4.78773 1.6488 4.77108C1.54765 4.94012 1.43817 5.12316 1.33789 5.29C1.5078 5.625 1.7088 5.78922 2.03241 5.64909Z" fill="#F9B115"/>
<path d="M32.736 44.0481C33.6972 43.3488 35.927 41.9615 36.2957 41.7329L36.2804 41.3379C35.5114 41.8183 33.187 43.3295 32.7285 43.6597L32.736 44.0481Z" fill="#F9B115"/>
<path d="M24.8567 9.67456C23.9406 10.1138 20.5315 11.911 19.9797 12.2214L19.9395 12.6554C21.0964 11.9963 24.3851 10.3253 24.8243 10.1164L24.8567 9.67456Z" fill="#F9B115"/>
<path d="M5.80007 20.9895C4.88397 21.4287 1.47486 23.2259 0.9231 23.5364L0.882812 23.9703C2.03976 23.3113 5.32844 21.6402 5.76766 21.4314L5.80007 20.9895Z" fill="#F9B115"/>
<path d="M11.9258 22.7117C13.0827 22.0526 14.8707 21.1891 15.3099 20.9802L15.3419 20.5383C14.4258 20.9776 12.5174 21.9672 11.9656 22.2777L11.9258 22.7117Z" fill="#F9B115"/>
<path d="M13.3945 23.0156C14.5515 22.3566 16.3395 21.493 16.7787 21.2841L16.8106 20.8423C15.8945 21.2815 13.9861 22.2712 13.4344 22.5817L13.3945 23.0156Z" fill="#F9B115"/>
<path d="M5.69655 31.0967C4.78045 31.5359 1.37135 33.3331 0.819584 33.6435L0.779297 34.0775C1.93625 33.4185 5.22493 31.7474 5.66415 31.5385L5.69655 31.0967Z" fill="#F9B115"/>
<path d="M30.6734 3.90318C30.6103 4.36605 29.6159 4.88234 29.6159 4.88234C29.6159 4.88234 30.0082 4.87621 30.3104 4.75272C30.6125 4.62923 31.1455 3.78933 31.2668 3.51257C31.3881 3.23537 31.1087 3.08911 31.1087 3.08911C31.1087 3.08911 29.7407 3.30369 29.4805 3.4044C29.093 3.55461 29.188 4.23949 29.188 4.23949C29.6036 3.91895 30.6734 3.90318 30.6734 3.90318Z" fill="#F9B115"/>
<path d="M24.9381 39.7841C24.9381 39.7841 25.3305 39.778 25.6326 39.6541C25.9348 39.5306 26.4677 38.6907 26.589 38.4139C26.7103 38.1367 26.4309 37.9905 26.4309 37.9905C26.4309 37.9905 25.0629 38.2051 24.8028 38.3058C24.4153 38.456 24.5103 39.1413 24.5103 39.1413C24.9254 38.8216 25.9952 38.8054 25.9952 38.8054C25.9326 39.2679 24.9381 39.7841 24.9381 39.7841Z" fill="#F9B115"/>
<path d="M6.04657 5.90862C6.71394 5.41028 7.16323 4.99208 7.39401 4.65401C7.60158 4.78276 7.74127 4.86509 7.81265 4.90012C7.85731 4.92333 7.90329 4.88698 7.95015 4.79064C7.99744 4.6943 8.01146 4.60322 7.99175 4.51695C7.86914 4.38251 7.75265 4.2796 7.64274 4.20735C7.72463 4.04664 7.7728 3.89206 7.78812 3.74317C7.82535 3.37139 7.68872 3.16995 7.37737 3.13886C7.27052 3.12791 7.13258 3.21505 6.96398 3.39985C6.79539 3.58465 6.70562 3.72828 6.69555 3.83031C6.67715 4.0116 6.72095 4.15918 6.82692 4.27304C6.94909 4.365 7.06908 4.45696 7.18644 4.54848C7.02792 4.81867 6.60227 5.20052 5.9095 5.69404C5.49086 5.98525 5.07442 6.27646 4.66016 6.5681C4.67067 6.60182 4.69694 6.62109 4.73898 6.62547C4.94348 6.64605 5.3792 6.40696 6.04657 5.90862ZM7.07828 3.73529C7.1028 3.62975 7.1733 3.58289 7.28935 3.59472C7.4378 3.60961 7.50042 3.73791 7.4759 3.97964C7.4702 4.03525 7.45794 4.08824 7.43867 4.13772C7.17549 3.96081 7.05507 3.82681 7.07828 3.73529Z" fill="#F9B115"/>
<path d="M9.17046 38.0949C9.09864 38.366 9.05091 38.6432 9.14988 38.9199C9.19498 39.0469 9.28125 39.1367 9.42006 39.1428C9.54706 39.1481 9.64734 39.0828 9.69332 38.9628C9.7647 38.7776 9.82513 38.588 9.89038 38.4001C9.87155 38.3909 9.85272 38.3822 9.83345 38.373C9.78397 38.4487 9.7358 38.5254 9.68368 38.5989C9.6307 38.6738 9.55319 38.7329 9.46692 38.6918C9.40693 38.6629 9.35263 38.5893 9.32898 38.5241C9.26592 38.348 9.3084 38.1737 9.3662 38.0021C9.44021 37.7822 9.52648 37.5655 9.58253 37.34C9.97971 35.7337 9.24008 33.8284 8.82845 33.5293C8.7562 33.6559 8.69883 34.12 8.64453 34.2151C8.80481 34.4204 9.61231 35.9908 9.41481 37.3198C9.37452 37.5878 9.24008 37.8335 9.17046 38.0949Z" fill="#F9B115"/>
<path d="M38.3883 37.9163C38.3353 37.9912 38.2578 38.0503 38.1716 38.0092C38.1116 37.9803 38.0573 37.9067 38.0336 37.8414C37.9706 37.6654 38.013 37.4911 38.0708 37.3195C38.1448 37.0996 38.2311 36.8829 38.2872 36.6573C38.6843 35.0511 37.9447 33.1458 37.5331 32.8467C37.4608 32.9732 37.4035 33.4374 37.3496 33.5324C37.5094 33.7378 38.3169 35.3082 38.1199 36.6372C38.08 36.9052 37.9456 37.1509 37.876 37.4123C37.8042 37.6834 37.7564 37.9606 37.8554 38.2373C37.9005 38.3643 37.9868 38.4541 38.1256 38.4602C38.2526 38.4655 38.3529 38.4002 38.3988 38.2802C38.4702 38.095 38.5306 37.9054 38.5959 37.7175C38.5771 37.7083 38.5582 37.6996 38.539 37.6904C38.4886 37.7657 38.4404 37.8423 38.3883 37.9163Z" fill="#F9B115"/>
<path d="M7.13516 24.1572C7.20479 23.926 7.28229 23.6961 7.3563 23.4658C7.34579 23.4623 7.33572 23.4588 7.32521 23.4548C7.24682 23.5858 7.16187 23.7145 7.09137 23.8481C6.88424 24.2422 6.78352 24.656 6.8168 25.0904C6.82293 25.1679 6.84877 25.2503 6.89081 25.3181C6.99897 25.492 7.27573 25.5148 7.40666 25.354C7.55861 25.1679 7.62299 24.9503 7.63306 24.7182C7.58971 24.7515 7.56299 24.7922 7.53365 24.8312C7.50213 24.8723 7.47147 24.9148 7.43381 24.9516C7.28974 25.0909 7.12509 25.0641 7.0721 24.8837C7.04101 24.7786 7.02962 24.6635 7.04101 24.5553C7.05458 24.4209 7.09575 24.2882 7.13516 24.1572Z" fill="#F9B115"/>
<path d="M11.2732 16.1506C11.3813 16.3245 11.6581 16.3473 11.789 16.1866C11.941 16.0004 12.0054 15.7828 12.0154 15.5507C11.9721 15.584 11.9454 15.6247 11.916 15.6637C11.8845 15.7049 11.8538 15.7473 11.8162 15.7841C11.6721 15.9234 11.5075 15.8967 11.4545 15.7162C11.4234 15.6111 11.412 15.496 11.4234 15.3878C11.4374 15.2538 11.4781 15.1211 11.518 14.9898C11.5876 14.7585 11.6651 14.5286 11.7391 14.2983C11.7286 14.2948 11.7185 14.2913 11.708 14.2874C11.6296 14.4183 11.5447 14.547 11.4742 14.6806C11.267 15.0747 11.1663 15.4885 11.1996 15.9229C11.2049 16 11.2307 16.0823 11.2732 16.1506Z" fill="#F9B115"/>
<path d="M3.23086 17.2688C3.30049 17.0376 3.378 16.8077 3.452 16.5774C3.4415 16.5739 3.43142 16.5703 3.42091 16.5664C3.34253 16.6973 3.25757 16.8261 3.18707 16.9596C2.97994 17.3538 2.87922 17.7676 2.9125 18.202C2.91863 18.2795 2.94447 18.3618 2.98651 18.4297C3.09467 18.6035 3.37143 18.6263 3.50236 18.4656C3.65432 18.2795 3.71869 18.0619 3.72876 17.8298C3.68541 17.863 3.6587 17.9038 3.62936 17.9427C3.59783 17.9839 3.56717 18.0264 3.52951 18.0632C3.38544 18.2024 3.22079 18.1757 3.1678 17.9953C3.13671 17.8902 3.12533 17.775 3.13671 17.6669C3.15029 17.5329 3.19101 17.4002 3.23086 17.2688Z" fill="#F9B115"/>
<path d="M2.93008 27.2151C2.99971 26.9839 3.07722 26.754 3.15122 26.5236C3.14071 26.5201 3.13064 26.5166 3.12013 26.5127C3.04175 26.6436 2.95679 26.7724 2.88629 26.9059C2.67916 27.3001 2.57844 27.7139 2.61172 28.1483C2.61785 28.2258 2.64369 28.3081 2.68573 28.376C2.79389 28.5498 3.07065 28.5726 3.20158 28.4119C3.35354 28.2258 3.41791 28.0081 3.42798 27.7761C3.38463 27.8093 3.35792 27.8501 3.32858 27.889C3.29705 27.9302 3.26639 27.9727 3.22873 28.0095C3.08466 28.1487 2.92001 28.122 2.86702 27.9416C2.83593 27.8365 2.82454 27.7213 2.83593 27.6132C2.84994 27.4792 2.89067 27.3465 2.93008 27.2151Z" fill="#F9B115"/>
<path d="M15.0277 12.4739C15.0974 12.2427 15.1749 12.0128 15.2489 11.7824C15.2384 11.7789 15.2283 11.7754 15.2178 11.7715C15.1394 11.9024 15.0545 12.0312 14.9839 12.1647C14.7768 12.5588 14.6761 12.9727 14.7094 13.4071C14.7155 13.4846 14.7413 13.5669 14.7834 13.6348C14.8915 13.8086 15.1683 13.8314 15.2992 13.6707C15.4512 13.4846 15.5156 13.2669 15.5256 13.0348C15.4823 13.0681 15.4556 13.1089 15.4262 13.1478C15.3947 13.189 15.364 13.2315 15.3264 13.2683C15.1823 13.4075 15.0177 13.3808 14.9647 13.2004C14.9336 13.0953 14.9222 12.9801 14.9336 12.8719C14.9476 12.7379 14.9883 12.6053 15.0277 12.4739Z" fill="#F9B115"/>
<path d="M3.74783 9.71503C3.60375 9.85428 3.4391 9.82757 3.38611 9.64715C3.35502 9.54205 3.34364 9.42689 3.35502 9.31872C3.36904 9.18472 3.40976 9.05204 3.44961 8.92066C3.51924 8.68945 3.59675 8.45955 3.67075 8.22921C3.66025 8.22571 3.65017 8.2222 3.63966 8.21826C3.56128 8.3492 3.47632 8.47794 3.40582 8.6115C3.19869 9.00562 3.09797 9.41944 3.13125 9.85384C3.13738 9.93135 3.16322 10.0137 3.20526 10.0816C3.31342 10.2554 3.59018 10.2782 3.72111 10.1175C3.87307 9.93135 3.93744 9.71371 3.94751 9.48162C3.90416 9.5149 3.87745 9.55563 3.84811 9.5946C3.8157 9.63577 3.78549 9.67824 3.74783 9.71503Z" fill="#F9B115"/>
<path d="M8.89492 10.1294C8.96455 9.89819 9.04206 9.66829 9.11607 9.43795C9.10556 9.43445 9.09549 9.43094 9.08498 9.427C9.00659 9.55794 8.92164 9.68668 8.85113 9.82024C8.644 10.2144 8.54328 10.6282 8.57657 11.0626C8.5827 11.1401 8.60853 11.2224 8.65057 11.2903C8.75874 11.4641 9.03549 11.4869 9.16643 11.3262C9.31838 11.1401 9.38275 10.9225 9.39283 10.6904C9.34947 10.7236 9.32276 10.7644 9.29342 10.8033C9.26189 10.8445 9.23124 10.887 9.19358 10.9238C9.04951 11.063 8.88485 11.0363 8.83187 10.8559C8.80077 10.7508 8.78939 10.6356 8.80077 10.5275C8.81435 10.3935 8.85551 10.2608 8.89492 10.1294Z" fill="#F9B115"/>
<path d="M5.34024 35.7954C5.40986 35.5642 5.48737 35.3343 5.56138 35.104C5.55087 35.1005 5.5408 35.097 5.53029 35.093C5.4519 35.224 5.36695 35.3527 5.29645 35.4863C5.08932 35.8804 4.9886 36.2942 5.02188 36.7286C5.02801 36.8061 5.05385 36.8884 5.09589 36.9563C5.20405 37.1302 5.4808 37.1529 5.61174 36.9922C5.76369 36.8061 5.82807 36.5885 5.83814 36.3564C5.79479 36.3897 5.76807 36.4304 5.73873 36.4694C5.7072 36.5105 5.67655 36.553 5.63889 36.5898C5.49482 36.729 5.33016 36.7023 5.27718 36.5219C5.24609 36.4168 5.2347 36.3016 5.24609 36.1935C5.25966 36.059 5.30039 35.9264 5.34024 35.7954Z" fill="#F9B115"/>
<path d="M17.9359 38.3511C18.0056 38.1199 18.0831 37.89 18.1571 37.6596C18.1466 37.6561 18.1365 37.6526 18.126 37.6487C18.0476 37.7796 17.9627 37.9084 17.8921 38.0419C17.685 38.436 17.5843 38.8499 17.6176 39.2843C17.6237 39.3618 17.6495 39.4441 17.6916 39.512C17.7998 39.6858 18.0765 39.7086 18.2074 39.5479C18.3594 39.3618 18.4238 39.1441 18.4338 38.9125C18.3905 38.9458 18.3638 38.9865 18.3344 39.0255C18.3029 39.0666 18.2723 39.1091 18.2346 39.1459C18.0905 39.2851 17.9259 39.2584 17.8729 39.078C17.8418 38.9729 17.8304 38.8577 17.8418 38.7496C17.8554 38.6147 17.8965 38.482 17.9359 38.3511Z" fill="#F9B115"/>
<path d="M30.9477 16.9605C31.0173 16.7292 31.0948 16.4993 31.1688 16.269C31.1583 16.2655 31.1482 16.262 31.1377 16.2581C31.0593 16.389 30.9744 16.5177 30.9039 16.6513C30.6967 17.0454 30.596 17.4592 30.6293 17.8936C30.6354 17.9711 30.6613 18.0535 30.7037 18.1214C30.8119 18.2952 31.0887 18.318 31.2196 18.1573C31.3716 17.9711 31.4359 17.7535 31.446 17.5214C31.4026 17.5547 31.3759 17.5954 31.3466 17.6344C31.3151 17.6756 31.2844 17.718 31.2468 17.7548C31.1027 17.8941 30.938 17.8674 30.885 17.6869C30.8539 17.5819 30.8426 17.4667 30.8539 17.3585C30.8671 17.2241 30.9078 17.0914 30.9477 16.9605Z" fill="#F9B115"/>
<path d="M21.0648 15.4277C21.1345 15.1965 21.212 14.9666 21.286 14.7363C21.2755 14.7328 21.2654 14.7293 21.2549 14.7253C21.1765 14.8563 21.0916 14.985 21.0211 15.1186C20.8139 15.5127 20.7132 15.9265 20.7465 16.3609C20.7526 16.4384 20.7785 16.5208 20.8205 16.5886C20.9287 16.7625 21.2054 16.7853 21.3363 16.6245C21.4883 16.4384 21.5527 16.2208 21.5627 15.9887C21.5194 16.022 21.4927 16.0627 21.4633 16.1017C21.4318 16.1428 21.4012 16.1853 21.3635 16.2221C21.2194 16.3614 21.0548 16.3346 21.0018 16.1542C20.9707 16.0491 20.9593 15.934 20.9707 15.8258C20.9843 15.6918 21.0254 15.5591 21.0648 15.4277Z" fill="#F9B115"/>
<path d="M1.74844 39.7439C1.81807 39.5127 1.89558 39.2828 1.96958 39.0525C1.95907 39.0489 1.949 39.0454 1.93849 39.0415C1.86011 39.1724 1.77515 39.3012 1.70465 39.4347C1.49752 39.8289 1.3968 40.2427 1.43008 40.6771C1.43621 40.7546 1.46205 40.8369 1.50409 40.9048C1.61225 41.0786 1.88901 41.1014 2.01994 40.9407C2.1719 40.7546 2.23627 40.537 2.24634 40.3049C2.20299 40.3381 2.17627 40.3789 2.14693 40.4178C2.11541 40.459 2.08475 40.5015 2.04709 40.5383C1.90302 40.6775 1.73837 40.6508 1.68538 40.4704C1.65429 40.3653 1.6429 40.2501 1.65429 40.142C1.66786 40.008 1.70859 39.8753 1.74844 39.7439Z" fill="#F9B115"/>
<path d="M33.8044 13.416C33.712 13.5587 33.6165 13.7006 33.5119 13.8346C33.3744 14.0107 33.2268 14.1788 33.0801 14.3544C33.1024 14.3636 33.1099 14.3697 33.1147 14.368C33.1344 14.3614 33.1563 14.3562 33.1725 14.3439C33.5027 14.0921 33.8018 13.8105 34.0264 13.4571C34.1657 13.2386 34.2129 12.9995 34.1924 12.7442C34.1836 12.6317 34.1424 12.5345 34.0426 12.4762C33.9147 12.4018 33.6213 12.4447 33.525 12.5594C33.4054 12.7031 33.3275 12.8682 33.3314 13.0648C33.4663 13.0429 33.5832 13.0105 33.701 13.0083C33.8359 13.0057 33.9064 13.1081 33.8744 13.2382C33.8596 13.3004 33.8385 13.3634 33.8044 13.416Z" fill="#F9B115"/>
<path d="M28.2751 10.0464C28.1827 10.1891 28.0872 10.331 27.9826 10.465C27.8451 10.641 27.6975 10.8092 27.5508 10.9848C27.5731 10.994 27.5806 11.0001 27.5854 10.9984C27.6051 10.9918 27.627 10.9865 27.6432 10.9743C27.9734 10.7225 28.2725 10.4409 28.4971 10.0875C28.6364 9.869 28.6836 9.6299 28.6631 9.3746C28.6543 9.26206 28.6131 9.16484 28.5133 9.1066C28.3854 9.03216 28.092 9.07507 27.9957 9.18981C27.8761 9.33344 27.7982 9.49853 27.8021 9.69515C27.937 9.67326 28.0539 9.64085 28.1717 9.63866C28.3066 9.63603 28.3771 9.7385 28.3451 9.86856C28.3307 9.93074 28.3092 9.99424 28.2751 10.0464Z" fill="#F9B115"/>
<path d="M35.3727 40.1196C35.2803 40.2624 35.1849 40.4042 35.0802 40.5382C34.9427 40.7143 34.7951 40.8824 34.6484 41.058C34.6708 41.0672 34.6782 41.0734 34.683 41.0716C34.7027 41.065 34.7246 41.0598 34.7413 41.0475C35.0715 40.7957 35.3705 40.5141 35.5952 40.1608C35.7344 39.9422 35.7817 39.7031 35.7612 39.4478C35.7524 39.3353 35.7112 39.2381 35.6114 39.1798C35.4835 39.1054 35.1901 39.1483 35.0938 39.263C34.9742 39.4067 34.8963 39.5718 34.9002 39.7684C35.0351 39.7465 35.152 39.7141 35.2698 39.7119C35.4047 39.7093 35.4752 39.8117 35.4432 39.9418C35.4284 40.004 35.4069 40.0675 35.3727 40.1196Z" fill="#F9B115"/>
<path d="M34.1967 29.4605C34.1879 29.348 34.1468 29.2508 34.0469 29.1925C33.9191 29.1181 33.6257 29.161 33.5293 29.2757C33.4098 29.4194 33.3318 29.5845 33.3358 29.7811C33.4707 29.7592 33.5876 29.7268 33.7054 29.7246C33.8402 29.722 33.9108 29.8244 33.8788 29.9545C33.8639 30.0158 33.8424 30.0793 33.8083 30.1319C33.7159 30.2746 33.6204 30.4165 33.5158 30.5505C33.3783 30.7265 33.2307 30.8947 33.084 31.0703C33.1063 31.0795 33.1138 31.0856 33.1186 31.0839C33.1383 31.0773 33.1602 31.072 33.1764 31.0598C33.5066 30.808 33.8057 30.5264 34.0303 30.173C34.17 29.9549 34.2173 29.7158 34.1967 29.4605Z" fill="#F9B115"/>
<path d="M31.2848 42.77C31.1924 42.9127 31.097 43.0546 30.9923 43.1886C30.8548 43.3647 30.7072 43.5328 30.5605 43.7084C30.5829 43.7176 30.5903 43.7237 30.5951 43.722C30.6148 43.7154 30.6367 43.7102 30.6534 43.6979C30.9836 43.4461 31.2827 43.1645 31.5073 42.8111C31.6466 42.5926 31.6938 42.3535 31.6733 42.0982C31.6645 41.9857 31.6233 41.8885 31.5235 41.8302C31.3956 41.7558 31.1022 41.7987 31.0059 41.9134C30.8863 42.0571 30.8084 42.2222 30.8123 42.4188C30.9472 42.3969 31.0641 42.3645 31.1819 42.3623C31.3168 42.3597 31.3873 42.4621 31.3553 42.5922C31.34 42.6539 31.319 42.7174 31.2848 42.77Z" fill="#F9B115"/>
<path d="M22.9938 39.3195C22.9014 39.4623 22.806 39.6042 22.7013 39.7382C22.5638 39.9142 22.4162 40.0824 22.2695 40.258C22.2919 40.2672 22.2993 40.2733 22.3041 40.2716C22.3238 40.265 22.3462 40.2597 22.3624 40.2475C22.6926 39.9957 22.9916 39.7141 23.2163 39.3607C23.3555 39.1422 23.4028 38.9031 23.3823 38.6478C23.3735 38.5353 23.3323 38.438 23.2325 38.3798C23.1046 38.3054 22.8112 38.3483 22.7149 38.463C22.5953 38.6066 22.5174 38.7717 22.5213 38.9683C22.6562 38.9464 22.7731 38.914 22.8909 38.9119C23.0258 38.9092 23.0963 39.0117 23.0643 39.1418C23.0494 39.2035 23.028 39.267 22.9938 39.3195Z" fill="#F9B115"/>
<path d="M5.87409 43.5016C6.20427 43.2498 6.50336 42.9683 6.728 42.6149C6.86726 42.3963 6.91455 42.1572 6.89397 41.9019C6.88521 41.7894 6.84405 41.6922 6.74421 41.6339C6.61634 41.5595 6.32294 41.6024 6.2266 41.7171C6.10705 41.8608 6.02911 42.0259 6.03305 42.2225C6.16792 42.2006 6.28484 42.1682 6.40264 42.166C6.53751 42.1634 6.60802 42.2658 6.57605 42.3959C6.56116 42.4572 6.5397 42.5207 6.50555 42.5733C6.41315 42.716 6.31769 42.8579 6.21303 42.9919C6.07552 43.1679 5.92795 43.3361 5.78125 43.5117C5.80358 43.5209 5.81103 43.527 5.81584 43.5253C5.83599 43.5191 5.85788 43.5139 5.87409 43.5016Z" fill="#F9B115"/>
<path d="M20.9919 29.3576C20.8995 29.5004 20.804 29.6423 20.6994 29.7763C20.5619 29.9523 20.4143 30.1205 20.2676 30.2961C20.2899 30.3053 20.2974 30.3114 20.3022 30.3096C20.3219 30.3031 20.3438 30.2978 20.36 30.2856C20.6902 30.0338 20.9893 29.7522 21.2139 29.3988C21.3532 29.1803 21.4004 28.9412 21.3799 28.6859C21.3711 28.5733 21.3299 28.4761 21.2301 28.4179C21.1022 28.3434 20.8088 28.3864 20.7125 28.5011C20.5929 28.6447 20.515 28.8098 20.5189 29.0064C20.6538 28.9845 20.7707 28.9521 20.8885 28.9499C21.0234 28.9473 21.0939 29.0498 21.0619 29.1798C21.0475 29.242 21.026 29.3051 20.9919 29.3576Z" fill="#F9B115"/>
<path d="M33.368 21.458C33.3382 21.458 33.3005 21.4356 33.2558 21.3905C33.2103 21.3454 33.188 21.3082 33.188 21.278C33.1924 21.0424 33.1731 20.8239 33.1302 20.6224C33.1087 20.5068 33.0702 20.4486 33.0146 20.4486C32.9804 20.4486 32.9629 20.5108 32.9629 20.6351C32.976 21.2049 33.0211 21.5543 33.0982 21.6826C33.167 21.7899 33.2567 21.8433 33.368 21.8433C33.5777 21.8433 33.7003 21.7041 33.7345 21.4256C33.854 21.627 33.9613 21.7277 34.0555 21.7277C34.1452 21.7277 34.2354 21.6796 34.3252 21.5828C34.415 21.4864 34.4452 21.3463 34.415 21.1619C34.3252 20.8664 34.246 20.6566 34.1772 20.5322C34.1558 20.3869 34.1238 20.3137 34.0809 20.3137C34.0507 20.3137 34.0218 20.3575 33.9942 20.4455C33.9661 20.5335 33.9565 20.5988 33.9648 20.6417C34.0721 20.9329 34.1536 21.1409 34.2092 21.2653C34.1833 21.3165 34.1365 21.3319 34.0682 21.3104C33.9955 21.2889 33.9289 21.2289 33.8689 21.1304C33.8348 21.0748 33.7875 20.9741 33.7279 20.8283C33.7104 20.7039 33.6999 20.6163 33.6955 20.5646C33.6872 20.4622 33.6592 20.4105 33.6123 20.4105C33.5309 20.4105 33.4967 20.4876 33.5098 20.6417C33.5138 20.6544 33.533 20.7424 33.5676 20.9053C33.5974 21.0512 33.6127 21.1817 33.6127 21.2973C33.6119 21.4045 33.5304 21.458 33.368 21.458Z" fill="#F9B115"/>
</svg>
