<svg width="427" height="191" viewBox="0 0 427 191" fill="none" xmlns="http://www.w3.org/2000/svg">
<g opacity="0.03">
<path d="M447.224 320C444.01 326.862 434.513 341.474 418.718 363.845C417.575 365.449 416.504 366.956 415.402 368.514C413.788 355.204 412.547 344.585 412.599 343.806C414.321 345.584 415.94 347.06 417.473 348.224C418.031 348.593 418.426 348.782 418.667 348.782C419.036 348.782 419.225 348.531 419.225 348.044C419.225 346.512 417.754 342.612 414.807 336.364C412.968 332.315 411.097 328.266 409.195 324.218C408.094 321.583 407.238 320.256 406.618 320.256C406.366 320.256 406.192 320.476 406.069 320.902C403.732 328.015 402.758 331.916 403.122 332.582C404.593 335.529 405.418 337.338 405.598 338.014C406.761 350.151 407.596 359.442 408.083 365.89C408.473 369.385 408.903 373.142 409.349 377.011C396.019 395.764 385.62 410.36 378.26 420.657C365.55 408.644 355.428 399.377 347.899 392.843C342.743 387.871 335.584 380.548 328.408 373.075C332.734 370.518 337.177 367.781 341.846 364.706C355.776 355.532 363.736 349.479 365.704 346.537C368.287 342.709 369.845 337.153 370.378 329.871C370.629 326.017 370.163 320.604 368.958 313.65C370.89 314.024 371.126 314.203 372.223 314.367C376.948 314.367 380.987 312.748 384.369 309.493C386.02 307.899 388.198 304.342 390.894 298.818C390.714 301.703 391.263 304.132 392.544 306.09C394.148 308.417 396.654 310.446 400.093 312.158C402.866 313.547 405.106 314.224 406.899 314.301V314.367C406.992 314.367 407.079 314.352 407.166 314.352C407.197 314.352 407.238 314.367 407.263 314.367V314.342C413.485 314.219 418.887 311.015 423.448 304.706C427.318 299.376 429.117 290.817 428.881 279.04C425.022 242.252 415.879 166.098 412.757 143.286C415.879 146.72 417.503 148.498 417.631 148.616C418.118 148.985 418.518 149.175 418.826 149.175C419.195 149.175 419.384 148.867 419.384 148.247C419.384 144.695 416.222 136.936 409.903 124.979C408.801 122.155 407.945 120.741 407.325 120.741C407.084 120.741 406.899 120.961 406.776 121.386C404.808 127.526 403.829 131.416 403.829 133.067C403.829 133.933 404.009 134.609 404.378 135.096C405.362 136.439 405.91 137.305 406.038 137.674C406.587 147.97 408.058 164.95 409.103 173.165C415.299 220.88 423.356 286.195 423.356 291.832C423.356 292.627 423.295 293.113 423.177 293.303C421.824 296.178 420.173 298.177 418.2 299.284C415.802 300.729 412.112 301.442 407.171 301.472C405.644 301.447 403.501 300.617 400.724 298.956C397.91 297.275 396.147 295.804 395.44 294.538C394.732 293.283 394.225 292.232 393.918 291.366C394.404 289.961 394.656 288.829 394.656 287.963C394.656 285.574 393.123 286.369 390.058 290.361C389.807 290.669 389.044 292.073 387.762 294.589C386.66 296.737 385.733 298.054 384.995 298.551C382.504 300.319 378.716 301.247 373.771 301.416C370.065 301.15 367.026 300.781 364.725 300.289C362.249 296.937 360.512 294.671 359.543 293.503C358.483 292.017 357.745 292.058 357.324 293.626C356.407 297.326 355.648 301.021 355.049 304.732C358.811 310.011 362.644 319.82 366.498 334.14C360.758 340.218 352.748 346.307 342.451 352.395C338.167 354.886 330.669 358.879 320.06 364.327C311.388 355.178 303.946 347.163 301.778 344.749C305.299 344.682 307.672 344.61 308.907 344.544C309.896 344.477 310.388 344.257 310.388 343.857C310.388 343.457 306.473 340.72 298.637 335.636C292.281 331.485 288.827 329.404 288.269 329.404C287.9 329.404 287.746 329.599 287.807 329.994C287.566 335.601 287.377 339.434 287.259 341.479C287.197 342.002 287.628 342.494 288.55 342.955C289.294 343.427 289.842 343.652 290.211 343.652C292.097 346.732 301.727 358.11 311.07 368.914C311.029 368.934 310.998 368.95 310.957 368.97C305.494 371.748 293.235 376.453 274.18 383.079C259.532 388.148 252.147 391.7 252.014 393.714C251.993 394.022 252.352 394.206 253.085 394.252C254.181 394.324 255.821 394.15 258.005 393.735C277.824 390.475 291.789 388.312 299.908 387.246C305.853 385.007 312.295 382.019 319.229 378.298C322.335 381.844 325.092 384.981 327.066 387.2C332.37 393.207 339.96 400.592 349.826 409.371C363.961 421.841 371.459 428.514 372.315 429.369C368.179 435.643 365.75 439.83 365.007 441.936C362.844 448.404 361.763 454.406 361.763 459.951C361.763 467.413 364.294 471.139 369.348 471.139C371.628 471.139 375.031 469.525 379.536 466.291C383.852 463.185 386.445 460.684 387.306 458.767C388.849 455.472 389.618 451.679 389.618 447.389C389.618 444.222 389.187 440.399 388.326 435.904C387.778 433.003 385.671 429.344 382.032 424.921C393.877 408.807 403.296 395.949 410.405 386.211C414.408 420.098 419.707 461.688 421.526 476.141C422.075 481.533 422.044 486.714 421.429 491.68C420.942 495.611 421.029 497.569 421.706 497.569C422.131 497.569 422.808 496.713 423.735 494.991C426.124 490.517 427.318 483.193 427.318 473.005C427.318 470.129 427.2 467.157 426.949 464.082C425.903 452.063 424.494 441.137 421.301 416.295C420.122 406.973 418.231 391.854 416.509 377.821C419.902 373.147 422.516 369.518 424.145 367.212C436.236 349.987 443.734 337.979 446.639 331.178C448.864 325.899 449.971 321.383 449.971 317.627C449.971 316.832 449.853 316.438 449.602 316.438C449.135 316.433 448.336 317.622 447.224 320ZM386.138 448.671C386.255 449.132 384.344 450.618 380.403 453.124C376.077 455.83 372.597 457.183 369.942 457.183C367.098 457.183 365.688 455.805 365.688 453.032C365.688 450.849 366.949 447.692 369.481 443.525C371.705 440.101 373.955 436.662 376.236 433.239C382.591 439.896 385.886 445.042 386.138 448.671Z" fill="#575756"/>
<path d="M400.8 193.592C400.8 186.361 398.653 181.267 394.363 178.32C392.585 176.977 386.824 174.004 377.071 169.397C369.153 165.727 362.715 161.458 357.749 156.615C362.039 156.866 364.555 156.584 365.288 155.79C365.837 155.175 365.037 154.257 362.9 153.032C362.464 152.781 361.972 152.535 361.429 152.294L348.088 145.949C347.043 145.391 346.397 145.242 346.156 145.483C345.967 145.791 345.88 146.288 345.88 146.954V154.775C345.88 156.804 346.366 158.086 347.35 158.644C349.062 159.68 350.205 160.546 350.753 161.212C355.171 167.229 360.286 172.226 366.113 176.213C369.368 178.422 374.329 181.087 381.017 184.214C387.147 187.16 391.59 189.677 394.358 191.753C396.628 193.413 397.761 194.828 397.761 195.991C397.761 196.785 397.274 197.611 396.29 198.466C394.02 200.675 385.527 206.595 370.813 216.225C354.556 226.772 343.553 232.041 337.782 232.041C335.148 232.041 332.939 231.216 331.165 229.566C328.956 227.726 327.854 224.989 327.854 221.376C327.854 221.084 327.906 220.715 327.916 220.407C331.155 217.773 333.882 215.22 336.05 212.765C337.643 210.987 338.966 208.261 340.011 204.576C340.806 201.629 341.205 199.081 341.205 196.944C341.205 192.644 340.042 187.683 337.715 182.04C336.244 178.54 334.743 175.019 333.21 171.457C335.716 172.134 337.28 172.472 337.895 172.472C338.381 172.472 338.633 172.354 338.633 172.103C338.633 171.678 337.895 170.76 336.424 169.346C332.872 165.845 329.71 162.442 326.952 159.126C326.527 158.639 326.214 158.388 326.025 158.388C325.656 158.388 325.348 158.926 325.107 159.997C324.856 161.074 324.549 162.934 324.18 165.568C323.754 168.382 323.631 170.017 323.811 170.442C323.872 170.75 324.277 171.488 325.015 172.651C325.753 173.815 326.389 175.286 326.947 177.059C327.993 180.682 329.92 185.556 332.739 191.691C335.255 197.083 336.511 200.06 336.511 200.604C336.511 202.054 334.235 204.57 329.838 208.056C330.412 205.621 331.068 203.053 331.898 200.199C332.334 198.917 332.544 197.928 332.544 197.252C332.544 196.826 332.452 196.606 332.267 196.606C331.842 196.606 331.232 197.621 330.438 199.65C329.003 203.182 327.931 206.672 327.034 210.141C320.761 214.718 312.202 219.982 301.107 225.999C292.881 230.406 282.61 235.249 270.284 240.523C252.567 248.072 242.865 252.213 241.215 252.946C236.617 255.083 234.321 256.319 234.321 256.626C234.321 256.688 234.501 256.718 234.87 256.718C235.664 256.718 237.755 256.467 241.127 255.98C244.31 255.422 252.203 253.623 264.764 250.548C276.603 247.673 282.733 246.232 283.158 246.232C285.439 246.232 292.819 242.64 305.335 235.47C313.099 231.006 319.618 226.757 324.964 222.698C324.861 224.184 324.728 225.671 324.728 227.141C324.728 239.042 329.233 244.987 338.258 244.987C343.091 244.987 353.398 239.657 369.158 228.981C381.791 220.643 390.068 214.698 393.999 211.136C396.08 209.234 397.433 207.702 398.048 206.538C398.965 204.888 399.76 202.064 400.436 198.072C400.682 196.627 400.8 195.125 400.8 193.592Z" fill="#575756"/>
<path d="M439.951 149.049C440.32 149.049 440.509 148.798 440.509 148.311C440.509 146.778 439.038 142.878 436.091 136.631C434.252 132.582 432.381 128.533 430.479 124.484C429.378 121.85 428.522 120.522 427.902 120.522C427.65 120.522 427.476 120.743 427.353 121.168C425.016 128.282 424.042 132.182 424.406 132.848C425.877 135.795 426.702 137.604 426.882 138.281C428.045 150.417 429.557 167.427 430.044 173.875C433.965 209.074 442.001 274.076 444.21 291.619C444.758 297.01 444.727 302.192 444.112 307.158C443.625 311.089 443.712 313.047 444.389 313.047C444.814 313.047 445.491 312.191 446.419 310.469C448.807 305.99 450.001 298.671 450.001 288.482C450.001 285.607 449.883 282.635 449.632 279.559C448.586 267.541 446.48 249.116 443.287 224.275C440.653 203.421 433.754 145.794 433.877 144.072C435.599 145.851 437.219 147.327 438.751 148.49C439.31 148.859 439.71 149.049 439.951 149.049Z" fill="#575756"/>
<path d="M93.1693 73.9964C96.926 76.2822 97.2694 76.6102 101.457 79.0856C104.988 75.616 108.791 72.0233 109.606 68.0154C109.857 66.77 107.714 65.9244 104.819 63.818C101.744 61.5885 100.186 60.9633 98.5866 59.6359C92.5031 64.3612 90.6939 70.0347 90.5196 70.7471C90.0994 72.136 91.3602 72.9765 93.1693 73.9964Z" fill="#575756"/>
<path d="M31.5174 139.831C28.4423 137.602 26.8843 136.976 25.2852 135.649C19.2017 140.374 17.3926 146.048 17.2183 146.76C16.8032 148.144 18.0588 148.99 19.868 150.009C23.6247 152.295 23.9681 152.623 28.1553 155.099C30.5385 152.762 32.9729 150.348 34.6027 147.806C34.9153 148.626 35.9045 149.271 37.2062 150.009C40.9629 152.295 41.3063 152.623 45.4935 155.099C49.0247 151.629 52.8275 148.036 53.6424 144.028C53.8936 142.783 51.7513 141.937 48.8556 139.831C45.7805 137.602 44.2225 136.976 42.6235 135.649C39.3126 138.222 37.2985 141.051 36.0941 143.229C35.5201 142.337 33.7622 141.461 31.5174 139.831Z" fill="#575756"/>
<path d="M8.05575 180.262C8.17876 179.647 8.23513 179.16 8.23513 178.791C8.23513 178.422 8.14801 178.201 7.96863 178.145C7.55349 178.145 7.01535 178.852 6.35421 180.262C2.70001 188.416 0.870354 195.704 0.865229 202.151C0.854979 211.653 3.89416 219.228 9.98279 224.876C16.3687 230.831 25.271 233.819 36.6846 233.829C38.3144 233.829 40.1851 233.635 41.984 233.501V233.589C55.7193 233.296 70.9459 229.868 84.9221 225.696C90.0677 256.908 94.2037 284.178 94.2037 291.2C94.2037 293.281 94.1114 294.972 93.932 296.253C92.9788 302.27 84.9324 311.008 69.7928 322.478C69.0292 323.057 68.3116 323.549 67.5634 324.103C67.5275 323.872 67.4865 323.611 67.4557 323.406C66.1693 315.436 64.2321 307.118 61.6593 298.472C58.8968 289.211 56.7494 284.583 55.217 284.583C54.9095 284.583 54.6635 284.732 54.479 285.039C53.3771 289.575 52.3931 293.286 51.532 296.171C51.532 296.54 52.6339 300.338 54.8429 307.575C57.2927 315.431 58.8558 321.684 59.5323 326.348C59.6553 327.168 59.8091 328.203 59.9833 329.356C48.6722 336.69 39.2574 340.416 31.7901 340.416C14.6825 340.416 6.12872 331.365 6.12872 313.279C6.12872 305.063 7.58937 297.488 10.5107 290.554C11.1667 288.96 11.4947 287.74 11.4947 286.874C11.4947 286.198 11.3153 285.859 10.9566 285.859C10.0648 285.859 9.01927 287.182 7.82512 289.821C3.35603 299.631 1.12148 309.322 1.12148 318.891C1.12148 329.069 3.56616 337.387 8.45551 343.819C13.5242 350.446 20.2586 353.747 28.6587 353.747C37.8993 353.747 48.2674 350.195 59.7732 343.081C60.4754 342.646 61.1211 342.159 61.813 341.708C66.1283 371.069 74.267 427.425 75.7584 442.216C77.4138 458.591 79.1307 469.692 80.9143 475.514C82.2622 479.993 84.7427 484.257 88.3662 488.306C91.0722 491.325 93.9218 493.452 96.8687 494.8C109.682 500.663 136.214 502.739 165.781 501.611C185.661 500.852 205.003 500.904 228.912 493.38C235.206 491.402 239.767 488.388 243.078 485.749C242.709 491.33 243.872 495.717 246.568 498.9C249.018 501.785 252.364 503.225 256.598 503.225C261.749 503.225 266.628 501.134 271.225 496.968C274.223 493.534 276.247 490.961 277.293 489.239C278.579 493.108 279.348 495.22 279.589 495.584C281.121 497.982 283.792 499.177 287.594 499.177C293.601 499.177 298.972 493.846 303.698 483.171C303.882 486.236 304.676 488.752 306.086 490.71C308.659 494.364 313.405 496.296 320.252 496.558V496.604C320.329 496.604 320.416 496.583 320.493 496.583C320.575 496.583 320.636 496.604 320.713 496.604V496.563C324.352 496.455 328.508 495.112 333.223 492.468C337.513 490.069 340.67 487.681 342.695 485.293C347.85 479.286 349.993 473.054 349.137 466.617C348.522 462.26 345.764 457.228 340.855 451.523C335.396 445.337 334.002 443.759 333.449 442.109C334.735 442.349 336.268 442.478 338.051 442.478C339.092 442.478 339.614 442.17 339.614 441.55C339.614 440.812 338.851 439.807 337.318 438.516C332.839 435.205 329.072 432.478 326.002 430.326C325.079 429.47 324.439 429.988 324.07 431.889C323.578 435.82 323.24 438.941 323.055 441.273C322.809 441.95 323.393 442.288 324.808 442.288C326.95 448.725 329.21 452.815 334.792 459.252C340.675 465.997 344.048 470.445 344.909 472.593C345.401 473.756 342.946 475.837 337.554 478.84C331.65 482.033 325.997 483.632 320.564 483.694C318.222 483.668 315.88 483.017 313.543 481.695C311.518 480.224 310.14 478.599 309.407 476.821C308.669 475.042 308.146 473.725 307.844 472.859C308.454 470.958 308.607 469.794 308.3 469.369C307.931 468.882 306.393 468.846 305.45 470.384C303.303 474.371 302.011 476.939 301.586 478.102C298.639 483.812 294.903 486.42 290.362 485.923C287.543 485.626 284.694 483.473 281.808 479.486C283.156 475.196 283.833 473.018 283.833 472.962C283.833 472.536 283.648 472.316 283.279 472.316C283.033 472.316 282.726 472.408 282.357 472.593C279.661 475.288 277.636 477.774 276.288 480.045C274.751 482.551 272.486 484.79 269.477 486.758C266.105 488.839 262.82 489.88 259.632 489.88C254.174 489.88 250.125 486.876 247.49 480.865C248.1 478.773 248.582 477.174 248.92 476.032C249.259 474.899 249.336 474.084 249.428 473.592C249.5 473.203 249.576 472.685 249.059 472.957C248.864 473.033 248.198 473.351 246.758 474.238C238.327 478.671 231.346 481.454 225.663 482.776C225.268 482.863 196.854 489.218 162.547 489.613C138.587 489.89 118.384 489.203 99.1392 482.197C97.043 481.433 95.1518 479.537 93.1479 477.262C88.5507 472.049 85.6652 464.787 84.5018 455.465C83.8253 447.428 83.1847 439.397 82.5697 431.361C81.5088 419.199 73.4572 363.561 69.4084 336.342C75.8353 331.396 81.6625 325.887 86.7774 319.706C93.2555 311.89 96.8277 305.171 97.5452 299.554C100.026 314.627 105.648 338.079 118.102 356.929C115.268 365.606 113.776 374.037 113.776 382.196C113.776 406.551 125.651 422.736 149.975 426.134C153.891 426.682 158.093 426.846 162.229 426.723C161.86 427.507 161.471 428.414 161.061 429.491C158.549 436.005 156.996 441.893 156.294 447.229C135.174 458.068 112.895 469.615 109.343 471.614L108.872 476.693C115.765 472.767 136.491 462.112 155.864 452.261C155.848 452.861 155.818 453.456 155.818 454.055C155.818 462.394 157.35 469.415 160.415 475.114C164.341 482.289 170.23 485.908 178.076 485.969C188.685 486.031 201.072 480.695 215.238 469.963C225.847 461.932 233.238 454.88 237.409 448.802C240.228 443.292 241.489 437.06 241.182 430.126C240.812 421.424 237.901 414.248 232.443 408.606C228.276 404.249 224.566 402.071 221.317 402.071C217.821 402.071 214.536 403.973 211.471 407.781C208.16 411.891 206.561 416.765 206.684 422.402C206.807 429.086 210.364 432.432 217.36 432.432C218.093 432.432 219.964 432.371 222.972 432.243C226.775 432.063 230.239 432.771 233.366 434.359C236 435.702 237.507 437.086 237.871 438.495C236.097 442.047 229.225 448.213 217.268 456.982C202.856 467.596 191.084 472.9 181.946 472.9C167.534 472.9 160.256 465.264 159.938 450.191C177.031 441.519 192.185 433.924 194.528 432.812L194.902 427.64C190.433 429.783 175.924 437.158 160.072 445.286C160.297 442.734 160.671 440.146 161.337 437.486C161.829 435.646 162.624 433.257 163.731 430.311C164.279 428.84 164.633 427.645 164.879 426.61C169.779 426.303 174.473 425.57 178.363 424.499C192.18 420.696 207.791 411.655 220.712 373.57C232.177 339.791 212.343 330.607 186.538 330.714C183.027 330.73 176.718 330.663 170.998 330.684C167.242 330.699 163.741 330.755 161.46 330.899C152.471 331.458 144.496 332.918 137.813 338.699C133.447 342.477 133.565 348.032 137.009 357.56C137.009 357.56 131.233 355.305 126.507 349.734C131.304 340.391 137.393 332.877 144.896 327.373C145.773 326.742 148.063 325.246 151.728 322.899C158.529 323.201 164.407 322.94 169.281 322.417L169.163 322.514C171.413 322.514 175.596 321.802 180.213 320.597C183.99 319.706 185.989 318.906 185.989 318.906L186.01 318.88C192.396 316.748 198.505 313.868 200.719 310.726C204.47 305.396 206.228 296.837 205.993 285.06C204.516 270.582 202.369 248.943 200.124 226.634C203.614 226.131 207.361 225.363 211.087 224.21C214.746 256.908 217.632 281.708 219.733 298.406C220.286 303.797 220.256 308.979 219.646 313.945C219.154 317.876 219.241 319.834 219.917 319.834C220.343 319.834 221.019 318.978 221.942 317.256C224.335 312.782 225.529 305.458 225.529 295.269C225.529 292.394 225.406 289.421 225.16 286.346C224.12 274.328 222.003 255.903 218.816 231.062C218.493 228.515 218.124 225.311 217.719 221.657C218.185 221.437 218.662 221.237 219.123 220.996C222.834 219.09 228.107 215.425 235.042 210.141C234.673 215.425 235.928 219.505 238.814 222.38C241.392 224.896 244.661 226.152 248.654 226.152C254.117 226.152 258.223 224.22 260.98 220.361C263.127 217.357 264.752 214.718 265.854 212.453C267.458 214.293 269.016 216.163 270.548 218.065C272.819 220.145 275.392 221.186 278.277 221.186C287.471 221.186 292.074 214.651 292.074 201.587C292.074 198.963 291.505 196.145 290.372 193.172C289.229 190.21 288.204 188.713 287.287 188.713C287.036 188.713 286.831 188.862 286.641 189.169C285.047 191.804 284.402 195.237 284.709 199.476C284.709 200.27 285.227 201.357 286.272 202.74C287.318 204.124 287.835 205.149 287.835 205.826C287.835 206.62 286.831 207.389 284.801 208.122C283.079 208.737 281.619 209.039 280.383 209.039C276.463 209.039 273.121 207.21 270.354 203.53C271.768 198.804 272.47 196.139 272.47 195.519C272.47 194.843 272.291 194.515 271.922 194.515C271.671 194.576 271.425 194.663 271.184 194.781C268.785 197.052 266.945 199.599 265.664 202.423C262.164 210.213 257.08 214.103 250.391 214.103C245.487 214.103 241.689 211.407 238.983 206.005C239.408 203.371 239.659 201.746 239.721 201.131C239.782 200.526 239.818 200.029 239.818 199.66C239.818 198.687 239.541 198.189 238.983 198.189C238.614 198.189 237.937 198.528 236.964 199.204C227.759 205.462 221.486 209.706 217.734 210.884C217.36 211.002 216.976 211.1 216.601 211.212C213.783 184.034 210.282 145.36 210.38 144.027C212.097 145.806 213.721 147.282 215.254 148.445C215.807 148.814 216.202 149.004 216.453 149.004C216.822 149.004 217.006 148.753 217.006 148.266C217.006 146.733 215.535 142.833 212.589 136.586C210.749 132.537 208.878 128.488 206.977 124.439C205.87 121.805 205.014 120.477 204.399 120.477C204.153 120.477 203.973 120.698 203.845 121.123C201.513 128.237 200.534 132.137 200.898 132.803C202.369 135.75 203.199 137.559 203.384 138.236C204.373 148.527 208.468 195.012 209.99 212.837C206.131 213.611 202.349 214.108 198.884 214.405C195.814 184.065 192.754 154.667 191.13 142.469C194.164 145.903 195.747 147.682 195.87 147.799C196.342 148.168 196.731 148.358 197.029 148.358C197.387 148.358 197.567 148.051 197.567 147.43C197.567 143.879 194.497 136.119 188.357 124.162C187.286 121.338 186.45 119.924 185.856 119.924C185.615 119.924 185.436 120.144 185.318 120.57C183.406 126.71 182.458 130.6 182.458 132.25C182.458 133.116 182.637 133.792 182.996 134.279C183.949 135.622 184.488 136.488 184.605 136.857C185.097 146.328 189.736 199.865 191.263 214.805C186.143 214.908 182.786 214.651 182.786 214.651C182.786 214.651 160.917 216.045 157.709 186.694C157.032 178.658 156.387 170.627 155.766 162.59C154.634 149.537 151.528 121.625 149.293 105.553H170.055C190.576 105.553 219.097 102.739 255.583 97.0865C268.678 95.0518 280.168 93.3041 289.732 91.8435C291.223 106.137 292.868 122.153 294.426 137.344C287.81 139.594 276.242 142.772 259.622 146.882C244.569 150.582 236.887 153.437 236.574 155.431C236.528 155.733 236.866 155.948 237.594 156.066C238.686 156.24 240.331 156.215 242.54 156.005C262.569 154.585 276.678 153.714 284.863 153.401C288.291 152.458 291.941 151.249 295.718 149.875C297.819 170.232 299.638 187.534 300.54 194.694C301.089 200.086 301.058 205.267 300.443 210.233C299.956 214.164 300.043 216.122 300.72 216.122C301.145 216.122 301.822 215.266 302.749 213.544C305.138 209.07 306.332 201.746 306.332 191.558C306.332 188.682 306.214 185.71 305.963 182.635C305.548 177.858 304.236 163.861 302.601 147.179C310.611 143.904 319.257 139.845 328.688 134.818C343.407 126.966 351.884 121.672 354.118 118.925C357.04 115.347 359.105 109.966 360.304 102.76C360.909 98.9469 360.935 93.5143 360.376 86.4724C362.103 86.9747 385.93 94.2626 401.146 81.4652C402.54 80.2915 404.77 76.4426 408.332 70.4308C410.776 73.6853 414.677 76.6476 420.012 79.3536C424.665 81.624 428.171 82.7567 430.498 82.7567C432.589 82.7567 434.419 81.255 436.018 78.2517C437.432 75.4278 438.124 72.4501 438.124 69.3289C438.124 63.189 437.207 58.0793 435.367 53.969C433.219 49.1257 430.154 46.6965 426.162 46.6965C421.257 46.6965 416.722 50.6581 412.555 58.5662C412.304 58.1408 412.037 57.9204 411.73 57.9204C411.053 57.9204 409.095 60.2882 405.841 65.0033C402.407 70.0362 398.615 72.1477 396.39 73.3367C381.02 81.5728 359.525 73.4393 357.414 72.7781C355.251 69.211 353.739 66.7971 352.878 65.5415C351.95 63.9629 351.207 63.9373 350.654 65.4595C349.398 69.0573 348.301 72.6705 347.353 76.3093C350.623 81.9162 353.524 92.0331 356.056 106.645C349.772 112.165 341.234 117.49 330.42 122.61C325.187 125.039 315.465 129.072 301.355 134.694C299.838 119.478 298.193 103.447 296.784 90.7621C310.381 88.6711 318.663 87.3334 319.878 86.7901C321.487 86.1649 322.707 84.4941 322.707 84.4941C326.597 80.1941 328.539 75.9096 328.539 71.6096C328.539 70.6358 328.38 69.8004 328.088 69.1239C326.253 62.1128 321.748 58.6174 317.356 56.8083C312.087 54.6352 303.687 53.6051 292.299 53.3693C291.515 46.5119 291.146 42.499 291.208 41.5406C292.93 43.319 294.549 44.795 296.082 45.9584C296.64 46.3274 297.035 46.5171 297.276 46.5171C297.645 46.5171 297.834 46.2659 297.834 45.7791C297.834 44.2467 296.364 40.3465 293.417 34.0989C291.577 30.0501 289.706 26.0013 287.805 21.9525C286.703 19.3182 285.847 17.9907 285.227 17.9907C284.976 17.9907 284.801 18.2111 284.678 18.6365C282.341 25.7502 281.367 29.6504 281.731 30.3166C283.202 33.2636 284.027 35.0727 284.207 35.7492C284.858 42.5297 285.396 48.3314 285.837 53.3335C278.656 53.4411 263.778 54.6506 241.012 56.9928C216.904 59.4426 196.737 60.3856 191.514 60.442C179.86 60.5035 170.778 59.6476 164.274 57.8641C158.934 56.3317 156.294 54.5789 156.356 52.6211C156.474 48.0136 165.586 39.3983 183.683 26.7649C188.844 23.1517 195.22 19.5026 202.815 15.8228C209.554 12.5684 213.798 10.831 215.561 10.5798C218.723 10.462 220.666 11.5946 221.393 13.9829C222.065 16.1303 222.731 17.2066 223.392 17.2066C223.7 17.2066 224.34 16.2226 225.314 14.2597C227.431 9.90333 228.497 6.83852 228.497 5.05498C228.497 1.62116 225.945 -0.0598733 220.85 0.00162792C211.61 0.0631292 197.316 7.02302 177.938 20.8813C169.625 26.8315 163.557 32.0745 159.723 36.6103C154.926 42.3094 151.41 49.2436 149.16 57.3926C148.914 58.1972 148.796 58.9967 148.796 59.7911C148.796 67.6428 159.841 71.5583 181.946 71.5583C191.119 71.5583 213.957 70.5641 239.465 67.9298C264.757 65.316 280.496 63.9937 286.733 63.9732C287.282 68.9189 287.907 74.7052 288.579 81.0347C279 82.2237 267.576 83.6792 254.661 85.4012C217.914 90.2445 189.741 92.6635 170.127 92.6635H147.028C145.855 86.8875 144.471 81.0039 142.651 74.8948C139.884 65.6337 137.747 61.0057 136.214 61.0057C135.907 61.0057 135.656 61.1544 135.476 61.4619C134.374 65.9976 133.385 69.7082 132.529 72.5936C132.529 72.9626 133.631 76.7603 135.84 83.997C136.829 87.1694 137.634 90.0138 138.331 92.6635H129.434C124.954 92.0844 121.92 91.4335 119.681 90.7262C117.538 87.1592 116.042 84.7452 115.191 83.4896C114.268 81.9111 113.536 81.8854 112.987 83.4076C111.747 87.0054 110.66 90.6186 109.717 94.2574C112.956 99.8643 115.832 109.981 118.333 124.593C112.111 130.113 103.654 135.438 92.948 140.558C89.8371 142.018 85.0759 144.073 78.7874 146.682C76.0352 134.146 73.8775 125.357 73.2727 125.336C71.8428 125.275 70.6231 129.165 69.6083 137.016C70.2951 140.865 71.0433 145.083 71.8326 149.547C68.3629 150.962 64.5601 152.499 60.3831 154.17C54.7404 156.43 42.2248 159.987 22.8314 164.835C7.92762 168.536 0.316837 171.39 0.00420511 173.384C-0.0419209 173.686 0.291214 173.902 1.01385 174.019C2.09525 174.194 3.72503 174.168 5.91345 173.958C25.7476 172.538 39.7187 171.667 47.8266 171.354C55.5809 169.207 64.3448 165.794 73.9185 161.381C76.7476 177.504 79.9149 195.852 82.8926 213.621C66.6511 218.316 51.9472 219.992 45.4895 220.535V220.499C42.7783 220.709 40.1082 220.868 37.5764 220.863C29.5095 220.853 22.4932 219.033 16.5173 215.41C9.3524 211.115 5.77508 205.16 5.78021 197.549C5.78021 195.34 6.08771 192.367 6.68735 188.626L8.05575 180.262ZM224.525 419.922C222.685 419.922 220.814 419.953 218.913 420.009C216.396 419.891 214.803 419.271 214.126 418.169C214.249 415.412 215.879 414.028 219 414.028C221.578 414.028 224.766 416.145 228.569 420.373C227.221 420.137 225.873 419.978 224.525 419.922ZM423.041 59.3913C424.394 59.3913 425.665 60.2985 426.859 62.1076C428.053 63.9168 428.678 65.9258 428.74 68.1348C426.044 67.8273 423.687 66.9714 421.657 65.5568C421.288 65.3057 419.725 63.9271 416.973 61.4209C418.449 60.0679 420.468 59.3913 423.041 59.3913ZM294.985 75.397C294.452 71.1944 293.996 67.489 293.575 64.0654C308.853 64.5011 314.768 66.9509 319.801 77.2267C318.627 77.4368 309.863 78.4362 295.579 80.189C295.369 78.4516 295.169 76.8423 294.985 75.397ZM153.506 382.191C154.388 382.514 155.454 382.329 156.1 381.648C160.579 376.897 162.065 370.224 162.532 367.149C162.675 366.201 162.106 365.319 161.184 365.058C155.93 363.577 139.069 358.313 138.741 351.65C138.162 339.986 181.566 340.713 186.081 340.79C206.725 341.139 225.073 346.556 218.908 371.859C212.015 400.16 193.39 411.435 170.962 413.864C168.738 414.105 158.426 413.936 152.835 412.86C147.905 411.911 143.625 410.62 140.058 409.062C125.99 402.876 118.953 391.893 118.953 376.133C118.953 371.664 119.86 366.831 121.479 361.726C132.381 373.904 139.602 377.143 153.506 382.191ZM81.2218 157.921C84.4865 156.302 87.787 154.636 91.2414 152.776C105.817 144.924 114.207 139.63 116.426 136.883C119.322 133.306 121.362 127.924 122.551 120.718C123.15 116.905 123.171 111.473 122.622 104.431C124.37 104.943 125.918 105.287 127.963 105.466V105.553H140.945C143.374 122.574 147.213 156.153 148.955 173.445C150.616 189.82 152.328 200.921 154.106 206.743C155.449 211.223 158.057 215.384 161.558 219.535C168.292 227.536 184.221 227.536 184.221 227.536C184.221 227.536 187.691 227.72 192.78 227.397C197.997 269.1 200.606 292.604 200.606 297.852C200.606 298.647 200.55 299.133 200.427 299.323C199.678 300.973 198.817 302.296 197.869 303.367C190.274 308.174 180.095 310.281 170.409 311.065C180.075 304.981 185.369 301.322 186.184 300.143C187.614 296.832 188.777 293.834 189.669 291.128C190.146 289.965 190.387 289.109 190.387 288.55C190.387 288.181 190.207 288.002 189.848 288.002C189.433 288.002 188.567 288.427 187.26 289.283C174.499 297.442 163.326 304.494 153.732 310.445C152.717 310.562 151.707 310.624 150.693 310.624C141.631 310.624 133.021 307.19 124.857 300.328C117.702 294.259 114.13 289.017 114.13 284.599C114.13 282.144 118.717 279.448 127.901 276.501C136.722 273.687 144.199 272.273 150.339 272.273C152.845 272.273 157.135 273.098 163.213 274.748C164.049 274.999 164.735 275.117 165.274 275.117C165.991 275.117 166.34 274.876 166.34 274.379C166.34 272.606 163.418 270.33 157.581 267.573C150.79 264.39 143.605 262.848 136.035 262.976C129.003 263.094 122.771 265.79 117.349 271.063C111.629 276.583 108.769 283.358 108.769 291.4C108.769 296.791 110.942 302.004 115.293 307.036C118.451 310.66 122.771 314.15 128.255 317.522C130.12 318.594 131.991 319.665 133.857 320.736L133.708 320.915C133.923 320.951 134.123 320.977 134.333 321.013C135.404 321.628 136.481 322.243 137.552 322.858C132.37 327.593 127.445 335.025 122.766 345.019C116.293 336.224 108.79 322.719 104.556 303.797C104.531 303.685 104.505 303.572 104.48 303.464C104.1 301.752 103.824 299.892 103.501 298.093C102.64 291.963 101.748 282.144 100.364 268.839C98.5754 251.849 96.6637 237.56 94.6393 225.973C94.4702 225.014 94.2805 223.943 94.0755 222.821C110.266 217.455 123.637 211.74 129.131 209.962C140.14 206.4 143.666 210.649 136.086 219.705C126.83 230.759 113.136 242.891 111.665 245.34C110.194 247.785 114.233 245.346 114.233 245.346C114.233 245.346 127.502 234.942 134.979 227.105C143.236 218.454 148.571 209.05 147.848 200.573C147.126 192.101 120.782 199.358 97.2121 208.757C95.4183 209.475 93.6194 210.131 91.8205 210.766C88.9146 195.494 84.835 175.014 81.2218 157.921Z" fill="#575756"/>
<path d="M407.126 100.719C409.069 102.262 410.863 104.096 413.671 104.419C416.608 102.031 417.059 97.7002 414.763 94.7738C413.097 92.652 410.991 92.6981 409.412 94.8916C408.982 95.4964 408.674 96.3779 408.085 96.6444C406.788 97.2287 406.306 98.3255 405.763 99.4376C404.22 102.584 402.017 105.157 399.044 107.028C397.353 108.089 395.662 109.191 393.868 110.047C387.779 112.947 381.639 115.741 375.52 118.575C374.787 118.913 374.039 119.236 373.075 119.666C373.536 119.83 373.695 119.953 373.823 119.928C377.816 119.098 381.87 118.483 385.785 117.37C394.924 114.777 402.586 110.149 406.778 101.103C406.839 100.965 406.988 100.873 407.126 100.719ZM414.148 99.986C412.431 99.8374 411.293 98.8995 410.032 97.731C412.585 96.6957 413.277 97.1057 414.148 99.986Z" fill="#575756"/>
<path d="M81.545 89.217C80.0382 88.643 78.3982 89.1503 77.2604 90.816C76.5172 91.9025 75.8561 93.1428 75.5281 94.4138C74.6261 97.904 73.9137 101.44 73.1654 104.787C71.7355 102.209 70.28 99.3595 68.6194 96.6432C67.0614 94.1012 64.5757 91.8051 61.2905 92.8609C59.0765 93.5733 58.8049 95.9308 58.4974 97.8169C58.359 98.6728 62.7205 101.968 65.9493 100.41C67.4048 102.624 68.9167 104.608 70.0699 106.786C71.1923 108.913 71.9405 111.229 73.0373 113.894C74.6722 111.568 75.1693 109.415 75.5025 107.165C75.9688 104.003 76.5172 100.851 77.1322 97.7144C77.409 96.2947 77.9215 94.9161 79.5769 94.2703C80.8633 94.9981 82.1651 95.7259 83.7488 96.6227C84.0358 95.2646 84.3791 94.2908 84.4304 93.2965C84.5124 91.7641 83.0107 89.7705 81.545 89.217Z" fill="#575756"/>
<path d="M15.5063 57.9213C16.926 60.9451 18.4328 63.6717 19.5142 66.6084C20.57 69.4784 21.1798 72.5535 22.1434 76.1103C24.219 73.2966 24.9878 70.5803 25.5874 67.7154C26.4228 63.6922 27.3607 59.6895 28.3652 55.7124C28.8214 53.9186 29.5286 52.1966 31.4608 51.5457C32.8343 52.6271 34.2284 53.7187 35.9248 55.0564C36.3809 53.3395 36.8678 52.1197 37.0267 50.8435C37.2675 48.8806 35.771 46.1438 34.1822 45.2623C32.5422 44.35 30.6459 44.8164 29.1955 46.8357C28.2525 48.1529 27.3863 49.675 26.8892 51.2741C25.5259 55.6714 24.3728 60.1507 23.194 64.3789C21.841 60.8887 20.4879 57.05 18.8889 53.36C17.3873 49.9005 14.9118 47.8402 11.0167 47.6455C9.83285 49.6238 8.55158 51.766 7.37793 53.7187C9.36647 57.6394 11.7189 59.5613 15.5063 57.9213Z" fill="#575756"/>
<path d="M282.645 105.036C271.924 110.176 232.025 131.209 225.567 134.843L225.096 139.922C238.636 132.209 277.126 112.651 282.266 110.207L282.645 105.036Z" fill="#575756"/>
<path d="M350.725 37.49C349.987 42.9072 338.348 48.9497 338.348 48.9497C338.348 48.9497 342.94 48.878 346.477 47.4327C350.013 45.9874 356.25 36.1575 357.67 32.9184C359.09 29.6742 355.82 27.9624 355.82 27.9624C355.82 27.9624 339.809 30.4737 336.765 31.6525C332.229 33.4104 333.341 41.4261 333.341 41.4261C338.205 37.6745 350.725 37.49 350.725 37.49Z" fill="#575756"/>
<path d="M62.4819 60.9595C70.2926 55.1271 75.551 50.2326 78.2519 46.2761C80.6812 47.7828 82.3161 48.7464 83.1515 49.1564C83.6742 49.428 84.2124 49.0026 84.7608 47.8751C85.3143 46.7476 85.4783 45.6815 85.2476 44.6719C83.8126 43.0985 82.4493 41.8941 81.1629 41.0484C82.1213 39.1675 82.6851 37.3584 82.8645 35.6158C83.3001 31.2646 81.7011 28.9071 78.0571 28.5432C76.8066 28.4151 75.1922 29.435 73.219 31.5978C71.2459 33.7606 70.1952 35.4416 70.0773 36.6357C69.8621 38.7575 70.3746 40.4847 71.6149 41.8172C73.0448 42.8935 74.449 43.9698 75.8226 45.0409C73.9673 48.2031 68.9857 52.6722 60.8778 58.4482C55.9782 61.8564 51.1042 65.2646 46.2559 68.6779C46.3789 69.0725 46.6864 69.298 47.1784 69.3493C49.5718 69.5902 54.6713 66.7919 62.4819 60.9595ZM74.5567 35.5236C74.8437 34.2884 75.6688 33.7401 77.027 33.8784C78.7644 34.0527 79.4973 35.5543 79.2103 38.3834C79.1437 39.0343 79.0001 39.6544 78.7746 40.2336C75.6944 38.163 74.285 36.5947 74.5567 35.5236Z" fill="#575756"/>
<path d="M123.662 180.83C124.928 182.864 128.167 183.131 129.699 181.25C131.478 179.072 132.231 176.525 132.349 173.808C131.841 174.198 131.529 174.674 131.185 175.131C130.816 175.612 130.458 176.109 130.017 176.54C128.331 178.17 126.404 177.857 125.784 175.746C125.42 174.516 125.286 173.168 125.42 171.902C125.584 170.333 126.06 168.781 126.527 167.243C127.342 164.537 128.249 161.846 129.115 159.15C128.992 159.109 128.874 159.068 128.751 159.022C127.834 160.555 126.839 162.062 126.014 163.625C123.59 168.237 122.411 173.081 122.801 178.165C122.862 179.067 123.165 180.03 123.662 180.83Z" fill="#575756"/>
<path d="M29.5433 193.916C30.3582 191.21 31.2653 188.52 32.1315 185.824C32.0085 185.783 31.8906 185.742 31.7676 185.696C30.8502 187.228 29.8559 188.735 29.0308 190.298C26.6066 194.911 25.4278 199.754 25.8173 204.838C25.8891 205.745 26.1915 206.709 26.6835 207.503C27.9494 209.538 31.1884 209.804 32.7209 207.923C34.4993 205.745 35.2526 203.198 35.3705 200.482C34.8631 200.871 34.5505 201.348 34.2071 201.804C33.8381 202.286 33.4794 202.783 33.0386 203.213C31.3524 204.843 29.4254 204.531 28.8053 202.419C28.4414 201.189 28.3081 199.841 28.4414 198.575C28.6003 197.007 29.0769 195.454 29.5433 193.916Z" fill="#575756"/>
<path d="M167.6 137.799C168.415 135.093 169.322 132.402 170.188 129.707C170.065 129.666 169.947 129.625 169.824 129.578C168.907 131.111 167.913 132.618 167.087 134.181C164.663 138.793 163.484 143.637 163.874 148.721C163.946 149.628 164.248 150.591 164.74 151.386C166.006 153.42 169.245 153.687 170.777 151.806C172.556 149.628 173.309 147.081 173.427 144.364C172.92 144.754 172.607 145.231 172.264 145.687C171.895 146.168 171.536 146.666 171.095 147.096C169.409 148.726 167.482 148.413 166.862 146.302C166.498 145.072 166.365 143.724 166.498 142.458C166.662 140.89 167.139 139.337 167.6 137.799Z" fill="#575756"/>
<path d="M35.596 105.507C33.9098 107.137 31.9828 106.824 31.3626 104.712C30.9987 103.482 30.8655 102.134 30.9988 100.869C31.1628 99.3002 31.6394 97.7473 32.1058 96.2098C32.9207 93.5037 33.8278 90.8131 34.694 88.1173C34.571 88.0763 34.4531 88.0353 34.3301 87.9891C33.4127 89.5215 32.4184 91.0283 31.5933 92.5915C29.1691 97.2041 27.9903 102.047 28.3798 107.131C28.4516 108.039 28.754 109.002 29.246 109.796C30.5119 111.831 33.7509 112.098 35.2833 110.217C37.0617 108.039 37.8151 105.491 37.933 102.775C37.4256 103.165 37.113 103.641 36.7696 104.097C36.3904 104.579 36.0367 105.076 35.596 105.507Z" fill="#575756"/>
<path d="M95.8314 110.362C96.6463 107.656 97.5534 104.965 98.4196 102.269C98.2966 102.228 98.1787 102.187 98.0557 102.141C97.1383 103.674 96.144 105.18 95.3188 106.743C92.8947 111.356 91.7159 116.199 92.1054 121.283C92.1772 122.191 92.4796 123.154 92.9716 123.948C94.2375 125.983 97.4765 126.25 99.0089 124.369C100.787 122.191 101.541 119.643 101.659 116.927C101.151 117.317 100.839 117.793 100.495 118.249C100.126 118.731 99.7674 119.228 99.3267 119.659C97.6405 121.289 95.7135 120.976 95.0934 118.864C94.7295 117.634 94.5962 116.286 94.7295 115.021C94.8884 113.452 95.3701 111.899 95.8314 110.362Z" fill="#575756"/>
<path d="M353.925 190.308C354.74 187.602 355.647 184.911 356.513 182.215C356.39 182.174 356.272 182.133 356.149 182.087C355.232 183.62 354.238 185.126 353.413 186.69C350.988 191.302 349.81 196.145 350.199 201.23C350.271 202.137 350.573 203.1 351.07 203.895C352.336 205.929 355.575 206.196 357.108 204.315C358.886 202.137 359.64 199.59 359.758 196.873C359.25 197.263 358.937 197.739 358.594 198.195C358.225 198.677 357.866 199.174 357.426 199.605C355.739 201.235 353.812 200.922 353.192 198.811C352.828 197.58 352.695 196.233 352.828 194.967C352.982 193.393 353.459 191.84 353.925 190.308Z" fill="#575756"/>
<path d="M238.27 172.368C239.085 169.662 239.992 166.972 240.858 164.276C240.735 164.235 240.617 164.194 240.494 164.148C239.577 165.68 238.582 167.187 237.757 168.75C235.333 173.363 234.154 178.206 234.544 183.29C234.616 184.197 234.918 185.161 235.41 185.955C236.676 187.99 239.915 188.256 241.447 186.375C243.226 184.197 243.979 181.65 244.097 178.934C243.59 179.323 243.277 179.8 242.934 180.256C242.565 180.738 242.206 181.235 241.765 181.665C240.079 183.295 238.152 182.983 237.532 180.871C237.168 179.641 237.035 178.293 237.168 177.027C237.327 175.459 237.809 173.906 238.27 172.368Z" fill="#575756"/>
<path d="M387.357 148.821C386.275 150.492 385.158 152.152 383.933 153.721C382.324 155.781 380.597 157.749 378.88 159.804C379.141 159.912 379.228 159.983 379.285 159.963C379.515 159.886 379.772 159.825 379.961 159.681C383.826 156.734 387.326 153.439 389.955 149.303C391.585 146.745 392.139 143.947 391.898 140.959C391.795 139.642 391.313 138.504 390.145 137.822C388.648 136.951 385.215 137.453 384.087 138.796C382.688 140.477 381.776 142.409 381.822 144.711C383.4 144.454 384.769 144.075 386.147 144.049C387.726 144.019 388.551 145.218 388.177 146.74C388.003 147.468 387.757 148.206 387.357 148.821Z" fill="#575756"/>
<path d="M322.646 109.39C321.564 111.061 320.447 112.721 319.222 114.29C317.613 116.35 315.886 118.318 314.169 120.373C314.43 120.481 314.517 120.553 314.574 120.532C314.804 120.455 315.061 120.394 315.25 120.25C319.115 117.303 322.615 114.008 325.244 109.872C326.874 107.314 327.428 104.516 327.187 101.528C327.084 100.211 326.602 99.0732 325.434 98.3916C323.937 97.5203 320.504 98.0226 319.376 99.3653C317.977 101.046 317.065 102.979 317.111 105.28C318.689 105.023 320.058 104.644 321.436 104.619C323.015 104.588 323.84 105.787 323.466 107.309C323.297 108.037 323.046 108.78 322.646 109.39Z" fill="#575756"/>
</g>
</svg>
