<svg width="88" height="103" viewBox="0 0 88 103" fill="none" xmlns="http://www.w3.org/2000/svg">
<path d="M87.3414 62.4957C86.7138 63.836 84.8591 66.6896 81.7742 71.0587C81.551 71.372 81.3418 71.6662 81.1266 71.9705C80.8113 69.3711 80.5691 67.2972 80.5791 67.1451C80.9154 67.4924 81.2317 67.7806 81.531 68.0079C81.6401 68.0799 81.7172 68.117 81.7642 68.117C81.8363 68.117 81.8733 68.0679 81.8733 67.9728C81.8733 67.6735 81.5861 66.9118 81.0105 65.6917C80.6512 64.901 80.2858 64.1102 79.9145 63.3195C79.6993 62.805 79.5321 62.5458 79.411 62.5458C79.362 62.5458 79.328 62.5888 79.3039 62.6719C78.8475 64.0612 78.6573 64.8229 78.7284 64.953C79.0157 65.5285 79.1768 65.8819 79.2118 66.014C79.4391 68.3842 79.6022 70.1989 79.6973 71.4581C79.7734 72.1407 79.8574 72.8744 79.9445 73.6301C77.3411 77.2925 75.3102 80.1431 73.8729 82.154C71.3906 79.8078 69.4137 77.9981 67.9434 76.7219C66.9364 75.751 65.5381 74.3207 64.1368 72.8614C64.9816 72.3619 65.8494 71.8274 66.7613 71.2268C69.4818 69.4352 71.0362 68.2531 71.4206 67.6785C71.9251 66.9308 72.2294 65.8458 72.3335 64.4235C72.3825 63.6708 72.2914 62.6138 72.0562 61.2556C72.4335 61.3286 72.4796 61.3637 72.6938 61.3957C73.6166 61.3957 74.4054 61.0794 75.066 60.4438C75.3883 60.1325 75.8137 59.4379 76.3402 58.3589C76.3051 58.9224 76.4122 59.3968 76.6625 59.7792C76.9758 60.2336 77.4652 60.63 78.1368 60.9643C78.6783 61.2356 79.1158 61.3677 79.4661 61.3827V61.3957C79.4841 61.3957 79.5011 61.3927 79.5181 61.3927C79.5241 61.3927 79.5321 61.3957 79.5371 61.3957V61.3907C80.7523 61.3667 81.8073 60.7411 82.6981 59.509C83.4538 58.468 83.8051 56.7964 83.7591 54.4963C83.0054 47.3116 81.2197 32.4388 80.6101 27.9837C81.2197 28.6543 81.537 29.0016 81.562 29.0246C81.6571 29.0967 81.7352 29.1337 81.7953 29.1337C81.8673 29.1337 81.9043 29.0737 81.9043 28.9526C81.9043 28.2589 81.2868 26.7435 80.0526 24.4083C79.8374 23.8568 79.6703 23.5806 79.5492 23.5806C79.5021 23.5806 79.4661 23.6236 79.4421 23.7067C79.0577 24.9058 78.8665 25.6655 78.8665 25.9878C78.8665 26.157 78.9016 26.2891 78.9736 26.3842C79.1658 26.6464 79.2729 26.8156 79.2979 26.8876C79.405 28.8985 79.6923 32.2146 79.8965 33.8191C81.1066 43.1377 82.6801 55.8936 82.6801 56.9946C82.6801 57.1498 82.6681 57.2448 82.645 57.2819C82.3808 57.8434 82.0585 58.2338 81.6731 58.45C81.2047 58.7322 80.484 58.8714 79.5191 58.8774C79.2209 58.8724 78.8025 58.7102 78.26 58.3859C77.7104 58.0576 77.3661 57.7703 77.228 57.5231C77.0899 57.2779 76.9908 57.0727 76.9307 56.9035C77.0258 56.6293 77.0749 56.4081 77.0749 56.2389C77.0749 55.7725 76.7756 55.9276 76.177 56.7073C76.128 56.7674 75.9788 57.0417 75.7286 57.5331C75.5134 57.9525 75.3322 58.2097 75.1881 58.3068C74.7017 58.6522 73.962 58.8333 72.9961 58.8664C72.2724 58.8143 71.6788 58.7422 71.2294 58.6462C70.746 57.9915 70.4067 57.5491 70.2175 57.3209C70.0103 57.0306 69.8662 57.0387 69.7841 57.3449C69.6049 58.0676 69.4568 58.7893 69.3397 59.514C70.0744 60.5449 70.823 62.4607 71.5757 65.2573C70.4547 66.4444 68.8903 67.6335 66.8794 68.8226C66.0426 69.3091 64.5782 70.0888 62.5063 71.1528C60.8127 69.3661 59.3594 67.8007 58.936 67.3292C59.6236 67.3162 60.0871 67.3022 60.3283 67.2892C60.5215 67.2762 60.6176 67.2331 60.6176 67.1551C60.6176 67.077 59.8528 66.5425 58.3224 65.5496C57.0813 64.7388 56.4066 64.3324 56.2975 64.3324C56.2255 64.3324 56.1954 64.3705 56.2075 64.4475C56.1604 65.5426 56.1234 66.2913 56.1004 66.6906C56.0883 66.7927 56.1724 66.8888 56.3526 66.9789C56.4977 67.071 56.6048 67.115 56.6769 67.115C57.0452 67.7166 58.926 69.9386 60.7507 72.0486C60.7427 72.0526 60.7367 72.0556 60.7287 72.0596C59.6617 72.6021 57.2674 73.521 53.546 74.8152C50.6853 75.8051 49.243 76.4987 49.217 76.8921C49.213 76.9522 49.283 76.9882 49.4262 76.9972C49.6404 77.0112 49.9606 76.9772 50.387 76.8961C54.2576 76.2595 56.9852 75.8371 58.5707 75.6289C59.7317 75.1915 60.9899 74.608 62.3442 73.8813C62.9507 74.5739 63.4892 75.1865 63.8746 75.6199C64.9105 76.793 66.3929 78.2354 68.3197 79.9499C71.0803 82.3852 72.5446 83.6884 72.7118 83.8556C71.9041 85.0807 71.4296 85.8985 71.2845 86.3099C70.8621 87.573 70.6509 88.7451 70.6509 89.8281C70.6509 91.2855 71.1453 92.0132 72.1323 92.0132C72.5777 92.0132 73.2423 91.6979 74.1221 91.0663C74.9649 90.4597 75.4714 89.9713 75.6395 89.5969C75.9408 88.9533 76.0909 88.2126 76.0909 87.3748C76.0909 86.7563 76.0069 86.0096 75.8387 85.1318C75.7316 84.5652 75.3202 83.8506 74.6096 82.9868C76.9227 79.8398 78.7624 77.3285 80.1507 75.4267C80.9324 82.0449 81.9674 90.1674 82.3227 92.9901C82.4298 94.043 82.4238 95.055 82.3037 96.0249C82.2086 96.7926 82.2257 97.1749 82.3578 97.1749C82.4408 97.1749 82.573 97.0078 82.7541 96.6715C83.2206 95.7977 83.4538 94.3673 83.4538 92.3775C83.4538 91.816 83.4308 91.2354 83.3817 90.6349C83.1775 88.2877 82.9023 86.1537 82.2787 81.3022C82.0485 79.4815 81.6791 76.5288 81.3428 73.7882C82.0054 72.8754 82.5159 72.1667 82.8342 71.7163C85.1954 68.3522 86.6598 66.007 87.2273 64.6788C87.6617 63.6478 87.8779 62.766 87.8779 62.0323C87.8779 61.8772 87.8549 61.8001 87.8058 61.8001C87.7148 61.7991 87.5586 62.0313 87.3414 62.4957ZM75.4113 87.6251C75.4343 87.7152 75.061 88.0054 74.2913 88.4949C73.4465 89.0234 72.7669 89.2876 72.2484 89.2876C71.6929 89.2876 71.4176 89.0184 71.4176 88.4769C71.4176 88.0505 71.6638 87.4339 72.1583 86.6201C72.5927 85.9515 73.0321 85.2799 73.4775 84.6113C74.7187 85.9115 75.3623 86.9164 75.4113 87.6251Z" fill="#575756"/>
<path d="M78.2769 37.8085C78.2769 36.3962 77.8575 35.4013 77.0197 34.8258C76.6724 34.5635 75.5474 33.983 73.6426 33.0832C72.0962 32.3665 70.839 31.5327 69.8691 30.5868C70.7069 30.6359 71.1983 30.5808 71.3414 30.4257C71.4485 30.3056 71.2924 30.1264 70.875 29.8872C70.7899 29.8381 70.6938 29.7901 70.5877 29.7431L67.9823 28.5039C67.7781 28.3948 67.652 28.3658 67.605 28.4128C67.5679 28.4729 67.5509 28.57 67.5509 28.7001V30.2275C67.5509 30.6239 67.646 30.8741 67.8382 30.9832C68.1725 31.1854 68.3957 31.3546 68.5028 31.4847C69.3656 32.6598 70.3645 33.6357 71.5026 34.4144C72.1382 34.8458 73.1071 35.3663 74.4133 35.9768C75.6104 36.5524 76.4782 37.0438 77.0187 37.4492C77.4621 37.7735 77.6833 38.0498 77.6833 38.277C77.6833 38.4321 77.5883 38.5933 77.3961 38.7604C76.9527 39.1918 75.2941 40.3479 72.4205 42.2287C69.2455 44.2886 67.0965 45.3175 65.9695 45.3175C65.455 45.3175 65.0236 45.1564 64.6773 44.8341C64.2459 44.4747 64.0306 43.9403 64.0306 43.2346C64.0306 43.1775 64.0407 43.1055 64.0427 43.0454C64.6753 42.5309 65.2077 42.0325 65.6311 41.553C65.9424 41.2057 66.2007 40.6732 66.4049 39.9535C66.56 39.378 66.6381 38.8805 66.6381 38.4632C66.6381 37.6234 66.4109 36.6545 65.9564 35.5525C65.6692 34.8688 65.3759 34.1812 65.0766 33.4855C65.5661 33.6177 65.8714 33.6837 65.9915 33.6837C66.0866 33.6837 66.1356 33.6607 66.1356 33.6117C66.1356 33.5286 65.9915 33.3494 65.7042 33.0731C65.0106 32.3895 64.393 31.7249 63.8545 31.0773C63.7714 30.9822 63.7104 30.9332 63.6733 30.9332C63.6013 30.9332 63.5412 31.0383 63.4942 31.2474C63.4451 31.4576 63.3851 31.821 63.313 32.3355C63.2299 32.885 63.2059 33.2043 63.2409 33.2873C63.2529 33.3474 63.332 33.4915 63.4761 33.7187C63.6203 33.946 63.7444 34.2332 63.8535 34.5795C64.0577 35.2872 64.434 36.2391 64.9845 37.4372C65.476 38.4902 65.7212 39.0717 65.7212 39.1778C65.7212 39.4611 65.2768 39.9525 64.418 40.6332C64.5301 40.1577 64.6582 39.6563 64.8204 39.0987C64.9055 38.8485 64.9465 38.6553 64.9465 38.5232C64.9465 38.4401 64.9285 38.3971 64.8925 38.3971C64.8094 38.3971 64.6903 38.5953 64.5351 38.9917C64.2549 39.6813 64.0457 40.3629 63.8705 41.0406C62.6454 41.9344 60.9738 42.9623 58.8068 44.1374C57.2003 44.9982 55.1944 45.9441 52.7872 46.9741C49.327 48.4484 47.4322 49.2572 47.1099 49.4003C46.2121 49.8177 45.7637 50.0589 45.7637 50.119C45.7637 50.131 45.7987 50.137 45.8708 50.137C46.0259 50.137 46.4343 50.088 47.0929 49.9929C47.7145 49.8838 49.2559 49.5325 51.7092 48.9319C54.0213 48.3704 55.2185 48.0891 55.3015 48.0891C55.747 48.0891 57.1883 47.3875 59.6326 45.9872C61.149 45.1153 62.4222 44.2856 63.4661 43.4928C63.4461 43.7831 63.4201 44.0734 63.4201 44.3606C63.4201 46.6848 64.2999 47.8459 66.0625 47.8459C67.0064 47.8459 69.0193 46.8049 72.0972 44.72C74.5644 43.0915 76.1809 41.9304 76.9487 41.2347C77.355 40.8634 77.6193 40.5641 77.7394 40.3369C77.9186 40.0146 78.0737 39.4631 78.2058 38.6834C78.2539 38.4011 78.2769 38.1078 78.2769 37.8085Z" fill="#575756"/>
<path d="M48.301 69.0477C49.2949 67.0118 50.6061 65.4123 52.2357 64.2502C52.595 64 54.1164 63.0531 56.7989 61.4116C59.111 60.0103 60.3562 59.1845 60.5364 58.9323C60.8236 58.2857 61.0569 57.7002 61.237 57.1717C61.3331 56.9445 61.3812 56.7773 61.3812 56.6682C61.3812 56.5961 61.3451 56.5611 61.2731 56.5611C61.19 56.5611 61.0158 56.6442 60.7526 56.8113C58.1892 58.4048 55.9441 59.7821 54.0153 60.9442C53.8111 60.9672 53.6079 60.9792 53.4037 60.9792C51.5831 60.9792 49.8534 60.3086 48.2119 58.9683C46.7746 57.7832 46.0559 56.7593 46.0559 55.8965C46.0559 55.417 46.9778 54.8895 48.8225 54.315C50.5941 53.7655 52.0975 53.4892 53.3307 53.4892C53.8341 53.4892 54.6969 53.6504 55.9181 53.9727C56.0862 54.0217 56.2244 54.0448 56.3315 54.0448C56.4756 54.0448 56.5467 53.9977 56.5467 53.9006C56.5467 53.5543 55.9601 53.1099 54.786 52.5714C53.4208 51.9498 51.9774 51.6485 50.456 51.6736C49.0427 51.6966 47.7915 52.2231 46.7015 53.253C45.5524 54.331 44.9769 55.6543 44.9769 57.2247C44.9769 58.2777 45.4143 59.2956 46.2881 60.2796C46.9227 60.9872 47.7905 61.6688 48.8926 62.3275C49.5151 62.6748 50.1387 63.0231 50.7613 63.3684C49.6833 64.3263 48.6593 65.8357 47.6884 67.8956C46.6324 70.1747 46.0889 72.3608 46.0129 74.4637C44.8528 75.0793 43.9349 75.5728 43.5706 75.778L43.4785 76.7699C44.0981 76.4165 44.9909 75.9341 45.9999 75.3996C46.19 81.1009 50.0146 83.9586 57.4976 83.9586C59.078 83.9586 60.5394 83.7834 61.8806 83.4381C63.2219 83.0187 64.5631 82.5983 65.9044 82.1789C66.9223 81.8676 67.707 81.6524 68.2586 81.5323C68.773 81.4252 69.0313 81.2991 69.0313 81.155C69.0313 80.9998 68.768 80.9217 68.2405 80.9217C68.0734 80.9217 67.8942 80.9337 67.702 80.9588C64.444 81.3411 61.8096 81.5203 59.7977 81.4973C56.0242 81.4482 53.1795 81.0178 51.2638 80.2031C48.7724 79.1381 47.3821 77.3444 47.0859 74.8281C50.2238 73.1835 53.9573 71.2938 54.6439 70.9675L54.717 69.9575C53.3977 70.5901 49.8164 72.4549 47.0318 73.9252C47.0308 73.8732 47.0228 73.8251 47.0228 73.7731C47.0258 72.3608 47.4512 70.7853 48.301 69.0477Z" fill="#575756"/>
<path d="M63.2312 69.5489C63.3142 69.5489 63.4464 69.3818 63.6265 69.0455C64.094 68.1706 64.3272 66.7413 64.3272 64.7515C64.3272 64.1899 64.3032 63.6094 64.2551 63.0088C64.0519 60.6617 64.159 62.137 63.5364 57.2855C63.022 53.2127 62.7757 51.0097 62.7998 50.6734C63.1351 51.0207 63.4524 51.309 63.7516 51.5362C63.8597 51.6082 63.9368 51.6453 63.9859 51.6453C64.0579 51.6453 64.094 51.5962 64.094 51.5011C64.094 51.2019 63.8067 50.4402 63.2312 49.22C62.8718 48.4293 62.5065 47.6386 62.1351 46.8478C61.9199 46.3333 61.7518 46.0741 61.6317 46.0741C61.5836 46.0741 61.5486 46.1171 61.5236 46.2002C61.0681 47.5895 60.877 48.3512 60.948 48.4813C61.2353 49.0569 61.3975 49.4102 61.4335 49.5423C61.6607 51.9125 61.8218 53.7272 61.9179 54.9864C62.6846 61.8608 62.7617 61.9378 63.1931 65.363C63.3012 66.416 63.2952 67.4279 63.1761 68.3979C63.081 69.1666 63.099 69.5489 63.2312 69.5489Z" fill="#575756"/>
<path d="M85.9214 29.109C85.9935 29.109 86.0305 29.06 86.0305 28.9649C86.0305 28.6656 85.7432 27.9039 85.1677 26.6838C84.8084 25.893 84.443 25.1023 84.0717 24.3116C83.8565 23.7971 83.6893 23.5378 83.5682 23.5378C83.5192 23.5378 83.4851 23.5809 83.4611 23.664C83.0047 25.0532 82.8145 25.815 82.8856 25.9451C83.1728 26.5206 83.334 26.8739 83.369 27.0061C83.5962 29.3763 83.8915 32.6984 83.9866 33.9575C84.7523 40.8319 86.3218 53.5267 86.7532 56.9529C86.8603 58.0059 86.8543 59.0178 86.7342 59.9877C86.6391 60.7554 86.6561 61.1378 86.7882 61.1378C86.8713 61.1378 87.0034 60.9706 87.1846 60.6343C87.651 59.7595 87.8842 58.3302 87.8842 56.3403C87.8842 55.7788 87.8612 55.1983 87.8122 54.5977C87.608 52.2505 87.1966 48.6522 86.573 43.8007C86.0585 39.7279 84.7113 28.4734 84.7353 28.1371C85.0716 28.4844 85.3879 28.7727 85.6872 28.9999C85.7963 29.072 85.8744 29.109 85.9214 29.109Z" fill="#575756"/>
<path d="M60.2829 79.9823C60.9485 79.3287 61.6652 78.651 61.8193 77.8963C61.8674 77.6621 61.463 77.502 60.9165 77.1056C60.3369 76.6852 60.0437 76.5681 59.7424 76.3179C58.5963 77.2087 58.255 78.2777 58.222 78.4118C58.1439 78.6731 58.3811 78.8312 58.7214 79.0234C59.4291 79.4548 59.4941 79.5168 60.2829 79.9823Z" fill="#575756"/>
<path d="M18.1954 14.4513C18.9291 14.8978 18.9962 14.9618 19.8139 15.4453C20.5036 14.7676 21.2463 14.066 21.4054 13.2833C21.4545 13.04 21.0361 12.8749 20.4706 12.4635C19.87 12.0281 19.5657 11.906 19.2534 11.6467C18.0653 12.5696 17.712 13.6776 17.678 13.8167C17.5959 14.088 17.8421 14.2522 18.1954 14.4513Z" fill="#575756"/>
<path d="M6.15581 27.3091C5.55525 26.8737 5.25096 26.7516 4.93867 26.4923C3.75057 27.4152 3.39724 28.5232 3.36321 28.6623C3.28214 28.9326 3.52736 29.0977 3.88069 29.2969C4.61437 29.7433 4.68144 29.8074 5.4992 30.2908C5.96463 29.8344 6.44007 29.363 6.75836 28.8665C6.81942 29.0267 7.0126 29.1528 7.26684 29.2969C8.00052 29.7433 8.06758 29.8074 8.88534 30.2908C9.57498 29.6132 10.3177 28.9116 10.4768 28.1288C10.5259 27.8856 10.1075 27.7205 9.54195 27.3091C8.94139 26.8737 8.63711 26.7516 8.32482 26.4923C7.67822 26.9948 7.28485 27.5473 7.04964 27.9727C6.93753 27.7985 6.59421 27.6274 6.15581 27.3091Z" fill="#575756"/>
<path d="M85.6782 99.2942C84.9445 98.8478 84.8774 98.7837 84.0597 98.3003C83.5942 98.7567 83.1188 99.2282 82.8005 99.7246C82.7394 99.5645 82.5463 99.4383 82.292 99.2942C81.5583 98.8478 81.4913 98.7837 80.6735 98.3003C79.9839 98.9779 79.2412 99.6796 79.082 100.462C79.033 100.706 79.4504 100.871 80.0169 101.282C80.6175 101.717 80.9218 101.84 81.234 102.099C81.8806 101.596 82.274 101.044 82.5092 100.618C82.6213 100.793 82.9647 100.964 83.4031 101.282C84.0036 101.717 84.3079 101.84 84.6202 102.099C85.8083 101.176 86.1616 100.068 86.1957 99.9288C86.2767 99.6576 86.0305 99.4934 85.6782 99.2942Z" fill="#575756"/>
<path d="M74.7019 52.42C75.4096 52.8504 75.4746 52.9125 76.2644 53.3789C76.93 52.7253 77.6466 52.0476 77.7998 51.2929C77.8478 51.0587 77.4434 50.8986 76.8969 50.5022C76.3174 50.0818 76.0241 49.9647 75.7228 49.7145C74.5768 50.6053 74.2355 51.6743 74.2024 51.8084C74.1244 52.0697 74.3616 52.2278 74.7019 52.42Z" fill="#575756"/>
<path d="M68.1721 50.4854C67.026 51.3762 66.6847 52.4452 66.6516 52.5793C66.5736 52.8405 66.8108 52.9987 67.1511 53.1919C67.8588 53.6223 67.9238 53.6843 68.7136 54.1508C69.3792 53.4971 70.0959 52.8195 70.249 52.0648C70.297 51.8306 69.8927 51.6704 69.3462 51.2741C68.7676 50.8537 68.4733 50.7356 68.1721 50.4854Z" fill="#575756"/>
<path d="M1.57328 35.205C1.59731 35.0849 1.60832 34.9898 1.60832 34.9178C1.60832 34.8457 1.5913 34.8027 1.55627 34.7916C1.47519 34.7916 1.37009 34.9298 1.24097 35.205C0.527311 36.7975 0.16998 38.2208 0.168979 39.48C0.166977 41.3357 0.760528 42.8151 1.94963 43.9181C3.19679 45.0812 4.93541 45.6647 7.16448 45.6667C7.48278 45.6667 7.84812 45.6287 8.19944 45.6027V45.6197C10.8819 45.5627 13.8557 44.893 16.5852 44.0783C17.5902 50.1739 18.3979 55.4999 18.3979 56.8712C18.3979 57.2775 18.3799 57.6078 18.3449 57.8581C18.1587 59.0332 16.5872 60.7397 13.6305 62.9798C13.4814 63.0929 13.3412 63.189 13.1951 63.2971C13.1881 63.2521 13.1801 63.201 13.1741 63.161C12.9228 61.6045 12.5445 59.98 12.042 58.2915C11.5025 56.4828 11.0831 55.579 10.7838 55.579C10.7238 55.579 10.6757 55.608 10.6397 55.668C10.4245 56.5539 10.2323 57.2785 10.0642 57.8421C10.0642 57.9141 10.2794 58.6558 10.7108 60.0691C11.1892 61.6036 11.4945 62.8247 11.6266 63.7355C11.6507 63.8957 11.6807 64.0979 11.7147 64.3231C9.50566 65.7554 7.66695 66.4831 6.20859 66.4831C2.86749 66.4831 1.19693 64.7154 1.19693 61.1832C1.19693 59.5787 1.4822 58.0993 2.05273 56.745C2.18085 56.4338 2.24491 56.1955 2.24491 56.0264C2.24491 55.8942 2.20988 55.8282 2.13981 55.8282C1.96565 55.8282 1.76146 56.0864 1.52824 56.6019C0.655431 58.5177 0.219025 60.4104 0.219025 62.2792C0.219025 64.267 0.696468 65.8915 1.65136 67.1477C2.64128 68.4419 3.9565 69.0865 5.59703 69.0865C7.4017 69.0865 9.42659 68.3929 11.6737 67.0036C11.8108 66.9185 11.9369 66.8234 12.072 66.7353C12.9148 72.4697 14.5043 83.4759 14.7956 86.3646C15.1189 89.5625 15.4542 91.7305 15.8025 92.8676C16.0658 93.7424 16.5502 94.5752 17.2579 95.3659C17.7864 95.9555 18.3429 96.3709 18.9184 96.6341C21.4207 97.7792 26.6026 98.1845 32.3769 97.9643C36.2595 97.8162 40.037 97.8262 44.7064 96.3568C45.9355 95.9705 46.8264 95.3819 47.473 94.8665C47.4009 95.9565 47.6281 96.8133 48.1546 97.4348C48.633 97.9984 49.2866 98.2796 50.1134 98.2796C51.1193 98.2796 52.0722 97.8713 52.9701 97.0575C53.5556 96.3869 53.951 95.8844 54.1552 95.5481C54.4064 96.3038 54.5565 96.7162 54.6036 96.7872C54.9029 97.2557 55.4244 97.4889 56.167 97.4889C57.3401 97.4889 58.3891 96.4479 59.312 94.363C59.348 94.9615 59.5031 95.453 59.7784 95.8354C60.2809 96.549 61.2077 96.9264 62.545 96.9774V96.9864C62.56 96.9864 62.577 96.9824 62.592 96.9824C62.608 96.9824 62.62 96.9864 62.6351 96.9864V96.9784C63.3457 96.9574 64.1575 96.6952 65.0783 96.1787C65.9161 95.7102 66.5327 95.2438 66.928 94.7774C67.935 93.6043 68.3534 92.3872 68.1862 91.13C68.0661 90.2792 67.5276 89.2963 66.5687 88.1823C65.5027 86.9741 65.2305 86.6658 65.1224 86.3435C65.3736 86.3906 65.6729 86.4156 66.0212 86.4156C66.2244 86.4156 66.3265 86.3556 66.3265 86.2344C66.3265 86.0903 66.1773 85.8941 65.8781 85.6419C65.0033 84.9953 64.2676 84.4628 63.668 84.0424C63.4878 83.8752 63.3627 83.9763 63.2907 84.3477C63.1946 85.1154 63.1285 85.725 63.0925 86.1804C63.0444 86.3125 63.1585 86.3786 63.4348 86.3786C63.8532 87.6357 64.2946 88.4345 65.3846 89.6917C66.5337 91.0089 67.1923 91.8777 67.3604 92.2971C67.4565 92.5243 66.9771 92.9307 65.9241 93.5172C64.771 94.1408 63.667 94.4531 62.606 94.4651C62.1486 94.4601 61.6912 94.333 61.2347 94.0747C60.8394 93.7875 60.5701 93.4702 60.427 93.1228C60.2829 92.7755 60.1808 92.5183 60.1217 92.3491C60.2408 91.9778 60.2709 91.7506 60.2108 91.6675C60.1387 91.5724 59.8385 91.5654 59.6543 91.8657C59.2349 92.6444 58.9827 93.1459 58.8996 93.3731C58.324 94.4881 57.5944 94.9976 56.7075 94.9005C56.157 94.8424 55.6005 94.422 55.037 93.6433C55.3002 92.8055 55.4324 92.3801 55.4324 92.3691C55.4324 92.2861 55.3963 92.243 55.3243 92.243C55.2762 92.243 55.2162 92.261 55.1441 92.2971C54.6176 92.8236 54.2222 93.309 53.959 93.7524C53.6587 94.2419 53.2163 94.6793 52.6287 95.0636C51.9701 95.47 51.3285 95.6732 50.706 95.6732C49.64 95.6732 48.8492 95.0867 48.3348 93.9126C48.4539 93.5042 48.548 93.1919 48.614 92.9687C48.6801 92.7475 48.6951 92.5883 48.7131 92.4922C48.7271 92.4162 48.7421 92.3151 48.641 92.3681C48.603 92.3831 48.4729 92.4452 48.1916 92.6184C46.5451 93.4842 45.1818 94.0277 44.0718 94.2859C43.9947 94.3029 38.4456 95.5441 31.7453 95.6212C27.066 95.6752 23.1203 95.5411 19.3618 94.1728C18.9524 94.0237 18.5831 93.6533 18.1917 93.2089C17.2939 92.191 16.7304 90.7727 16.5032 88.952C16.371 87.3825 16.2459 85.814 16.1258 84.2446C15.9186 81.8694 14.3462 71.0033 13.5554 65.6873C14.8106 64.7215 15.9486 63.6454 16.9476 62.4383C18.2128 60.9119 18.9104 59.5997 19.0505 58.5027C19.535 61.4464 20.633 66.0267 23.0653 69.7081C22.5117 71.4027 22.2205 73.0492 22.2205 74.6427C22.2205 79.3991 24.5396 82.56 29.2901 83.2236C30.0548 83.3307 30.8755 83.3628 31.6833 83.3388C31.6112 83.4919 31.5351 83.6691 31.4551 83.8793C30.9646 85.1514 30.6613 86.3015 30.5242 87.3435C26.3994 89.4604 22.0483 91.7155 21.3547 92.1059L21.2626 93.0978C22.6088 92.3311 26.6566 90.2502 30.4401 88.3264C30.4371 88.4435 30.4311 88.5596 30.4311 88.6767C30.4311 90.3052 30.7304 91.6765 31.3289 92.7895C32.0957 94.1908 33.2457 94.8975 34.7782 94.9095C36.8501 94.9215 39.2693 93.8795 42.0359 91.7836C44.1078 90.2151 45.5512 88.8379 46.3659 87.6508C46.9164 86.5748 47.1627 85.3576 47.1026 84.0034C47.0305 82.3038 46.462 80.9025 45.396 79.8005C44.5823 78.9497 43.8576 78.5243 43.223 78.5243C42.5404 78.5243 41.8988 78.8956 41.3002 79.6393C40.6536 80.4421 40.3413 81.3939 40.3653 82.495C40.3894 83.8002 41.084 84.4538 42.4503 84.4538C42.5934 84.4538 42.9588 84.4418 43.5463 84.4167C44.289 84.3817 44.9656 84.5198 45.5762 84.8301C46.0907 85.0924 46.3849 85.3626 46.456 85.6379C46.1097 86.3315 44.7674 87.5357 42.4323 89.2482C39.6177 91.3212 37.3185 92.3571 35.5339 92.3571C32.7192 92.3571 31.2979 90.8657 31.2359 87.922C34.574 86.2284 37.5337 84.7451 37.9911 84.5279L38.0642 83.5179C37.1914 83.9363 34.3578 85.3766 31.2619 86.9641C31.3059 86.4657 31.379 85.9602 31.5091 85.4407C31.6052 85.0814 31.7603 84.6149 31.9765 84.0394C32.0836 83.7521 32.1527 83.5189 32.2008 83.3167C33.1576 83.2567 34.0745 83.1135 34.8342 82.9044C37.5327 82.1617 40.5815 80.396 43.1049 72.9581C45.344 66.361 41.4704 64.5673 36.4307 64.5883C35.7451 64.5913 34.5129 64.5783 33.3959 64.5823C32.6622 64.5853 31.9786 64.5963 31.5331 64.6244C29.7775 64.7335 28.2201 65.0187 26.9148 66.1478C26.062 66.8855 26.0851 67.9705 26.7577 69.8312C26.7577 69.8312 25.6297 69.3908 24.7068 68.3028C25.6437 66.4781 26.8328 65.0107 28.2981 63.9357C28.4693 63.8126 28.9167 63.5203 29.6324 63.0619C30.9606 63.121 32.1087 63.0699 33.0606 62.9678L33.0375 62.9868C33.4769 62.9868 34.2937 62.8477 35.1955 62.6125C35.9332 62.4383 36.3236 62.2822 36.3236 62.2822L36.3276 62.2772C37.5748 61.8608 38.7679 61.2983 39.2003 60.6847C39.9329 59.6437 40.2763 57.9722 40.2302 55.672C39.942 52.8444 39.5226 48.6185 39.0842 44.2614C39.7658 44.1633 40.4975 44.0132 41.2251 43.788C41.9398 50.1739 42.5033 55.0174 42.9137 58.2785C43.0218 59.3314 43.0158 60.3434 42.8967 61.3133C42.8006 62.081 42.8176 62.4633 42.9497 62.4633C43.0328 62.4633 43.1649 62.2962 43.3451 61.9599C43.8125 61.0861 44.0458 59.6557 44.0458 57.6659C44.0458 57.1044 44.0217 56.5238 43.9737 55.9233C43.7705 53.5761 43.3571 49.9777 42.7346 45.1262C42.6715 44.6288 42.5994 44.0032 42.5204 43.2895C42.6114 43.2465 42.7045 43.2075 42.7946 43.1604C43.5193 42.7881 44.5492 42.0724 45.9035 41.0404C45.8314 42.0724 46.0767 42.8691 46.6402 43.4307C47.1437 43.9221 47.7822 44.1674 48.562 44.1674C49.629 44.1674 50.4307 43.79 50.9692 43.0363C51.3886 42.4498 51.7059 41.9343 51.9211 41.4919C52.2344 41.8512 52.5387 42.2165 52.8379 42.5879C53.2814 42.9943 53.7838 43.1974 54.3473 43.1974C56.143 43.1974 57.0419 41.9213 57.0419 39.3699C57.0419 38.8574 56.9307 38.3069 56.7095 37.7264C56.4863 37.1478 56.2861 36.8556 56.107 36.8556C56.0579 36.8556 56.0179 36.8846 55.9809 36.9446C55.6696 37.4591 55.5435 38.1297 55.6035 38.9575C55.6035 39.1127 55.7046 39.3249 55.9088 39.5951C56.113 39.8654 56.2141 40.0655 56.2141 40.1977C56.2141 40.3528 56.0179 40.5029 55.6215 40.6461C55.2852 40.7662 55 40.8252 54.7587 40.8252C53.993 40.8252 53.3404 40.4679 52.7999 39.7492C53.0762 38.8264 53.2133 38.3059 53.2133 38.1848C53.2133 38.0527 53.1783 37.9886 53.1062 37.9886C53.0572 38.0006 53.0091 38.0176 52.9621 38.0407C52.4936 38.4841 52.1343 38.9815 51.8841 39.533C51.2004 41.0545 50.2075 41.8142 48.9013 41.8142C47.9434 41.8142 47.2017 41.2877 46.6732 40.2327C46.7563 39.7182 46.8053 39.4009 46.8173 39.2808C46.8294 39.1627 46.8364 39.0656 46.8364 38.9935C46.8364 38.8034 46.7823 38.7063 46.6732 38.7063C46.6011 38.7063 46.469 38.7723 46.2789 38.9045C44.4812 40.1266 43.256 40.9554 42.5233 41.1856C42.4503 41.2086 42.3752 41.2276 42.3021 41.2496C41.7516 35.9417 41.068 28.3887 41.087 28.1285C41.4223 28.4758 41.7396 28.764 42.0389 28.9913C42.147 29.0633 42.2241 29.1004 42.2731 29.1004C42.3452 29.1004 42.3812 29.0513 42.3812 28.9562C42.3812 28.6569 42.094 27.8952 41.5184 26.6751C41.1591 25.8844 40.7937 25.0936 40.4224 24.3029C40.2062 23.7884 40.039 23.5292 39.9189 23.5292C39.8709 23.5292 39.8359 23.5722 39.8108 23.6553C39.3554 25.0446 39.1642 25.8063 39.2353 25.9364C39.5226 26.5119 39.6847 26.8653 39.7207 26.9974C39.9139 29.0073 40.7137 38.0857 41.011 41.5669C40.2573 41.7181 39.5186 41.8152 38.8419 41.8732C38.2424 35.9477 37.6448 30.2064 37.3275 27.8242C37.9201 28.4948 38.2294 28.8421 38.2534 28.8651C38.3455 28.9372 38.4215 28.9742 38.4796 28.9742C38.5497 28.9742 38.5847 28.9142 38.5847 28.7931C38.5847 28.0994 37.9851 26.584 36.786 24.2488C36.5768 23.6973 36.4137 23.4211 36.2976 23.4211C36.2505 23.4211 36.2155 23.4641 36.1925 23.5472C35.8191 24.7463 35.6339 25.506 35.6339 25.8283C35.6339 25.9975 35.669 26.1296 35.739 26.2247C35.9252 26.4869 36.0303 26.6561 36.0533 26.7282C36.1494 28.5779 37.0553 39.0336 37.3535 41.9513C36.3536 41.9713 35.698 41.9213 35.698 41.9213C35.698 41.9213 31.427 42.1935 30.8005 36.4612C30.6683 34.8917 30.5422 33.3233 30.4211 31.7538C30.1999 29.2045 29.5933 23.7534 29.1569 20.6145H33.2117C37.2194 20.6145 42.7896 20.065 49.9152 18.9609C52.4726 18.5636 54.7167 18.2222 56.5844 17.937C56.8757 20.7286 57.197 23.8565 57.5013 26.8232C56.2091 27.2626 53.95 27.8832 50.704 28.686C47.7642 29.4086 46.2638 29.9662 46.2028 30.3555C46.1938 30.4146 46.2598 30.4566 46.402 30.4796C46.6152 30.5137 46.9365 30.5087 47.3679 30.4676C51.2795 30.1904 54.0351 30.0202 55.6335 29.9592C56.3032 29.775 57.0158 29.5388 57.7535 29.2705C58.1639 33.2462 58.5192 36.6253 58.6954 38.0236C58.8025 39.0766 58.7965 40.0886 58.6764 41.0585C58.5813 41.8262 58.5983 42.2085 58.7304 42.2085C58.8135 42.2085 58.9456 42.0414 59.1268 41.7051C59.5932 40.8313 59.8264 39.4009 59.8264 37.4111C59.8264 36.8496 59.8034 36.269 59.7544 35.6685C59.6733 34.7356 59.4171 32.0021 59.0978 28.744C60.6622 28.1044 62.3508 27.3117 64.1925 26.3298C67.0672 24.7964 68.7227 23.7624 69.1591 23.2259C69.7296 22.5272 70.133 21.4763 70.3672 20.069C70.4854 19.3243 70.4903 18.2633 70.3812 16.888C70.7186 16.9861 75.3719 18.4094 78.3437 15.9101C78.6159 15.6809 79.0513 14.9292 79.747 13.7551C80.2244 14.3907 80.9861 14.9692 82.0281 15.4977C82.9369 15.9411 83.6216 16.1623 84.076 16.1623C84.4844 16.1623 84.8417 15.8691 85.154 15.2825C85.4302 14.731 85.5654 14.1495 85.5654 13.5399C85.5654 12.3408 85.3862 11.3429 85.0269 10.5401C84.6075 9.59423 84.0089 9.11979 83.2292 9.11979C82.2713 9.11979 81.3855 9.89351 80.5717 11.4379C80.5227 11.3549 80.4706 11.3118 80.4106 11.3118C80.2785 11.3118 79.8961 11.7743 79.2605 12.6951C78.5899 13.678 77.8492 14.0904 77.4148 14.3226C74.413 15.9311 70.2151 14.3426 69.8027 14.2135C69.3803 13.5169 69.085 13.0454 68.9169 12.8002C68.7357 12.4919 68.5906 12.4869 68.4825 12.7842C68.2373 13.4868 68.0231 14.1925 67.8379 14.9032C68.4765 15.9982 69.043 17.974 69.5375 20.8277C68.3103 21.9057 66.6428 22.9456 64.5308 23.9456C63.5089 24.42 61.6101 25.2077 58.8545 26.3058C58.5583 23.334 58.237 20.2031 57.9617 17.7258C60.6172 17.3174 62.2347 17.0562 62.4719 16.9501C62.7862 16.828 63.0244 16.5016 63.0244 16.5016C63.7841 15.6619 64.1635 14.8251 64.1635 13.9853C64.1635 13.7951 64.1324 13.632 64.0754 13.4999C63.7171 12.1306 62.8372 11.448 61.9794 11.0946C60.9505 10.6702 59.31 10.469 57.0859 10.423C56.9328 9.08376 56.8607 8.30003 56.8727 8.11285C57.209 8.46018 57.5253 8.74844 57.8246 8.97566C57.9337 9.04772 58.0108 9.08476 58.0578 9.08476C58.1299 9.08476 58.1669 9.03571 58.1669 8.94062C58.1669 8.64135 57.8796 7.87964 57.3041 6.6595C56.9448 5.86877 56.5794 5.07804 56.2081 4.2873C55.9929 3.77282 55.8257 3.51358 55.7046 3.51358C55.6556 3.51358 55.6215 3.55662 55.5975 3.6397C55.1411 5.02899 54.9509 5.7907 55.022 5.92082C55.3092 6.49635 55.4704 6.84968 55.5054 6.9818C55.6325 8.30603 55.7376 9.43909 55.8237 10.416C54.4214 10.437 51.5157 10.6732 47.0696 11.1307C42.3612 11.6091 38.4225 11.7933 37.4026 11.8043C35.1265 11.8163 33.3528 11.6491 32.0826 11.3008C31.0397 11.0015 30.5242 10.6592 30.5362 10.2769C30.5592 9.37703 32.3389 7.69447 35.8732 5.22717C36.8811 4.52152 38.1263 3.80886 39.6096 3.09019C40.9259 2.4546 41.7546 2.11528 42.099 2.06624C42.7165 2.04322 43.0959 2.26442 43.238 2.73086C43.3691 3.15024 43.4993 3.36044 43.6284 3.36044C43.6884 3.36044 43.8136 3.16826 44.0037 2.7849C44.4171 1.93411 44.6253 1.33556 44.6253 0.987235C44.6253 0.316612 44.1268 -0.0116932 43.1319 0.000317931C41.3272 0.0123291 38.5356 1.37159 34.7511 4.07811C33.1276 5.24019 31.9425 6.26414 31.1938 7.14996C30.257 8.263 29.5703 9.61725 29.1309 11.2087C29.0829 11.3659 29.0598 11.522 29.0598 11.6772C29.0598 13.2106 31.2168 13.9753 35.5339 13.9753C37.3255 13.9753 41.7857 13.7811 46.7673 13.2666C51.7069 12.7562 54.7808 12.4979 55.9989 12.4939C56.106 13.4598 56.2281 14.5899 56.3592 15.826C54.4885 16.0582 52.2574 16.3425 49.7351 16.6788C42.5584 17.6247 37.0563 18.0971 33.2257 18.0971H28.7145C28.4853 16.9691 28.2151 15.82 27.8597 14.6269C27.3192 12.8182 26.9018 11.9144 26.6026 11.9144C26.5425 11.9144 26.4935 11.9434 26.4584 12.0035C26.2432 12.8893 26.05 13.614 25.8829 14.1775C25.8829 14.2496 26.0981 14.9912 26.5295 16.4046C26.7227 17.0241 26.8798 17.5797 27.0159 18.0971H25.2783C24.4035 17.984 23.811 17.8569 23.3736 17.7188C22.9552 17.0221 22.6629 16.5507 22.4967 16.3055C22.3166 15.9972 22.1734 15.9922 22.0663 16.2895C21.8241 16.9921 21.6119 17.6978 21.4277 18.4084C22.0603 19.5034 22.6219 21.4793 23.1103 24.3329C21.8952 25.4109 20.2436 26.4509 18.1527 27.4508C17.5451 27.7361 16.6153 28.1375 15.3871 28.6469C14.8496 26.1987 14.4282 24.4821 14.3101 24.4781C14.0309 24.4661 13.7926 25.2258 13.5945 26.7592C13.7286 27.5109 13.8747 28.3346 14.0289 29.2065C13.3512 29.4827 12.6085 29.783 11.7928 30.1093C10.6908 30.5507 8.24649 31.2453 4.45897 32.1922C1.54826 32.9149 0.061878 33.4724 0.000821255 33.8618C-0.00818712 33.9208 0.0568739 33.9629 0.198005 33.9859C0.409201 34.0199 0.727497 34.0149 1.15489 33.9739C5.0285 33.6966 7.75703 33.5265 9.34051 33.4654C10.8549 33.046 12.5665 32.3794 14.4362 31.5176C14.9888 34.6665 15.6073 38.2499 16.1889 41.7201C13.0169 42.6369 10.1453 42.9642 8.88408 43.0703V43.0633C8.35459 43.1044 7.8331 43.1354 7.33864 43.1344C5.76318 43.1324 4.3929 42.7771 3.22582 42.0694C1.82652 41.2306 1.12787 40.0675 1.12887 38.5812C1.12887 38.1498 1.18893 37.5692 1.30604 36.8385L1.57328 35.205ZM43.8496 82.0105C43.4903 82.0105 43.1249 82.0165 42.7536 82.0275C42.2621 82.0045 41.9508 81.8834 41.8187 81.6682C41.8427 81.1297 42.161 80.8594 42.7706 80.8594C43.2741 80.8594 43.8966 81.2728 44.6393 82.0986C44.3761 82.0526 44.1128 82.0215 43.8496 82.0105ZM82.6196 11.5991C82.8839 11.5991 83.1321 11.7763 83.3653 12.1296C83.5985 12.4829 83.7207 12.8753 83.7327 13.3067C83.2062 13.2466 82.7458 13.0795 82.3494 12.8032C82.2773 12.7542 81.972 12.4849 81.4345 11.9955C81.7228 11.7312 82.1172 11.5991 82.6196 11.5991ZM57.6104 14.725C57.5063 13.9042 57.4172 13.1806 57.3351 12.5119C60.3189 12.597 61.474 13.0755 62.4569 15.0823C62.2277 15.1234 60.5161 15.3186 57.7265 15.6609C57.6855 15.3216 57.6464 15.0073 57.6104 14.725ZM29.9797 74.6417C30.1519 74.7047 30.36 74.6687 30.4862 74.5356C31.361 73.6077 31.6512 72.3045 31.7423 71.7039C31.7704 71.5188 31.6593 71.3466 31.4791 71.2956C30.4531 71.0063 27.1601 69.9783 27.096 68.6771C26.9829 66.399 35.4598 66.5411 36.3416 66.5562C40.3734 66.6242 43.9567 67.6822 42.7526 72.6238C41.4063 78.1509 37.7689 80.353 33.3889 80.8274C32.9545 80.8745 30.9406 80.8414 29.8486 80.6312C28.8857 80.4461 28.0499 80.1938 27.3533 79.8895C24.6057 78.6814 23.2314 76.5364 23.2314 73.4586C23.2314 72.5858 23.4086 71.6419 23.7249 70.645C25.8539 73.0232 27.2642 73.6558 29.9797 74.6417ZM15.8626 30.842C16.5002 30.5257 17.1448 30.2004 17.8194 29.837C20.666 28.3036 22.3046 27.2697 22.738 26.7332C23.3035 26.0345 23.7019 24.9835 23.9341 23.5762C24.0512 22.8315 24.0552 21.7705 23.9481 20.3953C24.2894 20.4954 24.5917 20.5624 24.9911 20.5975V20.6145H27.5264C28.0009 23.9386 28.7505 30.4966 29.0909 33.8738C29.4152 37.0718 29.7495 39.2398 30.0968 40.3768C30.359 41.2516 30.8685 42.0644 31.5522 42.8751C32.8674 44.4376 35.9783 44.4376 35.9783 44.4376C35.9783 44.4376 36.6559 44.4736 37.6498 44.4106C38.6688 52.5551 39.1782 57.1454 39.1782 58.1704C39.1782 58.3255 39.1672 58.4206 39.1432 58.4576C38.9971 58.7799 38.8289 59.0382 38.6437 59.2474C37.1604 60.1862 35.1725 60.5976 33.2808 60.7508C35.1685 59.5627 36.2025 58.848 36.3616 58.6178C36.6409 57.9712 36.8681 57.3856 37.0423 56.8571C37.1353 56.6299 37.1824 56.4628 37.1824 56.3537C37.1824 56.2816 37.1474 56.2466 37.0773 56.2466C36.9962 56.2466 36.8271 56.3297 36.5718 56.4968C34.0795 58.0903 31.8975 59.4676 30.0237 60.6296C29.8255 60.6527 29.6284 60.6647 29.4302 60.6647C27.6605 60.6647 25.979 59.9941 24.3845 58.6538C22.9872 57.4687 22.2895 56.4448 22.2895 55.582C22.2895 55.1025 23.1854 54.576 24.979 54.0005C26.7016 53.451 28.162 53.1747 29.3611 53.1747C29.8506 53.1747 30.6884 53.3359 31.8755 53.6582C32.0386 53.7072 32.1727 53.7302 32.2778 53.7302C32.418 53.7302 32.486 53.6832 32.486 53.5861C32.486 53.2398 31.9155 52.7954 30.7754 52.2569C29.4492 51.6353 28.0459 51.334 26.5675 51.359C25.1942 51.3821 23.9771 51.9085 22.9181 52.9385C21.8011 54.0165 21.2426 55.3397 21.2426 56.9102C21.2426 57.9632 21.667 58.9811 22.5168 59.964C23.1333 60.6717 23.9771 61.3533 25.0481 62.0119C25.4124 62.2211 25.7778 62.4303 26.1421 62.6395L26.1131 62.6745C26.1551 62.6815 26.1942 62.6866 26.2352 62.6936C26.4444 62.8137 26.6546 62.9338 26.8638 63.0539C25.8519 63.9788 24.89 65.4301 23.9761 67.3819C22.7119 65.6643 21.2466 63.0269 20.4198 59.3314C20.4148 59.3094 20.4098 59.2874 20.4048 59.2664C20.3307 58.9321 20.2767 58.5687 20.2136 58.2174C20.0455 57.0203 19.8713 55.1025 19.601 52.5041C19.2517 49.186 18.8784 46.3954 18.483 44.1323C18.45 43.9451 18.4129 43.736 18.3729 43.5167C21.5348 42.4688 24.1463 41.3527 25.2193 41.0054C27.3693 40.3098 28.0579 41.1395 26.5775 42.9082C24.7698 45.0672 22.0954 47.4364 21.8081 47.9148C21.5208 48.3923 22.3096 47.9158 22.3096 47.9158C22.3096 47.9158 24.901 45.8839 26.3613 44.3535C27.9738 42.664 29.0158 40.8273 28.8747 39.1717C28.7335 37.5172 23.5887 38.9345 18.9855 40.7702C18.6351 40.9103 18.2838 41.0384 17.9325 41.1626C17.365 38.1798 16.5682 34.1801 15.8626 30.842Z" fill="#575756"/>
<path d="M77.6501 99.2737L75.4931 99.5069C75.2108 99.5369 74.9276 99.5529 74.6443 99.5529L5.09365 99.5689C5.09365 99.5689 1.20103 99.631 2.06484 98.0325C3.04975 96.2108 10.1403 96.432 10.7319 92.3452C11.3224 88.2584 7.23564 85.8452 7.23564 85.8452L8.17151 85.7221L5.34388 83.6552L5.2518 86.2926L5.48301 86.4087C5.48301 86.4087 8.67498 89.8089 9.83206 91.5445C9.83206 91.5445 10.3175 92.3542 9.83206 92.6545C9.34661 92.9548 8.93022 93.3251 5.94544 94.1579C2.96167 94.9907 0.232133 97.6512 0.370261 99.663C0.50839 101.675 3.14584 101.768 4.81139 101.907C6.47694 102.046 71.7116 101.907 71.7116 101.907C71.7116 101.907 75.4911 101.109 77.6011 99.672C78.1886 99.2697 77.6501 99.2737 77.6501 99.2737Z" fill="#575756"/>
<path d="M0.851352 82.5458C1.58503 82.9922 1.6521 83.0563 2.46986 83.5397C3.1595 82.8621 3.90219 82.1605 4.06134 81.3777C4.11038 81.1345 3.69299 80.9694 3.12647 80.558C2.52591 80.1226 2.22163 80.0005 1.90933 79.7412C0.72123 80.6641 0.367902 81.7721 0.333871 81.9112C0.252795 82.1825 0.499024 82.3466 0.851352 82.5458Z" fill="#575756"/>
<path d="M73.5416 94.1432C73.5666 94.1432 73.5836 94.1902 73.5926 94.2833C73.6006 94.3764 73.6257 94.4274 73.6687 94.4354C74.002 94.5325 74.2212 94.3704 74.2563 94.3313C74.2853 94.2983 74.5625 93.973 74.3654 93.2824C74.2132 93.1052 74.015 93.0161 73.7698 93.0161C72.9841 93.0161 72.3795 93.7128 71.9581 95.1071C71.875 95.6105 72.2154 95.7657 72.4276 95.8297C72.4526 95.8387 72.6678 95.8808 73.0742 95.9558C72.4406 96.4803 72.1233 96.8307 72.1233 97.0078C72.1233 97.0759 72.1543 97.161 72.2484 97.172C72.3495 97.184 72.4766 97.19 72.6558 97.0839C72.951 96.8307 73.4755 96.5344 74.2272 96.1961C74.9029 95.9008 75.3583 95.6115 75.5905 95.3283C75.8227 95.045 75.9398 94.7467 75.9398 94.4344C75.9398 94.3333 75.9098 94.2823 75.8507 94.2823C75.8257 94.2913 75.7957 94.2993 75.7617 94.3073C75.6265 94.3754 75.3853 94.5315 75.04 94.7768C74.7777 94.9629 74.4865 95.1151 74.1652 95.2332C73.954 95.1821 73.3094 95.2442 72.6978 94.7507C72.6948 94.5315 73.0091 94.2192 73.5416 94.1432Z" fill="#575756"/>
<path d="M79.5115 19.6703C79.8909 19.9716 80.2412 20.3299 80.7897 20.393C81.3632 19.9266 81.4513 19.0808 81.0029 18.5092C80.6776 18.0949 80.2662 18.1039 79.9579 18.5323C79.8738 18.6504 79.8138 18.8225 79.6987 18.8746C79.4455 18.9887 79.3514 19.2029 79.2453 19.4201C78.944 20.0347 78.5136 20.5371 77.933 20.9025C77.6027 21.1097 77.2724 21.3249 76.9221 21.492C75.733 22.0585 74.5339 22.604 73.3388 23.1576C73.1956 23.2236 73.0495 23.2867 72.8613 23.3708C72.9514 23.4028 72.9824 23.4268 73.0075 23.4218C73.7872 23.2596 74.5789 23.1395 75.3436 22.9223C77.1283 22.4159 78.6247 21.512 79.4434 19.7454C79.4555 19.7184 79.4845 19.7003 79.5115 19.6703ZM80.8828 19.5272C80.5475 19.4982 80.3253 19.315 80.079 19.0868C80.5775 18.8846 80.7126 18.9647 80.8828 19.5272Z" fill="#575756"/>
<path d="M32.7498 77.2055C34.5345 76.6991 36.0309 75.7952 36.8496 74.0286C36.8627 74.0016 36.8917 73.9825 36.9197 73.9535C37.2991 74.2548 37.6494 74.6131 38.1979 74.6762C38.7714 74.2098 38.8595 73.364 38.4111 72.7924C38.0858 72.3781 37.6744 72.3871 37.3661 72.8155C37.2821 72.9336 37.222 73.1057 37.1069 73.1578C36.8537 73.2719 36.7596 73.4861 36.6535 73.7033C36.3522 74.3179 35.9218 74.8203 35.3412 75.1857C35.0109 75.3929 34.6806 75.6081 34.3303 75.7752C33.1412 76.3417 31.9421 76.8872 30.747 77.4408C30.6038 77.5068 30.4577 77.5699 30.2695 77.654C30.3596 77.686 30.3906 77.71 30.4157 77.705C31.1944 77.5429 31.9861 77.4227 32.7498 77.2055ZM38.291 73.8104C37.9557 73.7814 37.7335 73.5982 37.4872 73.37C37.9847 73.1668 38.1208 73.2469 38.291 73.8104Z" fill="#575756"/>
<path d="M74.9555 71.8204C74.6582 71.6763 74.3129 71.7493 74.0496 72.0706C73.8775 72.2798 73.7203 72.521 73.6302 72.7753C73.383 73.4729 73.1728 74.1836 72.9596 74.8552C72.7134 74.3017 72.4682 73.6921 72.1769 73.1066C71.9036 72.5581 71.4542 72.2308 70.7466 72.1998C70.5314 72.514 70.2981 72.8534 70.0859 73.1636C70.4473 73.7842 70.8747 74.0885 71.5633 73.8283C71.8216 74.3077 72.0948 74.7411 72.291 75.2065C72.4822 75.662 72.5933 76.1494 72.7694 76.7149C73.1458 76.2685 73.2869 75.8371 73.395 75.3827C73.5472 74.7441 73.7173 74.1095 73.8995 73.4779C73.9816 73.1927 74.1117 72.9204 74.462 72.8173C74.7122 72.9895 74.9645 73.1616 75.2738 73.3748C75.3568 73.1026 75.4449 72.9084 75.474 72.7062C75.516 72.3939 75.2447 71.9595 74.9555 71.8204Z" fill="#575756"/>
<path d="M19.057 69.8114C19.111 69.5351 19.2111 69.2649 19.5344 69.1388C19.7857 69.2809 20.0399 69.423 20.3502 69.5982C20.4062 69.333 20.4733 69.1428 20.4833 68.9486C20.4983 68.6503 20.205 68.261 19.9198 68.1529C19.6255 68.0407 19.3052 68.1398 19.083 68.4661C18.9379 68.6783 18.8087 68.9206 18.7447 69.1678C18.5685 69.8494 18.4294 70.5401 18.2833 71.1937C18.004 70.6902 17.7197 70.1337 17.3954 69.6032C17.0911 69.1067 16.6057 68.6583 15.9641 68.8645C15.5317 69.0037 15.4787 69.4641 15.4186 69.8324C15.3916 69.9996 16.2434 70.6432 16.8739 70.3389C17.1582 70.7713 17.4535 71.1586 17.6787 71.584C17.8979 71.9994 18.045 72.4519 18.2582 72.9723C18.5775 72.5179 18.6746 72.0975 18.7397 71.6581C18.8298 71.0405 18.9379 70.425 19.057 69.8114Z" fill="#575756"/>
<path d="M6.81388 56.6234C7.13317 56.169 7.23026 55.7486 7.29532 55.3092C7.38641 54.6916 7.49351 54.0761 7.61362 53.4635C7.66767 53.1872 7.76776 52.917 8.09106 52.7909C8.34229 52.933 8.59653 53.0751 8.90682 53.2503C8.96287 52.9851 9.02993 52.7949 9.03994 52.6007C9.05496 52.3024 8.76169 51.9131 8.47642 51.805C8.18215 51.6928 7.86185 51.7919 7.63964 52.1182C7.49451 52.3304 7.36539 52.5727 7.30133 52.8209C7.12517 53.5025 6.98603 54.1932 6.8399 54.8468C6.56064 54.3433 6.27638 53.7868 5.95207 53.2563C5.64779 52.7598 5.16234 52.3114 4.52074 52.5176C4.08834 52.6568 4.03529 53.1172 3.97524 53.4855C3.94821 53.6527 4.8 54.2963 5.43059 53.992C5.71485 54.4244 6.01013 54.8117 6.23534 55.2371C6.45454 55.6495 6.60068 56.103 6.81388 56.6234Z" fill="#575756"/>
<path d="M15.9256 17.424C15.6314 17.3119 15.3111 17.411 15.0889 17.7363C14.9437 17.9485 14.8146 18.1907 14.7505 18.4389C14.5744 19.1206 14.4353 19.8112 14.2891 20.4648C14.0099 19.9613 13.7256 19.4048 13.4013 18.8743C13.097 18.3779 12.6116 17.9295 11.97 18.1357C11.5376 18.2748 11.4845 18.7352 11.4245 19.1036C11.3974 19.2707 12.2492 19.9143 12.8798 19.61C13.1641 20.0424 13.4594 20.4298 13.6846 20.8552C13.9038 21.2706 14.0499 21.723 14.2641 22.2435C14.5834 21.789 14.6805 21.3687 14.7455 20.9292C14.8366 20.3117 14.9437 19.6961 15.0638 19.0835C15.1179 18.8063 15.218 18.537 15.5413 18.4109C15.7925 18.553 16.0468 18.6952 16.356 18.8703C16.4121 18.6051 16.4792 18.4149 16.4892 18.2207C16.5052 17.9215 16.2119 17.5321 15.9256 17.424Z" fill="#575756"/>
<path d="M6.39941 75.256C6.25427 75.4682 6.12515 75.7104 6.06109 75.9587C5.88493 76.6403 5.7458 77.331 5.59966 77.9846C5.32041 77.4811 5.03614 76.9246 4.71184 76.3941C4.40756 75.8976 3.9221 75.4492 3.28051 75.6554C2.84811 75.7945 2.79506 76.255 2.735 76.6233C2.70798 76.7905 3.55977 77.434 4.19035 77.1298C4.47462 77.5622 4.76989 77.9495 4.9951 78.3749C5.21431 78.7903 5.36044 79.2427 5.57464 79.7632C5.89394 79.3088 5.99103 78.8884 6.05609 78.449C6.14718 77.8314 6.25427 77.2158 6.37438 76.6033C6.42843 76.326 6.52853 76.0568 6.85183 75.9307C7.10306 76.0728 7.3573 76.2149 7.66758 76.3901C7.72364 76.1248 7.7907 75.9347 7.80071 75.7405C7.81573 75.4422 7.52245 75.0528 7.23718 74.9447C6.94191 74.8316 6.62161 74.9307 6.39941 75.256Z" fill="#575756"/>
<path d="M3.02888 11.312C3.30614 11.9025 3.60041 12.435 3.81161 13.0085C4.0178 13.5691 4.13691 14.1696 4.32509 14.8643C4.73046 14.3148 4.8806 13.7843 4.99771 13.2247C5.16086 12.439 5.34403 11.6573 5.54021 10.8806C5.6293 10.5302 5.76743 10.1939 6.14478 10.0668C6.41303 10.278 6.68528 10.4912 7.01659 10.7524C7.10567 10.4171 7.20076 10.1789 7.23179 9.92968C7.27883 9.54632 6.98656 9.01183 6.67627 8.83967C6.35597 8.6615 5.98563 8.75258 5.70237 9.14695C5.51819 9.40419 5.34904 9.70147 5.25195 10.0138C4.9857 10.8726 4.76049 11.7474 4.53028 12.5731C4.26603 11.8915 4.00179 11.1418 3.6895 10.4211C3.39622 9.74551 2.91277 9.34313 2.15207 9.3051C1.92085 9.69146 1.67062 10.1098 1.44141 10.4912C1.82977 11.2569 2.28919 11.6323 3.02888 11.312Z" fill="#575756"/>
<path d="M73.2065 99.0814C75.4035 97.4829 80.5002 94.3119 81.343 93.7894L81.308 92.8866C79.5504 93.9846 74.2374 97.4388 73.1895 98.1935L73.2065 99.0814Z" fill="#575756"/>
<path d="M55.2004 20.5133C53.1064 21.5172 45.3142 25.6251 44.053 26.3347L43.9609 27.3266C46.6054 25.8202 54.1224 22.0007 55.1263 21.5232L55.2004 20.5133Z" fill="#575756"/>
<path d="M11.6437 46.3767C9.5498 47.3806 1.75756 51.4885 0.496383 52.1981L0.404297 53.19C3.04875 51.6836 10.5657 47.8641 11.5697 47.3867L11.6437 46.3767Z" fill="#575756"/>
<path d="M25.6445 50.3131C28.289 48.8067 32.3758 46.8328 33.3797 46.3554L33.4528 45.3455C31.3588 46.3494 26.9968 48.6115 25.7356 49.3212L25.6445 50.3131Z" fill="#575756"/>
<path d="M29 51.0075C31.6445 49.5011 35.7313 47.5273 36.7352 47.0499L36.8083 46.0399C34.7143 47.0438 30.3523 49.306 29.0911 50.0156L29 51.0075Z" fill="#575756"/>
<path d="M11.4035 69.4779C9.30956 70.4818 1.51732 74.5897 0.256147 75.2993L0.164062 76.2912C2.80852 74.7848 10.3255 70.9653 11.3294 70.4878L11.4035 69.4779Z" fill="#575756"/>
<path d="M68.4968 7.32167C68.3527 8.37965 66.0795 9.55975 66.0795 9.55975C66.0795 9.55975 66.9764 9.54574 67.667 9.26347C68.3577 8.98121 69.5758 7.06143 69.8531 6.42884C70.1303 5.79525 69.4917 5.46094 69.4917 5.46094C69.4917 5.46094 66.3648 5.95139 65.7703 6.18161C64.8844 6.52493 65.1016 8.09038 65.1016 8.09038C66.0515 7.3577 68.4968 7.32167 68.4968 7.32167Z" fill="#575756"/>
<path d="M55.3842 89.3359C55.3842 89.3359 56.2811 89.3219 56.9717 89.0386C57.6624 88.7564 58.8805 86.8366 59.1577 86.204C59.435 85.5704 58.7964 85.2361 58.7964 85.2361C58.7964 85.2361 55.6695 85.7265 55.0749 85.9568C54.1891 86.3001 54.4063 87.8665 54.4063 87.8665C55.3552 87.1358 57.8005 87.0988 57.8005 87.0988C57.6573 88.1558 55.3842 89.3359 55.3842 89.3359Z" fill="#575756"/>
<path d="M12.2021 11.9054C13.7276 10.7663 14.7545 9.81042 15.282 9.0377C15.7565 9.33197 16.0757 9.52015 16.2389 9.60022C16.341 9.65327 16.4461 9.5702 16.5532 9.34999C16.6613 9.12979 16.6933 8.92159 16.6483 8.72441C16.368 8.41712 16.1018 8.1819 15.8505 8.01675C16.0377 7.64941 16.1478 7.29608 16.1828 6.95577C16.2679 6.10598 15.9556 5.64555 15.244 5.57448C14.9997 5.54946 14.6845 5.74864 14.2991 6.17104C13.9137 6.59343 13.7085 6.92173 13.6855 7.15495C13.6435 7.56934 13.7436 7.90665 13.9858 8.16689C14.2651 8.37709 14.5393 8.58728 14.8076 8.79648C14.4452 9.41405 13.4723 10.2869 11.8889 11.4149C10.932 12.0805 9.98008 12.7461 9.0332 13.4128C9.05723 13.4898 9.11728 13.5339 9.21337 13.5439C9.68081 13.5909 10.6767 13.0444 12.2021 11.9054ZM14.5603 6.93775C14.6164 6.69652 14.7775 6.58943 15.0428 6.61645C15.3821 6.65048 15.5252 6.94375 15.4692 7.49627C15.4562 7.62339 15.4281 7.7445 15.3841 7.8576C14.7825 7.45323 14.5073 7.14694 14.5603 6.93775Z" fill="#575756"/>
<path d="M19.3447 85.4744C19.1805 86.094 19.0714 86.7276 19.2977 87.3601C19.4007 87.6504 19.5979 87.8556 19.9152 87.8696C20.2055 87.8816 20.4347 87.7325 20.5398 87.4582C20.703 87.0348 20.8411 86.6014 20.9902 86.172C20.9472 86.151 20.9041 86.131 20.8601 86.11C20.747 86.2831 20.6369 86.4583 20.5178 86.6265C20.3967 86.7976 20.2195 86.9328 20.0223 86.8387C19.8852 86.7726 19.7611 86.6044 19.707 86.4553C19.5629 86.0529 19.66 85.6546 19.7921 85.2622C19.9613 84.7597 20.1584 84.2643 20.2866 83.7488C21.1944 80.0774 19.5038 75.7223 18.563 75.0387C18.3978 75.328 18.2667 76.3889 18.1426 76.6061C18.5089 77.0756 20.3546 80.6649 19.9032 83.7027C19.8111 84.3153 19.5038 84.8768 19.3447 85.4744Z" fill="#575756"/>
<path d="M86.1262 85.0662C86.005 85.2373 85.8279 85.3724 85.6307 85.2784C85.4936 85.2123 85.3695 85.0441 85.3154 84.895C85.1713 84.4926 85.2684 84.0943 85.4005 83.7019C85.5696 83.1994 85.7668 82.704 85.8949 82.1885C86.8028 78.5171 85.1122 74.162 84.1713 73.4784C84.0062 73.7677 83.8751 74.8287 83.752 75.0459C84.1173 75.5153 85.963 79.1046 85.5126 82.1425C85.4215 82.755 85.1142 83.3165 84.9551 83.9141C84.7909 84.5337 84.6818 85.1673 84.908 85.7998C85.0111 86.0901 85.2083 86.2953 85.5256 86.3093C85.8159 86.3213 86.0451 86.1722 86.1502 85.8979C86.3133 85.4745 86.4515 85.0411 86.6006 84.6117C86.5576 84.5907 86.5145 84.5707 86.4705 84.5497C86.3554 84.7218 86.2453 84.897 86.1262 85.0662Z" fill="#575756"/>
<path d="M14.6951 53.6166C14.8542 53.0881 15.0314 52.5626 15.2006 52.0361C15.1765 52.0281 15.1535 52.0201 15.1295 52.0111C14.9503 52.3104 14.7562 52.6047 14.595 52.9099C14.1216 53.8108 13.8913 54.7567 13.9674 55.7496C13.9814 55.9267 14.0405 56.1149 14.1366 56.2701C14.3838 56.6674 15.0164 56.7195 15.3157 56.3521C15.663 55.9268 15.8101 55.4293 15.8332 54.8988C15.7341 54.9749 15.673 55.068 15.6059 55.157C15.5339 55.2511 15.4638 55.3482 15.3777 55.4323C15.0484 55.7506 14.6721 55.6895 14.551 55.2771C14.4799 55.0369 14.4539 54.7737 14.4799 54.5264C14.5109 54.2192 14.605 53.9159 14.6951 53.6166Z" fill="#575756"/>
<path d="M24.1512 35.316C24.3984 35.7133 25.031 35.7654 25.3303 35.398C25.6776 34.9726 25.8248 34.4752 25.8478 33.9447C25.7487 34.0208 25.6876 34.1138 25.6206 34.2029C25.5485 34.297 25.4784 34.3941 25.3924 34.4782C25.063 34.7965 24.6867 34.7354 24.5656 34.323C24.4945 34.0828 24.4685 33.8196 24.4945 33.5723C24.5265 33.2661 24.6196 32.9628 24.7107 32.6625C24.8699 32.134 25.047 31.6085 25.2162 31.082C25.1922 31.074 25.1691 31.066 25.1451 31.057C24.966 31.3563 24.7718 31.6506 24.6106 31.9558C24.1372 32.8567 23.907 33.8026 23.983 34.7955C23.9951 34.9716 24.0541 35.1598 24.1512 35.316Z" fill="#575756"/>
<path d="M5.76931 37.8718C5.92846 37.3434 6.10563 36.8179 6.27478 36.2914C6.25076 36.2834 6.22774 36.2754 6.20372 36.2664C6.02455 36.5656 5.83037 36.8599 5.66922 37.1652C5.19578 38.066 4.96557 39.0119 5.04164 40.0048C5.05565 40.182 5.11471 40.3702 5.21079 40.5253C5.45802 40.9227 6.09061 40.9747 6.38989 40.6074C6.73721 40.182 6.88435 39.6845 6.90737 39.154C6.80828 39.2301 6.74722 39.3232 6.68016 39.4123C6.60809 39.5064 6.53803 39.6035 6.45195 39.6875C6.12264 40.0058 5.74629 39.9448 5.62518 39.5324C5.55411 39.2922 5.52809 39.0289 5.55411 38.7817C5.58514 38.4754 5.67823 38.1721 5.76931 37.8718Z" fill="#575756"/>
<path d="M5.08181 60.606C5.24096 60.0775 5.41813 59.552 5.58728 59.0255C5.56326 59.0175 5.54024 59.0095 5.51622 59.0005C5.33705 59.2998 5.14287 59.594 4.98172 59.8993C4.50828 60.8002 4.27807 61.746 4.35414 62.739C4.36815 62.9161 4.4272 63.1043 4.52329 63.2594C4.77052 63.6568 5.40311 63.7089 5.70239 63.3415C6.04971 62.9161 6.19685 62.4187 6.21987 61.8882C6.12078 61.9642 6.05972 62.0573 5.99266 62.1464C5.92059 62.2405 5.85053 62.3376 5.76445 62.4217C5.43514 62.74 5.05879 62.6789 4.93768 62.2665C4.86661 62.0263 4.84059 61.7631 4.86661 61.5158C4.89864 61.2095 4.99173 60.9063 5.08181 60.606Z" fill="#575756"/>
<path d="M32.7322 26.912C32.8914 26.3835 33.0685 25.858 33.2377 25.3315C33.2137 25.3235 33.1906 25.3155 33.1666 25.3065C32.9874 25.6058 32.7933 25.9001 32.6321 26.2054C32.1587 27.1062 31.9285 28.0521 32.0045 29.045C32.0185 29.2222 32.0776 29.4103 32.1737 29.5655C32.4209 29.9628 33.0535 30.0149 33.3528 29.6476C33.7001 29.2222 33.8472 28.7247 33.8703 28.1942C33.7712 28.2703 33.7101 28.3634 33.6431 28.4524C33.571 28.5465 33.5009 28.6436 33.4148 28.7277C33.0855 29.046 32.7092 28.9849 32.5881 28.5726C32.517 28.3323 32.491 28.0691 32.517 27.8219C32.549 27.5156 32.6421 27.2123 32.7322 26.912Z" fill="#575756"/>
<path d="M6.95095 20.6054C6.62164 20.9237 6.24529 20.8626 6.12418 20.4502C6.05311 20.21 6.02709 19.9468 6.05311 19.6995C6.08514 19.3933 6.17823 19.09 6.26931 18.7897C6.42846 18.2612 6.60563 17.7357 6.77478 17.2092C6.75076 17.2012 6.72774 17.1932 6.70372 17.1842C6.52455 17.4835 6.33037 17.7778 6.16922 18.083C5.69578 18.9839 5.46557 19.9298 5.54164 20.9227C5.55565 21.0998 5.6147 21.288 5.71079 21.4432C5.95802 21.8405 6.59061 21.8926 6.88989 21.5252C7.23721 21.0998 7.38435 20.6024 7.40737 20.0719C7.30828 20.148 7.24722 20.241 7.18016 20.3301C7.10609 20.4242 7.03703 20.5213 6.95095 20.6054Z" fill="#575756"/>
<path d="M18.7146 21.5536C18.8738 21.0251 19.0509 20.4996 19.2201 19.9731C19.1961 19.9651 19.1731 19.9571 19.149 19.9481C18.9699 20.2474 18.7757 20.5417 18.6145 20.847C18.1411 21.7478 17.9109 22.6937 17.9869 23.6866C18.001 23.8638 18.06 24.0519 18.1561 24.2071C18.4033 24.6044 19.0359 24.6565 19.3352 24.2892C19.6825 23.8638 19.8297 23.3663 19.8527 22.8358C19.7536 22.9119 19.6925 23.005 19.6255 23.094C19.5534 23.1881 19.4833 23.2852 19.3973 23.3693C19.068 23.6876 18.6916 23.6265 18.5705 23.2142C18.4994 22.9739 18.4734 22.7107 18.4994 22.4635C18.5305 22.1572 18.6245 21.8539 18.7146 21.5536Z" fill="#575756"/>
<path d="M10.5896 80.218C10.7488 79.6895 10.9259 79.1641 11.0951 78.6376C11.0711 78.6296 11.0481 78.6216 11.024 78.6125C10.8449 78.9118 10.6507 79.2061 10.4895 79.5114C10.0161 80.4122 9.78588 81.3581 9.86195 82.351C9.87596 82.5282 9.93502 82.7164 10.0311 82.8715C10.2783 83.2689 10.9109 83.3209 11.2102 82.9536C11.5575 82.5282 11.7047 82.0307 11.7277 81.5002C11.6286 81.5763 11.5675 81.6694 11.5005 81.7585C11.4284 81.8526 11.3583 81.9497 11.2723 82.0337C10.943 82.352 10.5666 82.291 10.4455 81.8786C10.3744 81.6384 10.3484 81.3751 10.3744 81.1279C10.4055 80.8206 10.4985 80.5173 10.5896 80.218Z" fill="#575756"/>
<path d="M39.3826 86.0598C39.5417 85.5313 39.7189 85.0059 39.8881 84.4794C39.864 84.4714 39.841 84.4634 39.817 84.4543C39.6378 84.7536 39.4437 85.0479 39.2825 85.3532C38.8091 86.254 38.5788 87.1999 38.6549 88.1928C38.6689 88.37 38.728 88.5582 38.8241 88.7133C39.0713 89.1107 39.7039 89.1627 40.0032 88.7954C40.3505 88.37 40.4976 87.8725 40.5207 87.343C40.4216 87.4191 40.3605 87.5122 40.2934 87.6013C40.2214 87.6954 40.1513 87.7924 40.0652 87.8765C39.7359 88.1948 39.3596 88.1338 39.2385 87.7214C39.1674 87.4812 39.1414 87.2179 39.1674 86.9707C39.1984 86.6624 39.2925 86.3591 39.3826 86.0598Z" fill="#575756"/>
<path d="M69.1209 37.167C69.28 36.6385 69.4572 36.113 69.6263 35.5865C69.6023 35.5785 69.5793 35.5705 69.5553 35.5615C69.3761 35.8608 69.1819 36.1551 69.0208 36.4604C68.5473 37.3612 68.3171 38.3071 68.3932 39.3C68.4072 39.4772 68.4663 39.6653 68.5634 39.8205C68.8106 40.2178 69.4432 40.2699 69.7425 39.9026C70.0898 39.4772 70.2369 38.9797 70.2599 38.4492C70.1608 38.5253 70.0998 38.6184 70.0327 38.7074C69.9607 38.8015 69.8906 38.8986 69.8045 38.9827C69.4752 39.301 69.0989 39.2399 68.9777 38.8276C68.9067 38.5873 68.8807 38.3241 68.9067 38.0769C68.9367 37.7696 69.0298 37.4663 69.1209 37.167Z" fill="#575756"/>
<path d="M46.533 33.6635C46.6921 33.135 46.8693 32.6095 47.0385 32.083C47.0144 32.075 46.9914 32.067 46.9674 32.058C46.7882 32.3573 46.594 32.6515 46.4329 32.9568C45.9595 33.8577 45.7292 34.8035 45.8053 35.7965C45.8193 35.9736 45.8784 36.1618 45.9745 36.3169C46.2217 36.7143 46.8543 36.7664 47.1536 36.399C47.5009 35.9736 47.648 35.4762 47.671 34.9457C47.5719 35.0217 47.5109 35.1148 47.4438 35.2039C47.3718 35.298 47.3017 35.3951 47.2156 35.4792C46.8863 35.7975 46.51 35.7364 46.3889 35.324C46.3178 35.0838 46.2918 34.8206 46.3178 34.5733C46.3488 34.267 46.4429 33.9638 46.533 33.6635Z" fill="#575756"/>
<path d="M2.38064 89.2431C2.53979 88.7146 2.71695 88.1891 2.88611 87.6626C2.86209 87.6546 2.83907 87.6466 2.81504 87.6376C2.63588 87.9369 2.4417 88.2311 2.28055 88.5364C1.80711 89.4372 1.57689 90.3831 1.65297 91.376C1.66698 91.5532 1.72603 91.7414 1.82212 91.8965C2.06935 92.2939 2.70194 92.3459 3.00122 91.9786C3.34854 91.5532 3.49568 91.0558 3.5187 90.5253C3.41961 90.6013 3.35855 90.6944 3.29149 90.7835C3.21942 90.8776 3.14935 90.9747 3.06327 91.0588C2.73397 91.377 2.35762 91.316 2.23651 90.9036C2.16544 90.6634 2.13942 90.4001 2.16544 90.1529C2.19647 89.8466 2.28956 89.5433 2.38064 89.2431Z" fill="#575756"/>
<path d="M75.6516 29.0647C75.4404 29.391 75.2222 29.7153 74.983 30.0215C74.6687 30.4239 74.3314 30.8083 73.9961 31.2096C74.0471 31.2307 74.0642 31.2447 74.0752 31.2407C74.1202 31.2257 74.1703 31.2136 74.2073 31.1856C74.962 30.6101 75.6456 29.9665 76.1591 29.1587C76.4774 28.6593 76.5855 28.1128 76.5385 27.5292C76.5184 27.272 76.4244 27.0498 76.1961 26.9167C75.9039 26.7465 75.2332 26.8446 75.013 27.1068C74.7398 27.4351 74.5616 27.8125 74.5706 28.2619C74.8789 28.2119 75.1462 28.1378 75.4154 28.1328C75.7237 28.1268 75.8849 28.361 75.8118 28.6583C75.7778 28.8004 75.7297 28.9445 75.6516 29.0647Z" fill="#575756"/>
<path d="M63.013 21.3637C62.8018 21.69 62.5836 22.0143 62.3443 22.3206C62.03 22.723 61.6927 23.1073 61.3574 23.5087C61.4085 23.5297 61.4255 23.5437 61.4365 23.5397C61.4815 23.5247 61.5316 23.5127 61.5686 23.4847C62.3233 22.9092 63.007 22.2656 63.5204 21.4578C63.8387 20.9583 63.9468 20.4118 63.8998 19.8283C63.8798 19.5711 63.7857 19.3489 63.5575 19.2157C63.2652 19.0456 62.5946 19.1437 62.3744 19.4059C62.1011 19.7342 61.923 20.1116 61.932 20.561C62.2402 20.5109 62.5075 20.4369 62.7767 20.4319C63.085 20.4259 63.2462 20.6601 63.1731 20.9573C63.1401 21.0995 63.091 21.2446 63.013 21.3637Z" fill="#575756"/>
<path d="M79.2376 90.1019C79.0264 90.4282 78.8082 90.7525 78.5689 91.0588C78.2547 91.4611 77.9173 91.8455 77.582 92.2469C77.6331 92.2679 77.6501 92.2819 77.6611 92.2779C77.7061 92.2629 77.7562 92.2509 77.7942 92.2229C78.5489 91.6473 79.2326 91.0037 79.746 90.196C80.0643 89.6965 80.1724 89.15 80.1254 88.5665C80.1054 88.3092 80.0113 88.087 79.7831 87.9539C79.4908 87.7837 78.8202 87.8818 78.6 88.1441C78.3267 88.4724 78.1486 88.8497 78.1576 89.2991C78.4659 89.2491 78.7331 89.175 79.0024 89.17C79.3106 89.164 79.4718 89.3982 79.3987 89.6955C79.3647 89.8376 79.3156 89.9828 79.2376 90.1019Z" fill="#575756"/>
<path d="M76.5473 65.7391C76.5273 65.4818 76.4332 65.2596 76.2049 65.1265C75.9127 64.9563 75.2421 65.0544 75.0219 65.3167C74.7486 65.645 74.5704 66.0223 74.5794 66.4717C74.8877 66.4217 75.155 66.3476 75.4242 66.3426C75.7325 66.3366 75.8937 66.5708 75.8206 66.8681C75.7866 67.0082 75.7375 67.1534 75.6594 67.2735C75.4482 67.5998 75.23 67.9241 74.9908 68.2304C74.6765 68.6328 74.3392 69.0171 74.0039 69.4185C74.055 69.4395 74.072 69.4535 74.083 69.4495C74.128 69.4345 74.1781 69.4225 74.2151 69.3945C74.9698 68.8189 75.6534 68.1753 76.1669 67.3676C76.4862 66.8691 76.5943 66.3226 76.5473 65.7391Z" fill="#575756"/>
<path d="M69.8938 96.1604C69.6826 96.4867 69.4644 96.811 69.2252 97.1172C68.9109 97.5196 68.5736 97.904 68.2383 98.3053C68.2893 98.3264 68.3063 98.3404 68.3174 98.3364C68.3624 98.3214 68.4124 98.3094 68.4505 98.2813C69.2052 97.7058 69.8888 97.0622 70.4023 96.2544C70.7206 95.755 70.8287 95.2085 70.7816 94.6249C70.7616 94.3677 70.6675 94.1455 70.4393 94.0124C70.1471 93.8422 69.4764 93.9403 69.2562 94.2025C68.983 94.5308 68.8048 94.9082 68.8138 95.3576C69.1221 95.3076 69.3893 95.2335 69.6586 95.2285C69.9669 95.2225 70.128 95.4567 70.055 95.754C70.0199 95.8951 69.9719 96.0402 69.8938 96.1604Z" fill="#575756"/>
<path d="M50.9426 88.2733C50.7315 88.5996 50.5132 88.9239 50.274 89.2302C49.9597 89.6325 49.6224 90.0169 49.2871 90.4183C49.3382 90.4393 49.3552 90.4533 49.3662 90.4493C49.4112 90.4343 49.4623 90.4223 49.4993 90.3942C50.254 89.8187 50.9376 89.1751 51.4511 88.3674C51.7694 87.8679 51.8775 87.3214 51.8305 86.7378C51.8105 86.4806 51.7164 86.2584 51.4882 86.1253C51.1959 85.9551 50.5253 86.0532 50.3051 86.3155C50.0318 86.6438 49.8536 87.0211 49.8626 87.4705C50.1709 87.4205 50.4382 87.3464 50.7074 87.3414C51.0157 87.3354 51.1769 87.5696 51.1038 87.8669C51.0698 88.008 51.0207 88.1532 50.9426 88.2733Z" fill="#575756"/>
<path d="M11.8079 97.833C12.5626 97.2574 13.2462 96.6138 13.7597 95.8061C14.078 95.3066 14.1861 94.7601 14.1391 94.1766C14.119 93.9193 14.025 93.6971 13.7967 93.564C13.5045 93.3938 12.8339 93.4919 12.6136 93.7542C12.3404 94.0825 12.1622 94.4598 12.1712 94.9092C12.4795 94.8592 12.7468 94.7851 13.016 94.7801C13.3243 94.7741 13.4855 95.0083 13.4124 95.3056C13.3784 95.4457 13.3293 95.5909 13.2512 95.711C13.04 96.0373 12.8218 96.3616 12.5826 96.6679C12.2683 97.0703 11.931 97.4546 11.5957 97.856C11.6468 97.877 11.6638 97.891 11.6748 97.887C11.7208 97.873 11.7709 97.861 11.8079 97.833Z" fill="#575756"/>
<path d="M46.3665 65.5026C46.1553 65.8289 45.9371 66.1532 45.6979 66.4595C45.3836 66.8619 45.0462 67.2463 44.7109 67.6476C44.762 67.6687 44.779 67.6827 44.79 67.6787C44.8351 67.6636 44.8851 67.6516 44.9221 67.6236C45.6768 67.0481 46.3605 66.4045 46.874 65.5967C47.1922 65.0973 47.3003 64.5508 47.2533 63.9672C47.2333 63.71 47.1392 63.4878 46.911 63.3546C46.6187 63.1845 45.9481 63.2826 45.7279 63.5448C45.4546 63.8731 45.2765 64.2505 45.2855 64.6999C45.5938 64.6498 45.861 64.5758 46.1303 64.5708C46.4385 64.5648 46.5997 64.799 46.5266 65.0963C46.4936 65.2384 46.4445 65.3825 46.3665 65.5026Z" fill="#575756"/>
<path d="M74.6524 47.4467C74.5844 47.4467 74.4983 47.3957 74.3962 47.2926C74.2921 47.1895 74.241 47.1044 74.241 47.0353C74.251 46.4968 74.207 45.9974 74.1089 45.537C74.0599 45.2727 73.9718 45.1396 73.8447 45.1396C73.7666 45.1396 73.7266 45.2817 73.7266 45.566C73.7566 46.8682 73.8597 47.6669 74.0358 47.9602C74.193 48.2054 74.3982 48.3275 74.6524 48.3275C75.1319 48.3275 75.4121 48.0093 75.4902 47.3727C75.7635 47.8331 76.0087 48.0633 76.2239 48.0633C76.4291 48.0633 76.6353 47.9532 76.8405 47.732C77.0456 47.5118 77.1147 47.1915 77.0456 46.7701C76.8405 46.0945 76.6593 45.615 76.5021 45.3308C76.4531 44.9985 76.38 44.8313 76.2819 44.8313C76.2129 44.8313 76.1468 44.9314 76.0838 45.1326C76.0197 45.3338 75.9977 45.4829 76.0167 45.581C76.2619 46.2466 76.4481 46.7221 76.5752 47.0063C76.5162 47.1234 76.4091 47.1585 76.2529 47.1094C76.0868 47.0604 75.9346 46.9232 75.7975 46.698C75.7194 46.5709 75.6113 46.3407 75.4752 46.0074C75.4352 45.7231 75.4111 45.5229 75.4011 45.4048C75.3821 45.1706 75.318 45.0525 75.2109 45.0525C75.0248 45.0525 74.9467 45.2287 74.9767 45.581C74.9857 45.61 75.0298 45.8112 75.1089 46.1836C75.1769 46.5169 75.2119 46.8151 75.2119 47.0794C75.2099 47.3246 75.0238 47.4467 74.6524 47.4467Z" fill="#575756"/>
</svg>
