<svg width="265" height="48" viewBox="0 0 265 48" fill="none" xmlns="http://www.w3.org/2000/svg">
<path d="M69.6295 16.9158C69.6295 17.9663 69.3297 18.5025 68.4528 18.5025H66.1569C64.9121 18.5025 64.3919 17.8882 64.3919 16.5866V13.2222L63.1738 14.3962V16.6808C63.1738 18.6695 64.0901 19.6906 66.1569 19.6906H68.5243C70.1204 19.6906 70.8469 18.8157 70.8469 17.1335V13.5421L69.6289 13.7284V16.9158H69.6295Z" fill="white"/>
<path d="M68.4156 9.89697H67.3164V11.3361H68.4156V9.89697Z" fill="white"/>
<path d="M66.7028 9.89697H65.625V11.3361H66.7028V9.89697Z" fill="white"/>
<path d="M85.4198 16.9155C85.4198 17.9659 85.1053 18.5022 84.2432 18.5022C83.8184 18.5022 83.3396 18.4321 82.8601 18.173C82.9282 17.8985 83.0004 17.5299 83.0004 17.1325V13.8643L81.7803 14.0566V16.9148C81.7803 17.9653 81.4504 18.5015 80.631 18.5015C80.1255 18.5015 79.5091 18.4314 79.0202 18.3399C79.1378 18.024 79.2086 17.6374 79.2086 17.1319V14.3945L77.9918 14.5862V16.9142C77.9918 17.9646 77.692 18.5009 76.8298 18.5009H75.6264H75.4475H74.2461C73.985 18.5009 73.7425 18.4308 73.7425 17.7349V10.8818L72.5098 11.0601V17.8164C72.5098 19.4585 73.4407 19.6882 74.1078 19.6882H75.5837H75.7486H76.9073C77.4028 19.6882 77.8943 19.5954 78.2382 19.3603C79.0583 19.5366 80.0253 19.6882 80.6857 19.6882C81.3001 19.6882 81.8057 19.5226 82.2164 19.1887C82.9276 19.5653 83.6401 19.6882 84.3073 19.6882C85.908 19.6882 86.6473 18.8134 86.6473 17.1312V13.5397L85.4178 13.726V16.9155H85.4198Z" fill="white"/>
<path d="M93.9532 21.1992H92.8613V22.6217H93.9532V21.1992Z" fill="white"/>
<path d="M92.2469 21.1992H91.1523V22.6217H92.2469V21.1992Z" fill="white"/>
<path d="M109.424 16.9158C109.424 17.9663 109.026 18.5025 107.948 18.5025H107.765C107.315 18.5025 106.846 18.4224 106.357 18.1626C106.453 17.8287 106.492 17.5302 106.492 17.1329V13.5414L105.264 13.7277V16.9152C105.264 17.9656 104.965 18.5019 104.1 18.5019C103.66 18.5019 103.199 18.4318 102.703 18.1727C102.799 17.8982 102.841 17.5296 102.841 17.1322V13.8639L101.625 14.0563V16.9145C101.625 17.965 101.336 18.5012 100.479 18.5012C99.998 18.5012 99.3803 18.4311 98.8901 18.3396C98.9977 18.0237 99.0691 17.6371 99.0691 17.1315V14.3942L97.851 14.5859V16.9138C97.851 17.9643 97.5318 18.5006 96.7024 18.5006H95.5137H95.3194H95.1958C94.7711 18.5006 94.2949 18.4304 93.8161 18.1713C93.8849 17.8968 93.9537 17.5282 93.9537 17.1309V13.5394L92.7209 13.7257V16.9132C92.7209 17.9636 92.3677 18.4999 91.2865 18.4999H89.9903C89.7305 18.4999 89.4867 18.4298 89.4867 17.7339V10.8809L88.252 11.0592V17.8154C88.252 19.4575 89.1795 19.6872 89.8527 19.6872H91.4928L91.4908 19.6726C92.1606 19.6585 92.7496 19.5002 93.1744 19.187C93.8696 19.5637 94.5814 19.6866 95.2519 19.6866H95.4436H95.6379H96.7672C97.248 19.6866 97.7255 19.5937 98.0934 19.3734C98.9135 19.5343 99.8865 19.6866 100.544 19.6866C101.131 19.6866 101.664 19.5103 102.062 19.187C102.785 19.5637 103.485 19.6866 104.154 19.6866C104.838 19.6866 105.369 19.521 105.755 19.187C106.452 19.5557 107.162 19.6866 107.82 19.6866H108.189V19.6826C109.866 19.6372 110.654 18.7737 110.654 17.1295V10.8809L109.423 11.0592V16.9158H109.424Z" fill="white"/>
<path d="M112.199 19.69H113.42V10.8843L112.199 11.0619V19.69Z" fill="white"/>
<path d="M122.056 10.8555H120.975V12.2946H122.056V10.8555Z" fill="white"/>
<path d="M120.357 10.8555H119.266V12.2946H120.357V10.8555Z" fill="white"/>
<path d="M133.936 16.9161C133.936 17.9666 133.619 18.5028 132.76 18.5028C132.336 18.5028 131.858 18.4327 131.377 18.1736C131.446 17.8991 131.516 17.5305 131.516 17.1332V13.8649L130.299 14.0572V16.9154C130.299 17.9659 129.971 18.5022 129.147 18.5022C128.642 18.5022 128.028 18.432 127.537 18.3405C127.655 18.0247 127.728 17.638 127.728 17.1325V14.3951L126.508 14.5868V16.9148C126.508 17.9652 126.21 18.5015 125.346 18.5015H124.188H123.967H122.739V13.9864C121.958 13.7574 121.466 13.6599 120.74 13.6599C119.402 13.6599 118.268 14.3945 118.268 16.3111C118.268 18.1616 119.267 18.8461 120.661 18.8461C120.949 18.8461 121.209 18.8147 121.521 18.7613V19.6895H124.1H124.27H125.427C125.923 19.6895 126.412 19.5967 126.753 19.3616C127.575 19.5379 128.546 19.6895 129.203 19.6895C129.819 19.6895 130.321 19.5239 130.734 19.19C131.445 19.5666 132.157 19.6895 132.828 19.6895C134.426 19.6895 135.168 18.8147 135.168 17.1325V13.541L133.935 13.7273V16.9161H133.936ZM121.521 17.4911C121.221 17.5592 120.937 17.5979 120.661 17.5979C120.02 17.5979 119.551 17.3275 119.551 16.3117C119.551 15.2446 120.072 14.9033 120.74 14.9033H120.949C121.152 14.9033 121.302 14.9033 121.521 14.9601V17.4911Z" fill="white"/>
<path d="M136.652 19.69H137.866V10.8843L136.652 11.0619V19.69Z" fill="white"/>
<path d="M141.267 19.1905C141.267 20.5148 140.705 21.1252 139.433 21.1252C139.298 21.1252 138.738 21.0864 138.586 21.0864L139.118 22.2945H139.475C141.542 22.2945 142.487 21.2914 142.487 19.2787V14.96L141.267 15.153V19.1905Z" fill="white"/>
<path d="M145.657 13.896L145.6 15.0446C146.845 15.084 147.267 15.1248 147.525 16.5231L147.923 18.5032H144.438L143.832 19.6905H149.387L148.716 16.1892C148.348 14.1811 147.391 13.896 145.657 13.896Z" fill="white"/>
<path d="M153.121 17.0922C153.121 18.8605 154.157 19.6906 155.525 19.6906C155.795 19.6906 156.045 19.6659 156.264 19.6085C156.166 20.5962 155.605 21.1257 154.443 21.1257C154.306 21.1257 153.721 21.087 153.557 21.087L154.127 22.2951H154.513C156.548 22.2951 157.507 21.2673 157.507 19.298V14.7649C156.74 14.5505 156.291 14.4517 155.591 14.4517C154.292 14.4503 153.121 15.2898 153.121 17.0922ZM156.276 15.7118V18.3797C156.045 18.4472 155.824 18.5026 155.551 18.5026C154.893 18.5026 154.33 18.1052 154.33 17.0768C154.33 16.041 154.977 15.6137 155.618 15.6137C155.893 15.6137 156.057 15.6544 156.276 15.7118Z" fill="white"/>
<path d="M166.076 7.95801H165.09V9.26892H166.076V7.95801Z" fill="white"/>
<path d="M166.981 9.89697H165.887V11.3361H166.981V9.89697Z" fill="white"/>
<path d="M168.181 16.9158C168.181 17.9663 167.882 18.5025 167.008 18.5025H164.71C163.465 18.5025 162.947 17.8882 162.947 16.5866V13.2222L161.729 14.3962V16.6808C161.729 18.6695 162.647 19.6906 164.71 19.6906H167.076C168.676 19.6906 169.399 18.8157 169.399 17.1335V13.5421L168.181 13.7284V16.9158Z" fill="white"/>
<path d="M165.27 9.89697H164.178V11.3361H165.27V9.89697Z" fill="white"/>
<path d="M184.592 21.1992H183.348V22.6711H184.592V21.1992Z" fill="white"/>
<path d="M183.36 16.9161C183.36 17.9666 182.966 18.5028 181.885 18.5028H180.55L180.415 17.5058C180.127 15.2072 178.734 13.5917 176.779 13.5917C176.325 13.5917 175.792 13.6999 175.188 13.921L174.519 15.3594C175.188 14.9033 175.805 14.7017 176.392 14.7017C178.079 14.7017 179.294 16.4353 179.334 18.5028H174.183H174.054H172.803C172.539 18.5028 172.293 18.4327 172.293 17.7368V10.8838L171.062 11.0621V17.8183C171.062 19.4604 171.995 19.6902 172.662 19.6902H174.179H174.302H182.123L182.121 19.6862C183.808 19.6468 184.592 18.7773 184.592 17.1331V13.5417L183.36 13.728V16.9161Z" fill="white"/>
<path d="M188.109 9.29378H186.985C186.672 9.29378 186.504 9.07875 186.504 8.64667C186.504 8.24332 186.721 8.02562 186.985 8.02562C187.148 8.02562 187.383 8.20458 187.639 8.41895L188.021 7.98755C187.708 7.63561 187.37 7.45264 186.985 7.45264C186.463 7.45264 185.889 7.7665 185.889 8.64667C185.889 8.86104 185.959 9.13217 186.025 9.29378H185.587L185.316 9.88345H187.789L188.109 9.29378Z" fill="white"/>
<path d="M194.185 16.9159C194.185 17.9664 193.788 18.5026 192.707 18.5026H192.523C192.087 18.5026 191.62 18.4225 191.127 18.1627C191.195 17.8735 191.266 17.5056 191.266 17.133V10.8843L190.046 11.0626V16.9166C190.046 17.5063 189.964 17.8996 189.734 18.1741L187.695 11.2248L186.475 11.4012C187.187 13.7191 187.871 16.19 188.572 18.504H185.873L186.475 19.6913H188.94C189.623 19.6913 190.142 19.5257 190.512 19.1918C191.208 19.5604 191.92 19.6913 192.592 19.6913H192.962L192.96 19.6806C194.631 19.6412 195.413 18.7738 195.413 17.1336V10.8849L194.185 11.0632V16.9159H194.185Z" fill="white"/>
<path d="M204.509 21.1787H203.416V22.6038H204.509V21.1787Z" fill="white"/>
<path d="M202.798 21.1787H201.707V22.6038H202.798V21.1787Z" fill="white"/>
<path d="M211.746 21.1992H210.504V22.6711H211.746V21.1992Z" fill="white"/>
<path d="M210.519 16.9157C210.519 17.9575 210.122 18.4877 209.065 18.4957C208.537 18.4917 208.025 18.4323 207.888 17.8046L207.395 15.6829C207.066 14.2251 206.29 13.576 204.794 13.576H203.14L203.371 14.4936C203.427 14.6719 203.441 14.7246 203.455 14.7634C203.496 14.9317 203.603 15.2061 204.368 18.3649C203.84 18.463 203.181 18.4917 202.534 18.4917C201.236 18.4917 200.715 17.8733 200.715 16.5471V13.4985L199.475 14.7941V16.67C199.475 18.6787 200.416 19.6798 202.483 19.6798C203.441 19.6798 204.834 19.5669 205.834 19.2784L204.727 14.7246H205.122C205.79 14.7246 206.081 15.1627 206.302 16.2586L206.707 18.0951C207.028 19.6083 208.287 19.6905 209.16 19.6905C209.168 19.6905 209.171 19.6905 209.171 19.6905C209.195 19.6905 209.217 19.6905 209.238 19.6905C210.946 19.6617 211.746 18.7909 211.746 17.1334V13.5419L210.52 13.7283V16.9157H210.519Z" fill="white"/>
<path d="M227.001 16.9161C227.001 17.9666 226.605 18.5028 225.524 18.5028H223.215L224.914 15.1083C224.298 14.2642 223.191 13.7587 222.04 13.7587C221.004 13.7587 219.878 14.1354 218.952 15.0583C219.554 16.1434 220.222 17.3929 220.865 18.5021H218.367H218.24H218.052C217.614 18.5021 217.081 18.4033 216.59 18.1335V14.9594L215.359 15.1524V19.19C215.359 20.5142 214.809 21.1246 213.539 21.1246C213.404 21.1246 212.827 21.0859 212.691 21.0859L213.224 22.294H213.582C215.586 22.294 216.532 21.3463 216.589 19.4297C217.096 19.608 217.601 19.6902 218.107 19.6902H218.362H218.473H225.774V19.6795C227.445 19.6401 228.235 18.7726 228.235 17.1325V10.8838L227.001 11.0621V16.9161ZM220.525 15.3848C220.923 15.1244 221.496 15.0022 222.041 15.0022C222.575 15.0022 223.064 15.125 223.465 15.3401L222.041 18.3412L220.525 15.3848Z" fill="white"/>
<path d="M229.773 19.69H230.994V10.8843L229.773 11.0619V19.69Z" fill="white"/>
<path d="M238.246 12.2109H237.006V13.6988H238.246V12.2109Z" fill="white"/>
<path d="M243.611 10.894L239.944 15.3143H239.983C241.486 15.3143 243.581 15.908 243.581 17.3925V18.5017H240.031H239.902H239.718C239.28 18.5017 238.743 18.4029 238.248 18.1331V14.959L237.019 15.152V19.1896C237.019 20.5138 236.475 21.1242 235.205 21.1242C235.062 21.1242 234.489 21.0855 234.352 21.0855L234.886 22.2935H235.246C237.253 22.2935 238.199 21.3459 238.248 19.4293C238.76 19.6076 239.259 19.6897 239.767 19.6897H240.025H240.135H244.799V17.3925C244.799 15.711 243.581 14.7386 242.281 14.386L244.964 11.3074L243.611 10.894Z" fill="white"/>
<path d="M260.563 16.9165C260.563 17.967 260.175 18.5033 259.081 18.5033H258.903C258.523 18.5033 258.11 18.4638 257.689 18.2575V17.8748C257.689 16.3656 256.895 15.2317 255.142 15.2317C253.818 15.2317 252.792 15.9482 252.616 17.408C252.548 18.164 252.108 18.5039 251.166 18.5039H250.972C250.538 18.5039 250.003 18.4051 249.514 18.1353V14.9612L248.285 15.1542V19.1918C248.285 20.516 247.732 21.1264 246.459 21.1264C246.326 21.1264 245.752 21.0877 245.613 21.0877L246.15 22.2957H246.502C248.512 22.2957 249.457 21.3481 249.514 19.4315C250.019 19.6098 250.526 19.6919 251.031 19.6919H251.399C252.09 19.6813 252.57 19.5938 252.926 19.34C253.037 19.5016 253.185 19.706 253.31 19.8295C253.762 20.321 254.502 20.5728 255.142 20.5728C256.239 20.5728 256.978 20.2282 257.374 19.4222C257.906 19.5998 258.424 19.6919 258.945 19.6919H259.22C260.983 19.6919 261.792 18.8171 261.792 17.1349V10.8862L260.563 11.0645V16.9165H260.563ZM255.142 19.3774H255.076C254.352 19.3774 253.83 18.9393 253.83 17.9136C253.83 17.8441 253.83 17.79 253.844 17.6965C253.844 17.6391 253.873 17.5897 253.873 17.4915C253.965 16.779 254.502 16.3956 255.142 16.3956C255.924 16.3956 256.444 16.8705 256.444 17.9129C256.444 18.95 256.088 19.3774 255.142 19.3774Z" fill="white"/>
<path d="M263.295 11.161V20.0241H264.546V10.978L263.295 11.161Z" fill="white"/>
<path d="M68.756 29.817L69.6369 32.5617C69.89 33.3443 70.0776 33.9721 70.286 34.2813C70.286 34.2813 69.9421 34.3988 69.701 34.3988C68.7213 34.3988 68.4809 33.5547 68.2198 32.7727L68.0442 32.2177H65.4163L65.242 32.7727C64.9796 33.5547 64.7385 34.3988 63.7588 34.3988C63.5184 34.3988 63.1738 34.2813 63.1738 34.2813C63.3795 33.9721 63.5672 33.3443 63.8196 32.5617L64.7064 29.817C65.4056 27.6753 66.5723 26.733 66.7292 26.6309C66.8875 26.733 68.0535 27.6753 68.756 29.817ZM66.0401 30.0934L65.7202 31.178H67.7423L67.4198 30.0934C67.1573 29.2133 66.7299 28.3298 66.7299 28.3298C66.5656 28.5902 66.3025 29.2133 66.0401 30.0934Z" fill="white"/>
<path d="M70.918 33.7213V28.8403C71.2305 28.9979 71.4923 29.0466 71.7207 29.0466C72.1821 29.0466 72.6423 28.8296 73.256 28.8296C73.9972 28.8296 74.6624 29.0994 74.6624 29.8086C74.6624 30.3188 74.267 30.7115 74.1835 30.8344C74.1835 30.1752 73.658 29.8821 73.0543 29.8821C72.703 29.8821 72.3858 29.9742 72.2763 29.9989V34.3991C72.2763 34.3991 70.918 34.3991 70.918 33.7213Z" fill="white"/>
<path d="M78.107 30.5499C78.107 30.1752 77.896 29.8413 77.0933 29.8413C76.2191 29.8413 75.4257 30.1418 75.4257 31.0213C75.1239 30.6133 75.0311 30.2901 75.0311 30.009C75.0311 29.1001 76.2511 28.8296 77.1059 28.8296C78.6406 28.8296 79.45 29.4794 79.45 30.6126V34.4298C79.1808 34.2969 78.9104 34.2682 78.6472 34.2682C78.127 34.2682 77.6061 34.4485 77.0124 34.4485C75.9346 34.4485 74.8828 34.0559 74.8828 32.8151C74.8828 30.8631 77.6796 31.3786 78.107 30.5499ZM78.1364 31.6144C77.896 32.1693 76.2284 31.8594 76.2284 32.7937C76.2284 33.2605 76.5724 33.5003 77.1694 33.5003C77.7223 33.5003 78.1364 33.3106 78.1364 33.3106V31.6144Z" fill="white"/>
<path d="M85.3459 32.6314C85.3459 33.7947 84.4891 34.4479 82.8971 34.4479C82.0303 34.4479 81.456 34.1099 80.6426 34.0745V26.3794C80.7361 26.3794 82.0009 26.368 82.0009 27.1614V28.6286C82.0009 28.893 81.9168 29.2369 81.9168 29.2369C81.9168 29.2369 82.3929 28.8296 83.2584 28.8296C84.3783 28.8296 85.3453 29.5081 85.3453 30.6313V32.6314H85.3459ZM82.0016 33.2945C82.1365 33.3526 82.4043 33.4608 82.8757 33.4608C83.7399 33.4608 83.9903 33.1309 83.9903 32.4778V30.7889C83.9903 30.1111 83.6237 29.8166 83.1288 29.8166C82.5659 29.8166 82.0016 30.1745 82.0016 30.6868V33.2945Z" fill="white"/>
<path d="M90.817 29.4538V31.7264C90.817 32.9792 91.5809 33.3765 92.6147 33.3765C93.6244 33.3765 94.8392 33.1661 95.1657 32.1257C96.126 33.8046 94.343 34.4477 92.6147 34.4477C90.9399 34.4477 89.4199 33.7805 89.4199 31.8839V29.3069C89.4199 27.415 90.9399 26.7432 92.6147 26.7432C94.3423 26.7432 96.2195 27.3268 95.1657 29.0651C94.906 28.1128 93.6244 27.8284 92.6147 27.8284C91.5809 27.8284 90.817 28.215 90.817 29.4538Z" fill="white"/>
<path d="M96.4121 32.6114V30.6667C96.4121 29.5174 97.2228 28.8296 98.7134 28.8296C100.206 28.8296 100.918 29.5174 100.918 30.5599C100.918 31.4487 100.394 32.2681 98.7481 32.2681C98.4135 32.2681 98.0796 32.2087 97.7684 32.0878V32.4605C97.7684 33.0835 98.1411 33.4088 98.9244 33.4088C99.9562 33.4088 100.655 32.9707 100.665 32.3423C100.887 32.6575 100.987 32.9379 100.987 33.2017C100.987 33.949 100.125 34.4485 98.9244 34.4485C97.341 34.4479 96.4121 33.7594 96.4121 32.6114ZM97.7691 31.1229C97.8713 31.1429 98.2379 31.217 98.5491 31.217C99.299 31.217 99.5622 30.9819 99.5622 30.5599C99.5622 30.1218 99.3211 29.8173 98.6753 29.8173C97.9648 29.8173 97.7691 30.1859 97.7691 30.8203V31.1229Z" fill="white"/>
<path d="M105.385 30.711C105.385 30.1507 105.122 29.8408 104.383 29.8408C103.85 29.8408 103.393 29.9844 103.393 29.9844V34.3986C103.393 34.3986 102.035 34.3986 102.035 33.7208V28.8291C102.035 28.8291 102.441 29.0461 102.975 29.0461C103.484 29.0461 103.965 28.8291 104.529 28.8291C105.603 28.8291 106.738 29.1937 106.738 30.5494V34.3986C106.738 34.3986 105.385 34.3799 105.385 33.7208V30.711Z" fill="white"/>
<path d="M108.006 27.9414C108.28 27.9414 109.351 27.9414 109.351 28.8296V29.2029H111.478C111.478 29.2029 111.468 30.224 110.707 30.224H109.351V32.3229C109.351 33.0194 109.548 33.4268 110.341 33.4268C110.947 33.4268 111.573 33.1663 111.573 32.3309C111.856 32.6421 112.007 32.9366 112.007 33.2605C112.007 33.8996 111.408 34.4479 110.154 34.4479C108.786 34.4479 108.006 33.7761 108.006 32.6114V27.9414Z" fill="white"/>
<path d="M112.533 32.6114V30.6667C112.533 29.5174 113.343 28.8296 114.836 28.8296C116.329 28.8296 117.036 29.5174 117.036 30.5599C117.036 31.4487 116.515 32.2681 114.87 32.2681C114.536 32.2681 114.205 32.2087 113.89 32.0878V32.4605C113.89 33.0835 114.264 33.4088 115.045 33.4088C116.077 33.4088 116.778 32.9707 116.788 32.3423C117.009 32.6575 117.109 32.9379 117.109 33.2017C117.109 33.949 116.245 34.4485 115.044 34.4485C113.459 34.4479 112.533 33.7594 112.533 32.6114ZM113.891 31.1229C113.994 31.1429 114.358 31.217 114.674 31.217C115.423 31.217 115.681 30.9819 115.681 30.5599C115.681 30.1218 115.443 29.8173 114.795 29.8173C114.088 29.8173 113.891 30.1859 113.891 30.8203V31.1229Z" fill="white"/>
<path d="M118.158 33.7213V28.8403C118.47 28.9979 118.733 29.0466 118.959 29.0466C119.419 29.0466 119.877 28.8296 120.494 28.8296C121.232 28.8296 121.901 29.0994 121.901 29.8086C121.901 30.3188 121.506 30.7115 121.424 30.8344C121.424 30.1752 120.902 29.8821 120.297 29.8821C119.944 29.8821 119.628 29.9742 119.517 29.9989V34.3991C119.517 34.3991 118.158 34.3991 118.158 33.7213Z" fill="white"/>
<path d="M125.037 27.8716C125.037 26.733 126.277 26.0352 127.525 26.0352C128.664 26.0352 129.515 26.4178 129.515 27.0769C129.515 27.3414 129.354 27.6032 129.019 27.8716C129.019 27.3267 128.297 27.0769 127.581 27.0769C126.934 27.0769 126.38 27.4743 126.38 28.0987V29.2019H128.248C128.248 29.2019 128.236 30.223 127.475 30.223H126.38V34.3981C126.38 34.3981 125.037 34.3981 125.037 33.7203V27.8716Z" fill="white"/>
<path d="M133.745 32.6114C133.745 33.76 132.945 34.4479 131.235 34.4479C129.521 34.4479 128.721 33.76 128.721 32.6114V30.6667C128.721 29.5174 129.521 28.8296 131.235 28.8296C132.945 28.8296 133.745 29.5174 133.745 30.6667V32.6114ZM132.392 30.8197C132.392 30.1852 132.193 29.8166 131.235 29.8166C130.273 29.8166 130.076 30.1852 130.076 30.8197V32.4591C130.076 33.0922 130.273 33.4608 131.235 33.4608C132.193 33.4608 132.392 33.0922 132.392 32.4591V30.8197Z" fill="white"/>
<path d="M134.898 33.7213V28.8403C135.208 28.9979 135.473 29.0466 135.701 29.0466C136.158 29.0466 136.617 28.8296 137.233 28.8296C137.974 28.8296 138.643 29.0994 138.643 29.8086C138.643 30.3188 138.242 30.7115 138.163 30.8344C138.163 30.1752 137.638 29.8821 137.034 29.8821C136.678 29.8821 136.366 29.9742 136.251 29.9989V34.3991C136.252 34.3991 134.898 34.3991 134.898 33.7213Z" fill="white"/>
<path d="M145.112 30.9915C146.387 31.7268 146.843 33.3435 147.499 34.3059C147.499 34.3059 147.087 34.408 146.866 34.408C146.49 34.408 145.925 34.3059 145.625 33.7302C145.068 32.6898 144.589 31.4911 143.265 31.1137V34.4287C143.265 34.4287 141.867 34.408 141.867 33.7509V26.8691H144.279C145.865 26.8691 147.001 27.3259 147.001 28.7544V29.0636C147.001 30.1948 146.229 30.9915 145.112 30.9915ZM143.265 27.9016V30.0613H144.361C145.282 30.0613 145.6 29.6746 145.6 28.9126C145.6 28.1406 145.176 27.9009 144.279 27.9009H143.265V27.9016Z" fill="white"/>
<path d="M148.021 32.6114V30.6667C148.021 29.5174 148.838 28.8296 150.33 28.8296C151.821 28.8296 152.528 29.5174 152.528 30.5599C152.528 31.4487 152.007 32.2681 150.361 32.2681C150.031 32.2681 149.696 32.2087 149.38 32.0878V32.4605C149.38 33.0835 149.756 33.4088 150.536 33.4088C151.57 33.4088 152.267 32.9707 152.277 32.3423C152.5 32.6575 152.603 32.9379 152.603 33.2017C152.603 33.949 151.737 34.4485 150.536 34.4485C148.953 34.4479 148.021 33.7594 148.021 32.6114ZM149.38 31.1229C149.483 31.1429 149.849 31.217 150.163 31.217C150.914 31.217 151.175 30.9819 151.175 30.5599C151.175 30.1218 150.937 29.8173 150.286 29.8173C149.579 29.8173 149.38 30.1859 149.38 30.8203V31.1229Z" fill="white"/>
<path d="M153.334 30.5599C153.334 29.4052 154.159 28.8296 155.643 28.8296C156.9 28.8296 157.76 29.1835 157.76 29.8821C157.76 30.1505 157.644 30.4697 157.359 30.8197C157.359 30.1746 156.622 29.8614 155.742 29.8614C155.014 29.8614 154.669 30.0477 154.669 30.4998C154.669 31.5115 158.038 30.2894 158.038 32.7723C158.038 33.8041 157.244 34.4472 155.641 34.4472C154.323 34.4472 153.419 34.0545 153.419 33.3333C153.419 33.0388 153.556 32.7296 153.908 32.3503C153.93 33.2345 154.861 33.4355 155.642 33.4355C156.079 33.4355 156.715 33.2785 156.715 32.7189C156.716 31.5509 153.334 32.8217 153.334 30.5599Z" fill="white"/>
<path d="M158.877 32.6114V30.6667C158.877 29.5174 159.69 28.8296 161.18 28.8296C162.673 28.8296 163.383 29.5174 163.383 30.5599C163.383 31.4487 162.862 32.2681 161.212 32.2681C160.884 32.2681 160.546 32.2087 160.235 32.0878V32.4605C160.235 33.0835 160.611 33.4088 161.392 33.4088C162.424 33.4088 163.123 32.9707 163.133 32.3423C163.355 32.6575 163.457 32.9379 163.457 33.2017C163.457 33.949 162.593 34.4485 161.392 34.4485C159.808 34.4479 158.877 33.7594 158.877 32.6114ZM160.235 31.1229C160.338 31.1429 160.705 31.217 161.015 31.217C161.765 31.217 162.028 30.9819 162.028 30.5599C162.028 30.1218 161.786 29.8173 161.141 29.8173C160.431 29.8173 160.235 30.1859 160.235 30.8203V31.1229Z" fill="white"/>
<path d="M167.538 30.5499C167.538 30.1752 167.327 29.8413 166.522 29.8413C165.65 29.8413 164.857 30.1418 164.857 31.0213C164.555 30.6133 164.459 30.2901 164.459 30.009C164.459 29.1001 165.683 28.8296 166.535 28.8296C168.068 28.8296 168.881 29.4794 168.881 30.6126V34.4298C168.609 34.2969 168.34 34.2682 168.079 34.2682C167.559 34.2682 167.032 34.4485 166.443 34.4485C165.37 34.4485 164.314 34.0559 164.314 32.8151C164.314 30.8631 167.112 31.3786 167.538 30.5499ZM167.566 31.6144C167.327 32.1693 165.658 31.8594 165.658 32.7937C165.658 33.2605 166.002 33.5003 166.596 33.5003C167.148 33.5003 167.565 33.3106 167.565 33.3106V31.6144H167.566Z" fill="white"/>
<path d="M170.076 33.7213V28.8403C170.387 28.9979 170.649 29.0466 170.879 29.0466C171.337 29.0466 171.792 28.8296 172.41 28.8296C173.151 28.8296 173.819 29.0994 173.819 29.8086C173.819 30.3188 173.423 30.7115 173.339 30.8344C173.339 30.1752 172.815 29.8821 172.212 29.8821C171.859 29.8821 171.541 29.9742 171.43 29.9989V34.3991C171.431 34.3991 170.076 34.3991 170.076 33.7213Z" fill="white"/>
<path d="M178.601 33.2051C178.601 33.9724 177.723 34.4479 176.533 34.4479C175.055 34.4479 174.123 33.7761 174.123 32.6114V30.6667C174.123 29.5281 174.992 28.8296 176.482 28.8296C177.292 28.8296 178.464 29.1107 178.464 30.0276C178.464 30.3081 178.337 30.6527 178.056 31.0601C178.056 30.216 177.379 29.848 176.717 29.848C175.97 29.848 175.471 30.0624 175.471 30.9372V32.3423C175.471 33.0935 175.856 33.4188 176.693 33.4188C177.6 33.4188 178.267 32.97 178.277 32.3516C178.496 32.6755 178.601 32.9613 178.601 33.2051Z" fill="white"/>
<path d="M180.894 34.3993C180.894 34.3993 179.543 34.3993 179.543 33.7215V26.3796C179.611 26.3796 180.894 26.3449 180.894 27.1616V28.6087C180.894 28.8752 180.812 29.2372 180.812 29.2372C180.812 29.2372 181.312 28.8298 182.158 28.8298C183.274 28.8298 184.244 29.4154 184.244 30.6315V34.3993C184.244 34.3993 182.887 34.3806 182.887 33.7215V30.7891C182.887 30.1113 182.521 29.8168 182.021 29.8168C181.46 29.8168 180.894 30.1747 180.894 30.687V34.3993Z" fill="white"/>
<path d="M190.821 31.1148C190.09 31.197 189.765 31.5963 189.765 32.218C189.765 32.8671 190.193 33.3687 191.194 33.3687C192.234 33.3687 193.356 33.0822 193.356 32.0324C194.476 33.3099 193.479 34.4479 191.194 34.4479C189.507 34.4479 188.369 33.6284 188.369 32.3756V32.0665C188.369 31.3993 188.746 30.652 189.422 30.4691C188.815 30.3034 188.471 29.6403 188.471 28.9972V28.7368C188.471 27.484 189.611 26.7427 191.194 26.7427C193.377 26.7427 194.45 27.93 193.249 29.2122C193.26 28.0916 192.132 27.8279 191.194 27.8279C190.298 27.8279 189.87 28.26 189.87 28.8924C189.87 29.675 190.133 29.9982 190.863 30.0477V28.7902C190.863 28.7902 192.083 28.8102 192.083 29.478V30.061H193.164C193.164 30.061 193.157 31.1135 192.39 31.1135H192.083V31.6764C192.083 32.1432 192.266 32.5473 192.266 32.5473C190.777 32.3857 190.862 31.6437 190.862 31.4274V31.1135H190.821V31.1148Z" fill="white"/>
<path d="M197.844 26.8701H199.941C201.608 26.8701 203.081 27.3075 203.081 29.2963V29.4886C203.081 31.4279 201.608 31.9394 199.941 31.9394H199.24V34.429C199.24 34.429 197.844 34.429 197.844 33.7512V26.8701ZM199.24 27.9019V30.9077H199.941C200.96 30.9077 201.683 30.7154 201.683 29.3944C201.683 28.1617 200.96 27.9019 199.941 27.9019H199.24Z" fill="white"/>
<path d="M209.042 32.6114C209.042 33.76 208.236 34.4479 206.523 34.4479C204.813 34.4479 204.012 33.76 204.012 32.6114V30.6667C204.012 29.5174 204.812 28.8296 206.523 28.8296C208.236 28.8296 209.042 29.5174 209.042 30.6667V32.6114ZM207.683 30.8197C207.683 30.1852 207.486 29.8166 206.523 29.8166C205.562 29.8166 205.367 30.1852 205.367 30.8197V32.4591C205.367 33.0922 205.562 33.4608 206.523 33.4608C207.486 33.4608 207.683 33.0922 207.683 32.4591V30.8197Z" fill="white"/>
<path d="M210.137 26.3545C210.218 26.3545 211.492 26.3685 211.492 27.0377V32.4242C211.492 32.9898 211.502 33.9802 212.231 33.9802C211.95 34.3588 211.625 34.3982 211.369 34.3982C210.525 34.3982 210.137 33.6363 210.137 32.7581V26.3545Z" fill="white"/>
<path d="M212.801 28.885C212.881 28.885 214.156 28.893 214.156 29.5629V34.3991C214.156 34.3991 212.801 34.3991 212.801 33.7213V28.885ZM212.826 26.9497H213.747C213.915 26.9497 214.132 27.1113 214.132 27.2529V28.1231H213.213C212.998 28.1231 212.826 27.9661 212.826 27.8179V26.9497Z" fill="white"/>
<path d="M219.776 33.2051C219.776 33.9724 218.898 34.4479 217.71 34.4479C216.228 34.4479 215.299 33.7761 215.299 32.6114V30.6667C215.299 29.5281 216.167 28.8296 217.658 28.8296C218.469 28.8296 219.64 29.1107 219.64 30.0276C219.64 30.3081 219.517 30.6527 219.23 31.0601C219.23 30.216 218.554 29.848 217.9 29.848C217.146 29.848 216.649 30.0624 216.649 30.9372V32.3423C216.649 33.0935 217.033 33.4188 217.867 33.4188C218.775 33.4188 219.439 32.97 219.451 32.3516C219.668 32.6755 219.776 32.9613 219.776 33.2051Z" fill="white"/>
<path d="M221.813 29.7247L222.023 31.1331C222.212 32.4253 222.916 32.9168 222.928 32.9168C222.916 32.9168 223.682 32.3759 223.843 31.1331L224.034 29.7347C224.148 28.8926 225.451 28.8853 225.451 28.8853L225.223 30.9468C225.066 32.3131 224.202 33.3449 223.573 33.8264L223.167 34.1396C222.5 34.6598 221.978 35.0985 221.978 35.7957C221.978 36.1937 222.126 36.5477 222.199 36.7026C222.023 36.7974 221.83 36.8509 221.647 36.8509C221.155 36.8509 220.685 36.5029 220.685 35.6775C220.685 34.7339 221.354 34.1783 222.134 33.6047C221.467 33.2053 220.783 32.1555 220.647 30.9475L220.414 28.8859C220.415 28.8853 221.688 28.8605 221.813 29.7247Z" fill="white"/>
<path d="M231.986 26.7432C233.49 26.7432 234.729 27.0377 234.729 28.0394C234.729 28.3192 234.612 28.6778 234.381 29.0892C234.381 28.0527 233.155 27.8277 231.994 27.8277C231.089 27.8277 230.429 28.0921 230.429 28.8007C230.429 30.5183 234.974 28.8287 234.974 32.1337C234.974 33.677 233.687 34.4423 231.912 34.4423C230.608 34.4423 229.16 34.1131 229.16 33.1301C229.16 32.8656 229.275 32.5364 229.535 32.1684C229.535 33.1762 230.903 33.3678 231.912 33.3678C232.997 33.3678 233.529 32.9364 233.529 32.2279C233.529 30.3033 228.994 31.9574 228.994 28.9583C228.995 27.2674 230.335 26.7432 231.986 26.7432Z" fill="white"/>
<path d="M236.037 27.9414C236.305 27.9414 237.383 27.9414 237.383 28.8296V29.2029H239.508C239.508 29.2029 239.5 30.224 238.738 30.224H237.383V32.3229C237.383 33.0194 237.58 33.4268 238.374 33.4268C238.979 33.4268 239.607 33.1663 239.607 32.3309C239.889 32.6421 240.043 32.9366 240.043 33.2605C240.043 33.8996 239.435 34.4479 238.185 34.4479C236.818 34.4479 236.038 33.7761 236.038 32.6114V27.9414H236.037Z" fill="white"/>
<path d="M242.026 32.5679C242.026 33.1269 242.284 33.4361 243.029 33.4361C243.556 33.4361 244.016 33.2945 244.016 33.2945V28.8843C244.016 28.8843 245.371 28.8843 245.371 29.5621V34.4471C245.371 34.4471 244.966 34.2321 244.434 34.2321C243.923 34.2321 243.443 34.4471 242.882 34.4471C241.807 34.4471 240.67 34.0852 240.67 32.7295V28.8843C240.67 28.8843 242.026 28.903 242.026 29.5621V32.5679H242.026Z" fill="white"/>
<path d="M249.874 26.3794C249.968 26.3794 251.231 26.368 251.231 27.1614V34.4479C250.96 34.317 250.678 34.2716 250.393 34.2716C249.84 34.2716 249.308 34.4479 248.874 34.4479C247.384 34.4479 246.527 33.7947 246.527 32.6314V30.6313C246.527 29.5074 247.494 28.8296 248.616 28.8296C249.476 28.8296 249.955 29.2369 249.955 29.2369C249.955 29.2369 249.874 28.8924 249.874 28.6286V26.3794ZM249.874 30.6868C249.874 30.1745 249.308 29.8166 248.746 29.8166C248.25 29.8166 247.881 30.1111 247.881 30.7889V32.4778C247.881 33.1309 248.133 33.4608 248.997 33.4608C249.466 33.4608 249.874 33.334 249.874 33.334V30.6868Z" fill="white"/>
<path d="M252.484 28.885C252.571 28.885 253.84 28.893 253.84 29.5629V34.3991C253.84 34.3991 252.484 34.3991 252.484 33.7213V28.885ZM252.517 26.9497H253.43C253.598 26.9497 253.817 27.1113 253.817 27.2529V28.1231H252.898C252.681 28.1231 252.517 27.9661 252.517 27.8179V26.9497Z" fill="white"/>
<path d="M254.99 32.6114V30.6667C254.99 29.5174 255.801 28.8296 257.291 28.8296C258.786 28.8296 259.49 29.5174 259.49 30.5599C259.49 31.4487 258.97 32.2681 257.324 32.2681C256.99 32.2681 256.652 32.2087 256.345 32.0878V32.4605C256.345 33.0835 256.714 33.4088 257.499 33.4088C258.532 33.4088 259.228 32.9707 259.24 32.3423C259.462 32.6575 259.564 32.9379 259.564 33.2017C259.564 33.949 258.7 34.4485 257.499 34.4485C255.912 34.4479 254.99 33.7594 254.99 32.6114ZM256.346 31.1229C256.448 31.1429 256.809 31.217 257.128 31.217C257.878 31.217 258.138 30.9819 258.138 30.5599C258.138 30.1218 257.899 29.8173 257.247 29.8173C256.543 29.8173 256.346 30.1859 256.346 30.8203V31.1229Z" fill="white"/>
<path d="M260.303 30.5599C260.303 29.4052 261.122 28.8296 262.608 28.8296C263.867 28.8296 264.721 29.1835 264.721 29.8821C264.721 30.1505 264.608 30.4697 264.328 30.8197C264.328 30.1746 263.584 29.8614 262.71 29.8614C261.976 29.8614 261.636 30.0477 261.636 30.4998C261.636 31.5115 265 30.2894 265 32.7723C265 33.8041 264.212 34.4472 262.607 34.4472C261.292 34.4472 260.384 34.0545 260.384 33.3333C260.384 33.0388 260.518 32.7296 260.87 32.3503C260.891 33.2345 261.823 33.4355 262.607 33.4355C263.043 33.4355 263.677 33.2785 263.677 32.7189C263.677 31.5509 260.303 32.8217 260.303 30.5599Z" fill="white"/>
<path d="M37.8782 29.5684C38.0187 29.5684 38.1689 29.4132 38.329 29.1021C38.4997 28.7975 38.5944 28.537 38.6401 28.332C38.3772 28.1671 38.124 27.9564 37.8782 27.7212C37.6626 27.9768 37.4054 28.1965 37.0918 28.4014C37.1702 28.6726 37.2821 28.9322 37.4528 29.1829C37.6234 29.4377 37.7639 29.5684 37.8782 29.5684Z" fill="white"/>
<path d="M31.7506 24.3707C31.74 24.3511 31.718 24.2858 31.6886 24.1649C31.6478 24.04 31.5481 23.8497 31.3774 23.5949C31.21 23.3295 31.0647 23.2046 30.9495 23.2046C30.8197 23.2046 30.6719 23.3695 30.4816 23.7101C30.3387 23.9951 30.2391 24.2311 30.1934 24.436C30.4743 24.6165 30.7323 24.8272 30.9691 25.0624C31.2027 24.797 31.4575 24.57 31.7506 24.3707Z" fill="white"/>
<path d="M48.0308 0H3.58558C1.71226 0 0.193359 1.52219 0.193359 3.39551V44.6053C0.193359 46.4778 1.71308 48 3.58558 48H48.0308C49.8984 48 51.4222 46.4778 51.4222 44.6053V3.39551C51.4222 1.52219 49.8984 0 48.0308 0ZM38.8398 3.90099C39.3102 4.35176 39.7332 4.61144 40.1137 4.70208C40.4893 4.80743 40.892 4.85724 41.3272 4.86786L40.7972 5.03772V24.2111H38.8398V3.90099ZM16.7576 6.03317C16.9381 5.85352 17.1455 5.75797 17.3881 5.75797C17.6257 5.76287 17.8209 5.84781 17.9891 6.02338C18.1516 6.19895 18.2341 6.41372 18.2341 6.68484C18.2341 6.94452 18.1442 7.16501 17.9785 7.3463C17.798 7.52595 17.5979 7.61088 17.357 7.61088C17.1194 7.61088 16.9063 7.52107 16.7364 7.34141C16.5616 7.15522 16.4759 6.94043 16.4759 6.69463C16.4767 6.44475 16.5698 6.22426 16.7576 6.03317ZM13.946 17.9762C14.4221 18.3265 14.9129 18.4564 15.4053 18.3568C15.9067 18.2416 16.3093 17.9509 16.6049 17.4658C16.8025 17.1449 16.9226 16.699 16.9577 16.1486V14.3415C16.9699 13.6996 16.8679 11.7266 16.6498 11.5568C16.4269 11.3918 16.1141 11.2865 15.7132 11.2318C16.146 11.1615 16.6874 10.9402 17.3333 10.5801C17.9866 10.2151 18.4823 9.71449 18.8286 9.07834V13.9503H23.7879H23.8222L32.4571 13.9552V11.2473H27.3328C26.1234 11.1313 25.2594 10.7614 24.7433 10.1301C24.2125 9.49971 23.9822 8.6088 24.0525 7.46716C24.1292 6.32063 24.4453 5.45827 24.9932 4.87765C25.4366 4.40156 25.9772 4.08146 26.615 3.91078C27.6121 3.6952 28.3928 3.75072 28.984 4.08635C29.1645 4.17128 29.2592 4.21131 29.2592 4.21131C29.2592 4.21131 29.4519 4.39178 29.8431 4.73231C30.231 5.07774 30.4988 5.42316 30.6311 5.76941C30.7691 6.06992 30.9121 6.49048 31.0648 7.03598C31.215 7.23115 31.4029 7.29159 31.6282 7.21728C31.8471 7.09234 32.0235 7.06621 32.1746 7.14705C32.3395 7.22708 32.4571 7.3169 32.5151 7.44102C32.5665 7.57168 32.5649 7.71215 32.4947 7.87221C32.3379 8.12781 32.1215 8.19723 31.8471 8.06657C31.6282 7.93183 31.549 7.74644 31.6062 7.50146C31.1832 7.6117 30.8173 7.56108 30.4923 7.35121L30.36 7.25075C30.2294 7.42632 29.8586 7.52595 29.2551 7.58148C28.6925 7.63619 28.2515 7.57088 27.911 7.38632C28.4941 7.33569 28.9301 7.22627 29.2551 7.03518C29.4454 6.94535 29.6577 6.72485 29.8766 6.37861C29.9868 6.19895 29.9869 6.04379 29.8987 5.91313C29.6079 5.45256 29.14 5.22229 28.4932 5.2329C28.0637 5.2378 27.6725 5.29822 27.3173 5.41827C26.9572 5.52361 26.6085 5.84373 26.2631 6.36963C25.9152 6.89635 25.8474 7.51616 26.0655 8.22744C26.2761 8.90278 26.762 9.32416 27.5256 9.4638L32.582 9.45889C33.8388 9.45889 34.4603 10.0648 34.4398 11.2718L34.4374 16.049H23.8214H23.7871H18.8571C18.8571 17.2053 18.5999 18.0669 18.0985 18.6377C17.5106 19.1946 16.8319 19.4739 16.0602 19.4739C14.4907 19.5041 13.5565 18.6736 13.2764 16.9758C13.4226 17.4405 13.6431 17.7753 13.946 17.9762ZM3.91631 43.4383V33.8039L9.08143 38.6162L3.91631 43.4383ZM3.91631 33.434V23.8044L9.08143 28.6176L3.91631 33.434ZM3.91631 23.4394V13.8049L9.08143 18.6222L3.91631 23.4394ZM3.91631 13.4399V3.80544L9.08143 8.62269L3.91631 13.4399ZM13.8758 26.2232C14.3445 26.5785 14.8353 26.6936 15.3359 26.5989C15.834 26.4936 16.2293 26.1987 16.5355 25.712C16.7282 25.3911 16.8434 24.9461 16.8858 24.3908V22.5877C16.8981 21.9474 16.7936 21.5424 16.578 21.3807C16.3526 21.2157 16.0398 21.1006 15.6397 21.0508C16.07 20.9757 16.609 20.7609 17.2648 20.3999C17.9156 20.0292 18.4039 19.5286 18.7518 18.8974V22.2022H19.5684H19.588L29.1694 22.1124C28.5667 21.7261 28.5912 21.3415 29.2241 20.9667C29.8946 20.5853 30.2914 20.44 30.4139 20.5306C30.6164 20.6311 30.8059 20.7707 30.9897 20.9561C31.34 20.7217 31.5752 20.5755 31.6903 20.5306C31.8349 20.4898 32.2382 20.6555 32.912 21.0255C33.5522 21.3962 33.5122 21.7523 32.796 22.1124H34.8939H34.9837H35.8951V5.05242L35.3316 4.88174C35.6403 4.88174 35.9024 4.85234 36.1205 4.78701C36.1809 4.7715 36.2389 4.7568 36.3066 4.74211C36.3744 4.73149 36.434 4.70127 36.4896 4.66697C36.572 4.64655 36.6766 4.60655 36.8072 4.55592C36.9346 4.50611 37.0832 4.44486 37.2637 4.36565L37.8697 3.92058V24.2103H34.9853V24.216H33.8886C33.8935 24.3148 33.8936 24.461 33.8936 24.6455C33.9687 25.0212 34.1467 25.2759 34.4497 25.4164C33.2909 25.7373 32.1468 26.5327 31.0297 27.805C29.8456 26.5376 28.7709 25.752 27.7942 25.4164C28.0629 25.2515 28.2123 25.0007 28.2532 24.6455V24.216L19.5831 24.305V24.2952H18.7845C18.7845 25.4515 18.5313 26.3139 18.0258 26.8896C17.4346 27.4343 16.7486 27.716 15.9851 27.716C14.4131 27.7552 13.4912 26.9182 13.2062 25.2123C13.3474 25.6826 13.5679 26.0232 13.8758 26.2232ZM13.9436 35.1505C14.4221 35.5065 14.9121 35.6266 15.4053 35.5261C15.9116 35.4216 16.3044 35.1211 16.6074 34.6401C16.8026 34.3192 16.9177 33.8782 16.9479 33.3237V31.5206C16.97 30.869 16.863 30.4746 16.6474 30.3047C16.4244 30.1389 16.1141 30.0336 15.7107 29.9789C16.1411 29.9086 16.6792 29.689 17.3333 29.3231C17.9793 28.9622 18.4823 28.4616 18.8302 27.8254V31.1303H34.1475H34.1524H35.3945L36.1376 30.744C35.379 29.8188 35.0033 28.9769 35.0384 28.2158C34.9715 27.8753 34.8057 27.6099 34.5427 27.4245C35.717 27.124 36.8538 26.3376 37.9333 25.1004C39.1615 26.358 40.2362 27.1281 41.1345 27.4245C40.8919 27.6099 40.7588 27.8753 40.7164 28.2158C40.7719 28.9973 40.4306 29.8327 39.6899 30.7244L40.4257 31.1295H41.4603H41.5126H42.464L42.4688 4.95605L41.9087 4.78131C42.2084 4.78131 42.4688 4.74618 42.6942 4.68085C42.7547 4.67105 42.8143 4.65635 42.8796 4.63512C42.9441 4.62532 43.0021 4.59512 43.0625 4.56001C43.1401 4.54122 43.2463 4.50528 43.3761 4.45546C43.5011 4.39993 43.6562 4.33462 43.8318 4.2603L44.4295 3.81444V33.2274H41.5134L38.8847 33.238L37.9481 32.6321L37.0244 33.2274H34.1524H34.1475H18.8596C18.8596 34.3845 18.604 35.246 18.1059 35.8111C17.5073 36.3673 16.8319 36.6433 16.0602 36.6433C14.4858 36.6882 13.5638 35.8512 13.2715 34.1493C13.4226 34.6148 13.643 34.9504 13.9436 35.1505ZM17.1953 42.9223C17.0271 43.0978 16.8148 43.1885 16.5821 43.1885C16.3371 43.1885 16.1337 43.0978 15.9639 42.9116C15.7916 42.732 15.7009 42.5115 15.7009 42.2559C15.7009 42.0101 15.7932 41.8002 15.981 41.6149C16.1689 41.4295 16.3689 41.3347 16.6074 41.3347C16.8499 41.3347 17.0475 41.4295 17.2084 41.5952C17.3783 41.7749 17.4591 41.9905 17.4591 42.2559C17.4591 42.5164 17.3685 42.7369 17.1953 42.9223ZM19.2532 42.9223C19.076 43.0978 18.8751 43.1885 18.635 43.1885C18.3974 43.1885 18.1973 43.0978 18.0193 42.9116C17.8421 42.732 17.7563 42.5115 17.7563 42.2559C17.7563 42.0101 17.8486 41.8002 18.0389 41.6149C18.2194 41.4295 18.4317 41.3347 18.6677 41.3347C18.9078 41.3347 19.1005 41.4295 19.2655 41.5952C19.4255 41.7749 19.5105 41.9905 19.5105 42.2559C19.5113 42.5164 19.4214 42.7369 19.2532 42.9223ZM45.2225 43.0031C45.0518 43.1893 44.846 43.2734 44.6084 43.2734C44.3659 43.2734 44.1625 43.1885 43.9951 43.0031C43.8114 42.8177 43.7297 42.6021 43.7297 42.3465C43.7297 42.1007 43.8228 41.886 44.0073 41.7063C44.1935 41.5161 44.401 41.4303 44.641 41.4303C44.8787 41.4303 45.0812 41.516 45.2413 41.69C45.4038 41.8606 45.4846 42.086 45.4846 42.3465C45.4846 42.6071 45.394 42.8275 45.2225 43.0031ZM47.2902 40.0331H32.9389H32.9144H30.7308V37.3145C30.681 36.9838 30.5029 36.8287 30.2073 36.8336C29.9068 36.8581 29.7712 37.3039 29.8121 38.19V40.0127C29.75 40.6235 29.5793 41.1796 29.309 41.6753C29.0436 42.1661 28.7529 42.5319 28.4736 42.7614C28.1903 42.9868 27.8244 43.1673 27.3737 43.2971C26.8902 43.4122 26.4297 43.4522 25.9944 43.4171C25.5608 43.3828 25.1704 43.2922 24.8454 43.1574C24.0435 42.8724 23.1828 42.4364 22.2363 41.8451C21.5528 41.3944 20.6668 40.9191 19.5872 40.4332C19.1013 40.238 18.6685 40.0976 18.27 40.0118C17.3317 39.8412 16.4498 39.9367 15.6111 40.2772C15.4331 40.3573 15.2575 40.4626 15.0852 40.5827L14.9251 40.7231C14.7447 40.9183 14.5675 41.129 14.3968 41.374C14.044 41.8794 13.7582 42.4911 13.5557 43.1877C13.5687 42.4862 13.6112 41.9456 13.6839 41.5952C13.7541 41.2384 13.8888 40.8187 14.0848 40.3434C14.2825 39.8673 14.623 39.472 15.086 39.1511C15.9524 38.6301 16.7486 38.3753 17.4722 38.3598C18.1932 38.3598 18.8923 38.4905 19.588 38.7649L19.9988 38.9257C20.3393 39.0711 20.7076 39.2466 21.098 39.4467C21.4883 39.6517 21.8942 39.882 22.3147 40.1523L23.4637 40.7786C24.4657 41.3494 25.2946 41.614 25.9478 41.5797C26.3864 41.5593 26.7996 41.4287 27.1973 41.1739C27.5974 40.9036 27.8563 40.4977 27.9657 39.9522L27.9706 38.114C27.9853 37.3938 28.1462 36.7821 28.4516 36.2913C28.7546 35.7956 29.1784 35.4951 29.7239 35.3849C30.2645 35.2803 30.7651 35.1554 31.2183 35.0092C31.6772 34.8639 32.0945 34.5944 32.4824 34.209V37.9246H32.9405V37.9295H45.3736V35.8356C45.3246 35.5008 45.0412 35.2959 44.5202 35.2403C44.5904 35.2044 44.8003 35.1497 45.1612 35.0746C45.5214 34.9994 45.8741 34.8745 46.2204 34.6842C46.5683 34.4988 46.9284 34.1387 47.2926 33.612V40.0331H47.2902ZM47.3677 4.93238V33.2282H45.4144V3.79565C45.8774 4.24071 46.3037 4.50611 46.6842 4.60165C47.0615 4.69638 47.4649 4.75598 47.8985 4.76578L47.3677 4.93238Z" fill="white"/>
</svg>
