<svg width="333" height="60" viewBox="0 0 333 60" fill="none" xmlns="http://www.w3.org/2000/svg">
<path d="M53.6012 0H0V60H53.6012V0Z" fill="#575556"/>
<path d="M47.0565 35.4021C46.7623 36.0304 45.8929 37.368 44.4468 39.416C44.3422 39.5629 44.2442 39.7008 44.1433 39.8434C43.9955 38.625 43.8819 37.6528 43.8866 37.5815C44.0443 37.7443 44.1925 37.8794 44.3328 37.9859C44.384 38.0197 44.4201 38.0371 44.4422 38.0371C44.4759 38.0371 44.4933 38.0141 44.4933 37.9695C44.4933 37.8292 44.3586 37.4722 44.0889 36.9002C43.9204 36.5296 43.7492 36.1589 43.5751 35.7883C43.4742 35.5471 43.3959 35.4256 43.3391 35.4256C43.3161 35.4256 43.3002 35.4458 43.2889 35.4847C43.0749 36.1359 42.9858 36.493 43.0191 36.554C43.1538 36.8238 43.2293 36.9894 43.2457 37.0513C43.3522 38.1623 43.4287 39.013 43.4733 39.6032C43.5089 39.9232 43.5484 40.2671 43.5892 40.6213C42.3688 42.3381 41.4168 43.6743 40.7431 44.6169C39.5795 43.5172 38.6529 42.6689 37.9636 42.0707C37.4916 41.6156 36.8362 40.9451 36.1793 40.261C36.5753 40.0269 36.9821 39.7764 37.4095 39.4948C38.6848 38.655 39.4134 38.1009 39.5936 37.8316C39.8301 37.4811 39.9727 36.9725 40.0215 36.3058C40.0445 35.953 40.0018 35.4575 39.8915 34.8208C40.0684 34.8551 40.09 34.8715 40.1904 34.8865C40.623 34.8865 40.9927 34.7382 41.3024 34.4403C41.4534 34.2944 41.6528 33.9688 41.8996 33.463C41.8832 33.7271 41.9334 33.9495 42.0507 34.1288C42.1976 34.3418 42.427 34.5276 42.7418 34.6843C42.9956 34.8114 43.2007 34.8734 43.3649 34.8804V34.8865C43.3733 34.8865 43.3813 34.8851 43.3893 34.8851C43.3921 34.8851 43.3959 34.8865 43.3982 34.8865V34.8841C43.9678 34.8729 44.4623 34.5796 44.8799 34.0021C45.2341 33.5141 45.3988 32.7306 45.3772 31.6524C45.0239 28.2846 44.1869 21.3129 43.9012 19.2246C44.1869 19.5389 44.3356 19.7018 44.3474 19.7125C44.392 19.7463 44.4285 19.7637 44.4567 19.7637C44.4905 19.7637 44.5078 19.7355 44.5078 19.6788C44.5078 19.3536 44.2183 18.6433 43.6398 17.5487C43.539 17.2901 43.4606 17.1606 43.4038 17.1606C43.3818 17.1606 43.3649 17.1808 43.3536 17.2198C43.1735 17.7818 43.0839 18.138 43.0839 18.289C43.0839 18.3683 43.1003 18.4303 43.1341 18.4748C43.2241 18.5978 43.2743 18.6771 43.2861 18.7108C43.3363 19.6534 43.4709 21.2078 43.5667 21.9599C44.1339 26.3281 44.8715 32.3074 44.8715 32.8235C44.8715 32.8962 44.8658 32.9408 44.855 32.9581C44.7312 33.2213 44.5801 33.4043 44.3995 33.5057C44.1799 33.638 43.8421 33.7032 43.3898 33.706C43.25 33.7037 43.0538 33.6277 42.7995 33.4756C42.5419 33.3218 42.3805 33.1871 42.3158 33.0712C42.2511 32.9563 42.2046 32.8601 42.1765 32.7808C42.221 32.6522 42.244 32.5485 42.244 32.4692C42.244 32.2506 42.1037 32.3233 41.8232 32.6888C41.8002 32.717 41.7303 32.8455 41.613 33.0759C41.5121 33.2725 41.4272 33.3931 41.3596 33.4386C41.1316 33.6005 40.7848 33.6854 40.3321 33.7009C39.9929 33.6765 39.7146 33.6427 39.504 33.5976C39.2774 33.2908 39.1183 33.0834 39.0296 32.9764C38.9325 32.8404 38.8649 32.8441 38.8265 32.9877C38.7425 33.3264 38.673 33.6647 38.6181 34.0044C38.9625 34.4877 39.3135 35.3857 39.6663 36.6966C39.1408 37.2531 38.4075 37.8105 37.4649 38.3679C37.0726 38.5959 36.3862 38.9614 35.415 39.4601C34.6211 38.6226 33.9399 37.8888 33.7414 37.6678C34.0638 37.6617 34.281 37.6552 34.3941 37.6491C34.4846 37.643 34.5297 37.6228 34.5297 37.5862C34.5297 37.5496 34.1712 37.299 33.4538 36.8336C32.872 36.4536 32.5558 36.2631 32.5046 36.2631C32.4709 36.2631 32.4568 36.2809 32.4624 36.317C32.4404 36.8303 32.423 37.1813 32.4122 37.3685C32.4066 37.4163 32.446 37.4614 32.5305 37.5036C32.5985 37.5468 32.6487 37.5674 32.6825 37.5674C32.8551 37.8494 33.7367 38.891 34.5921 39.88C34.5883 39.8819 34.5855 39.8833 34.5817 39.8852C34.0816 40.1395 32.9593 40.5702 31.2149 41.1769C29.8739 41.6409 29.1978 41.966 29.1856 42.1504C29.1837 42.1786 29.2166 42.1955 29.2837 42.1997C29.3841 42.2063 29.5342 42.1903 29.7341 42.1523C31.5484 41.8539 32.827 41.6559 33.5702 41.5583C34.1144 41.3533 34.7042 41.0797 35.339 40.7391C35.6233 41.0638 35.8757 41.3509 36.0564 41.5541C36.542 42.104 37.2369 42.7801 38.14 43.5838C39.4341 44.7253 40.1205 45.3362 40.1988 45.4146C39.8202 45.9888 39.5978 46.3722 39.5298 46.565C39.3318 47.1571 39.2328 47.7065 39.2328 48.2142C39.2328 48.8973 39.4646 49.2384 39.9272 49.2384C40.136 49.2384 40.4475 49.0906 40.8599 48.7946C41.255 48.5102 41.4924 48.2813 41.5712 48.1058C41.7124 47.8041 41.7828 47.4569 41.7828 47.0642C41.7828 46.7743 41.7434 46.4242 41.6646 46.0128C41.6144 45.7472 41.4215 45.4122 41.0884 45.0073C42.1727 43.5322 43.0351 42.355 43.6858 41.4635C44.0523 44.5658 44.5374 48.3732 44.704 49.6963C44.7542 50.1899 44.7513 50.6643 44.695 51.1189C44.6505 51.4788 44.6584 51.658 44.7204 51.658C44.7593 51.658 44.8213 51.5797 44.9062 51.422C45.1248 51.0124 45.2341 50.3419 45.2341 49.4092C45.2341 49.146 45.2233 48.8739 45.2004 48.5924C45.1046 47.4921 44.9756 46.4918 44.6833 44.2177C44.5754 43.3642 44.4023 41.9801 44.2446 40.6955C44.5552 40.2676 44.7945 39.9354 44.9437 39.7243C46.0505 38.1473 46.7369 37.048 47.003 36.4254C47.2066 35.9422 47.3079 35.5288 47.3079 35.1849C47.3079 35.1122 47.2972 35.076 47.2742 35.076C47.2315 35.0756 47.1583 35.1844 47.0565 35.4021ZM41.4642 47.1815C41.475 47.2237 41.3 47.3598 40.9392 47.5892C40.5432 47.837 40.2246 47.9608 39.9816 47.9608C39.7212 47.9608 39.5922 47.8346 39.5922 47.5808C39.5922 47.3809 39.7076 47.0919 39.9394 46.7104C40.143 46.397 40.349 46.0822 40.5578 45.7688C41.1395 46.3783 41.4412 46.8493 41.4642 47.1815Z" fill="#F9B115"/>
<path d="M42.807 23.83C42.807 23.1679 42.6104 22.7016 42.2177 22.4318C42.0549 22.3088 41.5275 22.0367 40.6346 21.6149C39.9098 21.279 39.3205 20.8882 38.8658 20.4448C39.2585 20.4678 39.4889 20.442 39.556 20.3692C39.6062 20.3129 39.533 20.2289 39.3373 20.1168C39.2975 20.0938 39.2524 20.0713 39.2027 20.0492L37.9814 19.4684C37.8857 19.4173 37.8266 19.4036 37.8045 19.4257C37.7872 19.4539 37.7792 19.4994 37.7792 19.5604V20.2763C37.7792 20.4621 37.8238 20.5794 37.9138 20.6306C38.0705 20.7253 38.1752 20.8046 38.2254 20.8656C38.6298 21.4165 39.0981 21.8739 39.6315 22.2389C39.9295 22.4412 40.3836 22.6851 40.9959 22.9713C41.5571 23.2411 41.9639 23.4715 42.2172 23.6615C42.4251 23.8135 42.5288 23.943 42.5288 24.0495C42.5288 24.1223 42.4842 24.1978 42.3941 24.2761C42.1862 24.4784 41.4088 25.0203 40.0618 25.9019C38.5735 26.8675 37.5662 27.3498 37.0379 27.3498C36.7967 27.3498 36.5945 27.2742 36.4321 27.1232C36.2299 26.9547 36.1291 26.7042 36.1291 26.3734C36.1291 26.3467 36.1337 26.3129 36.1347 26.2847C36.4312 26.0436 36.6808 25.8099 36.8793 25.5852C37.0252 25.4224 37.1462 25.1728 37.242 24.8354C37.3147 24.5656 37.3513 24.3325 37.3513 24.1368C37.3513 23.7432 37.2448 23.289 37.0318 22.7724C36.8971 22.452 36.7596 22.1296 36.6194 21.8035C36.8488 21.8655 36.9919 21.8964 37.0482 21.8964C37.0928 21.8964 37.1158 21.8856 37.1158 21.8627C37.1158 21.8237 37.0482 21.7397 36.9135 21.6102C36.5884 21.2898 36.2989 20.9782 36.0465 20.6747C36.0075 20.6301 35.9789 20.6071 35.9616 20.6071C35.9278 20.6071 35.8996 20.6564 35.8776 20.7544C35.8546 20.853 35.8264 21.0233 35.7926 21.2644C35.7537 21.522 35.7424 21.6717 35.7589 21.7106C35.7645 21.7388 35.8016 21.8064 35.8691 21.9129C35.9367 22.0194 35.9949 22.154 36.046 22.3164C36.1417 22.6481 36.3181 23.0943 36.5762 23.6559C36.8066 24.1495 36.9215 24.4221 36.9215 24.4718C36.9215 24.6046 36.7132 24.8349 36.3106 25.154C36.3632 24.9311 36.4232 24.6961 36.4992 24.4347C36.5391 24.3174 36.5584 24.2269 36.5584 24.165C36.5584 24.126 36.5499 24.1058 36.533 24.1058C36.4941 24.1058 36.4382 24.1987 36.3655 24.3845C36.2342 24.7078 36.1361 25.0273 36.054 25.345C35.4797 25.7639 34.6962 26.2458 33.6804 26.7966C32.9273 27.2001 31.9871 27.6435 30.8587 28.1263C29.2367 28.8174 28.3485 29.1965 28.1975 29.2636C27.7766 29.4592 27.5664 29.5723 27.5664 29.6005C27.5664 29.6061 27.5828 29.6089 27.6166 29.6089C27.6893 29.6089 27.8808 29.5859 28.1895 29.5414C28.4809 29.4902 29.2034 29.3255 30.3534 29.044C31.4372 28.7808 31.9983 28.649 32.0373 28.649C32.2461 28.649 32.9217 28.3201 34.0675 27.6637C34.7783 27.255 35.3751 26.8661 35.8644 26.4945C35.8551 26.6305 35.8428 26.7666 35.8428 26.9012C35.8428 27.9907 36.2553 28.535 37.0815 28.535C37.5239 28.535 38.4675 28.047 39.9102 27.0697C41.0668 26.3063 41.8245 25.7621 42.1844 25.436C42.3749 25.2619 42.4987 25.1216 42.555 25.0151C42.639 24.864 42.7117 24.6055 42.7737 24.24C42.7962 24.1077 42.807 23.9702 42.807 23.83Z" fill="#F9B115"/>
<path d="M28.7566 38.4734C29.2225 37.5191 29.8372 36.7693 30.601 36.2246C30.7694 36.1073 31.4826 35.6635 32.74 34.894C33.8238 34.2371 34.4075 33.8501 34.492 33.7318C34.6266 33.4287 34.7359 33.1543 34.8204 32.9065C34.8654 32.8 34.888 32.7217 34.888 32.6705C34.888 32.6367 34.8711 32.6203 34.8373 32.6203C34.7983 32.6203 34.7167 32.6593 34.5933 32.7376C33.3917 33.4846 32.3393 34.1302 31.4352 34.6749C31.3395 34.6857 31.2443 34.6913 31.1485 34.6913C30.2951 34.6913 29.4843 34.377 28.7149 33.7487C28.0411 33.1932 27.7043 32.7132 27.7043 32.3088C27.7043 32.084 28.1364 31.8368 29.0011 31.5675C29.8315 31.3099 30.5363 31.1804 31.1143 31.1804C31.3503 31.1804 31.7547 31.2559 32.3271 31.407C32.406 31.43 32.4707 31.4408 32.5209 31.4408C32.5885 31.4408 32.6218 31.4187 32.6218 31.3732C32.6218 31.2109 32.3468 31.0026 31.7965 30.7501C31.1565 30.4588 30.48 30.3176 29.7668 30.3293C29.1043 30.3401 28.5178 30.5869 28.0069 31.0697C27.4682 31.575 27.1985 32.1952 27.1985 32.9314C27.1985 33.425 27.4035 33.9021 27.8131 34.3633C28.1106 34.6951 28.5174 35.0146 29.0339 35.3233C29.3258 35.4861 29.6181 35.6494 29.9099 35.8113C29.4046 36.2603 28.9246 36.9678 28.4695 37.9334C27.9745 39.0017 27.7197 40.0264 27.6841 41.0122C27.1403 41.3007 26.71 41.532 26.5393 41.6282L26.4961 42.0932C26.7865 41.9276 27.205 41.7014 27.678 41.4509C27.7671 44.1234 29.5599 45.4629 33.0675 45.4629C33.8084 45.4629 34.4934 45.3808 35.1221 45.2189C35.7508 45.0223 36.3795 44.8253 37.0082 44.6287C37.4854 44.4827 37.8532 44.3819 38.1117 44.3256C38.3529 44.2754 38.4739 44.2163 38.4739 44.1487C38.4739 44.076 38.3506 44.0394 38.1033 44.0394C38.0249 44.0394 37.941 44.045 37.8509 44.0567C36.3237 44.236 35.0888 44.3199 34.1457 44.3092C32.3769 44.2862 31.0434 44.0844 30.1454 43.7025C28.9776 43.2033 28.3259 42.3625 28.187 41.183C29.6579 40.4121 31.408 39.5263 31.7299 39.3733L31.7641 38.8999C31.1457 39.1964 29.467 40.0705 28.1617 40.7598C28.1612 40.7354 28.1575 40.7128 28.1575 40.6884C28.1589 40.0264 28.3583 39.2879 28.7566 38.4734Z" fill="#F9B115"/>
<path d="M35.7547 38.7082C35.7937 38.7082 35.8556 38.6298 35.94 38.4722C36.1592 38.0621 36.2685 37.3921 36.2685 36.4594C36.2685 36.1961 36.2572 35.924 36.2347 35.6425C36.1394 34.5423 36.1897 35.2338 35.8978 32.9597C35.6567 31.0506 35.5412 30.0179 35.5525 29.8603C35.7097 30.0231 35.8584 30.1582 35.9987 30.2647C36.0494 30.2985 36.0855 30.3158 36.1085 30.3158C36.1423 30.3158 36.1592 30.2928 36.1592 30.2483C36.1592 30.108 36.0245 29.7509 35.7547 29.179C35.5863 28.8083 35.415 28.4377 35.241 28.067C35.1401 27.8259 35.0613 27.7043 35.005 27.7043C34.9824 27.7043 34.966 27.7245 34.9543 27.7635C34.7408 28.4147 34.6512 28.7717 34.6845 28.8327C34.8192 29.1025 34.8952 29.2681 34.9121 29.3301C35.0186 30.4411 35.0941 31.2917 35.1391 31.882C35.4985 35.1043 35.5347 35.1405 35.7369 36.746C35.7876 37.2396 35.7847 37.714 35.7289 38.1686C35.6843 38.5289 35.6928 38.7082 35.7547 38.7082Z" fill="#F9B115"/>
<path d="M46.3908 19.7524C46.4246 19.7524 46.4419 19.7294 46.4419 19.6848C46.4419 19.5445 46.3073 19.1875 46.0375 18.6155C45.869 18.2449 45.6978 17.8742 45.5237 17.5035C45.4228 17.2624 45.3445 17.1409 45.2877 17.1409C45.2647 17.1409 45.2488 17.161 45.2375 17.2C45.0236 17.8512 44.9344 18.2083 44.9677 18.2693C45.1024 18.539 45.1779 18.7047 45.1943 18.7666C45.3009 19.8776 45.4393 21.4349 45.4838 22.0251C45.8428 25.2475 46.5784 31.1982 46.7807 32.8042C46.8309 33.2978 46.8281 33.7721 46.7717 34.2267C46.7272 34.5866 46.7352 34.7658 46.7971 34.7658C46.836 34.7658 46.898 34.6875 46.9829 34.5298C47.2015 34.1198 47.3108 33.4498 47.3108 32.517C47.3108 32.2538 47.3001 31.9817 47.2771 31.7002C47.1813 30.5999 46.9885 28.9132 46.6962 26.6391C46.455 24.73 45.8235 19.4544 45.8348 19.2968C45.9924 19.4596 46.1407 19.5947 46.281 19.7012C46.3321 19.735 46.3687 19.7524 46.3908 19.7524Z" fill="#F9B115"/>
<path d="M34.3734 43.5987C34.6855 43.2923 35.0214 42.9747 35.0936 42.6209C35.1162 42.5111 34.9266 42.436 34.6704 42.2502C34.3988 42.0532 34.2613 41.9983 34.1201 41.881C33.5829 42.2986 33.4229 42.7996 33.4074 42.8625C33.3708 42.985 33.482 43.0591 33.6415 43.1492C33.9732 43.3514 34.0037 43.3805 34.3734 43.5987Z" fill="#F9B115"/>
<path d="M14.6445 12.8806C14.9884 13.0898 15.0199 13.1199 15.4032 13.3465C15.7265 13.0288 16.0746 12.6999 16.1492 12.333C16.1722 12.219 15.9761 12.1416 15.711 11.9488C15.4295 11.7447 15.2868 11.6874 15.1405 11.5659C14.5835 11.9985 14.4179 12.5179 14.402 12.5831C14.3635 12.7103 14.4789 12.7872 14.6445 12.8806Z" fill="#F9B115"/>
<path d="M8.99991 18.908C8.7184 18.7039 8.57577 18.6467 8.42938 18.5251C7.87246 18.9577 7.70684 19.4771 7.69089 19.5423C7.65288 19.669 7.76783 19.7464 7.93345 19.8398C8.27737 20.0491 8.3088 20.0791 8.69213 20.3057C8.9103 20.0918 9.13316 19.8708 9.28236 19.6381C9.31098 19.7131 9.40154 19.7722 9.52071 19.8398C9.86462 20.0491 9.89606 20.0791 10.2794 20.3057C10.6027 19.9881 10.9508 19.6592 11.0254 19.2923C11.0484 19.1783 10.8523 19.1008 10.5872 18.908C10.3057 18.7039 10.163 18.6467 10.0166 18.5251C9.71355 18.7607 9.52916 19.0197 9.4189 19.2191C9.36635 19.1374 9.20542 19.0572 8.99991 18.908Z" fill="#F9B115"/>
<path d="M46.2754 52.651C45.9315 52.4417 45.9001 52.4117 45.5167 52.1851C45.2986 52.399 45.0757 52.62 44.9265 52.8527C44.8979 52.7776 44.8073 52.7185 44.6882 52.651C44.3442 52.4417 44.3128 52.4117 43.9295 52.1851C43.6062 52.5027 43.2581 52.8316 43.1835 53.1985C43.1605 53.3125 43.3561 53.3899 43.6217 53.5828C43.9032 53.7869 44.0458 53.8441 44.1922 53.9656C44.4953 53.7301 44.6797 53.4711 44.79 53.2717C44.8425 53.3533 45.0034 53.4336 45.209 53.5828C45.4905 53.7869 45.6331 53.8441 45.7795 53.9656C46.3364 53.533 46.502 53.0136 46.518 52.9484C46.556 52.8213 46.4406 52.7443 46.2754 52.651Z" fill="#F9B115"/>
<path d="M41.1317 30.6791C41.4635 30.8808 41.494 30.9099 41.8641 31.1286C42.1762 30.8222 42.5121 30.5046 42.5839 30.1508C42.6064 30.041 42.4168 29.9659 42.1607 29.7801C41.889 29.5831 41.7515 29.5282 41.6103 29.4109C41.0731 29.8285 40.9131 30.3296 40.8976 30.3924C40.861 30.5149 40.9722 30.589 41.1317 30.6791Z" fill="#F9B115"/>
<path d="M38.0713 29.772C37.534 30.1895 37.374 30.6906 37.3586 30.7535C37.322 30.876 37.4332 30.9501 37.5927 31.0406C37.9244 31.2424 37.9549 31.2715 38.3251 31.4901C38.6371 31.1838 38.973 30.8661 39.0448 30.5123C39.0673 30.4026 38.8778 30.3275 38.6216 30.1417C38.3504 29.9446 38.2125 29.8893 38.0713 29.772Z" fill="#F9B115"/>
<path d="M6.85271 22.6098C6.86397 22.5535 6.86913 22.5089 6.86913 22.4751C6.86913 22.4413 6.86116 22.4212 6.84474 22.416C6.80673 22.416 6.75747 22.4808 6.69694 22.6098C6.36241 23.3563 6.19491 24.0234 6.19444 24.6137C6.1935 25.4835 6.47173 26.177 7.02913 26.694C7.61373 27.2392 8.42871 27.5128 9.47359 27.5137C9.62279 27.5137 9.79404 27.4959 9.95872 27.4837V27.4917C11.2161 27.4649 12.6101 27.151 13.8896 26.7691C14.3606 29.6265 14.7393 32.123 14.7393 32.7658C14.7393 32.9563 14.7308 33.1111 14.7144 33.2284C14.6271 33.7792 13.8905 34.5792 12.5045 35.6292C12.4346 35.6822 12.3689 35.7273 12.3004 35.778C12.2971 35.7568 12.2934 35.7329 12.2906 35.7141C12.1728 34.9846 11.9955 34.2231 11.7599 33.4316C11.507 32.5837 11.3105 32.1601 11.1702 32.1601C11.142 32.1601 11.1195 32.1737 11.1026 32.2018C11.0017 32.617 10.9116 32.9567 10.8328 33.2209C10.8328 33.2547 10.9337 33.6023 11.1359 34.2648C11.3602 34.9841 11.5033 35.5565 11.5652 35.9835C11.5765 36.0585 11.5906 36.1533 11.6065 36.2589C10.571 36.9303 9.70912 37.2714 9.02551 37.2714C7.45937 37.2714 6.6763 36.4428 6.6763 34.787C6.6763 34.0349 6.81002 33.3415 7.07745 32.7067C7.13751 32.5607 7.16754 32.4491 7.16754 32.3698C7.16754 32.3079 7.15111 32.2769 7.11827 32.2769C7.03663 32.2769 6.94092 32.3979 6.8316 32.6396C6.42247 33.5376 6.2179 34.4248 6.2179 35.3008C6.2179 36.2326 6.4417 36.9941 6.88931 37.5829C7.35333 38.1896 7.96984 38.4917 8.73884 38.4917C9.58478 38.4917 10.5339 38.1666 11.5873 37.5154C11.6515 37.4755 11.7107 37.4309 11.774 37.3896C12.1691 40.0776 12.9141 45.2367 13.0507 46.5908C13.2022 48.0899 13.3594 49.1061 13.5227 49.6391C13.6461 50.0492 13.8731 50.4395 14.2049 50.8102C14.4526 51.0866 14.7135 51.2813 14.9832 51.4047C16.1562 51.9414 18.5852 52.1314 21.2919 52.0282C23.1119 51.9588 24.8826 51.9635 27.0714 51.2747C27.6475 51.0936 28.0651 50.8177 28.3682 50.5761C28.3344 51.087 28.4409 51.4886 28.6877 51.78C28.912 52.0442 29.2184 52.176 29.6059 52.176C30.0774 52.176 30.5241 51.9846 30.945 51.6031C31.2194 51.2888 31.4048 51.0532 31.5005 50.8956C31.6182 51.2498 31.6886 51.4431 31.7107 51.4764C31.851 51.696 32.0954 51.8054 32.4435 51.8054C32.9934 51.8054 33.4851 51.3174 33.9177 50.3401C33.9346 50.6207 34.0073 50.851 34.1364 51.0303C34.3719 51.3648 34.8064 51.5417 35.4332 51.5656V51.5698C35.4402 51.5698 35.4482 51.5679 35.4552 51.5679C35.4628 51.5679 35.4684 51.5698 35.4754 51.5698V51.5661C35.8085 51.5562 36.1891 51.4333 36.6207 51.1912C37.0134 50.9716 37.3024 50.753 37.4878 50.5343C37.9598 49.9844 38.1559 49.4139 38.0775 48.8246C38.0212 48.4258 37.7688 47.9651 37.3193 47.4429C36.8196 46.8765 36.692 46.732 36.6413 46.581C36.7591 46.603 36.8994 46.6147 37.0627 46.6147C37.1579 46.6147 37.2058 46.5866 37.2058 46.5298C37.2058 46.4623 37.1359 46.3703 36.9956 46.2521C36.5855 45.949 36.2407 45.6994 35.9596 45.5023C35.8752 45.4239 35.8165 45.4713 35.7827 45.6454C35.7377 46.0053 35.7067 46.291 35.6898 46.5045C35.6673 46.5664 35.7208 46.5974 35.8503 46.5974C36.0464 47.1867 36.2533 47.5611 36.7643 48.1504C37.3029 48.7678 37.6116 49.1751 37.6904 49.3717C37.7355 49.4782 37.5108 49.6687 37.0172 49.9436C36.4767 50.2359 35.9592 50.3823 35.4618 50.3879C35.2474 50.3856 35.033 50.326 34.819 50.205C34.6337 50.0703 34.5075 49.9216 34.4404 49.7588C34.3728 49.596 34.325 49.4754 34.2973 49.3961C34.3531 49.222 34.3672 49.1155 34.3391 49.0766C34.3053 49.032 34.1645 49.0287 34.0782 49.1695C33.8816 49.5345 33.7634 49.7696 33.7244 49.8761C33.4546 50.3987 33.1126 50.6375 32.6969 50.592C32.4388 50.5648 32.178 50.3678 31.9138 50.0027C32.0372 49.61 32.0992 49.4106 32.0992 49.4055C32.0992 49.3665 32.0823 49.3463 32.0485 49.3463C32.026 49.3463 31.9978 49.3548 31.964 49.3717C31.7172 49.6185 31.5319 49.846 31.4085 50.0539C31.2678 50.2833 31.0604 50.4883 30.785 50.6685C30.4762 50.859 30.1755 50.9542 29.8837 50.9542C29.384 50.9542 29.0133 50.6793 28.7722 50.1289C28.828 49.9375 28.8721 49.7911 28.9031 49.6865C28.934 49.5828 28.9411 49.5082 28.9495 49.4632C28.9561 49.4275 28.9631 49.3801 28.9157 49.405C28.8979 49.412 28.8369 49.4411 28.7051 49.5223C27.9333 49.9281 27.2942 50.1829 26.7739 50.304C26.7378 50.3119 24.1366 50.8937 20.9959 50.9298C18.8024 50.9552 16.9529 50.8923 15.1911 50.2509C14.9992 50.181 14.8261 50.0074 14.6426 49.7991C14.2218 49.3219 13.9576 48.6571 13.8511 47.8037C13.7892 47.068 13.7305 46.3328 13.6742 45.5971C13.5771 44.4837 12.84 39.3902 12.4693 36.8984C13.0577 36.4456 13.5912 35.9412 14.0594 35.3754C14.6525 34.6599 14.9795 34.0448 15.0452 33.5306C15.2723 34.9104 15.787 37.0574 16.9271 38.7831C16.6676 39.5774 16.5311 40.3492 16.5311 41.0962C16.5311 43.3257 17.6182 44.8074 19.8449 45.1185C20.2034 45.1687 20.5881 45.1837 20.9668 45.1725C20.933 45.2443 20.8973 45.3273 20.8598 45.4258C20.6299 46.0222 20.4877 46.5613 20.4235 47.0497C18.4899 48.042 16.4504 49.0991 16.1252 49.2821L16.0821 49.747C16.7131 49.3876 18.6105 48.4122 20.384 47.5104C20.3826 47.5653 20.3798 47.6197 20.3798 47.6746C20.3798 48.438 20.5201 49.0808 20.8007 49.6025C21.1601 50.2594 21.6992 50.5906 22.4175 50.5963C23.3887 50.6019 24.5227 50.1135 25.8196 49.131C26.7908 48.3958 27.4674 47.7502 27.8493 47.1937C28.1073 46.6893 28.2227 46.1188 28.1946 45.484C28.1608 44.6873 27.8943 44.0305 27.3946 43.5139C27.0132 43.1151 26.6735 42.9157 26.376 42.9157C26.056 42.9157 25.7553 43.0898 25.4747 43.4384C25.1716 43.8146 25.0252 44.2608 25.0365 44.7769C25.0478 45.3888 25.3734 45.6951 26.0138 45.6951C26.0809 45.6951 26.2522 45.6895 26.5276 45.6778C26.8757 45.6614 27.1929 45.7261 27.4791 45.8716C27.7202 45.9945 27.8582 46.1212 27.8915 46.2502C27.7292 46.5753 27.1 47.1398 26.0054 47.9425C24.686 48.9142 23.6083 49.3998 22.7717 49.3998C21.4524 49.3998 20.7861 48.7007 20.757 47.3209C22.3218 46.527 23.7092 45.8317 23.9236 45.7299L23.9578 45.2565C23.5487 45.4526 22.2204 46.1277 20.7692 46.8719C20.7899 46.6382 20.8241 46.4013 20.8851 46.1578C20.9302 45.9893 21.0029 45.7707 21.1042 45.5009C21.1544 45.3662 21.1868 45.2569 21.2093 45.1621C21.6579 45.134 22.0877 45.0669 22.4438 44.9688C23.7087 44.6207 25.1378 43.7931 26.3207 40.3065C27.3702 37.2141 25.5545 36.3734 23.1921 36.3832C22.8707 36.3846 22.2932 36.3785 21.7696 36.3804C21.4256 36.3818 21.1052 36.387 20.8964 36.4001C20.0734 36.4512 19.3434 36.585 18.7316 37.1142C18.3318 37.46 18.3426 37.9686 18.6579 38.8408C18.6579 38.8408 18.1291 38.6344 17.6965 38.1244C18.1357 37.269 18.6931 36.5812 19.38 36.0773C19.4602 36.0196 19.6699 35.8826 20.0054 35.6677C20.628 35.6954 21.1662 35.6714 21.6124 35.6236L21.6016 35.6325C21.8076 35.6325 22.1904 35.5673 22.6131 35.457C22.9589 35.3754 23.1419 35.3022 23.1419 35.3022L23.1438 35.2999C23.7284 35.1047 24.2877 34.841 24.4904 34.5534C24.8338 34.0654 24.9947 33.2819 24.9732 32.2037C24.838 30.8782 24.6414 28.8973 24.4359 26.855C24.7555 26.809 25.0984 26.7386 25.4395 26.6331C25.7745 29.6265 26.0387 31.8968 26.231 33.4255C26.2817 33.919 26.2789 34.3934 26.2231 34.848C26.178 35.2079 26.186 35.3871 26.2479 35.3871C26.2869 35.3871 26.3488 35.3088 26.4333 35.1511C26.6524 34.7415 26.7617 34.0711 26.7617 33.1383C26.7617 32.8751 26.7504 32.603 26.7279 32.3215C26.6327 31.2212 26.4389 29.5345 26.1471 27.2604C26.1175 27.0272 26.0837 26.7339 26.0467 26.3994C26.0893 26.3792 26.133 26.3609 26.1752 26.3389C26.5149 26.1643 26.9977 25.8289 27.6325 25.3451C27.5987 25.8289 27.7137 26.2023 27.9778 26.4655C28.2138 26.6959 28.5132 26.8109 28.8787 26.8109C29.3788 26.8109 29.7546 26.634 30.0071 26.2807C30.2036 26.0057 30.3524 25.7641 30.4532 25.5567C30.6001 25.7252 30.7427 25.8964 30.883 26.0705C31.0909 26.261 31.3264 26.3562 31.5906 26.3562C32.4323 26.3562 32.8536 25.758 32.8536 24.5621C32.8536 24.3218 32.8015 24.0638 32.6978 23.7917C32.5932 23.5205 32.4994 23.3835 32.4154 23.3835C32.3924 23.3835 32.3736 23.3971 32.3563 23.4252C32.2104 23.6664 32.1512 23.9807 32.1794 24.3688C32.1794 24.4415 32.2268 24.5409 32.3225 24.6676C32.4182 24.7943 32.4656 24.8881 32.4656 24.9501C32.4656 25.0228 32.3736 25.0932 32.1878 25.1603C32.0302 25.2166 31.8965 25.2443 31.7834 25.2443C31.4245 25.2443 31.1186 25.0768 30.8652 24.7399C30.9947 24.3073 31.059 24.0633 31.059 24.0065C31.059 23.9446 31.0425 23.9146 31.0088 23.9146C30.9858 23.9202 30.9633 23.9282 30.9412 23.939C30.7216 24.1468 30.5532 24.38 30.4359 24.6385C30.1154 25.3517 29.65 25.7078 29.0377 25.7078C28.5887 25.7078 28.241 25.461 27.9933 24.9665C28.0322 24.7253 28.0552 24.5766 28.0609 24.5203C28.0665 24.4649 28.0698 24.4194 28.0698 24.3856C28.0698 24.2965 28.0444 24.251 27.9933 24.251C27.9595 24.251 27.8976 24.282 27.8084 24.3439C26.9658 24.9168 26.3915 25.3053 26.0481 25.4132C26.0138 25.424 25.9786 25.4329 25.9444 25.4432C25.6863 22.9551 25.3659 19.4146 25.3748 19.2926C25.532 19.4554 25.6807 19.5906 25.821 19.6971C25.8716 19.7309 25.9078 19.7482 25.9308 19.7482C25.9645 19.7482 25.9814 19.7252 25.9814 19.6807C25.9814 19.5404 25.8468 19.1833 25.577 18.6114C25.4086 18.2407 25.2373 17.8701 25.0632 17.4994C24.9619 17.2582 24.8835 17.1367 24.8272 17.1367C24.8047 17.1367 24.7883 17.1569 24.7766 17.1958C24.5631 17.8471 24.4735 18.2041 24.5068 18.2651C24.6414 18.5349 24.7174 18.7005 24.7343 18.7625C24.8249 19.7046 25.1998 23.9601 25.3391 25.5919C24.9858 25.6628 24.6396 25.7083 24.3224 25.7355C24.0414 22.9579 23.7612 20.2667 23.6125 19.15C23.8903 19.4644 24.0352 19.6272 24.0465 19.638C24.0897 19.6717 24.1253 19.6891 24.1525 19.6891C24.1854 19.6891 24.2018 19.6609 24.2018 19.6042C24.2018 19.279 23.9208 18.5687 23.3587 17.4741C23.2606 17.2156 23.1841 17.0861 23.1297 17.0861C23.1077 17.0861 23.0912 17.1062 23.0805 17.1452C22.9055 17.7073 22.8187 18.0634 22.8187 18.2144C22.8187 18.2937 22.8351 18.3557 22.8679 18.4002C22.9552 18.5232 23.0044 18.6025 23.0152 18.6362C23.0603 19.5033 23.4849 24.4044 23.6247 25.7721C23.156 25.7815 22.8487 25.758 22.8487 25.758C22.8487 25.758 20.8467 25.8856 20.5529 23.1986C20.491 22.4629 20.4319 21.7277 20.3751 20.992C20.2714 19.797 19.9871 17.2418 19.7825 15.7705H21.6832C23.5618 15.7705 26.1729 15.5129 29.513 14.9954C30.7118 14.8091 31.7637 14.6491 32.6392 14.5154C32.7757 15.8239 32.9263 17.2901 33.069 18.6808C32.4632 18.8868 31.4043 19.1777 29.8827 19.554C28.5047 19.8927 27.8014 20.1541 27.7728 20.3366C27.7686 20.3643 27.7995 20.384 27.8662 20.3948C27.9661 20.4107 28.1167 20.4084 28.3189 20.3891C30.1525 20.2592 31.4442 20.1794 32.1935 20.1508C32.5073 20.0644 32.8414 19.9537 33.1872 19.828C33.3796 21.6916 33.5461 23.2756 33.6287 23.931C33.6789 24.4246 33.6761 24.8989 33.6198 25.3536C33.5752 25.7134 33.5832 25.8927 33.6451 25.8927C33.6841 25.8927 33.746 25.8143 33.8309 25.6567C34.0496 25.2471 34.1589 24.5766 34.1589 23.6439C34.1589 23.3807 34.1481 23.1085 34.1251 22.827C34.0871 22.3897 33.967 21.1084 33.8173 19.5812C34.5507 19.2814 35.3422 18.9098 36.2055 18.4495C37.553 17.7307 38.329 17.246 38.5336 16.9946C38.801 16.6671 38.9901 16.1744 39.0999 15.5147C39.1552 15.1657 39.1576 14.6683 39.1065 14.0237C39.2646 14.0697 41.4458 14.7368 42.8388 13.5653C42.9664 13.4578 43.1705 13.1055 43.4966 12.5551C43.7204 12.8531 44.0775 13.1242 44.5659 13.372C44.9919 13.5798 45.3128 13.6835 45.5259 13.6835C45.7173 13.6835 45.8848 13.546 46.0312 13.2711C46.1607 13.0126 46.224 12.74 46.224 12.4542C46.224 11.8922 46.14 11.4244 45.9716 11.0481C45.775 10.6047 45.4944 10.3823 45.1289 10.3823C44.6799 10.3823 44.2647 10.745 43.8832 11.469C43.8602 11.43 43.8358 11.4098 43.8077 11.4098C43.7458 11.4098 43.5665 11.6266 43.2686 12.0583C42.9543 12.519 42.6071 12.7123 42.4034 12.8212C40.9963 13.5751 39.0286 12.8305 38.8353 12.77C38.6373 12.4435 38.4989 12.2225 38.42 12.1075C38.3351 11.963 38.2671 11.9607 38.2164 12.1C38.1015 12.4294 38.001 12.7602 37.9142 13.0933C38.2136 13.6066 38.4792 14.5327 38.7109 15.8704C38.1357 16.3757 37.354 16.8632 36.3641 17.3319C35.885 17.5543 34.995 17.9236 33.7033 18.4382C33.5644 17.0452 33.4138 15.5776 33.2848 14.4164C34.5295 14.225 35.2877 14.1025 35.3989 14.0528C35.5463 13.9955 35.6579 13.8426 35.6579 13.8426C36.014 13.4489 36.1919 13.0567 36.1919 12.663C36.1919 12.5739 36.1773 12.4974 36.1506 12.4355C35.9826 11.7936 35.5702 11.4737 35.1681 11.308C34.6858 11.1091 33.9168 11.0148 32.8743 10.9932C32.8025 10.3654 32.7687 9.99806 32.7743 9.91032C32.932 10.0731 33.0802 10.2083 33.2205 10.3148C33.2717 10.3485 33.3078 10.3659 33.3298 10.3659C33.3636 10.3659 33.381 10.3429 33.381 10.2983C33.381 10.1581 33.2463 9.801 32.9765 9.22907C32.8081 8.85841 32.6368 8.48775 32.4628 8.11709C32.3619 7.87593 32.2835 7.75441 32.2268 7.75441C32.2038 7.75441 32.1878 7.77459 32.1766 7.81353C31.9626 8.46476 31.8735 8.82181 31.9068 8.88281C32.0414 9.15259 32.117 9.31821 32.1334 9.38014C32.193 10.0009 32.2423 10.532 32.2826 10.9899C31.6253 10.9998 30.2632 11.1105 28.1791 11.3249C25.972 11.5492 24.1258 11.6355 23.6477 11.6407C22.5808 11.6463 21.7494 11.568 21.154 11.4047C20.6651 11.2644 20.4235 11.1039 20.4291 10.9247C20.4399 10.5029 21.2741 9.7142 22.9308 8.55766C23.4033 8.22688 23.9869 7.89282 24.6823 7.55595C25.2992 7.25801 25.6877 7.09896 25.8491 7.07597C26.1386 7.06518 26.3164 7.16887 26.3831 7.38751C26.4445 7.5841 26.5055 7.68263 26.566 7.68263C26.5942 7.68263 26.6528 7.59254 26.742 7.41285C26.9358 7.01404 27.0334 6.73347 27.0334 6.57019C27.0334 6.25583 26.7997 6.10194 26.3333 6.10757C25.4874 6.1132 24.1788 6.75036 22.4048 8.01903C21.6438 8.56376 21.0883 9.04374 20.7373 9.45897C20.2982 9.9807 19.9763 10.6155 19.7703 11.3615C19.7478 11.4352 19.737 11.5084 19.737 11.5811C19.737 12.2999 20.7481 12.6583 22.7717 12.6583C23.6116 12.6583 25.7023 12.5673 28.0374 12.3262C30.3528 12.0869 31.7937 11.9658 32.3647 11.9639C32.4149 12.4167 32.4722 12.9464 32.5336 13.5259C31.6567 13.6347 30.6109 13.768 29.4285 13.9256C26.0645 14.369 23.4854 14.5905 21.6898 14.5905H19.5752C19.4677 14.0617 19.341 13.5231 19.1745 12.9638C18.9211 12.116 18.7255 11.6923 18.5852 11.6923C18.557 11.6923 18.534 11.7059 18.5176 11.734C18.4167 12.1493 18.3262 12.489 18.2478 12.7531C18.2478 12.7869 18.3487 13.1346 18.5509 13.7971C18.6415 14.0875 18.7151 14.3479 18.779 14.5905H17.9644C17.5544 14.5374 17.2766 14.4778 17.0716 14.4131C16.8755 14.0865 16.7385 13.8656 16.6606 13.7506C16.5761 13.6061 16.509 13.6038 16.4588 13.7431C16.3453 14.0725 16.2458 14.4032 16.1595 14.7364C16.456 15.2497 16.7192 16.1758 16.9482 17.5135C16.3786 18.0188 15.6044 18.5063 14.6243 18.975C14.3395 19.1087 13.9036 19.2969 13.328 19.5357C13.076 18.388 12.8785 17.5834 12.8231 17.5815C12.6922 17.5759 12.5805 17.932 12.4876 18.6508C12.5505 19.0031 12.619 19.3893 12.6913 19.7979C12.3736 19.9274 12.0255 20.0682 11.6431 20.2212C11.1265 20.4281 9.98078 20.7537 8.20538 21.1975C6.84098 21.5363 6.14424 21.7976 6.11562 21.9801C6.1114 22.0078 6.14189 22.0275 6.20805 22.0383C6.30705 22.0543 6.45625 22.0519 6.65659 22.0327C8.47234 21.9027 9.75134 21.823 10.4936 21.7943C11.2035 21.5977 12.0058 21.2853 12.8822 20.8813C13.1412 22.3574 13.4312 24.037 13.7038 25.6637C12.2169 26.0935 10.8708 26.2469 10.2796 26.2966V26.2934C10.0314 26.3126 9.787 26.3271 9.55522 26.3267C8.81673 26.3257 8.17441 26.1592 7.62734 25.8275C6.97142 25.4343 6.64392 24.8891 6.64439 24.1923C6.64439 23.9901 6.67254 23.718 6.72744 23.3755L6.85271 22.6098ZM26.6697 44.5499C26.5013 44.5499 26.33 44.5527 26.156 44.5578C25.9256 44.547 25.7797 44.4903 25.7178 44.3894C25.729 44.137 25.8782 44.0103 26.1639 44.0103C26.4 44.0103 26.6918 44.2041 27.0399 44.5911C26.9165 44.5696 26.7931 44.555 26.6697 44.5499ZM44.8432 11.5445C44.9671 11.5445 45.0834 11.6275 45.1927 11.7932C45.3021 11.9588 45.3593 12.1427 45.3649 12.3449C45.1181 12.3168 44.9023 12.2384 44.7165 12.1089C44.6827 12.0859 44.5396 11.9597 44.2877 11.7303C44.4228 11.6064 44.6077 11.5445 44.8432 11.5445ZM33.1201 13.0098C33.0713 12.625 33.0296 12.2858 32.9911 11.9724C34.3897 12.0123 34.9312 12.2365 35.3919 13.1773C35.2845 13.1965 34.4822 13.288 33.1745 13.4485C33.1553 13.2894 33.137 13.1421 33.1201 13.0098ZM20.1682 41.0957C20.2489 41.1253 20.3465 41.1084 20.4056 41.046C20.8157 40.611 20.9518 40.0002 20.9945 39.7186C21.0076 39.6318 20.9555 39.5511 20.8711 39.5272C20.3901 39.3916 18.8465 38.9098 18.8165 38.2998C18.7635 37.232 22.737 37.2986 23.1504 37.3056C25.0402 37.3375 26.7199 37.8335 26.1555 40.1498C25.5244 42.7407 23.8194 43.7729 21.7663 43.9953C21.5626 44.0173 20.6186 44.0018 20.1068 43.9033C19.6554 43.8165 19.2636 43.6983 18.9371 43.5557C17.6492 42.9893 17.005 41.9839 17.005 40.5411C17.005 40.132 17.088 39.6896 17.2363 39.2223C18.2342 40.337 18.8953 40.6336 20.1682 41.0957ZM13.5508 20.5646C13.8497 20.4163 14.1518 20.2639 14.4681 20.0935C15.8024 19.3747 16.5705 18.8901 16.7737 18.6386C17.0387 18.3111 17.2255 17.8185 17.3343 17.1588C17.3892 16.8097 17.3911 16.3124 17.3409 15.6677C17.5009 15.7146 17.6426 15.7461 17.8298 15.7625V15.7705H19.0182C19.2406 17.3286 19.5921 20.4027 19.7516 21.9858C19.9036 23.4848 20.0603 24.5011 20.2231 25.0341C20.346 25.4441 20.5849 25.8251 20.9053 26.2052C21.5218 26.9376 22.9801 26.9376 22.9801 26.9376C22.9801 26.9376 23.2977 26.9544 23.7636 26.9249C24.2412 30.7427 24.48 32.8943 24.48 33.3748C24.48 33.4475 24.4749 33.4921 24.4636 33.5094C24.3951 33.6605 24.3163 33.7816 24.2295 33.8796C23.5342 34.3197 22.6024 34.5126 21.7156 34.5843C22.6005 34.0274 23.0851 33.6924 23.1597 33.5845C23.2907 33.2814 23.3972 33.0069 23.4788 32.7592C23.5224 32.6527 23.5445 32.5744 23.5445 32.5232C23.5445 32.4894 23.5281 32.473 23.4952 32.473C23.4572 32.473 23.3779 32.5119 23.2583 32.5903C22.09 33.3372 21.0672 33.9828 20.1889 34.5276C20.096 34.5384 20.0035 34.544 19.9106 34.544C19.0811 34.544 18.2929 34.2296 17.5455 33.6014C16.8905 33.0459 16.5635 32.5659 16.5635 32.1615C16.5635 31.9367 16.9834 31.6899 17.8242 31.4202C18.6316 31.1626 19.3162 31.0331 19.8783 31.0331C20.1077 31.0331 20.5004 31.1086 21.0569 31.2597C21.1333 31.2827 21.1962 31.2935 21.2455 31.2935C21.3112 31.2935 21.3431 31.2714 21.3431 31.2259C21.3431 31.0636 21.0756 30.8553 20.5412 30.6028C19.9195 30.3115 19.2617 30.1702 18.5688 30.182C17.925 30.1928 17.3545 30.4396 16.8581 30.9223C16.3345 31.4277 16.0727 32.0479 16.0727 32.7841C16.0727 33.2777 16.2716 33.7548 16.67 34.2156C16.959 34.5473 17.3545 34.8668 17.8565 35.1755C18.0273 35.2736 18.1986 35.3716 18.3694 35.4697L18.3558 35.4861C18.3755 35.4894 18.3938 35.4918 18.413 35.495C18.5111 35.5513 18.6096 35.6076 18.7076 35.6639C18.2333 36.0975 17.7824 36.7778 17.354 37.6927C16.7615 36.8876 16.0746 35.6513 15.687 33.919C15.6847 33.9087 15.6823 33.8984 15.68 33.8885C15.6453 33.7318 15.6199 33.5615 15.5904 33.3968C15.5115 32.8357 15.4299 31.9367 15.3032 30.7187C15.1395 29.1634 14.9645 27.8553 14.7791 26.7945C14.7637 26.7067 14.7463 26.6087 14.7275 26.5059C16.2097 26.0147 17.4338 25.4915 17.9368 25.3287C18.9446 25.0026 19.2674 25.3916 18.5735 26.2206C17.7261 27.2327 16.4724 28.3432 16.3378 28.5675C16.2031 28.7913 16.5728 28.568 16.5728 28.568C16.5728 28.568 17.7876 27.6155 18.4721 26.8981C19.228 26.1062 19.7164 25.2452 19.6502 24.4692C19.5841 23.6936 17.1725 24.358 15.0147 25.2185C14.8505 25.2841 14.6858 25.3442 14.5211 25.4024C14.2551 24.0042 13.8816 22.1293 13.5508 20.5646Z" fill="#F9B115"/>
<path d="M42.5144 52.6414L41.5033 52.7507C41.371 52.7648 41.2382 52.7723 41.1054 52.7723L8.50356 52.7798C8.50356 52.7798 6.67889 52.8089 7.0838 52.0596C7.54548 51.2057 10.8692 51.3094 11.1465 49.3937C11.4233 47.478 9.50761 46.3468 9.50761 46.3468L9.9463 46.2891L8.62085 45.3202L8.57769 46.5565L8.68607 46.6109C8.68607 46.6109 10.1823 48.2047 10.7247 49.0183C10.7247 49.0183 10.9522 49.3979 10.7247 49.5386C10.4971 49.6794 10.3019 49.853 8.90283 50.2434C7.50419 50.6337 6.22472 51.8808 6.28947 52.8239C6.35421 53.7669 7.59052 53.8106 8.37124 53.8758C9.15197 53.941 39.7307 53.8758 39.7307 53.8758C39.7307 53.8758 41.5024 53.5019 42.4914 52.8281C42.7668 52.6395 42.5144 52.6414 42.5144 52.6414Z" fill="#F9B115"/>
<path d="M6.51547 44.8006C6.85938 45.0099 6.89081 45.0399 7.27414 45.2665C7.59741 44.9489 7.94554 44.62 8.02015 44.2531C8.04314 44.1391 7.84748 44.0617 7.58193 43.8688C7.30041 43.6647 7.15778 43.6075 7.01139 43.486C6.45447 43.9186 6.28885 44.4379 6.2729 44.5032C6.23489 44.6303 6.35031 44.7073 6.51547 44.8006Z" fill="#F9B115"/>
<path d="M40.5881 50.2367C40.5998 50.2367 40.6078 50.2587 40.612 50.3024C40.6158 50.346 40.6275 50.3699 40.6477 50.3737C40.8039 50.4192 40.9067 50.3432 40.9231 50.3249C40.9367 50.3094 41.0667 50.1569 40.9742 49.8332C40.9029 49.7501 40.81 49.7084 40.6951 49.7084C40.3268 49.7084 40.0434 50.0349 39.8458 50.6885C39.8069 50.9245 39.9664 50.9972 40.0659 51.0273C40.0776 51.0315 40.1785 51.0512 40.369 51.0864C40.072 51.3322 39.9233 51.4964 39.9233 51.5795C39.9233 51.6114 39.9378 51.6513 39.9819 51.6564C40.0293 51.6621 40.0889 51.6649 40.1729 51.6151C40.3113 51.4964 40.5571 51.3576 40.9095 51.199C41.2262 51.0606 41.4397 50.925 41.5485 50.7922C41.6574 50.6594 41.7123 50.5196 41.7123 50.3732C41.7123 50.3258 41.6982 50.3019 41.6705 50.3019C41.6588 50.3061 41.6447 50.3099 41.6288 50.3136C41.5654 50.3455 41.4523 50.4187 41.2905 50.5337C41.1675 50.6209 41.031 50.6923 40.8804 50.7476C40.7814 50.7237 40.4792 50.7528 40.1926 50.5215C40.1912 50.4187 40.3385 50.2723 40.5881 50.2367Z" fill="#F9B115"/>
<path d="M43.3868 15.3272C43.5646 15.4684 43.7288 15.6364 43.986 15.6659C44.2548 15.4473 44.2961 15.0508 44.0859 14.7829C43.9334 14.5887 43.7406 14.5929 43.5961 14.7937C43.5566 14.8491 43.5285 14.9298 43.4745 14.9542C43.3558 15.0077 43.3117 15.1081 43.262 15.2099C43.1208 15.498 42.919 15.7335 42.6469 15.9048C42.4921 16.0019 42.3372 16.1028 42.173 16.1811C41.6156 16.4467 41.0535 16.7024 40.4933 16.9618C40.4262 16.9928 40.3577 17.0224 40.2695 17.0618C40.3118 17.0768 40.3263 17.0881 40.338 17.0857C40.7035 17.0097 41.0747 16.9534 41.4331 16.8516C42.2697 16.6142 42.9711 16.1905 43.3549 15.3624C43.3605 15.3497 43.3741 15.3413 43.3868 15.3272ZM44.0296 15.2601C43.8724 15.2465 43.7683 15.1606 43.6528 15.0537C43.8865 14.9589 43.9498 14.9964 44.0296 15.2601Z" fill="#F9B115"/>
<path d="M21.4673 42.2969C22.3039 42.0595 23.0053 41.6358 23.3891 40.8077C23.3952 40.795 23.4088 40.7861 23.422 40.7725C23.5998 40.9137 23.764 41.0817 24.0211 41.1113C24.29 40.8926 24.3312 40.4962 24.121 40.2283C23.9686 40.034 23.7757 40.0382 23.6312 40.239C23.5918 40.2944 23.5637 40.3751 23.5097 40.3995C23.391 40.453 23.3469 40.5534 23.2972 40.6552C23.1559 40.9433 22.9542 41.1788 22.6821 41.3501C22.5272 41.4472 22.3724 41.5481 22.2082 41.6264C21.6508 41.892 21.0887 42.1477 20.5285 42.4072C20.4614 42.4381 20.3929 42.4677 20.3047 42.5071C20.3469 42.5221 20.3615 42.5334 20.3732 42.531C20.7382 42.455 21.1093 42.3987 21.4673 42.2969ZM24.0647 40.7054C23.9076 40.6918 23.8034 40.6059 23.688 40.499C23.9212 40.4037 23.985 40.4413 24.0647 40.7054Z" fill="#F9B115"/>
<path d="M41.2494 39.7732C41.11 39.7057 40.9482 39.7399 40.8248 39.8905C40.7441 39.9886 40.6704 40.1017 40.6282 40.2208C40.5123 40.5479 40.4138 40.881 40.3138 41.1958C40.1984 40.9363 40.0835 40.6506 39.9469 40.3761C39.8188 40.119 39.6082 39.9656 39.2765 39.951C39.1756 40.0984 39.0663 40.2574 38.9668 40.4029C39.1362 40.6938 39.3365 40.8364 39.6593 40.7144C39.7804 40.9392 39.9085 41.1423 40.0004 41.3605C40.09 41.574 40.1421 41.8025 40.2247 42.0675C40.4011 41.8583 40.4673 41.6561 40.5179 41.4431C40.5892 41.1437 40.669 40.8463 40.7544 40.5502C40.7929 40.4165 40.8539 40.2889 41.0181 40.2405C41.1354 40.3212 41.2536 40.4019 41.3986 40.5019C41.4375 40.3743 41.4788 40.2832 41.4924 40.1885C41.5121 40.0421 41.385 39.8384 41.2494 39.7732Z" fill="#F9B115"/>
<path d="M15.0476 38.8318C15.0729 38.7023 15.1198 38.5756 15.2714 38.5165C15.3891 38.5831 15.5083 38.6497 15.6538 38.7319C15.68 38.6075 15.7115 38.5184 15.7162 38.4274C15.7232 38.2875 15.5857 38.105 15.452 38.0544C15.3141 38.0018 15.1639 38.0483 15.0598 38.2012C14.9917 38.3007 14.9312 38.4142 14.9012 38.5301C14.8186 38.8496 14.7534 39.1734 14.6849 39.4797C14.554 39.2437 14.4207 38.9829 14.2687 38.7342C14.1261 38.5015 13.8985 38.2913 13.5978 38.3879C13.3951 38.4532 13.3702 38.669 13.3421 38.8416C13.3294 38.92 13.7287 39.2217 14.0243 39.0791C14.1575 39.2817 14.2959 39.4633 14.4015 39.6627C14.5043 39.8574 14.5732 40.0695 14.6732 40.3135C14.8228 40.1005 14.8684 39.9034 14.8989 39.6974C14.9411 39.408 14.9917 39.1194 15.0476 38.8318Z" fill="#F9B115"/>
<path d="M9.30942 32.6488C9.45909 32.4358 9.5046 32.2388 9.5351 32.0328C9.5778 31.7433 9.628 31.4548 9.6843 31.1676C9.70964 31.0381 9.75656 30.9114 9.9081 30.8523C10.0259 30.9189 10.145 30.9856 10.2905 31.0677C10.3168 30.9433 10.3482 30.8542 10.3529 30.7632C10.3599 30.6234 10.2225 30.4408 10.0887 30.3902C9.9508 30.3376 9.80066 30.3841 9.6965 30.537C9.62847 30.6365 9.56794 30.75 9.53792 30.8664C9.45534 31.1859 9.39012 31.5096 9.32162 31.816C9.19072 31.58 9.05747 31.3192 8.90545 31.0705C8.76282 30.8378 8.53526 30.6276 8.23452 30.7242C8.03183 30.7894 8.00696 31.0053 7.97881 31.1779C7.96614 31.2563 8.36542 31.558 8.66101 31.4153C8.79426 31.618 8.93266 31.7996 9.03823 31.999C9.14098 32.1923 9.20949 32.4049 9.30942 32.6488Z" fill="#F9B115"/>
<path d="M13.5809 14.2747C13.443 14.2221 13.2928 14.2686 13.1887 14.4211C13.1207 14.5206 13.0601 14.6341 13.0301 14.7505C12.9475 15.07 12.8823 15.3937 12.8138 15.7001C12.6829 15.4641 12.5497 15.2032 12.3976 14.9545C12.255 14.7218 12.0275 14.5116 11.7267 14.6083C11.524 14.6735 11.4991 14.8893 11.471 15.062C11.4583 15.1403 11.8576 15.442 12.1532 15.2994C12.2864 15.5021 12.4249 15.6837 12.5304 15.8831C12.6332 16.0778 12.7017 16.2899 12.8021 16.5338C12.9517 16.3208 12.9973 16.1238 13.0278 15.9178C13.0705 15.6283 13.1207 15.3397 13.177 15.0526C13.2023 14.9226 13.2492 14.7964 13.4008 14.7373C13.5185 14.8039 13.6377 14.8706 13.7827 14.9527C13.809 14.8283 13.8404 14.7392 13.8451 14.6482C13.8526 14.5079 13.7151 14.3254 13.5809 14.2747Z" fill="#F9B115"/>
<path d="M9.11447 41.3835C9.04644 41.483 8.98591 41.5966 8.95588 41.7129C8.87331 42.0324 8.80809 42.3562 8.73959 42.6625C8.60869 42.4265 8.47544 42.1657 8.32342 41.917C8.18079 41.6843 7.95323 41.4741 7.65248 41.5707C7.4498 41.636 7.42493 41.8518 7.39678 42.0245C7.38411 42.1028 7.78339 42.4045 8.07897 42.2619C8.21222 42.4645 8.35063 42.6461 8.4562 42.8455C8.55895 43.0402 8.62745 43.2523 8.72786 43.4963C8.87753 43.2833 8.92304 43.0862 8.95354 42.8802C8.99623 42.5908 9.04644 42.3022 9.10274 42.0151C9.12807 41.8851 9.17499 41.7589 9.32654 41.6998C9.44431 41.7664 9.56348 41.833 9.70893 41.9151C9.7352 41.7908 9.76664 41.7016 9.77133 41.6106C9.77837 41.4708 9.64089 41.2883 9.50718 41.2376C9.36877 41.1846 9.21863 41.2311 9.11447 41.3835Z" fill="#F9B115"/>
<path d="M7.53514 11.4097C7.66511 11.6866 7.80305 11.9362 7.90205 12.205C7.9987 12.4678 8.05453 12.7493 8.14274 13.0749C8.33276 12.8173 8.40314 12.5686 8.45803 12.3064C8.53451 11.938 8.62037 11.5716 8.71233 11.2075C8.75409 11.0433 8.81884 10.8857 8.99572 10.8261C9.12146 10.9251 9.24908 11.025 9.40438 11.1475C9.44614 10.9903 9.49071 10.8786 9.50526 10.7618C9.52731 10.5821 9.39031 10.3315 9.24486 10.2508C9.09472 10.1673 8.92112 10.21 8.78834 10.3949C8.70201 10.5155 8.62272 10.6548 8.57721 10.8012C8.4524 11.2038 8.34684 11.6138 8.23892 12.0009C8.11506 11.6814 7.99119 11.33 7.84481 10.9922C7.70734 10.6755 7.48072 10.4868 7.12414 10.469C7.01576 10.6501 6.89846 10.8462 6.79102 11.025C6.97306 11.3839 7.18842 11.5599 7.53514 11.4097Z" fill="#F9B115"/>
<path d="M40.4299 52.5515C41.4597 51.8022 43.8488 50.3158 44.2439 50.0709L44.2274 49.6477C43.4036 50.1624 40.9131 51.7816 40.4219 52.1353L40.4299 52.5515Z" fill="#F9B115"/>
<path d="M31.9911 15.7229C31.0096 16.1935 27.357 18.119 26.7658 18.4517L26.7227 18.9166C27.9622 18.2105 31.4858 16.4201 31.9564 16.1963L31.9911 15.7229Z" fill="#F9B115"/>
<path d="M11.5732 27.8457C10.5916 28.3163 6.93903 30.2418 6.34785 30.5745L6.30469 31.0395C7.54428 30.3333 11.0679 28.5429 11.5385 28.3191L11.5732 27.8457Z" fill="#F9B115"/>
<path d="M18.1367 29.6909C19.3763 28.9847 21.292 28.0595 21.7626 27.8357L21.7968 27.3623C20.8153 27.8329 18.7706 28.8933 18.1794 29.2259L18.1367 29.6909Z" fill="#F9B115"/>
<path d="M19.709 30.0173C20.9486 29.3112 22.8643 28.3859 23.3349 28.1621L23.3691 27.6887C22.3876 28.1593 20.3429 29.2197 19.7517 29.5523L19.709 30.0173Z" fill="#F9B115"/>
<path d="M11.4599 38.675C10.4784 39.1456 6.82575 41.0712 6.23457 41.4038L6.19141 41.8688C7.431 41.1627 10.9546 39.3723 11.4252 39.1485L11.4599 38.675Z" fill="#F9B115"/>
<path d="M38.2236 9.53896C38.156 10.0349 37.0905 10.5881 37.0905 10.5881C37.0905 10.5881 37.5109 10.5815 37.8346 10.4492C38.1584 10.3169 38.7294 9.41698 38.8593 9.12045C38.9893 8.82346 38.69 8.66675 38.69 8.66675C38.69 8.66675 37.2242 8.89665 36.9455 9.00456C36.5303 9.16549 36.6321 9.8993 36.6321 9.8993C37.0774 9.55586 38.2236 9.53896 38.2236 9.53896Z" fill="#F9B115"/>
<path d="M32.0768 47.9827C32.0768 47.9827 32.4972 47.9761 32.821 47.8434C33.1447 47.711 33.7157 46.8111 33.8457 46.5146C33.9756 46.2176 33.6763 46.0609 33.6763 46.0609C33.6763 46.0609 32.2106 46.2908 31.9319 46.3987C31.5166 46.5597 31.6184 47.2939 31.6184 47.2939C32.0632 46.9514 33.2095 46.9341 33.2095 46.9341C33.1424 47.4295 32.0768 47.9827 32.0768 47.9827Z" fill="#F9B115"/>
<path d="M11.8351 11.6876C12.5501 11.1536 13.0315 10.7056 13.2787 10.3434C13.5011 10.4813 13.6508 10.5695 13.7273 10.607C13.7751 10.6319 13.8244 10.593 13.8746 10.4897C13.9253 10.3865 13.9403 10.2889 13.9192 10.1965C13.7878 10.0525 13.663 9.94221 13.5452 9.86479C13.633 9.6926 13.6846 9.52698 13.701 9.36745C13.7409 8.96911 13.5945 8.75329 13.2609 8.71998C13.1464 8.70825 12.9986 8.80161 12.818 8.99961C12.6374 9.19761 12.5412 9.3515 12.5304 9.46082C12.5107 9.65506 12.5576 9.81318 12.6711 9.93517C12.802 10.0337 12.9306 10.1322 13.0563 10.2303C12.8865 10.5198 12.4304 10.9289 11.6882 11.4577C11.2397 11.7697 10.7935 12.0817 10.3496 12.3942C10.3609 12.4303 10.389 12.4509 10.4341 12.4556C10.6532 12.4777 11.12 12.2215 11.8351 11.6876ZM12.9405 9.35901C12.9667 9.24593 13.0423 9.19573 13.1666 9.2084C13.3257 9.22435 13.3927 9.36182 13.3665 9.62081C13.3604 9.6804 13.3472 9.73717 13.3266 9.79019C13.0446 9.60064 12.9156 9.45707 12.9405 9.35901Z" fill="#F9B115"/>
<path d="M15.1826 46.1731C15.1057 46.4635 15.0545 46.7605 15.1606 47.0571C15.2089 47.1931 15.3013 47.2893 15.4501 47.2959C15.5861 47.3015 15.6936 47.2316 15.7428 47.103C15.8193 46.9046 15.8841 46.7014 15.954 46.5001C15.9338 46.4903 15.9136 46.4809 15.893 46.471C15.84 46.5522 15.7884 46.6343 15.7325 46.7131C15.6757 46.7934 15.5927 46.8567 15.5003 46.8126C15.436 46.7816 15.3778 46.7028 15.3525 46.6329C15.2849 46.4443 15.3304 46.2576 15.3924 46.0736C15.4717 45.8381 15.5641 45.6059 15.6241 45.3642C16.0497 43.6433 15.2572 41.6018 14.8162 41.2814C14.7388 41.417 14.6773 41.9143 14.6191 42.0161C14.7909 42.2362 15.656 43.9187 15.4444 45.3426C15.4013 45.6298 15.2572 45.893 15.1826 46.1731Z" fill="#F9B115"/>
<path d="M46.4879 45.9818C46.4311 46.062 46.3481 46.1254 46.2557 46.0813C46.1914 46.0503 46.1332 45.9715 46.1079 45.9016C46.0403 45.713 46.0858 45.5262 46.1478 45.3423C46.227 45.1068 46.3195 44.8745 46.3795 44.6329C46.8051 42.9119 46.0126 40.8705 45.5716 40.55C45.4942 40.6856 45.4327 41.183 45.375 41.2848C45.5463 41.5048 46.4114 43.1873 46.2003 44.6113C46.1576 44.8985 46.0136 45.1617 45.939 45.4418C45.862 45.7322 45.8109 46.0292 45.9169 46.3257C45.9652 46.4618 46.0577 46.558 46.2064 46.5645C46.3425 46.5702 46.4499 46.5003 46.4992 46.3717C46.5756 46.1732 46.6404 45.9701 46.7103 45.7688C46.6901 45.759 46.67 45.7496 46.6493 45.7397C46.5954 45.8204 46.5437 45.9025 46.4879 45.9818Z" fill="#F9B115"/>
<path d="M13.004 31.2401C13.0786 30.9924 13.1617 30.7461 13.241 30.4993C13.2297 30.4955 13.2189 30.4918 13.2077 30.4875C13.1237 30.6278 13.0327 30.7658 12.9571 30.9089C12.7352 31.3311 12.6273 31.7745 12.6629 32.24C12.6695 32.323 12.6972 32.4112 12.7422 32.4839C12.8581 32.6702 13.1547 32.6946 13.2949 32.5224C13.4578 32.323 13.5267 32.0898 13.5375 31.8412C13.4911 31.8768 13.4624 31.9204 13.431 31.9622C13.3972 32.0063 13.3644 32.0518 13.324 32.0912C13.1697 32.2404 12.9933 32.2118 12.9365 32.0185C12.9032 31.9059 12.891 31.7825 12.9032 31.6666C12.9177 31.5226 12.9618 31.3804 13.004 31.2401Z" fill="#F9B115"/>
<path d="M17.4351 22.6612C17.551 22.8474 17.8475 22.8718 17.9878 22.6997C18.1506 22.5003 18.2196 22.2671 18.2304 22.0184C18.184 22.0541 18.1553 22.0977 18.1239 22.1394C18.0901 22.1835 18.0573 22.2291 18.0169 22.2685C17.8626 22.4177 17.6861 22.3891 17.6294 22.1957C17.5961 22.0831 17.5839 21.9597 17.5961 21.8439C17.6111 21.7003 17.6547 21.5581 17.6974 21.4174C17.772 21.1696 17.8551 20.9233 17.9343 20.6765C17.9231 20.6728 17.9123 20.669 17.901 20.6648C17.817 20.8051 17.726 20.943 17.6505 21.0861C17.4286 21.5084 17.3207 21.9518 17.3563 22.4172C17.3619 22.4998 17.3896 22.588 17.4351 22.6612Z" fill="#F9B115"/>
<path d="M8.82045 23.8595C8.89505 23.6118 8.9781 23.3655 9.05739 23.1187C9.04613 23.1149 9.03534 23.1112 9.02408 23.1069C8.9401 23.2472 8.84908 23.3852 8.77354 23.5283C8.55161 23.9505 8.4437 24.3939 8.47936 24.8593C8.48592 24.9424 8.51361 25.0306 8.55865 25.1033C8.67454 25.2896 8.97106 25.314 9.11135 25.1418C9.27416 24.9424 9.34313 24.7092 9.35392 24.4605C9.30747 24.4962 9.27885 24.5398 9.24741 24.5816C9.21363 24.6257 9.18079 24.6712 9.14044 24.7106C8.98608 24.8598 8.80966 24.8312 8.75289 24.6379C8.71958 24.5253 8.70738 24.4019 8.71958 24.286C8.73412 24.1424 8.77776 24.0003 8.82045 23.8595Z" fill="#F9B115"/>
<path d="M8.49819 34.5162C8.57279 34.2685 8.65584 34.0222 8.73513 33.7754C8.72387 33.7716 8.71308 33.7679 8.70182 33.7637C8.61783 33.904 8.52681 34.0419 8.45127 34.185C8.22934 34.6073 8.12143 35.0507 8.15709 35.5161C8.16366 35.5991 8.19134 35.6873 8.23638 35.7601C8.35227 35.9463 8.6488 35.9707 8.78908 35.7985C8.95189 35.5991 9.02086 35.3659 9.03165 35.1173C8.9852 35.1529 8.95658 35.1966 8.92515 35.2383C8.89137 35.2824 8.85852 35.3279 8.81817 35.3673C8.66381 35.5166 8.4874 35.4879 8.43063 35.2946C8.39731 35.182 8.38511 35.0586 8.39731 34.9427C8.41233 34.7992 8.45596 34.657 8.49819 34.5162Z" fill="#F9B115"/>
<path d="M21.4591 18.7221C21.5337 18.4743 21.6168 18.228 21.6961 17.9812C21.6848 17.9775 21.674 17.9737 21.6628 17.9695C21.5788 18.1098 21.4877 18.2477 21.4122 18.3908C21.1903 18.8131 21.0824 19.2565 21.118 19.7219C21.1246 19.8049 21.1523 19.8931 21.1973 19.9659C21.3132 20.1521 21.6097 20.1765 21.75 20.0043C21.9128 19.8049 21.9818 19.5718 21.9926 19.3231C21.9461 19.3587 21.9175 19.4024 21.8861 19.4441C21.8523 19.4882 21.8195 19.5337 21.7791 19.5732C21.6247 19.7224 21.4483 19.6937 21.3916 19.5004C21.3583 19.3878 21.3461 19.2644 21.3583 19.1485C21.3733 19.005 21.4169 18.8628 21.4591 18.7221Z" fill="#F9B115"/>
<path d="M9.37434 15.7655C9.21998 15.9147 9.04357 15.8861 8.9868 15.6928C8.95348 15.5802 8.94129 15.4568 8.95349 15.3409C8.9685 15.1974 9.01213 15.0552 9.05483 14.9144C9.12943 14.6667 9.21248 14.4204 9.29177 14.1736C9.28051 14.1698 9.26972 14.1661 9.25846 14.1619C9.17447 14.3022 9.08345 14.4401 9.00791 14.5832C8.78599 15.0055 8.67807 15.4488 8.71373 15.9143C8.7203 15.9973 8.74798 16.0855 8.79302 16.1583C8.90891 16.3445 9.20544 16.3689 9.34572 16.1967C9.50853 15.9973 9.5775 15.7641 9.58829 15.5155C9.54184 15.5511 9.51322 15.5948 9.48179 15.6365C9.44707 15.6806 9.41469 15.7261 9.37434 15.7655Z" fill="#F9B115"/>
<path d="M14.8888 16.2099C14.9634 15.9621 15.0465 15.7158 15.1258 15.469C15.1145 15.4653 15.1037 15.4615 15.0924 15.4573C15.0085 15.5976 14.9174 15.7355 14.8419 15.8786C14.62 16.3009 14.5121 16.7443 14.5477 17.2097C14.5543 17.2927 14.582 17.3809 14.627 17.4537C14.7429 17.6399 15.0394 17.6643 15.1797 17.4921C15.3425 17.2927 15.4115 17.0595 15.4223 16.8109C15.3758 16.8465 15.3472 16.8902 15.3158 16.9319C15.282 16.976 15.2491 17.0215 15.2088 17.061C15.0544 17.2102 14.878 17.1815 14.8213 16.9882C14.7879 16.8756 14.7757 16.7522 14.7879 16.6363C14.8025 16.4928 14.8466 16.3506 14.8888 16.2099Z" fill="#F9B115"/>
<path d="M11.0783 43.7091C11.1529 43.4614 11.2359 43.2151 11.3152 42.9683C11.3039 42.9645 11.2932 42.9608 11.2819 42.9565C11.1979 43.0968 11.1069 43.2348 11.0313 43.3779C10.8094 43.8001 10.7015 44.2435 10.7372 44.709C10.7437 44.792 10.7714 44.8802 10.8165 44.9529C10.9324 45.1392 11.2289 45.1636 11.3692 44.9914C11.532 44.792 11.6009 44.5588 11.6117 44.3101C11.5653 44.3458 11.5367 44.3894 11.5052 44.4312C11.4714 44.4753 11.4386 44.5208 11.3983 44.5602C11.2439 44.7094 11.0675 44.6808 11.0107 44.4875C10.9774 44.3749 10.9652 44.2515 10.9774 44.1356C10.9919 43.9916 11.0356 43.8494 11.0783 43.7091Z" fill="#F9B115"/>
<path d="M24.5744 46.4473C24.649 46.1995 24.732 45.9532 24.8113 45.7064C24.8 45.7027 24.7892 45.6989 24.778 45.6947C24.694 45.835 24.603 45.9729 24.5274 46.116C24.3055 46.5383 24.1976 46.9817 24.2333 47.4471C24.2398 47.5302 24.2675 47.6184 24.3126 47.6911C24.4284 47.8774 24.725 47.9018 24.8653 47.7296C25.0281 47.5302 25.097 47.297 25.1078 47.0488C25.0614 47.0844 25.0328 47.1281 25.0013 47.1698C24.9675 47.2139 24.9347 47.2594 24.8943 47.2988C24.74 47.4481 24.5636 47.4194 24.5068 47.2261C24.4735 47.1135 24.4613 46.9901 24.4735 46.8742C24.488 46.7297 24.5321 46.5876 24.5744 46.4473Z" fill="#F9B115"/>
<path d="M38.5158 23.5287C38.5904 23.281 38.6734 23.0346 38.7527 22.7879C38.7414 22.7841 38.7307 22.7803 38.7194 22.7761C38.6354 22.9164 38.5444 23.0543 38.4688 23.1975C38.2469 23.6197 38.139 24.0631 38.1747 24.5285C38.1812 24.6116 38.2089 24.6998 38.2544 24.7725C38.3703 24.9588 38.6668 24.9832 38.8071 24.811C38.9699 24.6116 39.0389 24.3784 39.0497 24.1297C39.0033 24.1654 38.9746 24.209 38.9432 24.2508C38.9094 24.2949 38.8766 24.3404 38.8362 24.3798C38.6819 24.529 38.5054 24.5004 38.4487 24.3071C38.4154 24.1945 38.4032 24.0711 38.4154 23.9552C38.4294 23.8111 38.4731 23.669 38.5158 23.5287Z" fill="#F9B115"/>
<path d="M27.9279 21.8871C28.0025 21.6394 28.0855 21.393 28.1648 21.1463C28.1536 21.1425 28.1428 21.1387 28.1315 21.1345C28.0475 21.2748 27.9565 21.4127 27.881 21.5558C27.659 21.9781 27.5511 22.4215 27.5868 22.8869C27.5933 22.97 27.621 23.0582 27.6661 23.1309C27.782 23.3172 28.0785 23.3416 28.2188 23.1694C28.3816 22.97 28.4505 22.7368 28.4613 22.4881C28.4149 22.5238 28.3863 22.5674 28.3548 22.6092C28.3211 22.6533 28.2882 22.6988 28.2479 22.7382C28.0935 22.8874 27.9171 22.8588 27.8603 22.6655C27.827 22.5529 27.8148 22.4295 27.827 22.3136C27.8415 22.17 27.8856 22.0279 27.9279 21.8871Z" fill="#F9B115"/>
<path d="M7.23061 47.9393C7.30521 47.6916 7.38826 47.4453 7.46755 47.1985C7.45629 47.1947 7.4455 47.191 7.43424 47.1868C7.35025 47.3271 7.25923 47.465 7.18369 47.6081C6.96177 48.0304 6.85385 48.4737 6.88951 48.9392C6.89608 49.0222 6.92376 49.1104 6.9688 49.1832C7.08469 49.3694 7.38122 49.3938 7.52151 49.2216C7.68431 49.0222 7.75328 48.789 7.76407 48.5404C7.71763 48.576 7.68901 48.6197 7.65757 48.6614C7.62379 48.7055 7.59094 48.751 7.55059 48.7904C7.39623 48.9396 7.21982 48.911 7.16305 48.7177C7.12974 48.6051 7.11754 48.4817 7.12974 48.3658C7.14428 48.2223 7.18791 48.0801 7.23061 47.9393Z" fill="#F9B115"/>
<path d="M41.5768 19.7316C41.4778 19.8846 41.3755 20.0366 41.2634 20.1801C41.1161 20.3688 40.958 20.5489 40.8008 20.7371C40.8247 20.7469 40.8327 20.7535 40.8378 20.7516C40.859 20.7446 40.8824 20.7389 40.8998 20.7258C41.2535 20.456 41.574 20.1543 41.8147 19.7757C41.9639 19.5416 42.0146 19.2854 41.9925 19.0119C41.9831 18.8913 41.939 18.7871 41.8321 18.7247C41.6951 18.645 41.3807 18.6909 41.2775 18.8139C41.1494 18.9678 41.0659 19.1446 41.0701 19.3553C41.2146 19.3319 41.3399 19.2971 41.4661 19.2948C41.6106 19.292 41.6861 19.4018 41.6519 19.5411C41.6359 19.6077 41.6134 19.6753 41.5768 19.7316Z" fill="#F9B115"/>
<path d="M35.653 16.1208C35.554 16.2737 35.4517 16.4257 35.3396 16.5693C35.1922 16.7579 35.0341 16.9381 34.877 17.1262C34.9009 17.1361 34.9089 17.1426 34.914 17.1408C34.9351 17.1337 34.9586 17.1281 34.976 17.115C35.3297 16.8452 35.6502 16.5435 35.8909 16.1649C36.0401 15.9307 36.0907 15.6746 36.0687 15.401C36.0593 15.2804 36.0152 15.1763 35.9082 15.1139C35.7712 15.0341 35.4569 15.0801 35.3536 15.203C35.2256 15.3569 35.142 15.5338 35.1463 15.7445C35.2908 15.721 35.416 15.6863 35.5423 15.6839C35.6868 15.6811 35.7623 15.7909 35.7281 15.9303C35.7126 15.9969 35.6896 16.0649 35.653 16.1208Z" fill="#F9B115"/>
<path d="M43.2585 48.3422C43.1595 48.4951 43.0572 48.6472 42.945 48.7907C42.7977 48.9793 42.6396 49.1595 42.4824 49.3477C42.5064 49.3575 42.5143 49.3641 42.5195 49.3622C42.5406 49.3552 42.5641 49.3495 42.5819 49.3364C42.9357 49.0666 43.2561 48.7649 43.4968 48.3863C43.646 48.1522 43.6967 47.896 43.6746 47.6225C43.6652 47.5019 43.6211 47.3977 43.5142 47.3353C43.3772 47.2556 43.0628 47.3015 42.9596 47.4245C42.8315 47.5784 42.748 47.7552 42.7522 47.9659C42.8967 47.9424 43.022 47.9077 43.1482 47.9054C43.2927 47.9026 43.3682 48.0124 43.334 48.1517C43.318 48.2183 43.2951 48.2864 43.2585 48.3422Z" fill="#F9B115"/>
<path d="M41.9969 36.9218C41.9875 36.8012 41.9434 36.697 41.8364 36.6346C41.6994 36.5549 41.3851 36.6009 41.2818 36.7238C41.1538 36.8777 41.0702 37.0546 41.0745 37.2652C41.219 37.2418 41.3443 37.207 41.4705 37.2047C41.615 37.2019 41.6905 37.3117 41.6563 37.451C41.6403 37.5167 41.6173 37.5847 41.5807 37.641C41.4817 37.794 41.3794 37.946 41.2673 38.0896C41.12 38.2782 40.9619 38.4584 40.8047 38.6465C40.8286 38.6564 40.8366 38.6629 40.8418 38.6611C40.8629 38.654 40.8863 38.6484 40.9037 38.6352C41.2575 38.3655 41.5779 38.0638 41.8186 37.6851C41.9683 37.4515 42.0189 37.1953 41.9969 36.9218Z" fill="#F9B115"/>
<path d="M38.8776 51.1819C38.7786 51.3349 38.6763 51.4869 38.5642 51.6305C38.4169 51.8191 38.2587 51.9992 38.1016 52.1874C38.1255 52.1972 38.1335 52.2038 38.1386 52.2019C38.1597 52.1949 38.1832 52.1893 38.201 52.1761C38.5548 51.9063 38.8753 51.6047 39.1159 51.226C39.2651 50.9919 39.3158 50.7357 39.2938 50.4622C39.2844 50.3416 39.2403 50.2374 39.1333 50.175C38.9963 50.0953 38.6819 50.1413 38.5787 50.2642C38.4506 50.4181 38.3671 50.595 38.3713 50.8056C38.5159 50.7822 38.6411 50.7474 38.7673 50.7451C38.9118 50.7423 38.9874 50.8521 38.9531 50.9914C38.9367 51.0576 38.9142 51.1256 38.8776 51.1819Z" fill="#F9B115"/>
<path d="M29.9948 47.4853C29.8958 47.6382 29.7935 47.7902 29.6814 47.9338C29.534 48.1224 29.3759 48.3026 29.2188 48.4907C29.2427 48.5006 29.2507 48.5071 29.2558 48.5053C29.2769 48.4982 29.3009 48.4926 29.3182 48.4795C29.672 48.2097 29.9924 47.908 30.2331 47.5294C30.3823 47.2952 30.433 47.0391 30.411 46.7655C30.4016 46.6449 30.3575 46.5408 30.2505 46.4784C30.1135 46.3986 29.7991 46.4446 29.6959 46.5675C29.5678 46.7214 29.4843 46.8983 29.4885 47.109C29.633 47.0855 29.7583 47.0508 29.8845 47.0485C30.029 47.0456 30.1046 47.1554 30.0703 47.2948C30.0544 47.3609 30.0314 47.429 29.9948 47.4853Z" fill="#F9B115"/>
<path d="M11.6502 51.9658C12.004 51.696 12.3245 51.3943 12.5652 51.0157C12.7144 50.7816 12.765 50.5254 12.743 50.2519C12.7336 50.1313 12.6895 50.0271 12.5825 49.9647C12.4455 49.885 12.1312 49.9309 12.0279 50.0539C11.8999 50.2078 11.8163 50.3846 11.8206 50.5953C11.9651 50.5718 12.0903 50.5371 12.2166 50.5348C12.3611 50.532 12.4366 50.6418 12.4024 50.7811C12.3864 50.8468 12.3634 50.9148 12.3268 50.9711C12.2278 51.1241 12.1255 51.2761 12.0134 51.4197C11.8661 51.6083 11.708 51.7884 11.5508 51.9766C11.5747 51.9864 11.5827 51.993 11.5878 51.9911C11.6094 51.9846 11.6329 51.9789 11.6502 51.9658Z" fill="#F9B115"/>
<path d="M27.8503 36.8118C27.7513 36.9648 27.649 37.1168 27.5368 37.2603C27.3895 37.449 27.2314 37.6291 27.0742 37.8173C27.0981 37.8271 27.1061 37.8337 27.1113 37.8318C27.1324 37.8248 27.1559 37.8191 27.1732 37.806C27.527 37.5362 27.8474 37.2345 28.0881 36.8559C28.2373 36.6218 28.288 36.3656 28.266 36.0921C28.2566 35.9715 28.2125 35.8673 28.1055 35.8049C27.9685 35.7252 27.6541 35.7711 27.5509 35.8941C27.4228 36.048 27.3393 36.2248 27.3435 36.4355C27.488 36.4121 27.6133 36.3773 27.7395 36.375C27.884 36.3722 27.9596 36.482 27.9253 36.6213C27.9098 36.6879 27.8868 36.7555 27.8503 36.8118Z" fill="#F9B115"/>
<path d="M41.1078 28.3476C41.0759 28.3476 41.0356 28.3236 40.9877 28.2753C40.9389 28.227 40.915 28.1871 40.915 28.1547C40.9197 27.9023 40.899 27.6682 40.8531 27.4524C40.8301 27.3285 40.7888 27.2661 40.7292 27.2661C40.6926 27.2661 40.6738 27.3327 40.6738 27.466C40.6879 28.0764 40.7362 28.4508 40.8188 28.5883C40.8925 28.7032 40.9887 28.7604 41.1078 28.7604C41.3326 28.7604 41.4639 28.6112 41.5005 28.3128C41.6286 28.5287 41.7436 28.6366 41.8444 28.6366C41.9406 28.6366 42.0373 28.585 42.1335 28.4813C42.2296 28.3781 42.262 28.2279 42.2296 28.0304C42.1335 27.7137 42.0485 27.489 41.9749 27.3557C41.9519 27.1999 41.9176 27.1216 41.8717 27.1216C41.8393 27.1216 41.8083 27.1685 41.7788 27.2628C41.7487 27.3571 41.7384 27.427 41.7473 27.473C41.8623 27.785 41.9495 28.0079 42.0091 28.1411C41.9814 28.196 41.9312 28.2124 41.8581 28.1895C41.7802 28.1665 41.7089 28.1022 41.6446 27.9966C41.608 27.937 41.5573 27.8291 41.4935 27.6729C41.4747 27.5396 41.4635 27.4458 41.4588 27.3904C41.4499 27.2806 41.4198 27.2253 41.3696 27.2253C41.2824 27.2253 41.2458 27.3078 41.2598 27.473C41.2641 27.4866 41.2847 27.5809 41.3218 27.7555C41.3537 27.9117 41.3701 28.0515 41.3701 28.1754C41.3692 28.2903 41.2819 28.3476 41.1078 28.3476Z" fill="#F9B115"/>
<path d="M62.7896 27.192C62.7176 27 62.6576 26.808 62.6096 26.616C62.5736 26.412 62.5436 26.19 62.5196 25.95C62.4956 25.698 62.4776 25.41 62.4656 25.086C62.4536 24.75 62.4476 24.348 62.4476 23.88C62.4476 23.412 62.4536 23.016 62.4656 22.692C62.4776 22.356 62.4956 22.068 62.5196 21.828C62.5436 21.576 62.5736 21.354 62.6096 21.162C62.6576 20.97 62.7176 20.772 62.7896 20.568C63.1136 19.56 63.6476 18.81 64.3916 18.318C65.1476 17.814 66.0656 17.562 67.1456 17.562C68.1896 17.562 69.0716 17.802 69.7916 18.282C70.5236 18.75 71.0636 19.416 71.4116 20.28C71.4716 20.388 71.4416 20.46 71.3216 20.496L69.3596 21.378C69.2516 21.438 69.1676 21.408 69.1076 21.288C68.9396 20.892 68.6996 20.562 68.3876 20.298C68.0876 20.034 67.6796 19.902 67.1636 19.902C66.6836 19.902 66.2876 20.022 65.9756 20.262C65.6756 20.502 65.4596 20.832 65.3276 21.252C65.2916 21.36 65.2616 21.48 65.2376 21.612C65.2136 21.732 65.1896 21.888 65.1656 22.08C65.1536 22.272 65.1416 22.512 65.1296 22.8C65.1296 23.088 65.1296 23.448 65.1296 23.88C65.1296 24.312 65.1296 24.672 65.1296 24.96C65.1416 25.248 65.1536 25.488 65.1656 25.68C65.1896 25.872 65.2136 26.034 65.2376 26.166C65.2616 26.286 65.2916 26.4 65.3276 26.508C65.4596 26.928 65.6756 27.258 65.9756 27.498C66.2876 27.738 66.6836 27.858 67.1636 27.858C67.6796 27.858 68.0876 27.726 68.3876 27.462C68.6996 27.198 68.9396 26.868 69.1076 26.472C69.1676 26.352 69.2516 26.322 69.3596 26.382L71.3216 27.264C71.4416 27.3 71.4716 27.372 71.4116 27.48C71.0636 28.344 70.5236 29.016 69.7916 29.496C69.0716 29.964 68.1896 30.198 67.1456 30.198C66.0656 30.198 65.1476 29.952 64.3916 29.46C63.6476 28.956 63.1136 28.2 62.7896 27.192ZM76.8151 30.198C75.8191 30.198 74.9911 29.982 74.3311 29.55C73.6711 29.118 73.2151 28.506 72.9631 27.714C72.8671 27.438 72.7891 27.138 72.7291 26.814C72.6811 26.49 72.6571 26.1 72.6571 25.644C72.6571 25.188 72.6811 24.798 72.7291 24.474C72.7771 24.138 72.8491 23.832 72.9451 23.556C73.1971 22.764 73.6471 22.158 74.2951 21.738C74.9551 21.306 75.7531 21.09 76.6891 21.09C77.6611 21.09 78.4651 21.306 79.1011 21.738C79.7491 22.17 80.1991 22.77 80.4511 23.538C80.4991 23.682 80.5411 23.838 80.5771 24.006C80.6131 24.162 80.6431 24.342 80.6671 24.546C80.6911 24.75 80.7091 24.99 80.7211 25.266C80.7331 25.53 80.7391 25.848 80.7391 26.22C80.7391 26.34 80.6731 26.4 80.5411 26.4H75.2671C75.1951 26.4 75.1591 26.436 75.1591 26.508C75.1711 26.688 75.2071 26.85 75.2671 26.994C75.3871 27.378 75.6031 27.666 75.9151 27.858C76.2271 28.05 76.6111 28.146 77.0671 28.146C77.4991 28.146 77.8771 28.08 78.2011 27.948C78.5251 27.804 78.8131 27.612 79.0651 27.372C79.1731 27.288 79.2571 27.288 79.3171 27.372L80.5051 28.488C80.6011 28.572 80.6071 28.656 80.5231 28.74C80.1031 29.184 79.5811 29.538 78.9571 29.802C78.3331 30.066 77.6191 30.198 76.8151 30.198ZM78.1471 24.726C78.2191 24.726 78.2551 24.69 78.2551 24.618C78.2551 24.486 78.2431 24.372 78.2191 24.276C78.2071 24.168 78.1891 24.066 78.1651 23.97C78.0691 23.67 77.8891 23.436 77.6251 23.268C77.3731 23.1 77.0671 23.016 76.7071 23.016C76.3471 23.016 76.0351 23.1 75.7711 23.268C75.5191 23.436 75.3451 23.67 75.2491 23.97C75.2251 24.066 75.2011 24.168 75.1771 24.276C75.1651 24.372 75.1591 24.486 75.1591 24.618C75.1591 24.69 75.1951 24.726 75.2671 24.726H78.1471ZM87.9993 30C87.8793 30 87.8193 29.94 87.8193 29.82V24.816C87.8193 24.336 87.7053 23.952 87.4773 23.664C87.2613 23.376 86.9253 23.232 86.4693 23.232C86.0373 23.232 85.7013 23.376 85.4613 23.664C85.2213 23.952 85.1013 24.336 85.1013 24.816V29.82C85.1013 29.94 85.0413 30 84.9213 30H82.7613C82.6413 30 82.5813 29.94 82.5813 29.82V21.468C82.5813 21.348 82.6413 21.288 82.7613 21.288H84.9213C85.0413 21.288 85.1013 21.348 85.1013 21.468V22.08H85.1193C85.3233 21.804 85.6053 21.57 85.9653 21.378C86.3373 21.186 86.8053 21.09 87.3693 21.09C87.8493 21.09 88.2753 21.168 88.6473 21.324C89.0193 21.48 89.3313 21.702 89.5833 21.99C89.8353 22.278 90.0213 22.62 90.1413 23.016C90.2733 23.412 90.3393 23.85 90.3393 24.33V29.82C90.3393 29.94 90.2793 30 90.1593 30H87.9993ZM95.4825 30.108C94.4745 30.108 93.7605 29.874 93.3405 29.406C92.9205 28.938 92.7105 28.206 92.7105 27.21V23.25C92.7105 23.178 92.6745 23.142 92.6025 23.142H92.0625C91.9425 23.142 91.8825 23.082 91.8825 22.962V21.468C91.8825 21.348 91.9425 21.288 92.0625 21.288H92.6025C92.6745 21.288 92.7105 21.252 92.7105 21.18V18.84C92.7105 18.72 92.7705 18.66 92.8905 18.66H95.0325C95.1525 18.66 95.2125 18.72 95.2125 18.84V21.18C95.2125 21.252 95.2485 21.288 95.3205 21.288H96.4365C96.5565 21.288 96.6165 21.348 96.6165 21.468V22.962C96.6165 23.082 96.5565 23.142 96.4365 23.142H95.3205C95.2485 23.142 95.2125 23.178 95.2125 23.25V27.102C95.2125 27.426 95.2725 27.654 95.3925 27.786C95.5125 27.906 95.7165 27.966 96.0045 27.966H96.4365C96.5565 27.966 96.6165 28.026 96.6165 28.146V29.928C96.6165 30.048 96.5565 30.108 96.4365 30.108H95.4825ZM102.215 30.198C101.219 30.198 100.391 29.982 99.7315 29.55C99.0715 29.118 98.6155 28.506 98.3635 27.714C98.2675 27.438 98.1895 27.138 98.1295 26.814C98.0815 26.49 98.0575 26.1 98.0575 25.644C98.0575 25.188 98.0815 24.798 98.1295 24.474C98.1775 24.138 98.2495 23.832 98.3455 23.556C98.5975 22.764 99.0475 22.158 99.6955 21.738C100.355 21.306 101.153 21.09 102.089 21.09C103.061 21.09 103.865 21.306 104.501 21.738C105.149 22.17 105.599 22.77 105.851 23.538C105.899 23.682 105.941 23.838 105.977 24.006C106.013 24.162 106.043 24.342 106.067 24.546C106.091 24.75 106.109 24.99 106.121 25.266C106.133 25.53 106.139 25.848 106.139 26.22C106.139 26.34 106.073 26.4 105.941 26.4H100.667C100.595 26.4 100.559 26.436 100.559 26.508C100.571 26.688 100.607 26.85 100.667 26.994C100.787 27.378 101.003 27.666 101.315 27.858C101.627 28.05 102.011 28.146 102.467 28.146C102.899 28.146 103.277 28.08 103.601 27.948C103.925 27.804 104.213 27.612 104.465 27.372C104.573 27.288 104.657 27.288 104.717 27.372L105.905 28.488C106.001 28.572 106.007 28.656 105.923 28.74C105.503 29.184 104.981 29.538 104.357 29.802C103.733 30.066 103.019 30.198 102.215 30.198ZM103.547 24.726C103.619 24.726 103.655 24.69 103.655 24.618C103.655 24.486 103.643 24.372 103.619 24.276C103.607 24.168 103.589 24.066 103.565 23.97C103.469 23.67 103.289 23.436 103.025 23.268C102.773 23.1 102.467 23.016 102.107 23.016C101.747 23.016 101.435 23.1 101.171 23.268C100.919 23.436 100.745 23.67 100.649 23.97C100.625 24.066 100.601 24.168 100.577 24.276C100.565 24.372 100.559 24.486 100.559 24.618C100.559 24.69 100.595 24.726 100.667 24.726H103.547ZM108.162 30C108.042 30 107.982 29.94 107.982 29.82V21.468C107.982 21.348 108.042 21.288 108.162 21.288H110.322C110.442 21.288 110.502 21.348 110.502 21.468V22.206H110.52C110.724 21.858 111.018 21.588 111.402 21.396C111.786 21.192 112.248 21.09 112.788 21.09C113.076 21.09 113.352 21.138 113.616 21.234C113.892 21.318 114.126 21.444 114.318 21.612C114.402 21.684 114.42 21.768 114.372 21.864L113.364 23.7C113.304 23.772 113.22 23.784 113.112 23.736C112.68 23.46 112.26 23.328 111.852 23.34C111.384 23.364 111.042 23.538 110.826 23.862C110.61 24.186 110.502 24.642 110.502 25.23V29.82C110.502 29.94 110.442 30 110.322 30H108.162ZM120.404 30C120.284 30 120.224 29.94 120.224 29.82V23.25C120.224 23.178 120.188 23.142 120.116 23.142H119.576C119.456 23.142 119.396 23.082 119.396 22.962V21.468C119.396 21.348 119.456 21.288 119.576 21.288H120.116C120.188 21.288 120.224 21.252 120.224 21.18V20.766C120.224 19.698 120.47 18.93 120.962 18.462C121.466 17.994 122.24 17.76 123.284 17.76H124.274C124.394 17.76 124.454 17.82 124.454 17.94V19.632C124.454 19.752 124.394 19.812 124.274 19.812H123.716C123.32 19.812 123.056 19.878 122.924 20.01C122.792 20.13 122.726 20.376 122.726 20.748V21.18C122.726 21.252 122.762 21.288 122.834 21.288H124.256C124.376 21.288 124.436 21.348 124.436 21.468V22.962C124.436 23.082 124.376 23.142 124.256 23.142H122.834C122.762 23.142 122.726 23.178 122.726 23.25V29.82C122.726 29.94 122.666 30 122.546 30H120.404ZM129.6 30.198C128.676 30.198 127.878 29.988 127.206 29.568C126.534 29.148 126.072 28.542 125.82 27.75C125.724 27.438 125.652 27.12 125.604 26.796C125.556 26.46 125.532 26.076 125.532 25.644C125.532 25.212 125.556 24.834 125.604 24.51C125.652 24.174 125.724 23.85 125.82 23.538C126.072 22.746 126.534 22.14 127.206 21.72C127.878 21.3 128.676 21.09 129.6 21.09C130.524 21.09 131.322 21.3 131.994 21.72C132.666 22.14 133.128 22.746 133.38 23.538C133.476 23.85 133.548 24.174 133.596 24.51C133.644 24.834 133.668 25.212 133.668 25.644C133.668 26.076 133.644 26.46 133.596 26.796C133.548 27.12 133.476 27.438 133.38 27.75C133.128 28.542 132.666 29.148 131.994 29.568C131.322 29.988 130.524 30.198 129.6 30.198ZM129.6 28.074C130.296 28.074 130.746 27.762 130.95 27.138C131.01 26.934 131.052 26.73 131.076 26.526C131.1 26.31 131.112 26.016 131.112 25.644C131.112 25.272 131.1 24.984 131.076 24.78C131.052 24.564 131.01 24.354 130.95 24.15C130.746 23.526 130.296 23.214 129.6 23.214C128.904 23.214 128.454 23.526 128.25 24.15C128.19 24.354 128.148 24.564 128.124 24.78C128.1 24.984 128.088 25.272 128.088 25.644C128.088 26.016 128.1 26.31 128.124 26.526C128.148 26.73 128.19 26.934 128.25 27.138C128.454 27.762 128.904 28.074 129.6 28.074ZM135.689 30C135.569 30 135.509 29.94 135.509 29.82V21.468C135.509 21.348 135.569 21.288 135.689 21.288H137.849C137.969 21.288 138.029 21.348 138.029 21.468V22.206H138.047C138.251 21.858 138.545 21.588 138.929 21.396C139.313 21.192 139.775 21.09 140.315 21.09C140.603 21.09 140.879 21.138 141.143 21.234C141.419 21.318 141.653 21.444 141.845 21.612C141.929 21.684 141.947 21.768 141.899 21.864L140.891 23.7C140.831 23.772 140.747 23.784 140.639 23.736C140.207 23.46 139.787 23.328 139.379 23.34C138.911 23.364 138.569 23.538 138.353 23.862C138.137 24.186 138.029 24.642 138.029 25.23V29.82C138.029 29.94 137.969 30 137.849 30H135.689ZM147.481 27.192C147.409 27 147.349 26.808 147.301 26.616C147.265 26.412 147.235 26.19 147.211 25.95C147.187 25.698 147.169 25.41 147.157 25.086C147.145 24.75 147.139 24.348 147.139 23.88C147.139 23.412 147.145 23.016 147.157 22.692C147.169 22.356 147.187 22.068 147.211 21.828C147.235 21.576 147.265 21.354 147.301 21.162C147.349 20.97 147.409 20.772 147.481 20.568C147.805 19.56 148.339 18.81 149.083 18.318C149.839 17.814 150.757 17.562 151.837 17.562C152.881 17.562 153.763 17.802 154.483 18.282C155.215 18.75 155.755 19.416 156.103 20.28C156.163 20.388 156.133 20.46 156.013 20.496L154.051 21.378C153.943 21.438 153.859 21.408 153.799 21.288C153.631 20.892 153.391 20.562 153.079 20.298C152.779 20.034 152.371 19.902 151.855 19.902C151.375 19.902 150.979 20.022 150.667 20.262C150.367 20.502 150.151 20.832 150.019 21.252C149.983 21.36 149.953 21.48 149.929 21.612C149.905 21.732 149.881 21.888 149.857 22.08C149.845 22.272 149.833 22.512 149.821 22.8C149.821 23.088 149.821 23.448 149.821 23.88C149.821 24.312 149.821 24.672 149.821 24.96C149.833 25.248 149.845 25.488 149.857 25.68C149.881 25.872 149.905 26.034 149.929 26.166C149.953 26.286 149.983 26.4 150.019 26.508C150.151 26.928 150.367 27.258 150.667 27.498C150.979 27.738 151.375 27.858 151.855 27.858C152.371 27.858 152.779 27.726 153.079 27.462C153.391 27.198 153.631 26.868 153.799 26.472C153.859 26.352 153.943 26.322 154.051 26.382L156.013 27.264C156.133 27.3 156.163 27.372 156.103 27.48C155.755 28.344 155.215 29.016 154.483 29.496C153.763 29.964 152.881 30.198 151.837 30.198C150.757 30.198 149.839 29.952 149.083 29.46C148.339 28.956 147.805 28.2 147.481 27.192ZM161.416 30.198C160.492 30.198 159.694 29.988 159.022 29.568C158.35 29.148 157.888 28.542 157.636 27.75C157.54 27.438 157.468 27.12 157.42 26.796C157.372 26.46 157.348 26.076 157.348 25.644C157.348 25.212 157.372 24.834 157.42 24.51C157.468 24.174 157.54 23.85 157.636 23.538C157.888 22.746 158.35 22.14 159.022 21.72C159.694 21.3 160.492 21.09 161.416 21.09C162.34 21.09 163.138 21.3 163.81 21.72C164.482 22.14 164.944 22.746 165.196 23.538C165.292 23.85 165.364 24.174 165.412 24.51C165.46 24.834 165.484 25.212 165.484 25.644C165.484 26.076 165.46 26.46 165.412 26.796C165.364 27.12 165.292 27.438 165.196 27.75C164.944 28.542 164.482 29.148 163.81 29.568C163.138 29.988 162.34 30.198 161.416 30.198ZM161.416 28.074C162.112 28.074 162.562 27.762 162.766 27.138C162.826 26.934 162.868 26.73 162.892 26.526C162.916 26.31 162.928 26.016 162.928 25.644C162.928 25.272 162.916 24.984 162.892 24.78C162.868 24.564 162.826 24.354 162.766 24.15C162.562 23.526 162.112 23.214 161.416 23.214C160.72 23.214 160.27 23.526 160.066 24.15C160.006 24.354 159.964 24.564 159.94 24.78C159.916 24.984 159.904 25.272 159.904 25.644C159.904 26.016 159.916 26.31 159.94 26.526C159.964 26.73 160.006 26.934 160.066 27.138C160.27 27.762 160.72 28.074 161.416 28.074ZM172.743 30C172.623 30 172.563 29.94 172.563 29.82V24.816C172.563 24.336 172.449 23.952 172.221 23.664C172.005 23.376 171.669 23.232 171.213 23.232C170.781 23.232 170.445 23.376 170.205 23.664C169.965 23.952 169.845 24.336 169.845 24.816V29.82C169.845 29.94 169.785 30 169.665 30H167.505C167.385 30 167.325 29.94 167.325 29.82V21.468C167.325 21.348 167.385 21.288 167.505 21.288H169.665C169.785 21.288 169.845 21.348 169.845 21.468V22.08H169.863C170.067 21.804 170.349 21.57 170.709 21.378C171.081 21.186 171.549 21.09 172.113 21.09C172.593 21.09 173.019 21.168 173.391 21.324C173.763 21.48 174.075 21.702 174.327 21.99C174.579 22.278 174.765 22.62 174.885 23.016C175.017 23.412 175.083 23.85 175.083 24.33V29.82C175.083 29.94 175.023 30 174.903 30H172.743ZM177.779 30C177.659 30 177.599 29.94 177.599 29.82V23.25C177.599 23.178 177.563 23.142 177.491 23.142H176.951C176.831 23.142 176.771 23.082 176.771 22.962V21.468C176.771 21.348 176.831 21.288 176.951 21.288H177.491C177.563 21.288 177.599 21.252 177.599 21.18V20.766C177.599 19.698 177.845 18.93 178.337 18.462C178.841 17.994 179.615 17.76 180.659 17.76H181.649C181.769 17.76 181.829 17.82 181.829 17.94V19.632C181.829 19.752 181.769 19.812 181.649 19.812H181.091C180.695 19.812 180.431 19.878 180.299 20.01C180.167 20.13 180.101 20.376 180.101 20.748V21.18C180.101 21.252 180.137 21.288 180.209 21.288H181.631C181.751 21.288 181.811 21.348 181.811 21.468V22.962C181.811 23.082 181.751 23.142 181.631 23.142H180.209C180.137 23.142 180.101 23.178 180.101 23.25V29.82C180.101 29.94 180.041 30 179.921 30H177.779ZM186.038 30.108C185.066 30.108 184.37 29.892 183.95 29.46C183.542 29.016 183.338 28.308 183.338 27.336V17.94C183.338 17.82 183.398 17.76 183.518 17.76H185.678C185.798 17.76 185.858 17.82 185.858 17.94V27.138C185.858 27.438 185.918 27.654 186.038 27.786C186.158 27.906 186.35 27.966 186.614 27.966H186.992C187.112 27.966 187.172 28.026 187.172 28.146V29.928C187.172 30.048 187.112 30.108 186.992 30.108H186.038ZM189.021 19.902C188.901 19.902 188.841 19.842 188.841 19.722V17.94C188.841 17.82 188.901 17.76 189.021 17.76H191.181C191.301 17.76 191.361 17.82 191.361 17.94V19.722C191.361 19.842 191.301 19.902 191.181 19.902H189.021ZM189.021 30C188.901 30 188.841 29.94 188.841 29.82V21.468C188.841 21.348 188.901 21.288 189.021 21.288H191.181C191.301 21.288 191.361 21.348 191.361 21.468V29.82C191.361 29.94 191.301 30 191.181 30H189.021ZM197.222 30.198C196.298 30.198 195.506 29.994 194.846 29.586C194.186 29.166 193.724 28.548 193.46 27.732C193.364 27.468 193.292 27.168 193.244 26.832C193.208 26.496 193.19 26.1 193.19 25.644C193.19 25.188 193.208 24.792 193.244 24.456C193.292 24.12 193.364 23.82 193.46 23.556C193.724 22.74 194.186 22.128 194.846 21.72C195.506 21.3 196.298 21.09 197.222 21.09C197.978 21.09 198.638 21.246 199.202 21.558C199.766 21.858 200.204 22.248 200.516 22.728C200.576 22.824 200.564 22.908 200.48 22.98L198.914 24.006C198.806 24.078 198.716 24.066 198.644 23.97C198.452 23.706 198.248 23.514 198.032 23.394C197.828 23.274 197.57 23.214 197.258 23.214C196.922 23.214 196.634 23.292 196.394 23.448C196.166 23.604 196.004 23.838 195.908 24.15C195.848 24.33 195.806 24.534 195.782 24.762C195.758 24.99 195.746 25.284 195.746 25.644C195.746 26.004 195.758 26.298 195.782 26.526C195.806 26.754 195.848 26.958 195.908 27.138C196.004 27.45 196.166 27.684 196.394 27.84C196.634 27.996 196.922 28.074 197.258 28.074C197.57 28.074 197.828 28.014 198.032 27.894C198.248 27.774 198.452 27.582 198.644 27.318C198.716 27.222 198.806 27.21 198.914 27.282L200.48 28.308C200.564 28.38 200.576 28.464 200.516 28.56C200.204 29.04 199.766 29.436 199.202 29.748C198.638 30.048 197.978 30.198 197.222 30.198ZM205.24 30.108C204.232 30.108 203.518 29.874 203.098 29.406C202.678 28.938 202.468 28.206 202.468 27.21V23.25C202.468 23.178 202.432 23.142 202.36 23.142H201.82C201.7 23.142 201.64 23.082 201.64 22.962V21.468C201.64 21.348 201.7 21.288 201.82 21.288H202.36C202.432 21.288 202.468 21.252 202.468 21.18V18.84C202.468 18.72 202.528 18.66 202.648 18.66H204.79C204.91 18.66 204.97 18.72 204.97 18.84V21.18C204.97 21.252 205.006 21.288 205.078 21.288H206.194C206.314 21.288 206.374 21.348 206.374 21.468V22.962C206.374 23.082 206.314 23.142 206.194 23.142H205.078C205.006 23.142 204.97 23.178 204.97 23.25V27.102C204.97 27.426 205.03 27.654 205.15 27.786C205.27 27.906 205.474 27.966 205.762 27.966H206.194C206.314 27.966 206.374 28.026 206.374 28.146V29.928C206.374 30.048 206.314 30.108 206.194 30.108H205.24ZM217.613 30C217.493 30 217.433 29.94 217.433 29.82V29.244H217.415C217.187 29.532 216.881 29.766 216.497 29.946C216.113 30.114 215.621 30.198 215.021 30.198C214.637 30.198 214.265 30.144 213.905 30.036C213.557 29.94 213.251 29.784 212.987 29.568C212.723 29.352 212.513 29.076 212.357 28.74C212.201 28.404 212.123 28.002 212.123 27.534C212.123 26.574 212.453 25.866 213.113 25.41C213.785 24.954 214.661 24.726 215.741 24.726H217.289C217.361 24.726 217.397 24.69 217.397 24.618V24.294C217.397 23.886 217.271 23.586 217.019 23.394C216.779 23.202 216.311 23.106 215.615 23.106C215.171 23.106 214.787 23.16 214.463 23.268C214.139 23.376 213.875 23.508 213.671 23.664C213.575 23.736 213.497 23.724 213.437 23.628L212.627 22.206C212.567 22.098 212.585 22.014 212.681 21.954C213.053 21.69 213.503 21.48 214.031 21.324C214.571 21.168 215.201 21.09 215.921 21.09C216.629 21.09 217.229 21.156 217.721 21.288C218.213 21.408 218.609 21.6 218.909 21.864C219.221 22.116 219.443 22.44 219.575 22.836C219.719 23.232 219.791 23.7 219.791 24.24V29.82C219.791 29.94 219.731 30 219.611 30H217.613ZM215.777 28.308C216.857 28.308 217.397 27.906 217.397 27.102V26.508C217.397 26.436 217.361 26.4 217.289 26.4H216.065C215.033 26.4 214.517 26.73 214.517 27.39C214.517 28.002 214.937 28.308 215.777 28.308ZM227.429 30C227.309 30 227.249 29.94 227.249 29.82V24.816C227.249 24.336 227.135 23.952 226.907 23.664C226.691 23.376 226.355 23.232 225.899 23.232C225.467 23.232 225.131 23.376 224.891 23.664C224.651 23.952 224.531 24.336 224.531 24.816V29.82C224.531 29.94 224.471 30 224.351 30H222.191C222.071 30 222.011 29.94 222.011 29.82V21.468C222.011 21.348 222.071 21.288 222.191 21.288H224.351C224.471 21.288 224.531 21.348 224.531 21.468V22.08H224.549C224.753 21.804 225.035 21.57 225.395 21.378C225.767 21.186 226.235 21.09 226.799 21.09C227.279 21.09 227.705 21.168 228.077 21.324C228.449 21.48 228.761 21.702 229.013 21.99C229.265 22.278 229.451 22.62 229.571 23.016C229.703 23.412 229.769 23.85 229.769 24.33V29.82C229.769 29.94 229.709 30 229.589 30H227.429ZM237.27 30C237.15 30 237.09 29.94 237.09 29.82V29.19H237.072C236.868 29.49 236.58 29.736 236.208 29.928C235.836 30.108 235.362 30.198 234.786 30.198C234.054 30.198 233.436 30.024 232.932 29.676C232.428 29.316 232.062 28.794 231.834 28.11C231.726 27.762 231.648 27.408 231.6 27.048C231.552 26.676 231.528 26.208 231.528 25.644C231.528 25.068 231.552 24.6 231.6 24.24C231.648 23.88 231.726 23.526 231.834 23.178C232.062 22.482 232.428 21.96 232.932 21.612C233.436 21.264 234.054 21.09 234.786 21.09C235.362 21.09 235.836 21.186 236.208 21.378C236.58 21.558 236.868 21.798 237.072 22.098H237.09V17.94C237.09 17.82 237.15 17.76 237.27 17.76H239.43C239.55 17.76 239.61 17.82 239.61 17.94V29.82C239.61 29.94 239.55 30 239.43 30H237.27ZM235.596 28.074C236.28 28.074 236.724 27.762 236.928 27.138C236.988 26.97 237.03 26.778 237.054 26.562C237.078 26.334 237.09 26.028 237.09 25.644C237.09 25.26 237.078 24.96 237.054 24.744C237.03 24.516 236.988 24.318 236.928 24.15C236.736 23.526 236.292 23.214 235.596 23.214C234.888 23.214 234.438 23.526 234.246 24.15C234.186 24.318 234.144 24.516 234.12 24.744C234.096 24.96 234.084 25.26 234.084 25.644C234.084 26.028 234.096 26.334 234.12 26.562C234.144 26.778 234.186 26.97 234.246 27.138C234.45 27.762 234.9 28.074 235.596 28.074ZM62.7716 38.94C62.7716 38.82 62.8316 38.76 62.9516 38.76H65.2376C65.3576 38.76 65.4176 38.82 65.4176 38.94V43.53C65.4176 43.602 65.4536 43.638 65.5256 43.638H69.5216C69.5936 43.638 69.6296 43.602 69.6296 43.53V38.94C69.6296 38.82 69.6896 38.76 69.8096 38.76H72.0956C72.2156 38.76 72.2756 38.82 72.2756 38.94V50.82C72.2756 50.94 72.2156 51 72.0956 51H69.8096C69.6896 51 69.6296 50.94 69.6296 50.82V46.104C69.6296 46.032 69.5936 45.996 69.5216 45.996H65.5256C65.4536 45.996 65.4176 46.032 65.4176 46.104V50.82C65.4176 50.94 65.3576 51 65.2376 51H62.9516C62.8316 51 62.7716 50.94 62.7716 50.82V38.94ZM79.8572 51C79.7372 51 79.6772 50.94 79.6772 50.82V50.19H79.6592C79.4312 50.49 79.1372 50.736 78.7772 50.928C78.4292 51.108 77.9792 51.198 77.4272 51.198C76.9472 51.198 76.5212 51.12 76.1492 50.964C75.7892 50.796 75.4832 50.568 75.2312 50.28C74.9912 49.992 74.8052 49.65 74.6732 49.254C74.5532 48.858 74.4932 48.426 74.4932 47.958V42.468C74.4932 42.348 74.5532 42.288 74.6732 42.288H76.8332C76.9532 42.288 77.0132 42.348 77.0132 42.468V47.472C77.0132 47.94 77.1212 48.324 77.3372 48.624C77.5652 48.912 77.9012 49.056 78.3452 49.056C78.7772 49.056 79.1072 48.912 79.3352 48.624C79.5632 48.336 79.6772 47.952 79.6772 47.472V42.468C79.6772 42.348 79.7372 42.288 79.8572 42.288H82.0172C82.1372 42.288 82.1972 42.348 82.1972 42.468V50.82C82.1972 50.94 82.1372 51 82.0172 51H79.8572ZM95.1181 51C94.9981 51 94.9381 50.94 94.9381 50.82V45.816C94.9381 45.336 94.8241 44.952 94.5961 44.664C94.3681 44.376 94.0261 44.232 93.5701 44.232C93.1381 44.232 92.8021 44.376 92.5621 44.664C92.3341 44.952 92.2201 45.336 92.2201 45.816V50.82C92.2201 50.94 92.1601 51 92.0401 51H89.8801C89.7601 51 89.7001 50.94 89.7001 50.82V45.816C89.7001 45.336 89.5861 44.952 89.3581 44.664C89.1421 44.376 88.8061 44.232 88.3501 44.232C87.9181 44.232 87.5821 44.376 87.3421 44.664C87.1021 44.952 86.9821 45.336 86.9821 45.816V50.82C86.9821 50.94 86.9221 51 86.8021 51H84.6421C84.5221 51 84.4621 50.94 84.4621 50.82V42.468C84.4621 42.348 84.5221 42.288 84.6421 42.288H86.8021C86.9221 42.288 86.9821 42.348 86.9821 42.468V43.08H87.0001C87.2041 42.804 87.4861 42.57 87.8461 42.378C88.2181 42.186 88.6861 42.09 89.2501 42.09C90.2941 42.09 91.0741 42.456 91.5901 43.188H91.6081C91.9321 42.84 92.3161 42.57 92.7601 42.378C93.2041 42.186 93.7321 42.09 94.3441 42.09C95.3641 42.09 96.1381 42.39 96.6661 42.99C97.1941 43.59 97.4581 44.37 97.4581 45.33V50.82C97.4581 50.94 97.3981 51 97.2781 51H95.1181ZM104.762 51C104.642 51 104.582 50.94 104.582 50.82V50.244H104.564C104.336 50.532 104.03 50.766 103.646 50.946C103.262 51.114 102.77 51.198 102.17 51.198C101.786 51.198 101.414 51.144 101.054 51.036C100.706 50.94 100.4 50.784 100.136 50.568C99.8716 50.352 99.6616 50.076 99.5056 49.74C99.3496 49.404 99.2716 49.002 99.2716 48.534C99.2716 47.574 99.6016 46.866 100.262 46.41C100.934 45.954 101.81 45.726 102.89 45.726H104.438C104.51 45.726 104.546 45.69 104.546 45.618V45.294C104.546 44.886 104.42 44.586 104.168 44.394C103.928 44.202 103.46 44.106 102.764 44.106C102.32 44.106 101.936 44.16 101.612 44.268C101.288 44.376 101.024 44.508 100.82 44.664C100.724 44.736 100.646 44.724 100.586 44.628L99.7756 43.206C99.7156 43.098 99.7336 43.014 99.8296 42.954C100.202 42.69 100.652 42.48 101.18 42.324C101.72 42.168 102.35 42.09 103.07 42.09C103.778 42.09 104.378 42.156 104.87 42.288C105.362 42.408 105.758 42.6 106.058 42.864C106.37 43.116 106.592 43.44 106.724 43.836C106.868 44.232 106.94 44.7 106.94 45.24V50.82C106.94 50.94 106.88 51 106.76 51H104.762ZM102.926 49.308C104.006 49.308 104.546 48.906 104.546 48.102V47.508C104.546 47.436 104.51 47.4 104.438 47.4H103.214C102.182 47.4 101.666 47.73 101.666 48.39C101.666 49.002 102.086 49.308 102.926 49.308ZM114.577 51C114.457 51 114.397 50.94 114.397 50.82V45.816C114.397 45.336 114.283 44.952 114.055 44.664C113.839 44.376 113.503 44.232 113.047 44.232C112.615 44.232 112.279 44.376 112.039 44.664C111.799 44.952 111.679 45.336 111.679 45.816V50.82C111.679 50.94 111.619 51 111.499 51H109.339C109.219 51 109.159 50.94 109.159 50.82V42.468C109.159 42.348 109.219 42.288 109.339 42.288H111.499C111.619 42.288 111.679 42.348 111.679 42.468V43.08H111.697C111.901 42.804 112.183 42.57 112.543 42.378C112.915 42.186 113.383 42.09 113.947 42.09C114.427 42.09 114.853 42.168 115.225 42.324C115.597 42.48 115.909 42.702 116.161 42.99C116.413 43.278 116.599 43.62 116.719 44.016C116.851 44.412 116.917 44.85 116.917 45.33V50.82C116.917 50.94 116.857 51 116.737 51H114.577ZM119.289 40.902C119.169 40.902 119.109 40.842 119.109 40.722V38.94C119.109 38.82 119.169 38.76 119.289 38.76H121.449C121.569 38.76 121.629 38.82 121.629 38.94V40.722C121.629 40.842 121.569 40.902 121.449 40.902H119.289ZM119.289 51C119.169 51 119.109 50.94 119.109 50.82V42.468C119.109 42.348 119.169 42.288 119.289 42.288H121.449C121.569 42.288 121.629 42.348 121.629 42.468V50.82C121.629 50.94 121.569 51 121.449 51H119.289ZM126.842 51.108C125.834 51.108 125.12 50.874 124.7 50.406C124.28 49.938 124.07 49.206 124.07 48.21V44.25C124.07 44.178 124.034 44.142 123.962 44.142H123.422C123.302 44.142 123.242 44.082 123.242 43.962V42.468C123.242 42.348 123.302 42.288 123.422 42.288H123.962C124.034 42.288 124.07 42.252 124.07 42.18V39.84C124.07 39.72 124.13 39.66 124.25 39.66H126.392C126.512 39.66 126.572 39.72 126.572 39.84V42.18C126.572 42.252 126.608 42.288 126.68 42.288H127.796C127.916 42.288 127.976 42.348 127.976 42.468V43.962C127.976 44.082 127.916 44.142 127.796 44.142H126.68C126.608 44.142 126.572 44.178 126.572 44.25V48.102C126.572 48.426 126.632 48.654 126.752 48.786C126.872 48.906 127.076 48.966 127.364 48.966H127.796C127.916 48.966 127.976 49.026 127.976 49.146V50.928C127.976 51.048 127.916 51.108 127.796 51.108H126.842ZM134.961 51C134.841 51 134.781 50.94 134.781 50.82V50.244H134.763C134.535 50.532 134.229 50.766 133.845 50.946C133.461 51.114 132.969 51.198 132.369 51.198C131.985 51.198 131.613 51.144 131.253 51.036C130.905 50.94 130.599 50.784 130.335 50.568C130.071 50.352 129.861 50.076 129.705 49.74C129.549 49.404 129.471 49.002 129.471 48.534C129.471 47.574 129.801 46.866 130.461 46.41C131.133 45.954 132.009 45.726 133.089 45.726H134.637C134.709 45.726 134.745 45.69 134.745 45.618V45.294C134.745 44.886 134.619 44.586 134.367 44.394C134.127 44.202 133.659 44.106 132.963 44.106C132.519 44.106 132.135 44.16 131.811 44.268C131.487 44.376 131.223 44.508 131.019 44.664C130.923 44.736 130.845 44.724 130.785 44.628L129.975 43.206C129.915 43.098 129.933 43.014 130.029 42.954C130.401 42.69 130.851 42.48 131.379 42.324C131.919 42.168 132.549 42.09 133.269 42.09C133.977 42.09 134.577 42.156 135.069 42.288C135.561 42.408 135.957 42.6 136.257 42.864C136.569 43.116 136.791 43.44 136.923 43.836C137.067 44.232 137.139 44.7 137.139 45.24V50.82C137.139 50.94 137.079 51 136.959 51H134.961ZM133.125 49.308C134.205 49.308 134.745 48.906 134.745 48.102V47.508C134.745 47.436 134.709 47.4 134.637 47.4H133.413C132.381 47.4 131.865 47.73 131.865 48.39C131.865 49.002 132.285 49.308 133.125 49.308ZM139.539 51C139.419 51 139.359 50.94 139.359 50.82V42.468C139.359 42.348 139.419 42.288 139.539 42.288H141.699C141.819 42.288 141.879 42.348 141.879 42.468V43.206H141.897C142.101 42.858 142.395 42.588 142.779 42.396C143.163 42.192 143.625 42.09 144.165 42.09C144.453 42.09 144.729 42.138 144.993 42.234C145.269 42.318 145.503 42.444 145.695 42.612C145.779 42.684 145.797 42.768 145.749 42.864L144.741 44.7C144.681 44.772 144.597 44.784 144.489 44.736C144.057 44.46 143.637 44.328 143.229 44.34C142.761 44.364 142.419 44.538 142.203 44.862C141.987 45.186 141.879 45.642 141.879 46.23V50.82C141.879 50.94 141.819 51 141.699 51H139.539ZM147.203 40.902C147.083 40.902 147.023 40.842 147.023 40.722V38.94C147.023 38.82 147.083 38.76 147.203 38.76H149.363C149.483 38.76 149.543 38.82 149.543 38.94V40.722C149.543 40.842 149.483 40.902 149.363 40.902H147.203ZM147.203 51C147.083 51 147.023 50.94 147.023 50.82V42.468C147.023 42.348 147.083 42.288 147.203 42.288H149.363C149.483 42.288 149.543 42.348 149.543 42.468V50.82C149.543 50.94 149.483 51 149.363 51H147.203ZM156.916 51C156.796 51 156.736 50.94 156.736 50.82V50.244H156.718C156.49 50.532 156.184 50.766 155.8 50.946C155.416 51.114 154.924 51.198 154.324 51.198C153.94 51.198 153.568 51.144 153.208 51.036C152.86 50.94 152.554 50.784 152.29 50.568C152.026 50.352 151.816 50.076 151.66 49.74C151.504 49.404 151.426 49.002 151.426 48.534C151.426 47.574 151.756 46.866 152.416 46.41C153.088 45.954 153.964 45.726 155.044 45.726H156.592C156.664 45.726 156.7 45.69 156.7 45.618V45.294C156.7 44.886 156.574 44.586 156.322 44.394C156.082 44.202 155.614 44.106 154.918 44.106C154.474 44.106 154.09 44.16 153.766 44.268C153.442 44.376 153.178 44.508 152.974 44.664C152.878 44.736 152.8 44.724 152.74 44.628L151.93 43.206C151.87 43.098 151.888 43.014 151.984 42.954C152.356 42.69 152.806 42.48 153.334 42.324C153.874 42.168 154.504 42.09 155.224 42.09C155.932 42.09 156.532 42.156 157.024 42.288C157.516 42.408 157.912 42.6 158.212 42.864C158.524 43.116 158.746 43.44 158.878 43.836C159.022 44.232 159.094 44.7 159.094 45.24V50.82C159.094 50.94 159.034 51 158.914 51H156.916ZM155.08 49.308C156.16 49.308 156.7 48.906 156.7 48.102V47.508C156.7 47.436 156.664 47.4 156.592 47.4H155.368C154.336 47.4 153.82 47.73 153.82 48.39C153.82 49.002 154.24 49.308 155.08 49.308ZM166.732 51C166.612 51 166.552 50.94 166.552 50.82V45.816C166.552 45.336 166.438 44.952 166.21 44.664C165.994 44.376 165.658 44.232 165.202 44.232C164.77 44.232 164.434 44.376 164.194 44.664C163.954 44.952 163.834 45.336 163.834 45.816V50.82C163.834 50.94 163.774 51 163.654 51H161.494C161.374 51 161.314 50.94 161.314 50.82V42.468C161.314 42.348 161.374 42.288 161.494 42.288H163.654C163.774 42.288 163.834 42.348 163.834 42.468V43.08H163.852C164.056 42.804 164.338 42.57 164.698 42.378C165.07 42.186 165.538 42.09 166.102 42.09C166.582 42.09 167.008 42.168 167.38 42.324C167.752 42.48 168.064 42.702 168.316 42.99C168.568 43.278 168.754 43.62 168.874 44.016C169.006 44.412 169.072 44.85 169.072 45.33V50.82C169.072 50.94 169.012 51 168.892 51H166.732ZM179.675 51.198C179.195 51.198 178.721 51.15 178.253 51.054C177.797 50.97 177.365 50.856 176.957 50.712C176.549 50.556 176.171 50.376 175.823 50.172C175.487 49.968 175.199 49.752 174.959 49.524C174.863 49.428 174.857 49.326 174.941 49.218L176.309 47.652C176.381 47.556 176.471 47.55 176.579 47.634C176.987 47.958 177.461 48.252 178.001 48.516C178.541 48.768 179.135 48.894 179.783 48.894C180.431 48.894 180.923 48.762 181.259 48.498C181.607 48.222 181.781 47.868 181.781 47.436C181.781 47.076 181.649 46.782 181.385 46.554C181.121 46.326 180.623 46.164 179.891 46.068L179.243 45.978C177.995 45.81 177.035 45.432 176.363 44.844C175.703 44.244 175.373 43.398 175.373 42.306C175.373 41.742 175.475 41.232 175.679 40.776C175.883 40.308 176.171 39.912 176.543 39.588C176.927 39.264 177.383 39.012 177.911 38.832C178.451 38.652 179.051 38.562 179.711 38.562C180.527 38.562 181.295 38.676 182.015 38.904C182.735 39.132 183.353 39.444 183.869 39.84C183.977 39.912 183.989 40.002 183.905 40.11L182.807 41.748C182.735 41.844 182.651 41.862 182.555 41.802C182.087 41.49 181.619 41.256 181.151 41.1C180.695 40.944 180.215 40.866 179.711 40.866C179.171 40.866 178.763 40.992 178.487 41.244C178.211 41.496 178.073 41.814 178.073 42.198C178.073 42.546 178.211 42.834 178.487 43.062C178.775 43.29 179.273 43.452 179.981 43.548L180.629 43.638C181.901 43.806 182.861 44.19 183.509 44.79C184.157 45.378 184.481 46.23 184.481 47.346C184.481 47.898 184.379 48.414 184.175 48.894C183.971 49.362 183.665 49.77 183.257 50.118C182.861 50.454 182.363 50.718 181.763 50.91C181.163 51.102 180.467 51.198 179.675 51.198ZM189.174 51.108C188.166 51.108 187.452 50.874 187.032 50.406C186.612 49.938 186.402 49.206 186.402 48.21V44.25C186.402 44.178 186.366 44.142 186.294 44.142H185.754C185.634 44.142 185.574 44.082 185.574 43.962V42.468C185.574 42.348 185.634 42.288 185.754 42.288H186.294C186.366 42.288 186.402 42.252 186.402 42.18V39.84C186.402 39.72 186.462 39.66 186.582 39.66H188.724C188.844 39.66 188.904 39.72 188.904 39.84V42.18C188.904 42.252 188.94 42.288 189.012 42.288H190.128C190.248 42.288 190.308 42.348 190.308 42.468V43.962C190.308 44.082 190.248 44.142 190.128 44.142H189.012C188.94 44.142 188.904 44.178 188.904 44.25V48.102C188.904 48.426 188.964 48.654 189.084 48.786C189.204 48.906 189.408 48.966 189.696 48.966H190.128C190.248 48.966 190.308 49.026 190.308 49.146V50.928C190.308 51.048 190.248 51.108 190.128 51.108H189.174ZM197.455 51C197.335 51 197.275 50.94 197.275 50.82V50.19H197.257C197.029 50.49 196.735 50.736 196.375 50.928C196.027 51.108 195.577 51.198 195.025 51.198C194.545 51.198 194.119 51.12 193.747 50.964C193.387 50.796 193.081 50.568 192.829 50.28C192.589 49.992 192.403 49.65 192.271 49.254C192.151 48.858 192.091 48.426 192.091 47.958V42.468C192.091 42.348 192.151 42.288 192.271 42.288H194.431C194.551 42.288 194.611 42.348 194.611 42.468V47.472C194.611 47.94 194.719 48.324 194.935 48.624C195.163 48.912 195.499 49.056 195.943 49.056C196.375 49.056 196.705 48.912 196.933 48.624C197.161 48.336 197.275 47.952 197.275 47.472V42.468C197.275 42.348 197.335 42.288 197.455 42.288H199.615C199.735 42.288 199.795 42.348 199.795 42.468V50.82C199.795 50.94 199.735 51 199.615 51H197.455ZM207.37 51C207.25 51 207.19 50.94 207.19 50.82V50.19H207.172C206.968 50.49 206.68 50.736 206.308 50.928C205.936 51.108 205.462 51.198 204.886 51.198C204.154 51.198 203.536 51.024 203.032 50.676C202.528 50.316 202.162 49.794 201.934 49.11C201.826 48.762 201.748 48.408 201.7 48.048C201.652 47.676 201.628 47.208 201.628 46.644C201.628 46.068 201.652 45.6 201.7 45.24C201.748 44.88 201.826 44.526 201.934 44.178C202.162 43.482 202.528 42.96 203.032 42.612C203.536 42.264 204.154 42.09 204.886 42.09C205.462 42.09 205.936 42.186 206.308 42.378C206.68 42.558 206.968 42.798 207.172 43.098H207.19V38.94C207.19 38.82 207.25 38.76 207.37 38.76H209.53C209.65 38.76 209.71 38.82 209.71 38.94V50.82C209.71 50.94 209.65 51 209.53 51H207.37ZM205.696 49.074C206.38 49.074 206.824 48.762 207.028 48.138C207.088 47.97 207.13 47.778 207.154 47.562C207.178 47.334 207.19 47.028 207.19 46.644C207.19 46.26 207.178 45.96 207.154 45.744C207.13 45.516 207.088 45.318 207.028 45.15C206.836 44.526 206.392 44.214 205.696 44.214C204.988 44.214 204.538 44.526 204.346 45.15C204.286 45.318 204.244 45.516 204.22 45.744C204.196 45.96 204.184 46.26 204.184 46.644C204.184 47.028 204.196 47.334 204.22 47.562C204.244 47.778 204.286 47.97 204.346 48.138C204.55 48.762 205 49.074 205.696 49.074ZM212.154 40.902C212.034 40.902 211.974 40.842 211.974 40.722V38.94C211.974 38.82 212.034 38.76 212.154 38.76H214.314C214.434 38.76 214.494 38.82 214.494 38.94V40.722C214.494 40.842 214.434 40.902 214.314 40.902H212.154ZM212.154 51C212.034 51 211.974 50.94 211.974 50.82V42.468C211.974 42.348 212.034 42.288 212.154 42.288H214.314C214.434 42.288 214.494 42.348 214.494 42.468V50.82C214.494 50.94 214.434 51 214.314 51H212.154ZM220.481 51.198C219.485 51.198 218.657 50.982 217.997 50.55C217.337 50.118 216.881 49.506 216.629 48.714C216.533 48.438 216.455 48.138 216.395 47.814C216.347 47.49 216.323 47.1 216.323 46.644C216.323 46.188 216.347 45.798 216.395 45.474C216.443 45.138 216.515 44.832 216.611 44.556C216.863 43.764 217.313 43.158 217.961 42.738C218.621 42.306 219.419 42.09 220.355 42.09C221.327 42.09 222.131 42.306 222.767 42.738C223.415 43.17 223.865 43.77 224.117 44.538C224.165 44.682 224.207 44.838 224.243 45.006C224.279 45.162 224.309 45.342 224.333 45.546C224.357 45.75 224.375 45.99 224.387 46.266C224.399 46.53 224.405 46.848 224.405 47.22C224.405 47.34 224.339 47.4 224.207 47.4H218.933C218.861 47.4 218.825 47.436 218.825 47.508C218.837 47.688 218.873 47.85 218.933 47.994C219.053 48.378 219.269 48.666 219.581 48.858C219.893 49.05 220.277 49.146 220.733 49.146C221.165 49.146 221.543 49.08 221.867 48.948C222.191 48.804 222.479 48.612 222.731 48.372C222.839 48.288 222.923 48.288 222.983 48.372L224.171 49.488C224.267 49.572 224.273 49.656 224.189 49.74C223.769 50.184 223.247 50.538 222.623 50.802C221.999 51.066 221.285 51.198 220.481 51.198ZM221.813 45.726C221.885 45.726 221.921 45.69 221.921 45.618C221.921 45.486 221.909 45.372 221.885 45.276C221.873 45.168 221.855 45.066 221.831 44.97C221.735 44.67 221.555 44.436 221.291 44.268C221.039 44.1 220.733 44.016 220.373 44.016C220.013 44.016 219.701 44.1 219.437 44.268C219.185 44.436 219.011 44.67 218.915 44.97C218.891 45.066 218.867 45.168 218.843 45.276C218.831 45.372 218.825 45.486 218.825 45.618C218.825 45.69 218.861 45.726 218.933 45.726H221.813ZM229.667 51.198C228.755 51.198 227.969 51.066 227.309 50.802C226.661 50.526 226.127 50.208 225.707 49.848C225.623 49.764 225.623 49.68 225.707 49.596L226.877 48.282C226.949 48.21 227.033 48.21 227.129 48.282C227.513 48.582 227.939 48.816 228.407 48.984C228.875 49.152 229.337 49.236 229.793 49.236C230.249 49.236 230.585 49.158 230.801 49.002C231.029 48.846 231.143 48.648 231.143 48.408C231.143 48.204 231.059 48.042 230.891 47.922C230.735 47.79 230.405 47.7 229.901 47.652L228.929 47.544C228.005 47.448 227.297 47.178 226.805 46.734C226.325 46.29 226.085 45.672 226.085 44.88C226.085 44.016 226.397 43.338 227.021 42.846C227.645 42.342 228.527 42.09 229.667 42.09C230.411 42.09 231.083 42.192 231.683 42.396C232.283 42.6 232.787 42.858 233.195 43.17C233.279 43.254 233.285 43.344 233.213 43.44L232.205 44.682C232.133 44.766 232.049 44.778 231.953 44.718C231.653 44.526 231.299 44.364 230.891 44.232C230.483 44.088 230.051 44.016 229.595 44.016C229.223 44.016 228.947 44.082 228.767 44.214C228.587 44.346 228.497 44.52 228.497 44.736C228.497 44.94 228.575 45.102 228.731 45.222C228.887 45.33 229.211 45.408 229.703 45.456L230.657 45.564C231.689 45.66 232.427 45.942 232.871 46.41C233.327 46.878 233.555 47.478 233.555 48.21C233.543 49.11 233.201 49.836 232.529 50.388C231.869 50.928 230.915 51.198 229.667 51.198Z" fill="white"/>
</svg>
