<svg width="88" height="88" viewBox="0 0 88 88" fill="none" xmlns="http://www.w3.org/2000/svg">
<circle cx="44" cy="44" r="44" fill="white"/>
<g clip-path="url(#clip0)">
<path d="M17.8555 35.0586H59.4696V62.4089H17.8555V35.0586Z" fill="white"/>
<path d="M38.6965 44.953L43.7485 49.1814L59.479 35.0055L38.6965 18.2506L17.9141 35.0055L33.6446 49.1814L38.6965 44.953Z" fill="white"/>
<path d="M51.9397 41.7634L43.7322 49.191L38.6869 44.953L33.6248 49.1662L25.3906 41.7634V17.8564H51.9397V41.7634Z" fill="white"/>
<path d="M31.5649 23.9968V17.8564H25.3906V41.7634L33.6266 49.1732L38.6869 44.953L43.7693 49.2066L50.6249 43.0409H50.5959C40.1013 43.041 31.5649 34.5147 31.5649 23.9968Z" fill="#E6E7E8"/>
<path d="M30.9492 25.4056H46.2613V29.1184H30.9492V25.4056Z" fill="#F9B115"/>
<path d="M30.9492 33.9448H46.2613V37.6576H30.9492V33.9448Z" fill="#F9B115"/>
<path d="M59.6666 72.0001C66.4789 72.0001 72.0012 66.4593 72.0012 59.6244C72.0012 52.7895 66.4789 47.2488 59.6666 47.2488C52.8544 47.2488 47.332 52.7895 47.332 59.6244C47.332 66.4593 52.8544 72.0001 59.6666 72.0001Z" fill="#F9B115"/>
<path d="M56.9528 64.8719L53.7078 62.3044C53.0695 61.7994 52.9615 60.8726 53.4664 60.2344C53.9715 59.5961 54.8984 59.4882 55.5365 59.9931L57.6889 61.6961L64.2533 54.2938C64.7933 53.685 65.7246 53.6291 66.3336 54.169C66.9426 54.709 66.9985 55.6404 66.4584 56.2494L58.9698 64.694C58.6796 65.0214 57.8799 65.3656 56.9528 64.8719Z" fill="white"/>
<path d="M60.3186 33.3496L53.7861 28.0831V17.7945C53.7861 16.7693 53.0185 16 51.9956 16H25.4465C24.4236 16 23.5325 16.7693 23.5325 17.7945V28.0436L16.8191 33.4558C16.3139 33.7969 16 34.3855 16 34.9967V62.3469C16.1235 63.3543 16.8383 64.2652 17.9141 64.2652H44.2778V60.5524H23.0217L38.6965 47.4024L42.5713 50.6298C43.2697 51.2144 44.2899 51.1873 44.9665 50.5774L57.6142 39.1267V44.7115H61.3187V34.9966C61.3186 34.2797 60.9124 33.6588 60.3186 33.3496ZM23.5325 32.8084V37.6278L20.7097 35.084L23.5325 32.8084ZM19.7045 58.3782V39.1711L30.7708 49.1162L19.7045 58.3782ZM50.0816 40.9364L43.6825 46.7334L39.8683 43.5282C39.1891 42.9596 38.1808 42.9597 37.5015 43.5282L33.6703 46.7121L27.2371 40.9363V19.7128H50.0816V40.9364ZM53.7861 37.5836V32.848L56.5598 35.084L53.7861 37.5836Z" fill="#575756"/>
</g>
<defs>
<clipPath id="clip0">
<rect width="56" height="56" fill="white" transform="translate(16 16)"/>
</clipPath>
</defs>
</svg>
