<svg width="18" height="18" viewBox="0 0 18 18" fill="none" xmlns="http://www.w3.org/2000/svg">
<circle cx="9" cy="9" r="9" fill="#F9B115"/>
<path d="M8.1392 9.94688C8.1392 9.87801 8.10477 9.84358 8.03591 9.84358H4.17216C4.05739 9.84358 4 9.78619 4 9.67142V8.32858C4 8.2138 4.05739 8.15642 4.17216 8.15642H8.03591C8.10477 8.15642 8.1392 8.12199 8.1392 8.05312V4.17216C8.1392 4.05739 8.19659 4 8.31136 4H9.70585C9.82063 4 9.87801 4.05739 9.87801 4.17216V8.05312C9.87801 8.12199 9.91244 8.15642 9.98131 8.15642H13.8451C13.9598 8.15642 14.0172 8.2138 14.0172 8.32858V9.67142C14.0172 9.78619 13.9598 9.84358 13.8451 9.84358H9.98131C9.91244 9.84358 9.87801 9.87801 9.87801 9.94688V13.8278C9.87801 13.9426 9.82063 14 9.70585 14H8.31136C8.19659 14 8.1392 13.9426 8.1392 13.8278V9.94688Z" fill="#333333"/>
</svg>
