<svg width="306" height="128" viewBox="0 0 306 128" fill="none" xmlns="http://www.w3.org/2000/svg">
<path d="M114.349 0H0V128H114.349V0Z" fill="#575556"/>
<path d="M100.386 75.5243C99.7587 76.8645 97.904 79.7182 94.8192 84.0872C94.5959 84.4005 94.3867 84.6948 94.1715 84.9991C93.8563 82.3997 93.614 80.3258 93.624 80.1736C93.9604 80.5209 94.2766 80.8092 94.5759 81.0364C94.685 81.1085 94.7621 81.1455 94.8091 81.1455C94.8812 81.1455 94.9182 81.0965 94.9182 81.0014C94.9182 80.7021 94.631 79.9404 94.0554 78.7203C93.6961 77.9295 93.3308 77.1388 92.9594 76.3481C92.7442 75.8336 92.5771 75.5743 92.456 75.5743C92.4069 75.5743 92.3729 75.6174 92.3489 75.7005C91.8924 77.0897 91.7023 77.8515 91.7733 77.9816C92.0606 78.5571 92.2217 78.9104 92.2568 79.0426C92.484 81.4128 92.6471 83.2274 92.7422 84.4866C92.8183 85.1693 92.9024 85.9029 92.9894 86.6586C90.386 90.321 88.3551 93.1717 86.9178 95.1826C84.4355 92.8364 82.4587 91.0267 80.9883 89.7505C79.9814 88.7796 78.5831 87.3493 77.1818 85.8899C78.0265 85.3905 78.8943 84.856 79.8062 84.2554C82.5267 82.4637 84.0812 81.2816 84.4655 80.7071C84.97 79.9594 85.2743 78.8744 85.3784 77.4521C85.4274 76.6994 85.3363 75.6424 85.1011 74.2841C85.4785 74.3572 85.5245 74.3922 85.7387 74.4243C86.6616 74.4243 87.4503 74.108 88.1109 73.4724C88.4332 73.1611 88.8586 72.4665 89.3851 71.3875C89.3501 71.951 89.4572 72.4254 89.7074 72.8078C90.0207 73.2622 90.5101 73.6586 91.1818 73.9929C91.7233 74.2641 92.1607 74.3962 92.511 74.4113V74.4243C92.529 74.4243 92.546 74.4213 92.5631 74.4213C92.5691 74.4213 92.5771 74.4243 92.5821 74.4243V74.4193C93.7972 74.3952 94.8522 73.7697 95.743 72.5375C96.4987 71.4966 96.85 69.825 96.804 67.5249C96.0503 60.3402 94.2646 45.4674 93.6551 41.0122C94.2646 41.6828 94.5819 42.0302 94.607 42.0532C94.702 42.1253 94.7801 42.1623 94.8402 42.1623C94.9122 42.1623 94.9493 42.1022 94.9493 41.9811C94.9493 41.2875 94.3317 39.7721 93.0975 37.4369C92.8823 36.8854 92.7152 36.6091 92.5941 36.6091C92.547 36.6091 92.511 36.6522 92.487 36.7352C92.1026 37.9344 91.9114 38.6941 91.9114 39.0164C91.9114 39.1855 91.9465 39.3177 92.0185 39.4127C92.2107 39.675 92.3178 39.8441 92.3428 39.9162C92.4499 41.9271 92.7372 45.2432 92.9414 46.8476C94.1515 56.1663 95.725 68.9222 95.725 70.0232C95.725 70.1783 95.713 70.2734 95.69 70.3104C95.4257 70.872 95.1034 71.2623 94.7181 71.4785C94.2496 71.7608 93.529 71.8999 92.5641 71.9059C92.2658 71.9009 91.8474 71.7388 91.3049 71.4145C90.7554 71.0862 90.4111 70.7989 90.2729 70.5517C90.1348 70.3064 90.0357 70.1013 89.9756 69.9321C90.0707 69.6578 90.1198 69.4366 90.1198 69.2675C90.1198 68.801 89.8205 68.9562 89.2219 69.7359C89.1729 69.796 89.0238 70.0702 88.7735 70.5617C88.5583 70.9811 88.3772 71.2383 88.233 71.3354C87.7466 71.6807 87.0069 71.8619 86.041 71.8949C85.3173 71.8429 84.7238 71.7708 84.2743 71.6747C83.7909 71.0201 83.4516 70.5777 83.2624 70.3495C83.0552 70.0592 82.9111 70.0672 82.829 70.3735C82.6498 71.0962 82.5017 71.8178 82.3846 72.5425C83.1193 73.5735 83.868 75.4893 84.6207 78.2859C83.4996 79.473 81.9352 80.6621 79.9243 81.8512C79.0875 82.3376 77.6232 83.1173 75.5512 84.1813C73.8577 82.3947 72.4043 80.8292 71.9809 80.3578C72.6686 80.3448 73.132 80.3308 73.3732 80.3177C73.5664 80.3047 73.6625 80.2617 73.6625 80.1836C73.6625 80.1056 72.8978 79.5711 71.3673 78.5781C70.1262 77.7674 69.4516 77.361 69.3425 77.361C69.2704 77.361 69.2404 77.399 69.2524 77.4761C69.2053 78.5711 69.1683 79.3198 69.1453 79.7192C69.1333 79.8213 69.2173 79.9174 69.3975 80.0075C69.5426 80.0995 69.6498 80.1436 69.7218 80.1436C70.0902 80.7451 71.9709 82.9672 73.7956 85.0772C73.7876 85.0812 73.7816 85.0842 73.7736 85.0882C72.7066 85.6307 70.3124 86.5495 66.5909 87.8437C63.7303 88.8337 62.2879 89.5273 62.2619 89.9207C62.2579 89.9807 62.3279 90.0168 62.4711 90.0258C62.6853 90.0398 63.0056 90.0057 63.432 89.9247C67.3026 89.2881 70.0301 88.8657 71.6156 88.6575C72.7767 88.2201 74.0348 87.6365 75.3891 86.9099C75.9956 87.6025 76.5341 88.2151 76.9195 88.6485C77.9555 89.8216 79.4378 91.2639 81.3646 92.9785C84.1252 95.4138 85.5896 96.717 85.7567 96.8841C84.949 98.1093 84.4745 98.927 84.3294 99.3384C83.907 100.602 83.6958 101.774 83.6958 102.857C83.6958 104.314 84.1903 105.042 85.1772 105.042C85.6226 105.042 86.2872 104.726 87.167 104.095C88.0098 103.488 88.5163 103 88.6844 102.625C88.9857 101.982 89.1359 101.241 89.1359 100.403C89.1359 99.7848 89.0518 99.0381 88.8836 98.1603C88.7765 97.5938 88.3652 96.8791 87.6545 96.0153C89.9676 92.8684 91.8073 90.3571 93.1956 88.4553C93.9774 95.0735 95.0123 103.196 95.3677 106.019C95.4748 107.072 95.4688 108.084 95.3486 109.053C95.2536 109.821 95.2706 110.204 95.4027 110.204C95.4858 110.204 95.6179 110.036 95.7991 109.7C96.2655 108.826 96.4987 107.396 96.4987 105.406C96.4987 104.845 96.4757 104.264 96.4266 103.663C96.2225 101.316 95.9472 99.1823 95.3236 94.3308C95.0934 92.5101 94.7241 89.5573 94.3877 86.8168C95.0504 85.9039 95.5608 85.1953 95.8791 84.7449C98.2403 81.3807 99.7047 79.0356 100.272 77.7073C100.707 76.6764 100.923 75.7945 100.923 75.0609C100.923 74.9057 100.9 74.8286 100.851 74.8286C100.76 74.8276 100.604 75.0599 100.386 75.5243ZM88.4562 100.654C88.4793 100.744 88.1059 101.034 87.3362 101.523C86.4914 102.052 85.8118 102.316 85.2933 102.316C84.7378 102.316 84.4625 102.047 84.4625 101.505C84.4625 101.079 84.7087 100.462 85.2032 99.6487C85.6376 98.9801 86.077 98.3085 86.5224 97.6398C87.7636 98.94 88.4072 99.945 88.4562 100.654Z" fill="#F9B115"/>
<path d="M91.3218 50.8371C91.3218 49.4248 90.9024 48.4299 90.0646 47.8543C89.7173 47.5921 88.5923 47.0116 86.6875 46.1117C85.1411 45.3951 83.8839 44.5613 82.914 43.6154C83.7518 43.6644 84.2432 43.6094 84.3864 43.4542C84.4935 43.3341 84.3373 43.155 83.9199 42.9158C83.8349 42.8667 83.7388 42.8187 83.6327 42.7716L81.0273 41.5325C80.8231 41.4234 80.6969 41.3943 80.6499 41.4414C80.6129 41.5014 80.5958 41.5985 80.5958 41.7286V43.2561C80.5958 43.6524 80.6909 43.9027 80.8831 44.0118C81.2174 44.214 81.4406 44.3831 81.5477 44.5132C82.4105 45.6883 83.4095 46.6642 84.5475 47.443C85.1831 47.8744 86.152 48.3948 87.4582 49.0054C88.6553 49.5809 89.5231 50.0724 90.0636 50.4778C90.5071 50.8021 90.7283 51.0783 90.7283 51.3055C90.7283 51.4607 90.6332 51.6218 90.441 51.789C89.9976 52.2204 88.339 53.3765 85.4654 55.2572C82.2904 57.3171 80.1414 58.3461 79.0144 58.3461C78.4999 58.3461 78.0685 58.1849 77.7222 57.8626C77.2908 57.5033 77.0756 56.9688 77.0756 56.2632C77.0756 56.2061 77.0856 56.134 77.0876 56.074C77.7202 55.5595 78.2527 55.061 78.6761 54.5816C78.9873 54.2343 79.2456 53.7018 79.4498 52.9821C79.6049 52.4066 79.683 51.9091 79.683 51.4917C79.683 50.6519 79.4558 49.683 79.0014 48.581C78.7141 47.8974 78.4208 47.2097 78.1215 46.5141C78.611 46.6462 78.9163 46.7123 79.0364 46.7123C79.1315 46.7123 79.1805 46.6893 79.1805 46.6402C79.1805 46.5571 79.0364 46.378 78.7491 46.1017C78.0555 45.4181 77.4379 44.7535 76.8994 44.1059C76.8163 44.0108 76.7553 43.9617 76.7182 43.9617C76.6462 43.9617 76.5861 44.0668 76.5391 44.276C76.49 44.4862 76.43 44.8495 76.3579 45.364C76.2748 45.9135 76.2508 46.2328 76.2858 46.3159C76.2978 46.376 76.3769 46.5201 76.5211 46.7473C76.6652 46.9745 76.7893 47.2618 76.8984 47.6081C77.1026 48.3158 77.479 49.2677 78.0295 50.4658C78.5209 51.5187 78.7661 52.1003 78.7661 52.2064C78.7661 52.4897 78.3217 52.9811 77.4629 53.6617C77.575 53.1863 77.7032 52.6848 77.8653 52.1273C77.9504 51.8771 77.9914 51.6839 77.9914 51.5518C77.9914 51.4687 77.9734 51.4257 77.9374 51.4257C77.8543 51.4257 77.7352 51.6238 77.58 52.0202C77.2998 52.7099 77.0906 53.3915 76.9154 54.0691C75.6903 54.963 74.0187 55.9909 71.8517 57.166C70.2452 58.0268 68.2394 58.9727 65.8321 60.0026C62.3719 61.477 60.4771 62.2858 60.1548 62.4289C59.257 62.8463 58.8086 63.0875 58.8086 63.1476C58.8086 63.1596 58.8436 63.1656 58.9157 63.1656C59.0708 63.1656 59.4792 63.1165 60.1378 63.0214C60.7594 62.9123 62.3008 62.561 64.7541 61.9605C67.0663 61.3989 68.2634 61.1177 68.3465 61.1177C68.7919 61.1177 70.2332 60.416 72.6775 59.0157C74.1939 58.1439 75.4671 57.3141 76.5111 56.5214C76.491 56.8117 76.465 57.1019 76.465 57.3892C76.465 59.7134 77.3448 60.8745 79.1075 60.8745C80.0513 60.8745 82.0642 59.8335 85.1421 57.7485C87.6094 56.12 89.2259 54.9589 89.9936 54.2633C90.4 53.892 90.6642 53.5927 90.7843 53.3655C90.9635 53.0432 91.1186 52.4917 91.2507 51.7119C91.2988 51.4297 91.3218 51.1364 91.3218 50.8371Z" fill="#F9B115"/>
<path d="M61.3459 82.0763C62.3398 80.0404 63.6511 78.4409 65.2806 77.2788C65.6399 77.0286 67.1613 76.0817 69.8438 74.4402C72.156 73.0389 73.4011 72.2131 73.5813 71.9609C73.8686 71.3143 74.1018 70.7287 74.282 70.2002C74.378 69.973 74.4261 69.8059 74.4261 69.6968C74.4261 69.6247 74.39 69.5897 74.318 69.5897C74.2349 69.5897 74.0607 69.6727 73.7975 69.8399C71.2341 71.4334 68.989 72.8107 67.0602 73.9727C66.856 73.9958 66.6529 74.0078 66.4487 74.0078C64.628 74.0078 62.8984 73.3371 61.2568 71.9969C59.8195 70.8118 59.1008 69.7878 59.1008 68.925C59.1008 68.4456 60.0227 67.9181 61.8674 67.3436C63.6391 66.7941 65.1425 66.5178 66.3756 66.5178C66.8791 66.5178 67.7419 66.679 68.963 67.0013C69.1312 67.0503 69.2693 67.0733 69.3764 67.0733C69.5205 67.0733 69.5916 67.0263 69.5916 66.9292C69.5916 66.5829 69.005 66.1385 67.831 65.6C66.4657 64.9784 65.0223 64.6771 63.5009 64.7021C62.0876 64.7251 60.8364 65.2516 59.7464 66.2816C58.5974 67.3596 58.0218 68.6828 58.0218 70.2533C58.0218 71.3063 58.4592 72.3242 59.333 73.3081C59.9676 74.0158 60.8355 74.6974 61.9375 75.356C62.5601 75.7033 63.1836 76.0517 63.8062 76.397C62.7282 77.3549 61.7043 78.8643 60.7334 80.9242C59.6774 83.2033 59.1339 85.3893 59.0578 87.4923C57.8977 88.1079 56.9799 88.6013 56.6155 88.8065L56.5234 89.7984C57.143 89.4451 58.0358 88.9627 59.0448 88.4282C59.235 94.1295 63.0595 96.9871 70.5425 96.9871C72.1229 96.9871 73.5843 96.812 74.9256 96.4666C76.2668 96.0472 77.608 95.6269 78.9493 95.2075C79.9672 94.8962 80.752 94.681 81.3035 94.5609C81.818 94.4538 82.0762 94.3277 82.0762 94.1835C82.0762 94.0284 81.813 93.9503 81.2855 93.9503C81.1183 93.9503 80.9391 93.9623 80.747 93.9873C77.4889 94.3697 74.8545 94.5489 72.8426 94.5258C69.0691 94.4768 66.2245 94.0464 64.3087 93.2316C61.8174 92.1666 60.4271 90.373 60.1308 87.8566C63.2687 86.2121 67.0022 84.3224 67.6888 83.996L67.7619 82.9861C66.4427 83.6187 62.8613 85.4834 60.0767 86.9538C60.0757 86.9018 60.0677 86.8537 60.0677 86.8017C60.0707 85.3893 60.4961 83.8139 61.3459 82.0763Z" fill="#F9B115"/>
<path d="M76.2761 82.5775C76.3592 82.5775 76.4913 82.4103 76.6714 82.074C77.1389 81.1992 77.3721 79.7699 77.3721 77.78C77.3721 77.2185 77.3481 76.638 77.3 76.0374C77.0968 73.6902 77.2039 75.1656 76.5814 70.3141C76.0669 66.2413 75.8207 64.0383 75.8447 63.7019C76.18 64.0493 76.4973 64.3375 76.7966 64.5647C76.9047 64.6368 76.9817 64.6738 77.0308 64.6738C77.1028 64.6738 77.1389 64.6248 77.1389 64.5297C77.1389 64.2304 76.8516 63.4687 76.2761 62.2486C75.9167 61.4579 75.5514 60.6671 75.1801 59.8764C74.9649 59.3619 74.7967 59.1027 74.6766 59.1027C74.6285 59.1027 74.5935 59.1457 74.5685 59.2288C74.1131 60.6181 73.9219 61.3798 73.993 61.5099C74.2802 62.0854 74.4424 62.4388 74.4784 62.5709C74.7056 64.9411 74.8668 66.7558 74.9629 68.0149C75.7296 74.8893 75.8066 74.9664 76.238 78.3916C76.3461 79.4446 76.3401 80.4565 76.221 81.4264C76.1259 82.1951 76.144 82.5775 76.2761 82.5775Z" fill="#F9B115"/>
<path d="M98.9663 42.1376C99.0384 42.1376 99.0754 42.0885 99.0754 41.9935C99.0754 41.6942 98.7882 40.9325 98.2126 39.7123C97.8533 38.9216 97.4879 38.1309 97.1166 37.3401C96.9014 36.8256 96.7342 36.5664 96.6131 36.5664C96.5641 36.5664 96.5301 36.6094 96.506 36.6925C96.0496 38.0818 95.8594 38.8435 95.9305 38.9736C96.2178 39.5492 96.3789 39.9025 96.414 40.0346C96.6412 42.4048 96.9364 45.7269 97.0315 46.9861C97.7972 53.8605 99.3667 66.5553 99.7981 69.9815C99.9052 71.0344 99.8992 72.0464 99.7791 73.0163C99.684 73.784 99.701 74.1663 99.8331 74.1663C99.9162 74.1663 100.048 73.9992 100.229 73.6629C100.696 72.7881 100.929 71.3587 100.929 69.3689C100.929 68.8074 100.906 68.2268 100.857 67.6263C100.653 65.2791 100.242 61.6807 99.6179 56.8292C99.1035 52.7565 97.7562 41.502 97.7802 41.1657C98.1165 41.513 98.4328 41.8013 98.7321 42.0285C98.8412 42.1005 98.9193 42.1376 98.9663 42.1376Z" fill="#F9B115"/>
<path d="M73.3278 93.0108C73.9934 92.3572 74.7101 91.6796 74.8642 90.9249C74.9123 90.6907 74.5079 90.5305 73.9614 90.1342C73.3819 89.7138 73.0886 89.5967 72.7873 89.3464C71.6412 90.2373 71.2999 91.3063 71.2669 91.4404C71.1888 91.7016 71.426 91.8598 71.7663 92.0519C72.474 92.4833 72.5391 92.5454 73.3278 93.0108Z" fill="#F9B115"/>
<path d="M31.2404 27.4799C31.974 27.9263 32.0411 27.9904 32.8589 28.4738C33.5485 27.7962 34.2912 27.0945 34.4504 26.3118C34.4994 26.0686 34.081 25.9034 33.5155 25.4921C32.9149 25.0566 32.6106 24.9345 32.2983 24.6753C31.1102 25.5982 30.7569 26.7062 30.7229 26.8453C30.6408 27.1166 30.887 27.2807 31.2404 27.4799Z" fill="#F9B115"/>
<path d="M19.2007 40.3375C18.6002 39.9021 18.2959 39.78 17.9836 39.5208C16.7955 40.4436 16.4422 41.5516 16.4081 41.6908C16.3271 41.961 16.5723 42.1262 16.9256 42.3254C17.6593 42.7718 17.7264 42.8358 18.5441 43.3193C19.0096 42.8629 19.485 42.3914 19.8033 41.895C19.8643 42.0551 20.0575 42.1812 20.3118 42.3254C21.0454 42.7718 21.1125 42.8358 21.9303 43.3193C22.6199 42.6417 23.3626 41.94 23.5217 41.1573C23.5708 40.914 23.1524 40.7489 22.5869 40.3375C21.9863 39.9021 21.682 39.78 21.3697 39.5208C20.7231 40.0232 20.3298 40.5757 20.0946 41.0011C19.9825 40.827 19.6391 40.6558 19.2007 40.3375Z" fill="#F9B115"/>
<path d="M98.7231 112.323C97.9894 111.876 97.9223 111.812 97.1046 111.329C96.6392 111.785 96.1637 112.257 95.8454 112.753C95.7844 112.593 95.5912 112.467 95.3369 112.323C94.6033 111.876 94.5362 111.812 93.7184 111.329C93.0288 112.006 92.2861 112.708 92.127 113.491C92.0779 113.734 92.4953 113.899 93.0618 114.311C93.6624 114.746 93.9667 114.868 94.279 115.127C94.9256 114.625 95.3189 114.072 95.5542 113.647C95.6663 113.821 96.0096 113.992 96.448 114.311C97.0485 114.746 97.3528 114.868 97.6651 115.127C98.8532 114.205 99.2065 113.096 99.2406 112.957C99.3217 112.686 99.0754 112.522 98.7231 112.323Z" fill="#F9B115"/>
<path d="M87.7468 65.4486C88.4545 65.879 88.5195 65.941 89.3093 66.4075C89.9749 65.7538 90.6916 65.0762 90.8447 64.3215C90.8927 64.0873 90.4884 63.9271 89.9419 63.5308C89.3623 63.1104 89.069 62.9933 88.7678 62.743C87.6217 63.6339 87.2804 64.7029 87.2474 64.837C87.1693 65.0982 87.4065 65.2564 87.7468 65.4486Z" fill="#F9B115"/>
<path d="M81.217 63.5139C80.0709 64.4047 79.7296 65.4737 79.6966 65.6079C79.6185 65.8691 79.8557 66.0272 80.196 66.2204C80.9037 66.6508 80.9688 66.7129 81.7585 67.1793C82.4241 66.5257 83.1408 65.8481 83.2939 65.0934C83.342 64.8592 82.9376 64.699 82.3911 64.3026C81.8125 63.8823 81.5183 63.7641 81.217 63.5139Z" fill="#F9B115"/>
<path d="M14.6182 48.2336C14.6422 48.1135 14.6532 48.0184 14.6532 47.9463C14.6532 47.8743 14.6362 47.8312 14.6012 47.8202C14.5201 47.8202 14.415 47.9583 14.2859 48.2336C13.5722 49.8261 13.2149 51.2494 13.2139 52.5086C13.2119 54.3643 13.8054 55.8437 14.9946 56.9467C16.2417 58.1098 17.9803 58.6933 20.2094 58.6953C20.5277 58.6953 20.893 58.6573 21.2444 58.6312V58.6483C23.9269 58.5912 26.9006 57.9216 29.6302 57.1068C30.6351 63.2025 31.4428 68.5284 31.4428 69.8997C31.4428 70.3061 31.4248 70.6364 31.3898 70.8866C31.2036 72.0617 29.6322 73.7683 26.6754 76.0084C26.5263 76.1215 26.3861 76.2176 26.24 76.3257C26.233 76.2806 26.225 76.2296 26.219 76.1896C25.9678 74.6331 25.5894 73.0086 25.0869 71.32C24.5474 69.5114 24.128 68.6075 23.8288 68.6075C23.7687 68.6075 23.7207 68.6365 23.6846 68.6966C23.4694 69.5824 23.2773 70.3071 23.1091 70.8706C23.1091 70.9427 23.3243 71.6844 23.7557 73.0977C24.2341 74.6321 24.5394 75.8533 24.6716 76.7641C24.6956 76.9242 24.7256 77.1264 24.7596 77.3516C22.5506 78.784 20.7119 79.5117 19.2535 79.5117C15.9124 79.5117 14.2419 77.744 14.2419 74.2117C14.2419 72.6072 14.5271 71.1279 15.0977 69.7736C15.2258 69.4623 15.2898 69.2241 15.2898 69.0549C15.2898 68.9228 15.2548 68.8568 15.1847 68.8568C15.0106 68.8568 14.8064 69.115 14.5732 69.6305C13.7004 71.5463 13.2639 73.439 13.2639 75.3077C13.2639 77.2956 13.7414 78.9201 14.6963 80.1763C15.6862 81.4705 17.0014 82.1151 18.6419 82.1151C20.4466 82.1151 22.4715 81.4214 24.7186 80.0321C24.8557 79.9471 24.9818 79.852 25.117 79.7639C25.9598 85.4982 27.5492 96.5044 27.8405 99.3931C28.1638 102.591 28.4991 104.759 28.8474 105.896C29.1107 106.771 29.5951 107.604 30.3028 108.394C30.8313 108.984 31.3878 109.399 31.9633 109.663C34.4657 110.808 39.6475 111.213 45.4218 110.993C49.3045 110.845 53.082 110.855 57.7513 109.385C58.9804 108.999 59.8713 108.41 60.5179 107.895C60.4458 108.985 60.673 109.842 61.1995 110.463C61.678 111.027 62.3316 111.308 63.1583 111.308C64.1643 111.308 65.1172 110.9 66.015 110.086C66.6005 109.415 66.9959 108.913 67.2001 108.577C67.4513 109.332 67.6015 109.745 67.6485 109.816C67.9478 110.284 68.4693 110.517 69.212 110.517C70.3851 110.517 71.434 109.476 72.3569 107.392C72.3929 107.99 72.5481 108.482 72.8233 108.864C73.3258 109.578 74.2527 109.955 75.5899 110.006V110.015C75.6049 110.015 75.6219 110.011 75.6369 110.011C75.653 110.011 75.665 110.015 75.68 110.015V110.007C76.3906 109.986 77.2024 109.724 78.1232 109.207C78.961 108.739 79.5776 108.272 79.973 107.806C80.9799 106.633 81.3983 105.416 81.2311 104.159C81.111 103.308 80.5725 102.325 79.6136 101.211C78.5476 100.003 78.2754 99.6944 78.1673 99.3721C78.4185 99.4192 78.7178 99.4442 79.0661 99.4442C79.2693 99.4442 79.3714 99.3841 79.3714 99.263C79.3714 99.1189 79.2223 98.9227 78.923 98.6704C78.0482 98.0238 77.3125 97.4914 76.7129 97.071C76.5328 96.9038 76.4076 97.0049 76.3356 97.3763C76.2395 98.144 76.1734 98.7535 76.1374 99.209C76.0894 99.3411 76.2035 99.4071 76.4797 99.4071C76.8981 100.664 77.3395 101.463 78.4295 102.72C79.5786 104.037 80.2372 104.906 80.4054 105.326C80.5015 105.553 80.022 105.959 78.969 106.546C77.816 107.169 76.7119 107.482 75.6509 107.494C75.1935 107.489 74.7361 107.362 74.2797 107.103C73.8843 106.816 73.6151 106.499 73.4719 106.151C73.3278 105.804 73.2257 105.547 73.1666 105.378C73.2857 105.006 73.3158 104.779 73.2557 104.696C73.1837 104.601 72.8834 104.594 72.6992 104.894C72.2798 105.673 72.0276 106.174 71.9445 106.402C71.369 107.517 70.6393 108.026 69.7525 107.929C69.202 107.871 68.6454 107.451 68.0819 106.672C68.3452 105.834 68.4773 105.409 68.4773 105.398C68.4773 105.315 68.4412 105.272 68.3692 105.272C68.3211 105.272 68.2611 105.29 68.189 105.326C67.6625 105.852 67.2672 106.338 67.0039 106.781C66.7036 107.27 66.2612 107.708 65.6737 108.092C65.0151 108.499 64.3735 108.702 63.7509 108.702C62.6849 108.702 61.8942 108.115 61.3797 106.941C61.4988 106.533 61.5929 106.22 61.6589 105.997C61.725 105.776 61.74 105.617 61.758 105.521C61.772 105.445 61.7871 105.344 61.686 105.397C61.6479 105.412 61.5178 105.474 61.2365 105.647C59.59 106.513 58.2267 107.056 57.1167 107.314C57.0396 107.331 51.4905 108.573 44.7903 108.65C40.1109 108.704 36.1652 108.57 32.4067 107.201C31.9974 107.052 31.628 106.682 31.2367 106.237C30.3388 105.22 29.7753 103.801 29.5481 101.981C29.416 100.411 29.2908 98.8426 29.1707 97.2732C28.9635 94.8979 27.3911 84.0319 26.6003 78.7159C27.8555 77.75 28.9936 76.674 29.9925 75.4669C31.2577 73.9405 31.9553 72.6283 32.0955 71.5312C32.5799 74.475 33.6779 79.0552 36.1102 82.7366C35.5567 84.4312 35.2654 86.0778 35.2654 87.6712C35.2654 92.4277 37.5846 95.5886 42.335 96.2522C43.0997 96.3593 43.9204 96.3913 44.7282 96.3673C44.6561 96.5205 44.5801 96.6976 44.5 96.9078C44.0095 98.18 43.7062 99.3301 43.5691 100.372C39.4443 102.489 35.0932 104.744 34.3996 105.134L34.3075 106.126C35.6538 105.36 39.7015 103.279 43.485 101.355C43.482 101.472 43.476 101.588 43.476 101.705C43.476 103.334 43.7753 104.705 44.3739 105.818C45.1406 107.219 46.2906 107.926 47.8231 107.938C49.895 107.95 52.3142 106.908 55.0808 104.812C57.1527 103.244 58.5961 101.866 59.4109 100.679C59.9614 99.6033 60.2076 98.3862 60.1475 97.0319C60.0755 95.3324 59.5069 93.931 58.4409 92.829C57.6272 91.9782 56.9025 91.5528 56.2679 91.5528C55.5853 91.5528 54.9437 91.9242 54.3451 92.6679C53.6985 93.4706 53.3862 94.4225 53.4103 95.5235C53.4343 96.8287 54.1289 97.4824 55.4952 97.4824C55.6383 97.4824 56.0037 97.4703 56.5912 97.4453C57.3339 97.4103 58.0105 97.5484 58.6211 97.8587C59.1356 98.1209 59.4299 98.3912 59.5009 98.6665C59.1546 99.3601 57.8124 100.564 55.4772 102.277C52.6626 104.35 50.3634 105.386 48.5788 105.386C45.7642 105.386 44.3428 103.894 44.2808 100.951C47.6189 99.257 50.5786 97.7736 51.0361 97.5564L51.1091 96.5465C50.2363 96.9649 47.4027 98.4052 44.3068 99.9927C44.3508 99.4942 44.4239 98.9887 44.554 98.4693C44.6501 98.1099 44.8053 97.6435 45.0215 97.068C45.1286 96.7807 45.1976 96.5475 45.2457 96.3453C46.2026 96.2852 47.1194 96.1421 47.8791 95.9329C50.5776 95.1902 53.6265 93.4246 56.1498 85.9867C58.3889 79.3895 54.5153 77.5959 49.4756 77.6169C48.79 77.6199 47.5578 77.6069 46.4408 77.6109C45.7071 77.6139 45.0235 77.6249 44.5781 77.6529C42.8224 77.762 41.265 78.0473 39.9598 79.1763C39.107 79.914 39.13 80.999 39.8026 82.8598C39.8026 82.8598 38.6746 82.4193 37.7517 81.3313C38.6886 79.5066 39.8777 78.0393 41.3431 76.9643C41.5142 76.8412 41.9616 76.5489 42.6773 76.0905C44.0055 76.1495 45.1536 76.0985 46.1055 75.9964L46.0825 76.0154C46.5219 76.0154 47.3386 75.8763 48.2405 75.6411C48.9781 75.4669 49.3685 75.3107 49.3685 75.3107L49.3725 75.3057C50.6197 74.8894 51.8128 74.3268 52.2452 73.7133C52.9779 72.6723 53.3212 71.0007 53.2751 68.7006C52.9869 65.873 52.5675 61.6471 52.1291 57.29C52.8107 57.1919 53.5424 57.0418 54.2701 56.8166C54.9847 63.2025 55.5483 68.046 55.9586 71.307C56.0667 72.36 56.0607 73.3719 55.9416 74.3418C55.8455 75.1096 55.8625 75.4919 55.9947 75.4919C56.0778 75.4919 56.2099 75.3248 56.39 74.9884C56.8575 74.1146 57.0907 72.6843 57.0907 70.6945C57.0907 70.1329 57.0667 69.5524 57.0186 68.9518C56.8154 66.6047 56.4021 63.0063 55.7795 58.1548C55.7164 57.6573 55.6443 57.0318 55.5653 56.3181C55.6564 56.2751 55.7494 56.236 55.8395 56.189C56.5642 55.8166 57.5942 55.101 58.9484 54.069C58.8764 55.101 59.1216 55.8977 59.6851 56.4592C60.1886 56.9507 60.8272 57.1959 61.6069 57.1959C62.6739 57.1959 63.4756 56.8186 64.0141 56.0649C64.4335 55.4783 64.7508 54.9628 64.966 54.5204C65.2793 54.8798 65.5836 55.2451 65.8829 55.6164C66.3263 56.0228 66.8287 56.226 67.3923 56.226C69.1879 56.226 70.0868 54.9498 70.0868 52.3985C70.0868 51.886 69.9757 51.3355 69.7545 50.7549C69.5313 50.1764 69.3311 49.8841 69.1519 49.8841C69.1029 49.8841 69.0628 49.9132 69.0258 49.9732C68.7145 50.4877 68.5884 51.1583 68.6484 51.9861C68.6484 52.1412 68.7495 52.3534 68.9537 52.6237C69.1579 52.8939 69.259 53.0941 69.259 53.2262C69.259 53.3814 69.0628 53.5315 68.6665 53.6746C68.3301 53.7948 68.0449 53.8538 67.8037 53.8538C67.0379 53.8538 66.3853 53.4965 65.8448 52.7778C66.1211 51.855 66.2582 51.3345 66.2582 51.2134C66.2582 51.0812 66.2232 51.0172 66.1511 51.0172C66.1021 51.0292 66.054 51.0462 66.007 51.0692C65.5385 51.5126 65.1792 52.0101 64.929 52.5616C64.2453 54.083 63.2524 54.8427 61.9462 54.8427C60.9883 54.8427 60.2466 54.3162 59.7181 53.2613C59.8012 52.7468 59.8503 52.4295 59.8623 52.3094C59.8743 52.1913 59.8813 52.0942 59.8813 52.0221C59.8813 51.8319 59.8272 51.7348 59.7181 51.7348C59.6461 51.7348 59.5139 51.8009 59.3238 51.933C57.5261 53.1552 56.301 53.9839 55.5683 54.2141C55.4952 54.2372 55.4201 54.2562 55.3471 54.2782C54.7966 48.9703 54.1129 41.4173 54.1319 41.157C54.4673 41.5043 54.7845 41.7926 55.0838 42.0198C55.1919 42.0919 55.269 42.1289 55.318 42.1289C55.3901 42.1289 55.4261 42.0799 55.4261 41.9848C55.4261 41.6855 55.1389 40.9238 54.5633 39.7037C54.204 38.9129 53.8387 38.1222 53.4673 37.3315C53.2511 36.817 53.084 36.5577 52.9639 36.5577C52.9158 36.5577 52.8808 36.6008 52.8558 36.6839C52.4003 38.0732 52.2092 38.8349 52.2802 38.965C52.5675 39.5405 52.7296 39.8938 52.7657 40.026C52.9589 42.0358 53.7586 51.1143 54.0559 54.5955C53.3022 54.7466 52.5635 54.8437 51.8869 54.9018C51.2873 48.9763 50.6897 43.2349 50.3724 40.8527C50.965 41.5234 51.2743 41.8707 51.2983 41.8937C51.3904 41.9658 51.4665 42.0028 51.5245 42.0028C51.5946 42.0028 51.6296 41.9427 51.6296 41.8216C51.6296 41.128 51.0301 39.6126 49.8309 37.2774C49.6217 36.7259 49.4586 36.4496 49.3425 36.4496C49.2954 36.4496 49.2604 36.4927 49.2374 36.5758C48.864 37.7749 48.6789 38.5346 48.6789 38.8569C48.6789 39.026 48.7139 39.1582 48.784 39.2532C48.9701 39.5155 49.0752 39.6846 49.0983 39.7567C49.1944 41.6064 50.1002 52.0621 50.3985 54.9799C49.3985 54.9999 48.7429 54.9498 48.7429 54.9498C48.7429 54.9498 44.472 55.2221 43.8454 49.4898C43.7133 47.9203 43.5871 46.3518 43.466 44.7824C43.2448 42.233 42.6383 36.782 42.2019 33.643H46.2566C50.2643 33.643 55.8345 33.0935 62.9601 31.9895C65.5175 31.5921 67.7616 31.2508 69.6293 30.9655C69.9206 33.7571 70.2419 36.885 70.5462 39.8518C69.254 40.2912 66.9949 40.9118 63.7489 41.7145C60.8092 42.4372 59.3088 42.9947 59.2477 43.3841C59.2387 43.4431 59.3047 43.4852 59.4469 43.5082C59.6601 43.5422 59.9814 43.5372 60.4128 43.4962C64.3244 43.2189 67.08 43.0488 68.6785 42.9877C69.3481 42.8035 70.0607 42.5673 70.7984 42.2991C71.2088 46.2748 71.5641 49.6539 71.7403 51.0522C71.8474 52.1052 71.8414 53.1171 71.7213 54.087C71.6262 54.8547 71.6432 55.2371 71.7753 55.2371C71.8584 55.2371 71.9905 55.0699 72.1717 54.7336C72.6381 53.8598 72.8714 52.4295 72.8714 50.4396C72.8714 49.8781 72.8483 49.2976 72.7993 48.697C72.7182 47.7642 72.462 45.0306 72.1427 41.7726C73.7071 41.133 75.3957 40.3403 77.2374 39.3583C80.1121 37.8249 81.7676 36.791 82.204 36.2545C82.7746 35.5558 83.1779 34.5048 83.4122 33.0975C83.5303 32.3528 83.5353 31.2919 83.4262 29.9166C83.7635 30.0147 88.4168 31.438 91.3886 28.9387C91.6608 28.7095 92.0962 27.9578 92.7919 26.7837C93.2693 27.4193 94.031 27.9978 95.073 28.5263C95.9818 28.9697 96.6665 29.1909 97.1209 29.1909C97.5293 29.1909 97.8866 28.8976 98.1989 28.3111C98.4752 27.7596 98.6103 27.178 98.6103 26.5685C98.6103 25.3693 98.4311 24.3714 98.0718 23.5687C97.6524 22.6228 97.0538 22.1484 96.2741 22.1484C95.3162 22.1484 94.4304 22.9221 93.6166 24.4665C93.5676 24.3834 93.5156 24.3404 93.4555 24.3404C93.3234 24.3404 92.941 24.8028 92.3054 25.7237C91.6348 26.7066 90.8941 27.119 90.4597 27.3512C87.4579 28.9597 83.26 27.3712 82.8476 27.2421C82.4252 26.5454 82.13 26.074 81.9618 25.8288C81.7806 25.5205 81.6355 25.5155 81.5274 25.8128C81.2822 26.5154 81.068 27.2211 80.8828 27.9317C81.5214 29.0267 82.0879 31.0026 82.5824 33.8562C81.3553 34.9342 79.6877 35.9742 77.5757 36.9741C76.5538 37.4486 74.655 38.2363 71.8995 39.3343C71.6032 36.3626 71.2819 33.2317 71.0066 30.7544C73.6621 30.346 75.2796 30.0847 75.5168 29.9786C75.8311 29.8565 76.0693 29.5302 76.0693 29.5302C76.829 28.6904 77.2084 27.8537 77.2084 27.0139C77.2084 26.8237 77.1774 26.6605 77.1203 26.5284C76.762 25.1592 75.8822 24.4765 75.0244 24.1232C73.9954 23.6988 72.3549 23.4976 70.1308 23.4516C69.9777 22.1123 69.9056 21.3286 69.9176 21.1414C70.2539 21.4887 70.5702 21.777 70.8695 22.0042C70.9786 22.0763 71.0557 22.1133 71.1027 22.1133C71.1748 22.1133 71.2118 22.0643 71.2118 21.9692C71.2118 21.6699 70.9246 20.9082 70.349 19.6881C69.9897 18.8973 69.6243 18.1066 69.253 17.3159C69.0378 16.8014 68.8706 16.5421 68.7495 16.5421C68.7005 16.5421 68.6665 16.5852 68.6424 16.6683C68.186 18.0576 67.9958 18.8193 68.0669 18.9494C68.3542 19.5249 68.5153 19.8782 68.5503 20.0104C68.6775 21.3346 68.7826 22.4677 68.8686 23.4446C67.4663 23.4656 64.5606 23.7018 60.1145 24.1592C55.4061 24.6377 51.4675 24.8218 50.4475 24.8328C48.1714 24.8449 46.3978 24.6777 45.1276 24.3294C44.0846 24.0301 43.5691 23.6878 43.5811 23.3054C43.6042 22.4056 45.3838 20.723 48.9181 18.2557C49.926 17.5501 51.1712 16.8374 52.6546 16.1188C53.9708 15.4832 54.7996 15.1438 55.1439 15.0948C55.7615 15.0718 56.1408 15.293 56.2829 15.7594C56.4141 16.1788 56.5442 16.389 56.6733 16.389C56.7334 16.389 56.8585 16.1968 57.0487 15.8135C57.462 14.9627 57.6702 14.3641 57.6702 14.0158C57.6702 13.3452 57.1718 13.0169 56.1768 13.0289C54.3722 13.0409 51.5806 14.4002 47.7961 17.1067C46.1725 18.2688 44.9874 19.2927 44.2387 20.1785C43.3019 21.2916 42.6152 22.6458 42.1758 24.2373C42.1278 24.3944 42.1048 24.5506 42.1048 24.7057C42.1048 26.2392 44.2618 27.0039 48.5788 27.0039C50.3704 27.0039 54.8306 26.8097 59.8122 26.2952C64.7518 25.7847 67.8257 25.5265 69.0438 25.5225C69.1509 26.4884 69.273 27.6184 69.4041 28.8546C67.5334 29.0868 65.3023 29.3711 62.78 29.7074C55.6033 30.6533 50.1012 31.1257 46.2706 31.1257H41.7594C41.5302 29.9977 41.26 28.8486 40.9046 27.6555C40.3641 25.8468 39.9468 24.943 39.6475 24.943C39.5874 24.943 39.5384 24.972 39.5033 25.032C39.2881 25.9179 39.095 26.6425 38.9278 27.2061C38.9278 27.2781 39.143 28.0198 39.5744 29.4331C39.7676 30.0527 39.9247 30.6082 40.0609 31.1257H38.3232C37.4484 31.0126 36.8559 30.8855 36.4185 30.7473C36.0001 30.0507 35.7078 29.5793 35.5417 29.334C35.3615 29.0257 35.2184 29.0207 35.1113 29.318C34.869 30.0207 34.6568 30.7263 34.4727 31.437C35.1053 32.532 35.6668 34.5078 36.1552 37.3615C34.9401 38.4395 33.2886 39.4795 31.1976 40.4794C30.5901 40.7647 29.6602 41.166 28.432 41.6755C27.8945 39.2272 27.4732 37.5106 27.355 37.5066C27.0758 37.4946 26.8376 38.2543 26.6394 39.7877C26.7735 40.5394 26.9196 41.3632 27.0738 42.235C26.3962 42.5113 25.6535 42.8116 24.8377 43.1379C23.7357 43.5793 21.2914 44.2739 17.5039 45.2208C14.5932 45.9435 13.1068 46.501 13.0457 46.8903C13.0367 46.9494 13.1018 46.9914 13.2429 47.0145C13.4541 47.0485 13.7724 47.0435 14.1998 47.0024C18.0734 46.7252 20.802 46.555 22.3854 46.494C23.8998 46.0746 25.6114 45.408 27.4812 44.5462C28.0337 47.6951 28.6523 51.2784 29.2338 54.7486C26.0618 55.6655 23.1902 55.9928 21.929 56.0989V56.0919C21.3995 56.1329 20.878 56.164 20.3836 56.163C18.8081 56.161 17.4378 55.8056 16.2707 55.098C14.8714 54.2592 14.1728 53.0961 14.1738 51.6097C14.1738 51.1783 14.2338 50.5978 14.351 49.8671L14.6182 48.2336ZM56.8945 95.0391C56.5352 95.0391 56.1698 95.0451 55.7985 95.0561C55.307 95.0331 54.9957 94.912 54.8636 94.6968C54.8876 94.1583 55.2059 93.888 55.8155 93.888C56.319 93.888 56.9416 94.3014 57.6842 95.1272C57.421 95.0811 57.1578 95.0501 56.8945 95.0391ZM95.6646 24.6277C95.9288 24.6277 96.177 24.8048 96.4102 25.1582C96.6435 25.5115 96.7656 25.9038 96.7776 26.3352C96.2511 26.2752 95.7907 26.108 95.3943 25.8318C95.3222 25.7827 95.0169 25.5135 94.4794 25.024C94.7677 24.7598 95.1621 24.6277 95.6646 24.6277ZM70.6553 27.7536C70.5512 26.9328 70.4621 26.2091 70.38 25.5405C73.3638 25.6256 74.5189 26.104 75.5018 28.1109C75.2726 28.1519 73.561 28.3471 70.7714 28.6894C70.7304 28.3501 70.6913 28.0358 70.6553 27.7536ZM43.0246 87.6702C43.1968 87.7333 43.405 87.6973 43.5311 87.5641C44.4059 86.6363 44.6962 85.3331 44.7873 84.7325C44.8153 84.5473 44.7042 84.3752 44.524 84.3241C43.4981 84.0349 40.205 83.0069 40.1409 81.7057C40.0278 79.4276 48.5047 79.5697 49.3865 79.5847C53.4183 79.6528 57.0016 80.7108 55.7975 85.6524C54.4512 91.1795 50.8139 93.3815 46.4338 93.856C45.9994 93.903 43.9855 93.87 42.8935 93.6598C41.9306 93.4746 41.0948 93.2224 40.3982 92.9181C37.6506 91.71 36.2763 89.565 36.2763 86.4871C36.2763 85.6143 36.4535 84.6704 36.7698 83.6735C38.8988 86.0517 40.3091 86.6843 43.0246 87.6702ZM28.9075 43.8705C29.5451 43.5542 30.1897 43.2289 30.8643 42.8656C33.711 41.3322 35.3495 40.2982 35.7829 39.7617C36.3484 39.0631 36.7468 38.0121 36.979 36.6048C37.0961 35.8601 37.1001 34.7991 36.993 33.4238C37.3343 33.5239 37.6366 33.591 38.036 33.626V33.643H40.5713C41.0458 36.9671 41.7955 43.5252 42.1358 46.9024C42.4601 50.1003 42.7944 52.2683 43.1417 53.4054C43.404 54.2802 43.9134 55.093 44.5971 55.9037C45.9123 57.4662 49.0232 57.4662 49.0232 57.4662C49.0232 57.4662 49.7008 57.5022 50.6947 57.4391C51.7137 65.5837 52.2232 70.174 52.2232 71.1989C52.2232 71.3541 52.2122 71.4492 52.1881 71.4862C52.042 71.8085 51.8738 72.0667 51.6887 72.2759C50.2053 73.2148 48.2174 73.6262 46.3257 73.7793C48.2134 72.5912 49.2474 71.8766 49.4065 71.6463C49.6858 70.9997 49.913 70.4142 50.0872 69.8857C50.1803 69.6585 50.2273 69.4913 50.2273 69.3822C50.2273 69.3102 50.1923 69.2751 50.1222 69.2751C50.0411 69.2751 49.872 69.3582 49.6167 69.5254C47.1244 71.1189 44.9424 72.4961 43.0687 73.6582C42.8705 73.6812 42.6733 73.6932 42.4751 73.6932C40.7055 73.6932 39.0239 73.0226 37.4294 71.6824C36.0321 70.4973 35.3345 69.4733 35.3345 68.6105C35.3345 68.1311 36.2303 67.6046 38.024 67.029C39.7466 66.4795 41.2069 66.2033 42.406 66.2033C42.8955 66.2033 43.7333 66.3644 44.9204 66.6867C45.0835 66.7358 45.2177 66.7588 45.3228 66.7588C45.4629 66.7588 45.5309 66.7118 45.5309 66.6147C45.5309 66.2683 44.9604 65.8239 43.8204 65.2854C42.4941 64.6639 41.0908 64.3626 39.6124 64.3876C38.2392 64.4106 37.022 64.9371 35.963 65.9671C34.846 67.0451 34.2875 68.3683 34.2875 69.9388C34.2875 70.9917 34.7119 72.0097 35.5617 72.9926C36.1782 73.7002 37.022 74.3819 38.093 75.0405C38.4574 75.2497 38.8227 75.4589 39.187 75.6681L39.158 75.7031C39.2001 75.7101 39.2391 75.7151 39.2801 75.7221C39.4893 75.8422 39.6995 75.9624 39.9087 76.0825C38.8968 77.0073 37.9349 78.4587 37.021 80.4105C35.7569 78.6929 34.2915 76.0554 33.4647 72.36C33.4597 72.338 33.4547 72.316 33.4497 72.2949C33.3756 71.9606 33.3216 71.5973 33.2585 71.246C33.0904 70.0489 32.9162 68.1311 32.646 65.5327C32.2966 62.2146 31.9233 59.424 31.5279 57.1609C31.4949 56.9737 31.4579 56.7645 31.4178 56.5453C34.5798 55.4973 37.1912 54.3813 38.2642 54.034C40.4142 53.3383 41.1028 54.1681 39.6225 55.9367C37.8148 58.0957 35.1403 60.465 34.853 60.9434C34.5658 61.4208 35.3545 60.9444 35.3545 60.9444C35.3545 60.9444 37.9459 58.9125 39.4063 57.3821C41.0188 55.6925 42.0607 53.8558 41.9196 52.2003C41.7785 50.5457 36.6337 51.9631 32.0304 53.7988C31.6801 53.9389 31.3287 54.067 30.9774 54.1911C30.4099 51.2084 29.6131 47.2086 28.9075 43.8705Z" fill="#F9B115"/>
<path d="M90.695 112.302L88.538 112.535C88.2558 112.565 87.9725 112.581 87.6892 112.581L18.1386 112.598C18.1386 112.598 14.246 112.66 15.1098 111.061C16.0947 109.239 23.1853 109.461 23.7768 105.374C24.3674 101.287 20.2806 98.8737 20.2806 98.8737L21.2164 98.7506L18.3888 96.6837L18.2967 99.3212L18.5279 99.4373C18.5279 99.4373 21.7199 102.837 22.877 104.573C22.877 104.573 23.3624 105.383 22.877 105.683C22.3915 105.983 21.9751 106.354 18.9904 107.186C16.0066 108.019 13.2771 110.68 13.4152 112.692C13.5533 114.703 16.1908 114.797 17.8563 114.936C19.5219 115.075 84.7565 114.936 84.7565 114.936C84.7565 114.936 88.536 114.138 90.646 112.701C91.2335 112.298 90.695 112.302 90.695 112.302Z" fill="#F9B115"/>
<path d="M13.8963 95.5744C14.63 96.0208 14.697 96.0849 15.5148 96.5683C16.2044 95.8907 16.9471 95.189 17.1063 94.4063C17.1553 94.1631 16.7379 93.9979 16.1714 93.5865C15.5708 93.1511 15.2665 93.029 14.9543 92.7698C13.7662 93.6926 13.4128 94.8007 13.3788 94.9398C13.2977 95.211 13.5439 95.3752 13.8963 95.5744Z" fill="#F9B115"/>
<path d="M86.5865 107.172C86.6115 107.172 86.6286 107.219 86.6376 107.312C86.6456 107.405 86.6706 107.456 86.7136 107.464C87.0469 107.561 87.2661 107.399 87.3012 107.36C87.3302 107.327 87.6075 107.002 87.4103 106.311C87.2581 106.134 87.0599 106.045 86.8147 106.045C86.029 106.045 85.4244 106.741 85.003 108.136C84.92 108.639 85.2603 108.794 85.4725 108.858C85.4975 108.867 85.7127 108.909 86.1191 108.984C85.4855 109.509 85.1682 109.859 85.1682 110.036C85.1682 110.104 85.1992 110.19 85.2933 110.201C85.3944 110.213 85.5215 110.219 85.7007 110.112C85.996 109.859 86.5204 109.563 87.2721 109.225C87.9478 108.929 88.4032 108.64 88.6354 108.357C88.8676 108.074 88.9847 107.775 88.9847 107.463C88.9847 107.362 88.9547 107.311 88.8957 107.311C88.8706 107.32 88.8406 107.328 88.8066 107.336C88.6715 107.404 88.4302 107.56 88.0849 107.805C87.8227 107.991 87.5314 108.144 87.2101 108.262C86.9989 108.211 86.3543 108.273 85.7427 107.779C85.7397 107.56 86.054 107.248 86.5865 107.172Z" fill="#F9B115"/>
<path d="M92.5564 32.6989C92.9358 33.0002 93.2861 33.3585 93.8346 33.4216C94.4082 32.9551 94.4962 32.1093 94.0478 31.5378C93.7225 31.1234 93.3111 31.1324 93.0028 31.5608C92.9188 31.6789 92.8587 31.8511 92.7436 31.9031C92.4904 32.0172 92.3963 32.2314 92.2902 32.4486C91.9889 33.0632 91.5585 33.5657 90.978 33.931C90.6477 34.1382 90.3173 34.3534 89.967 34.5206C88.7779 35.0871 87.5788 35.6326 86.3837 36.1861C86.2406 36.2522 86.0944 36.3152 85.9062 36.3993C85.9963 36.4313 86.0274 36.4554 86.0524 36.4504C86.8321 36.2882 87.6238 36.1681 88.3886 35.9509C90.1732 35.4444 91.6696 34.5406 92.4884 32.774C92.5004 32.7469 92.5294 32.7289 92.5564 32.6989ZM93.9277 32.5557C93.5924 32.5267 93.3702 32.3436 93.124 32.1153C93.6224 31.9132 93.7575 31.9932 93.9277 32.5557Z" fill="#F9B115"/>
<path d="M45.7948 90.2341C47.5794 89.7276 49.0758 88.8238 49.8946 87.0572C49.9076 87.0301 49.9366 87.0111 49.9646 86.9821C50.344 87.2834 50.6943 87.6417 51.2428 87.7048C51.8164 87.2383 51.9044 86.3925 51.456 85.821C51.1307 85.4066 50.7193 85.4156 50.4111 85.844C50.327 85.9621 50.2669 86.1343 50.1518 86.1863C49.8986 86.3004 49.8045 86.5147 49.6984 86.7319C49.3971 87.3464 48.9667 87.8489 48.3862 88.2142C48.0559 88.4214 47.7256 88.6366 47.3752 88.8038C46.1861 89.3703 44.987 89.9158 43.7919 90.4693C43.6488 90.5354 43.5026 90.5984 43.3145 90.6825C43.4045 90.7146 43.4356 90.7386 43.4606 90.7336C44.2393 90.5714 45.031 90.4513 45.7948 90.2341ZM51.3359 86.8389C51.0006 86.8099 50.7784 86.6268 50.5322 86.3985C51.0296 86.1954 51.1657 86.2754 51.3359 86.8389Z" fill="#F9B115"/>
<path d="M88.0004 84.849C87.7031 84.7048 87.3578 84.7779 87.0945 85.0992C86.9224 85.3084 86.7652 85.5496 86.6752 85.8039C86.4279 86.5015 86.2177 87.2122 86.0045 87.8838C85.7583 87.3303 85.5131 86.7207 85.2218 86.1352C84.9486 85.5866 84.4991 85.2593 83.7915 85.2283C83.5763 85.5426 83.3431 85.8819 83.1309 86.1922C83.4922 86.8128 83.9196 87.1171 84.6082 86.8568C84.8665 87.3363 85.1397 87.7697 85.3359 88.2351C85.5271 88.6905 85.6382 89.178 85.8144 89.7435C86.1907 89.2971 86.3318 88.8657 86.4399 88.4113C86.5921 87.7727 86.7622 87.1381 86.9444 86.5065C87.0265 86.2212 87.1566 85.949 87.5069 85.8459C87.7572 86.018 88.0094 86.1902 88.3187 86.4034C88.4018 86.1312 88.4898 85.937 88.5189 85.7348C88.5609 85.4225 88.2897 84.9881 88.0004 84.849Z" fill="#F9B115"/>
<path d="M32.1019 82.84C32.1559 82.5637 32.256 82.2935 32.5793 82.1673C32.8306 82.3095 33.0848 82.4516 33.3951 82.6268C33.4512 82.3615 33.5182 82.1713 33.5282 81.9772C33.5432 81.6789 33.25 81.2895 32.9647 81.1814C32.6704 81.0693 32.3501 81.1684 32.1279 81.4947C31.9828 81.7069 31.8537 81.9491 31.7896 82.1964C31.6134 82.878 31.4743 83.5686 31.3282 84.2222C31.0489 83.7188 30.7647 83.1623 30.4404 82.6318C30.1361 82.1353 29.6506 81.6869 29.009 81.8931C28.5766 82.0322 28.5236 82.4926 28.4635 82.861C28.4365 83.0281 29.2883 83.6717 29.9189 83.3675C30.2031 83.7999 30.4984 84.1872 30.7236 84.6126C30.9428 85.028 31.09 85.4804 31.3032 86.0009C31.6225 85.5465 31.7195 85.1261 31.7846 84.6867C31.8747 84.0691 31.9828 83.4535 32.1019 82.84Z" fill="#F9B115"/>
<path d="M19.8588 69.652C20.1781 69.1976 20.2752 68.7772 20.3402 68.3378C20.4313 67.7202 20.5384 67.1046 20.6585 66.4921C20.7126 66.2158 20.8127 65.9456 21.136 65.8194C21.3872 65.9616 21.6415 66.1037 21.9517 66.2789C22.0078 66.0136 22.0749 65.8234 22.0849 65.6293C22.0999 65.331 21.8066 64.9416 21.5213 64.8335C21.2271 64.7214 20.9068 64.8205 20.6846 65.1468C20.5394 65.359 20.4103 65.6012 20.3463 65.8495C20.1701 66.5311 20.031 67.2217 19.8848 67.8753C19.6056 67.3719 19.3213 66.8154 18.997 66.2849C18.6927 65.7884 18.2073 65.34 17.5657 65.5462C17.1333 65.6853 17.0802 66.1457 17.0202 66.5141C16.9931 66.6812 17.8449 67.3248 18.4755 67.0206C18.7598 67.453 19.055 67.8403 19.2803 68.2657C19.4995 68.6781 19.6456 69.1315 19.8588 69.652Z" fill="#F9B115"/>
<path d="M28.9706 30.4526C28.6763 30.3405 28.356 30.4395 28.1338 30.7648C27.9887 30.977 27.8595 31.2193 27.7955 31.4675C27.6193 32.1491 27.4802 32.8398 27.334 33.4934C27.0548 32.9899 26.7705 32.4334 26.4462 31.9029C26.1419 31.4064 25.6565 30.958 25.0149 31.1642C24.5825 31.3033 24.5294 31.7638 24.4694 32.1321C24.4424 32.2993 25.2941 32.9429 25.9247 32.6386C26.209 33.071 26.5043 33.4583 26.7295 33.8837C26.9487 34.2991 27.0948 34.7516 27.309 35.272C27.6283 34.8176 27.7254 34.3972 27.7905 33.9578C27.8815 33.3402 27.9886 32.7247 28.1088 32.1121C28.1628 31.8348 28.2629 31.5656 28.5862 31.4395C28.8374 31.5816 29.0917 31.7237 29.401 31.8989C29.457 31.6337 29.5241 31.4435 29.5341 31.2493C29.5501 30.95 29.2568 30.5607 28.9706 30.4526Z" fill="#F9B115"/>
<path d="M19.4443 88.2846C19.2992 88.4968 19.1701 88.739 19.106 88.9872C18.9299 89.6689 18.7907 90.3595 18.6446 91.0131C18.3653 90.5097 18.0811 89.9531 17.7568 89.4226C17.4525 88.9262 16.967 88.4778 16.3254 88.684C15.893 88.8231 15.84 89.2835 15.7799 89.6519C15.7529 89.819 16.6047 90.4626 17.2353 90.1583C17.5195 90.5907 17.8148 90.9781 18.04 91.4035C18.2592 91.8189 18.4054 92.2713 18.6196 92.7918C18.9389 92.3374 19.036 91.917 19.101 91.4776C19.1921 90.86 19.2992 90.2444 19.4193 89.6318C19.4734 89.3546 19.5734 89.0853 19.8967 88.9592C20.148 89.1013 20.4022 89.2435 20.7125 89.4186C20.7686 89.1534 20.8356 88.9632 20.8456 88.769C20.8606 88.4708 20.5674 88.0814 20.2821 87.9733C19.9868 87.8602 19.6665 87.9593 19.4443 88.2846Z" fill="#F9B115"/>
<path d="M16.0738 24.3405C16.3511 24.9311 16.6453 25.4636 16.8565 26.0371C17.0627 26.5976 17.1818 27.1982 17.37 27.8928C17.7754 27.3433 17.9255 26.8128 18.0426 26.2533C18.2058 25.4676 18.389 24.6858 18.5851 23.9091C18.6742 23.5588 18.8123 23.2225 19.1897 23.0954C19.4579 23.3066 19.7302 23.5198 20.0615 23.781C20.1506 23.4457 20.2457 23.2075 20.2767 22.9582C20.3238 22.5749 20.0315 22.0404 19.7212 21.8682C19.4009 21.6901 19.0306 21.7811 18.7473 22.1755C18.5631 22.4328 18.394 22.73 18.2969 23.0423C18.0306 23.9011 17.8054 24.7759 17.5752 25.6017C17.311 24.9201 17.0467 24.1704 16.7344 23.4497C16.4411 22.7741 15.9577 22.3717 15.197 22.3337C14.9658 22.72 14.7155 23.1384 14.4863 23.5198C14.8747 24.2855 15.3341 24.6608 16.0738 24.3405Z" fill="#F9B115"/>
<path d="M86.2514 112.11C88.4484 110.511 93.5452 107.34 94.3879 106.818L94.3529 105.915C92.5953 107.013 87.2823 110.467 86.2344 111.222L86.2514 112.11Z" fill="#F9B115"/>
<path d="M68.2453 33.542C66.1514 34.5459 58.3591 38.6537 57.0979 39.3634L57.0059 40.3553C59.6503 38.8489 67.1673 35.0294 68.1712 34.5519L68.2453 33.542Z" fill="#F9B115"/>
<path d="M24.6887 59.4053C22.5947 60.4092 14.8025 64.517 13.5413 65.2267L13.4492 66.2186C16.0937 64.7122 23.6107 60.8927 24.6146 60.4152L24.6887 59.4053Z" fill="#F9B115"/>
<path d="M38.6895 63.3416C41.3339 61.8352 45.4207 59.8614 46.4246 59.384L46.4977 58.374C44.4038 59.378 40.0417 61.6401 38.7805 62.3497L38.6895 63.3416Z" fill="#F9B115"/>
<path d="M42.0449 64.0361C44.6894 62.5297 48.7762 60.5559 49.7801 60.0784L49.8532 59.0685C47.7592 60.0724 43.3972 62.3345 42.136 63.0442L42.0449 64.0361Z" fill="#F9B115"/>
<path d="M24.4484 82.5065C22.3545 83.5104 14.5622 87.6182 13.3011 88.3279L13.209 89.3198C15.8534 87.8134 23.3704 83.9938 24.3744 83.5164L24.4484 82.5065Z" fill="#F9B115"/>
<path d="M81.5417 20.3502C81.3976 21.4082 79.1245 22.5883 79.1245 22.5883C79.1245 22.5883 80.0213 22.5743 80.7119 22.292C81.4026 22.0098 82.6207 20.09 82.898 19.4574C83.1752 18.8238 82.5366 18.4895 82.5366 18.4895C82.5366 18.4895 79.4097 18.98 78.8152 19.2102C77.9294 19.5535 78.1466 21.1189 78.1466 21.1189C79.0964 20.3863 81.5417 20.3502 81.5417 20.3502Z" fill="#F9B115"/>
<path d="M68.4292 102.364C68.4292 102.364 69.326 102.35 70.0166 102.067C70.7073 101.785 71.9254 99.8651 72.2027 99.2326C72.4799 98.599 71.8413 98.2646 71.8413 98.2646C71.8413 98.2646 68.7144 98.7551 68.1199 98.9853C67.234 99.3286 67.4513 100.895 67.4513 100.895C68.4001 100.164 70.8454 100.127 70.8454 100.127C70.7023 101.184 68.4292 102.364 68.4292 102.364Z" fill="#F9B115"/>
<path d="M25.2471 24.9338C26.7725 23.7948 27.7994 22.8389 28.3269 22.0661C28.8014 22.3604 29.1207 22.5486 29.2838 22.6287C29.3859 22.6817 29.491 22.5986 29.5981 22.3784C29.7062 22.1582 29.7382 21.95 29.6932 21.7529C29.4129 21.4456 29.1467 21.2103 28.8955 21.0452C29.0826 20.6779 29.1927 20.3245 29.2278 19.9842C29.3128 19.1344 29.0006 18.674 28.2889 18.6029C28.0447 18.5779 27.7294 18.7771 27.344 19.1995C26.9587 19.6219 26.7535 19.9502 26.7304 20.1834C26.6884 20.5978 26.7885 20.9351 27.0307 21.1953C27.31 21.4055 27.5842 21.6157 27.8525 21.8249C27.4902 22.4425 26.5172 23.3153 24.9338 24.4434C23.9769 25.109 23.025 25.7746 22.0781 26.4412C22.1021 26.5183 22.1622 26.5623 22.2583 26.5723C22.7257 26.6194 23.7217 26.0729 25.2471 24.9338ZM27.6053 19.9662C27.6613 19.725 27.8225 19.6179 28.0877 19.6449C28.427 19.6789 28.5702 19.9722 28.5141 20.5247C28.5011 20.6518 28.4731 20.7729 28.429 20.886C27.8275 20.4817 27.5522 20.1754 27.6053 19.9662Z" fill="#F9B115"/>
<path d="M32.3896 98.503C32.2255 99.1225 32.1164 99.7561 32.3426 100.389C32.4457 100.679 32.6429 100.884 32.9601 100.898C33.2504 100.91 33.4796 100.761 33.5847 100.487C33.7479 100.063 33.886 99.63 34.0351 99.2006C33.9921 99.1796 33.9491 99.1596 33.905 99.1385C33.7919 99.3117 33.6818 99.4869 33.5627 99.655C33.4416 99.8262 33.2644 99.9613 33.0672 99.8672C32.9301 99.8012 32.806 99.633 32.752 99.4839C32.6078 99.0815 32.7049 98.6831 32.837 98.2908C33.0062 97.7883 33.2034 97.2928 33.3315 96.7774C34.2393 93.1059 32.5488 88.7509 31.6079 88.0673C31.4427 88.3565 31.3116 89.4175 31.1875 89.6347C31.5538 90.1041 33.3996 93.6935 32.9481 96.7313C32.856 97.3439 32.5488 97.9054 32.3896 98.503Z" fill="#F9B115"/>
<path d="M99.1711 98.0947C99.05 98.2659 98.8728 98.401 98.6756 98.3069C98.5385 98.2409 98.4144 98.0727 98.3603 97.9236C98.2162 97.5212 98.3133 97.1228 98.4454 96.7305C98.6146 96.228 98.8117 95.7325 98.9399 95.2171C99.8477 91.5456 98.1571 87.1906 97.2163 86.507C97.0511 86.7962 96.92 87.8572 96.7969 88.0744C97.1622 88.5439 99.0079 92.1332 98.5575 95.171C98.4664 95.7836 98.1591 96.3451 98 96.9427C97.8358 97.5622 97.7267 98.1958 97.9529 98.8284C98.056 99.1187 98.2532 99.3239 98.5705 99.3379C98.8608 99.3499 99.09 99.2008 99.1951 98.9265C99.3583 98.5031 99.4964 98.0697 99.6455 97.6403C99.6025 97.6193 99.5594 97.5993 99.5154 97.5783C99.4003 97.7504 99.2902 97.9256 99.1711 98.0947Z" fill="#F9B115"/>
<path d="M27.74 66.6452C27.8992 66.1167 28.0763 65.5912 28.2455 65.0647C28.2215 65.0567 28.1984 65.0487 28.1744 65.0397C27.9953 65.339 27.8011 65.6332 27.6399 65.9385C27.1665 66.8393 26.9363 67.7852 27.0123 68.7781C27.0264 68.9553 27.0854 69.1435 27.1815 69.2986C27.4287 69.696 28.0613 69.7481 28.3606 69.3807C28.7079 68.9553 28.8551 68.4579 28.8781 67.9274C28.779 68.0034 28.7179 68.0965 28.6509 68.1856C28.5788 68.2797 28.5087 68.3768 28.4227 68.4609C28.0933 68.7791 27.717 68.7181 27.5959 68.3057C27.5248 68.0655 27.4988 67.8022 27.5248 67.555C27.5558 67.2477 27.6499 66.9444 27.74 66.6452Z" fill="#F9B115"/>
<path d="M37.1961 48.3444C37.4434 48.7418 38.0759 48.7938 38.3752 48.4265C38.7225 48.0011 38.8697 47.5036 38.8927 46.9731C38.7936 47.0492 38.7325 47.1423 38.6655 47.2314C38.5934 47.3255 38.5234 47.4226 38.4373 47.5066C38.108 47.8249 37.7316 47.7639 37.6105 47.3515C37.5394 47.1113 37.5134 46.848 37.5394 46.6008C37.5715 46.2945 37.6646 45.9912 37.7556 45.6909C37.9148 45.1625 38.092 44.637 38.2611 44.1105C38.2371 44.1025 38.2141 44.0945 38.19 44.0854C38.0109 44.3847 37.8167 44.679 37.6555 44.9843C37.1821 45.8851 36.9519 46.831 37.028 47.8239C37.04 48.0001 37.099 48.1883 37.1961 48.3444Z" fill="#F9B115"/>
<path d="M18.8142 50.9004C18.9734 50.3719 19.1505 49.8464 19.3197 49.3199C19.2957 49.3119 19.2727 49.3039 19.2486 49.2949C19.0695 49.5942 18.8753 49.8885 18.7141 50.1938C18.2407 51.0946 18.0105 52.0405 18.0866 53.0334C18.1006 53.2106 18.1596 53.3987 18.2557 53.5539C18.5029 53.9512 19.1355 54.0033 19.4348 53.636C19.7821 53.2106 19.9293 52.7131 19.9523 52.1826C19.8532 52.2587 19.7921 52.3518 19.7251 52.4408C19.653 52.5349 19.5829 52.632 19.4969 52.7161C19.1676 53.0344 18.7912 52.9733 18.6701 52.561C18.599 52.3207 18.573 52.0575 18.599 51.8103C18.6301 51.504 18.7231 51.2007 18.8142 50.9004Z" fill="#F9B115"/>
<path d="M18.1267 73.6345C18.2859 73.1061 18.463 72.5806 18.6322 72.0541C18.6082 72.0461 18.5852 72.0381 18.5611 72.0291C18.382 72.3283 18.1878 72.6226 18.0266 72.9279C17.5532 73.8287 17.323 74.7746 17.3991 75.7675C17.4131 75.9447 17.4721 76.1329 17.5682 76.288C17.8154 76.6854 18.448 76.7374 18.7473 76.3701C19.0946 75.9447 19.2418 75.4472 19.2648 74.9167C19.1657 74.9928 19.1046 75.0859 19.0376 75.175C18.9655 75.2691 18.8954 75.3662 18.8094 75.4502C18.4801 75.7685 18.1037 75.7075 17.9826 75.2951C17.9115 75.0549 17.8855 74.7916 17.9115 74.5444C17.9436 74.2381 18.0367 73.9348 18.1267 73.6345Z" fill="#F9B115"/>
<path d="M45.7771 39.9405C45.9363 39.412 46.1134 38.8865 46.2826 38.36C46.2586 38.352 46.2356 38.344 46.2115 38.335C46.0324 38.6342 45.8382 38.9285 45.677 39.2338C45.2036 40.1346 44.9734 41.0805 45.0494 42.0734C45.0635 42.2506 45.1225 42.4388 45.2186 42.5939C45.4658 42.9913 46.0984 43.0433 46.3977 42.676C46.745 42.2506 46.8922 41.7531 46.9152 41.2226C46.8161 41.2987 46.755 41.3918 46.688 41.4809C46.6159 41.575 46.5458 41.6721 46.4598 41.7561C46.1305 42.0744 45.7541 42.0134 45.633 41.601C45.5619 41.3608 45.5359 41.0975 45.5619 40.8503C45.594 40.544 45.687 40.2407 45.7771 39.9405Z" fill="#F9B115"/>
<path d="M19.9959 33.6341C19.6666 33.9524 19.2902 33.8913 19.1691 33.4789C19.098 33.2387 19.072 32.9755 19.098 32.7282C19.1301 32.4219 19.2231 32.1187 19.3142 31.8184C19.4734 31.2899 19.6505 30.7644 19.8197 30.2379C19.7957 30.2299 19.7727 30.2219 19.7486 30.2129C19.5695 30.5122 19.3753 30.8064 19.2141 31.1117C18.7407 32.0126 18.5105 32.9584 18.5866 33.9514C18.6006 34.1285 18.6596 34.3167 18.7557 34.4718C19.0029 34.8692 19.6355 34.9213 19.9348 34.5539C20.2821 34.1285 20.4293 33.6311 20.4523 33.1006C20.3532 33.1766 20.2921 33.2697 20.2251 33.3588C20.151 33.4529 20.0819 33.55 19.9959 33.6341Z" fill="#F9B115"/>
<path d="M31.7595 34.5821C31.9187 34.0536 32.0959 33.5281 32.265 33.0016C32.241 32.9936 32.218 32.9856 32.194 32.9766C32.0148 33.2758 31.8206 33.5701 31.6595 33.8754C31.186 34.7762 30.9558 35.7221 31.0319 36.715C31.0459 36.8922 31.1049 37.0804 31.201 37.2355C31.4483 37.6329 32.0808 37.6849 32.3801 37.3176C32.7274 36.8922 32.8746 36.3947 32.8976 35.8642C32.7985 35.9403 32.7375 36.0334 32.6704 36.1225C32.5983 36.2166 32.5283 36.3137 32.4422 36.3977C32.1129 36.716 31.7365 36.655 31.6154 36.2426C31.5443 36.0024 31.5183 35.7391 31.5443 35.4919C31.5754 35.1856 31.6695 34.8823 31.7595 34.5821Z" fill="#F9B115"/>
<path d="M23.6345 93.2466C23.7937 92.7181 23.9709 92.1926 24.14 91.6661C24.116 91.6581 24.093 91.6501 24.069 91.6411C23.8898 91.9404 23.6956 92.2347 23.5345 92.5399C23.061 93.4408 22.8308 94.3867 22.9069 95.3796C22.9209 95.5568 22.9799 95.7449 23.076 95.9001C23.3233 96.2974 23.9558 96.3495 24.2551 95.9821C24.6024 95.5568 24.7496 95.0593 24.7726 94.5288C24.6735 94.6049 24.6125 94.698 24.5454 94.787C24.4733 94.8811 24.4033 94.9782 24.3172 95.0623C23.9879 95.3806 23.6115 95.3195 23.4904 94.9072C23.4193 94.6669 23.3933 94.4037 23.4193 94.1565C23.4504 93.8492 23.5435 93.5459 23.6345 93.2466Z" fill="#F9B115"/>
<path d="M52.4275 99.0884C52.5867 98.5599 52.7638 98.0344 52.933 97.5079C52.909 97.4999 52.8859 97.4919 52.8619 97.4829C52.6828 97.7822 52.4886 98.0765 52.3274 98.3817C51.854 99.2826 51.6238 100.228 51.6998 101.221C51.7139 101.399 51.7729 101.587 51.869 101.742C52.1162 102.139 52.7488 102.191 53.0481 101.824C53.3954 101.399 53.5426 100.901 53.5656 100.372C53.4665 100.448 53.4054 100.541 53.3384 100.63C53.2663 100.724 53.1962 100.821 53.1101 100.905C52.7808 101.223 52.4045 101.162 52.2834 100.75C52.2123 100.51 52.1863 100.246 52.2123 99.9992C52.2433 99.691 52.3374 99.3877 52.4275 99.0884Z" fill="#F9B115"/>
<path d="M82.1658 50.1956C82.325 49.6671 82.5021 49.1416 82.6713 48.6151C82.6472 48.6071 82.6242 48.5991 82.6002 48.5901C82.421 48.8894 82.2269 49.1836 82.0657 49.4889C81.5923 50.3898 81.3621 51.3356 81.4381 52.3286C81.4521 52.5057 81.5112 52.6939 81.6083 52.849C81.8555 53.2464 82.4881 53.2985 82.7874 52.9311C83.1347 52.5057 83.2818 52.0083 83.3049 51.4778C83.2058 51.5538 83.1447 51.6469 83.0776 51.736C83.0056 51.8301 82.9355 51.9272 82.8494 52.0113C82.5201 52.3296 82.1438 52.2685 82.0227 51.8561C81.9516 51.6159 81.9256 51.3527 81.9516 51.1054C81.9816 50.7981 82.0747 50.4949 82.1658 50.1956Z" fill="#F9B115"/>
<path d="M59.5779 46.6922C59.7371 46.1637 59.9142 45.6382 60.0834 45.1117C60.0594 45.1037 60.0363 45.0957 60.0123 45.0867C59.8331 45.3859 59.639 45.6802 59.4778 45.9855C59.0044 46.8863 58.7742 47.8322 58.8502 48.8251C58.8642 49.0023 58.9233 49.1905 59.0194 49.3456C59.2666 49.743 59.8992 49.795 60.1985 49.4277C60.5458 49.0023 60.6929 48.5048 60.716 47.9744C60.6169 48.0504 60.5558 48.1435 60.4888 48.2326C60.4167 48.3267 60.3466 48.4238 60.2605 48.5078C59.9312 48.8261 59.5549 48.7651 59.4338 48.3527C59.3627 48.1125 59.3367 47.8492 59.3627 47.602C59.3937 47.2957 59.4878 46.9924 59.5779 46.6922Z" fill="#F9B115"/>
<path d="M15.4256 102.272C15.5847 101.743 15.7619 101.218 15.931 100.691C15.907 100.683 15.884 100.675 15.86 100.666C15.6808 100.965 15.4866 101.26 15.3255 101.565C14.852 102.466 14.6218 103.412 14.6979 104.405C14.7119 104.582 14.771 104.77 14.867 104.925C15.1143 105.322 15.7469 105.375 16.0461 105.007C16.3935 104.582 16.5406 104.084 16.5636 103.554C16.4645 103.63 16.4035 103.723 16.3364 103.812C16.2643 103.906 16.1943 104.003 16.1082 104.087C15.7789 104.406 15.4025 104.345 15.2814 103.932C15.2104 103.692 15.1843 103.429 15.2104 103.181C15.2414 102.875 15.3345 102.572 15.4256 102.272Z" fill="#F9B115"/>
<path d="M88.6966 42.0932C88.4854 42.4195 88.2672 42.7438 88.0279 43.0501C87.7136 43.4525 87.3763 43.8368 87.041 44.2382C87.0921 44.2592 87.1091 44.2732 87.1201 44.2692C87.1651 44.2542 87.2152 44.2422 87.2522 44.2142C88.0069 43.6387 88.6906 42.9951 89.204 42.1873C89.5223 41.6878 89.6304 41.1413 89.5834 40.5578C89.5634 40.3005 89.4693 40.0783 89.2411 39.9452C88.9488 39.7751 88.2782 39.8732 88.058 40.1354C87.7847 40.4637 87.6065 40.8411 87.6156 41.2905C87.9238 41.2404 88.1911 41.1664 88.4603 41.1613C88.7686 41.1553 88.9298 41.3896 88.8567 41.6868C88.8227 41.829 88.7746 41.9731 88.6966 42.0932Z" fill="#F9B115"/>
<path d="M76.0579 34.3923C75.8467 34.7186 75.6285 35.0429 75.3893 35.3492C75.075 35.7516 74.7377 36.1359 74.4023 36.5373C74.4534 36.5583 74.4704 36.5723 74.4814 36.5683C74.5265 36.5533 74.5765 36.5413 74.6135 36.5133C75.3682 35.9377 76.0519 35.2941 76.5654 34.4864C76.8837 33.9869 76.9918 33.4404 76.9447 32.8569C76.9247 32.5996 76.8306 32.3774 76.6024 32.2443C76.3101 32.0741 75.6395 32.1722 75.4193 32.4345C75.146 32.7628 74.9679 33.1401 74.9769 33.5895C75.2852 33.5395 75.5524 33.4654 75.8217 33.4604C76.1299 33.4544 76.2911 33.6886 76.218 33.9859C76.185 34.128 76.136 34.2732 76.0579 34.3923Z" fill="#F9B115"/>
<path d="M92.2825 103.13C92.0713 103.457 91.8531 103.781 91.6139 104.087C91.2996 104.49 90.9623 104.874 90.627 105.275C90.678 105.296 90.695 105.31 90.706 105.306C90.7511 105.291 90.8011 105.279 90.8392 105.251C91.5939 104.676 92.2775 104.032 92.791 103.225C93.1093 102.725 93.2174 102.179 93.1703 101.595C93.1503 101.338 93.0562 101.116 92.828 100.982C92.5357 100.812 91.8651 100.91 91.6449 101.173C91.3717 101.501 91.1935 101.878 91.2025 102.328C91.5108 102.278 91.778 102.204 92.0473 102.199C92.3556 102.193 92.5167 102.427 92.4436 102.724C92.4096 102.866 92.3606 103.011 92.2825 103.13Z" fill="#F9B115"/>
<path d="M89.5922 78.7676C89.5722 78.5104 89.4781 78.2882 89.2499 78.1551C88.9576 77.9849 88.287 78.083 88.0668 78.3452C87.7935 78.6735 87.6154 79.0509 87.6244 79.5003C87.9326 79.4503 88.1999 79.3762 88.4691 79.3712C88.7774 79.3652 88.9386 79.5994 88.8655 79.8967C88.8315 80.0368 88.7824 80.1819 88.7044 80.3021C88.4932 80.6284 88.275 80.9527 88.0357 81.2589C87.7215 81.6613 87.3841 82.0457 87.0488 82.447C87.0999 82.4681 87.1169 82.4821 87.1279 82.4781C87.1729 82.4631 87.223 82.4511 87.26 82.423C88.0147 81.8475 88.6984 81.2039 89.2118 80.3961C89.5311 79.8977 89.6392 79.3512 89.5922 78.7676Z" fill="#F9B115"/>
<path d="M82.9387 109.189C82.7275 109.515 82.5093 109.84 82.2701 110.146C81.9558 110.548 81.6185 110.933 81.2832 111.334C81.3343 111.355 81.3513 111.369 81.3623 111.365C81.4073 111.35 81.4574 111.338 81.4954 111.31C82.2501 110.734 82.9337 110.091 83.4472 109.283C83.7655 108.784 83.8736 108.237 83.8266 107.653C83.8065 107.396 83.7125 107.174 83.4843 107.041C83.192 106.871 82.5214 106.969 82.3011 107.231C82.0279 107.559 81.8497 107.937 81.8587 108.386C82.167 108.336 82.4343 108.262 82.7035 108.257C83.0118 108.251 83.173 108.485 83.0999 108.783C83.0649 108.924 83.0168 109.069 82.9387 109.189Z" fill="#F9B115"/>
<path d="M63.9876 101.302C63.7764 101.628 63.5582 101.952 63.3189 102.259C63.0047 102.661 62.6673 103.045 62.332 103.447C62.3831 103.468 62.4001 103.482 62.4111 103.478C62.4561 103.463 62.5072 103.451 62.5442 103.423C63.2989 102.847 63.9826 102.204 64.496 101.396C64.8143 100.896 64.9224 100.35 64.8754 99.7664C64.8554 99.5092 64.7613 99.287 64.5331 99.1538C64.2408 98.9837 63.5702 99.0818 63.35 99.344C63.0767 99.6723 62.8986 100.05 62.9076 100.499C63.2159 100.449 63.4831 100.375 63.7524 100.37C64.0606 100.364 64.2218 100.598 64.1487 100.895C64.1147 101.037 64.0656 101.182 63.9876 101.302Z" fill="#F9B115"/>
<path d="M24.8528 110.862C25.6075 110.286 26.2912 109.642 26.8046 108.835C27.1229 108.335 27.231 107.789 27.184 107.205C27.164 106.948 27.0699 106.726 26.8417 106.593C26.5494 106.422 25.8788 106.52 25.6586 106.783C25.3853 107.111 25.2072 107.488 25.2162 107.938C25.5244 107.888 25.7917 107.814 26.0609 107.809C26.3692 107.803 26.5304 108.037 26.4573 108.334C26.4233 108.474 26.3742 108.619 26.2962 108.74C26.085 109.066 25.8668 109.39 25.6275 109.696C25.3133 110.099 24.9759 110.483 24.6406 110.885C24.6917 110.906 24.7087 110.92 24.7197 110.916C24.7657 110.902 24.8158 110.89 24.8528 110.862Z" fill="#F9B115"/>
<path d="M59.4114 78.5312C59.2002 78.8575 58.982 79.1818 58.7428 79.4881C58.4285 79.8905 58.0912 80.2748 57.7559 80.6762C57.8069 80.6972 57.8239 80.7112 57.8349 80.7072C57.88 80.6922 57.93 80.6802 57.9671 80.6522C58.7218 80.0766 59.4054 79.433 59.9189 78.6253C60.2372 78.1258 60.3453 77.5793 60.2982 76.9958C60.2782 76.7385 60.1841 76.5163 59.9559 76.3832C59.6636 76.213 58.993 76.3111 58.7728 76.5734C58.4995 76.9017 58.3214 77.279 58.3304 77.7285C58.6387 77.6784 58.9059 77.6043 59.1752 77.5993C59.4835 77.5933 59.6446 77.8276 59.5715 78.1248C59.5385 78.267 59.4895 78.4111 59.4114 78.5312Z" fill="#F9B115"/>
<path d="M87.6973 60.4753C87.6293 60.4753 87.5432 60.4242 87.4411 60.3212C87.337 60.2181 87.286 60.133 87.286 60.0639C87.296 59.5254 87.2519 59.0259 87.1538 58.5655C87.1048 58.3013 87.0167 58.1681 86.8896 58.1681C86.8115 58.1681 86.7715 58.3103 86.7715 58.5945C86.8015 59.8968 86.9046 60.6955 87.0808 60.9888C87.2379 61.234 87.4431 61.3561 87.6973 61.3561C88.1768 61.3561 88.4571 61.0378 88.5351 60.4012C88.8084 60.8617 89.0536 61.0919 89.2688 61.0919C89.474 61.0919 89.6802 60.9818 89.8854 60.7606C90.0906 60.5404 90.1596 60.2201 90.0906 59.7987C89.8854 59.123 89.7042 58.6436 89.5471 58.3593C89.498 58.027 89.425 57.8599 89.3269 57.8599C89.2578 57.8599 89.1917 57.96 89.1287 58.1611C89.0646 58.3623 89.0426 58.5115 89.0616 58.6096C89.3068 59.2752 89.493 59.7506 89.6201 60.0349C89.5611 60.152 89.454 60.187 89.2978 60.138C89.1317 60.0889 88.9795 59.9518 88.8424 59.7266C88.7643 59.5995 88.6562 59.3693 88.5201 59.036C88.4801 58.7517 88.4561 58.5515 88.446 58.4334C88.427 58.1992 88.363 58.0811 88.2559 58.0811C88.0697 58.0811 87.9916 58.2572 88.0216 58.6096C88.0307 58.6386 88.0747 58.8398 88.1538 59.2121C88.2218 59.5454 88.2569 59.8437 88.2569 60.108C88.2549 60.3532 88.0687 60.4753 87.6973 60.4753Z" fill="#F9B115"/>
<path d="M122.095 60.66C122.045 60.5 122 60.345 121.96 60.195C121.93 60.035 121.905 59.855 121.885 59.655C121.865 59.445 121.85 59.205 121.84 58.935C121.83 58.655 121.825 58.31 121.825 57.9C121.825 57.5 121.83 57.16 121.84 56.88C121.85 56.6 121.865 56.36 121.885 56.16C121.905 55.95 121.93 55.77 121.96 55.62C122 55.46 122.045 55.3 122.095 55.14C122.355 54.3 122.79 53.675 123.4 53.265C124.02 52.845 124.765 52.635 125.635 52.635C126.455 52.635 127.16 52.83 127.75 53.22C128.35 53.61 128.795 54.145 129.085 54.825C129.115 54.915 129.09 54.975 129.01 55.005L127.735 55.62C127.645 55.67 127.58 55.645 127.54 55.545C127.37 55.185 127.135 54.875 126.835 54.615C126.545 54.355 126.145 54.225 125.635 54.225C125.145 54.225 124.75 54.345 124.45 54.585C124.16 54.825 123.945 55.155 123.805 55.575C123.775 55.685 123.745 55.795 123.715 55.905C123.695 56.015 123.675 56.16 123.655 56.34C123.645 56.51 123.635 56.72 123.625 56.97C123.625 57.22 123.625 57.53 123.625 57.9C123.625 58.28 123.625 58.595 123.625 58.845C123.635 59.085 123.645 59.295 123.655 59.475C123.675 59.645 123.695 59.79 123.715 59.91C123.745 60.02 123.775 60.125 123.805 60.225C123.945 60.645 124.16 60.975 124.45 61.215C124.75 61.455 125.145 61.575 125.635 61.575C126.145 61.575 126.545 61.445 126.835 61.185C127.135 60.925 127.37 60.615 127.54 60.255C127.58 60.155 127.645 60.13 127.735 60.18L129.01 60.795C129.09 60.825 129.115 60.885 129.085 60.975C128.795 61.655 128.35 62.19 127.75 62.58C127.16 62.97 126.455 63.165 125.635 63.165C124.765 63.165 124.02 62.96 123.4 62.55C122.79 62.13 122.355 61.5 122.095 60.66ZM130.753 52.95C130.753 52.85 130.803 52.8 130.903 52.8H137.293C137.393 52.8 137.443 52.85 137.443 52.95V54.24C137.443 54.34 137.393 54.39 137.293 54.39H132.613C132.553 54.39 132.523 54.42 132.523 54.48V56.97C132.523 57.03 132.553 57.06 132.613 57.06H136.558C136.658 57.06 136.708 57.11 136.708 57.21V58.5C136.708 58.6 136.658 58.65 136.558 58.65H132.613C132.553 58.65 132.523 58.68 132.523 58.74V61.32C132.523 61.38 132.553 61.41 132.613 61.41H137.293C137.393 61.41 137.443 61.46 137.443 61.56V62.85C137.443 62.95 137.393 63 137.293 63H130.903C130.803 63 130.753 62.95 130.753 62.85V52.95ZM139.308 52.95C139.308 52.85 139.358 52.8 139.458 52.8H140.838C140.948 52.8 141.033 52.85 141.093 52.95L145.248 59.985H145.308V52.95C145.308 52.85 145.358 52.8 145.458 52.8H146.763C146.863 52.8 146.913 52.85 146.913 52.95V62.85C146.913 62.95 146.863 63 146.763 63H145.398C145.288 63 145.203 62.95 145.143 62.85L140.973 55.83H140.913V62.85C140.913 62.95 140.863 63 140.763 63H139.458C139.358 63 139.308 62.95 139.308 62.85V52.95ZM151.431 63C151.331 63 151.281 62.95 151.281 62.85V54.48C151.281 54.42 151.251 54.39 151.191 54.39H148.521C148.421 54.39 148.371 54.34 148.371 54.24V52.95C148.371 52.85 148.421 52.8 148.521 52.8H155.811C155.911 52.8 155.961 52.85 155.961 52.95V54.24C155.961 54.34 155.911 54.39 155.811 54.39H153.141C153.081 54.39 153.051 54.42 153.051 54.48V62.85C153.051 62.95 153.001 63 152.901 63H151.431ZM157.413 52.95C157.413 52.85 157.463 52.8 157.563 52.8H163.953C164.053 52.8 164.103 52.85 164.103 52.95V54.24C164.103 54.34 164.053 54.39 163.953 54.39H159.273C159.213 54.39 159.183 54.42 159.183 54.48V56.97C159.183 57.03 159.213 57.06 159.273 57.06H163.218C163.318 57.06 163.368 57.11 163.368 57.21V58.5C163.368 58.6 163.318 58.65 163.218 58.65H159.273C159.213 58.65 159.183 58.68 159.183 58.74V61.32C159.183 61.38 159.213 61.41 159.273 61.41H163.953C164.053 61.41 164.103 61.46 164.103 61.56V62.85C164.103 62.95 164.053 63 163.953 63H157.563C157.463 63 157.413 62.95 157.413 62.85V52.95ZM171.758 63C171.648 63 171.573 62.95 171.533 62.85L169.583 58.875H167.828C167.768 58.875 167.738 58.905 167.738 58.965V62.85C167.738 62.95 167.688 63 167.588 63H166.118C166.018 63 165.968 62.95 165.968 62.85V52.95C165.968 52.85 166.018 52.8 166.118 52.8H170.063C170.533 52.8 170.963 52.875 171.353 53.025C171.753 53.175 172.098 53.385 172.388 53.655C172.678 53.915 172.903 54.235 173.063 54.615C173.233 54.985 173.318 55.395 173.318 55.845C173.318 56.515 173.143 57.095 172.793 57.585C172.443 58.075 171.973 58.43 171.383 58.65L173.528 62.805C173.558 62.855 173.558 62.9 173.528 62.94C173.508 62.98 173.473 63 173.423 63H171.758ZM170.003 57.285C170.473 57.285 170.848 57.155 171.128 56.895C171.418 56.635 171.563 56.285 171.563 55.845C171.563 55.395 171.418 55.04 171.128 54.78C170.848 54.52 170.473 54.39 170.003 54.39H167.828C167.768 54.39 167.738 54.42 167.738 54.48V57.195C167.738 57.255 167.768 57.285 167.828 57.285H170.003ZM178.8 52.95C178.8 52.85 178.85 52.8 178.95 52.8H185.34C185.44 52.8 185.49 52.85 185.49 52.95V54.24C185.49 54.34 185.44 54.39 185.34 54.39H180.66C180.6 54.39 180.57 54.42 180.57 54.48V57.075C180.57 57.135 180.6 57.165 180.66 57.165H184.605C184.705 57.165 184.755 57.215 184.755 57.315V58.605C184.755 58.705 184.705 58.755 184.605 58.755H180.66C180.6 58.755 180.57 58.785 180.57 58.845V62.85C180.57 62.95 180.52 63 180.42 63H178.95C178.85 63 178.8 62.95 178.8 62.85V52.95ZM190.778 63.165C189.898 63.165 189.143 62.96 188.513 62.55C187.883 62.13 187.438 61.515 187.178 60.705C187.128 60.545 187.083 60.385 187.043 60.225C187.013 60.065 186.988 59.88 186.968 59.67C186.948 59.46 186.933 59.215 186.923 58.935C186.913 58.645 186.908 58.3 186.908 57.9C186.908 57.5 186.913 57.16 186.923 56.88C186.933 56.59 186.948 56.34 186.968 56.13C186.988 55.92 187.013 55.735 187.043 55.575C187.083 55.415 187.128 55.255 187.178 55.095C187.438 54.285 187.883 53.675 188.513 53.265C189.143 52.845 189.898 52.635 190.778 52.635C191.668 52.635 192.428 52.845 193.058 53.265C193.688 53.675 194.133 54.285 194.393 55.095C194.443 55.255 194.483 55.415 194.513 55.575C194.553 55.735 194.583 55.92 194.603 56.13C194.623 56.34 194.638 56.59 194.648 56.88C194.658 57.16 194.663 57.5 194.663 57.9C194.663 58.3 194.658 58.645 194.648 58.935C194.638 59.215 194.623 59.46 194.603 59.67C194.583 59.88 194.553 60.065 194.513 60.225C194.483 60.385 194.443 60.545 194.393 60.705C194.133 61.515 193.688 62.13 193.058 62.55C192.428 62.96 191.668 63.165 190.778 63.165ZM190.778 61.575C191.288 61.575 191.698 61.46 192.008 61.23C192.318 60.99 192.543 60.66 192.683 60.24C192.713 60.15 192.738 60.045 192.758 59.925C192.778 59.805 192.793 59.655 192.803 59.475C192.823 59.295 192.838 59.08 192.848 58.83C192.858 58.57 192.863 58.26 192.863 57.9C192.863 57.54 192.858 57.235 192.848 56.985C192.838 56.725 192.823 56.505 192.803 56.325C192.793 56.145 192.778 55.995 192.758 55.875C192.738 55.755 192.713 55.65 192.683 55.56C192.543 55.14 192.318 54.815 192.008 54.585C191.698 54.345 191.288 54.225 190.778 54.225C190.268 54.225 189.858 54.345 189.548 54.585C189.248 54.815 189.028 55.14 188.888 55.56C188.858 55.65 188.828 55.755 188.798 55.875C188.778 55.995 188.758 56.145 188.738 56.325C188.728 56.505 188.718 56.725 188.708 56.985C188.708 57.235 188.708 57.54 188.708 57.9C188.708 58.26 188.708 58.57 188.708 58.83C188.718 59.08 188.728 59.295 188.738 59.475C188.758 59.655 188.778 59.805 188.798 59.925C188.828 60.045 188.858 60.15 188.888 60.24C189.028 60.66 189.248 60.99 189.548 61.23C189.858 61.46 190.268 61.575 190.778 61.575ZM202.402 63C202.292 63 202.217 62.95 202.177 62.85L200.227 58.875H198.472C198.412 58.875 198.382 58.905 198.382 58.965V62.85C198.382 62.95 198.332 63 198.232 63H196.762C196.662 63 196.612 62.95 196.612 62.85V52.95C196.612 52.85 196.662 52.8 196.762 52.8H200.707C201.177 52.8 201.607 52.875 201.997 53.025C202.397 53.175 202.742 53.385 203.032 53.655C203.322 53.915 203.547 54.235 203.707 54.615C203.877 54.985 203.962 55.395 203.962 55.845C203.962 56.515 203.787 57.095 203.437 57.585C203.087 58.075 202.617 58.43 202.027 58.65L204.172 62.805C204.202 62.855 204.202 62.9 204.172 62.94C204.152 62.98 204.117 63 204.067 63H202.402ZM200.647 57.285C201.117 57.285 201.492 57.155 201.772 56.895C202.062 56.635 202.207 56.285 202.207 55.845C202.207 55.395 202.062 55.04 201.772 54.78C201.492 54.52 201.117 54.39 200.647 54.39H198.472C198.412 54.39 198.382 54.42 198.382 54.48V57.195C198.382 57.255 198.412 57.285 198.472 57.285H200.647ZM209.414 60.66C209.364 60.5 209.319 60.345 209.279 60.195C209.249 60.035 209.224 59.855 209.204 59.655C209.184 59.445 209.169 59.205 209.159 58.935C209.149 58.655 209.144 58.31 209.144 57.9C209.144 57.5 209.149 57.16 209.159 56.88C209.169 56.6 209.184 56.36 209.204 56.16C209.224 55.95 209.249 55.77 209.279 55.62C209.319 55.46 209.364 55.3 209.414 55.14C209.674 54.3 210.109 53.675 210.719 53.265C211.339 52.845 212.084 52.635 212.954 52.635C213.774 52.635 214.479 52.83 215.069 53.22C215.669 53.61 216.114 54.145 216.404 54.825C216.434 54.915 216.409 54.975 216.329 55.005L215.054 55.62C214.964 55.67 214.899 55.645 214.859 55.545C214.689 55.185 214.454 54.875 214.154 54.615C213.864 54.355 213.464 54.225 212.954 54.225C212.464 54.225 212.069 54.345 211.769 54.585C211.479 54.825 211.264 55.155 211.124 55.575C211.094 55.685 211.064 55.795 211.034 55.905C211.014 56.015 210.994 56.16 210.974 56.34C210.964 56.51 210.954 56.72 210.944 56.97C210.944 57.22 210.944 57.53 210.944 57.9C210.944 58.28 210.944 58.595 210.944 58.845C210.954 59.085 210.964 59.295 210.974 59.475C210.994 59.645 211.014 59.79 211.034 59.91C211.064 60.02 211.094 60.125 211.124 60.225C211.264 60.645 211.479 60.975 211.769 61.215C212.069 61.455 212.464 61.575 212.954 61.575C213.464 61.575 213.864 61.445 214.154 61.185C214.454 60.925 214.689 60.615 214.859 60.255C214.899 60.155 214.964 60.13 215.054 60.18L216.329 60.795C216.409 60.825 216.434 60.885 216.404 60.975C216.114 61.655 215.669 62.19 215.069 62.58C214.479 62.97 213.774 63.165 212.954 63.165C212.084 63.165 211.339 62.96 210.719 62.55C210.109 62.13 209.674 61.5 209.414 60.66ZM221.642 63.165C220.762 63.165 220.007 62.96 219.377 62.55C218.747 62.13 218.302 61.515 218.042 60.705C217.992 60.545 217.947 60.385 217.907 60.225C217.877 60.065 217.852 59.88 217.832 59.67C217.812 59.46 217.797 59.215 217.787 58.935C217.777 58.645 217.772 58.3 217.772 57.9C217.772 57.5 217.777 57.16 217.787 56.88C217.797 56.59 217.812 56.34 217.832 56.13C217.852 55.92 217.877 55.735 217.907 55.575C217.947 55.415 217.992 55.255 218.042 55.095C218.302 54.285 218.747 53.675 219.377 53.265C220.007 52.845 220.762 52.635 221.642 52.635C222.532 52.635 223.292 52.845 223.922 53.265C224.552 53.675 224.997 54.285 225.257 55.095C225.307 55.255 225.347 55.415 225.377 55.575C225.417 55.735 225.447 55.92 225.467 56.13C225.487 56.34 225.502 56.59 225.512 56.88C225.522 57.16 225.527 57.5 225.527 57.9C225.527 58.3 225.522 58.645 225.512 58.935C225.502 59.215 225.487 59.46 225.467 59.67C225.447 59.88 225.417 60.065 225.377 60.225C225.347 60.385 225.307 60.545 225.257 60.705C224.997 61.515 224.552 62.13 223.922 62.55C223.292 62.96 222.532 63.165 221.642 63.165ZM221.642 61.575C222.152 61.575 222.562 61.46 222.872 61.23C223.182 60.99 223.407 60.66 223.547 60.24C223.577 60.15 223.602 60.045 223.622 59.925C223.642 59.805 223.657 59.655 223.667 59.475C223.687 59.295 223.702 59.08 223.712 58.83C223.722 58.57 223.727 58.26 223.727 57.9C223.727 57.54 223.722 57.235 223.712 56.985C223.702 56.725 223.687 56.505 223.667 56.325C223.657 56.145 223.642 55.995 223.622 55.875C223.602 55.755 223.577 55.65 223.547 55.56C223.407 55.14 223.182 54.815 222.872 54.585C222.562 54.345 222.152 54.225 221.642 54.225C221.132 54.225 220.722 54.345 220.412 54.585C220.112 54.815 219.892 55.14 219.752 55.56C219.722 55.65 219.692 55.755 219.662 55.875C219.642 55.995 219.622 56.145 219.602 56.325C219.592 56.505 219.582 56.725 219.572 56.985C219.572 57.235 219.572 57.54 219.572 57.9C219.572 58.26 219.572 58.57 219.572 58.83C219.582 59.08 219.592 59.295 219.602 59.475C219.622 59.655 219.642 59.805 219.662 59.925C219.692 60.045 219.722 60.15 219.752 60.24C219.892 60.66 220.112 60.99 220.412 61.23C220.722 61.46 221.132 61.575 221.642 61.575ZM227.477 52.95C227.477 52.85 227.527 52.8 227.627 52.8H229.007C229.117 52.8 229.202 52.85 229.262 52.95L233.417 59.985H233.477V52.95C233.477 52.85 233.527 52.8 233.627 52.8H234.932C235.032 52.8 235.082 52.85 235.082 52.95V62.85C235.082 62.95 235.032 63 234.932 63H233.567C233.457 63 233.372 62.95 233.312 62.85L229.142 55.83H229.082V62.85C229.082 62.95 229.032 63 228.932 63H227.627C227.527 63 227.477 62.95 227.477 62.85V52.95ZM237.335 52.95C237.335 52.85 237.385 52.8 237.485 52.8H243.875C243.975 52.8 244.025 52.85 244.025 52.95V54.24C244.025 54.34 243.975 54.39 243.875 54.39H239.195C239.135 54.39 239.105 54.42 239.105 54.48V57.075C239.105 57.135 239.135 57.165 239.195 57.165H243.14C243.24 57.165 243.29 57.215 243.29 57.315V58.605C243.29 58.705 243.24 58.755 243.14 58.755H239.195C239.135 58.755 239.105 58.785 239.105 58.845V62.85C239.105 62.95 239.055 63 238.955 63H237.485C237.385 63 237.335 62.95 237.335 62.85V52.95ZM245.743 52.95C245.743 52.85 245.793 52.8 245.893 52.8H247.363C247.463 52.8 247.513 52.85 247.513 52.95V61.32C247.513 61.38 247.543 61.41 247.603 61.41H252.283C252.383 61.41 252.433 61.46 252.433 61.56V62.85C252.433 62.95 252.383 63 252.283 63H245.893C245.793 63 245.743 62.95 245.743 62.85V52.95ZM253.917 52.95C253.917 52.85 253.967 52.8 254.067 52.8H255.537C255.637 52.8 255.687 52.85 255.687 52.95V62.85C255.687 62.95 255.637 63 255.537 63H254.067C253.967 63 253.917 62.95 253.917 62.85V52.95ZM257.901 60.66C257.851 60.5 257.806 60.345 257.766 60.195C257.736 60.035 257.711 59.855 257.691 59.655C257.671 59.445 257.656 59.205 257.646 58.935C257.636 58.655 257.631 58.31 257.631 57.9C257.631 57.5 257.636 57.16 257.646 56.88C257.656 56.6 257.671 56.36 257.691 56.16C257.711 55.95 257.736 55.77 257.766 55.62C257.806 55.46 257.851 55.3 257.901 55.14C258.161 54.3 258.596 53.675 259.206 53.265C259.826 52.845 260.571 52.635 261.441 52.635C262.261 52.635 262.966 52.83 263.556 53.22C264.156 53.61 264.601 54.145 264.891 54.825C264.921 54.915 264.896 54.975 264.816 55.005L263.541 55.62C263.451 55.67 263.386 55.645 263.346 55.545C263.176 55.185 262.941 54.875 262.641 54.615C262.351 54.355 261.951 54.225 261.441 54.225C260.951 54.225 260.556 54.345 260.256 54.585C259.966 54.825 259.751 55.155 259.611 55.575C259.581 55.685 259.551 55.795 259.521 55.905C259.501 56.015 259.481 56.16 259.461 56.34C259.451 56.51 259.441 56.72 259.431 56.97C259.431 57.22 259.431 57.53 259.431 57.9C259.431 58.28 259.431 58.595 259.431 58.845C259.441 59.085 259.451 59.295 259.461 59.475C259.481 59.645 259.501 59.79 259.521 59.91C259.551 60.02 259.581 60.125 259.611 60.225C259.751 60.645 259.966 60.975 260.256 61.215C260.556 61.455 260.951 61.575 261.441 61.575C261.951 61.575 262.351 61.445 262.641 61.185C262.941 60.925 263.176 60.615 263.346 60.255C263.386 60.155 263.451 60.13 263.541 60.18L264.816 60.795C264.896 60.825 264.921 60.885 264.891 60.975C264.601 61.655 264.156 62.19 263.556 62.58C262.966 62.97 262.261 63.165 261.441 63.165C260.571 63.165 259.826 62.96 259.206 62.55C258.596 62.13 258.161 61.5 257.901 60.66ZM268.56 63C268.46 63 268.41 62.95 268.41 62.85V54.48C268.41 54.42 268.38 54.39 268.32 54.39H265.65C265.55 54.39 265.5 54.34 265.5 54.24V52.95C265.5 52.85 265.55 52.8 265.65 52.8H272.94C273.04 52.8 273.09 52.85 273.09 52.95V54.24C273.09 54.34 273.04 54.39 272.94 54.39H270.27C270.21 54.39 270.18 54.42 270.18 54.48V62.85C270.18 62.95 270.13 63 270.03 63H268.56ZM280.566 52.95C280.596 52.85 280.661 52.8 280.761 52.8H282.141C282.241 52.8 282.306 52.85 282.336 52.95L285.786 62.85C285.816 62.95 285.781 63 285.681 63H284.211C284.111 63 284.046 62.95 284.016 62.85L283.341 60.87H279.501L278.826 62.85C278.796 62.95 278.731 63 278.631 63H277.176C277.076 63 277.041 62.95 277.071 62.85L280.566 52.95ZM282.801 59.295L281.451 55.335H281.406L280.041 59.295H282.801ZM287.184 52.95C287.184 52.85 287.234 52.8 287.334 52.8H288.714C288.824 52.8 288.909 52.85 288.969 52.95L293.124 59.985H293.184V52.95C293.184 52.85 293.234 52.8 293.334 52.8H294.639C294.739 52.8 294.789 52.85 294.789 52.95V62.85C294.789 62.95 294.739 63 294.639 63H293.274C293.164 63 293.079 62.95 293.019 62.85L288.849 55.83H288.789V62.85C288.789 62.95 288.739 63 288.639 63H287.334C287.234 63 287.184 62.95 287.184 62.85V52.95ZM297.042 52.95C297.042 52.85 297.092 52.8 297.192 52.8H300.837C302.617 52.8 303.752 53.555 304.242 55.065C304.282 55.195 304.317 55.335 304.347 55.485C304.377 55.625 304.402 55.8 304.422 56.01C304.452 56.22 304.472 56.48 304.482 56.79C304.492 57.09 304.497 57.46 304.497 57.9C304.497 58.34 304.492 58.715 304.482 59.025C304.472 59.325 304.452 59.58 304.422 59.79C304.402 60 304.377 60.18 304.347 60.33C304.317 60.47 304.282 60.605 304.242 60.735C303.752 62.245 302.617 63 300.837 63H297.192C297.092 63 297.042 62.95 297.042 62.85V52.95ZM298.812 61.32C298.812 61.38 298.842 61.41 298.902 61.41H300.417C300.987 61.41 301.442 61.31 301.782 61.11C302.132 60.91 302.382 60.58 302.532 60.12C302.562 60.05 302.587 59.965 302.607 59.865C302.627 59.755 302.642 59.62 302.652 59.46C302.672 59.29 302.687 59.08 302.697 58.83C302.707 58.58 302.712 58.27 302.712 57.9C302.712 57.53 302.707 57.22 302.697 56.97C302.687 56.72 302.672 56.51 302.652 56.34C302.642 56.17 302.627 56.035 302.607 55.935C302.587 55.835 302.562 55.75 302.532 55.68C302.382 55.22 302.132 54.89 301.782 54.69C301.442 54.49 300.987 54.39 300.417 54.39H298.902C298.842 54.39 298.812 54.42 298.812 54.48V61.32ZM122.125 74.95C122.125 74.85 122.175 74.8 122.275 74.8H123.745C123.845 74.8 123.895 74.85 123.895 74.95V78.97C123.895 79.03 123.925 79.06 123.985 79.06H127.87C127.93 79.06 127.96 79.03 127.96 78.97V74.95C127.96 74.85 128.01 74.8 128.11 74.8H129.58C129.68 74.8 129.73 74.85 129.73 74.95V84.85C129.73 84.95 129.68 85 129.58 85H128.11C128.01 85 127.96 84.95 127.96 84.85V80.74C127.96 80.68 127.93 80.65 127.87 80.65H123.985C123.925 80.65 123.895 80.68 123.895 80.74V84.85C123.895 84.95 123.845 85 123.745 85H122.275C122.175 85 122.125 84.95 122.125 84.85V74.95ZM136.723 83.575C137.313 83.575 137.793 83.39 138.163 83.02C138.533 82.64 138.718 82.095 138.718 81.385V74.95C138.718 74.85 138.768 74.8 138.868 74.8H140.338C140.438 74.8 140.488 74.85 140.488 74.95V81.415C140.488 82.005 140.393 82.535 140.203 83.005C140.013 83.465 139.748 83.855 139.408 84.175C139.078 84.495 138.683 84.74 138.223 84.91C137.763 85.08 137.263 85.165 136.723 85.165C136.183 85.165 135.683 85.08 135.223 84.91C134.773 84.74 134.378 84.495 134.038 84.175C133.708 83.855 133.448 83.465 133.258 83.005C133.068 82.535 132.973 82.005 132.973 81.415V74.95C132.973 74.85 133.023 74.8 133.123 74.8H134.593C134.693 74.8 134.743 74.85 134.743 74.95V81.385C134.743 82.095 134.928 82.64 135.298 83.02C135.668 83.39 136.143 83.575 136.723 83.575ZM143.722 74.95C143.722 74.85 143.772 74.8 143.872 74.8H145.207C145.337 74.8 145.422 74.85 145.462 74.95L148.267 81.235H148.327L151.087 74.95C151.127 74.85 151.212 74.8 151.342 74.8H152.662C152.762 74.8 152.812 74.85 152.812 74.95V84.85C152.812 84.95 152.762 85 152.662 85H151.357C151.257 85 151.207 84.95 151.207 84.85V78.61H151.147L148.987 83.41C148.927 83.54 148.832 83.605 148.702 83.605H147.832C147.702 83.605 147.607 83.54 147.547 83.41L145.387 78.61H145.327V84.85C145.327 84.95 145.277 85 145.177 85H143.872C143.772 85 143.722 84.95 143.722 84.85V74.95ZM158.75 74.95C158.78 74.85 158.845 74.8 158.945 74.8H160.325C160.425 74.8 160.49 74.85 160.52 74.95L163.97 84.85C164 84.95 163.965 85 163.865 85H162.395C162.295 85 162.23 84.95 162.2 84.85L161.525 82.87H157.685L157.01 84.85C156.98 84.95 156.915 85 156.815 85H155.36C155.26 85 155.225 84.95 155.255 84.85L158.75 74.95ZM160.985 81.295L159.635 77.335H159.59L158.225 81.295H160.985ZM166.418 74.95C166.418 74.85 166.468 74.8 166.568 74.8H167.948C168.058 74.8 168.143 74.85 168.203 74.95L172.358 81.985H172.418V74.95C172.418 74.85 172.468 74.8 172.568 74.8H173.873C173.973 74.8 174.023 74.85 174.023 74.95V84.85C174.023 84.95 173.973 85 173.873 85H172.508C172.398 85 172.313 84.95 172.253 84.85L168.083 77.83H168.023V84.85C168.023 84.95 167.973 85 167.873 85H166.568C166.468 85 166.418 84.95 166.418 84.85V74.95ZM177.326 74.95C177.326 74.85 177.376 74.8 177.476 74.8H178.946C179.046 74.8 179.096 74.85 179.096 74.95V84.85C179.096 84.95 179.046 85 178.946 85H177.476C177.376 85 177.326 84.95 177.326 84.85V74.95ZM184.655 85C184.555 85 184.505 84.95 184.505 84.85V76.48C184.505 76.42 184.475 76.39 184.415 76.39H181.745C181.645 76.39 181.595 76.34 181.595 76.24V74.95C181.595 74.85 181.645 74.8 181.745 74.8H189.035C189.135 74.8 189.185 74.85 189.185 74.95V76.24C189.185 76.34 189.135 76.39 189.035 76.39H186.365C186.305 76.39 186.275 76.42 186.275 76.48V84.85C186.275 84.95 186.225 85 186.125 85H184.655ZM193.433 74.95C193.463 74.85 193.528 74.8 193.628 74.8H195.008C195.108 74.8 195.173 74.85 195.203 74.95L198.653 84.85C198.683 84.95 198.648 85 198.548 85H197.078C196.978 85 196.913 84.95 196.883 84.85L196.208 82.87H192.368L191.693 84.85C191.663 84.95 191.598 85 191.498 85H190.043C189.943 85 189.908 84.95 189.938 84.85L193.433 74.95ZM195.668 81.295L194.318 77.335H194.273L192.908 81.295H195.668ZM206.891 85C206.781 85 206.706 84.95 206.666 84.85L204.716 80.875H202.961C202.901 80.875 202.871 80.905 202.871 80.965V84.85C202.871 84.95 202.821 85 202.721 85H201.251C201.151 85 201.101 84.95 201.101 84.85V74.95C201.101 74.85 201.151 74.8 201.251 74.8H205.196C205.666 74.8 206.096 74.875 206.486 75.025C206.886 75.175 207.231 75.385 207.521 75.655C207.811 75.915 208.036 76.235 208.196 76.615C208.366 76.985 208.451 77.395 208.451 77.845C208.451 78.515 208.276 79.095 207.926 79.585C207.576 80.075 207.106 80.43 206.516 80.65L208.661 84.805C208.691 84.855 208.691 84.9 208.661 84.94C208.641 84.98 208.606 85 208.556 85H206.891ZM205.136 79.285C205.606 79.285 205.981 79.155 206.261 78.895C206.551 78.635 206.696 78.285 206.696 77.845C206.696 77.395 206.551 77.04 206.261 76.78C205.981 76.52 205.606 76.39 205.136 76.39H202.961C202.901 76.39 202.871 76.42 202.871 76.48V79.195C202.871 79.255 202.901 79.285 202.961 79.285H205.136ZM211.438 74.95C211.438 74.85 211.488 74.8 211.588 74.8H213.058C213.158 74.8 213.208 74.85 213.208 74.95V84.85C213.208 84.95 213.158 85 213.058 85H211.588C211.488 85 211.438 84.95 211.438 84.85V74.95ZM219.142 74.95C219.172 74.85 219.237 74.8 219.337 74.8H220.717C220.817 74.8 220.882 74.85 220.912 74.95L224.362 84.85C224.392 84.95 224.357 85 224.257 85H222.787C222.687 85 222.622 84.95 222.592 84.85L221.917 82.87H218.077L217.402 84.85C217.372 84.95 217.307 85 217.207 85H215.752C215.652 85 215.617 84.95 215.647 84.85L219.142 74.95ZM221.377 81.295L220.027 77.335H219.982L218.617 81.295H221.377ZM226.81 74.95C226.81 74.85 226.86 74.8 226.96 74.8H228.34C228.45 74.8 228.535 74.85 228.595 74.95L232.75 81.985H232.81V74.95C232.81 74.85 232.86 74.8 232.96 74.8H234.265C234.365 74.8 234.415 74.85 234.415 74.95V84.85C234.415 84.95 234.365 85 234.265 85H232.9C232.79 85 232.705 84.95 232.645 84.85L228.475 77.83H228.415V84.85C228.415 84.95 228.365 85 228.265 85H226.96C226.86 85 226.81 84.95 226.81 84.85V74.95ZM245.523 85.165C245.143 85.165 244.773 85.13 244.413 85.06C244.053 84.99 243.708 84.895 243.378 84.775C243.058 84.655 242.758 84.515 242.478 84.355C242.208 84.185 241.973 84.005 241.773 83.815C241.693 83.735 241.683 83.66 241.743 83.59L242.673 82.51C242.743 82.43 242.813 82.425 242.883 82.495C243.043 82.625 243.223 82.755 243.423 82.885C243.633 83.015 243.853 83.13 244.083 83.23C244.323 83.33 244.573 83.415 244.833 83.485C245.093 83.545 245.368 83.575 245.658 83.575C246.268 83.575 246.738 83.44 247.068 83.17C247.408 82.89 247.578 82.535 247.578 82.105C247.578 81.735 247.443 81.435 247.173 81.205C246.903 80.965 246.418 80.795 245.718 80.695L245.178 80.62C244.188 80.48 243.428 80.175 242.898 79.705C242.368 79.225 242.103 78.56 242.103 77.71C242.103 77.25 242.183 76.83 242.343 76.45C242.503 76.07 242.733 75.745 243.033 75.475C243.333 75.205 243.693 75 244.113 74.86C244.543 74.71 245.023 74.635 245.553 74.635C246.193 74.635 246.798 74.73 247.368 74.92C247.948 75.1 248.443 75.345 248.853 75.655C248.923 75.715 248.933 75.785 248.883 75.865L248.163 76.975C248.103 77.055 248.033 77.07 247.953 77.02C247.533 76.75 247.128 76.55 246.738 76.42C246.348 76.29 245.938 76.225 245.508 76.225C244.988 76.225 244.588 76.355 244.308 76.615C244.038 76.865 243.903 77.19 243.903 77.59C243.903 77.94 244.043 78.235 244.323 78.475C244.603 78.705 245.088 78.87 245.778 78.97L246.318 79.045C247.308 79.185 248.063 79.495 248.583 79.975C249.103 80.445 249.363 81.12 249.363 82C249.363 82.45 249.283 82.87 249.123 83.26C248.963 83.65 248.718 83.985 248.388 84.265C248.068 84.545 247.668 84.765 247.188 84.925C246.708 85.085 246.153 85.165 245.523 85.165ZM254.432 85C254.332 85 254.282 84.95 254.282 84.85V76.48C254.282 76.42 254.252 76.39 254.192 76.39H251.522C251.422 76.39 251.372 76.34 251.372 76.24V74.95C251.372 74.85 251.422 74.8 251.522 74.8H258.812C258.912 74.8 258.962 74.85 258.962 74.95V76.24C258.962 76.34 258.912 76.39 258.812 76.39H256.142C256.082 76.39 256.052 76.42 256.052 76.48V84.85C256.052 84.95 256.002 85 255.902 85H254.432ZM265.154 83.575C265.744 83.575 266.224 83.39 266.594 83.02C266.964 82.64 267.149 82.095 267.149 81.385V74.95C267.149 74.85 267.199 74.8 267.299 74.8H268.769C268.869 74.8 268.919 74.85 268.919 74.95V81.415C268.919 82.005 268.824 82.535 268.634 83.005C268.444 83.465 268.179 83.855 267.839 84.175C267.509 84.495 267.114 84.74 266.654 84.91C266.194 85.08 265.694 85.165 265.154 85.165C264.614 85.165 264.114 85.08 263.654 84.91C263.204 84.74 262.809 84.495 262.469 84.175C262.139 83.855 261.879 83.465 261.689 83.005C261.499 82.535 261.404 82.005 261.404 81.415V74.95C261.404 74.85 261.454 74.8 261.554 74.8H263.024C263.124 74.8 263.174 74.85 263.174 74.95V81.385C263.174 82.095 263.359 82.64 263.729 83.02C264.099 83.39 264.574 83.575 265.154 83.575ZM272.153 74.95C272.153 74.85 272.203 74.8 272.303 74.8H275.948C277.728 74.8 278.863 75.555 279.353 77.065C279.393 77.195 279.428 77.335 279.458 77.485C279.488 77.625 279.513 77.8 279.533 78.01C279.563 78.22 279.583 78.48 279.593 78.79C279.603 79.09 279.608 79.46 279.608 79.9C279.608 80.34 279.603 80.715 279.593 81.025C279.583 81.325 279.563 81.58 279.533 81.79C279.513 82 279.488 82.18 279.458 82.33C279.428 82.47 279.393 82.605 279.353 82.735C278.863 84.245 277.728 85 275.948 85H272.303C272.203 85 272.153 84.95 272.153 84.85V74.95ZM273.923 83.32C273.923 83.38 273.953 83.41 274.013 83.41H275.528C276.098 83.41 276.553 83.31 276.893 83.11C277.243 82.91 277.493 82.58 277.643 82.12C277.673 82.05 277.698 81.965 277.718 81.865C277.738 81.755 277.753 81.62 277.763 81.46C277.783 81.29 277.798 81.08 277.808 80.83C277.818 80.58 277.823 80.27 277.823 79.9C277.823 79.53 277.818 79.22 277.808 78.97C277.798 78.72 277.783 78.51 277.763 78.34C277.753 78.17 277.738 78.035 277.718 77.935C277.698 77.835 277.673 77.75 277.643 77.68C277.493 77.22 277.243 76.89 276.893 76.69C276.553 76.49 276.098 76.39 275.528 76.39H274.013C273.953 76.39 273.923 76.42 273.923 76.48V83.32ZM282.578 74.95C282.578 74.85 282.628 74.8 282.728 74.8H284.198C284.298 74.8 284.348 74.85 284.348 74.95V84.85C284.348 84.95 284.298 85 284.198 85H282.728C282.628 85 282.578 84.95 282.578 84.85V74.95ZM287.641 74.95C287.641 74.85 287.691 74.8 287.791 74.8H294.181C294.281 74.8 294.331 74.85 294.331 74.95V76.24C294.331 76.34 294.281 76.39 294.181 76.39H289.501C289.441 76.39 289.411 76.42 289.411 76.48V78.97C289.411 79.03 289.441 79.06 289.501 79.06H293.446C293.546 79.06 293.596 79.11 293.596 79.21V80.5C293.596 80.6 293.546 80.65 293.446 80.65H289.501C289.441 80.65 289.411 80.68 289.411 80.74V83.32C289.411 83.38 289.441 83.41 289.501 83.41H294.181C294.281 83.41 294.331 83.46 294.331 83.56V84.85C294.331 84.95 294.281 85 294.181 85H287.791C287.691 85 287.641 84.95 287.641 84.85V74.95ZM300.456 85.165C300.076 85.165 299.706 85.13 299.346 85.06C298.986 84.99 298.641 84.895 298.311 84.775C297.991 84.655 297.691 84.515 297.411 84.355C297.141 84.185 296.906 84.005 296.706 83.815C296.626 83.735 296.616 83.66 296.676 83.59L297.606 82.51C297.676 82.43 297.746 82.425 297.816 82.495C297.976 82.625 298.156 82.755 298.356 82.885C298.566 83.015 298.786 83.13 299.016 83.23C299.256 83.33 299.506 83.415 299.766 83.485C300.026 83.545 300.301 83.575 300.591 83.575C301.201 83.575 301.671 83.44 302.001 83.17C302.341 82.89 302.511 82.535 302.511 82.105C302.511 81.735 302.376 81.435 302.106 81.205C301.836 80.965 301.351 80.795 300.651 80.695L300.111 80.62C299.121 80.48 298.361 80.175 297.831 79.705C297.301 79.225 297.036 78.56 297.036 77.71C297.036 77.25 297.116 76.83 297.276 76.45C297.436 76.07 297.666 75.745 297.966 75.475C298.266 75.205 298.626 75 299.046 74.86C299.476 74.71 299.956 74.635 300.486 74.635C301.126 74.635 301.731 74.73 302.301 74.92C302.881 75.1 303.376 75.345 303.786 75.655C303.856 75.715 303.866 75.785 303.816 75.865L303.096 76.975C303.036 77.055 302.966 77.07 302.886 77.02C302.466 76.75 302.061 76.55 301.671 76.42C301.281 76.29 300.871 76.225 300.441 76.225C299.921 76.225 299.521 76.355 299.241 76.615C298.971 76.865 298.836 77.19 298.836 77.59C298.836 77.94 298.976 78.235 299.256 78.475C299.536 78.705 300.021 78.87 300.711 78.97L301.251 79.045C302.241 79.185 302.996 79.495 303.516 79.975C304.036 80.445 304.296 81.12 304.296 82C304.296 82.45 304.216 82.87 304.056 83.26C303.896 83.65 303.651 83.985 303.321 84.265C303.001 84.545 302.601 84.765 302.121 84.925C301.641 85.085 301.086 85.165 300.456 85.165Z" fill="white"/>
</svg>
